<svg width="24" height="24" viewBox="0 0 24 24" fill="none" xmlns="http://www.w3.org/2000/svg">
<path d="M17.0278 19.7501H15.9878C13.9778 19.7501 13.0078 18.8201 13.0078 16.9001V5.1001C13.0078 4.6901 13.3478 4.3501 13.7578 4.3501C14.1678 4.3501 14.5078 4.6901 14.5078 5.1001V16.9001C14.5078 17.9101 14.7178 18.2501 15.9878 18.2501H17.0278C18.2978 18.2501 18.5078 17.9101 18.5078 16.9001V5.1001C18.5078 4.6901 18.8478 4.3501 19.2578 4.3501C19.6678 4.3501 20.0078 4.6901 20.0078 5.1001V16.9001C20.0078 18.8201 19.0378 19.7501 17.0278 19.7501Z" fill="#292D32"/>
<path d="M8.52781 14.7501H7.48781C5.47781 14.7501 4.50781 13.8201 4.50781 11.9001V5.1001C4.50781 4.6901 4.84781 4.3501 5.25781 4.3501C5.66781 4.3501 6.00781 4.6901 6.00781 5.1001V11.9001C6.00781 12.9101 6.21781 13.2501 7.48781 13.2501H8.52781C9.79781 13.2501 10.0078 12.9101 10.0078 11.9001V5.1001C10.0078 4.6901 10.3478 4.3501 10.7578 4.3501C11.1678 4.3501 11.5078 4.6901 11.5078 5.1001V11.9001C11.5078 13.8201 10.5378 14.7501 8.52781 14.7501Z" fill="#292D32"/>
<path d="M22 5.75H2C1.58 5.75 1.25 5.41 1.25 5C1.25 4.59 1.58 4.25 2 4.25H22C22.41 4.25 22.75 4.59 22.75 5C22.75 5.41 22.42 5.75 22 5.75Z" fill="#292D32"/>
</svg>
