<svg width="24" height="24" viewBox="0 0 24 24" fill="none" xmlns="http://www.w3.org/2000/svg">
<path d="M16.9016 20H5.10156C4.69156 20 4.35156 19.66 4.35156 19.25C4.35156 18.84 4.69156 18.5 5.10156 18.5H16.9016C17.9116 18.5 18.2516 18.29 18.2516 17.02V15.98C18.2516 14.71 17.9116 14.5 16.9016 14.5H5.10156C4.69156 14.5 4.35156 14.16 4.35156 13.75C4.35156 13.34 4.69156 13 5.10156 13H16.9016C18.8216 13 19.7516 13.98 19.7516 15.98V17.02C19.7516 19.02 18.8216 20 16.9016 20Z" fill="#292D32"/>
<path d="M11.9016 11.5H5.10156C4.69156 11.5 4.35156 11.16 4.35156 10.75C4.35156 10.34 4.69156 10 5.10156 10H11.9016C12.9116 10 13.2516 9.79 13.2516 8.52V7.48C13.2516 6.21 12.9116 6 11.9016 6H5.10156C4.69156 6 4.35156 5.66 4.35156 5.25C4.35156 4.84 4.69156 4.5 5.10156 4.5H11.9016C13.8216 4.5 14.7516 5.48 14.7516 7.48V8.52C14.7516 10.52 13.8216 11.5 11.9016 11.5Z" fill="#292D32"/>
<path d="M5 22.7402C4.59 22.7402 4.25 22.4002 4.25 21.9902V1.99023C4.25 1.58023 4.59 1.24023 5 1.24023C5.41 1.24023 5.75 1.58023 5.75 1.99023V21.9902C5.75 22.4002 5.41 22.7402 5 22.7402Z" fill="#292D32"/>
</svg>
