<svg width="24" height="24" viewBox="0 0 24 24" fill="none" xmlns="http://www.w3.org/2000/svg">
<g clip-path="url(#clip0_21443_89074)">
<path d="M18.5203 13.5469C18.3891 13.1719 18.0516 12.9375 17.6578 12.9375H17.0625V2.15625C17.0625 1.05862 16.1914 0.1875 15.0938 0.1875H4.5C3.33469 0.1875 2.34375 1.17844 2.34375 2.34375V19.5C2.34375 20.6156 3.37031 21.5625 4.47656 21.5625H15.184C15.2972 21.5625 15.3968 21.6548 15.3884 21.7676C15.3795 21.8863 15.2803 21.9375 15.1641 21.9375H10.8984L14.1562 23.8125H21.6562L18.5203 13.5469ZM9.84844 20.6437C9.54853 20.6437 9.32353 20.4188 9.32344 20.1189C9.32334 19.8335 9.56316 19.5938 9.84863 19.5938C10.1485 19.5938 10.3734 19.8188 10.3734 20.1188C10.3641 20.4188 10.1484 20.6437 9.84844 20.6437ZM15.6562 12.9375H13.8141C13.3172 12.9375 12.8953 13.3781 12.8953 13.875C12.8953 14.3719 13.3172 14.8125 13.8141 14.8125H15.6703V18.75H3.84375V2.90625H15.6562V12.9375ZM14.5101 8.43919L12.904 10.0505L11.2929 8.43919H12.2889C12.2904 8.40375 12.2909 8.37956 12.2909 8.34384C12.2909 6.92812 11.1385 5.77622 9.72281 5.77622C8.98791 5.77622 8.32434 6.08634 7.85522 6.58303L6.98391 5.71519C7.67456 4.99453 8.64628 4.54875 9.72187 4.54875C11.8164 4.54875 13.5216 6.24928 13.5216 8.34375C13.5216 8.37947 13.5186 8.40366 13.5175 8.43909L14.5101 8.43919ZM7.15472 8.43919C7.21097 9.80597 8.34291 10.9119 9.72291 10.9119C10.4027 10.9119 11.0214 10.6466 11.4812 10.2134L12.353 11.0817C11.6702 11.7383 10.7418 12.1425 9.72187 12.1425C7.66322 12.1425 5.98547 10.4843 5.92856 8.43919H4.93369L6.53972 6.85078L8.15081 8.43919H7.15472Z" fill="url(#paint0_linear_21443_89074)"/>
</g>
<defs>
<linearGradient id="paint0_linear_21443_89074" x1="2.64723" y1="0.474443" x2="28.035" y2="10.7002" gradientUnits="userSpaceOnUse">
<stop offset="0.0001" stop-color="#7332D6"/>
<stop offset="0.50005" stop-color="#32155A"/>
<stop offset="1" stop-color="#5D28AC"/>
</linearGradient>
<clipPath id="clip0_21443_89074">
<rect width="24" height="24" fill="white"/>
</clipPath>
</defs>
</svg>
