<svg width="24" height="24" viewBox="0 0 24 24" fill="none" xmlns="http://www.w3.org/2000/svg">
<path d="M1.9975 22.7499C1.8075 22.7499 1.6175 22.6799 1.4675 22.5299C1.1775 22.2399 1.1775 21.7599 1.4675 21.4699L21.4675 1.46994C21.7575 1.17994 22.2375 1.17994 22.5275 1.46994C22.8175 1.75994 22.8175 2.23994 22.5275 2.52994L2.5275 22.5299C2.3775 22.6799 2.1875 22.7499 1.9975 22.7499Z" fill="#292D32"/>
<path d="M18.8836 22.75C18.3236 22.75 17.7236 22.58 17.1236 22.25L10.6036 18.18C10.2536 17.96 10.1436 17.5 10.3636 17.15C10.5836 16.8 11.0436 16.69 11.3936 16.91L17.8836 20.96C18.4436 21.27 19.0036 21.34 19.3636 21.13C19.7236 20.92 19.9336 20.4 19.9336 19.71V8.70996C19.9336 8.29996 20.2736 7.95996 20.6836 7.95996C21.0936 7.95996 21.4336 8.29996 21.4336 8.70996V19.71C21.4336 20.94 20.9536 21.93 20.1236 22.42C19.7536 22.64 19.3336 22.75 18.8836 22.75Z" fill="#292D32"/>
<path d="M3.32031 20.7C2.91031 20.7 2.57031 20.36 2.57031 19.95V5.86C2.57031 3.32 4.64031 1.25 7.18031 1.25H16.8303C18.2203 1.25 19.5303 1.87 20.4103 2.96C20.6703 3.28 20.6203 3.75 20.3003 4.02C19.9803 4.28 19.5103 4.23 19.2503 3.91C18.6503 3.17 17.7703 2.75 16.8303 2.75H7.18031C5.47031 2.75 4.07031 4.15 4.07031 5.86V19.95C4.07031 20.36 3.73031 20.7 3.32031 20.7Z" fill="#292D32"/>
</svg>
