<svg width="24" height="24" viewBox="0 0 24 24" fill="none" xmlns="http://www.w3.org/2000/svg">
<path d="M14.1069 17.6102C13.9169 17.6102 13.7269 17.5403 13.5769 17.3903C13.2869 17.1003 13.2869 16.6202 13.5769 16.3302L16.6169 13.2903C16.9069 13.0003 17.3869 13.0003 17.6769 13.2903C17.9669 13.5803 17.9669 14.0603 17.6769 14.3503L14.6369 17.3903C14.4969 17.5303 14.3069 17.6102 14.1069 17.6102Z" fill="#292D32"/>
<path d="M17.1537 14.5698H6.84375C6.43375 14.5698 6.09375 14.2298 6.09375 13.8198C6.09375 13.4098 6.43375 13.0698 6.84375 13.0698H17.1537C17.5637 13.0698 17.9037 13.4098 17.9037 13.8198C17.9037 14.2298 17.5737 14.5698 17.1537 14.5698Z" fill="#292D32"/>
<path d="M6.84906 10.9301C6.65906 10.9301 6.46906 10.8601 6.31906 10.7101C6.02906 10.4201 6.02906 9.94009 6.31906 9.65009L9.35904 6.61008C9.64904 6.32008 10.1291 6.32008 10.4191 6.61008C10.7091 6.90008 10.7091 7.38011 10.4191 7.67011L7.37906 10.7101C7.22906 10.8601 7.03906 10.9301 6.84906 10.9301Z" fill="#292D32"/>
<path d="M17.1537 10.9302H6.84375C6.43375 10.9302 6.09375 10.5902 6.09375 10.1802C6.09375 9.77018 6.43375 9.43018 6.84375 9.43018H17.1537C17.5637 9.43018 17.9037 9.77018 17.9037 10.1802C17.9037 10.5902 17.5737 10.9302 17.1537 10.9302Z" fill="#292D32"/>
<path d="M12 22.75C6.07 22.75 1.25 17.93 1.25 12C1.25 6.07 6.07 1.25 12 1.25C17.93 1.25 22.75 6.07 22.75 12C22.75 17.93 17.93 22.75 12 22.75ZM12 2.75C6.9 2.75 2.75 6.9 2.75 12C2.75 17.1 6.9 21.25 12 21.25C17.1 21.25 21.25 17.1 21.25 12C21.25 6.9 17.1 2.75 12 2.75Z" fill="#292D32"/>
</svg>
