<svg width="24" height="24" viewBox="0 0 24 24" fill="none" xmlns="http://www.w3.org/2000/svg">
<path d="M12 22.75C6.07 22.75 1.25 17.93 1.25 12C1.25 6.07 6.07 1.25 12 1.25C17.93 1.25 22.75 6.07 22.75 12C22.75 17.93 17.93 22.75 12 22.75ZM12 2.75C6.9 2.75 2.75 6.9 2.75 12C2.75 17.1 6.9 21.25 12 21.25C17.1 21.25 21.25 17.1 21.25 12C21.25 6.9 17.1 2.75 12 2.75Z" fill="#292D32"/>
<path d="M15.5262 14.0099C15.3362 14.0099 15.1463 13.9399 14.9963 13.7899L11.9963 10.7899L8.99625 13.7899C8.70625 14.0799 8.22625 14.0799 7.93625 13.7899C7.64625 13.4999 7.64625 13.0199 7.93625 12.7299L11.4663 9.19992C11.7563 8.90992 12.2362 8.90992 12.5262 9.19992L16.0562 12.7299C16.3462 13.0199 16.3462 13.4999 16.0562 13.7899C15.9062 13.9399 15.7162 14.0099 15.5262 14.0099Z" fill="#292D32"/>
</svg>
