<svg width="24" height="24" viewBox="0 0 24 24" fill="none" xmlns="http://www.w3.org/2000/svg">
<path d="M11.9972 21.2501C11.8072 21.2501 11.6172 21.1801 11.4672 21.0301L5.39719 14.9601C5.10719 14.6701 5.10719 14.1901 5.39719 13.9001C5.68719 13.6101 6.16719 13.6101 6.45719 13.9001L11.9972 19.4401L17.5372 13.9001C17.8272 13.6101 18.3072 13.6101 18.5972 13.9001C18.8872 14.1901 18.8872 14.6701 18.5972 14.9601L12.5272 21.0301C12.3772 21.1801 12.1872 21.2501 11.9972 21.2501Z" fill="#292D32"/>
<path d="M12 21.08C11.59 21.08 11.25 20.74 11.25 20.33V3.5C11.25 3.09 11.59 2.75 12 2.75C12.41 2.75 12.75 3.09 12.75 3.5V20.33C12.75 20.74 12.41 21.08 12 21.08Z" fill="#292D32"/>
</svg>
