<svg width="24" height="24" viewBox="0 0 24 24" fill="none" xmlns="http://www.w3.org/2000/svg">
<path d="M9.0075 21.2502C8.8175 21.2502 8.6275 21.1802 8.4775 21.0302L3.4675 16.0202C3.1775 15.7302 3.1775 15.2502 3.4675 14.9602C3.7575 14.6702 4.2375 14.6702 4.5275 14.9602L9.5375 19.9702C9.8275 20.2602 9.8275 20.7402 9.5375 21.0302C9.3875 21.1702 9.1975 21.2502 9.0075 21.2502Z" fill="#292D32"/>
<path d="M9.00781 21.25C8.59781 21.25 8.25781 20.91 8.25781 20.5V3.5C8.25781 3.09 8.59781 2.75 9.00781 2.75C9.41781 2.75 9.75781 3.09 9.75781 3.5V20.5C9.75781 20.91 9.41781 21.25 9.00781 21.25Z" fill="#292D32"/>
<path d="M20.0075 9.25994C19.8175 9.25994 19.6275 9.18994 19.4775 9.03994L14.4675 4.02994C14.1775 3.73994 14.1775 3.25994 14.4675 2.96994C14.7575 2.67994 15.2375 2.67994 15.5275 2.96994L20.5375 7.97994C20.8275 8.26994 20.8275 8.74994 20.5375 9.03994C20.3875 9.18994 20.1975 9.25994 20.0075 9.25994Z" fill="#292D32"/>
<path d="M14.9922 21.25C14.5822 21.25 14.2422 20.91 14.2422 20.5V3.5C14.2422 3.09 14.5822 2.75 14.9922 2.75C15.4022 2.75 15.7422 3.09 15.7422 3.5V20.5C15.7422 20.91 15.4122 21.25 14.9922 21.25Z" fill="#292D32"/>
</svg>
