<svg width="24" height="24" viewBox="0 0 24 24" fill="none" xmlns="http://www.w3.org/2000/svg">
<path d="M12.1406 15.8198C11.7306 15.8198 11.3906 15.4798 11.3906 15.0698V13.1098C11.3906 10.1798 13.7706 7.7998 16.7106 7.7998H18.6706C19.0806 7.7998 19.4206 8.1398 19.4206 8.5498C19.4206 8.9598 19.0806 9.2998 18.6706 9.2998H16.7106C14.6106 9.2998 12.8906 11.0098 12.8906 13.1098V15.0698C12.8906 15.4898 12.5506 15.8198 12.1406 15.8198Z" fill="#292D32"/>
<path d="M12.1372 18.0001C11.7272 18.0001 11.3872 17.6601 11.3872 17.2501V13.1201C11.3872 11.0201 9.67721 9.31006 7.57721 9.31006H5.61719C5.20719 9.31006 4.86719 8.97006 4.86719 8.56006C4.86719 8.15006 5.20719 7.81006 5.61719 7.81006H7.57721C10.5072 7.81006 12.8872 10.1901 12.8872 13.1201V17.2501C12.8872 17.6601 12.5472 18.0001 12.1372 18.0001Z" fill="#292D32"/>
<path d="M7.14127 11.0999C6.95127 11.0999 6.76124 11.0299 6.61124 10.8799L4.81125 9.07994C4.52125 8.78994 4.52125 8.30994 4.81125 8.01994L6.61124 6.21994C6.90124 5.92994 7.38124 5.92994 7.67124 6.21994C7.96124 6.50994 7.96124 6.98994 7.67124 7.27994L6.40128 8.54994L7.67124 9.81995C7.96124 10.1099 7.96124 10.5899 7.67124 10.8799C7.52124 11.0299 7.33127 11.0999 7.14127 11.0999Z" fill="#292D32"/>
<path d="M16.8568 11.0999C16.6668 11.0999 16.4769 11.0299 16.3269 10.8799C16.0369 10.5899 16.0369 10.1099 16.3269 9.81995L17.5968 8.54994L16.3269 7.27994C16.0369 6.98994 16.0369 6.50994 16.3269 6.21994C16.6169 5.92994 17.0969 5.92994 17.3869 6.21994L19.1869 8.01994C19.4769 8.30994 19.4769 8.78994 19.1869 9.07994L17.3869 10.8799C17.2469 11.0299 17.0468 11.0999 16.8568 11.0999Z" fill="#292D32"/>
<path d="M15 22.75H9C3.57 22.75 1.25 20.43 1.25 15V9C1.25 3.57 3.57 1.25 9 1.25H15C20.43 1.25 22.75 3.57 22.75 9V15C22.75 20.43 20.43 22.75 15 22.75ZM9 2.75C4.39 2.75 2.75 4.39 2.75 9V15C2.75 19.61 4.39 21.25 9 21.25H15C19.61 21.25 21.25 19.61 21.25 15V9C21.25 4.39 19.61 2.75 15 2.75H9Z" fill="#292D32"/>
</svg>
