<svg width="24" height="24" viewBox="0 0 24 24" fill="none" xmlns="http://www.w3.org/2000/svg">
<path d="M15 22.75H9C3.57 22.75 1.25 20.43 1.25 15V9C1.25 3.57 3.57 1.25 9 1.25H15C20.43 1.25 22.75 3.57 22.75 9V15C22.75 20.43 20.43 22.75 15 22.75ZM9 2.75C4.39 2.75 2.75 4.39 2.75 9V15C2.75 19.61 4.39 21.25 9 21.25H15C19.61 21.25 21.25 19.61 21.25 15V9C21.25 4.39 19.61 2.75 15 2.75H9Z" fill="#292D32"/>
<path d="M11.9963 14.9098C11.8063 14.9098 11.6163 14.8398 11.4663 14.6898L7.93625 11.1598C7.64625 10.8698 7.64625 10.3898 7.93625 10.0998C8.22625 9.80982 8.70625 9.80982 8.99625 10.0998L11.9963 13.0998L14.9963 10.0998C15.2863 9.80982 15.7662 9.80982 16.0562 10.0998C16.3462 10.3898 16.3462 10.8698 16.0562 11.1598L12.5262 14.6898C12.3762 14.8398 12.1863 14.9098 11.9963 14.9098Z" fill="#292D32"/>
</svg>
