<svg width="24" height="24" viewBox="0 0 24 24" fill="none" xmlns="http://www.w3.org/2000/svg">
<path d="M10.4532 7.46997C10.2632 7.46997 10.0731 7.4 9.92313 7.25L6.73313 4.06L3.54312 7.25C3.25312 7.54 2.77312 7.54 2.48313 7.25C2.19313 6.96 2.19313 6.48 2.48313 6.19L6.20316 2.46997C6.34316 2.32997 6.53313 2.25 6.73313 2.25C6.93313 2.25 7.12315 2.32997 7.26315 2.46997L10.9831 6.19C11.2731 6.48 11.2731 6.96 10.9831 7.25C10.8331 7.4 10.6432 7.46997 10.4532 7.46997Z" fill="#292D32"/>
<path d="M6.72656 21.75C6.31656 21.75 5.97656 21.41 5.97656 21V3C5.97656 2.59 6.31656 2.25 6.72656 2.25C7.13656 2.25 7.47656 2.59 7.47656 3V21C7.47656 21.41 7.13656 21.75 6.72656 21.75Z" fill="#292D32"/>
<path d="M17.28 21.7502C17.08 21.7502 16.89 21.6702 16.75 21.5302L13.03 17.8102C12.74 17.5202 12.74 17.0402 13.03 16.7502C13.32 16.4602 13.8 16.4602 14.09 16.7502L17.28 19.9402L20.4699 16.7502C20.7599 16.4602 21.24 16.4602 21.53 16.7502C21.82 17.0402 21.82 17.5202 21.53 17.8102L17.81 21.5302C17.67 21.6702 17.47 21.7502 17.28 21.7502Z" fill="#292D32"/>
<path d="M17.2734 21.75C16.8634 21.75 16.5234 21.41 16.5234 21V3C16.5234 2.59 16.8634 2.25 17.2734 2.25C17.6834 2.25 18.0234 2.59 18.0234 3V21C18.0234 21.41 17.6934 21.75 17.2734 21.75Z" fill="#292D32"/>
</svg>
