<svg width="24" height="24" viewBox="0 0 24 24" fill="none" xmlns="http://www.w3.org/2000/svg">
<path d="M12 22.75C6.07 22.75 1.25 17.93 1.25 12C1.25 6.07 6.07 1.25 12 1.25C17.93 1.25 22.75 6.07 22.75 12C22.75 17.93 17.93 22.75 12 22.75ZM12 2.75C6.9 2.75 2.75 6.9 2.75 12C2.75 17.1 6.9 21.25 12 21.25C17.1 21.25 21.25 17.1 21.25 12C21.25 6.9 17.1 2.75 12 2.75Z" fill="#292D32"/>
<path d="M12 15.25C11.59 15.25 11.25 14.91 11.25 14.5V8.5C11.25 8.09 11.59 7.75 12 7.75C12.41 7.75 12.75 8.09 12.75 8.5V14.5C12.75 14.91 12.41 15.25 12 15.25Z" fill="#292D32"/>
<path d="M11.9975 16.2499C11.8075 16.2499 11.6175 16.1799 11.4675 16.0299L8.4675 13.0299C8.1775 12.7399 8.1775 12.2599 8.4675 11.9699C8.7575 11.6799 9.2375 11.6799 9.5275 11.9699L11.9975 14.4399L14.4675 11.9699C14.7575 11.6799 15.2375 11.6799 15.5275 11.9699C15.8175 12.2599 15.8175 12.7399 15.5275 13.0299L12.5275 16.0299C12.3775 16.1799 12.1875 16.2499 11.9975 16.2499Z" fill="#292D32"/>
</svg>
