<svg width="24" height="24" viewBox="0 0 24 24" fill="none" xmlns="http://www.w3.org/2000/svg">
<path d="M11.9971 18.75C10.5771 18.75 9.27707 17.85 8.33707 16.22L5.66707 11.59C4.71707 9.96 4.59707 8.39 5.30707 7.16C6.01707 5.93 7.44707 5.25 9.32707 5.25H14.6671C16.5471 5.25 17.9771 5.93 18.6871 7.16C19.3971 8.39 19.2671 9.97 18.3271 11.6L15.6571 16.23C14.7171 17.85 13.4171 18.75 11.9971 18.75ZM9.32707 6.75C7.99707 6.75 7.03707 7.16 6.60707 7.91C6.16707 8.66 6.29707 9.7 6.95707 10.84L9.62707 15.47C10.2871 16.62 11.1271 17.25 11.9871 17.25C12.8471 17.25 13.6871 16.62 14.3471 15.47L17.0171 10.84C17.6771 9.69 17.8071 8.65 17.3771 7.9C16.9471 7.15 15.9771 6.74 14.6571 6.74H9.32707V6.75Z" fill="#292D32"/>
</svg>
