<svg width="24" height="24" viewBox="0 0 24 24" fill="none" xmlns="http://www.w3.org/2000/svg">
<path d="M15 22.75H9C3.57 22.75 1.25 20.43 1.25 15V9C1.25 3.57 3.57 1.25 9 1.25H15C20.43 1.25 22.75 3.57 22.75 9V15C22.75 20.43 20.43 22.75 15 22.75ZM9 2.75C4.39 2.75 2.75 4.39 2.75 9V15C2.75 19.61 4.39 21.25 9 21.25H15C19.61 21.25 21.25 19.61 21.25 15V9C21.25 4.39 19.61 2.75 15 2.75H9Z" fill="#292D32"/>
<path d="M15.5262 14.2101C15.3362 14.2101 15.1463 14.1401 14.9963 13.9901L11.9963 10.9901L8.99625 13.9901C8.70625 14.2801 8.22625 14.2801 7.93625 13.9901C7.64625 13.7001 7.64625 13.2201 7.93625 12.9301L11.4663 9.40012C11.7563 9.11012 12.2362 9.11012 12.5262 9.40012L16.0562 12.9301C16.3462 13.2201 16.3462 13.7001 16.0562 13.9901C15.9062 14.1401 15.7162 14.2101 15.5262 14.2101Z" fill="#292D32"/>
</svg>
