<svg width="24" height="24" viewBox="0 0 24 24" fill="none" xmlns="http://www.w3.org/2000/svg">
<path d="M18.0672 10.3199C17.8772 10.3199 17.6872 10.2499 17.5372 10.0999L11.9972 4.55994L6.45719 10.0999C6.16719 10.3899 5.68719 10.3899 5.39719 10.0999C5.10719 9.80994 5.10719 9.32994 5.39719 9.03994L11.4672 2.96994C11.7572 2.67994 12.2372 2.67994 12.5272 2.96994L18.5972 9.03994C18.8872 9.32994 18.8872 9.80994 18.5972 10.0999C18.4572 10.2499 18.2572 10.3199 18.0672 10.3199Z" fill="#292D32"/>
<path d="M12 21.2499C11.59 21.2499 11.25 20.9099 11.25 20.4999V3.66992C11.25 3.25992 11.59 2.91992 12 2.91992C12.41 2.91992 12.75 3.25992 12.75 3.66992V20.4999C12.75 20.9099 12.41 21.2499 12 21.2499Z" fill="#292D32"/>
</svg>
