<svg width="24" height="24" viewBox="0 0 24 24" fill="none" xmlns="http://www.w3.org/2000/svg">
<path d="M12 22.75C6.07 22.75 1.25 17.93 1.25 12C1.25 6.07 6.07 1.25 12 1.25C17.93 1.25 22.75 6.07 22.75 12C22.75 17.93 17.93 22.75 12 22.75ZM12 2.75C6.9 2.75 2.75 6.9 2.75 12C2.75 17.1 6.9 21.25 12 21.25C17.1 21.25 21.25 17.1 21.25 12C21.25 6.9 17.1 2.75 12 2.75Z" fill="#292D32"/>
<path d="M11.9963 15.0099C11.8063 15.0099 11.6163 14.9399 11.4663 14.7899L7.93625 11.2599C7.64625 10.9699 7.64625 10.4899 7.93625 10.1999C8.22625 9.90992 8.70625 9.90992 8.99625 10.1999L11.9963 13.1999L14.9963 10.1999C15.2863 9.90992 15.7662 9.90992 16.0562 10.1999C16.3462 10.4899 16.3462 10.9699 16.0562 11.2599L12.5262 14.7899C12.3762 14.9399 12.1863 15.0099 11.9963 15.0099Z" fill="#292D32"/>
</svg>
