<svg width="24" height="24" viewBox="0 0 24 24" fill="none" xmlns="http://www.w3.org/2000/svg">
<path d="M15 22.75H9C3.57 22.75 1.25 20.43 1.25 15V9C1.25 3.57 3.57 1.25 9 1.25H15C20.43 1.25 22.75 3.57 22.75 9V15C22.75 20.43 20.43 22.75 15 22.75ZM9 2.75C4.39 2.75 2.75 4.39 2.75 9V15C2.75 19.61 4.39 21.25 9 21.25H15C19.61 21.25 21.25 19.61 21.25 15V9C21.25 4.39 19.61 2.75 15 2.75H9Z" fill="#292D32"/>
<path d="M9.62 18.05C8.04 18.05 6.75 16.7601 6.75 15.1801C6.75 13.6001 8.04 12.3101 9.62 12.3101C11.2 12.3101 12.49 13.6001 12.49 15.1801C12.49 16.7601 11.2 18.05 9.62 18.05ZM9.62 13.8201C8.87 13.8201 8.25 14.4301 8.25 15.1901C8.25 15.9401 8.86 16.5601 9.62 16.5601C10.37 16.5601 10.99 15.9501 10.99 15.1901C10.99 14.4301 10.37 13.8201 9.62 13.8201Z" fill="#292D32"/>
<path d="M11.7422 15.93C11.3322 15.93 10.9922 15.59 10.9922 15.18V7.77002C10.9922 7.36002 11.3322 7.02002 11.7422 7.02002C12.1522 7.02002 12.4922 7.36002 12.4922 7.77002V15.18C12.4922 15.6 12.1522 15.93 11.7422 15.93Z" fill="#292D32"/>
<path d="M15.5222 11.4297C15.3122 11.4297 15.0922 11.3897 14.8722 11.3197L12.5322 10.5397C11.6522 10.2497 10.9922 9.32974 10.9922 8.39974V7.77975C10.9922 7.14975 11.2522 6.59974 11.7122 6.26974C12.1722 5.93974 12.7722 5.85972 13.3722 6.05972L15.7122 6.83974C16.5922 7.12974 17.2522 8.0497 17.2522 8.9797V9.59969C17.2522 10.2297 16.9922 10.7797 16.5322 11.1097C16.2422 11.3197 15.8922 11.4297 15.5222 11.4297ZM12.7122 7.44973C12.6622 7.44973 12.6122 7.4597 12.5822 7.4797C12.5222 7.5197 12.4822 7.62974 12.4822 7.76974V8.38973C12.4822 8.66973 12.7422 9.0197 13.0022 9.1097L15.3422 9.88973C15.4722 9.92973 15.5922 9.92973 15.6522 9.88973C15.7122 9.84973 15.7522 9.73969 15.7522 9.59969V8.9797C15.7522 8.6997 15.4922 8.34973 15.2322 8.25973L12.8922 7.4797C12.8322 7.4597 12.7622 7.44973 12.7122 7.44973Z" fill="#292D32"/>
</svg>
