<svg width="24" height="24" viewBox="0 0 24 24" fill="none" xmlns="http://www.w3.org/2000/svg">
<path d="M12.0072 22.7398C11.3772 22.7398 10.7572 22.5298 10.2672 22.1098L8.68719 20.7598C8.52719 20.6198 8.12719 20.4798 7.91719 20.4798H6.16719C4.68719 20.4798 3.48719 19.2798 3.48719 17.7998V16.0898C3.48719 15.8798 3.34719 15.4798 3.21719 15.3298L1.85719 13.7298C1.03719 12.7598 1.03719 11.2398 1.85719 10.2598L3.21719 8.65982C3.34719 8.50982 3.48719 8.10982 3.48719 7.89982V6.19982C3.48719 4.71982 4.68719 3.51982 6.16719 3.51982H7.89719C8.10719 3.51982 8.49719 3.36982 8.66719 3.22982L10.2472 1.87982C11.2272 1.04982 12.7572 1.04982 13.7372 1.87982L15.3172 3.22982C15.4772 3.36982 15.8872 3.50982 16.0972 3.50982H17.7972C19.2772 3.50982 20.4772 4.70982 20.4772 6.18982V7.88982C20.4772 8.09982 20.6272 8.48982 20.7672 8.65982L22.1172 10.2398C22.9572 11.2298 22.9472 12.7598 22.1172 13.7298L20.7672 15.3098C20.6272 15.4798 20.4872 15.8698 20.4872 16.0798V17.7798C20.4872 19.2598 19.2872 20.4598 17.8072 20.4598H16.1072C15.8972 20.4598 15.5072 20.6098 15.3272 20.7498L13.7472 22.0998C13.2572 22.5298 12.6272 22.7398 12.0072 22.7398ZM6.16719 5.01982C5.51719 5.01982 4.98719 5.54982 4.98719 6.19982V7.89982C4.98719 8.46982 4.72719 9.18982 4.35719 9.62982L2.99719 11.2298C2.65719 11.6398 2.65719 12.3598 2.99719 12.7598L4.34719 14.3498C4.70719 14.7598 4.97719 15.5098 4.97719 16.0798V17.7898C4.97719 18.4398 5.50719 18.9698 6.15719 18.9698H7.89719C8.45719 18.9698 9.19719 19.2398 9.63719 19.6098L11.2272 20.9698C11.6372 21.3198 12.3472 21.3198 12.7672 20.9698L14.3472 19.6198C14.7972 19.2398 15.5272 18.9798 16.0872 18.9798H17.7872C18.4372 18.9798 18.9672 18.4498 18.9672 17.7998V16.0998C18.9672 15.5398 19.2372 14.8098 19.6072 14.3598L20.9672 12.7698C21.3172 12.3598 21.3172 11.6398 20.9672 11.2298L19.6172 9.64982C19.2372 9.19982 18.9772 8.46982 18.9772 7.90982V6.19982C18.9772 5.54982 18.4472 5.01982 17.7972 5.01982H16.0972C15.5272 5.01982 14.7872 4.74982 14.3472 4.37982L12.7572 3.01982C12.3472 2.66982 11.6372 2.66982 11.2172 3.01982L9.64719 4.37982C9.19719 4.74982 8.46719 5.01982 7.89719 5.01982H6.16719Z" fill="#292D32"/>
<path d="M14.8125 16.2398L12.0025 9.90977L9.1925 16.2398L7.8125 15.6298L11.3125 7.75977H12.6925L16.1925 15.6298L14.8125 16.2398Z" fill="#292D32"/>
<path d="M13.75 14.0601H10.25C9.84 14.0601 9.5 13.7201 9.5 13.3101C9.5 12.9001 9.84 12.5601 10.25 12.5601H13.75C14.16 12.5601 14.5 12.9001 14.5 13.3101C14.5 13.7201 14.16 14.0601 13.75 14.0601Z" fill="#292D32"/>
</svg>
