<svg width="24" height="24" viewBox="0 0 24 24" fill="none" xmlns="http://www.w3.org/2000/svg">
<path d="M14.4314 16.9203H12.1414C11.7314 16.9203 11.3914 16.5803 11.3914 16.1703C11.3914 15.7603 11.7314 15.4203 12.1414 15.4203H14.4314C14.8614 15.4203 15.2114 15.0703 15.2114 14.6403C15.2114 14.2103 14.8614 13.8603 14.4314 13.8603H12.1414C11.9014 13.8603 11.6714 13.7403 11.5314 13.5503C11.3914 13.3603 11.3514 13.1003 11.4314 12.8703L12.1914 10.5803C12.2914 10.2703 12.5814 10.0703 12.9014 10.0703H15.9614C16.3714 10.0703 16.7114 10.4103 16.7114 10.8203C16.7114 11.2303 16.3714 11.5703 15.9614 11.5703H13.4414L13.1814 12.3603H14.4314C15.6914 12.3603 16.7114 13.3803 16.7114 14.6403C16.7114 15.9003 15.6814 16.9203 14.4314 16.9203Z" fill="#292D32"/>
<path d="M9.5376 16.9198C9.1276 16.9198 8.7876 16.5798 8.7876 16.1698V12.7799L8.59759 12.9998C8.31759 13.3098 7.8476 13.3298 7.5376 13.0598C7.2276 12.7798 7.2076 12.3098 7.4776 11.9998L8.9776 10.3298C9.1876 10.0998 9.51762 10.0198 9.80762 10.1298C10.0976 10.2398 10.2876 10.5198 10.2876 10.8298V16.1798C10.2876 16.5898 9.9576 16.9198 9.5376 16.9198Z" fill="#292D32"/>
<path d="M10.022 5.21993C9.85196 5.21993 9.69193 5.16995 9.55193 5.04995C9.23193 4.78995 9.18193 4.31996 9.43193 3.99996L11.4119 1.52999C11.6719 1.20999 12.142 1.15993 12.462 1.40993C12.782 1.65993 12.832 2.13998 12.582 2.45998L10.6019 4.92995C10.4619 5.11995 10.242 5.21993 10.022 5.21993Z" fill="#292D32"/>
<path d="M11.9994 22.7498C6.68939 22.7498 2.35938 18.4297 2.35938 13.1097C2.35938 11.0397 3.02939 9.04973 4.30939 7.34973C4.55939 7.01973 5.02938 6.94977 5.35938 7.19977C5.68937 7.44977 5.7594 7.91976 5.5094 8.24976C4.4294 9.68976 3.85938 11.3697 3.85938 13.1097C3.85938 17.5997 7.50939 21.2498 11.9994 21.2498C16.4894 21.2498 20.1394 17.5997 20.1394 13.1097C20.1394 8.61974 16.4894 4.96973 11.9994 4.96973C11.4194 4.96973 10.8294 5.03976 10.1894 5.18976C9.77939 5.27976 9.37937 5.02976 9.28937 4.62976C9.19937 4.22976 9.44937 3.81974 9.84937 3.72974C10.5994 3.55974 11.3094 3.46973 11.9994 3.46973C17.3094 3.46973 21.6394 7.78974 21.6394 13.1097C21.6394 18.4297 17.3094 22.7498 11.9994 22.7498Z" fill="#292D32"/>
</svg>
