<svg width="24" height="24" viewBox="0 0 24 24" fill="none" xmlns="http://www.w3.org/2000/svg">
<path d="M12.3767 16.9203H10.0867C9.6767 16.9203 9.3367 16.5803 9.3367 16.1703C9.3367 15.7603 9.6767 15.4203 10.0867 15.4203H12.3767C12.8067 15.4203 13.1567 15.0703 13.1567 14.6403C13.1567 14.2103 12.8067 13.8603 12.3767 13.8603H10.0867C9.8467 13.8603 9.61672 13.7403 9.47672 13.5503C9.33672 13.3603 9.29671 13.1003 9.37671 12.8703L10.1367 10.5803C10.2367 10.2703 10.5267 10.0703 10.8467 10.0703H13.9067C14.3167 10.0703 14.6567 10.4103 14.6567 10.8203C14.6567 11.2303 14.3167 11.5703 13.9067 11.5703H11.3867L11.1267 12.3603H12.3767C13.6367 12.3603 14.6567 13.3803 14.6567 14.6403C14.6567 15.9003 13.6367 16.9203 12.3767 16.9203Z" fill="#292D32"/>
<path d="M10.0219 5.21993C9.85193 5.21993 9.69193 5.16995 9.55193 5.04995C9.23193 4.78995 9.18193 4.31996 9.43193 3.99996L11.4119 1.52999C11.6719 1.20999 12.1419 1.15993 12.4619 1.40993C12.7819 1.66993 12.8319 2.13998 12.5819 2.45998L10.6019 4.92995C10.4619 5.11995 10.2419 5.21993 10.0219 5.21993Z" fill="#292D32"/>
<path d="M11.9994 22.7498C6.68939 22.7498 2.35938 18.4297 2.35938 13.1097C2.35938 11.0397 3.02939 9.04973 4.30939 7.34973C4.55939 7.01973 5.02938 6.94977 5.35938 7.19977C5.68937 7.44977 5.7594 7.91976 5.5094 8.24976C4.4294 9.68976 3.85938 11.3697 3.85938 13.1097C3.85938 17.5997 7.50939 21.2498 11.9994 21.2498C16.4894 21.2498 20.1394 17.5997 20.1394 13.1097C20.1394 8.61974 16.4894 4.96973 11.9994 4.96973C11.4194 4.96973 10.8294 5.03976 10.1894 5.18976C9.78939 5.27976 9.3794 5.02976 9.2894 4.62976C9.1994 4.22976 9.4494 3.81974 9.8494 3.72974C10.5994 3.55974 11.3094 3.46973 11.9994 3.46973C17.3094 3.46973 21.6394 7.78974 21.6394 13.1097C21.6394 18.4297 17.3094 22.7498 11.9994 22.7498Z" fill="#292D32"/>
</svg>
