<svg width="24" height="24" viewBox="0 0 24 24" fill="none" xmlns="http://www.w3.org/2000/svg">
<path d="M9.5376 16.6701C9.1276 16.6701 8.7876 16.3301 8.7876 15.9201V12.5301L8.59759 12.7401C8.31759 13.0501 7.8476 13.0701 7.5376 12.8001C7.2276 12.5201 7.2076 12.0501 7.4776 11.7401L8.9776 10.0701C9.1876 9.84008 9.51758 9.76007 9.80758 9.87007C10.0976 9.98007 10.2876 10.2601 10.2876 10.5701V15.9201C10.2876 16.3401 9.9576 16.6701 9.5376 16.6701Z" fill="#292D32"/>
<path d="M10.0219 5.21993C9.85193 5.21993 9.69193 5.16995 9.55193 5.04995C9.23193 4.78995 9.18193 4.31996 9.43193 3.99996L11.4119 1.52999C11.6719 1.20999 12.1419 1.15993 12.4619 1.40993C12.7819 1.65993 12.8319 2.13998 12.5819 2.45998L10.6019 4.92995C10.4619 5.11995 10.2419 5.21993 10.0219 5.21993Z" fill="#292D32"/>
<path d="M11.9994 22.7498C6.68939 22.7498 2.35938 18.4297 2.35938 13.1097C2.35938 11.0397 3.02939 9.04973 4.30939 7.34973C4.55939 7.01973 5.02938 6.94977 5.35938 7.19977C5.68937 7.44977 5.7594 7.91976 5.5094 8.24976C4.4294 9.68976 3.85938 11.3697 3.85938 13.1097C3.85938 17.5997 7.50939 21.2498 11.9994 21.2498C16.4894 21.2498 20.1394 17.5997 20.1394 13.1097C20.1394 8.61974 16.4894 4.96973 11.9994 4.96973C11.4194 4.96973 10.8294 5.03976 10.1894 5.18976C9.78939 5.27976 9.3794 5.02976 9.2894 4.62976C9.1994 4.22976 9.4494 3.81974 9.8494 3.72974C10.5994 3.55974 11.3094 3.46973 11.9994 3.46973C17.3094 3.46973 21.6394 7.78974 21.6394 13.1097C21.6394 18.4297 17.3094 22.7498 11.9994 22.7498Z" fill="#292D32"/>
<path d="M14 16.6703C12.48 16.6703 11.25 15.4403 11.25 13.9203V12.5703C11.25 11.0503 12.48 9.82031 14 9.82031C15.52 9.82031 16.75 11.0503 16.75 12.5703V13.9203C16.75 15.4403 15.52 16.6703 14 16.6703ZM14 11.3303C13.31 11.3303 12.75 11.8903 12.75 12.5803V13.9303C12.75 14.6203 13.31 15.1803 14 15.1803C14.69 15.1803 15.25 14.6203 15.25 13.9303V12.5803C15.25 11.8903 14.69 11.3303 14 11.3303Z" fill="#292D32"/>
</svg>
