<svg width="24" height="24" viewBox="0 0 24 24" fill="none" xmlns="http://www.w3.org/2000/svg">
<path d="M20.5 15.25C20.09 15.25 19.75 14.91 19.75 14.5C19.75 14.09 20.09 13.75 20.5 13.75C21.09 13.75 21.22 13.66 21.23 13.66C21.25 13.6 21.25 13.25 21.25 13V11C21.25 10.75 21.25 10.41 21.21 10.32C21.2 10.33 21.05 10.25 20.5 10.25C20.09 10.25 19.75 9.91 19.75 9.5C19.75 9.09 20.09 8.75 20.5 8.75C22.58 8.75 22.75 9.77 22.75 11V13C22.75 14.23 22.58 15.25 20.5 15.25Z" fill="#292D32"/>
<path d="M6.37763 14.7501C6.31763 14.7501 6.25763 14.7401 6.19763 14.7301C5.79763 14.6301 5.54763 14.2201 5.64763 13.8201C5.94763 12.6301 5.94763 11.3701 5.64763 10.1801C5.54763 9.7801 5.78763 9.3701 6.19763 9.2701C6.59763 9.1701 6.99763 9.4201 7.09763 9.8201C7.45763 11.2501 7.45763 12.7601 7.09763 14.1801C7.01763 14.5201 6.70763 14.7501 6.37763 14.7501Z" fill="#292D32"/>
<path d="M9.87763 14.7502C9.81763 14.7502 9.75763 14.7402 9.69763 14.7302C9.29763 14.6302 9.04763 14.2202 9.14763 13.8202C9.44763 12.6302 9.44763 11.3702 9.14763 10.1802C9.04763 9.78019 9.28763 9.37019 9.69763 9.27019C10.0976 9.17019 10.5076 9.41019 10.6076 9.82019C10.9676 11.2502 10.9676 12.7602 10.6076 14.1802C10.5176 14.5202 10.2076 14.7502 9.87763 14.7502Z" fill="#292D32"/>
<path d="M13.3776 14.7502C13.3176 14.7502 13.2576 14.7402 13.1976 14.7302C12.7976 14.6302 12.5476 14.2202 12.6476 13.8202C12.9476 12.6302 12.9476 11.3702 12.6476 10.1802C12.5476 9.78019 12.7876 9.37019 13.1976 9.27019C13.5976 9.17019 14.0076 9.41019 14.1076 9.82019C14.4676 11.2502 14.4676 12.7602 14.1076 14.1802C14.0176 14.5202 13.7076 14.7502 13.3776 14.7502Z" fill="#292D32"/>
<path d="M13 19.75H7C2.59 19.75 1.25 18.41 1.25 14V10C1.25 5.59 2.59 4.25 7 4.25H13C17.41 4.25 18.75 5.59 18.75 10V14C18.75 18.41 17.41 19.75 13 19.75ZM7 5.75C3.43 5.75 2.75 6.43 2.75 10V14C2.75 17.57 3.43 18.25 7 18.25H13C16.57 18.25 17.25 17.57 17.25 14V10C17.25 6.43 16.57 5.75 13 5.75H7Z" fill="#292D32"/>
</svg>
