<svg width="24" height="24" viewBox="0 0 24 24" fill="none" xmlns="http://www.w3.org/2000/svg">
<path d="M11.9978 22.08C11.6978 22.08 11.3978 22.01 11.1478 21.87C9.27783 20.85 5.99781 19.77 3.93781 19.5L3.64783 19.46C2.33783 19.3 1.25781 18.07 1.25781 16.74V4.65999C1.25781 3.86999 1.56782 3.15002 2.13782 2.63002C2.70782 2.11002 3.44778 1.86001 4.22778 1.93001C6.41778 2.11001 9.7378 3.21002 11.6178 4.38002L11.8578 4.52003C11.9278 4.55003 12.0778 4.56003 12.1378 4.52003L12.2978 4.42C12.9678 4 13.8078 3.58999 14.7278 3.21999C14.9578 3.12999 15.2178 3.16 15.4278 3.3C15.6378 3.44 15.7578 3.67 15.7578 3.92V6.59999L16.5878 6.05C16.8378 5.88 17.1678 5.88 17.4178 6.05L18.2478 6.59999V2.78004C18.2478 2.42004 18.5078 2.10999 18.8578 2.03999C19.1478 1.98999 19.4378 1.95001 19.6978 1.93001C19.7178 1.93001 19.7978 1.93001 19.8178 1.93001C20.5478 1.87001 21.2978 2.12003 21.8578 2.64003C22.4278 3.16003 22.7378 3.88 22.7378 4.67V16.74C22.7378 18.08 21.6578 19.3 20.3378 19.46L20.0078 19.5C17.9478 19.77 14.6478 20.86 12.8178 21.87C12.5978 22.01 12.2978 22.08 11.9978 22.08ZM3.97778 3.40999C3.65778 3.40999 3.36782 3.51999 3.13782 3.73C2.88782 3.96 2.7478 4.28999 2.7478 4.65999V16.74C2.7478 17.33 3.25782 17.9 3.82782 17.98L4.12781 18.02C6.37781 18.32 9.82782 19.45 11.8278 20.55C11.9178 20.59 12.0478 20.6 12.0978 20.58C14.1078 19.47 17.5678 18.33 19.8278 18.03L20.1678 17.99C20.7378 17.92 21.2478 17.34 21.2478 16.75V4.68001C21.2478 4.31001 21.1078 3.99001 20.8578 3.75001C20.6078 3.52001 20.2578 3.41001 19.8978 3.43001C19.8678 3.43001 19.7778 3.43001 19.7578 3.43001V8.00001C19.7578 8.28001 19.6078 8.52999 19.3578 8.65999C19.1078 8.78999 18.8178 8.78001 18.5878 8.62001L17.0078 7.57002L15.4278 8.62001C15.1978 8.77001 14.9078 8.78999 14.6578 8.65999C14.4178 8.52999 14.2578 8.28001 14.2578 8.00001V5.07002C13.8278 5.28002 13.4378 5.49002 13.0978 5.69002L12.9378 5.78999C12.3878 6.12999 11.6078 6.13 11.0778 5.8L10.8378 5.65004C9.14783 4.59004 6.06779 3.56999 4.10779 3.40999C4.05779 3.40999 4.01778 3.40999 3.97778 3.40999Z" fill="#292D32"/>
<path d="M12 21.2402C11.59 21.2402 11.25 20.9002 11.25 20.4902V5.49023C11.25 5.08023 11.59 4.74023 12 4.74023C12.41 4.74023 12.75 5.08023 12.75 5.49023V20.4902C12.75 20.9102 12.41 21.2402 12 21.2402Z" fill="#292D32"/>
<path d="M19 8.74999C18.85 8.74999 18.71 8.70998 18.58 8.61998L17 7.57L15.42 8.61998C15.19 8.76998 14.9 8.78996 14.65 8.65996C14.41 8.52996 14.25 8.27999 14.25 7.99999V3.91997C14.25 3.60997 14.44 3.33996 14.72 3.21996C16.1 2.66996 17.61 2.23997 18.88 2.03997C19.1 1.99997 19.32 2.07001 19.49 2.21001C19.66 2.35001 19.75 2.56002 19.75 2.78002V7.99999C19.75 8.27999 19.6 8.52996 19.35 8.65996C19.24 8.71996 19.12 8.74999 19 8.74999ZM17 5.91997C17.14 5.91997 17.29 5.95998 17.42 6.04998L18.25 6.59996V3.68999C17.45 3.86999 16.58 4.12999 15.75 4.43999V6.59996L16.58 6.04998C16.71 5.95998 16.86 5.91997 17 5.91997Z" fill="#292D32"/>
</svg>
