<svg width="24" height="24" viewBox="0 0 24 24" fill="none" xmlns="http://www.w3.org/2000/svg">
<path d="M22 22.75H2C1.59 22.75 1.25 22.41 1.25 22C1.25 21.59 1.59 21.25 2 21.25H22C22.41 21.25 22.75 21.59 22.75 22C22.75 22.41 22.41 22.75 22 22.75Z" fill="#292D32"/>
<path d="M20.8894 22.75C20.4794 22.75 20.1394 22.41 20.1394 22V13C20.1394 11.76 18.9794 10.75 17.5594 10.75H6.43937C5.01937 10.75 3.85938 11.76 3.85938 13V22C3.85938 22.41 3.51937 22.75 3.10938 22.75C2.69938 22.75 2.35938 22.41 2.35938 22V13C2.35938 10.93 4.18937 9.25 6.43937 9.25H17.5494C19.7994 9.25 21.6294 10.93 21.6294 13V22C21.6394 22.41 21.2994 22.75 20.8894 22.75Z" fill="#292D32"/>
<path d="M18.4425 10.75C18.0325 10.75 17.6925 10.41 17.6925 10V7.17C17.6925 6.39 16.9425 5.75 16.0325 5.75H7.9825C7.0625 5.75 6.3225 6.39 6.3225 7.17V10C6.3225 10.41 5.9825 10.75 5.5725 10.75C5.1625 10.75 4.8125 10.41 4.8125 10V7.17C4.8125 5.56 6.2325 4.25 7.9725 4.25H16.0225C17.7625 4.25 19.1825 5.56 19.1825 7.17V10C19.1925 10.41 18.8525 10.75 18.4425 10.75Z" fill="#292D32"/>
<path d="M17.3268 17.7502C16.1668 17.7502 15.2268 16.8102 15.2268 15.6502V15.3402C15.2268 15.0102 14.9568 14.7402 14.6268 14.7402C14.2968 14.7402 14.0268 15.0102 14.0268 15.3402V15.6502C14.0268 16.8102 13.0868 17.7502 11.9268 17.7502C10.7668 17.7502 9.82678 16.8102 9.82678 15.6502V15.3402C9.82678 15.0102 9.55678 14.7402 9.22678 14.7402C8.89678 14.7402 8.62678 15.0102 8.62678 15.3402V15.6502C8.62678 16.8102 7.68678 17.7502 6.52678 17.7502C5.36678 17.7502 4.42678 16.8102 4.42678 15.6502V15.3202C4.42678 15.0002 4.16678 14.7302 3.83678 14.7202H3.46678C3.05678 14.7102 2.71678 14.3702 2.72678 13.9602C2.73678 13.5502 3.06678 13.2202 3.47678 13.2202H3.48678H3.85678C4.99678 13.2402 5.92678 14.1802 5.92678 15.3202V15.6502C5.92678 15.9802 6.19678 16.2502 6.52678 16.2502C6.85678 16.2502 7.12678 15.9802 7.12678 15.6502V15.3402C7.12678 14.1802 8.06678 13.2402 9.22678 13.2402C10.3868 13.2402 11.3268 14.1802 11.3268 15.3402V15.6502C11.3268 15.9802 11.5968 16.2502 11.9268 16.2502C12.2568 16.2502 12.5268 15.9802 12.5268 15.6502V15.3402C12.5268 14.1802 13.4668 13.2402 14.6268 13.2402C15.7868 13.2402 16.7268 14.1802 16.7268 15.3402V15.6502C16.7268 15.9802 16.9968 16.2502 17.3268 16.2502C17.6568 16.2502 17.9268 15.9802 17.9268 15.6502V15.3402C17.9268 14.1802 18.8668 13.2402 20.0268 13.2402H20.4768C20.8868 13.2402 21.2268 13.5802 21.2268 13.9902C21.2268 14.4002 20.8868 14.7402 20.4768 14.7402H20.0268C19.6968 14.7402 19.4268 15.0102 19.4268 15.3402V15.6502C19.4268 16.8102 18.4868 17.7502 17.3268 17.7502Z" fill="#292D32"/>
<path d="M8 5.75C7.59 5.75 7.25 5.41 7.25 5V3C7.25 2.59 7.59 2.25 8 2.25C8.41 2.25 8.75 2.59 8.75 3V5C8.75 5.41 8.41 5.75 8 5.75Z" fill="#292D32"/>
<path d="M16 5.75C15.59 5.75 15.25 5.41 15.25 5V3C15.25 2.59 15.59 2.25 16 2.25C16.41 2.25 16.75 2.59 16.75 3V5C16.75 5.41 16.41 5.75 16 5.75Z" fill="#292D32"/>
<path d="M12 5.75C11.59 5.75 11.25 5.41 11.25 5V2C11.25 1.59 11.59 1.25 12 1.25C12.41 1.25 12.75 1.59 12.75 2V5C12.75 5.41 12.41 5.75 12 5.75Z" fill="#292D32"/>
</svg>
