<svg width="24" height="24" viewBox="0 0 24 24" fill="none" xmlns="http://www.w3.org/2000/svg">
<path d="M9 10.75H6C5.59 10.75 5.25 10.41 5.25 10C5.25 9.59 5.59 9.25 6 9.25H9C9.41 9.25 9.75 9.59 9.75 10C9.75 10.41 9.41 10.75 9 10.75Z" fill="#292D32"/>
<path d="M17.2378 22.75H6.75781C6.34781 22.75 6.00781 22.41 6.00781 22C6.00781 21.59 6.34781 21.25 6.75781 21.25H17.2378C19.2578 21.25 20.3478 20.22 20.4778 18.2L20.9978 9.94004C21.0478 9.23004 20.8378 8.53004 20.4078 7.96004C20.1578 7.63004 20.2278 7.16004 20.5578 6.91004C20.8878 6.66004 21.3578 6.73004 21.6078 7.06004C22.2478 7.92004 22.5678 8.97004 22.4978 10.04L21.9778 18.3C21.7978 21.13 20.0678 22.75 17.2378 22.75Z" fill="#292D32"/>
<path d="M3.44164 21.21C3.20164 21.21 2.96164 21.09 2.81164 20.87C2.35164 20.17 2.08164 19.3 2.02164 18.29L1.50164 10.04C1.42164 8.79 1.85164 7.59 2.71164 6.68C3.56164 5.77 4.76164 5.25 6.00164 5.25C6.32164 5.25 6.63164 5.06 6.78164 4.76L7.50164 3.33C8.09164 2.16 9.57164 1.25 10.8616 1.25H13.1516C14.4416 1.25 15.9116 2.16 16.5016 3.32L17.2216 4.78C17.3716 5.06 17.6716 5.25 18.0016 5.25C18.4116 5.25 18.7516 5.59 18.7516 6C18.7516 6.41 18.4116 6.75 18.0016 6.75C17.1116 6.75 16.3016 6.25 15.8816 5.46L15.1516 4C14.8216 3.34 13.8816 2.76 13.1416 2.76H10.8516C10.1116 2.76 9.17164 3.34 8.83164 4.01L8.12164 5.44C7.70164 6.25 6.89164 6.75 6.00164 6.75C5.16164 6.75 4.38164 7.09 3.80164 7.7C3.23164 8.31 2.94164 9.11 3.00164 9.94L3.52164 18.2C3.56164 18.93 3.75164 19.57 4.07164 20.04C4.30164 20.39 4.20164 20.85 3.86164 21.08C3.73164 21.17 3.58164 21.21 3.44164 21.21Z" fill="#292D32"/>
<path d="M11.9977 18.7501C11.1077 18.7501 10.2377 18.4501 9.53773 17.9001C9.20773 17.6401 9.15773 17.1701 9.40773 16.8501C9.66773 16.5201 10.1377 16.4701 10.4577 16.7201C10.8977 17.0601 11.4377 17.2501 11.9977 17.2501C13.3777 17.2501 14.4977 16.1301 14.4977 14.7501C14.4977 14.2701 14.3677 13.8101 14.1177 13.4201C13.8977 13.0701 13.9977 12.6101 14.3477 12.3801C14.6977 12.1601 15.1577 12.2601 15.3877 12.6101C15.7877 13.2401 16.0077 13.9801 16.0077 14.7401C15.9977 16.9601 14.2077 18.7501 11.9977 18.7501Z" fill="#292D32"/>
<path d="M1.9975 22.7499C1.8075 22.7499 1.6175 22.6799 1.4675 22.5299C1.1775 22.2399 1.1775 21.7599 1.4675 21.4699L21.4675 1.46994C21.7575 1.17994 22.2375 1.17994 22.5275 1.46994C22.8175 1.75994 22.8175 2.23994 22.5275 2.52994L2.5275 22.5299C2.3775 22.6799 2.1875 22.7499 1.9975 22.7499Z" fill="#292D32"/>
</svg>
