<svg width="24" height="24" viewBox="0 0 24 24" fill="none" xmlns="http://www.w3.org/2000/svg">
<path d="M21.8984 10.7803H1.89844C1.48844 10.7803 1.14844 10.4403 1.14844 10.0303C1.14844 9.62027 1.48844 9.28027 1.89844 9.28027H21.8984C22.3084 9.28027 22.6484 9.62027 22.6484 10.0303C22.6484 10.4403 22.3184 10.7803 21.8984 10.7803Z" fill="#292D32"/>
<path d="M11.4584 21.28H6.34839C2.36839 21.28 1.14844 20.08 1.14844 16.14V7.92004C1.14844 4.77004 1.81843 3.02004 5.38843 2.81004C5.69843 2.80004 6.00839 2.79004 6.34839 2.79004H17.4584C21.4384 2.79004 22.6584 3.99004 22.6584 7.93004V12.34C22.6584 12.75 22.3184 13.09 21.9084 13.09C21.4984 13.09 21.1584 12.75 21.1584 12.34V7.93004C21.1584 4.84004 20.6084 4.29004 17.4584 4.29004H6.34839C6.02839 4.29004 5.73844 4.30004 5.45844 4.31004C3.28843 4.44004 2.64844 4.93004 2.64844 7.93004V16.15C2.64844 19.24 3.19839 19.79 6.34839 19.79H11.4584C11.8684 19.79 12.2084 20.13 12.2084 20.54C12.2084 20.95 11.8684 21.28 11.4584 21.28Z" fill="#292D32"/>
<path d="M17.8984 22.7803C15.2784 22.7803 13.1484 20.6503 13.1484 18.0303C13.1484 15.4103 15.2784 13.2803 17.8984 13.2803C20.5184 13.2803 22.6484 15.4103 22.6484 18.0303C22.6484 20.6503 20.5184 22.7803 17.8984 22.7803ZM17.8984 14.7803C16.1084 14.7803 14.6484 16.2403 14.6484 18.0303C14.6484 19.8203 16.1084 21.2803 17.8984 21.2803C19.6884 21.2803 21.1484 19.8203 21.1484 18.0303C21.1484 16.2403 19.6884 14.7803 17.8984 14.7803Z" fill="#292D32"/>
<path d="M18.9668 19.9C18.7768 19.9 18.5869 19.83 18.4369 19.68L16.3269 17.57C16.0369 17.28 16.0369 16.8 16.3269 16.51C16.6169 16.22 17.0969 16.22 17.3869 16.51L19.4969 18.62C19.7869 18.91 19.7869 19.39 19.4969 19.68C19.3569 19.82 19.1568 19.9 18.9668 19.9Z" fill="#292D32"/>
<path d="M16.8335 19.92C16.6435 19.92 16.4534 19.85 16.3034 19.7C16.0134 19.41 16.0134 18.93 16.3034 18.64L18.4134 16.53C18.7034 16.24 19.1834 16.24 19.4734 16.53C19.7634 16.82 19.7634 17.3 19.4734 17.59L17.3634 19.7C17.2234 19.85 17.0335 19.92 16.8335 19.92Z" fill="#292D32"/>
<path d="M9.89844 16.7803H5.89844C5.48844 16.7803 5.14844 16.4403 5.14844 16.0303C5.14844 15.6203 5.48844 15.2803 5.89844 15.2803H9.89844C10.3084 15.2803 10.6484 15.6203 10.6484 16.0303C10.6484 16.4403 10.3184 16.7803 9.89844 16.7803Z" fill="#292D32"/>
</svg>
