<svg width="24" height="24" viewBox="0 0 24 24" fill="none" xmlns="http://www.w3.org/2000/svg">
<path d="M8 10.4999L11.0651 3.494C11.2994 2.9586 11.9409 2.73729 12.4554 3.01436L17.9998 5.99992" stroke="#7332D6" stroke-width="1.5" stroke-linecap="round" stroke-linejoin="round"/>
<path d="M13 15.5V6H21V20.5H13V18.5" stroke="#7332D6" stroke-width="1.5" stroke-linecap="round" stroke-linejoin="round"/>
<path d="M2 22C6.5 22 6.88455 19.3417 8.1651 19.1562C9.67635 18.9374 11.2158 18.8248 12.5516 18.5C14.2485 18.0873 15.6167 17.556 16.1811 17.3224C16.3645 17.2464 16.5171 17.1142 16.6089 16.9382C16.8905 16.3975 17.3951 15.205 16.4604 15.0547C15.2465 14.8594 11.4903 16.2916 9.5638 16.0312C7.6373 15.7708 8.31465 14.4687 8.92165 14.0781C10.57 13.0172 12.5 13.5 12.5 13.5V9C12.5 9 5.16675 10.875 2.5 14.0781" stroke="#7332D6" stroke-width="1.5" stroke-linecap="round" stroke-linejoin="round"/>
<path d="M16 10.5H21" stroke="#7332D6" stroke-width="1.5" stroke-linecap="round" stroke-linejoin="round"/>
</svg>
