<svg width="24" height="24" viewBox="0 0 24 24" fill="none" xmlns="http://www.w3.org/2000/svg">
<path fill-rule="evenodd" clip-rule="evenodd" d="M3.99999 10.5601C5.11382 10.5902 6 11.441 6 12.4801C6 13.5192 5.11382 14.3699 3.99999 14.4001C2.88618 14.3699 2 13.5192 2 12.4801C2 11.441 2.88618 10.5902 3.99999 10.5601Z" stroke="#7A7A7A" stroke-width="1.2" stroke-linecap="round" stroke-linejoin="round"/>
<path fill-rule="evenodd" clip-rule="evenodd" d="M20.0403 14.3997C19.2277 14.4153 18.486 13.9575 18.164 13.2413C17.8417 12.525 18.0031 11.6927 18.572 11.1358C19.1411 10.5788 20.0045 10.4076 20.7568 10.7029C21.5091 10.9983 22.0004 11.7011 21.9999 12.4813C22.0102 13.5303 21.1329 14.389 20.0403 14.3997Z" stroke="#7A7A7A" stroke-width="1.2" stroke-linecap="round" stroke-linejoin="round"/>
<path fill-rule="evenodd" clip-rule="evenodd" d="M10.0004 20.1989C9.98396 19.4189 10.461 18.707 11.2071 18.3976C11.9532 18.0883 12.82 18.2432 13.4004 18.7895C13.9805 19.3357 14.1587 20.1647 13.8512 20.8869C13.5436 21.609 12.8115 22.0806 11.9987 22.0801C10.9059 22.09 10.0115 21.248 10.0004 20.1989Z" stroke="#7A7A7A" stroke-width="1.2" stroke-linecap="round" stroke-linejoin="round"/>
<path fill-rule="evenodd" clip-rule="evenodd" d="M14 4.79987C13.9686 5.86915 13.0824 6.71988 12 6.71988C10.9174 6.71988 10.0312 5.86915 10 4.79987C10.0312 3.73061 10.9174 2.87988 12 2.87988C13.0824 2.87988 13.9686 3.73061 14 4.79987Z" stroke="#7A7A7A" stroke-width="1.2" stroke-linecap="round" stroke-linejoin="round"/>
<path fill-rule="evenodd" clip-rule="evenodd" d="M14 12.4801C14 13.5404 13.1045 14.4001 12 14.4001C10.8954 14.4001 10 13.5404 10 12.4801C10 11.4196 10.8954 10.5601 12 10.5601C13.1045 10.5601 14 11.4196 14 12.4801Z" stroke="#7A7A7A" stroke-width="1.2" stroke-linecap="round" stroke-linejoin="round"/>
<path d="M5.0335 11.0462C4.90758 11.4513 5.14764 11.8778 5.56969 11.9987C5.99175 12.1195 6.43597 11.889 6.56189 11.4839L5.0335 11.0462ZM7.4861 9.77952C7.7596 9.4481 7.70146 8.96659 7.35622 8.70403C7.01099 8.44146 6.50942 8.49729 6.23591 8.8287L7.4861 9.77952ZM6.56189 13.4746C6.43597 13.0694 5.99175 12.839 5.56969 12.9598C5.14764 13.0807 4.90758 13.5072 5.0335 13.9123L6.56189 13.4746ZM6.23591 16.1298C6.50942 16.4612 7.01099 16.5171 7.35622 16.2545C7.70146 15.992 7.7596 15.5104 7.4861 15.179L6.23591 16.1298ZM18.9665 13.9134C19.0924 13.5082 18.8523 13.0817 18.4303 12.9609C18.0083 12.84 17.564 13.0704 17.4381 13.4756L18.9665 13.9134ZM16.5139 15.18C16.2404 15.5114 16.2986 15.993 16.6438 16.2555C16.989 16.5181 17.4906 16.4622 17.7641 16.1308L16.5139 15.18ZM17.4381 11.4849C17.564 11.8901 18.0083 12.1206 18.4303 11.9997C18.8523 11.8788 19.0924 11.4524 18.9665 11.0472L17.4381 11.4849ZM17.7641 8.82972C17.4906 8.49831 16.989 8.44248 16.6438 8.70505C16.2986 8.96761 16.2404 9.44912 16.5139 9.78054L17.7641 8.82972ZM10.5067 19.1676C10.9287 19.2885 11.373 19.058 11.4989 18.6528C11.6248 18.2477 11.3847 17.8212 10.9626 17.7004L10.5067 19.1676ZM9.18724 16.8131C8.84202 16.5505 8.34044 16.6064 8.06694 16.9378C7.79343 17.2692 7.85158 17.7508 8.19681 18.0133L9.18724 16.8131ZM13.0363 17.7004C12.6142 17.8212 12.3742 18.2477 12.5001 18.6528C12.626 19.058 13.0702 19.2885 13.4923 19.1676L13.0363 17.7004ZM15.8021 18.0133C16.1474 17.7508 16.2055 17.2692 15.932 16.9378C15.6585 16.6064 15.1569 16.5505 14.8117 16.8131L15.8021 18.0133ZM13.4933 5.79192C13.0713 5.67104 12.627 5.9015 12.5011 6.30667C12.3752 6.71185 12.6152 7.1383 13.0374 7.25918L13.4933 5.79192ZM14.8128 8.14642C15.1579 8.40898 15.6596 8.35316 15.9331 8.02174C16.2066 7.69032 16.1484 7.20881 15.8032 6.94624L14.8128 8.14642ZM10.9637 7.25918C11.3857 7.1383 11.6258 6.71185 11.4999 6.30667C11.374 5.9015 10.9298 5.67104 10.5078 5.79192L10.9637 7.25918ZM8.19787 6.94624C7.85265 7.20881 7.7945 7.69032 8.068 8.02174C8.34151 8.35316 8.84308 8.40898 9.18831 8.14642L8.19787 6.94624ZM6.56189 11.4839C6.75437 10.8646 7.06803 10.2861 7.4861 9.77952L6.23591 8.8287C5.69199 9.48781 5.28392 10.2404 5.0335 11.0462L6.56189 11.4839ZM5.0335 13.9123C5.28392 14.7181 5.69199 15.4707 6.23591 16.1298L7.4861 15.179C7.06803 14.6724 6.75437 14.0939 6.56189 13.4746L5.0335 13.9123ZM17.4381 13.4756C17.2456 14.095 16.932 14.6734 16.5139 15.18L17.7641 16.1308C18.308 15.4717 18.7161 14.7192 18.9665 13.9134L17.4381 13.4756ZM18.9665 11.0472C18.7161 10.2414 18.308 9.48883 17.7641 8.82972L16.5139 9.78054C16.932 10.2871 17.2456 10.8656 17.4381 11.4849L18.9665 11.0472ZM10.9626 17.7004C10.3175 17.5156 9.71495 17.2145 9.18724 16.8131L8.19681 18.0133C8.88338 18.5355 9.66731 18.9272 10.5067 19.1676L10.9626 17.7004ZM13.4923 19.1676C14.3316 18.9272 15.1155 18.5355 15.8021 18.0133L14.8117 16.8131C14.284 17.2145 13.6814 17.5156 13.0363 17.7004L13.4923 19.1676ZM13.0374 7.25918C13.6825 7.44396 14.2851 7.74507 14.8128 8.14642L15.8032 6.94624C15.1166 6.42408 14.3327 6.03233 13.4933 5.79192L13.0374 7.25918ZM10.5078 5.79192C9.66837 6.03233 8.88444 6.42408 8.19787 6.94624L9.18831 8.14642C9.71601 7.74507 10.3186 7.44396 10.9637 7.25918L10.5078 5.79192Z" fill="#7A7A7A"/>
</svg>
