<svg width="24" height="24" viewBox="0 0 24 24" fill="none" xmlns="http://www.w3.org/2000/svg">
<path d="M13.0495 19.4198C12.5095 19.4198 11.9395 19.3698 11.3195 19.2698L6.6295 18.5298C5.1495 18.2998 4.0095 17.8898 3.1595 17.2898C0.969499 15.7698 1.0995 13.1598 1.3795 11.3298L2.1195 6.63981C2.7995 2.33981 5.0195 0.729807 9.3195 1.39981L14.0095 2.13981C16.2195 2.48981 19.1895 3.37981 19.3795 7.10981C19.4195 7.74981 19.3795 8.47981 19.2395 9.33981L18.5095 14.0298C17.9295 17.6998 16.2195 19.4198 13.0495 19.4198ZM7.5295 2.74981C5.1495 2.74981 4.0695 3.95981 3.5995 6.87981L2.8595 11.5698C2.3995 14.5198 3.2395 15.5198 4.0195 16.0698C4.6795 16.5398 5.6095 16.8598 6.8595 17.0498L11.5495 17.7898C15.0395 18.3398 16.4795 17.2898 17.0295 13.7898L17.7595 9.09981C17.8795 8.34981 17.9195 7.71981 17.8795 7.18981V7.17981C17.7695 5.07981 16.5795 4.04981 13.7695 3.60981L9.0895 2.87981C8.5095 2.78981 7.9995 2.74981 7.5295 2.74981Z" fill="#292D32"/>
<path d="M14.6812 22.75C13.8312 22.75 12.8712 22.57 11.7612 22.2L7.25123 20.7C4.68123 19.8499 3.29123 18.6299 2.87123 16.8499C2.80123 16.5499 2.92123 16.2299 3.18123 16.0599C3.44123 15.8899 3.78123 15.8899 4.03123 16.0699C4.69123 16.5399 5.61123 16.8599 6.86123 17.0499L11.5512 17.79C15.0412 18.34 16.4812 17.2899 17.0312 13.7899L17.7612 9.09995C17.8812 8.34995 17.9212 7.71995 17.8812 7.18995C17.8712 6.92995 18.0012 6.66995 18.2312 6.51995C18.4612 6.36995 18.7512 6.35995 18.9912 6.48995C21.6712 7.91995 22.3812 10.2099 21.2212 13.7099L19.7212 18.2199C19.0112 20.3399 18.0812 21.64 16.7812 22.29C16.1512 22.6 15.4612 22.75 14.6812 22.75ZM5.73123 18.36C6.21123 18.6799 6.85123 18.99 7.72123 19.28L12.2312 20.78C13.9512 21.3499 15.1812 21.4 16.1012 20.95C17.0212 20.49 17.7212 19.4699 18.2912 17.7499L19.7912 13.2399C20.6112 10.7599 20.2912 9.43995 19.3412 8.54995C19.3212 8.79995 19.2812 9.05995 19.2412 9.33995L18.5112 14.0299C17.8312 18.33 15.6112 19.9399 11.3112 19.28L6.62123 18.54C6.31123 18.4799 6.01123 18.42 5.73123 18.36Z" fill="#292D32"/>
<path d="M8.24 9.72023C6.87 9.72023 5.75 8.60023 5.75 7.23023C5.75 5.86023 6.87 4.74023 8.24 4.74023C9.61 4.74023 10.73 5.86023 10.73 7.23023C10.73 8.60023 9.61 9.72023 8.24 9.72023ZM8.24 6.25023C7.7 6.25023 7.25 6.69023 7.25 7.24023C7.25 7.79023 7.69 8.23023 8.24 8.23023C8.78 8.23023 9.23 7.79023 9.23 7.24023C9.23 6.69023 8.78 6.25023 8.24 6.25023Z" fill="#292D32"/>
</svg>
