<svg width="24" height="24" viewBox="0 0 24 24" fill="none" xmlns="http://www.w3.org/2000/svg">
<path d="M5.9978 22.7498C5.6978 22.7498 5.3778 22.7198 5.0578 22.6598C4.8878 22.6198 4.7378 22.5798 4.5878 22.5398C4.4178 22.4898 4.25779 22.4298 4.10779 22.3698C4.06779 22.3598 4.03781 22.3398 4.00781 22.3298C3.65781 22.1498 3.3578 21.9698 3.0878 21.7698C3.0678 21.7598 3.05781 21.7398 3.03781 21.7298C2.88781 21.6098 2.7478 21.4898 2.6178 21.3498C2.4778 21.1998 2.37779 21.0798 2.26779 20.9598C2.03779 20.6598 1.8478 20.3598 1.6778 20.0098C1.6578 19.9798 1.64782 19.9398 1.63782 19.8998C1.57782 19.7598 1.52779 19.6198 1.48779 19.4698C1.42779 19.2598 1.38779 19.1198 1.35779 18.9698C1.28779 18.6198 1.25781 18.3098 1.25781 18.0098V4.50977C1.25781 2.59977 2.59781 1.25977 4.50781 1.25977H7.50781C9.41781 1.25977 10.7578 2.59977 10.7578 4.50977V17.9998C10.7578 19.2398 10.2778 20.4198 9.40781 21.3098C9.24781 21.4698 9.12779 21.5798 9.01779 21.6698C8.69779 21.9498 8.28781 22.1998 7.84781 22.3798C7.74781 22.4198 7.6278 22.4698 7.4978 22.5198C7.0078 22.6698 6.4978 22.7498 5.9978 22.7498ZM4.73779 20.9998C4.83779 21.0398 4.93781 21.0698 5.03781 21.0998C5.14781 21.1298 5.2578 21.1598 5.3678 21.1898C5.9178 21.2898 6.50781 21.2598 6.97781 21.0998C7.04781 21.0698 7.14779 21.0398 7.23779 20.9998C7.55779 20.8698 7.81779 20.7098 8.04779 20.5198C8.14779 20.4398 8.21781 20.3698 8.28781 20.3098C8.91781 19.6598 9.2478 18.8598 9.2478 18.0098V4.50977C9.2478 3.42977 8.5778 2.75977 7.4978 2.75977H4.4978C3.4178 2.75977 2.7478 3.42977 2.7478 4.50977V17.9998C2.7478 18.2098 2.76781 18.4298 2.81781 18.6598C2.83781 18.7498 2.8678 18.8598 2.8978 18.9798C2.9378 19.0898 2.96781 19.1798 3.00781 19.2798C3.02781 19.3098 3.03779 19.3398 3.04779 19.3598C3.05779 19.3798 3.06779 19.4098 3.07779 19.4298C3.19779 19.6498 3.31781 19.8398 3.44781 20.0098C3.51781 20.0898 3.60782 20.1898 3.69781 20.2898C3.80781 20.4098 3.8978 20.4798 3.9978 20.5598C4.0078 20.5698 4.02781 20.5798 4.03781 20.5898C4.19781 20.7098 4.3778 20.8198 4.5878 20.9298C4.6078 20.9398 4.6278 20.9398 4.6478 20.9498C4.6678 20.9598 4.69779 20.9798 4.73779 20.9998Z" fill="#292D32"/>
<path d="M19.5 22.7503H6C5.59 22.7503 5.25 22.4103 5.25 22.0003C5.25 21.5903 5.59 21.2503 6 21.2503C6.35 21.2503 6.69001 21.2003 6.98001 21.1003C7.05001 21.0703 7.14999 21.0403 7.23999 21.0003C7.55999 20.8703 7.81999 20.7103 8.04999 20.5203C8.14999 20.4403 8.22001 20.3703 8.29001 20.3103L15.13 13.4803C15.27 13.3403 15.46 13.2603 15.66 13.2603H19.5C21.41 13.2603 22.75 14.6003 22.75 16.5103V19.5103C22.75 21.4103 21.41 22.7503 19.5 22.7503ZM9.45999 21.2503H19.5C20.58 21.2503 21.25 20.5803 21.25 19.5003V16.5003C21.25 15.4203 20.58 14.7503 19.5 14.7503H15.97L9.45999 21.2503Z" fill="#292D32"/>
<path d="M4.8102 22.57C4.7402 22.57 4.67021 22.56 4.60021 22.54C3.86021 22.32 3.18022 21.91 2.64022 21.36C2.10022 20.83 1.6902 20.15 1.4702 19.41C1.3502 19.01 1.5702 18.6 1.9702 18.48C2.3702 18.36 2.78021 18.58 2.91021 18.97C3.23021 19.99 4.03019 20.79 5.05019 21.11C5.44019 21.23 5.66021 21.65 5.54021 22.05C5.43021 22.36 5.1302 22.57 4.8102 22.57Z" fill="#292D32"/>
<path d="M8.86193 21.5404C8.67193 21.5404 8.48193 21.4704 8.33193 21.3204C8.04193 21.0304 8.03195 20.5604 8.32195 20.2604C8.92195 19.6504 9.25194 18.8404 9.25194 17.9904V8.33042C9.25194 8.13042 9.33194 7.94042 9.47194 7.80042L12.1819 5.09041C13.4919 3.78041 15.4719 3.78041 16.7819 5.09041L18.9019 7.21042C20.2519 8.56042 20.2519 10.4604 18.9019 11.8104L9.39196 21.3104C9.24196 21.4704 9.05193 21.5404 8.86193 21.5404ZM10.7519 8.65041V17.8404L17.8419 10.7604C18.6019 10.0004 18.6019 9.05041 17.8419 8.28041L15.7219 6.16042C14.9719 5.41042 13.9919 5.41042 13.2419 6.16042L10.7519 8.65041Z" fill="#292D32"/>
<path d="M6 19.75C5.04 19.75 4.25 18.96 4.25 18C4.25 17.04 5.04 16.25 6 16.25C6.96 16.25 7.75 17.04 7.75 18C7.75 18.96 6.96 19.75 6 19.75ZM6 17.75C5.86 17.75 5.75 17.86 5.75 18C5.75 18.28 6.25 18.28 6.25 18C6.25 17.86 6.14 17.75 6 17.75Z" fill="#292D32"/>
</svg>
