<svg width="24" height="24" viewBox="0 0 24 24" fill="none" xmlns="http://www.w3.org/2000/svg">
<path d="M14.9688 22.75H8.96875C3.53875 22.75 1.21875 20.43 1.21875 15V9C1.21875 3.57 3.53875 1.25 8.96875 1.25H14.9688C20.3988 1.25 22.7188 3.57 22.7188 9V15C22.7188 20.43 20.4088 22.75 14.9688 22.75ZM8.96875 2.75C4.35875 2.75 2.71875 4.39 2.71875 9V15C2.71875 19.61 4.35875 21.25 8.96875 21.25H14.9688C19.5788 21.25 21.2188 19.61 21.2188 15V9C21.2188 4.39 19.5788 2.75 14.9688 2.75H8.96875Z" fill="#292D32"/>
<path d="M3.27094 20.4499C3.08094 20.4499 2.89094 20.3799 2.74094 20.2299C2.45094 19.9399 2.45094 19.4599 2.74094 19.1699L19.1909 2.71994C19.4809 2.42994 19.9609 2.42994 20.2509 2.71994C20.5409 3.00994 20.5409 3.48994 20.2509 3.77994L3.80094 20.2299C3.66094 20.3799 3.47094 20.4499 3.27094 20.4499Z" fill="#292D32"/>
<path d="M16.0625 18.75C15.6525 18.75 15.3125 18.41 15.3125 18V13C15.3125 12.59 15.6525 12.25 16.0625 12.25C16.4725 12.25 16.8125 12.59 16.8125 13V18C16.8125 18.41 16.4725 18.75 16.0625 18.75Z" fill="#292D32"/>
<path d="M18.5 16.25H13.5C13.09 16.25 12.75 15.91 12.75 15.5C12.75 15.09 13.09 14.75 13.5 14.75H18.5C18.91 14.75 19.25 15.09 19.25 15.5C19.25 15.91 18.91 16.25 18.5 16.25Z" fill="#292D32"/>
<path d="M10.5 8.25H5.5C5.09 8.25 4.75 7.91 4.75 7.5C4.75 7.09 5.09 6.75 5.5 6.75H10.5C10.91 6.75 11.25 7.09 11.25 7.5C11.25 7.91 10.91 8.25 10.5 8.25Z" fill="#292D32"/>
</svg>
