<svg width="24" height="24" viewBox="0 0 24 24" fill="none" xmlns="http://www.w3.org/2000/svg">
<path d="M22 6.31006H12C11.59 6.31006 11.25 5.97006 11.25 5.56006C11.25 5.15006 11.59 4.81006 12 4.81006H22C22.41 4.81006 22.75 5.15006 22.75 5.56006C22.75 5.98006 22.41 6.31006 22 6.31006Z" fill="#292D32"/>
<path d="M19.7778 11.25H14.2278C12.0378 11.25 11.2578 10.48 11.2578 8.3V4.2C11.2578 2.02 12.0378 1.25 14.2278 1.25H19.7778C21.9678 1.25 22.7478 2.02 22.7478 4.2V8.31C22.7478 10.48 21.9678 11.25 19.7778 11.25ZM14.2178 2.75C12.8578 2.75 12.7478 2.86 12.7478 4.2V8.31C12.7478 9.65 12.8578 9.76 14.2178 9.76H19.7678C21.1278 9.76 21.2378 9.65 21.2378 8.31V4.2C21.2378 2.86 21.1278 2.75 19.7678 2.75H14.2178Z" fill="#292D32"/>
<path d="M12 17.8101H2C1.59 17.8101 1.25 17.4701 1.25 17.0601C1.25 16.6501 1.59 16.3101 2 16.3101H12C12.41 16.3101 12.75 16.6501 12.75 17.0601C12.75 17.4801 12.41 17.8101 12 17.8101Z" fill="#292D32"/>
<path d="M9.7778 22.75H4.22781C2.03781 22.75 1.25781 21.98 1.25781 19.8V15.7C1.25781 13.52 2.03781 12.75 4.22781 12.75H9.7778C11.9678 12.75 12.7478 13.52 12.7478 15.7V19.81C12.7478 21.98 11.9678 22.75 9.7778 22.75ZM4.2178 14.25C2.8578 14.25 2.7478 14.36 2.7478 15.7V19.81C2.7478 21.15 2.8578 21.26 4.2178 21.26H9.76779C11.1278 21.26 11.2378 21.15 11.2378 19.81V15.7C11.2378 14.36 11.1278 14.25 9.76779 14.25H4.2178Z" fill="#292D32"/>
<path d="M14.9963 22.7502C14.7263 22.7502 14.4763 22.6002 14.3463 22.3702C14.2163 22.1302 14.2163 21.8502 14.3563 21.6102L15.4063 19.8602C15.6163 19.5102 16.0763 19.3902 16.4363 19.6002C16.7963 19.8102 16.9063 20.2702 16.6963 20.6302L16.4263 21.0802C19.1863 20.4302 21.2563 17.9502 21.2563 14.9902C21.2563 14.5802 21.5963 14.2402 22.0063 14.2402C22.4163 14.2402 22.7563 14.5802 22.7563 14.9902C22.7463 19.2702 19.2663 22.7502 14.9963 22.7502Z" fill="#292D32"/>
<path d="M2 9.75C1.59 9.75 1.25 9.41 1.25 9C1.25 4.73 4.73 1.25 9 1.25C9.27 1.25 9.51999 1.4 9.64999 1.63C9.77999 1.87 9.78001 2.15 9.64001 2.39L8.59 4.14C8.38 4.49 7.92 4.61 7.56 4.4C7.2 4.19 7.08999 3.73 7.29999 3.37L7.57001 2.92C4.81001 3.57 2.73999 6.05 2.73999 9.01C2.74999 9.41 2.41 9.75 2 9.75Z" fill="#292D32"/>
</svg>
