<svg width="24" height="24" viewBox="0 0 24 24" fill="none" xmlns="http://www.w3.org/2000/svg">
<path d="M12 22.75C6.07 22.75 1.25 17.93 1.25 12C1.25 6.07 6.07 1.25 12 1.25C17.93 1.25 22.75 6.07 22.75 12C22.75 17.93 17.93 22.75 12 22.75ZM12 2.75C6.9 2.75 2.75 6.9 2.75 12C2.75 17.1 6.9 21.25 12 21.25C17.1 21.25 21.25 17.1 21.25 12C21.25 6.9 17.1 2.75 12 2.75Z" fill="#292D32"/>
<path d="M8.98718 15.6199C6.98718 15.6199 5.36719 13.9999 5.36719 11.9999C5.36719 9.99988 6.98718 8.37988 8.98718 8.37988C9.86718 8.37988 10.7072 8.69991 11.3772 9.27991C11.6872 9.54991 11.7172 10.0299 11.4472 10.3399C11.1772 10.6499 10.6972 10.6799 10.3872 10.4099C9.99721 10.0699 9.50718 9.87988 8.98718 9.87988C7.81718 9.87988 6.86719 10.8299 6.86719 11.9999C6.86719 13.1699 7.81718 14.1199 8.98718 14.1199C9.49718 14.1199 9.99721 13.9299 10.3872 13.5899C10.6972 13.3199 11.1672 13.3499 11.4472 13.6599C11.7172 13.9699 11.6872 14.4498 11.3772 14.7198C10.7072 15.2998 9.85718 15.6199 8.98718 15.6199Z" fill="#292D32"/>
<path d="M15.9872 15.6199C13.9872 15.6199 12.3672 13.9999 12.3672 11.9999C12.3672 9.99988 13.9872 8.37988 15.9872 8.37988C16.8672 8.37988 17.7072 8.69991 18.3772 9.27991C18.6872 9.54991 18.7172 10.0299 18.4472 10.3399C18.1772 10.6499 17.6972 10.6799 17.3872 10.4099C16.9972 10.0699 16.5072 9.87988 15.9872 9.87988C14.8172 9.87988 13.8672 10.8299 13.8672 11.9999C13.8672 13.1699 14.8172 14.1199 15.9872 14.1199C16.4972 14.1199 16.9972 13.9299 17.3872 13.5899C17.6972 13.3199 18.1672 13.3499 18.4472 13.6599C18.7172 13.9699 18.6872 14.4498 18.3772 14.7198C17.7072 15.2998 16.8572 15.6199 15.9872 15.6199Z" fill="#292D32"/>
</svg>
