<svg width="24" height="24" viewBox="0 0 24 24" fill="none" xmlns="http://www.w3.org/2000/svg">
<path d="M18.8315 12.3096L18.7299 14.0143L20.1637 14.1747L20.2653 12.47L18.8315 12.3096ZM13.3998 20.2514H11.3182L11.3832 21.7514H13.4647L13.3998 20.2514ZM5.448 14.0143L5.19877 12.3096L3.7789 12.47L4.02812 14.1747L5.448 14.0143ZM9.49844 11.3007L11.0716 8.09217L9.78658 7.36153L8.2135 10.57L9.49844 11.3007ZM12.5935 8.09216L14.4444 11.3007L15.6662 10.57L13.8152 7.36153L12.5935 8.09216ZM14.4444 11.3007C14.6118 11.5907 14.7659 11.8596 14.9128 12.0652C15.0642 12.2767 15.2681 12.5103 15.571 12.647L16.0899 11.2742C16.1444 11.2987 16.1364 11.324 16.05 11.2032C15.9592 11.0763 15.85 10.8887 15.6662 10.57L14.4444 11.3007ZM16.6734 10.7152C16.437 10.9729 16.2967 11.1245 16.1854 11.2222C16.0793 11.3153 16.0757 11.2886 16.1328 11.2803L16.3936 12.7662C16.7129 12.7198 16.9533 12.5509 17.1385 12.3883C17.3185 12.2303 17.5169 12.0126 17.7321 11.7779L16.6734 10.7152ZM15.571 12.647C15.8328 12.7651 16.1176 12.8063 16.3936 12.7662L16.1328 11.2803C16.1182 11.2824 16.1034 11.2803 16.0899 11.2742L15.571 12.647ZM6.25209 11.7779C6.48764 12.0126 6.70488 12.2303 6.8986 12.3883C7.09793 12.5509 7.35294 12.7198 7.67614 12.7662L7.80837 11.2803C7.86614 11.2886 7.86487 11.3153 7.75072 11.2222C7.63096 11.1245 7.47753 10.9729 7.21883 10.7152L6.25209 11.7779ZM8.2135 10.57C8.05727 10.8887 7.96423 11.0763 7.8845 11.2032C7.80856 11.324 7.79836 11.2987 7.8507 11.2742L8.48847 12.647C8.77952 12.5103 8.96331 12.2767 9.09626 12.0652C9.22544 11.8597 9.35623 11.5907 9.49844 11.3007L8.2135 10.57ZM7.67614 12.7662C7.95563 12.8063 8.2369 12.7651 8.48847 12.647L7.8507 11.2742C7.83772 11.2803 7.82303 11.2824 7.80837 11.2803L7.67614 12.7662ZM11.3182 20.2514C9.94257 20.2514 8.9791 20.25 8.23949 20.1516C7.52005 20.0559 7.10828 19.8788 6.79349 19.5957L5.88479 20.7134C6.51179 21.2772 7.2492 21.5234 8.12178 21.6395C8.9742 21.7528 10.0456 21.7514 11.3832 21.7514L11.3182 20.2514ZM4.02812 14.1747C4.2295 15.5521 4.40039 16.9013 4.63949 17.9954C4.76009 18.5473 4.90456 19.0673 5.09301 19.5186C5.27987 19.9662 5.52944 20.3939 5.88479 20.7134L6.79349 19.5957C6.67794 19.4918 6.54326 19.3014 6.40579 18.9722C6.26991 18.6468 6.14996 18.2313 6.03936 17.7252C5.81603 16.7032 5.65727 15.4457 5.448 14.0143L4.02812 14.1747ZM18.7299 14.0143C18.6445 15.4457 18.5947 16.7032 18.4599 17.7252C18.3931 18.2313 18.3091 18.6468 18.2014 18.9722C18.0925 19.3014 17.9743 19.4918 17.8677 19.5957L18.8732 20.7134C19.2009 20.3939 19.4134 19.9662 19.5616 19.5186C19.7109 19.0673 19.8103 18.5473 19.8832 17.9954C20.0275 16.9013 20.0815 15.5521 20.1637 14.1747L18.7299 14.0143ZM13.4647 21.7514C14.8023 21.7514 15.8738 21.7528 16.7164 21.6395C17.5789 21.5234 18.2951 21.2772 18.8732 20.7134L17.8677 19.5957C17.5775 19.8788 17.181 20.0559 16.4698 20.1516C15.7388 20.25 14.7754 20.2514 13.3998 20.2514L13.4647 21.7514ZM10.5028 5.00146C10.4729 4.3111 10.9841 3.75146 11.6446 3.75146L11.5796 2.25146C10.1266 2.25146 9.00201 3.48268 9.06777 5.00146H10.5028ZM11.6446 3.75146C12.3051 3.75146 12.8647 4.3111 12.8946 5.00146H14.3296C14.2639 3.48268 13.0327 2.25146 11.5796 2.25146L11.6446 3.75146ZM20.243 9.00145C20.261 9.41566 19.9542 9.75145 19.558 9.75145L19.6229 11.2514C20.8117 11.2514 21.7319 10.244 21.6781 9.00145H20.243ZM18.808 9.00145C18.79 8.58724 19.0968 8.25145 19.493 8.25145L19.4281 6.75146C18.2393 6.75146 17.3191 7.75881 17.3729 9.00145H18.808ZM19.493 8.25145C19.8893 8.25145 20.2251 8.58724 20.243 9.00145H21.6781C21.6243 7.75881 20.6169 6.75146 19.4281 6.75146L19.493 8.25145ZM4.25075 9.75145C3.85448 9.75145 3.51869 9.41566 3.50075 9.00145H2.0657C2.1195 10.244 3.12687 11.2514 4.3157 11.2514L4.25075 9.75145ZM3.50075 9.00145C3.48282 8.58724 3.78953 8.25145 4.18581 8.25145L4.12086 6.75146C2.93202 6.75146 2.0119 7.75881 2.0657 9.00145H3.50075ZM4.18581 8.25145C4.58208 8.25145 4.91787 8.58724 4.93581 9.00145H6.37086C6.31705 7.75881 5.30969 6.75146 4.12086 6.75146L4.18581 8.25145ZM19.558 9.75145C19.5551 9.75145 19.5522 9.75143 19.5494 9.7514L19.5977 11.2512C19.6061 11.2513 19.6145 11.2514 19.6229 11.2514L19.558 9.75145ZM20.2653 12.47C20.292 12.0201 20.3156 11.6272 20.3236 11.2994C20.3315 10.9783 20.3264 10.6703 20.2803 10.4017L18.8666 10.6009C18.8854 10.7107 18.8949 10.8922 18.8876 11.1934C18.8803 11.4879 18.8589 11.85 18.8315 12.3096L20.2653 12.47ZM19.5494 9.7514C19.336 9.74882 19.1411 9.64972 19.0033 9.49127L17.9598 10.4718C18.3687 10.9419 18.956 11.2435 19.5977 11.2512L19.5494 9.7514ZM19.0033 9.49127C18.8886 9.35944 18.8161 9.18934 18.808 9.00145H17.3729C17.3972 9.56288 17.6172 10.0779 17.9598 10.4718L19.0033 9.49127ZM17.7321 11.7779C18.3511 11.1031 18.6701 10.763 18.8861 10.6197L18.077 9.34336C17.6865 9.60254 17.2268 10.1117 16.6734 10.7152L17.7321 11.7779ZM4.93581 9.00145C4.94394 9.18934 4.88614 9.35944 4.78289 9.49127L5.91128 10.4718C6.21982 10.0779 6.39517 9.56288 6.37086 9.00145H4.93581ZM7.21883 10.7152C6.61311 10.1117 6.10926 9.60254 5.69632 9.34336L4.99784 10.6197C5.22616 10.763 5.57474 11.1031 6.25209 11.7779L7.21883 10.7152ZM4.78289 9.49127C4.65878 9.64972 4.47252 9.74882 4.2594 9.7514L4.34094 11.2512C4.98195 11.2435 5.54315 10.9419 5.91128 10.4718L4.78289 9.49127ZM4.2594 9.7514C4.25651 9.75143 4.25363 9.75145 4.25075 9.75145L4.3157 11.2514C4.32413 11.2514 4.33255 11.2513 4.34094 11.2512L4.2594 9.7514ZM5.19877 12.3096C5.13158 11.85 5.07874 11.4879 5.04603 11.1934C5.01258 10.8922 5.00633 10.7107 5.01565 10.6009L3.58468 10.4017C3.56189 10.6703 3.58349 10.9783 3.61916 11.2994C3.65557 11.6272 3.71311 12.0201 3.7789 12.47L5.19877 12.3096ZM12.8946 5.00146C12.9156 5.4865 12.6697 5.90835 12.2892 6.11603L12.9993 7.45218C13.8307 6.9983 14.376 6.07199 14.3296 5.00146H12.8946ZM12.2892 6.11603C12.131 6.20241 11.9495 6.25146 11.7528 6.25146L11.8178 7.75145C12.2464 7.75145 12.6483 7.64375 12.9993 7.45218L12.2892 6.11603ZM13.8152 7.36153C13.6018 6.99166 13.4101 6.65892 13.2355 6.38666L12.0529 7.18155C12.2027 7.41517 12.3736 7.71093 12.5935 8.09216L13.8152 7.36153ZM11.7528 6.25146C11.5561 6.25146 11.3704 6.20241 11.2047 6.11603L10.6104 7.45218C10.9779 7.64375 11.3892 7.75145 11.8178 7.75145L11.7528 6.25146ZM11.2047 6.11603C10.8062 5.90835 10.5238 5.4865 10.5028 5.00146H9.06777C9.11412 6.07199 9.7396 6.9983 10.6104 7.45218L11.2047 6.11603ZM11.0716 8.09217C11.2584 7.71093 11.4037 7.41517 11.5333 7.18155L10.2818 6.38666C10.1309 6.65892 9.9679 6.99166 9.78658 7.36153L11.0716 8.09217Z" fill="#B79501"/>
<path d="M5.51743 17.001C5.24129 17.001 5.02712 17.2246 5.03906 17.5005C5.05101 17.7764 5.28455 18 5.56069 18L5.53906 17.5005L5.51743 17.001ZM18.9545 18C19.2307 18 19.4448 17.7764 19.4329 17.5005C19.4209 17.2246 19.1874 17.001 18.9113 17.001L18.9329 17.5005L18.9545 18ZM5.53906 17.5005L5.56069 18H18.9545L18.9329 17.5005L18.9113 17.001H5.51743L5.53906 17.5005Z" fill="#B79501"/>
</svg>
