<svg width="24" height="24" viewBox="0 0 24 24" fill="none" xmlns="http://www.w3.org/2000/svg">
<path d="M12.1484 19.35C11.7384 19.35 11.3984 19.01 11.3984 18.6V16.5C11.3984 16.09 11.7384 15.75 12.1484 15.75C12.5584 15.75 12.8984 16.09 12.8984 16.5V18.6C12.8984 19.01 12.5584 19.35 12.1484 19.35Z" fill="#292D32"/>
<path d="M17.8984 22.75H6.39844V21C6.39844 19.48 7.62844 18.25 9.14844 18.25H15.1484C16.6684 18.25 17.8984 19.48 17.8984 21V22.75ZM7.89844 21.25H16.3984V21C16.3984 20.31 15.8384 19.75 15.1484 19.75H9.14844C8.45844 19.75 7.89844 20.31 7.89844 21V21.25Z" fill="#292D32"/>
<path d="M18.1484 22.75H6.14844C5.73844 22.75 5.39844 22.41 5.39844 22C5.39844 21.59 5.73844 21.25 6.14844 21.25H18.1484C18.5584 21.25 18.8984 21.59 18.8984 22C18.8984 22.41 18.5584 22.75 18.1484 22.75Z" fill="#292D32"/>
<path d="M18.4268 12.4401C18.2168 12.4401 18.0068 12.3501 17.8568 12.1801C17.6668 11.9601 17.6168 11.6501 17.7368 11.3901C18.0768 10.6101 18.2468 9.78006 18.2468 8.91006V5.91006C18.2468 5.56006 18.1868 5.22006 18.0668 4.86006C18.0568 4.83006 18.0468 4.79006 18.0368 4.75006C18.0068 4.60006 17.9968 4.45006 17.9968 4.31006C17.9968 3.90006 18.3368 3.56006 18.7468 3.56006H19.3468C21.1368 3.56006 22.5968 5.06006 22.5968 6.91006C22.5968 8.44006 21.9668 9.95006 20.8768 11.0401C20.8568 11.0601 20.7968 11.1101 20.7868 11.1201C20.1968 11.6101 19.5268 12.1601 18.6268 12.4101C18.5568 12.4301 18.4968 12.4401 18.4268 12.4401ZM19.6768 5.09006C19.7268 5.36006 19.7468 5.64006 19.7468 5.91006V8.91006C19.7468 9.32006 19.7168 9.71006 19.6568 10.1101C19.7168 10.0601 19.7668 10.0201 19.8268 9.97006C20.6268 9.17006 21.0968 8.05006 21.0968 6.91006C21.0968 6.01006 20.4868 5.25006 19.6768 5.09006Z" fill="#292D32"/>
<path d="M5.57844 12.4001C5.49844 12.4001 5.42844 12.3901 5.34844 12.3601C4.52844 12.1001 3.75844 11.6201 3.11844 10.9801C1.96844 9.7101 1.39844 8.3201 1.39844 6.8501C1.39844 5.0301 2.82844 3.6001 4.64844 3.6001H5.29844C5.54844 3.6001 5.78844 3.7301 5.92844 3.9401C6.06844 4.1501 6.08844 4.4201 5.98844 4.6501C5.82844 5.0101 5.74844 5.4201 5.74844 5.8501V8.8501C5.74844 9.7101 5.91844 10.5501 6.26844 11.3501C6.38844 11.6201 6.32844 11.9301 6.13844 12.1501C5.98844 12.3101 5.78844 12.4001 5.57844 12.4001ZM4.29844 5.1301C3.48844 5.2901 2.89844 5.9901 2.89844 6.8501C2.89844 7.9401 3.33844 8.9901 4.20844 9.9501C4.24844 10.0001 4.29844 10.0401 4.34844 10.0801C4.27844 9.6701 4.24844 9.2601 4.24844 8.8501V5.8501C4.24844 5.6101 4.26844 5.3701 4.29844 5.1301Z" fill="#292D32"/>
<path d="M12 16.75C7.73 16.75 4.25 13.27 4.25 9V6C4.25 3.38 6.38 1.25 9 1.25H15C17.62 1.25 19.75 3.38 19.75 6V9C19.75 13.27 16.27 16.75 12 16.75ZM9 2.75C7.21 2.75 5.75 4.21 5.75 6V9C5.75 12.45 8.55 15.25 12 15.25C15.45 15.25 18.25 12.45 18.25 9V6C18.25 4.21 16.79 2.75 15 2.75H9Z" fill="#292D32"/>
</svg>
