<svg width="24" height="24" viewBox="0 0 24 24" fill="none" xmlns="http://www.w3.org/2000/svg">
<path d="M10.4338 18.3699C10.2838 18.3699 10.1438 18.3299 10.0138 18.2399C9.80382 18.0999 9.68382 17.8699 9.68382 17.6199C9.68382 17.4699 9.67382 17.3099 9.65382 17.1499C9.56382 16.4399 9.24382 15.8199 8.70382 15.2799C8.16382 14.7399 7.49382 14.3999 6.77382 14.3099C6.65382 14.2999 6.48382 14.2899 6.32382 14.2999C6.06382 14.3199 5.82382 14.2099 5.67382 13.9999C5.52382 13.7999 5.48382 13.5299 5.56382 13.2899C5.71382 12.8799 5.93382 12.5099 6.19382 12.2099L7.73382 10.2699C10.3838 6.95992 15.7538 2.97992 19.6838 1.39992C20.5238 1.07992 21.4038 1.26992 22.0138 1.86992C22.6438 2.49992 22.8338 3.39992 22.5038 4.21992C20.9238 8.15992 16.9538 13.5199 13.6438 16.1699L11.6738 17.7499C11.3038 18.0199 11.0038 18.1899 10.7038 18.3099C10.6238 18.3499 10.5238 18.3699 10.4338 18.3699ZM7.54382 12.9399C8.38382 13.1599 9.13382 13.5999 9.76382 14.2299C10.3938 14.8499 10.8138 15.5699 11.0238 16.3699L12.7138 15.0099C15.8538 12.4999 19.6238 7.40992 21.1138 3.66992C21.2638 3.29992 21.0538 3.03992 20.9538 2.94992C20.8838 2.87992 20.6238 2.65992 20.2238 2.80992C16.5038 4.30992 11.4138 8.07992 8.89382 11.2199L7.54382 12.9399Z" fill="#292D32"/>
<path d="M4.08328 22.7501C3.33328 22.7501 2.61328 22.4501 2.07328 21.9101C1.45328 21.2901 1.15328 20.4301 1.25328 19.5501L1.52328 17.0901C1.78328 14.6501 3.78328 12.8401 6.26328 12.7901C6.45328 12.7801 6.70328 12.7901 6.93328 12.8101C8.02328 12.9501 8.99329 13.4401 9.77328 14.2201C10.5433 14.9901 11.0033 15.9101 11.1433 16.9401C11.1733 17.1601 11.1933 17.4001 11.1933 17.6101C11.1933 18.9301 10.6833 20.1601 9.76328 21.0901C8.99328 21.8501 8.00328 22.3201 6.88328 22.4601L4.41328 22.7301C4.30328 22.7401 4.19328 22.7501 4.08328 22.7501ZM6.45328 14.3001C6.41328 14.3001 6.36328 14.3001 6.32328 14.3001C4.81328 14.3301 3.21328 15.3601 3.01328 17.2601L2.74328 19.7201C2.69328 20.1401 2.84328 20.5501 3.13328 20.8501C3.42328 21.1401 3.83328 21.2901 4.24328 21.2401L6.70328 20.9701C7.47328 20.8701 8.16328 20.5501 8.68328 20.0301C9.32329 19.3901 9.68328 18.5301 9.68328 17.6101C9.68328 17.4601 9.67328 17.3001 9.65328 17.1401C9.56328 16.4301 9.24328 15.8101 8.70328 15.2701C8.16328 14.7301 7.49328 14.3901 6.77328 14.3001C6.69328 14.3001 6.57328 14.3001 6.45328 14.3001Z" fill="#292D32"/>
<path d="M14.2378 15.2202C13.8278 15.2202 13.4878 14.8802 13.4878 14.4702C13.4878 12.2702 11.6978 10.4902 9.50781 10.4902C9.09781 10.4902 8.75781 10.1502 8.75781 9.74023C8.75781 9.33023 9.08781 8.99023 9.49781 8.99023C12.5178 8.99023 14.9778 11.4502 14.9778 14.4702C14.9878 14.8902 14.6478 15.2202 14.2378 15.2202Z" fill="#292D32"/>
<path d="M15.6784 22.7302C14.7484 22.7302 13.8184 22.2902 12.9284 21.4002C12.6384 21.1102 12.6384 20.6302 12.9284 20.3402C13.2184 20.0502 13.6984 20.0502 13.9884 20.3402C15.1684 21.5202 16.1784 21.5202 17.3584 20.3402L20.3184 17.3802C21.5084 16.1902 21.5084 15.1802 20.3184 14.0002L19.5784 13.2702C19.2884 12.9802 19.2784 12.5002 19.5684 12.2102C19.8584 11.9102 20.3384 11.9102 20.6284 12.2002L21.3684 12.9302C23.1484 14.7102 23.1484 16.6602 21.3684 18.4402L18.4084 21.4002C17.5384 22.2802 16.6084 22.7302 15.6784 22.7302Z" fill="#292D32"/>
<path d="M3.10781 11.2598C2.91781 11.2598 2.71781 11.1898 2.57781 11.0398C0.817812 9.26977 0.817812 7.30977 2.57781 5.53977L5.53781 2.57977C7.29781 0.819766 9.27781 0.819766 11.0378 2.57977L11.7778 3.31977C12.0678 3.60977 12.0678 4.08977 11.7778 4.37977C11.4878 4.66977 11.0078 4.66977 10.7178 4.37977L9.96781 3.63977C8.78781 2.45977 7.76781 2.45977 6.59781 3.63977L3.63781 6.59977C2.45781 7.78977 2.45781 8.79977 3.63781 9.98977C3.92781 10.2798 3.92781 10.7598 3.63781 11.0498C3.48781 11.1898 3.29781 11.2598 3.10781 11.2598Z" fill="#292D32"/>
<path d="M7.55219 8.30004C7.36219 8.30004 7.17219 8.23004 7.02219 8.08004C6.73219 7.79004 6.73219 7.31004 7.02219 7.02004L10.7222 3.32004C11.0122 3.03004 11.4922 3.03004 11.7822 3.32004C12.0722 3.61004 12.0722 4.09004 11.7822 4.38004L8.08219 8.08004C7.93219 8.23004 7.74219 8.30004 7.55219 8.30004Z" fill="#292D32"/>
<path d="M17.1616 16.4302C16.9716 16.4302 16.7816 16.3602 16.6316 16.2102C16.3416 15.9202 16.3416 15.4402 16.6316 15.1502L19.5916 12.1902C19.8816 11.9002 20.3616 11.9002 20.6516 12.1902C20.9416 12.4802 20.9416 12.9602 20.6516 13.2502L17.6916 16.2102C17.5516 16.3602 17.3616 16.4302 17.1616 16.4302Z" fill="#292D32"/>
</svg>
