<svg width="24" height="24" viewBox="0 0 24 24" fill="none" xmlns="http://www.w3.org/2000/svg">
<path d="M11.9969 19.4201C10.4569 19.4201 8.91687 18.8301 7.74687 17.6601C5.39688 15.3101 5.39688 11.5001 7.74687 9.15015C8.88687 8.01015 10.3969 7.39014 11.9969 7.39014C13.5969 7.39014 15.1169 8.02015 16.2469 9.15015C18.5969 11.5001 18.5969 15.3101 16.2469 17.6601C15.0769 18.8301 13.5369 19.4201 11.9969 19.4201ZM11.9969 8.90015C10.7969 8.90015 9.65687 9.37009 8.80687 10.2201C7.04687 11.9801 7.04687 14.8401 8.80687 16.6001C10.5669 18.3601 13.4269 18.3501 15.1869 16.6001C16.9469 14.8401 16.9469 11.9801 15.1869 10.2201C14.3369 9.37009 13.1969 8.90015 11.9969 8.90015Z" fill="#292D32"/>
<path d="M10.4116 15.7498C10.2216 15.7498 10.0216 15.6799 9.88156 15.5299C9.59156 15.2399 9.59156 14.7599 9.88156 14.4599L11.4716 12.8698C11.7616 12.5798 12.2416 12.5798 12.5416 12.8698C12.8316 13.1598 12.8316 13.6399 12.5416 13.9399L10.9516 15.5299C10.7916 15.6799 10.6016 15.7498 10.4116 15.7498Z" fill="#292D32"/>
<path d="M18.7909 7.51001C18.5509 7.51001 18.3309 7.42 18.1609 7.25C17.8109 6.9 17.8109 6.32999 18.1609 5.98999C18.3309 5.81999 18.5509 5.72998 18.7909 5.72998C19.0309 5.72998 19.2509 5.81999 19.4209 5.98999C19.5909 6.15999 19.6809 6.38 19.6809 6.62C19.6809 6.86 19.5909 7.08 19.4209 7.25C19.2609 7.42 19.0309 7.51001 18.7909 7.51001ZM18.7209 6.53998V6.69C18.7409 6.71 18.7709 6.71997 18.8009 6.71997C18.9209 6.64997 18.9209 6.57998 18.8709 6.53998H18.7209Z" fill="#292D32"/>
<path d="M18.7884 7.75977C18.4784 7.75977 18.1984 7.63974 17.9784 7.41974C17.5384 6.97974 17.5384 6.24974 17.9784 5.79974C18.1984 5.57974 18.4784 5.46973 18.7884 5.46973C19.0984 5.46973 19.3784 5.58975 19.5984 5.80975C19.8184 6.02975 19.9284 6.30975 19.9284 6.61975C19.9284 6.92975 19.8084 7.20975 19.5884 7.42975C19.3884 7.63975 19.0984 7.75977 18.7884 7.75977ZM18.5384 6.86975C18.6084 6.93975 18.6984 6.96973 18.7884 6.96973C18.8784 6.96973 18.9684 6.92975 19.0384 6.86975C19.1784 6.72975 19.1784 6.50975 19.0384 6.36975C18.9084 6.23975 18.6684 6.23975 18.5384 6.36975C18.4784 6.42975 18.4384 6.51975 18.4384 6.61975C18.4384 6.70975 18.4684 6.79975 18.5384 6.86975Z" fill="#292D32"/>
<path d="M5.2103 21.0901C4.9803 21.0901 4.75029 21.0001 4.58029 20.8301C4.41029 20.6601 4.32031 20.4301 4.32031 20.2001C4.32031 19.9601 4.41029 19.7401 4.58029 19.5701C4.75029 19.4001 4.9703 19.3101 5.2103 19.3101C5.4503 19.3101 5.6703 19.4001 5.8403 19.5701C6.1903 19.9201 6.1903 20.4901 5.8403 20.8301C5.6703 21.0001 5.4403 21.0901 5.2103 21.0901ZM5.19031 20.1C5.17031 20.1 5.15031 20.1101 5.13031 20.1301C5.09031 20.1701 5.09031 20.2401 5.13031 20.2801C5.15031 20.3001 5.18032 20.3101 5.20032 20.3101L5.30029 20.2101C5.27029 20.1201 5.23031 20.1 5.19031 20.1Z" fill="#292D32"/>
<path d="M5.21249 21.3401C4.92249 21.3401 4.6225 21.2301 4.4025 21.0101C4.1825 20.7901 4.0625 20.5001 4.0625 20.2001C4.0625 19.8901 4.1825 19.6101 4.4025 19.3901C4.6125 19.1801 4.90249 19.0601 5.21249 19.0601C5.52249 19.0601 5.80249 19.1801 6.02249 19.4001C6.47249 19.8501 6.47249 20.5701 6.02249 21.0201C5.80249 21.2301 5.50249 21.3401 5.21249 21.3401ZM5.21249 19.8401C5.12249 19.8401 5.03249 19.8701 4.96249 19.9401C4.82249 20.0801 4.82249 20.3001 4.96249 20.4401C5.03249 20.5101 5.12249 20.54 5.21249 20.54C5.30249 20.54 5.40249 20.5001 5.46249 20.4301C5.52249 20.3701 5.5625 20.2801 5.5625 20.1801C5.5625 20.0901 5.52249 19.9901 5.46249 19.9301C5.39249 19.8801 5.30249 19.8401 5.21249 19.8401Z" fill="#292D32"/>
<path d="M21.6034 14.2997C21.3734 14.2997 21.1434 14.2097 20.9734 14.0397C20.6234 13.6897 20.6234 13.1198 20.9734 12.7698C21.1434 12.5998 21.3734 12.5598 21.6034 12.5098C21.8434 12.5098 22.0634 12.5998 22.2334 12.7698C22.5834 13.1198 22.5834 13.6897 22.2334 14.0397C22.0634 14.2097 21.8334 14.2997 21.6034 14.2997ZM21.5334 13.4797C21.5534 13.4997 21.5834 13.5098 21.6134 13.5098C21.7234 13.4398 21.7234 13.3698 21.6834 13.3298C21.6434 13.2898 21.5734 13.2898 21.5334 13.3298C21.4934 13.3698 21.4934 13.4397 21.5334 13.4797Z" fill="#292D32"/>
<path d="M21.6006 14.5497C21.3106 14.5497 21.0106 14.4397 20.7906 14.2197C20.3406 13.7697 20.3406 13.0497 20.7906 12.5997C21.0106 12.3797 21.2906 12.2598 21.6006 12.2598C21.9106 12.2598 22.1906 12.3797 22.4106 12.5997C22.8606 13.0497 22.8606 13.7697 22.4106 14.2197C22.1906 14.4397 21.9006 14.5497 21.6006 14.5497ZM21.3506 13.6597C21.4206 13.7297 21.5106 13.7598 21.6006 13.7598C21.6906 13.7598 21.7806 13.7197 21.8506 13.6597C21.9906 13.5197 21.9906 13.2997 21.8506 13.1597C21.7106 13.0197 21.4906 13.0197 21.3506 13.1597C21.2206 13.2897 21.2106 13.5197 21.3506 13.6597Z" fill="#292D32"/>
<path d="M2.40032 14.3003C2.17032 14.3003 1.94031 14.2103 1.77031 14.0403C1.42031 13.6903 1.42031 13.1203 1.77031 12.7703C2.12031 12.4203 2.69033 12.4203 3.04033 12.7703C3.39033 13.1203 3.39033 13.6903 3.04033 14.0403C2.85033 14.2103 2.62032 14.3003 2.40032 14.3003ZM2.32033 13.4803C2.36033 13.5203 2.43032 13.5203 2.47032 13.4803C2.51032 13.4403 2.51032 13.3703 2.47032 13.3303C2.43032 13.2903 2.36033 13.2903 2.32033 13.3303C2.28033 13.3703 2.28033 13.4403 2.32033 13.4803Z" fill="#292D32"/>
<path d="M2.3975 14.5499C2.1075 14.5499 1.8075 14.4399 1.5875 14.2199C1.1375 13.7699 1.1375 13.0499 1.5875 12.5999C2.0375 12.1499 2.7675 12.1599 3.2075 12.5999C3.6575 13.0499 3.6575 13.7699 3.2075 14.2199C2.9775 14.4399 2.6875 14.5499 2.3975 14.5499ZM2.13752 13.6599C2.27752 13.7999 2.49752 13.7999 2.63752 13.6599C2.77752 13.5199 2.77752 13.2899 2.63752 13.1599C2.49752 13.0199 2.27752 13.0199 2.13752 13.1599C2.00752 13.2899 2.00752 13.5199 2.13752 13.6599Z" fill="#292D32"/>
<path d="M18.7909 21.0899C18.5609 21.0899 18.3309 20.9999 18.1609 20.8299C17.8109 20.4799 17.8109 19.9099 18.1609 19.5599C18.5109 19.2099 19.0809 19.2099 19.4309 19.5599C19.6009 19.7299 19.6909 19.9499 19.6909 20.1899C19.6909 20.4299 19.6009 20.6499 19.4309 20.8199C19.2509 20.9999 19.0209 21.0899 18.7909 21.0899ZM18.7909 20.0899C18.7609 20.0899 18.7409 20.0999 18.7209 20.1199V20.2699C18.7609 20.3099 18.8309 20.3099 18.8709 20.2699C18.9109 20.2299 18.9109 20.1599 18.8709 20.1199C18.8409 20.0999 18.8209 20.0899 18.7909 20.0899Z" fill="#292D32"/>
<path d="M18.7881 21.3402C18.4981 21.3402 18.1981 21.2302 17.9781 21.0102C17.5281 20.5602 17.5281 19.8402 17.9781 19.3902C18.4281 18.9402 19.1481 18.9402 19.5981 19.3902C19.8181 19.6102 19.9381 19.8902 19.9381 20.2002C19.9381 20.5102 19.8181 20.7902 19.5981 21.0102C19.3781 21.2302 19.0781 21.3402 18.7881 21.3402ZM18.5381 20.4502C18.6781 20.5902 18.8981 20.5902 19.0381 20.4502C19.1781 20.3102 19.1781 20.0902 19.0381 19.9502C18.8981 19.8102 18.6781 19.8102 18.5381 19.9502C18.4681 20.0202 18.4381 20.1102 18.4381 20.2002C18.4381 20.2902 18.4681 20.3802 18.5381 20.4502Z" fill="#292D32"/>
<path d="M5.2103 7.51001C4.9703 7.51001 4.75029 7.42 4.58029 7.25C4.41029 7.08 4.32031 6.86 4.32031 6.62C4.32031 6.38 4.41029 6.15999 4.58029 5.98999C4.75029 5.81999 4.9703 5.72998 5.2103 5.72998C5.4503 5.72998 5.6703 5.81999 5.8403 5.98999C6.1903 6.33999 6.1903 6.91001 5.8403 7.26001C5.6703 7.42001 5.4503 7.51001 5.2103 7.51001ZM5.13031 6.69C5.15031 6.71 5.18032 6.71997 5.20032 6.71997L5.30029 6.62L5.20032 6.52002C5.09032 6.58002 5.09031 6.65 5.13031 6.69Z" fill="#292D32"/>
<path d="M5.2103 7.75977C4.9003 7.75977 4.6203 7.63974 4.4003 7.41974C4.1903 7.20974 4.07031 6.91974 4.07031 6.60974C4.07031 6.29974 4.19031 6.01974 4.41031 5.79974C4.62031 5.58974 4.91031 5.46973 5.22031 5.46973C5.53031 5.46973 5.8103 5.58975 6.0303 5.80975C6.4703 6.25975 6.4703 6.97975 6.0303 7.42975C5.8003 7.63975 5.5203 7.75977 5.2103 7.75977ZM4.9603 6.86975C5.0303 6.93975 5.1203 6.97974 5.2103 6.97974C5.3003 6.97974 5.3903 6.93976 5.4603 6.87976C5.5303 6.81976 5.5603 6.71976 5.5603 6.62976C5.5603 6.53976 5.52032 6.43976 5.45032 6.37976C5.33032 6.24976 5.08032 6.24976 4.95032 6.37976C4.82032 6.49976 4.8203 6.72975 4.9603 6.86975Z" fill="#292D32"/>
<path d="M11.9994 4.7C11.7594 4.7 11.5394 4.60999 11.3694 4.43999C11.1994 4.26999 11.1094 4.04999 11.1094 3.80999C11.1094 3.56999 11.1994 3.34998 11.3694 3.17998C11.7194 2.82998 12.2894 2.82998 12.6394 3.17998C12.9894 3.52998 12.9894 4.09999 12.6394 4.43999C12.4694 4.59999 12.2394 4.7 11.9994 4.7ZM12.0694 3.72997L11.9194 3.87999C11.9594 3.91999 12.0294 3.91999 12.0694 3.87999V3.72997ZM11.9294 3.72997C11.8894 3.76997 11.8894 3.83999 11.9294 3.87999L12.0794 3.72997H11.9294Z" fill="#292D32"/>
<path d="M11.9994 4.94987C11.6894 4.94987 11.4094 4.82984 11.1894 4.60984C10.9794 4.39984 10.8594 4.10984 10.8594 3.79984C10.8594 3.48984 10.9794 3.20984 11.1994 2.98984C11.6494 2.53984 12.3694 2.53984 12.8194 2.98984C13.2594 3.43984 13.2594 4.15984 12.8194 4.60984C12.5994 4.82984 12.3094 4.94987 11.9994 4.94987ZM12.2494 3.54984L11.7494 4.04984C11.8894 4.18984 12.1094 4.18984 12.2494 4.04984C12.3194 3.97984 12.3494 3.88984 12.3494 3.79984C12.3494 3.70984 12.3194 3.61984 12.2494 3.54984ZM11.9994 3.44987C11.9094 3.44987 11.8094 3.48985 11.7494 3.55985C11.6094 3.69985 11.6094 3.91985 11.7494 4.05985L12.2494 3.55985C12.1894 3.48985 12.0994 3.44987 11.9994 3.44987Z" fill="#292D32"/>
</svg>
