<svg width="24" height="24" viewBox="0 0 24 24" fill="none" xmlns="http://www.w3.org/2000/svg">
<path d="M11.9979 21.7498C10.5279 21.7498 9.1879 20.9398 8.5079 19.6398L2.4079 8.04981C1.5879 6.49981 1.8579 4.69981 3.0779 3.44981C4.29789 2.19981 6.0979 1.89981 7.6579 2.67981L10.8979 4.29981C11.5779 4.63981 12.3979 4.63981 13.0879 4.29981L16.3279 2.67981C17.8979 1.89981 19.6979 2.19981 20.9179 3.44981C22.1379 4.69981 22.4079 6.49981 21.5879 8.04981L15.4879 19.6398C14.8079 20.9398 13.4679 21.7498 11.9979 21.7498ZM5.8779 3.74981C5.1679 3.74981 4.5479 4.08981 4.1479 4.49981C3.5479 5.11981 3.1179 6.18981 3.7279 7.34981L9.8279 18.9398C10.2579 19.7598 11.0679 20.2498 11.9879 20.2498C12.9079 20.2498 13.7179 19.7598 14.1479 18.9398L20.2479 7.34981C20.8579 6.18981 20.4379 5.10981 19.8279 4.49981C19.2279 3.88981 18.1679 3.43981 16.9879 4.01981L13.7479 5.63981C12.6379 6.18981 11.3279 6.18981 10.2179 5.63981L6.9879 4.01981C6.60789 3.82981 6.2279 3.74981 5.8779 3.74981Z" fill="#292D32"/>
</svg>
