<svg width="24" height="24" viewBox="0 0 24 24" fill="none" xmlns="http://www.w3.org/2000/svg">
<path d="M15 22.75H9C3.57 22.75 1.25 20.43 1.25 15V9C1.25 3.57 3.57 1.25 9 1.25H15C20.43 1.25 22.75 3.57 22.75 9V15C22.75 20.43 20.43 22.75 15 22.75ZM9 2.75C4.39 2.75 2.75 4.39 2.75 9V15C2.75 19.61 4.39 21.25 9 21.25H15C19.61 21.25 21.25 19.61 21.25 15V9C21.25 4.39 19.61 2.75 15 2.75H9Z" fill="#292D32"/>
<path d="M13.7622 17.75H10.2322C9.13219 17.75 8.26219 17.21 7.77219 16.23L6.88219 14.44C6.67219 14.01 6.24219 13.75 5.76219 13.75H1.99219C1.58219 13.75 1.24219 13.41 1.24219 13C1.24219 12.59 1.59219 12.25 2.00219 12.25H5.76219C6.81219 12.25 7.75219 12.83 8.22219 13.77L9.11219 15.56C9.34219 16.02 9.71219 16.25 10.2322 16.25H13.7622C14.2422 16.25 14.6722 15.99 14.8822 15.56L15.7722 13.77C16.2422 12.83 17.1822 12.25 18.2322 12.25H21.9722C22.3822 12.25 22.7222 12.59 22.7222 13C22.7222 13.41 22.3822 13.75 21.9722 13.75H18.2322C17.7522 13.75 17.3222 14.01 17.1122 14.44L16.2222 16.23C15.7522 17.17 14.8122 17.75 13.7622 17.75Z" fill="#292D32"/>
<path d="M13.6681 7.75H10.3381C9.91813 7.75 9.57812 7.41 9.57812 7C9.57812 6.59 9.91813 6.25 10.3281 6.25H13.6581C14.0681 6.25 14.4081 6.59 14.4081 7C14.4081 7.41 14.0781 7.75 13.6681 7.75Z" fill="#292D32"/>
<path d="M14.5 10.75H9.5C9.09 10.75 8.75 10.41 8.75 10C8.75 9.59 9.09 9.25 9.5 9.25H14.5C14.91 9.25 15.25 9.59 15.25 10C15.25 10.41 14.91 10.75 14.5 10.75Z" fill="#292D32"/>
</svg>
