<svg width="24" height="24" viewBox="0 0 24 24" fill="none" xmlns="http://www.w3.org/2000/svg">
<path d="M6.18883 22.0598C5.18883 22.0598 4.21883 21.6698 3.44883 20.9198C2.19883 19.6998 1.89883 17.8998 2.67883 16.3398L4.29883 13.0998C4.63883 12.4198 4.63883 11.5998 4.29883 10.9098L2.67883 7.65985C1.89883 6.09985 2.19883 4.29985 3.44883 3.07985C4.69883 1.85985 6.49883 1.58985 8.04883 2.40985L19.6388 8.50985C20.9388 9.18985 21.7488 10.5298 21.7488 11.9998C21.7488 13.4698 20.9388 14.8098 19.6388 15.4898L8.04883 21.5898C7.44883 21.9098 6.81883 22.0598 6.18883 22.0598ZM6.19883 3.43985C5.50883 3.43985 4.90883 3.75985 4.49883 4.15985C3.87883 4.75985 3.43883 5.82985 4.01883 6.99985L5.63883 10.2398C6.18883 11.3498 6.18883 12.6598 5.63883 13.7698L4.01883 17.0098C3.42883 18.1798 3.87883 19.2498 4.49883 19.8498C5.11883 20.4498 6.18883 20.8798 7.34883 20.2698L18.9388 14.1698C19.7588 13.7398 20.2488 12.9298 20.2488 12.0098C20.2488 11.0898 19.7588 10.2798 18.9388 9.84985L7.34883 3.72985C6.94883 3.51985 6.55883 3.43985 6.19883 3.43985Z" fill="#292D32"/>
</svg>
