<svg width="24" height="24" viewBox="0 0 24 24" fill="none" xmlns="http://www.w3.org/2000/svg">
<path d="M12 9.75C11.9 9.75 11.81 9.73 11.71 9.69C11.43 9.58 11.25 9.3 11.25 9V2C11.25 1.59 11.59 1.25 12 1.25C12.41 1.25 12.75 1.59 12.75 2V7.19L13.47 6.47C13.76 6.18 14.24 6.18 14.53 6.47C14.82 6.76 14.82 7.24 14.53 7.53L12.53 9.53C12.39 9.67 12.2 9.75 12 9.75Z" fill="#292D32"/>
<path d="M11.9975 9.74994C11.8075 9.74994 11.6175 9.67994 11.4675 9.52994L9.4675 7.52994C9.1775 7.23994 9.1775 6.75994 9.4675 6.46994C9.7575 6.17994 10.2375 6.17994 10.5275 6.46994L12.5275 8.46994C12.8175 8.75994 12.8175 9.23994 12.5275 9.52994C12.3775 9.67994 12.1875 9.74994 11.9975 9.74994Z" fill="#292D32"/>
<path d="M13.7566 17.75H10.2266C9.17656 17.75 8.23656 17.17 7.76656 16.23L6.59656 13.89C6.55656 13.8 6.46656 13.75 6.37656 13.75H1.97656C1.56656 13.75 1.22656 13.41 1.22656 13C1.22656 12.59 1.56656 12.25 1.97656 12.25H6.38656C7.05656 12.25 7.65656 12.62 7.95656 13.22L9.12656 15.56C9.33656 15.99 9.76656 16.25 10.2466 16.25H13.7766C14.2566 16.25 14.6866 15.99 14.8966 15.56L16.0666 13.22C16.3666 12.62 16.9666 12.25 17.6366 12.25H21.9966C22.4066 12.25 22.7466 12.59 22.7466 13C22.7466 13.41 22.4066 13.75 21.9966 13.75H17.6366C17.5366 13.75 17.4566 13.8 17.4166 13.89L16.2466 16.23C15.7466 17.17 14.8066 17.75 13.7566 17.75Z" fill="#292D32"/>
<path d="M15 22.7499H9C3.57 22.7499 1.25 20.4299 1.25 14.9999V10.9999C1.25 6.30993 2.99 3.95993 6.89 3.38993C7.31 3.32993 7.68 3.60993 7.74 4.01993C7.8 4.42993 7.52 4.80993 7.11 4.86993C3.97 5.32993 2.75 7.04993 2.75 10.9999V14.9999C2.75 19.6099 4.39 21.2499 9 21.2499H15C19.61 21.2499 21.25 19.6099 21.25 14.9999V10.9999C21.25 7.04993 20.03 5.32993 16.89 4.86993C16.48 4.80993 16.2 4.42993 16.26 4.01993C16.32 3.60993 16.7 3.32993 17.11 3.38993C21.01 3.95993 22.75 6.30993 22.75 10.9999V14.9999C22.75 20.4299 20.43 22.7499 15 22.7499Z" fill="#292D32"/>
</svg>
