<svg width="24" height="24" viewBox="0 0 24 24" fill="none" xmlns="http://www.w3.org/2000/svg">
<path d="M18.1179 21.75C17.5179 21.75 16.9079 21.61 16.3279 21.32L13.0879 19.7C12.4079 19.36 11.5879 19.36 10.8979 19.7L7.6579 21.32C6.0979 22.1 4.29789 21.8 3.0779 20.55C1.8579 19.3 1.5879 17.5 2.4079 15.95L8.5079 4.36C9.1879 3.06 10.5279 2.25 11.9979 2.25C13.4679 2.25 14.8079 3.06 15.4879 4.36L21.5879 15.95C22.3979 17.5 22.1379 19.3 20.9179 20.55C20.1479 21.34 19.1479 21.75 18.1179 21.75ZM11.9979 17.94C12.6079 17.94 13.2079 18.08 13.7579 18.35L16.9979 19.97C18.1679 20.56 19.2379 20.11 19.8379 19.49C20.4379 18.87 20.8679 17.8 20.2579 16.64L14.1579 5.05C13.7279 4.24 12.9179 3.75 11.9979 3.75C11.0779 3.75 10.2679 4.24 9.8379 5.06L3.7379 16.65C3.1279 17.81 3.54789 18.89 4.15789 19.5C4.76789 20.11 5.8279 20.56 6.9979 19.98L10.2379 18.36C10.7879 18.08 11.3879 17.94 11.9979 17.94Z" fill="#292D32"/>
</svg>
