<svg width="24" height="24" viewBox="0 0 24 24" fill="none" xmlns="http://www.w3.org/2000/svg">
<path d="M4.91121 22.8198C3.82121 22.8198 2.89121 22.4698 2.21121 21.7898C1.24121 20.8198 0.941215 19.3398 1.37121 17.6198L3.85121 7.68977C4.28121 5.96977 5.96121 4.29977 7.67121 3.86977L17.6012 1.38977C19.3212 0.959769 20.8012 1.25977 21.7712 2.22977C22.7412 3.19977 23.0412 4.67977 22.6112 6.39977L20.1312 16.3298C19.7012 18.0498 18.0212 19.7198 16.3112 20.1498L6.38121 22.6298C5.87121 22.7498 5.38121 22.8198 4.91121 22.8198ZM17.9812 2.82977L8.05121 5.31977C6.88121 5.60977 5.61121 6.87977 5.31121 8.04977L2.83121 17.9798C2.53121 19.1698 2.69121 20.1398 3.27121 20.7298C3.85121 21.3098 4.83121 21.4698 6.02121 21.1698L15.9512 18.6898C17.1212 18.3998 18.3912 17.1198 18.6812 15.9598L21.1612 6.02977C21.4612 4.83977 21.3012 3.86977 20.7212 3.27977C20.1412 2.68977 19.1712 2.53977 17.9812 2.82977Z" fill="#292D32"/>
<path d="M12 16.25C9.66 16.25 7.75 14.34 7.75 12C7.75 9.66 9.66 7.75 12 7.75C14.34 7.75 16.25 9.66 16.25 12C16.25 14.34 14.34 16.25 12 16.25ZM12 9.25C10.48 9.25 9.25 10.48 9.25 12C9.25 13.52 10.48 14.75 12 14.75C13.52 14.75 14.75 13.52 14.75 12C14.75 10.48 13.52 9.25 12 9.25Z" fill="#292D32"/>
</svg>
