<svg width="24" height="24" viewBox="0 0 24 24" fill="none" xmlns="http://www.w3.org/2000/svg">
<path d="M16 22.75H8C4.35 22.75 2.25 20.65 2.25 17V7C2.25 3.35 4.35 1.25 8 1.25H16C19.65 1.25 21.75 3.35 21.75 7V17C21.75 20.65 19.65 22.75 16 22.75ZM8 2.75C5.14 2.75 3.75 4.14 3.75 7V17C3.75 19.86 5.14 21.25 8 21.25H16C18.86 21.25 20.25 19.86 20.25 17V7C20.25 4.14 18.86 2.75 16 2.75H8Z" fill="#292D32"/>
<path d="M18.5 9.25H16.5C14.98 9.25 13.75 8.02 13.75 6.5V4.5C13.75 4.09 14.09 3.75 14.5 3.75C14.91 3.75 15.25 4.09 15.25 4.5V6.5C15.25 7.19 15.81 7.75 16.5 7.75H18.5C18.91 7.75 19.25 8.09 19.25 8.5C19.25 8.91 18.91 9.25 18.5 9.25Z" fill="#292D32"/>
<path d="M10.2728 18.72C9.39278 18.7 7.38278 17.63 6.77278 15.72C6.34278 14.39 6.84279 12.6301 8.38279 12.1301C9.04279 11.9201 9.7228 12.0101 10.2628 12.3501C10.8028 12.0101 11.4928 11.9201 12.1628 12.1301C13.7028 12.6301 14.2028 14.38 13.7928 15.72C13.1728 17.7 11.0428 18.72 10.2728 18.72ZM8.2028 15.2601C8.6228 16.5501 10.0528 17.19 10.3128 17.22C10.5828 17.19 11.9828 16.5001 12.3628 15.2601C12.5628 14.6001 12.3528 13.7601 11.7028 13.5501C11.4428 13.4701 11.0728 13.5101 10.9028 13.7701C10.7728 13.9801 10.5328 14.1101 10.2928 14.1101C10.0028 14.1101 9.81279 14.0001 9.66279 13.7901C9.46279 13.5101 9.10279 13.4701 8.84279 13.5501C8.20279 13.7601 7.9928 14.6101 8.2028 15.2601Z" fill="#292D32"/>
</svg>
