<svg width="24" height="24" viewBox="0 0 24 24" fill="none" xmlns="http://www.w3.org/2000/svg">
<path d="M8.99852 17.75C8.80852 17.75 8.61852 17.68 8.46852 17.53L6.46852 15.53C6.25852 15.32 6.18852 14.99 6.30852 14.71C6.42852 14.43 6.69852 14.25 6.99852 14.25H12.9985C13.4085 14.25 13.7485 14.59 13.7485 15C13.7485 15.41 13.4085 15.75 12.9985 15.75H8.80852L9.52852 16.47C9.81852 16.76 9.81852 17.24 9.52852 17.53C9.37852 17.68 9.18852 17.75 8.99852 17.75Z" fill="#292D32"/>
<path d="M6.9975 15.7499C6.8075 15.7499 6.6175 15.6799 6.4675 15.5299C6.1775 15.2399 6.1775 14.7599 6.4675 14.4699L8.4675 12.4699C8.7575 12.1799 9.2375 12.1799 9.5275 12.4699C9.8175 12.7599 9.8175 13.2399 9.5275 13.5299L7.5275 15.5299C7.3775 15.6799 7.1875 15.7499 6.9975 15.7499Z" fill="#292D32"/>
<path d="M15 22.75H9C3.57 22.75 1.25 20.43 1.25 15V9C1.25 3.57 3.57 1.25 9 1.25H14C14.41 1.25 14.75 1.59 14.75 2C14.75 2.41 14.41 2.75 14 2.75H9C4.39 2.75 2.75 4.39 2.75 9V15C2.75 19.61 4.39 21.25 9 21.25H15C19.61 21.25 21.25 19.61 21.25 15V10C21.25 9.59 21.59 9.25 22 9.25C22.41 9.25 22.75 9.59 22.75 10V15C22.75 20.43 20.43 22.75 15 22.75Z" fill="#292D32"/>
<path d="M22 10.75H18C14.58 10.75 13.25 9.41999 13.25 5.99999V1.99999C13.25 1.69999 13.43 1.41999 13.71 1.30999C13.99 1.18999 14.31 1.25999 14.53 1.46999L22.53 9.46999C22.74 9.67999 22.81 10.01 22.69 10.29C22.57 10.57 22.3 10.75 22 10.75ZM14.75 3.80999V5.99999C14.75 8.57999 15.42 9.24999 18 9.24999H20.19L14.75 3.80999Z" fill="#292D32"/>
</svg>
