<svg width="24" height="24" viewBox="0 0 24 24" fill="none" xmlns="http://www.w3.org/2000/svg">
<path d="M5.53803 19.5201C4.92803 19.5201 4.35803 19.31 3.94803 18.92C3.42803 18.43 3.17803 17.69 3.26803 16.89L3.63803 13.65C3.70803 13.04 4.07803 12.23 4.50803 11.79L12.718 3.10005C14.768 0.930049 16.908 0.870049 19.078 2.92005C21.248 4.97005 21.308 7.11005 19.258 9.28005L11.048 17.97C10.628 18.42 9.84803 18.84 9.23803 18.9401L6.01803 19.49C5.84803 19.5 5.69803 19.5201 5.53803 19.5201ZM15.928 2.91005C15.158 2.91005 14.488 3.39005 13.808 4.11005L5.59803 12.8101C5.39803 13.0201 5.16803 13.5201 5.12803 13.8101L4.75803 17.05C4.71803 17.38 4.79803 17.65 4.97803 17.82C5.15803 17.99 5.42803 18.05 5.75803 18L8.97803 17.4501C9.26803 17.4001 9.74803 17.14 9.94803 16.93L18.158 8.24005C19.398 6.92005 19.848 5.70005 18.038 4.00005C17.238 3.23005 16.548 2.91005 15.928 2.91005Z" fill="#292D32"/>
<path d="M17.3365 10.9498C17.3165 10.9498 17.2865 10.9498 17.2665 10.9498C14.1465 10.6398 11.6365 8.26985 11.1565 5.16985C11.0965 4.75985 11.3765 4.37985 11.7865 4.30985C12.1965 4.24985 12.5765 4.52985 12.6465 4.93985C13.0265 7.35985 14.9865 9.21985 17.4265 9.45985C17.8365 9.49985 18.1365 9.86985 18.0965 10.2798C18.0465 10.6598 17.7165 10.9498 17.3365 10.9498Z" fill="#292D32"/>
<path d="M21 22.75H3C2.59 22.75 2.25 22.41 2.25 22C2.25 21.59 2.59 21.25 3 21.25H21C21.41 21.25 21.75 21.59 21.75 22C21.75 22.41 21.41 22.75 21 22.75Z" fill="#292D32"/>
</svg>
