<svg width="24" height="24" viewBox="0 0 24 24" fill="none" xmlns="http://www.w3.org/2000/svg">
<path d="M17.7434 22.7502H7.64343C7.33343 22.7502 7.05344 22.5603 6.94344 22.2603C6.83344 21.9603 6.91343 21.6402 7.15343 21.4302C7.85343 20.8102 8.26343 19.9202 8.26343 18.9902C8.26343 17.2002 6.80343 15.7402 5.01343 15.7402C4.27343 15.7402 3.57343 15.9903 2.98343 16.4603C2.75343 16.6403 2.45344 16.6702 2.19344 16.5502C1.93344 16.4302 1.77344 16.1602 1.77344 15.8702V11.5002C1.77344 9.01024 3.79343 6.99023 6.28343 6.99023H17.7634C20.2534 6.99023 22.2734 9.01024 22.2734 11.5002V12.9402C22.2734 13.3502 21.9334 13.6902 21.5234 13.6902H19.5034C19.1534 13.6902 18.8334 13.8202 18.6034 14.0602L18.5934 14.0703C18.3134 14.3403 18.1834 14.7103 18.2134 15.0903C18.2734 15.7503 18.9034 16.2803 19.6234 16.2803H21.5234C21.9334 16.2803 22.2734 16.6203 22.2734 17.0303V18.2202C22.2534 20.7302 20.2334 22.7502 17.7434 22.7502ZM9.18343 21.2502H17.7434C19.4034 21.2502 20.7534 19.9002 20.7534 18.2402V17.8002H19.6034C18.0934 17.8002 16.8134 16.6802 16.6934 15.2402C16.6134 14.4202 16.9134 13.6103 17.5134 13.0203C18.0334 12.4903 18.7334 12.2003 19.4834 12.2003H20.7534V11.5103C20.7534 9.85025 19.4034 8.50024 17.7434 8.50024H6.26343C4.60343 8.50024 3.25343 9.85025 3.25343 11.5103V14.5903C3.81343 14.3703 4.40343 14.2502 5.00343 14.2502C7.62343 14.2502 9.75343 16.3802 9.75343 19.0002C9.75343 19.7902 9.55343 20.5702 9.18343 21.2502Z" fill="#292D32"/>
<path d="M2.5 12.2603C2.09 12.2603 1.75 11.9203 1.75 11.5103V7.84035C1.75 6.35035 2.68001 4.9903 4.07001 4.4703L12.01 1.4703C12.83 1.1703 13.75 1.28035 14.46 1.78035C15.17 2.28035 15.6 3.09034 15.6 3.95034V7.75033C15.6 8.16033 15.26 8.50033 14.85 8.50033C14.44 8.50033 14.1 8.16033 14.1 7.75033V3.95034C14.1 3.57034 13.92 3.23034 13.61 3.01034C13.29 2.79034 12.9 2.74032 12.54 2.87032L4.60001 5.87032C3.78001 6.18032 3.25 6.95035 3.25 7.84035V11.5103C3.25 11.9203 2.91 12.2603 2.5 12.2603Z" fill="#292D32"/>
<path d="M19.6024 17.8002C18.0924 17.8002 16.8124 16.6802 16.6924 15.2402C16.6124 14.4102 16.9124 13.6002 17.5124 13.0102C18.0224 12.4902 18.7224 12.2002 19.4724 12.2002H21.5524C22.5424 12.2302 23.3024 13.0102 23.3024 13.9702V16.0302C23.3024 16.9902 22.5424 17.7702 21.5824 17.8002H19.6024ZM21.5324 13.7002H19.4824C19.1324 13.7002 18.8124 13.8302 18.5824 14.0702C18.2924 14.3502 18.1524 14.7302 18.1924 15.1102C18.2524 15.7702 18.8824 16.3002 19.6024 16.3002H21.5624C21.6924 16.3002 21.8124 16.1802 21.8124 16.0302V13.9702C21.8124 13.8202 21.6924 13.7102 21.5324 13.7002Z" fill="#292D32"/>
<path d="M14 12.75H7C6.59 12.75 6.25 12.41 6.25 12C6.25 11.59 6.59 11.25 7 11.25H14C14.41 11.25 14.75 11.59 14.75 12C14.75 12.41 14.41 12.75 14 12.75Z" fill="#292D32"/>
<path d="M5 23.75C2.38 23.75 0.25 21.62 0.25 19C0.25 17.54 0.899999 16.19 2.03 15.29C2.87 14.62 3.93 14.25 5 14.25C7.62 14.25 9.75 16.38 9.75 19C9.75 20.36 9.16 21.66 8.14 22.56C7.26 23.33 6.15 23.75 5 23.75ZM5 15.75C4.26 15.75 3.56 16 2.97 16.47C2.2 17.08 1.75 18.01 1.75 19C1.75 20.79 3.21 22.25 5 22.25C5.78 22.25 6.53999 21.96 7.14999 21.44C7.84999 20.82 8.25 19.94 8.25 19C8.25 17.21 6.79 15.75 5 15.75Z" fill="#292D32"/>
<path d="M3.99598 20.75C3.74598 20.75 3.49598 20.62 3.35598 20.39C3.14598 20.03 3.25597 19.57 3.61597 19.36L4.50597 18.83V17.75C4.50597 17.34 4.84597 17 5.25597 17C5.66597 17 6.00597 17.34 6.00597 17.75V19.25C6.00597 19.51 5.86597 19.76 5.64597 19.89L4.39597 20.64C4.26597 20.72 4.12598 20.75 3.99598 20.75Z" fill="#292D32"/>
</svg>
