<svg width="24" height="24" viewBox="0 0 24 24" fill="none" xmlns="http://www.w3.org/2000/svg">
<path d="M15 22.75H9C3.57 22.75 1.25 20.43 1.25 15V9C1.25 3.57 3.57 1.25 9 1.25H15C20.43 1.25 22.75 3.57 22.75 9V15C22.75 20.43 20.43 22.75 15 22.75ZM9 2.75C4.39 2.75 2.75 4.39 2.75 9V15C2.75 19.61 4.39 21.25 9 21.25H15C19.61 21.25 21.25 19.61 21.25 15V9C21.25 4.39 19.61 2.75 15 2.75H9Z" fill="#292D32"/>
<path d="M10.0872 18.2499C9.46719 18.2499 8.85719 18.0199 8.38719 17.5499L6.44719 15.6099C5.50719 14.6699 5.50719 13.1499 6.44719 12.2099L12.1972 6.45988C13.1372 5.51988 14.6572 5.51988 15.5972 6.45988L17.5372 8.39987C18.4772 9.33987 18.4772 10.8599 17.5372 11.7999L11.7872 17.5499C11.3172 18.0099 10.7072 18.2499 10.0872 18.2499ZM7.51719 14.5499L9.4572 16.4899C9.8072 16.8399 10.3872 16.8399 10.7372 16.4899L16.4872 10.7399C16.8372 10.3899 16.8372 9.80988 16.4872 9.45988L14.5472 7.51988C14.1972 7.16988 13.6172 7.16988 13.2672 7.51988L7.51719 13.2699C7.16719 13.6199 7.16719 14.1899 7.51719 14.5499Z" fill="#292D32"/>
<path d="M13.5822 15.4401C13.3922 15.4401 13.2022 15.3701 13.0522 15.2201L8.77219 10.9401C8.48219 10.6501 8.48219 10.1701 8.77219 9.8801C9.06219 9.5901 9.54219 9.5901 9.83219 9.8801L14.1122 14.1601C14.4022 14.4501 14.4022 14.9301 14.1122 15.2201C13.9722 15.3701 13.7722 15.4401 13.5822 15.4401Z" fill="#292D32"/>
</svg>
