<svg width="24" height="24" viewBox="0 0 24 24" fill="none" xmlns="http://www.w3.org/2000/svg">
<path d="M15.2566 22.2498H8.73656C3.82656 22.2498 1.72656 20.1498 1.72656 15.2398V15.1098C1.72656 10.6698 3.47656 8.52978 7.39656 8.15978C7.79656 8.12978 8.17656 8.42978 8.21656 8.83978C8.25656 9.24978 7.95656 9.61978 7.53656 9.65978C4.39656 9.94978 3.22656 11.4298 3.22656 15.1198V15.2498C3.22656 19.3198 4.66656 20.7598 8.73656 20.7598H15.2566C19.3266 20.7598 20.7666 19.3198 20.7666 15.2498V15.1198C20.7666 11.4098 19.5766 9.92978 16.3766 9.65978C15.9666 9.61978 15.6566 9.25978 15.6966 8.84978C15.7366 8.43978 16.0866 8.12978 16.5066 8.16978C20.4866 8.50978 22.2666 10.6598 22.2666 15.1298V15.2598C22.2666 20.1498 20.1666 22.2498 15.2566 22.2498Z" fill="#292D32"/>
<path d="M12 15.7501C11.59 15.7501 11.25 15.4101 11.25 15.0001V3.62012C11.25 3.21012 11.59 2.87012 12 2.87012C12.41 2.87012 12.75 3.21012 12.75 3.62012V15.0001C12.75 15.4101 12.41 15.7501 12 15.7501Z" fill="#292D32"/>
<path d="M15.3538 6.59994C15.1638 6.59994 14.9738 6.52994 14.8238 6.37994L12.0038 3.55994L9.18375 6.37994C8.89375 6.66994 8.41375 6.66994 8.12375 6.37994C7.83375 6.08994 7.83375 5.60994 8.12375 5.31994L11.4738 1.96994C11.7638 1.67994 12.2438 1.67994 12.5338 1.96994L15.8838 5.31994C16.1738 5.60994 16.1738 6.08994 15.8838 6.37994C15.7438 6.52994 15.5438 6.59994 15.3538 6.59994Z" fill="#292D32"/>
</svg>
