<svg width="24" height="24" viewBox="0 0 24 24" fill="none" xmlns="http://www.w3.org/2000/svg">
<path d="M14.4378 7.24988C14.2478 7.24988 14.0578 7.17988 13.9078 7.02988L11.8778 4.99988L9.84781 7.02988C9.55781 7.31988 9.07781 7.31988 8.78781 7.02988C8.49781 6.73988 8.49781 6.25988 8.78781 5.96988L11.3478 3.40988C11.6378 3.11988 12.1178 3.11988 12.4078 3.40988L14.9678 5.96988C15.2578 6.25988 15.2578 6.73988 14.9678 7.02988C14.8178 7.17988 14.6278 7.24988 14.4378 7.24988Z" fill="#292D32"/>
<path d="M11.8828 14.9298C11.4728 14.9298 11.1328 14.5898 11.1328 14.1798V4.00977C11.1328 3.59977 11.4728 3.25977 11.8828 3.25977C12.2928 3.25977 12.6328 3.59977 12.6328 4.00977V14.1798C12.6328 14.5998 12.2928 14.9298 11.8828 14.9298Z" fill="#292D32"/>
<path d="M12 20.75C6.85 20.75 3.25 17.15 3.25 12C3.25 11.59 3.59 11.25 4 11.25C4.41 11.25 4.75 11.59 4.75 12C4.75 16.27 7.73 19.25 12 19.25C16.27 19.25 19.25 16.27 19.25 12C19.25 11.59 19.59 11.25 20 11.25C20.41 11.25 20.75 11.59 20.75 12C20.75 17.15 17.15 20.75 12 20.75Z" fill="#292D32"/>
</svg>
