<svg width="24" height="24" viewBox="0 0 24 24" fill="none" xmlns="http://www.w3.org/2000/svg">
<path d="M10.9384 22.6501C10.4584 22.6501 9.98844 22.5301 9.54844 22.2901C8.66844 21.8001 8.13844 20.9101 8.13844 19.9101V14.6101C8.13844 14.1101 7.80844 13.3601 7.49844 12.9801L3.75844 9.0201C3.12844 8.3901 2.64844 7.3101 2.64844 6.5001V4.2001C2.64844 2.6001 3.85844 1.3501 5.39844 1.3501H18.5984C20.1184 1.3501 21.3484 2.5801 21.3484 4.1001V6.3001C21.3484 7.3501 20.7184 8.5401 20.1284 9.1301L15.7984 12.9601C15.3784 13.3101 15.0484 14.0801 15.0484 14.7001V19.0001C15.0484 19.8901 14.4884 20.9201 13.7884 21.3401L12.4084 22.2301C11.9584 22.5101 11.4484 22.6501 10.9384 22.6501ZM5.39844 2.8501C4.69844 2.8501 4.14844 3.4401 4.14844 4.2001V6.5001C4.14844 6.8701 4.44844 7.5901 4.82844 7.9701L8.63844 11.9801C9.14844 12.6101 9.64844 13.6601 9.64844 14.6001V19.9001C9.64844 20.5501 10.0984 20.8701 10.2884 20.9701C10.7084 21.2001 11.2184 21.2001 11.6084 20.9601L12.9984 20.0701C13.2784 19.9001 13.5584 19.3601 13.5584 19.0001V14.7001C13.5584 13.6301 14.0784 12.4501 14.8284 11.8201L19.1084 8.0301C19.4484 7.6901 19.8584 6.8801 19.8584 6.2901V4.1001C19.8584 3.4101 19.2984 2.8501 18.6084 2.8501H5.39844Z" fill="#292D32"/>
<path d="M6.00358 10.7498C5.86358 10.7498 5.73358 10.7098 5.60358 10.6398C5.25358 10.4198 5.14358 9.94978 5.36358 9.59978L10.2936 1.69978C10.5136 1.34978 10.9736 1.23978 11.3236 1.45978C11.6736 1.67978 11.7836 2.13978 11.5636 2.48978L6.63358 10.3898C6.49358 10.6198 6.25358 10.7498 6.00358 10.7498Z" fill="#292D32"/>
</svg>
