<svg width="24" height="24" viewBox="0 0 24 24" fill="none" xmlns="http://www.w3.org/2000/svg">
<path d="M10.9269 22.7498C10.4469 22.7498 9.96687 22.6298 9.52687 22.3798C8.63687 21.8798 8.10687 20.9897 8.10687 19.9797V14.6298C8.10687 14.1198 7.77688 13.3697 7.46688 12.9797L3.66688 8.98975C3.03688 8.35975 2.54688 7.25977 2.54688 6.44977V4.12976C2.54688 2.51976 3.76688 1.25977 5.31688 1.25977H18.6469C20.1769 1.25977 21.4169 2.49979 21.4169 4.02979V6.24976C21.4169 7.29976 20.7869 8.50973 20.1869 9.09973C19.8969 9.38973 19.4169 9.38973 19.1269 9.09973C18.8369 8.80973 18.8369 8.32973 19.1269 8.03973C19.4969 7.66973 19.9169 6.83976 19.9169 6.24976V4.02979C19.9169 3.32979 19.3469 2.75977 18.6469 2.75977H5.32687C4.61687 2.75977 4.05687 3.35976 4.05687 4.12976V6.44977C4.05687 6.81977 4.35688 7.54976 4.74688 7.93976L8.59688 11.9897C9.10688 12.6197 9.60687 13.6798 9.60687 14.6298V19.9797C9.60687 20.6397 10.0569 20.9598 10.2569 21.0698C10.6869 21.3098 11.1969 21.2998 11.5969 21.0598L12.9969 20.1597C13.3469 19.9397 13.8069 20.0398 14.0369 20.3898C14.2569 20.7398 14.1569 21.1997 13.8069 21.4297L12.3969 22.3398C11.9469 22.6098 11.4369 22.7498 10.9269 22.7498Z" fill="#292D32"/>
<path d="M16.8828 20.25C14.9628 20.25 13.1528 19.23 12.1728 17.58C11.6528 16.74 11.3828 15.76 11.3828 14.75C11.3828 11.72 13.8528 9.25 16.8828 9.25C19.9128 9.25 22.3828 11.72 22.3828 14.75C22.3828 15.76 22.1028 16.74 21.5828 17.59C20.6128 19.23 18.8128 20.25 16.8828 20.25ZM16.8828 10.75C14.6728 10.75 12.8828 12.54 12.8828 14.75C12.8828 15.48 13.0828 16.19 13.4628 16.8C14.1828 18.01 15.4928 18.75 16.8828 18.75C18.3028 18.75 19.5828 18.03 20.3028 16.81C20.6828 16.19 20.8828 15.48 20.8828 14.75C20.8828 12.54 19.0928 10.75 16.8828 10.75Z" fill="#292D32"/>
<path d="M18.1481 16.7399C17.9581 16.7399 17.7681 16.6699 17.6181 16.5199L15.1081 14.0099C14.8181 13.7199 14.8181 13.2399 15.1081 12.9499C15.3981 12.6599 15.8781 12.6599 16.1681 12.9499L18.6781 15.4599C18.9681 15.7499 18.9681 16.2299 18.6781 16.5199C18.5381 16.6699 18.3481 16.7399 18.1481 16.7399Z" fill="#292D32"/>
<path d="M15.6225 16.7702C15.4325 16.7702 15.2425 16.7002 15.0925 16.5502C14.8025 16.2602 14.8025 15.7802 15.0925 15.4902L17.6025 12.9802C17.8925 12.6902 18.3725 12.6902 18.6625 12.9802C18.9525 13.2702 18.9525 13.7502 18.6625 14.0402L16.1525 16.5502C16.0025 16.7002 15.8125 16.7702 15.6225 16.7702Z" fill="#292D32"/>
<path d="M10.9269 22.75C10.4469 22.75 9.96687 22.63 9.53687 22.39C8.64687 21.89 8.11687 20.99 8.11687 19.98V14.63C8.11687 14.13 7.78688 13.37 7.46688 12.98L3.66688 8.98999C3.03688 8.33999 2.54688 7.25001 2.54688 6.45001V4.12C2.54688 2.51 3.76688 1.25 5.31688 1.25H18.6569C20.1869 1.25 21.4269 2.49002 21.4269 4.02002V6.23999C21.4269 7.28999 20.8069 8.47003 20.2069 9.09003L18.4069 10.68C18.2269 10.84 17.9669 10.9 17.7369 10.85C17.4669 10.78 17.1769 10.75 16.8769 10.75C14.6669 10.75 12.8769 12.54 12.8769 14.75C12.8769 15.48 13.0769 16.19 13.4569 16.81C13.7769 17.34 14.2069 17.78 14.7069 18.09C14.9269 18.23 15.0669 18.47 15.0669 18.73V19.07C15.0669 19.86 14.5869 20.97 13.7869 21.44L12.4069 22.33C11.9569 22.61 11.4369 22.75 10.9269 22.75ZM5.32687 2.75C4.61687 2.75 4.05687 3.35 4.05687 4.12V6.45001C4.05687 6.81001 4.35688 7.55001 4.75688 7.95001L8.60687 12C9.11687 12.63 9.62687 13.7 9.62687 14.64V19.99C9.62687 20.65 10.0869 20.98 10.2769 21.09C10.7069 21.33 11.2169 21.32 11.6069 21.08L13.0069 20.18C13.2769 20.02 13.5469 19.51 13.5669 19.15C13.0169 18.74 12.5369 18.21 12.1769 17.61C11.6569 16.76 11.3769 15.78 11.3769 14.78C11.3769 11.75 13.8469 9.28003 16.8769 9.28003C17.1569 9.28003 17.4369 9.30003 17.6969 9.34003L19.1769 8.03003C19.5169 7.68003 19.9369 6.85001 19.9369 6.26001V4.03998C19.9369 3.33998 19.3669 2.77002 18.6669 2.77002H5.32687V2.75Z" fill="#292D32"/>
</svg>
