<svg width="24" height="24" viewBox="0 0 24 24" fill="none" xmlns="http://www.w3.org/2000/svg">
<path d="M16.8828 20.25C15.8228 20.25 14.7928 19.94 13.9128 19.35C13.2228 18.93 12.6228 18.31 12.1828 17.58C11.6628 16.73 11.3828 15.75 11.3828 14.75C11.3828 11.72 13.8528 9.25 16.8828 9.25C17.3028 9.25 17.7128 9.30001 18.1028 9.39001C20.5828 9.94001 22.3828 12.19 22.3828 14.75C22.3828 15.76 22.1128 16.74 21.5928 17.59C20.6128 19.23 18.8028 20.25 16.8828 20.25ZM16.8828 10.75C14.6728 10.75 12.8828 12.54 12.8828 14.75C12.8828 15.48 13.0828 16.19 13.4628 16.81C13.7828 17.34 14.2128 17.78 14.7128 18.09C15.3728 18.53 16.1128 18.75 16.8828 18.75C18.2828 18.75 19.5928 18.01 20.3128 16.81C20.6928 16.19 20.8828 15.48 20.8828 14.75C20.8828 12.89 19.5728 11.25 17.7628 10.85C17.4728 10.78 17.1828 10.75 16.8828 10.75Z" fill="#292D32"/>
<path d="M16.1988 16.6701C16.0088 16.6701 15.8187 16.6001 15.6687 16.4501L14.4988 15.2801C14.2088 14.9901 14.2088 14.5101 14.4988 14.2201C14.7887 13.9301 15.2687 13.9301 15.5587 14.2201L16.2187 14.8801L18.2287 13.0301C18.5387 12.7501 19.0087 12.7701 19.2887 13.0701C19.5687 13.3701 19.5488 13.8501 19.2488 14.1301L16.7088 16.4701C16.5688 16.6001 16.3788 16.6701 16.1988 16.6701Z" fill="#292D32"/>
<path d="M10.9269 22.75C10.4469 22.75 9.96687 22.63 9.53687 22.39C8.64687 21.89 8.11688 20.99 8.11688 19.98V14.63C8.11688 14.12 7.78686 13.37 7.46686 12.98L3.66687 8.98999C3.03687 8.33999 2.54688 7.25001 2.54688 6.45001V4.12C2.54688 2.51 3.76689 1.25 5.31689 1.25H18.6569C20.1869 1.25 21.4269 2.48999 21.4269 4.01999V6.23999C21.4269 7.28999 20.8069 8.47 20.1969 9.09L18.3969 10.68C18.2169 10.84 17.9669 10.9 17.7269 10.85C17.4569 10.78 17.1669 10.75 16.8669 10.75C14.6569 10.75 12.8669 12.54 12.8669 14.75C12.8669 15.48 13.0669 16.19 13.4469 16.81C13.7669 17.34 14.1969 17.78 14.6969 18.09C14.9169 18.23 15.0569 18.47 15.0569 18.73V19.07C15.0569 19.86 14.5769 20.97 13.7769 21.44L12.3969 22.33C11.9569 22.61 11.4369 22.75 10.9269 22.75ZM5.3269 2.75C4.6169 2.75 4.05688 3.35 4.05688 4.12V6.45001C4.05688 6.81001 4.3569 7.54 4.7569 7.94L8.60687 11.99C9.11687 12.62 9.62689 13.68 9.62689 14.63V19.98C9.62689 20.64 10.0869 20.97 10.2769 21.08C10.7069 21.32 11.2169 21.31 11.6069 21.07L13.0069 20.17C13.2769 20.01 13.5469 19.5 13.5669 19.14C13.0169 18.73 12.5369 18.2 12.1769 17.6C11.6569 16.75 11.3769 15.77 11.3769 14.77C11.3769 11.74 13.8469 9.26999 16.8769 9.26999C17.1569 9.26999 17.4369 9.28999 17.6969 9.32999L19.1769 8.01999C19.5169 7.66999 19.9369 6.84 19.9369 6.25V4.03C19.9369 3.33 19.3669 2.76001 18.6669 2.76001H5.3269V2.75Z" fill="#292D32"/>
</svg>
