<svg width="24" height="24" viewBox="0 0 24 24" fill="none" xmlns="http://www.w3.org/2000/svg">
<path d="M10.9269 22.75C10.4469 22.75 9.96692 22.63 9.52692 22.39C8.63692 21.89 8.10687 21 8.10687 19.99V14.64C8.10687 14.13 7.77686 13.38 7.46686 12.99L3.66687 9.00003C3.03687 8.37003 2.54688 7.27002 2.54688 6.46002V4.14005C2.54688 2.53005 3.76689 1.27002 5.31689 1.27002H18.6569C20.1869 1.27002 21.4269 2.51004 21.4269 4.04004V6.26004C21.4269 7.31004 20.7969 8.52002 20.1969 9.11002C19.9069 9.40002 19.4269 9.40002 19.1369 9.11002C18.8469 8.82002 18.8469 8.34002 19.1369 8.05002C19.5069 7.68002 19.9269 6.85004 19.9269 6.26004V4.04004C19.9269 3.34004 19.3569 2.77002 18.6569 2.77002H5.31689C4.60689 2.77002 4.04688 3.37005 4.04688 4.14005V6.46002C4.04688 6.83002 4.34688 7.56004 4.73688 7.95004L8.58691 12C9.09691 12.63 9.59686 13.69 9.59686 14.64V19.99C9.59686 20.65 10.0469 20.97 10.2469 21.08C10.6769 21.32 11.1869 21.31 11.5869 21.07L12.9869 20.17C13.2769 20 13.5569 19.45 13.5569 19.08C13.5569 18.67 13.8969 18.33 14.3069 18.33C14.7169 18.33 15.0569 18.67 15.0569 19.08C15.0569 19.98 14.4969 21.01 13.7869 21.44L12.3969 22.34C11.9469 22.61 11.4369 22.75 10.9269 22.75Z" fill="#292D32"/>
<path d="M16.0672 17.2701C13.8872 17.2701 12.1172 15.5001 12.1172 13.3201C12.1172 11.1401 13.8872 9.37012 16.0672 9.37012C18.2472 9.37012 20.0172 11.1401 20.0172 13.3201C20.0172 15.5001 18.2472 17.2701 16.0672 17.2701ZM16.0672 10.8701C14.7172 10.8701 13.6172 11.9701 13.6172 13.3201C13.6172 14.6701 14.7172 15.7701 16.0672 15.7701C17.4172 15.7701 18.5172 14.6701 18.5172 13.3201C18.5172 11.9701 17.4172 10.8701 16.0672 10.8701Z" fill="#292D32"/>
<path d="M19.8725 17.8701C19.6825 17.8701 19.4925 17.8001 19.3425 17.6501L18.3425 16.6501C18.0525 16.3601 18.0525 15.8801 18.3425 15.5901C18.6325 15.3001 19.1125 15.3001 19.4025 15.5901L20.4025 16.5901C20.6925 16.8801 20.6925 17.3601 20.4025 17.6501C20.2625 17.7901 20.0625 17.8701 19.8725 17.8701Z" fill="#292D32"/>
</svg>
