<svg width="24" height="24" viewBox="0 0 24 24" fill="none" xmlns="http://www.w3.org/2000/svg">
<path d="M10.9269 22.75C10.4469 22.75 9.96692 22.63 9.52692 22.39C8.63692 21.89 8.10687 21 8.10687 19.99V14.64C8.10687 14.13 7.77686 13.38 7.46686 12.99L3.66687 9.00003C3.03687 8.37003 2.54688 7.27002 2.54688 6.46002V4.14005C2.54688 2.53005 3.76689 1.27002 5.31689 1.27002H18.6569C20.1869 1.27002 21.4269 2.51004 21.4269 4.04004V6.26004C21.4269 7.31004 20.7969 8.52002 20.1969 9.11002C19.9069 9.40002 19.4269 9.40002 19.1369 9.11002C18.8469 8.82002 18.8469 8.34002 19.1369 8.05002C19.5069 7.68002 19.9269 6.85004 19.9269 6.26004V4.04004C19.9269 3.34004 19.3569 2.77002 18.6569 2.77002H5.31689C4.60689 2.77002 4.04688 3.37005 4.04688 4.14005V6.46002C4.04688 6.83002 4.34688 7.56004 4.73688 7.95004L8.58691 12C9.09691 12.63 9.59686 13.69 9.59686 14.64V19.99C9.59686 20.65 10.0469 20.97 10.2469 21.08C10.6769 21.32 11.1869 21.31 11.5869 21.07L12.9869 20.17C13.3369 19.95 13.7969 20.05 14.0269 20.4C14.2469 20.75 14.1469 21.21 13.8069 21.44L12.3969 22.35C11.9469 22.61 11.4369 22.75 10.9269 22.75Z" fill="#292D32"/>
<path d="M13.6868 18.8898C13.3068 18.8898 12.9468 18.7497 12.6868 18.4897C12.3768 18.1797 12.2368 17.7297 12.3068 17.2597L12.4968 15.9097C12.5468 15.5597 12.7568 15.1497 13.0068 14.8997L16.5467 11.3597C17.0267 10.8797 17.4968 10.6297 18.0068 10.5797C18.6268 10.5197 19.2468 10.7797 19.8268 11.3597C20.4068 11.9397 20.6667 12.5497 20.6067 13.1797C20.5567 13.6797 20.2968 14.1598 19.8268 14.6398L16.2867 18.1797C16.0367 18.4297 15.6168 18.6397 15.2668 18.6897L13.9167 18.8797C13.8367 18.8897 13.7668 18.8898 13.6868 18.8898ZM18.1767 12.0597C18.1667 12.0597 18.1568 12.0597 18.1468 12.0597C18.0068 12.0697 17.8167 12.1897 17.6067 12.4097L14.0668 15.9498C14.0368 15.9798 13.9867 16.0797 13.9867 16.1197L13.8068 17.3697L15.0568 17.1897C15.0968 17.1797 15.1967 17.1297 15.2267 17.0997L18.7668 13.5597C18.9768 13.3497 19.1067 13.1597 19.1167 13.0197C19.1367 12.8197 18.9368 12.5797 18.7668 12.4097C18.6068 12.2497 18.3767 12.0597 18.1767 12.0597Z" fill="#292D32"/>
<path d="M18.7878 15.3598C18.7178 15.3598 18.6478 15.3498 18.5878 15.3298C17.2678 14.9598 16.2178 13.9098 15.8478 12.5898C15.7378 12.1898 15.9678 11.7798 16.3678 11.6598C16.7678 11.5498 17.1778 11.7798 17.2878 12.1798C17.5178 12.9998 18.1678 13.6498 18.9878 13.8798C19.3878 13.9898 19.6178 14.4098 19.5078 14.8098C19.4178 15.1498 19.1178 15.3598 18.7878 15.3598Z" fill="#292D32"/>
</svg>
