<svg width="24" height="24" viewBox="0 0 24 24" fill="none" xmlns="http://www.w3.org/2000/svg">
<path d="M6.45312 22.75C6.04313 22.75 5.70312 22.41 5.70312 22V2C5.70312 1.59 6.04313 1.25 6.45312 1.25C6.86312 1.25 7.20312 1.59 7.20312 2V22C7.20312 22.41 6.86312 22.75 6.45312 22.75Z" fill="#292D32"/>
<path d="M6.95298 17.7499C6.67298 17.7499 6.41298 17.5999 6.28298 17.3299C6.10298 16.9599 6.25298 16.5099 6.62298 16.3299L14.923 12.2299C16.143 11.5999 16.833 10.8399 16.803 10.1299C16.773 9.43987 16.033 8.72987 14.763 8.18987L6.66298 4.68987C6.27298 4.51987 6.10298 4.07987 6.26298 3.69987C6.42298 3.31987 6.87298 3.13987 7.25298 3.30987L15.353 6.80987C17.853 7.86987 18.273 9.30987 18.303 10.0699C18.353 11.3999 17.393 12.6399 15.603 13.5599L7.29298 17.6699C7.18298 17.7299 7.06298 17.7499 6.95298 17.7499Z" fill="#292D32"/>
</svg>
