<svg width="24" height="24" viewBox="0 0 24 24" fill="none" xmlns="http://www.w3.org/2000/svg">
<path d="M9.98861 22.7501C9.78861 22.7501 9.62861 22.7101 9.50861 22.6601C9.10861 22.5101 8.42861 22.0201 8.42861 20.4701V14.0201H6.08861C4.74861 14.0201 4.26861 13.3901 4.09861 13.0201C3.92861 12.6401 3.77861 11.8701 4.65861 10.8601L12.2286 2.26013C13.2486 1.10013 14.0786 1.18013 14.4786 1.33013C14.8786 1.48013 15.5586 1.97013 15.5586 3.52013V9.97013H17.8986C19.2386 9.97013 19.7186 10.6001 19.8886 10.9701C20.0586 11.3501 20.2086 12.1201 19.3286 13.1301L11.7586 21.7301C11.0486 22.5401 10.4286 22.7501 9.98861 22.7501ZM13.9286 2.74013C13.8986 2.78013 13.6886 2.88013 13.3586 3.26013L5.78861 11.8601C5.50861 12.1801 5.46861 12.3801 5.46861 12.4201C5.48861 12.4301 5.66861 12.5301 6.08861 12.5301H9.17861C9.58861 12.5301 9.92861 12.8701 9.92861 13.2801V20.4801C9.92861 20.9801 10.0186 21.2001 10.0586 21.2601C10.0886 21.2201 10.2986 21.1201 10.6286 20.7401L18.1986 12.1401C18.4786 11.8201 18.5186 11.6201 18.5186 11.5801C18.4986 11.5701 18.3186 11.4701 17.8986 11.4701H14.8086C14.3986 11.4701 14.0586 11.1301 14.0586 10.7201V3.52013C14.0686 3.02013 13.9686 2.81013 13.9286 2.74013Z" fill="#292D32"/>
</svg>
