<svg width="24" height="24" viewBox="0 0 24 24" fill="none" xmlns="http://www.w3.org/2000/svg">
<path d="M12.0024 17.8802C11.7524 17.8802 11.4924 17.7902 11.2924 17.6102L8.7124 15.3502C7.7424 14.5002 7.6124 13.0402 8.4224 12.0302C9.2424 11.0102 10.7024 10.8202 11.7524 11.6102L12.0024 11.8002L12.2624 11.6002C13.3124 10.8102 14.7724 11.0002 15.5924 12.0202C16.4024 13.0302 16.2724 14.4902 15.3024 15.3402L12.7224 17.6002C12.5124 17.7902 12.2524 17.8802 12.0024 17.8802ZM9.69239 14.2202L12.0024 16.2402L14.3124 14.2202C14.6824 13.9002 14.7324 13.3502 14.4224 12.9702C14.1124 12.5802 13.5624 12.5102 13.1624 12.8102L12.4524 13.3402C12.1824 13.5402 11.8224 13.5402 11.5524 13.3402L10.8424 12.8102C10.4524 12.5102 9.8924 12.5802 9.5824 12.9702C9.2824 13.3502 9.33239 13.9002 9.69239 14.2202Z" fill="#292D32"/>
<path d="M17 22.75H7C2.59 22.75 1.25 21.41 1.25 17V7C1.25 2.59 2.59 1.25 7 1.25H8.5C10.25 1.25 10.8 1.82 11.5 2.75L13 4.75C13.33 5.19 13.38 5.25 14 5.25H17C21.41 5.25 22.75 6.59 22.75 11V17C22.75 21.41 21.41 22.75 17 22.75ZM7 2.75C3.42 2.75 2.75 3.43 2.75 7V17C2.75 20.57 3.42 21.25 7 21.25H17C20.58 21.25 21.25 20.57 21.25 17V11C21.25 7.43 20.58 6.75 17 6.75H14C12.72 6.75 12.3 6.31 11.8 5.65L10.3 3.65C9.78 2.96 9.62 2.75 8.5 2.75H7Z" fill="#292D32"/>
</svg>
