<svg width="24" height="24" viewBox="0 0 24 24" fill="none" xmlns="http://www.w3.org/2000/svg">
<path d="M13.9758 5.21993C13.7558 5.21993 13.5359 5.11996 13.3959 4.93996L11.4158 2.46993C11.1558 2.14993 11.2058 1.66994 11.5358 1.41994C11.8658 1.16994 12.3259 1.20994 12.5859 1.53994L14.5659 4.00997C14.8259 4.32997 14.7759 4.80996 14.4459 5.05996C14.3059 5.15996 14.1358 5.21993 13.9758 5.21993Z" fill="#292D32"/>
<path d="M11.9994 22.7498C6.68939 22.7498 2.35938 18.4297 2.35938 13.1097C2.35938 7.78974 6.67939 3.46973 11.9994 3.46973C12.6894 3.46973 13.3894 3.54974 14.1494 3.72974C14.5494 3.81974 14.8094 4.22976 14.7094 4.62976C14.6194 5.02976 14.2194 5.28976 13.8094 5.18976C13.1694 5.03976 12.5694 4.96973 11.9994 4.96973C7.50939 4.96973 3.85938 8.61974 3.85938 13.1097C3.85938 17.5997 7.50939 21.2498 11.9994 21.2498C16.4894 21.2498 20.1394 17.5997 20.1394 13.1097C20.1394 11.3697 19.5694 9.68976 18.4894 8.24976C18.2394 7.91976 18.3094 7.44977 18.6394 7.19977C18.9694 6.94977 19.4394 7.01973 19.6894 7.34973C20.9694 9.04973 21.6394 11.0397 21.6394 13.1097C21.6394 18.4297 17.3094 22.7498 11.9994 22.7498Z" fill="#292D32"/>
<path d="M12.3767 16.9203H10.0867C9.67674 16.9203 9.33674 16.5803 9.33674 16.1703C9.33674 15.7603 9.67674 15.4203 10.0867 15.4203H12.3767C12.8067 15.4203 13.1567 15.0703 13.1567 14.6403C13.1567 14.2103 12.8067 13.8603 12.3767 13.8603H10.0867C9.84674 13.8603 9.61669 13.7403 9.47669 13.5503C9.33669 13.3603 9.29672 13.1003 9.37672 12.8703L10.1367 10.5803C10.2367 10.2703 10.5267 10.0703 10.8467 10.0703H13.9067C14.3167 10.0703 14.6567 10.4103 14.6567 10.8203C14.6567 11.2303 14.3167 11.5703 13.9067 11.5703H11.3867L11.1267 12.3603H12.3767C13.6367 12.3603 14.6567 13.3803 14.6567 14.6403C14.6567 15.9003 13.6367 16.9203 12.3767 16.9203Z" fill="#292D32"/>
</svg>
