<svg width="24" height="24" viewBox="0 0 24 24" fill="none" xmlns="http://www.w3.org/2000/svg">
<path d="M3.95001 18.3601C3.49001 18.3601 3.02001 18.2401 2.60001 17.9901C1.75001 17.5001 1.25 16.6301 1.25 15.6501V8.33005C1.25 7.35005 1.75001 6.48006 2.60001 5.99006C3.45001 5.50006 4.45999 5.50006 5.29999 5.99006L11.64 9.65006C11.93 9.82006 12.16 10.0201 12.34 10.2401C12.45 10.3701 12.51 10.5401 12.51 10.7101V13.2701C12.51 13.4401 12.45 13.6101 12.34 13.7401C12.16 13.9601 11.93 14.1601 11.66 14.3201L5.29999 18.0001C4.87999 18.2401 4.42001 18.3601 3.95001 18.3601ZM3.95001 7.14008C3.74001 7.14008 3.54001 7.19006 3.35001 7.30006C2.97001 7.52006 2.75 7.91006 2.75 8.34006V15.6601C2.75 16.0901 2.97001 16.4801 3.35001 16.7001C3.73001 16.9201 4.16999 16.9201 4.54999 16.7001L10.89 13.0401C10.93 13.0201 10.97 12.9901 11 12.9601V11.0301C10.96 11.0001 10.92 10.9701 10.88 10.9501L4.54999 7.30006C4.35999 7.19006 4.16001 7.14008 3.95001 7.14008Z" fill="#292D32"/>
<path d="M13.7078 18.3601C13.2478 18.3601 12.7778 18.2401 12.3578 17.9901C11.5078 17.5001 11.0078 16.6301 11.0078 15.6501V8.33005C11.0078 7.35005 11.5078 6.48006 12.3578 5.99006C13.2078 5.50006 14.2178 5.50006 15.0578 5.99006L21.3978 9.65006C22.2378 10.1401 22.7478 11.0101 22.7478 11.9901C22.7478 12.9701 22.2478 13.8401 21.3978 14.3301L15.0578 17.9901C14.6378 18.2401 14.1678 18.3601 13.7078 18.3601ZM13.7078 7.14008C13.4978 7.14008 13.2978 7.19006 13.1078 7.30006C12.7278 7.52006 12.5078 7.90006 12.5078 8.34006V15.6601C12.5078 16.0901 12.7278 16.4801 13.1078 16.7001C13.4878 16.9201 13.9378 16.9201 14.3078 16.7001L20.6478 13.0401C21.0278 12.8201 21.2478 12.4301 21.2478 12.0001C21.2478 11.5701 21.0278 11.1801 20.6478 10.9601L14.3078 7.30006C14.1178 7.19006 13.9178 7.14008 13.7078 7.14008Z" fill="#292D32"/>
</svg>
