<svg width="24" height="24" viewBox="0 0 24 24" fill="none" xmlns="http://www.w3.org/2000/svg">
<path d="M15.9688 22.75H7.96875C4.54875 22.75 3.21875 21.42 3.21875 18V10C3.21875 9.59 3.55875 9.25 3.96875 9.25H19.9688C20.3787 9.25 20.7188 9.59 20.7188 10V18C20.7188 21.42 19.3888 22.75 15.9688 22.75ZM4.71875 10.75V18C4.71875 20.58 5.38875 21.25 7.96875 21.25H15.9688C18.5487 21.25 19.2187 20.58 19.2187 18V10.75H4.71875Z" fill="#292D32"/>
<path d="M19.5 10.75H4.5C2.75 10.75 1.75 9.75 1.75 8V7C1.75 5.25 2.75 4.25 4.5 4.25H19.5C21.2 4.25 22.25 5.3 22.25 7V8C22.25 9.7 21.2 10.75 19.5 10.75ZM4.5 5.75C3.59 5.75 3.25 6.09 3.25 7V8C3.25 8.91 3.59 9.25 4.5 9.25H19.5C20.38 9.25 20.75 8.88 20.75 8V7C20.75 6.12 20.38 5.75 19.5 5.75H4.5Z" fill="#292D32"/>
<path d="M11.6391 5.74988H6.11912C5.90912 5.74988 5.70912 5.65988 5.56912 5.50988C4.95912 4.83988 4.97912 3.80988 5.61912 3.16988L7.03912 1.74988C7.69912 1.08988 8.78912 1.08988 9.44912 1.74988L12.1691 4.46988C12.3791 4.67988 12.4491 5.00988 12.3291 5.28988C12.2191 5.56988 11.9491 5.74988 11.6391 5.74988ZM6.66912 4.24988H9.83912L8.38912 2.80988C8.30912 2.72988 8.17912 2.72988 8.09912 2.80988L6.67912 4.22988C6.67912 4.23988 6.66912 4.23988 6.66912 4.24988Z" fill="#292D32"/>
<path d="M17.8701 5.74988H12.3501C12.0501 5.74988 11.7701 5.56988 11.6601 5.28988C11.5401 5.00988 11.6101 4.68988 11.8201 4.46988L14.5401 1.74988C15.2001 1.08988 16.2901 1.08988 16.9501 1.74988L18.3701 3.16988C19.0101 3.80988 19.0401 4.83988 18.4201 5.50988C18.2801 5.65988 18.0801 5.74988 17.8701 5.74988ZM14.1701 4.24988H17.3401C17.3301 4.23988 17.3301 4.23988 17.3201 4.22988L15.9001 2.80988C15.8201 2.72988 15.6901 2.72988 15.6101 2.80988L14.1701 4.24988Z" fill="#292D32"/>
<path d="M9.9375 16.9C9.6575 16.9 9.3675 16.83 9.1075 16.69C8.5375 16.38 8.1875 15.79 8.1875 15.15V10C8.1875 9.59 8.5275 9.25 8.9375 9.25H14.9775C15.3875 9.25 15.7275 9.59 15.7275 10V15.13C15.7275 15.78 15.3775 16.37 14.8075 16.67C14.2375 16.98 13.5475 16.94 13.0075 16.58L12.1175 15.98C12.0375 15.92 11.9275 15.92 11.8375 15.98L10.8975 16.6C10.6075 16.8 10.2675 16.9 9.9375 16.9ZM9.6875 10.75V15.14C9.6875 15.27 9.7675 15.33 9.8175 15.36C9.8675 15.39 9.9675 15.42 10.0775 15.35L11.0175 14.73C11.6075 14.34 12.3675 14.34 12.9475 14.73L13.8375 15.33C13.9475 15.4 14.0475 15.37 14.0975 15.34C14.1475 15.31 14.2275 15.25 14.2275 15.12V10.74H9.6875V10.75Z" fill="#292D32"/>
</svg>
