<svg width="24" height="24" viewBox="0 0 24 24" fill="none" xmlns="http://www.w3.org/2000/svg">
<path d="M12 22.75C6.07 22.75 1.25 17.93 1.25 12C1.25 6.07 6.07 1.25 12 1.25C17.93 1.25 22.75 6.07 22.75 12C22.75 12.41 22.41 12.75 22 12.75C21.59 12.75 21.25 12.41 21.25 12C21.25 6.9 17.1 2.75 12 2.75C6.9 2.75 2.75 6.9 2.75 12C2.75 17.1 6.9 21.25 12 21.25C12.41 21.25 12.75 21.59 12.75 22C12.75 22.41 12.41 22.75 12 22.75Z" fill="#292D32"/>
<path d="M9.00219 21.75H8.00219C7.59219 21.75 7.25219 21.41 7.25219 21C7.25219 20.59 7.57219 20.26 7.98219 20.25C6.41219 14.89 6.41219 9.11 7.98219 3.75C7.58219 3.74 7.25219 3.41 7.25219 3C7.25219 2.59 7.59219 2.25 8.00219 2.25H9.00219C9.24219 2.25 9.47219 2.37 9.61219 2.56C9.75219 2.76 9.7922 3.00999 9.7122 3.23999C7.8322 8.88999 7.8322 15.12 9.7122 20.77C9.7922 21 9.75219 21.25 9.61219 21.45C9.47219 21.65 9.24219 21.75 9.00219 21.75Z" fill="#292D32"/>
<path d="M16.4585 12.75C16.0485 12.75 15.7085 12.41 15.7085 12C15.7085 9.01996 15.2285 6.06995 14.2885 3.23995C14.1585 2.84995 14.3685 2.41994 14.7585 2.28994C15.1485 2.15994 15.5785 2.36997 15.7085 2.75997C16.6985 5.73997 17.2085 8.84996 17.2085 12C17.2085 12.41 16.8685 12.75 16.4585 12.75Z" fill="#292D32"/>
<path d="M12 17.2098C9.2 17.2098 6.43 16.8098 3.75 16.0198C3.74 16.4198 3.41 16.7498 3 16.7498C2.59 16.7498 2.25 16.4098 2.25 15.9998V14.9998C2.25 14.7598 2.37 14.5298 2.56 14.3898C2.76 14.2498 3.01001 14.2098 3.24001 14.2898C6.07001 15.2298 9.02 15.7098 12 15.7098C12.41 15.7098 12.75 16.0498 12.75 16.4598C12.75 16.8698 12.41 17.2098 12 17.2098Z" fill="#292D32"/>
<path d="M21.0007 9.74989C20.9207 9.74989 20.8407 9.73991 20.7607 9.70991C15.1107 7.82991 8.88066 7.82991 3.23066 9.70991C2.84066 9.83991 2.41067 9.62988 2.28067 9.23988C2.15067 8.84988 2.36067 8.41986 2.75067 8.28986C8.71067 6.29986 15.2707 6.29986 21.2207 8.28986C21.6107 8.41986 21.8207 8.84988 21.6907 9.23988C21.6107 9.54988 21.3107 9.74989 21.0007 9.74989Z" fill="#292D32"/>
<path d="M18.2 22.15C16.02 22.15 14.25 20.38 14.25 18.2C14.25 16.02 16.02 14.25 18.2 14.25C20.38 14.25 22.15 16.02 22.15 18.2C22.15 20.38 20.38 22.15 18.2 22.15ZM18.2 15.75C16.85 15.75 15.75 16.85 15.75 18.2C15.75 19.55 16.85 20.65 18.2 20.65C19.55 20.65 20.65 19.55 20.65 18.2C20.65 16.85 19.55 15.75 18.2 15.75Z" fill="#292D32"/>
<path d="M21.9975 22.75C21.8075 22.75 21.6175 22.68 21.4675 22.53L20.4675 21.53C20.1775 21.24 20.1775 20.7599 20.4675 20.4699C20.7575 20.1799 21.2375 20.1799 21.5275 20.4699L22.5275 21.4699C22.8175 21.7599 22.8175 22.24 22.5275 22.53C22.3775 22.68 22.1875 22.75 21.9975 22.75Z" fill="#292D32"/>
</svg>
