<svg width="24" height="24" viewBox="0 0 24 24" fill="none" xmlns="http://www.w3.org/2000/svg">
<path d="M12 22.75C6.07 22.75 1.25 17.93 1.25 12C1.25 6.07 6.07 1.25 12 1.25C17.93 1.25 22.75 6.07 22.75 12C22.75 17.93 17.93 22.75 12 22.75ZM12 2.75C6.9 2.75 2.75 6.9 2.75 12C2.75 17.1 6.9 21.25 12 21.25C17.1 21.25 21.25 17.1 21.25 12C21.25 6.9 17.1 2.75 12 2.75Z" fill="#292D32"/>
<path d="M9.00219 21.75H8.00219C7.59219 21.75 7.25219 21.41 7.25219 21C7.25219 20.59 7.57219 20.26 7.98219 20.25C6.41219 14.89 6.41219 9.11 7.98219 3.75C7.57219 3.74 7.25219 3.41 7.25219 3C7.25219 2.59 7.59219 2.25 8.00219 2.25H9.00219C9.24219 2.25 9.47219 2.37 9.61219 2.56C9.75219 2.76 9.79219 3.01 9.71219 3.24C7.83219 8.89 7.83219 15.11 9.71219 20.77C9.79219 21 9.75219 21.25 9.61219 21.45C9.47219 21.63 9.24219 21.75 9.00219 21.75Z" fill="#292D32"/>
<path d="M15.0024 21.7502C14.9224 21.7502 14.8424 21.7402 14.7624 21.7102C14.3724 21.5802 14.1524 21.1502 14.2924 20.7602C16.1724 15.1102 16.1724 8.89018 14.2924 3.23018C14.1624 2.84018 14.3724 2.41018 14.7624 2.28018C15.1624 2.15018 15.5824 2.36018 15.7124 2.75018C17.7024 8.71018 17.7024 15.2702 15.7124 21.2202C15.6124 21.5502 15.3124 21.7502 15.0024 21.7502Z" fill="#292D32"/>
<path d="M12 17.1998C9.21 17.1998 6.43 16.8098 3.75 16.0198C3.74 16.4198 3.41 16.7498 3 16.7498C2.59 16.7498 2.25 16.4098 2.25 15.9998V14.9998C2.25 14.7598 2.37 14.5298 2.56 14.3898C2.76 14.2498 3.01 14.2098 3.24 14.2898C8.89 16.1698 15.12 16.1698 20.77 14.2898C21 14.2098 21.25 14.2498 21.45 14.3898C21.65 14.5298 21.76 14.7598 21.76 14.9998V15.9998C21.76 16.4098 21.42 16.7498 21.01 16.7498C20.6 16.7498 20.27 16.4298 20.26 16.0198C17.57 16.8098 14.79 17.1998 12 17.1998Z" fill="#292D32"/>
<path d="M21.0037 9.74986C20.9237 9.74986 20.8437 9.73986 20.7637 9.70986C15.1137 7.82986 8.88369 7.82986 3.23369 9.70986C2.83369 9.83986 2.41369 9.62986 2.28369 9.23986C2.16369 8.83986 2.37369 8.41986 2.76369 8.28986C8.72369 6.29986 15.2837 6.29986 21.2337 8.28986C21.6237 8.41986 21.8437 8.84986 21.7037 9.23986C21.6137 9.54986 21.3137 9.74986 21.0037 9.74986Z" fill="#292D32"/>
</svg>
