<svg width="24" height="24" viewBox="0 0 24 24" fill="none" xmlns="http://www.w3.org/2000/svg">
<path d="M12 22.75C6.07 22.75 1.25 17.93 1.25 12C1.25 6.07 6.07 1.25 12 1.25C17.93 1.25 22.75 6.07 22.75 12C22.75 12.41 22.41 12.75 22 12.75C21.59 12.75 21.25 12.41 21.25 12C21.25 6.9 17.1 2.75 12 2.75C6.9 2.75 2.75 6.9 2.75 12C2.75 17.1 6.9 21.25 12 21.25C12.41 21.25 12.75 21.59 12.75 22C12.75 22.41 12.41 22.75 12 22.75Z" fill="#292D32"/>
<path d="M9.00218 21.75H8.00218C7.59218 21.75 7.25218 21.41 7.25218 21C7.25218 20.59 7.57219 20.26 7.98219 20.25C6.41219 14.89 6.41219 9.11 7.98219 3.75C7.58219 3.74 7.25218 3.41 7.25218 3C7.25218 2.59 7.59218 2.25 8.00218 2.25H9.00218C9.24218 2.25 9.47216 2.37 9.61216 2.56C9.75216 2.76 9.79217 3.00999 9.71217 3.23999C7.83217 8.88999 7.83217 15.12 9.71217 20.77C9.79217 21 9.75216 21.25 9.61216 21.45C9.47216 21.65 9.24218 21.75 9.00218 21.75Z" fill="#292D32"/>
<path d="M16.4585 12.75C16.0485 12.75 15.7085 12.41 15.7085 12C15.7085 9.01996 15.2285 6.06995 14.2885 3.23995C14.1585 2.84995 14.3685 2.41994 14.7585 2.28994C15.1485 2.15994 15.5785 2.36997 15.7085 2.75997C16.6985 5.73997 17.2085 8.84996 17.2085 12C17.2085 12.41 16.8685 12.75 16.4585 12.75Z" fill="#292D32"/>
<path d="M12 17.2098C9.2 17.2098 6.43 16.8098 3.75 16.0198C3.74 16.4198 3.41 16.7498 3 16.7498C2.59 16.7498 2.25 16.4098 2.25 15.9998V14.9998C2.25 14.7598 2.37 14.5298 2.56 14.3898C2.75 14.2498 3.00999 14.2098 3.23999 14.2898C6.06999 15.2298 9.02 15.7098 12 15.7098C12.41 15.7098 12.75 16.0498 12.75 16.4598C12.75 16.8698 12.41 17.2098 12 17.2098Z" fill="#292D32"/>
<path d="M21.0007 9.74989C20.9207 9.74989 20.8407 9.73991 20.7607 9.70991C15.1107 7.82991 8.88068 7.82991 3.23068 9.70991C2.84068 9.83991 2.41067 9.62988 2.28067 9.23988C2.15067 8.84988 2.36067 8.41986 2.75067 8.28986C8.71067 6.29986 15.2707 6.29986 21.2207 8.28986C21.6107 8.41986 21.8207 8.84988 21.6907 9.23988C21.6107 9.54988 21.3107 9.74989 21.0007 9.74989Z" fill="#292D32"/>
<path d="M18.2635 22.7498C15.7835 22.7498 13.7734 20.7298 13.7734 18.2598C13.7734 15.7898 15.7935 13.7598 18.2635 13.7598C18.7635 13.7598 19.2635 13.8297 19.7335 13.9797C20.1335 14.0997 20.3535 14.5197 20.2335 14.9197C20.1135 15.3197 19.6935 15.5397 19.2935 15.4197C18.9635 15.3197 18.6135 15.2698 18.2635 15.2698C16.6135 15.2698 15.2734 16.6098 15.2734 18.2698C15.2734 19.9298 16.6135 21.2598 18.2635 21.2598C19.9135 21.2598 21.2534 19.9198 21.2534 18.2698C21.2534 17.6698 21.0834 17.0997 20.7534 16.6097C20.5234 16.2697 20.6134 15.7998 20.9634 15.5698C21.3034 15.3398 21.7734 15.4298 22.0034 15.7798C22.5034 16.5198 22.7635 17.3898 22.7635 18.2798C22.7535 20.7298 20.7335 22.7498 18.2635 22.7498Z" fill="#292D32"/>
<path d="M20.0432 15.5498C19.8332 15.5498 19.6232 15.4598 19.4732 15.2898L18.2232 13.8598C17.9532 13.5498 17.9832 13.0698 18.2932 12.7998C18.6032 12.5298 19.0732 12.5598 19.3532 12.8698L20.6032 14.2998C20.8732 14.6098 20.8432 15.0898 20.5332 15.3598C20.3932 15.4898 20.2232 15.5498 20.0432 15.5498Z" fill="#292D32"/>
<path d="M18.5805 16.6102C18.3505 16.6102 18.1205 16.5002 17.9705 16.3002C17.7305 15.9702 17.8005 15.5002 18.1305 15.2502L19.5905 14.1902C19.9205 13.9402 20.3905 14.0202 20.6405 14.3502C20.8805 14.6802 20.8105 15.1502 20.4805 15.4002L19.0205 16.4602C18.8905 16.5602 18.7405 16.6102 18.5805 16.6102Z" fill="#292D32"/>
</svg>
