<svg width="24" height="24" viewBox="0 0 24 24" fill="none" xmlns="http://www.w3.org/2000/svg">
<path d="M10 22.75H9C3.57 22.75 1.25 20.43 1.25 15V9C1.25 3.57 3.57 1.25 9 1.25H15C20.43 1.25 22.75 3.57 22.75 9V11C22.75 11.41 22.41 11.75 22 11.75C21.59 11.75 21.25 11.41 21.25 11V9C21.25 4.39 19.61 2.75 15 2.75H9C4.39 2.75 2.75 4.39 2.75 9V15C2.75 19.61 4.39 21.25 9 21.25H10C10.41 21.25 10.75 21.59 10.75 22C10.75 22.41 10.41 22.75 10 22.75Z" fill="#292D32"/>
<path d="M22.0013 9.25H2.03125C1.62125 9.25 1.28125 8.91 1.28125 8.5C1.28125 8.09 1.62125 7.75 2.03125 7.75H22.0013C22.4113 7.75 22.7513 8.09 22.7513 8.5C22.7513 8.91 22.4113 9.25 22.0013 9.25Z" fill="#292D32"/>
<path d="M12.0013 16.25H2.03125C1.62125 16.25 1.28125 15.91 1.28125 15.5C1.28125 15.09 1.62125 14.75 2.03125 14.75H12.0013C12.4113 14.75 12.7513 15.09 12.7513 15.5C12.7513 15.91 12.4113 16.25 12.0013 16.25Z" fill="#292D32"/>
<path d="M8.50781 22.74C8.09781 22.74 7.75781 22.4 7.75781 21.99V2.02002C7.75781 1.61002 8.09781 1.27002 8.50781 1.27002C8.91781 1.27002 9.25781 1.61002 9.25781 2.02002V21.99C9.25781 22.4 8.92781 22.74 8.50781 22.74Z" fill="#292D32"/>
<path d="M15.5078 12.74C15.0978 12.74 14.7578 12.4 14.7578 11.99V2.02002C14.7578 1.61002 15.0978 1.27002 15.5078 1.27002C15.9178 1.27002 16.2578 1.61002 16.2578 2.02002V11.99C16.2578 12.4 15.9278 12.74 15.5078 12.74Z" fill="#292D32"/>
<path d="M15.9531 22.7501C15.4131 22.7501 14.8831 22.5501 14.4631 22.1401L12.8731 20.5401C12.0631 19.7301 12.0631 18.4 12.8731 17.57L14.7831 15.6701C15.0731 15.3801 15.5531 15.3801 15.8431 15.6701L19.3431 19.1701C19.4831 19.3101 19.5631 19.5 19.5631 19.7C19.5631 19.9 19.4831 20.0901 19.3431 20.2301L17.4431 22.1301C17.0231 22.5401 16.4931 22.7501 15.9531 22.7501ZM15.3031 17.2701L13.9331 18.6401C13.7031 18.8701 13.7031 19.2601 13.9331 19.4901L15.5131 21.08C15.7431 21.31 16.1331 21.31 16.3631 21.08L17.7431 19.7101L15.3031 17.2701Z" fill="#292D32"/>
<path d="M18.8022 20.4498C18.6022 20.4498 18.4122 20.3699 18.2722 20.2299L14.7722 16.7299C14.4822 16.4399 14.4822 15.9599 14.7722 15.6699L17.5822 12.8499C18.4022 12.0299 19.7422 12.0299 20.5622 12.8499L22.1422 14.4398C22.5322 14.8298 22.7522 15.3599 22.7522 15.9299C22.7522 16.4999 22.5322 17.0199 22.1422 17.4199L19.3422 20.2299C19.1922 20.3799 19.0022 20.4498 18.8022 20.4498ZM16.3722 16.2098L18.8122 18.6499L21.0822 16.3699C21.1922 16.2599 21.2522 16.1098 21.2522 15.9398C21.2522 15.7798 21.1922 15.6199 21.0822 15.5099L19.5022 13.9199C19.2722 13.6899 18.8822 13.6899 18.6522 13.9199L16.3722 16.2098Z" fill="#292D32"/>
</svg>
