<svg width="24" height="24" viewBox="0 0 24 24" fill="none" xmlns="http://www.w3.org/2000/svg">
<path d="M10 22.75H9C3.57 22.75 1.25 20.43 1.25 15V9C1.25 3.57 3.57 1.25 9 1.25H15C20.43 1.25 22.75 3.57 22.75 9V11C22.75 11.41 22.41 11.75 22 11.75C21.59 11.75 21.25 11.41 21.25 11V9C21.25 4.39 19.61 2.75 15 2.75H9C4.39 2.75 2.75 4.39 2.75 9V15C2.75 19.61 4.39 21.25 9 21.25H10C10.41 21.25 10.75 21.59 10.75 22C10.75 22.41 10.41 22.75 10 22.75Z" fill="#292D32"/>
<path d="M22.0013 9.25H2.03125C1.62125 9.25 1.28125 8.91 1.28125 8.5C1.28125 8.09 1.62125 7.75 2.03125 7.75H22.0013C22.4113 7.75 22.7513 8.09 22.7513 8.5C22.7513 8.91 22.4113 9.25 22.0013 9.25Z" fill="#292D32"/>
<path d="M12.0013 16.25H2.03125C1.62125 16.25 1.28125 15.91 1.28125 15.5C1.28125 15.09 1.62125 14.75 2.03125 14.75H12.0013C12.4113 14.75 12.7513 15.09 12.7513 15.5C12.7513 15.91 12.4113 16.25 12.0013 16.25Z" fill="#292D32"/>
<path d="M8.50781 22.74C8.09781 22.74 7.75781 22.4 7.75781 21.99V2.02002C7.75781 1.61002 8.09781 1.27002 8.50781 1.27002C8.91781 1.27002 9.25781 1.61002 9.25781 2.02002V21.99C9.25781 22.4 8.92781 22.74 8.50781 22.74Z" fill="#292D32"/>
<path d="M15.5078 12.74C15.0978 12.74 14.7578 12.4 14.7578 11.99V2.02002C14.7578 1.61002 15.0978 1.27002 15.5078 1.27002C15.9178 1.27002 16.2578 1.61002 16.2578 2.02002V11.99C16.2578 12.4 15.9278 12.74 15.5078 12.74Z" fill="#292D32"/>
<path d="M20.4016 17.95C19.9916 17.95 19.6516 17.61 19.6516 17.2V16.4C19.6516 15.28 19.4016 14.75 18.0016 14.75C16.6016 14.75 16.3516 15.28 16.3516 16.4V17.2C16.3516 17.61 16.0116 17.95 15.6016 17.95C15.1916 17.95 14.8516 17.61 14.8516 17.2V16.4C14.8516 14.31 15.9116 13.25 18.0016 13.25C20.0916 13.25 21.1516 14.31 21.1516 16.4V17.2C21.1516 17.61 20.8116 17.95 20.4016 17.95Z" fill="#292D32"/>
<path d="M20 22.7502H16C14 22.7502 13.25 22.0002 13.25 20.0002V19.2002C13.25 17.2002 14 16.4502 16 16.4502H20C22 16.4502 22.75 17.2002 22.75 19.2002V20.0002C22.75 22.0002 22 22.7502 20 22.7502ZM16 17.9502C14.81 17.9502 14.75 18.0102 14.75 19.2002V20.0002C14.75 21.1802 14.82 21.2502 16 21.2502H20C21.18 21.2502 21.25 21.1802 21.25 20.0002V19.2002C21.25 18.0102 21.19 17.9502 20 17.9502H16Z" fill="#292D32"/>
</svg>
