<svg width="24" height="24" viewBox="0 0 24 24" fill="none" xmlns="http://www.w3.org/2000/svg">
<path d="M15 22.75H9C3.57 22.75 1.25 20.43 1.25 15V9C1.25 3.57 3.57 1.25 9 1.25H15C20.43 1.25 22.75 3.57 22.75 9V15C22.75 20.43 20.43 22.75 15 22.75ZM9 2.75C4.39 2.75 2.75 4.39 2.75 9V15C2.75 19.61 4.39 21.25 9 21.25H15C19.61 21.25 21.25 19.61 21.25 15V9C21.25 4.39 19.61 2.75 15 2.75H9Z" fill="#292D32"/>
<path d="M22.0012 9.25H2.03125C1.62125 9.25 1.28125 8.91 1.28125 8.5C1.28125 8.09 1.62125 7.75 2.03125 7.75H22.0012C22.4112 7.75 22.7512 8.09 22.7512 8.5C22.7512 8.91 22.4112 9.25 22.0012 9.25Z" fill="#292D32"/>
<path d="M22.0012 16.25H2.03125C1.62125 16.25 1.28125 15.91 1.28125 15.5C1.28125 15.09 1.62125 14.75 2.03125 14.75H22.0012C22.4112 14.75 22.7512 15.09 22.7512 15.5C22.7512 15.91 22.4112 16.25 22.0012 16.25Z" fill="#292D32"/>
<path d="M8.50781 22.7398C8.09781 22.7398 7.75781 22.3998 7.75781 21.9898V2.00977C7.75781 1.59977 8.09781 1.25977 8.50781 1.25977C8.91781 1.25977 9.25781 1.59977 9.25781 2.00977V21.9798C9.25781 22.3998 8.92781 22.7398 8.50781 22.7398Z" fill="#292D32"/>
<path d="M15.5078 22.7398C15.0978 22.7398 14.7578 22.3998 14.7578 21.9898V2.00977C14.7578 1.59977 15.0978 1.25977 15.5078 1.25977C15.9178 1.25977 16.2578 1.59977 16.2578 2.00977V21.9798C16.2578 22.3998 15.9278 22.7398 15.5078 22.7398Z" fill="#292D32"/>
</svg>
