<svg width="24" height="24" viewBox="0 0 24 24" fill="none" xmlns="http://www.w3.org/2000/svg">
<path d="M11.9688 22.75C6.04875 22.75 1.21875 17.93 1.21875 12C1.21875 6.07 6.04875 1.25 11.9688 1.25C17.8888 1.25 22.7188 6.07 22.7188 12C22.7188 17.93 17.8988 22.75 11.9688 22.75ZM11.9688 2.75C6.86875 2.75 2.71875 6.9 2.71875 12C2.71875 17.1 6.86875 21.25 11.9688 21.25C17.0688 21.25 21.2188 17.1 21.2188 12C21.2188 6.9 17.0688 2.75 11.9688 2.75Z" fill="#292D32"/>
<path d="M12.0038 19.2499C9.85379 19.2499 7.83379 18.1999 6.60379 16.4299C6.36379 16.0899 6.45379 15.6199 6.79379 15.3899C7.13379 15.1499 7.60379 15.2399 7.83379 15.5799C8.78379 16.9399 10.3438 17.7599 12.0038 17.7599C13.6638 17.7599 15.2238 16.9499 16.1738 15.5799C16.4138 15.2399 16.8738 15.1599 17.2138 15.3899C17.5538 15.6299 17.6338 16.0899 17.4038 16.4299C16.1738 18.1999 14.1538 19.2499 12.0038 19.2499Z" fill="#292D32"/>
</svg>
