<svg width="24" height="24" viewBox="0 0 24 24" fill="none" xmlns="http://www.w3.org/2000/svg">
<path d="M15.2566 22.2498H8.73656C3.82656 22.2498 1.72656 20.1498 1.72656 15.2398V15.1098C1.72656 10.6698 3.47656 8.52978 7.39656 8.15978C7.79656 8.12978 8.17656 8.42978 8.21656 8.83978C8.25656 9.24978 7.95656 9.61978 7.53656 9.65978C4.39656 9.94978 3.22656 11.4298 3.22656 15.1198V15.2498C3.22656 19.3198 4.66656 20.7598 8.73656 20.7598H15.2566C19.3266 20.7598 20.7666 19.3198 20.7666 15.2498V15.1198C20.7666 11.4098 19.5766 9.92978 16.3766 9.65978C15.9666 9.61978 15.6566 9.25978 15.6966 8.84978C15.7366 8.43978 16.0866 8.12978 16.5066 8.16978C20.4866 8.50978 22.2666 10.6598 22.2666 15.1298V15.2598C22.2666 20.1498 20.1666 22.2498 15.2566 22.2498Z" fill="#292D32"/>
<path d="M12 15.63C11.59 15.63 11.25 15.29 11.25 14.88V2C11.25 1.59 11.59 1.25 12 1.25C12.41 1.25 12.75 1.59 12.75 2V14.88C12.75 15.3 12.41 15.63 12 15.63Z" fill="#292D32"/>
<path d="M12.0038 16.7498C11.8138 16.7498 11.6238 16.6798 11.4738 16.5298L8.12375 13.1798C7.83375 12.8898 7.83375 12.4098 8.12375 12.1198C8.41375 11.8298 8.89375 11.8298 9.18375 12.1198L12.0038 14.9398L14.8238 12.1198C15.1137 11.8298 15.5938 11.8298 15.8838 12.1198C16.1738 12.4098 16.1738 12.8898 15.8838 13.1798L12.5338 16.5298C12.3837 16.6798 12.1938 16.7498 12.0038 16.7498Z" fill="#292D32"/>
</svg>
