<svg width="24" height="24" viewBox="0 0 24 24" fill="none" xmlns="http://www.w3.org/2000/svg">
<path d="M20.01 19.26C19.82 19.26 19.63 19.19 19.48 19.04L14.53 14.09C14.24 13.8 14.24 13.32 14.53 13.03C14.82 12.74 15.3 12.74 15.59 13.03L20.54 17.98C20.83 18.27 20.83 18.75 20.54 19.04C20.39 19.19 20.2 19.26 20.01 19.26Z" fill="#292D32"/>
<path d="M10.1075 18.4302C9.37751 18.4302 8.67751 18.1402 8.16751 17.6202L3.9275 13.3802C2.8575 12.3102 2.8575 10.5602 3.9275 9.49015L10.9975 2.42018C12.0675 1.35018 13.8175 1.35018 14.8875 2.42018L19.1275 6.66017C19.6475 7.18017 19.9375 7.87017 19.9375 8.60017C19.9375 9.33017 19.6475 10.0302 19.1275 10.5402L12.0575 17.6101C11.5375 18.1501 10.8475 18.4302 10.1075 18.4302ZM12.9375 3.12016C12.6175 3.12016 12.2975 3.24015 12.0575 3.49015L4.98751 10.5602C4.49751 11.0502 4.49751 11.8401 4.98751 12.3301L9.2275 16.5702C9.6975 17.0402 10.5175 17.0402 10.9975 16.5702L18.0675 9.50016C18.3075 9.26016 18.4375 8.95016 18.4375 8.62016C18.4375 8.29016 18.3075 7.97015 18.0675 7.74015L13.8275 3.50016C13.5775 3.24016 13.2575 3.12016 12.9375 3.12016Z" fill="#292D32"/>
<path d="M8 21.75H2C1.59 21.75 1.25 21.41 1.25 21C1.25 20.59 1.59 20.25 2 20.25H8C8.41 20.25 8.75 20.59 8.75 21C8.75 21.41 8.41 21.75 8 21.75Z" fill="#292D32"/>
<path d="M13.63 15.7398C13.44 15.7398 13.25 15.6698 13.1 15.5198L6.03 8.44986C5.74 8.15986 5.74 7.67986 6.03 7.38986C6.32 7.09986 6.8 7.09986 7.09 7.38986L14.16 14.4598C14.45 14.7498 14.45 15.2298 14.16 15.5198C14.02 15.6698 13.82 15.7398 13.63 15.7398Z" fill="#292D32"/>
</svg>
