<svg width="24" height="24" viewBox="0 0 24 24" fill="none" xmlns="http://www.w3.org/2000/svg">
<path d="M15 22.75H9C3.57 22.75 1.25 20.43 1.25 15V9C1.25 3.57 3.57 1.25 9 1.25H15C20.43 1.25 22.75 3.57 22.75 9V15C22.75 20.43 20.43 22.75 15 22.75ZM9 2.75C4.39 2.75 2.75 4.39 2.75 9V15C2.75 19.61 4.39 21.25 9 21.25H15C19.61 21.25 21.25 19.61 21.25 15V9C21.25 4.39 19.61 2.75 15 2.75H9Z" fill="#292D32"/>
<path d="M8.8117 18.2498C8.7417 18.2498 8.6617 18.2498 8.5917 18.2298L7.4017 18.0698C6.6817 17.9698 6.0517 17.3498 5.9417 16.6098L5.7717 15.3998C5.7017 14.9198 5.9017 14.3098 6.2517 13.9498L8.5317 11.6698C8.1917 10.0498 8.6817 8.36982 9.8717 7.18982C11.7817 5.27982 14.9017 5.27982 16.8117 7.18982C17.7417 8.11982 18.2517 9.34982 18.2517 10.6598C18.2517 11.9698 17.7417 13.2098 16.8117 14.1298C15.6217 15.3098 13.9417 15.7998 12.3317 15.4598L10.0417 17.7398C9.7517 18.0498 9.2617 18.2498 8.8117 18.2498ZM13.3417 7.24982C12.4717 7.24982 11.5917 7.57982 10.9317 8.24982C10.0317 9.14982 9.7117 10.4598 10.0817 11.6798C10.1617 11.9498 10.0917 12.2298 9.8917 12.4298L7.3117 15.0098C7.2917 15.0398 7.2517 15.1498 7.2517 15.1898L7.4217 16.3898C7.4317 16.4498 7.5417 16.5598 7.6017 16.5698L8.8017 16.7398C8.8517 16.7298 8.9517 16.7098 8.9817 16.6798L11.5717 14.0898C11.7717 13.8898 12.0617 13.8298 12.3217 13.9098C13.5317 14.2898 14.8417 13.9698 15.7417 13.0698C16.3817 12.4298 16.7417 11.5698 16.7417 10.6598C16.7417 9.74982 16.3917 8.88982 15.7417 8.24982C15.0917 7.58982 14.2117 7.24982 13.3417 7.24982Z" fill="#292D32"/>
<path d="M10.4512 17.0299C10.2612 17.0299 10.0712 16.9599 9.92125 16.8099L9.06125 15.9499C8.77125 15.6599 8.77125 15.1799 9.06125 14.8899C9.35125 14.5999 9.83125 14.5999 10.1212 14.8899L10.9812 15.7499C11.2712 16.0399 11.2712 16.5199 10.9812 16.8099C10.8412 16.9599 10.6512 17.0299 10.4512 17.0299Z" fill="#292D32"/>
<path d="M13.3772 11.8001C13.2372 11.8001 13.1072 11.7801 12.9872 11.7301C12.8672 11.6801 12.7572 11.6001 12.6672 11.5101C12.4772 11.3201 12.3672 11.0701 12.3672 10.8001C12.3672 10.5401 12.4772 10.2801 12.6672 10.1001C12.8972 9.86012 13.2472 9.75012 13.5672 9.82012C13.6272 9.84012 13.6972 9.85012 13.7572 9.88012C13.8172 9.91012 13.8772 9.94012 13.9272 9.97012C13.9772 10.0101 14.0372 10.0501 14.0772 10.1001C14.2672 10.2801 14.3772 10.5401 14.3772 10.8001C14.3772 10.9401 14.3472 11.0601 14.2972 11.1901C14.2472 11.3101 14.1772 11.4201 14.0772 11.5101C13.8872 11.7001 13.6372 11.8001 13.3772 11.8001Z" fill="#292D32"/>
</svg>
