<svg width="24" height="24" viewBox="0 0 24 24" fill="none" xmlns="http://www.w3.org/2000/svg">
<path d="M12.0004 13.8499C11.8704 13.8499 11.7404 13.8199 11.6304 13.7499C11.2704 13.5399 11.1504 13.0799 11.3504 12.7299L12.2004 11.2499H11.3604C10.8604 11.2499 10.4504 11.0299 10.2304 10.6599C10.0104 10.2799 10.0304 9.8199 10.2804 9.3799L11.3504 7.5199C11.5604 7.1599 12.0204 7.0399 12.3704 7.2399C12.7304 7.4499 12.8504 7.9099 12.6504 8.2599L11.8004 9.7499H12.6404C13.1404 9.7499 13.5504 9.9699 13.7704 10.3399C13.9904 10.7199 13.9704 11.1799 13.7204 11.6199L12.6504 13.4799C12.5104 13.7199 12.2604 13.8499 12.0004 13.8499Z" fill="#292D32"/>
<path d="M14.7672 19.7498H9.25719C8.81719 19.7498 8.25719 19.6998 7.88719 19.3198C7.52719 18.9498 7.53719 18.4898 7.54719 18.1798V17.2898C5.02719 15.6098 3.36719 12.6898 3.36719 9.9098C3.36719 7.2798 4.54719 4.8198 6.59719 3.1698C8.64719 1.5198 11.3372 0.899803 13.9672 1.4798C16.4672 2.0298 18.6272 3.6998 19.7472 5.9498C21.9172 10.3198 19.8272 15.0498 16.4872 17.2998V18.0498C16.4972 18.3398 16.5072 18.8698 16.0972 19.2898C15.7872 19.5898 15.3472 19.7498 14.7672 19.7498ZM9.03719 18.2398C9.08719 18.2398 9.15719 18.2498 9.24719 18.2498H14.7672C14.8672 18.2498 14.9372 18.2398 14.9772 18.2298C14.9772 18.1998 14.9772 18.1598 14.9772 18.1298V16.8698C14.9772 16.6098 15.1172 16.3598 15.3372 16.2298C18.2972 14.4398 20.2572 10.3498 18.3872 6.5998C17.4672 4.7498 15.6872 3.3798 13.6272 2.9298C11.4472 2.4498 9.21719 2.9598 7.51719 4.3298C5.81719 5.6998 4.84719 7.7298 4.84719 9.9098C4.84719 12.6898 6.76719 15.0898 8.66719 16.2398C8.89719 16.3798 9.02719 16.6198 9.02719 16.8798V18.2298C9.03719 18.2298 9.03719 18.2298 9.03719 18.2398Z" fill="#292D32"/>
<path d="M15.5032 22.7499C15.4332 22.7499 15.3632 22.7399 15.2932 22.7199C13.1332 22.0999 10.8632 22.0999 8.70318 22.7199C8.30318 22.8299 7.89318 22.5999 7.77318 22.1999C7.65318 21.7999 7.89318 21.3899 8.29318 21.2699C10.7132 20.5799 13.2832 20.5799 15.7032 21.2699C16.1032 21.3799 16.3332 21.7999 16.2232 22.1999C16.1332 22.5399 15.8332 22.7499 15.5032 22.7499Z" fill="#292D32"/>
</svg>
