<svg width="24" height="24" viewBox="0 0 24 24" fill="none" xmlns="http://www.w3.org/2000/svg">
<path d="M4.17719 19.0799C3.98719 19.0799 3.79719 19.0099 3.64719 18.8599C3.35719 18.5699 3.35719 18.0899 3.64719 17.7999L19.4972 1.94992C19.7872 1.65992 20.2672 1.65992 20.5572 1.94992C20.8472 2.23992 20.8472 2.71992 20.5572 3.00992L4.70719 18.8599C4.55719 19.0099 4.36719 19.0799 4.17719 19.0799Z" fill="#292D32"/>
<path d="M5.25031 13.75C4.96031 13.75 4.69031 13.58 4.56031 13.3C4.07031 12.18 3.82031 11.04 3.82031 9.90001C3.82031 7.18001 5.00031 4.67001 7.05031 3.01001C8.97031 1.47001 11.3503 0.910008 13.7503 1.44001C15.3303 1.79001 16.7703 2.62001 17.9003 3.84001C18.1803 4.14001 18.1603 4.62001 17.8603 4.90001C17.5603 5.18001 17.0803 5.16001 16.8003 4.86001C15.8703 3.86001 14.7103 3.18001 13.4303 2.90001C11.4803 2.48001 9.55031 2.93001 8.00031 4.18001C6.30031 5.55001 5.33031 7.63001 5.33031 9.90001C5.33031 10.83 5.54031 11.77 5.94031 12.7C6.11031 13.08 5.93031 13.52 5.55031 13.69C5.45031 13.73 5.35031 13.75 5.25031 13.75Z" fill="#292D32"/>
<path d="M14.6116 19.7502H9.42156C9.03156 19.7502 8.48156 19.7102 8.11156 19.3302C7.75156 18.9602 7.76156 18.4902 7.77156 18.1802V17.2702C7.37156 16.9902 6.99156 16.6702 6.63156 16.3102C6.34156 16.0202 6.34156 15.5402 6.63156 15.2502C6.92156 14.9602 7.40156 14.9602 7.69156 15.2502C8.08156 15.6302 8.49156 15.9702 8.92156 16.2502C9.13156 16.3902 9.27156 16.6302 9.27156 16.8802V18.2202C9.27156 18.2302 9.27156 18.2402 9.27156 18.2502C9.31156 18.2502 9.36156 18.2502 9.43156 18.2502H14.6216C14.6916 18.2502 14.7416 18.2502 14.7816 18.2402C14.7816 18.2002 14.7816 18.1602 14.7816 18.1302V16.8702C14.7816 16.6102 14.9116 16.3802 15.1316 16.2402C17.6016 14.6602 19.5016 11.1602 18.3616 7.5302C18.2416 7.1302 18.4616 6.7102 18.8516 6.5902C19.2416 6.4602 19.6716 6.69019 19.7916 7.08019C21.1016 11.2602 19.0616 15.2902 16.2816 17.2702V18.0402C16.2916 18.3502 16.3016 18.8802 15.8916 19.3002C15.5816 19.6002 15.1616 19.7502 14.6116 19.7502Z" fill="#292D32"/>
<path d="M15.5032 22.7499C15.4332 22.7499 15.3632 22.7399 15.2932 22.7199C13.1332 22.0999 10.8632 22.0999 8.70318 22.7199C8.30318 22.8299 7.89318 22.5999 7.77318 22.1999C7.65318 21.7999 7.89318 21.3899 8.29318 21.2699C10.7132 20.5799 13.2832 20.5799 15.7032 21.2699C16.1032 21.3799 16.3332 21.7999 16.2232 22.1999C16.1332 22.5399 15.8332 22.7499 15.5032 22.7499Z" fill="#292D32"/>
</svg>
