<svg width="24" height="24" viewBox="0 0 24 24" fill="none" xmlns="http://www.w3.org/2000/svg">
<path d="M20.7787 19.3402H3.21875C2.80875 19.3402 2.46875 19.0002 2.46875 18.5902V13.6502C2.46875 8.43018 6.71875 4.18018 11.9388 4.18018H12.0587C17.2787 4.18018 21.5287 8.43018 21.5287 13.6502V18.5902C21.5287 19.0002 21.1887 19.3402 20.7787 19.3402ZM3.96875 17.8402H20.0287V13.6502C20.0287 9.25018 16.4487 5.68018 12.0587 5.68018H11.9388C7.53875 5.68018 3.96875 9.26018 3.96875 13.6502V17.8402Z" fill="#292D32"/>
<path d="M12 5.67999C11.59 5.67999 11.25 5.33999 11.25 4.92999V2C11.25 1.59 11.59 1.25 12 1.25C12.41 1.25 12.75 1.59 12.75 2V4.92999C12.75 5.33999 12.41 5.67999 12 5.67999Z" fill="#292D32"/>
<path d="M12.0025 22.7498C9.6925 22.7498 7.7625 20.9398 7.6025 18.6398C7.5925 18.4298 7.66248 18.2298 7.80248 18.0798C7.94248 17.9298 8.1425 17.8398 8.3525 17.8398H15.6525C15.8625 17.8398 16.0625 17.9298 16.2025 18.0798C16.3425 18.2298 16.4125 18.4398 16.4025 18.6398C16.2425 20.9398 14.3125 22.7498 12.0025 22.7498ZM9.27249 19.3398C9.68249 20.4598 10.7625 21.2498 12.0025 21.2498C13.2425 21.2498 14.3225 20.4598 14.7325 19.3398H9.27249Z" fill="#292D32"/>
</svg>
