<svg width="24" height="24" viewBox="0 0 24 24" fill="none" xmlns="http://www.w3.org/2000/svg">
<path d="M11.9976 22.7501C6.91759 22.7501 2.48759 19.1401 1.46759 14.1701C1.38759 13.7601 1.64759 13.3701 2.04759 13.2801C2.45759 13.2001 2.84759 13.4601 2.93759 13.8601C3.81759 18.1401 7.62759 21.2501 11.9976 21.2501C16.3576 21.2501 20.1676 18.1601 21.0576 13.9001C21.1376 13.4901 21.5376 13.2301 21.9476 13.3201C22.3576 13.4001 22.6176 13.8001 22.5276 14.2101C21.4876 19.1501 17.0676 22.7501 11.9976 22.7501Z" fill="#292D32"/>
<path d="M21.8109 10.8102C21.4609 10.8102 21.1509 10.5603 21.0809 10.2003C20.2309 5.88026 16.4109 2.74023 12.0009 2.74023C7.62093 2.74023 3.81093 5.85025 2.94093 10.1302C2.86093 10.5402 2.46093 10.7902 2.05093 10.7102C1.64093 10.6302 1.38093 10.2303 1.47093 9.82025C2.49093 4.85025 6.92093 1.24023 12.0009 1.24023C17.1309 1.24023 21.5609 4.89025 22.5509 9.91025C22.6309 10.3202 22.3609 10.7103 21.9609 10.7903C21.9109 10.8103 21.8609 10.8102 21.8109 10.8102Z" fill="#292D32"/>
<path d="M12 14.25C10.76 14.25 9.75 13.24 9.75 12C9.75 10.76 10.76 9.75 12 9.75C13.24 9.75 14.25 10.76 14.25 12C14.25 13.24 13.24 14.25 12 14.25ZM12 11.25C11.59 11.25 11.25 11.59 11.25 12C11.25 12.41 11.59 12.75 12 12.75C12.41 12.75 12.75 12.41 12.75 12C12.75 11.59 12.41 11.25 12 11.25Z" fill="#292D32"/>
</svg>
