<svg width="24" height="24" viewBox="0 0 24 24" fill="none" xmlns="http://www.w3.org/2000/svg">
<path d="M9.95125 22.7499H7.78125C7.39125 22.7499 6.61125 22.6298 6.16125 22.1898L4.46125 20.8799L5.38125 19.6898L7.15125 21.0599C7.28125 21.1699 7.55125 21.2499 7.78125 21.2499H9.95125C10.3212 21.2499 10.7413 20.9399 10.8213 20.6199L12.2113 16.3899C12.2513 16.2899 12.2812 16.1399 12.2113 16.0299C12.1513 15.9399 12.0112 15.8899 11.8412 15.8899H9.55125C9.16125 15.8899 8.80125 15.7199 8.54125 15.4299C8.28125 15.1299 8.17125 14.7498 8.23125 14.3398L8.52125 12.4999C8.56125 12.3299 8.44125 12.1198 8.28125 12.0698C8.15125 12.0198 7.93125 12.1099 7.88125 12.1799L5.53125 15.6699L4.28125 14.8298L6.62125 11.3398C7.06125 10.6798 8.02125 10.3799 8.76125 10.6599C9.61125 10.9399 10.1713 11.8999 9.97125 12.7799L9.72125 14.3799H11.8112C12.4812 14.3799 13.0613 14.6599 13.4113 15.1599C13.7513 15.6399 13.8212 16.2699 13.6012 16.8699L12.2313 21.0299C12.0313 21.9699 11.0112 22.7499 9.95125 22.7499Z" fill="#292D32"/>
<path d="M3.71781 22.1199H3.14781C1.58781 22.1199 1.25781 21.1199 1.25781 20.2799V14.6799C1.25781 13.8399 1.58781 12.8398 3.14781 12.8398H3.71781C5.27781 12.8398 5.60781 13.8399 5.60781 14.6799V20.2799C5.60781 21.1199 5.27781 22.1199 3.71781 22.1199ZM2.78781 20.5798C2.79781 20.5798 2.89781 20.6199 3.13781 20.6199H3.70781C3.96781 20.6199 4.05781 20.5798 4.07781 20.5698C4.07781 20.5598 4.10781 20.4899 4.10781 20.2799V14.6799C4.10781 14.4699 4.07781 14.3899 4.06781 14.3799C4.06781 14.3999 3.96781 14.3398 3.71781 14.3398H3.14781C2.88781 14.3398 2.79781 14.3799 2.77781 14.3899C2.77781 14.3999 2.74781 14.4699 2.74781 14.6799V20.2799C2.74781 20.4899 2.77781 20.5698 2.78781 20.5798Z" fill="#292D32"/>
<path d="M15.8063 13.4399C15.6063 13.4399 15.4063 13.41 15.2163 13.34C14.3663 13.06 13.8063 12.1 14.0063 11.22L14.2563 9.62H12.1663C11.4963 9.62 10.9163 9.33997 10.5663 8.83997C10.2263 8.35997 10.1563 7.73 10.3763 7.13L11.7463 2.96997C11.9763 2.02997 13.0063 1.25 14.0563 1.25H16.2263C16.6163 1.25 17.3963 1.37006 17.8463 1.81006L19.5463 3.12L18.6263 4.31006L16.8563 2.93994C16.7263 2.82994 16.4563 2.75 16.2263 2.75H14.0563C13.6863 2.75 13.2663 3.06 13.1863 3.38L11.7963 7.60999C11.7563 7.70999 11.7263 7.85997 11.7963 7.96997C11.8563 8.05997 11.9963 8.10999 12.1663 8.10999H14.4563C14.8463 8.10999 15.2063 8.27995 15.4663 8.56995C15.7263 8.86995 15.8363 9.25003 15.7763 9.66003L15.4863 11.5C15.4463 11.67 15.5663 11.8801 15.7263 11.9301C15.8663 11.9801 16.0763 11.8999 16.1263 11.8199L18.4763 8.32996L19.7263 9.17004L17.3863 12.66C17.0263 13.14 16.4063 13.4399 15.8063 13.4399Z" fill="#292D32"/>
<path d="M20.8584 11.1599H20.2884C18.7284 11.1599 18.3984 10.1598 18.3984 9.31982V3.71985C18.3984 2.87985 18.7284 1.87988 20.2884 1.87988H20.8584C22.4184 1.87988 22.7484 2.87985 22.7484 3.71985V9.31982C22.7484 10.1598 22.4184 11.1599 20.8584 11.1599ZM19.9284 9.61987C19.9384 9.61987 20.0384 9.65991 20.2784 9.65991H20.8484C21.1084 9.65991 21.1984 9.61986 21.2184 9.60986C21.2184 9.59986 21.2484 9.52982 21.2484 9.31982V3.71985C21.2484 3.50985 21.2184 3.43992 21.2084 3.41992C21.2184 3.45992 21.1084 3.37988 20.8584 3.37988H20.2884C20.0284 3.37988 19.9384 3.41993 19.9184 3.42993C19.9184 3.43993 19.8884 3.50985 19.8884 3.71985V9.31982C19.8884 9.52982 19.9184 9.59987 19.9284 9.61987Z" fill="#292D32"/>
</svg>
