<svg width="24" height="24" viewBox="0 0 24 24" fill="none" xmlns="http://www.w3.org/2000/svg">
<path d="M16.5022 18.25H14.9922C14.5822 18.25 14.2422 17.91 14.2422 17.5C14.2422 17.09 14.5822 16.75 14.9922 16.75H16.5022C19.1222 16.75 21.2522 14.62 21.2522 12C21.2522 9.38 19.1222 7.25 16.5022 7.25H15.0022C14.5922 7.25 14.2522 6.91 14.2522 6.5C14.2522 6.09 14.5822 5.75 15.0022 5.75H16.5022C19.9522 5.75 22.7522 8.55 22.7522 12C22.7522 15.45 19.9522 18.25 16.5022 18.25Z" fill="#292D32"/>
<path d="M9 18.25H7.5C4.05 18.25 1.25 15.45 1.25 12C1.25 8.55 4.05 5.75 7.5 5.75H9C9.41 5.75 9.75 6.09 9.75 6.5C9.75 6.91 9.41 7.25 9 7.25H7.5C4.88 7.25 2.75 9.38 2.75 12C2.75 14.62 4.88 16.75 7.5 16.75H9C9.41 16.75 9.75 17.09 9.75 17.5C9.75 17.91 9.41 18.25 9 18.25Z" fill="#292D32"/>
<path d="M16 12.75H8C7.59 12.75 7.25 12.41 7.25 12C7.25 11.59 7.59 11.25 8 11.25H16C16.41 11.25 16.75 11.59 16.75 12C16.75 12.41 16.41 12.75 16 12.75Z" fill="#292D32"/>
</svg>
