<svg width="24" height="24" viewBox="0 0 24 24" fill="none" xmlns="http://www.w3.org/2000/svg">
<path d="M12.0016 22.76C10.5216 22.76 9.03164 22.2 7.87164 21.09C4.92164 18.25 1.66164 13.72 2.89164 8.33C4.00164 3.44 8.27164 1.25 12.0016 1.25C12.0016 1.25 12.0016 1.25 12.0116 1.25C15.7416 1.25 20.0116 3.44 21.1216 8.34C22.3416 13.73 19.0816 18.25 16.1316 21.09C14.9716 22.2 13.4816 22.76 12.0016 22.76ZM12.0016 2.75C9.09164 2.75 5.35164 4.3 4.36164 8.66C3.28164 13.37 6.24164 17.43 8.92164 20C10.6516 21.67 13.3616 21.67 15.0916 20C17.7616 17.43 20.7216 13.37 19.6616 8.66C18.6616 4.3 14.9116 2.75 12.0016 2.75Z" fill="#292D32"/>
<path d="M13.9966 13.7099C13.8066 13.7099 13.6166 13.6399 13.4666 13.4899L9.50656 9.52994C9.21656 9.23994 9.21656 8.75994 9.50656 8.46994C9.79656 8.17994 10.2766 8.17994 10.5666 8.46994L14.5266 12.4299C14.8166 12.7199 14.8166 13.1999 14.5266 13.4899C14.3766 13.6299 14.1866 13.7099 13.9966 13.7099Z" fill="#292D32"/>
<path d="M9.9975 13.75C9.8075 13.75 9.6175 13.68 9.4675 13.53C9.1775 13.24 9.1775 12.76 9.4675 12.47L13.4275 8.50998C13.7175 8.21998 14.1975 8.21998 14.4875 8.50998C14.7775 8.79998 14.7775 9.27998 14.4875 9.56998L10.5275 13.53C10.3775 13.68 10.1875 13.75 9.9975 13.75Z" fill="#292D32"/>
</svg>
