<svg width="24" height="24" viewBox="0 0 24 24" fill="none" xmlns="http://www.w3.org/2000/svg">
<path d="M12.0016 22.76C10.5216 22.76 9.03164 22.2 7.87164 21.09C4.92164 18.25 1.66164 13.72 2.89164 8.33C4.00164 3.44 8.27164 1.25 12.0016 1.25C12.0016 1.25 12.0016 1.25 12.0116 1.25C15.7416 1.25 20.0116 3.44 21.1216 8.34C22.3416 13.73 19.0816 18.25 16.1316 21.09C14.9716 22.2 13.4816 22.76 12.0016 22.76ZM12.0016 2.75C9.09164 2.75 5.35164 4.3 4.36164 8.66C3.28164 13.37 6.24164 17.43 8.92164 20C10.6516 21.67 13.3616 21.67 15.0916 20C17.7616 17.43 20.7216 13.37 19.6616 8.66C18.6616 4.3 14.9116 2.75 12.0016 2.75Z" fill="#292D32"/>
<path d="M10.7475 13.7499C10.5575 13.7499 10.3675 13.6799 10.2175 13.5299L8.7175 12.0299C8.4275 11.7399 8.4275 11.2599 8.7175 10.9699C9.0075 10.6799 9.4875 10.6799 9.7775 10.9699L10.7475 11.9399L14.2175 8.46994C14.5075 8.17994 14.9875 8.17994 15.2775 8.46994C15.5675 8.75994 15.5675 9.23994 15.2775 9.52994L11.2775 13.5299C11.1275 13.6799 10.9375 13.7499 10.7475 13.7499Z" fill="#292D32"/>
</svg>
