<svg width="24" height="24" viewBox="0 0 24 24" fill="none" xmlns="http://www.w3.org/2000/svg">
<path d="M10.4228 13.7502C10.2928 13.7502 10.1628 13.7202 10.0428 13.6502C8.86281 12.9602 8.13281 11.6802 8.13281 10.3202C8.13281 8.1902 9.86281 6.4502 12.0028 6.4502C13.3728 6.4502 14.6528 7.1802 15.3428 8.3702C15.5528 8.7302 15.4328 9.1902 15.0728 9.4002C14.7128 9.6102 14.2528 9.4902 14.0428 9.1302C13.6228 8.3902 12.8428 7.9402 12.0028 7.9402C10.7028 7.9402 9.63281 9.0002 9.63281 10.3102C9.63281 11.1502 10.0828 11.9302 10.8028 12.3502C11.1628 12.5602 11.2828 13.0202 11.0728 13.3802C10.9328 13.6102 10.6828 13.7502 10.4228 13.7502Z" fill="#292D32"/>
<path d="M5.99072 18.5601C5.76072 18.5601 5.53073 18.4501 5.38073 18.2501C2.98073 14.9601 2.14073 11.6201 2.89073 8.32007C3.67073 4.89007 6.19072 2.35007 9.63072 1.52007C13.2307 0.650071 17.0107 1.82007 19.2407 4.49007C19.5107 4.81007 19.4607 5.28007 19.1507 5.55007C18.8307 5.82007 18.3607 5.77007 18.0907 5.45007C16.2207 3.21007 13.0407 2.24007 9.98072 2.97007C7.06072 3.67007 5.01073 5.74007 4.35072 8.64007C3.70072 11.5001 4.45073 14.4301 6.59073 17.3501C6.83073 17.6801 6.76073 18.1501 6.43072 18.4001C6.30072 18.5101 6.14072 18.5601 5.99072 18.5601Z" fill="#292D32"/>
<path d="M12.002 22.7598C10.522 22.7598 9.03202 22.1998 7.87202 21.0898C7.57202 20.7998 7.56202 20.3298 7.85202 20.0298C8.14202 19.7298 8.61202 19.7198 8.91202 20.0098C10.642 21.6798 13.352 21.6798 15.082 20.0098C17.752 17.4398 20.712 13.3798 19.652 8.66977C19.562 8.26977 19.812 7.85977 20.222 7.76977C20.622 7.67977 21.032 7.92977 21.122 8.33977C22.342 13.7298 19.082 18.2498 16.132 21.0898C14.972 22.1998 13.482 22.7598 12.002 22.7598Z" fill="#292D32"/>
<path d="M1.9975 22.7499C1.8075 22.7499 1.6175 22.6799 1.4675 22.5299C1.1775 22.2399 1.1775 21.7599 1.4675 21.4699L21.4675 1.46994C21.7575 1.17994 22.2375 1.17994 22.5275 1.46994C22.8175 1.75994 22.8175 2.23994 22.5275 2.52994L2.5275 22.5299C2.3775 22.6799 2.1875 22.7499 1.9975 22.7499Z" fill="#292D32"/>
</svg>
