<svg width="24" height="24" viewBox="0 0 24 24" fill="none" xmlns="http://www.w3.org/2000/svg">
<path d="M11.6772 15.3699C11.4872 15.3699 11.2972 15.2999 11.1472 15.1499C10.8572 14.8599 10.8572 14.3799 11.1472 14.0899L13.1772 12.0599L11.1472 10.0299C10.8572 9.73994 10.8572 9.25994 11.1472 8.96994C11.4372 8.67994 11.9172 8.67994 12.2072 8.96994L14.7672 11.5299C15.0572 11.8199 15.0572 12.2999 14.7672 12.5899L12.2072 15.1499C12.0672 15.2999 11.8672 15.3699 11.6772 15.3699Z" fill="#292D32"/>
<path d="M14.17 12.8101H4C3.59 12.8101 3.25 12.4701 3.25 12.0601C3.25 11.6501 3.59 11.3101 4 11.3101H14.17C14.58 11.3101 14.92 11.6501 14.92 12.0601C14.92 12.4701 14.58 12.8101 14.17 12.8101Z" fill="#292D32"/>
<path d="M12 20.75C11.59 20.75 11.25 20.41 11.25 20C11.25 19.59 11.59 19.25 12 19.25C16.27 19.25 19.25 16.27 19.25 12C19.25 7.73 16.27 4.75 12 4.75C11.59 4.75 11.25 4.41 11.25 4C11.25 3.59 11.59 3.25 12 3.25C17.15 3.25 20.75 6.85 20.75 12C20.75 17.15 17.15 20.75 12 20.75Z" fill="#292D32"/>
</svg>
