<svg width="24" height="24" viewBox="0 0 24 24" fill="none" xmlns="http://www.w3.org/2000/svg">
<path d="M13.0142 22.5C12.4142 22.5 11.4842 22.21 10.5942 20.75L8.83418 17.9C8.66418 17.62 8.14417 17.35 7.82417 17.37L4.48414 17.54C2.48414 17.64 1.78419 16.81 1.53419 16.31C1.28419 15.81 1.06415 14.74 2.36415 13.22L4.34419 10.92C4.54419 10.68 4.65416 10.16 4.56416 9.86002L3.55415 6.63004C3.04415 5.01004 3.61415 4.14004 3.99415 3.76004C4.37415 3.38004 5.25416 2.83003 6.87416 3.37003L9.82417 4.34003C10.0942 4.43003 10.5942 4.35003 10.8242 4.19003L13.9042 1.97003C15.3142 0.950032 16.3341 1.22003 16.8041 1.47003C17.2741 1.72003 18.0741 2.40005 18.0441 4.14005L17.9741 7.93002C17.9641 8.21002 18.1941 8.67003 18.4141 8.84003L20.8942 10.72C22.2442 11.75 22.2942 12.78 22.2042 13.31C22.1142 13.84 21.7142 14.8 20.0942 15.3L16.8641 16.31C16.5641 16.4 16.1941 16.79 16.1141 17.09L15.3442 20.03C14.8342 21.96 13.8342 22.39 13.2742 22.47C13.2042 22.49 13.1142 22.5 13.0142 22.5ZM7.85414 15.87C8.71414 15.87 9.66414 16.39 10.1041 17.11L11.8641 19.96C12.3641 20.78 12.8141 21.03 13.0541 20.99C13.2841 20.96 13.6442 20.58 13.8942 19.66L14.6641 16.72C14.8741 15.92 15.6241 15.13 16.4141 14.89L19.6442 13.88C20.2642 13.69 20.6641 13.38 20.7241 13.06C20.7841 12.74 20.5041 12.32 19.9841 11.92L17.5042 10.04C16.8942 9.58004 16.4542 8.66002 16.4642 7.90002L16.5342 4.11002C16.5442 3.44002 16.3842 2.94004 16.0942 2.79004C15.8042 2.64004 15.3142 2.79002 14.7642 3.18002L11.6842 5.40002C11.0742 5.84002 10.0642 6.00004 9.33418 5.76004L6.38417 4.79004C5.76417 4.59004 5.26419 4.60002 5.03419 4.83002C4.80419 5.06002 4.78413 5.56002 4.97413 6.18002L5.98414 9.41003C6.23414 10.2 6.01413 11.27 5.47413 11.89L3.49415 14.19C2.86415 14.92 2.76416 15.43 2.87416 15.64C2.97416 15.85 3.45419 16.08 4.40419 16.03L7.74415 15.86C7.78415 15.87 7.82414 15.87 7.85414 15.87Z" fill="#292D32"/>
<path d="M21.9103 22.7502C21.7203 22.7502 21.5303 22.6802 21.3803 22.5302L18.3503 19.5002C18.0603 19.2102 18.0603 18.7302 18.3503 18.4402C18.6403 18.1502 19.1203 18.1502 19.4103 18.4402L22.4403 21.4702C22.7303 21.7602 22.7303 22.2402 22.4403 22.5302C22.2903 22.6802 22.1003 22.7502 21.9103 22.7502Z" fill="#292D32"/>
</svg>
