<svg width="24" height="24" viewBox="0 0 24 24" fill="none" xmlns="http://www.w3.org/2000/svg">
<g clip-path="url(#clip0_21443_89069)">
<path d="M5.60174 17.4898L9.88548 22.3685C10.0059 22.5057 10.0662 22.5743 10.1249 22.631C10.6983 23.1855 11.5463 23.3463 12.2829 23.0402C12.3583 23.0088 12.4395 22.967 12.6018 22.8834C12.8051 22.7787 12.9067 22.7263 12.9881 22.674C13.792 22.156 14.1169 21.1414 13.7631 20.2528C13.7273 20.163 13.675 20.0612 13.5703 19.858L7.04418 7.18599M18.2637 10.4065C19.9822 9.52144 20.6579 7.41088 19.7729 5.69239C18.8878 3.9739 16.7773 3.29825 15.0588 4.18328M7.26643 7.07153L3.93258 8.78847C1.72309 9.92637 0.854393 12.64 1.99228 14.8494C3.13018 17.0589 5.84376 17.9276 8.05324 16.7897L11.3871 15.0728C12.9575 14.264 15.312 14.1165 17.2102 14.1612C18.3175 14.1872 18.8712 14.2002 19.1365 14.0197C19.3825 13.8523 19.5203 13.6322 19.5634 13.3378C19.6099 13.0204 19.3708 12.5561 18.8927 11.6277L14.4298 2.96201C13.9517 2.03361 13.7126 1.5694 13.4272 1.42288C13.1625 1.287 12.9032 1.27135 12.6241 1.3744C12.3231 1.48554 12.0122 1.94386 11.3903 2.86045C10.3243 4.43164 8.83681 6.26278 7.26643 7.07153Z" stroke="url(#paint0_linear_21443_89069)" stroke-linecap="round" stroke-linejoin="round"/>
</g>
<defs>
<linearGradient id="paint0_linear_21443_89069" x1="-0.879915" y1="8.58595" x2="26.2803" y2="8.59704" gradientUnits="userSpaceOnUse">
<stop offset="0.0001" stop-color="#7332D6"/>
<stop offset="0.50005" stop-color="#32155A"/>
<stop offset="1" stop-color="#5D28AC"/>
</linearGradient>
<clipPath id="clip0_21443_89069">
<rect width="24" height="24" fill="white"/>
</clipPath>
</defs>
</svg>
