<svg width="24" height="24" viewBox="0 0 24 24" fill="none" xmlns="http://www.w3.org/2000/svg">
<path d="M16.3809 22.7502H3.2409C2.2909 22.7502 1.41091 22.3103 0.840908 21.5403C0.260908 20.7603 0.0909169 19.7802 0.380917 18.8502L4.59091 5.32019C4.97091 4.06019 6.13092 3.2002 7.45092 3.2002H19.7509C20.9609 3.2002 22.0509 3.92028 22.5109 5.04028C22.7609 5.62028 22.8109 6.2803 22.6609 6.9303L19.2909 20.4602C18.9709 21.8102 17.7709 22.7502 16.3809 22.7502ZM7.4609 4.71021C6.8109 4.71021 6.22091 5.14026 6.03091 5.77026L1.82092 19.3003C1.68092 19.7703 1.76091 20.2603 2.06091 20.6603C2.34091 21.0403 2.78091 21.2603 3.25091 21.2603H16.3909C17.0809 21.2603 17.6809 20.7902 17.8409 20.1202L21.2109 6.5802C21.2909 6.2502 21.2709 5.92025 21.1409 5.63025C20.9009 5.06025 20.3709 4.7002 19.7609 4.7002H7.4609V4.71021Z" fill="#292D32"/>
<path d="M20.78 22.75H16C15.59 22.75 15.25 22.41 15.25 22C15.25 21.59 15.59 21.25 16 21.25H20.78C21.19 21.25 21.57 21.08 21.85 20.78C22.13 20.48 22.27 20.08 22.24 19.67L21.25 6.05002C21.22 5.64002 21.53 5.27997 21.94 5.24997C22.35 5.22997 22.71 5.52991 22.74 5.93991L23.73 19.56C23.79 20.38 23.5 21.2 22.94 21.8C22.39 22.41 21.6 22.75 20.78 22.75Z" fill="#292D32"/>
<path d="M9.68172 7.12971C9.62172 7.12971 9.56173 7.11969 9.50173 7.10969C9.10173 7.00969 8.85174 6.60966 8.95174 6.19966L9.99172 1.87971C10.0917 1.47971 10.4917 1.22966 10.9017 1.32966C11.3017 1.42966 11.5517 1.8297 11.4517 2.2397L10.4117 6.55977C10.3317 6.89977 10.0217 7.12971 9.68172 7.12971Z" fill="#292D32"/>
<path d="M16.3795 7.13974C16.3295 7.13974 16.2694 7.13972 16.2194 7.11972C15.8194 7.02972 15.5595 6.62971 15.6395 6.22971L16.5794 1.88974C16.6694 1.47974 17.0694 1.22979 17.4694 1.30979C17.8694 1.38979 18.1294 1.79968 18.0494 2.19968L17.1094 6.53977C17.0394 6.89977 16.7295 7.13974 16.3795 7.13974Z" fill="#292D32"/>
<path d="M15.7031 12.75H7.70312C7.29313 12.75 6.95312 12.41 6.95312 12C6.95312 11.59 7.29313 11.25 7.70312 11.25H15.7031C16.1131 11.25 16.4531 11.59 16.4531 12C16.4531 12.41 16.1131 12.75 15.7031 12.75Z" fill="#292D32"/>
<path d="M14.7031 16.75H6.70312C6.29313 16.75 5.95312 16.41 5.95312 16C5.95312 15.59 6.29313 15.25 6.70312 15.25H14.7031C15.1131 15.25 15.4531 15.59 15.4531 16C15.4531 16.41 15.1131 16.75 14.7031 16.75Z" fill="#292D32"/>
</svg>
