<svg width="24" height="24" viewBox="0 0 24 24" fill="none" xmlns="http://www.w3.org/2000/svg">
<path d="M15.9978 22.3199C15.6578 22.3199 15.3278 22.22 15.0378 22.03L10.7778 19.1899H8.88782C8.65782 19.1899 8.43779 19.08 8.29779 18.9C8.15779 18.71 8.10782 18.4699 8.16782 18.2499C8.22782 18.0099 8.25781 17.7699 8.25781 17.5099C8.25781 16.7099 7.95782 15.94 7.41782 15.34C6.80782 14.65 5.93781 14.2599 5.00781 14.2599C4.11781 14.2599 3.2978 14.6099 2.6778 15.2399C2.4878 15.4399 2.19781 15.5099 1.93781 15.4399C1.67781 15.3599 1.46781 15.1499 1.40781 14.8799C1.30781 14.4399 1.25781 13.9599 1.25781 13.4399V7.43994C1.25781 3.99994 3.56781 1.68994 7.00781 1.68994H17.0078C20.4478 1.68994 22.7578 3.99994 22.7578 7.43994V13.4399C22.7578 15.1099 22.2078 16.5499 21.1578 17.5999C20.2778 18.4799 19.1078 19.01 17.7578 19.15V20.5699C17.7578 21.2199 17.3978 21.8099 16.8278 22.1199C16.5578 22.2499 16.2778 22.3199 15.9978 22.3199ZM9.7478 17.6799H10.9978C11.1478 17.6799 11.2878 17.7199 11.4178 17.8099L15.8678 20.78C15.9778 20.85 16.0678 20.8199 16.1178 20.7899C16.1678 20.7599 16.2578 20.6999 16.2578 20.5599V18.4299C16.2578 18.0199 16.5978 17.6799 17.0078 17.6799C18.2778 17.6799 19.3478 17.28 20.0978 16.53C20.8578 15.77 21.2578 14.6999 21.2578 13.4299V7.42993C21.2578 4.84993 19.5878 3.17993 17.0078 3.17993H7.00781C4.42781 3.17993 2.75781 4.84993 2.75781 7.42993V13.3099C3.43781 12.9399 4.20781 12.7499 5.00781 12.7499C6.36781 12.7499 7.65781 13.33 8.53781 14.33C9.31781 15.2 9.75781 16.3199 9.75781 17.4999C9.74781 17.5599 9.7478 17.6199 9.7478 17.6799Z" fill="#292D32"/>
<path d="M5 22.25C2.38 22.25 0.25 20.12 0.25 17.5C0.25 16.04 0.899999 14.69 2.03 13.79C2.87 13.12 3.93 12.75 5 12.75C7.62 12.75 9.75 14.88 9.75 17.5C9.75 18.86 9.16 20.16 8.13 21.06C7.26 21.83 6.15 22.25 5 22.25ZM5 14.25C4.26 14.25 3.56 14.5 2.97 14.97C2.2 15.58 1.75 16.51 1.75 17.5C1.75 19.29 3.21 20.75 5 20.75C5.78 20.75 6.53999 20.46 7.14999 19.94C7.84999 19.32 8.25 18.44 8.25 17.5C8.25 15.71 6.79 14.25 5 14.25Z" fill="#292D32"/>
<path d="M3.99599 19.25C3.74599 19.25 3.49597 19.12 3.35597 18.89C3.14597 18.53 3.25598 18.07 3.61598 17.86L4.506 17.33V16.25C4.506 15.84 4.846 15.5 5.256 15.5C5.666 15.5 6.006 15.84 6.006 16.25V17.75C6.006 18.01 5.86598 18.26 5.64598 18.39L4.39598 19.14C4.25598 19.22 4.12599 19.25 3.99599 19.25Z" fill="#292D32"/>
<path d="M15.5 11.25H8.5C8.09 11.25 7.75 10.91 7.75 10.5C7.75 10.09 8.09 9.75 8.5 9.75H15.5C15.91 9.75 16.25 10.09 16.25 10.5C16.25 10.91 15.91 11.25 15.5 11.25Z" fill="#292D32"/>
</svg>
