<svg width="24" height="24" viewBox="0 0 24 24" fill="none" xmlns="http://www.w3.org/2000/svg">
<path d="M15.9978 22.3199C15.6578 22.3199 15.3278 22.22 15.0378 22.03L10.7778 19.1899H8.88782C8.65782 19.1899 8.43779 19.08 8.29779 18.9C8.15779 18.71 8.10782 18.4699 8.16782 18.2499C8.22782 18.0099 8.25781 17.7699 8.25781 17.5099C8.25781 16.7099 7.95782 15.94 7.41782 15.34C6.80782 14.65 5.93781 14.2599 5.00781 14.2599C4.11781 14.2599 3.2878 14.6099 2.6778 15.2399C2.4878 15.4399 2.19781 15.5199 1.93781 15.4399C1.67781 15.3599 1.46781 15.1499 1.40781 14.8799C1.30781 14.4399 1.25781 13.9599 1.25781 13.4399V7.43994C1.25781 3.99994 3.56781 1.68994 7.00781 1.68994H17.0078C20.4478 1.68994 22.7578 3.99994 22.7578 7.43994V13.4399C22.7578 15.1099 22.2078 16.5499 21.1578 17.5999C20.2778 18.4799 19.1078 19.01 17.7578 19.15V20.5699C17.7578 21.2199 17.3978 21.8099 16.8278 22.1199C16.5578 22.2499 16.2778 22.3199 15.9978 22.3199ZM9.7478 17.6799H10.9978C11.1478 17.6799 11.2878 17.7199 11.4178 17.8099L15.8678 20.78C15.9678 20.85 16.0678 20.8199 16.1178 20.7899C16.1678 20.7599 16.2578 20.6999 16.2578 20.5599V18.4299C16.2578 18.0199 16.5978 17.6799 17.0078 17.6799C18.2778 17.6799 19.3478 17.28 20.0978 16.53C20.8578 15.77 21.2578 14.6999 21.2578 13.4299V7.42993C21.2578 4.84993 19.5878 3.17993 17.0078 3.17993H7.00781C4.42781 3.17993 2.75781 4.84993 2.75781 7.42993V13.3099C3.43781 12.9399 4.20781 12.7499 5.00781 12.7499C6.36781 12.7499 7.65781 13.33 8.53781 14.33C9.31781 15.2 9.75781 16.3299 9.75781 17.4999C9.74781 17.5599 9.7478 17.6199 9.7478 17.6799Z" fill="#292D32"/>
<path d="M5 22.25C3.82 22.25 2.69999 21.81 1.82999 21.02C1.47999 20.72 1.16999 20.35 0.929993 19.94C0.489993 19.22 0.25 18.37 0.25 17.5C0.25 16.25 0.729996 15.08 1.59 14.19C2.49 13.26 3.7 12.75 5 12.75C6.36 12.75 7.65 13.33 8.53 14.33C9.31 15.2 9.75 16.33 9.75 17.5C9.75 17.88 9.70001 18.26 9.60001 18.62C9.50001 19.07 9.30999 19.54 9.04999 19.95C8.21999 21.37 6.66 22.25 5 22.25ZM5 14.25C4.11 14.25 3.28001 14.6 2.67001 15.23C2.08001 15.84 1.75 16.64 1.75 17.5C1.75 18.09 1.91 18.67 2.22 19.17C2.38 19.45 2.58999 19.7 2.82999 19.91C3.42999 20.46 4.2 20.76 5 20.76C6.15 20.76 7.19 20.17 7.78 19.19C7.96 18.91 8.07999 18.6 8.14999 18.28C8.21999 18.02 8.25 17.77 8.25 17.51C8.25 16.71 7.95 15.94 7.41 15.34C6.81 14.64 5.93 14.25 5 14.25Z" fill="#292D32"/>
<path d="M6.06845 19.2901C5.87845 19.2901 5.68845 19.2201 5.53845 19.0701L3.42844 16.9601C3.13844 16.6701 3.13844 16.1901 3.42844 15.9001C3.71844 15.6101 4.19844 15.6101 4.48844 15.9001L6.59845 18.0101C6.88845 18.3001 6.88845 18.7801 6.59845 19.0701C6.44845 19.2201 6.25845 19.2901 6.06845 19.2901Z" fill="#292D32"/>
<path d="M3.92719 19.3199C3.73719 19.3199 3.54719 19.2499 3.39719 19.0999C3.10719 18.8099 3.10719 18.3299 3.39719 18.0399L5.5072 15.9299C5.7972 15.6399 6.2772 15.6399 6.5672 15.9299C6.8572 16.2199 6.8572 16.6999 6.5672 16.9899L4.45719 19.0999C4.30719 19.2499 4.11719 19.3199 3.92719 19.3199Z" fill="#292D32"/>
<path d="M15.5 11.25H8.5C8.09 11.25 7.75 10.91 7.75 10.5C7.75 10.09 8.09 9.75 8.5 9.75H15.5C15.91 9.75 16.25 10.09 16.25 10.5C16.25 10.91 15.91 11.25 15.5 11.25Z" fill="#292D32"/>
</svg>
