<svg width="24" height="24" viewBox="0 0 24 24" fill="none" xmlns="http://www.w3.org/2000/svg">
<path d="M12 19.75C8.28 19.75 5.25 16.72 5.25 13V8C5.25 4.28 8.28 1.25 12 1.25C15.72 1.25 18.75 4.28 18.75 8V13C18.75 16.72 15.72 19.75 12 19.75ZM12 2.75C9.11 2.75 6.75 5.1 6.75 8V13C6.75 15.9 9.11 18.25 12 18.25C14.89 18.25 17.25 15.9 17.25 13V8C17.25 5.1 14.89 2.75 12 2.75Z" fill="#292D32"/>
<path d="M12 22.75C6.62 22.75 2.25 18.38 2.25 13V11C2.25 10.59 2.59 10.25 3 10.25C3.41 10.25 3.75 10.59 3.75 11V13C3.75 17.55 7.45 21.25 12 21.25C16.55 21.25 20.25 17.55 20.25 13V11C20.25 10.59 20.59 10.25 21 10.25C21.41 10.25 21.75 10.59 21.75 11V13C21.75 18.38 17.38 22.75 12 22.75Z" fill="#292D32"/>
<path d="M14.6118 8.22988C14.5318 8.22988 14.4418 8.21988 14.3518 8.18988C12.7418 7.60988 10.9718 7.60988 9.36183 8.18988C8.98183 8.32988 8.55183 8.12988 8.41183 7.73988C8.27183 7.34988 8.47183 6.91988 8.86183 6.77988C10.8018 6.07988 12.9318 6.07988 14.8718 6.77988C15.2618 6.91988 15.4618 7.34988 15.3218 7.73988C15.2118 8.04988 14.9218 8.22988 14.6118 8.22988Z" fill="#292D32"/>
<path d="M13.698 11.23C13.638 11.23 13.568 11.22 13.498 11.2C12.428 10.91 11.298 10.91 10.228 11.2C9.81797 11.31 9.41797 11.07 9.30797 10.67C9.19797 10.27 9.43797 9.85998 9.83797 9.74998C11.168 9.38998 12.568 9.38998 13.898 9.74998C14.298 9.85998 14.538 10.27 14.428 10.67C14.328 11.02 14.028 11.23 13.698 11.23Z" fill="#292D32"/>
</svg>
