<svg width="24" height="24" viewBox="0 0 24 24" fill="none" xmlns="http://www.w3.org/2000/svg">
<path d="M8 11.75C7.59 11.75 7.25 11.41 7.25 11V6C7.25 3.38 9.38 1.25 12 1.25C14.62 1.25 16.75 3.38 16.75 6V6.3C16.75 6.71 16.41 7.05 16 7.05C15.59 7.05 15.25 6.71 15.25 6.3V6C15.25 4.21 13.79 2.75 12 2.75C10.21 2.75 8.75 4.21 8.75 6V11C8.75 11.41 8.41 11.75 8 11.75Z" fill="#292D32"/>
<path d="M12.0026 16.25C10.6626 16.25 9.3826 15.68 8.4826 14.69C8.2026 14.38 8.2326 13.91 8.5326 13.63C8.8426 13.35 9.3126 13.38 9.5926 13.68C10.2026 14.36 11.0826 14.75 12.0026 14.75C13.7926 14.75 15.2526 13.29 15.2526 11.5V11C15.2526 10.59 15.5926 10.25 16.0026 10.25C16.4126 10.25 16.7526 10.59 16.7526 11V11.5C16.7526 14.12 14.6226 16.25 12.0026 16.25Z" fill="#292D32"/>
<path d="M11.9993 19.7499C9.86933 19.7499 7.82933 18.9499 6.26933 17.4999C5.96933 17.2199 5.94933 16.7399 6.22933 16.4399C6.51933 16.1299 6.99933 16.1199 7.29933 16.3999C8.57933 17.5899 10.2493 18.2499 11.9993 18.2499C15.7993 18.2499 18.8993 15.1499 18.8993 11.3499V9.6499C18.8993 9.2399 19.2393 8.8999 19.6493 8.8999C20.0593 8.8999 20.3993 9.2399 20.3993 9.6499V11.3499C20.3993 15.9799 16.6293 19.7499 11.9993 19.7499Z" fill="#292D32"/>
<path d="M4.95156 15.0799C4.66156 15.0799 4.38156 14.9099 4.26156 14.6199C3.82156 13.5799 3.60156 12.4899 3.60156 11.3499V9.6499C3.60156 9.2399 3.94156 8.8999 4.35156 8.8999C4.76156 8.8999 5.10156 9.2399 5.10156 9.6499V11.3499C5.10156 12.2799 5.28156 13.1799 5.64156 14.0299C5.80156 14.4099 5.62156 14.8499 5.24156 15.0099C5.15156 15.0599 5.05156 15.0799 4.95156 15.0799Z" fill="#292D32"/>
<path d="M3.91937 19.7398C3.72937 19.7398 3.53938 19.6698 3.38938 19.5198C3.09938 19.2298 3.09938 18.7498 3.38938 18.4598L19.5394 2.30979C19.8294 2.01979 20.3094 2.01979 20.5994 2.30979C20.8894 2.59979 20.8894 3.07979 20.5994 3.36979L4.45937 19.5198C4.30937 19.6698 4.11937 19.7398 3.91937 19.7398Z" fill="#292D32"/>
<path d="M11 6.75C10.59 6.75 10.25 6.41 10.25 6V3C10.25 2.59 10.59 2.25 11 2.25C11.41 2.25 11.75 2.59 11.75 3V6C11.75 6.41 11.41 6.75 11 6.75Z" fill="#292D32"/>
<path d="M12 22.75C11.59 22.75 11.25 22.41 11.25 22V19C11.25 18.59 11.59 18.25 12 18.25C12.41 18.25 12.75 18.59 12.75 19V22C12.75 22.41 12.41 22.75 12 22.75Z" fill="#292D32"/>
</svg>
