<svg width="24" height="24" viewBox="0 0 24 24" fill="none" xmlns="http://www.w3.org/2000/svg">
<path d="M7.39 17.59C7.18 17.59 6.96 17.5 6.81 17.32C5.8 16.11 5.25 14.58 5.25 13V8C5.25 4.28 8.28 1.25 12 1.25C15.1 1.25 17.79 3.35 18.55 6.35C18.65 6.75 18.41 7.16 18.01 7.26C17.62 7.36 17.2 7.12 17.1 6.72C16.5 4.38 14.41 2.75 12 2.75C9.11 2.75 6.75 5.1 6.75 8V13C6.75 14.23 7.18 15.42 7.96 16.36C8.23 16.68 8.18 17.15 7.86 17.42C7.73 17.53 7.56 17.59 7.39 17.59Z" fill="#292D32"/>
<path d="M12.0018 19.75C11.1918 19.75 10.4018 19.61 9.66179 19.33C9.27179 19.19 9.07179 18.75 9.22179 18.37C9.36179 17.98 9.80179 17.78 10.1818 17.93C10.7618 18.15 11.3818 18.26 12.0018 18.26C14.8918 18.26 17.2518 15.91 17.2518 13.01V9.97998C17.2518 9.56998 17.5918 9.22998 18.0018 9.22998C18.4118 9.22998 18.7518 9.56998 18.7518 9.97998V13C18.7518 16.72 15.7218 19.75 12.0018 19.75Z" fill="#292D32"/>
<path d="M11.9975 22.7502C9.51746 22.7502 7.15746 21.8202 5.34746 20.1302C5.04746 19.8502 5.02746 19.3702 5.30746 19.0702C5.58746 18.7702 6.06746 18.7502 6.36746 19.0302C7.89746 20.4602 9.89746 21.2402 11.9875 21.2402C16.5375 21.2402 20.2375 17.5402 20.2375 12.9902V10.9902C20.2375 10.5802 20.5775 10.2402 20.9875 10.2402C21.3975 10.2402 21.7375 10.5802 21.7375 10.9902V12.9902C21.7475 18.3802 17.3775 22.7502 11.9975 22.7502Z" fill="#292D32"/>
<path d="M2.4975 22.7402C2.3075 22.7402 2.1175 22.6702 1.9675 22.5202C1.6775 22.2302 1.6775 21.7502 1.9675 21.4602L20.9675 2.46018C21.2575 2.17018 21.7375 2.17018 22.0275 2.46018C22.3175 2.75018 22.3175 3.23018 22.0275 3.52018L3.0275 22.5202C2.8775 22.6702 2.6875 22.7402 2.4975 22.7402Z" fill="#292D32"/>
<path d="M11.5469 6.24977C11.1369 6.24977 10.7969 5.90977 10.7969 5.49977V2.25977C10.7969 1.84977 11.1369 1.50977 11.5469 1.50977C11.9569 1.50977 12.2969 1.84977 12.2969 2.25977V5.49977C12.2969 5.91977 11.9569 6.24977 11.5469 6.24977Z" fill="#292D32"/>
<path d="M8.5 8.25C8.09 8.25 7.75 7.91 7.75 7.5V3.5C7.75 3.09 8.09 2.75 8.5 2.75C8.91 2.75 9.25 3.09 9.25 3.5V7.5C9.25 7.91 8.91 8.25 8.5 8.25Z" fill="#292D32"/>
</svg>
