<svg width="24" height="24" viewBox="0 0 24 24" fill="none" xmlns="http://www.w3.org/2000/svg">
<path d="M11 22.75H9C3.57 22.75 1.25 20.43 1.25 15V9C1.25 3.57 3.57 1.25 9 1.25H15C20.43 1.25 22.75 3.57 22.75 9V10C22.75 10.41 22.41 10.75 22 10.75C21.59 10.75 21.25 10.41 21.25 10V9C21.25 4.39 19.61 2.75 15 2.75H9C4.39 2.75 2.75 4.39 2.75 9V15C2.75 19.61 4.39 21.25 9 21.25H11C11.41 21.25 11.75 21.59 11.75 22C11.75 22.41 11.41 22.75 11 22.75Z" fill="#292D32"/>
<path d="M15.2681 22.7501C14.0581 22.7501 13.0781 21.7701 13.0781 20.5601C13.0781 19.3501 14.0581 18.3701 15.2681 18.3701C16.4781 18.3701 17.4581 19.3501 17.4581 20.5601C17.4581 21.7701 16.4781 22.7501 15.2681 22.7501ZM15.2681 19.8601C14.8881 19.8601 14.5781 20.1701 14.5781 20.5501C14.5781 20.9301 14.8881 21.2401 15.2681 21.2401C15.6481 21.2401 15.9581 20.9301 15.9581 20.5501C15.9581 20.1701 15.6481 19.8601 15.2681 19.8601Z" fill="#292D32"/>
<path d="M16.7109 21.3098C16.3009 21.3098 15.9609 20.9698 15.9609 20.5598V14.7398C15.9609 13.8298 16.5209 13.0898 17.4009 12.8598L20.2909 12.0698C21.1909 11.8198 21.7509 12.0598 22.0709 12.2998C22.3809 12.5398 22.7509 13.0198 22.7509 13.9498V19.5898C22.7509 19.9998 22.4109 20.3398 22.0009 20.3398C21.5909 20.3398 21.2509 19.9998 21.2509 19.5898V13.9498C21.2509 13.6298 21.1809 13.5098 21.1509 13.4898C21.1209 13.4698 20.9809 13.4298 20.6709 13.5098L17.7809 14.2998C17.4809 14.3798 17.4509 14.5898 17.4509 14.7398V20.5598C17.4609 20.9698 17.1209 21.3098 16.7109 21.3098Z" fill="#292D32"/>
<path d="M20.5572 21.7902C19.3472 21.7902 18.3672 20.8102 18.3672 19.6002C18.3672 18.3902 19.3472 17.4102 20.5572 17.4102C21.7672 17.4102 22.7472 18.3902 22.7472 19.6002C22.7472 20.8102 21.7672 21.7902 20.5572 21.7902ZM20.5572 18.9002C20.1772 18.9002 19.8672 19.2102 19.8672 19.5902C19.8672 19.9702 20.1772 20.2802 20.5572 20.2802C20.9372 20.2802 21.2472 19.9702 21.2472 19.5902C21.2472 19.2102 20.9372 18.9002 20.5572 18.9002Z" fill="#292D32"/>
<path d="M16.7077 17.1799C16.3777 17.1799 16.0777 16.9599 15.9877 16.6299C15.8777 16.2299 16.1177 15.8199 16.5177 15.7099L21.8077 14.2699C22.2077 14.1599 22.6177 14.3999 22.7277 14.7999C22.8377 15.1999 22.5977 15.6098 22.1977 15.7198L16.9077 17.1598C16.8377 17.1698 16.7677 17.1799 16.7077 17.1799Z" fill="#292D32"/>
</svg>
