<svg width="24" height="24" viewBox="0 0 24 24" fill="none" xmlns="http://www.w3.org/2000/svg">
<path d="M14.8931 18.2197H6.10312C5.58312 18.2197 5.09311 18.1698 4.65311 18.0698C4.42311 18.0398 4.14312 17.9597 3.85312 17.8497C2.52312 17.3497 0.953125 16.1198 0.953125 13.0598V7.90973C0.953125 4.63973 2.83312 2.75977 6.10312 2.75977H14.8931C17.6531 2.75977 19.4331 4.07974 19.9131 6.47974C20.0031 6.91974 20.0431 7.38973 20.0431 7.90973V13.0598C20.0431 16.3498 18.1731 18.2197 14.8931 18.2197ZM6.1131 4.27979C3.6531 4.27979 2.4631 5.46975 2.4631 7.92975V13.0798C2.4631 14.8698 3.09312 15.9698 4.38312 16.4598C4.58312 16.5298 4.77312 16.5797 4.95312 16.6097C5.33313 16.6897 5.7031 16.7297 6.1131 16.7297H14.9031C17.3631 16.7297 18.5531 15.5398 18.5531 13.0798V7.92975C18.5531 7.50975 18.5231 7.13974 18.4531 6.79974C18.1131 5.09974 16.9531 4.27979 14.9031 4.27979H6.1131Z" fill="#292D32"/>
<path d="M17.8872 21.2198H9.09716C8.24716 21.2198 7.48715 21.0998 6.83715 20.8498C5.36715 20.2998 4.40714 19.1398 4.07714 17.4798C4.02714 17.2298 4.10716 16.9698 4.28716 16.7998C4.46716 16.6198 4.72717 16.5498 4.97717 16.6098C5.30717 16.6798 5.67716 16.7198 6.09716 16.7198H14.8872C17.3472 16.7198 18.5372 15.5299 18.5372 13.0699V7.91984C18.5372 7.49984 18.5072 7.12984 18.4372 6.78984C18.3872 6.53984 18.4672 6.28985 18.6372 6.10985C18.8172 5.92985 19.0672 5.84983 19.3172 5.90983C21.7172 6.39983 23.0372 8.17984 23.0372 10.9198V16.0699C23.0372 19.3499 21.1672 21.2198 17.8872 21.2198ZM5.91717 18.2198C6.23717 18.7998 6.71716 19.2099 7.37716 19.4499C7.85716 19.6299 8.43714 19.7198 9.10714 19.7198H17.8971C20.3571 19.7198 21.5471 18.5299 21.5471 16.0699V10.9198C21.5471 9.33984 21.0571 8.28985 20.0471 7.73985C20.0471 7.79985 20.0471 7.85984 20.0471 7.91984V13.0699C20.0471 16.3399 18.1671 18.2198 14.8971 18.2198H6.10714C6.03714 18.2198 5.97717 18.2198 5.91717 18.2198Z" fill="#292D32"/>
<path d="M10.4994 13.8899C8.62939 13.8899 7.10938 12.3699 7.10938 10.4999C7.10938 8.62988 8.62939 7.10986 10.4994 7.10986C12.3694 7.10986 13.8894 8.62988 13.8894 10.4999C13.8894 12.3699 12.3694 13.8899 10.4994 13.8899ZM10.4994 8.60986C9.45939 8.60986 8.60938 9.45988 8.60938 10.4999C8.60938 11.5399 9.45939 12.3899 10.4994 12.3899C11.5394 12.3899 12.3894 11.5399 12.3894 10.4999C12.3894 9.45988 11.5394 8.60986 10.4994 8.60986Z" fill="#292D32"/>
<path d="M4.78125 13.4498C4.37125 13.4498 4.03125 13.1098 4.03125 12.6998V8.2998C4.03125 7.8898 4.37125 7.5498 4.78125 7.5498C5.19125 7.5498 5.53125 7.8898 5.53125 8.2998V12.6998C5.53125 13.1098 5.20125 13.4498 4.78125 13.4498Z" fill="#292D32"/>
<path d="M16.2109 13.4498C15.8009 13.4498 15.4609 13.1098 15.4609 12.6998V8.2998C15.4609 7.8898 15.8009 7.5498 16.2109 7.5498C16.6209 7.5498 16.9609 7.8898 16.9609 8.2998V12.6998C16.9609 13.1098 16.6309 13.4498 16.2109 13.4498Z" fill="#292D32"/>
</svg>
