<svg width="24" height="24" viewBox="0 0 24 24" fill="none" xmlns="http://www.w3.org/2000/svg">
<path d="M12.0037 10.07C10.4037 10.07 9.09375 8.76 9.09375 7.16C9.09375 5.56 10.4037 4.25 12.0037 4.25C13.6037 4.25 14.9137 5.56 14.9137 7.16C14.9137 8.76 13.6037 10.07 12.0037 10.07ZM12.0037 5.75C11.2237 5.75 10.5938 6.38 10.5938 7.16C10.5938 7.94 11.2237 8.57 12.0037 8.57C12.7837 8.57 13.4137 7.94 13.4137 7.16C13.4137 6.38 12.7837 5.75 12.0037 5.75Z" fill="#292D32"/>
<path d="M6.79281 19.7502C5.19281 19.7502 3.88281 18.4402 3.88281 16.8402C3.88281 15.2402 5.19281 13.9302 6.79281 13.9302C8.39281 13.9302 9.70281 15.2402 9.70281 16.8402C9.70281 18.4402 8.39281 19.7502 6.79281 19.7502ZM6.79281 15.4302C6.01281 15.4302 5.38281 16.0602 5.38281 16.8402C5.38281 17.6202 6.01281 18.2502 6.79281 18.2502C7.57281 18.2502 8.20281 17.6202 8.20281 16.8402C8.20281 16.0602 7.56281 15.4302 6.79281 15.4302Z" fill="#292D32"/>
<path d="M17.2069 19.7502C15.6069 19.7502 14.2969 18.4402 14.2969 16.8402C14.2969 15.2402 15.6069 13.9302 17.2069 13.9302C18.8069 13.9302 20.1169 15.2402 20.1169 16.8402C20.1169 18.4402 18.8169 19.7502 17.2069 19.7502ZM17.2069 15.4302C16.4269 15.4302 15.7969 16.0602 15.7969 16.8402C15.7969 17.6202 16.4269 18.2502 17.2069 18.2502C17.9869 18.2502 18.6169 17.6202 18.6169 16.8402C18.6169 16.0602 17.9869 15.4302 17.2069 15.4302Z" fill="#292D32"/>
</svg>
