<svg width="24" height="24" viewBox="0 0 24 24" fill="none" xmlns="http://www.w3.org/2000/svg">
<path d="M11.3071 18.0002C11.2971 18.0002 11.2971 18.0002 11.2871 18.0002C10.2471 17.9902 9.36706 17.3402 9.05706 16.3502L7.10706 10.0702C6.84706 9.22022 7.06706 8.31021 7.69706 7.69021C8.31706 7.07021 9.21706 6.8502 10.0571 7.1102L16.3471 9.06021C17.3471 9.37021 17.9971 10.2502 18.0071 11.2902C18.0171 12.3302 17.3871 13.2102 16.3971 13.5402L14.6771 14.1202C14.4171 14.2102 14.2271 14.4002 14.1371 14.6502L13.5471 16.3802C13.2171 17.3702 12.3371 18.0002 11.3071 18.0002ZM9.33705 8.50021C9.03706 8.50021 8.83706 8.66021 8.74706 8.75021C8.51706 8.98021 8.43705 9.31021 8.53705 9.62021L10.4871 15.9002C10.6571 16.4502 11.1471 16.5002 11.2971 16.5002C11.4171 16.4902 11.9271 16.4602 12.1071 15.9102L12.6971 14.1802C12.9271 13.4902 13.4871 12.9302 14.1771 12.7002L15.8971 12.1202C15.8971 12.1202 15.8971 12.1202 15.9071 12.1202C16.4571 11.9402 16.4971 11.4502 16.4971 11.3102C16.4971 11.1602 16.4471 10.6702 15.8971 10.5002L9.60706 8.5502C9.50706 8.5102 9.41705 8.50021 9.33705 8.50021Z" fill="#292D32"/>
<path d="M12 22.75C6.07 22.75 1.25 17.93 1.25 12C1.25 6.07 6.07 1.25 12 1.25C17.93 1.25 22.75 6.07 22.75 12C22.75 17.93 17.93 22.75 12 22.75ZM12 2.75C6.9 2.75 2.75 6.9 2.75 12C2.75 17.1 6.9 21.25 12 21.25C17.1 21.25 21.25 17.1 21.25 12C21.25 6.9 17.1 2.75 12 2.75Z" fill="#292D32"/>
</svg>
