<svg width="24" height="24" viewBox="0 0 24 24" fill="none" xmlns="http://www.w3.org/2000/svg">
<path d="M16.3731 22.7702C16.3631 22.7702 16.3631 22.7702 16.3531 22.7702C15.3431 22.7602 14.5031 22.1403 14.2031 21.1703L12.3531 15.2203C12.1031 14.4003 12.3131 13.5203 12.9231 12.9303C13.5231 12.3403 14.3931 12.1203 15.1931 12.3703L21.1531 14.2203C22.1131 14.5203 22.7431 15.3603 22.7531 16.3703C22.7631 17.3703 22.1531 18.2203 21.1931 18.5403L19.5631 19.0903C19.3331 19.1703 19.1531 19.3403 19.0831 19.5703L18.5231 21.2103C18.2131 22.1603 17.3731 22.7702 16.3731 22.7702ZM14.5131 13.7702C14.2431 13.7702 14.0631 13.9203 13.9831 13.9903C13.7731 14.2003 13.7031 14.4903 13.7931 14.7803L15.6431 20.7303C15.8031 21.2403 16.2431 21.2602 16.3831 21.2702C16.5231 21.2702 16.9531 21.2303 17.1131 20.7403L17.6731 19.1003C17.8931 18.4303 18.4331 17.9003 19.1031 17.6703L20.7331 17.1203C21.2331 16.9603 21.2631 16.5203 21.2631 16.3903C21.2631 16.2603 21.2231 15.8203 20.7231 15.6603L14.7631 13.8103C14.6631 13.7803 14.5831 13.7702 14.5131 13.7702Z" fill="#292D32"/>
<path d="M12 22.75C6.07 22.75 1.25 17.93 1.25 12C1.25 6.07 6.07 1.25 12 1.25C17.93 1.25 22.75 6.07 22.75 12C22.75 12.41 22.41 12.75 22 12.75C21.59 12.75 21.25 12.41 21.25 12C21.25 6.9 17.1 2.75 12 2.75C6.9 2.75 2.75 6.9 2.75 12C2.75 17.1 6.9 21.25 12 21.25C12.41 21.25 12.75 21.59 12.75 22C12.75 22.41 12.41 22.75 12 22.75Z" fill="#292D32"/>
</svg>
