<svg width="24" height="24" viewBox="0 0 24 24" fill="none" xmlns="http://www.w3.org/2000/svg">
<path d="M7.96875 22.75C5.34875 22.75 3.21875 20.62 3.21875 18C3.21875 15.38 5.34875 13.25 7.96875 13.25C10.5887 13.25 12.7188 15.38 12.7188 18C12.7188 20.62 10.5887 22.75 7.96875 22.75ZM7.96875 14.75C6.17875 14.75 4.71875 16.21 4.71875 18C4.71875 19.79 6.17875 21.25 7.96875 21.25C9.75875 21.25 11.2188 19.79 11.2188 18C11.2188 16.21 9.76875 14.75 7.96875 14.75Z" fill="#292D32"/>
<path d="M11.9688 18.75C11.5588 18.75 11.2188 18.41 11.2188 18V4C11.2188 3.59 11.5588 3.25 11.9688 3.25C12.3787 3.25 12.7188 3.59 12.7188 4V18C12.7188 18.41 12.3887 18.75 11.9688 18.75Z" fill="#292D32"/>
<path d="M19.1266 10.2299C18.7966 10.2299 18.4466 10.1699 18.1066 10.0599L13.6866 8.58994C12.3066 8.12994 11.2266 6.62994 11.2266 5.17994V3.99994C11.2266 3.02994 11.6266 2.18994 12.3066 1.68994C12.9966 1.18994 13.9166 1.08994 14.8366 1.38994L19.2566 2.85994C20.6366 3.31994 21.7166 4.81994 21.7166 6.26994V7.43994C21.7166 8.40994 21.3166 9.24994 20.6366 9.74994C20.2066 10.0799 19.6766 10.2299 19.1266 10.2299ZM13.8166 2.71994C13.5766 2.71994 13.3566 2.77994 13.1866 2.90994C12.8866 3.11994 12.7266 3.50994 12.7266 3.99994V5.16994C12.7266 5.96994 13.3966 6.89994 14.1566 7.15994L18.5766 8.62994C19.0366 8.78994 19.4666 8.74994 19.7566 8.53994C20.0566 8.32994 20.2166 7.93994 20.2166 7.44994V6.27994C20.2166 5.47994 19.5466 4.54994 18.7866 4.28994L14.3666 2.81994C14.1766 2.74994 13.9866 2.71994 13.8166 2.71994Z" fill="#292D32"/>
</svg>
