<svg width="24" height="24" viewBox="0 0 24 24" fill="none" xmlns="http://www.w3.org/2000/svg">
<path d="M22 3.75H2C1.59 3.75 1.25 3.41 1.25 3C1.25 2.59 1.59 2.25 2 2.25H22C22.41 2.25 22.75 2.59 22.75 3C22.75 3.41 22.41 3.75 22 3.75Z" fill="#292D32"/>
<path d="M11 9.75H2C1.59 9.75 1.25 9.41 1.25 9C1.25 8.59 1.59 8.25 2 8.25H11C11.41 8.25 11.75 8.59 11.75 9C11.75 9.41 11.41 9.75 11 9.75Z" fill="#292D32"/>
<path d="M8 15.75H2C1.59 15.75 1.25 15.41 1.25 15C1.25 14.59 1.59 14.25 2 14.25H8C8.41 14.25 8.75 14.59 8.75 15C8.75 15.41 8.41 15.75 8 15.75Z" fill="#292D32"/>
<path d="M6 21.75H2C1.59 21.75 1.25 21.41 1.25 21C1.25 20.59 1.59 20.25 2 20.25H6C6.41 20.25 6.75 20.59 6.75 21C6.75 21.41 6.41 21.75 6 21.75Z" fill="#292D32"/>
<path d="M11.8363 22.7501C10.2263 22.7501 8.90625 21.4401 8.90625 19.8201C8.90625 18.2101 10.2163 16.8901 11.8363 16.8901C13.4563 16.8901 14.7663 18.2001 14.7663 19.8201C14.7663 21.4401 13.4563 22.7501 11.8363 22.7501ZM11.8363 18.4001C11.0463 18.4001 10.4062 19.0401 10.4062 19.8301C10.4062 20.6201 11.0463 21.2601 11.8363 21.2601C12.6263 21.2601 13.2663 20.6201 13.2663 19.8301C13.2663 19.0401 12.6263 18.4001 11.8363 18.4001Z" fill="#292D32"/>
<path d="M14.0234 20.5703C13.6134 20.5703 13.2734 20.2303 13.2734 19.8203V11.0503C13.2734 9.84031 13.9934 8.89034 15.1634 8.58034L19.5134 7.39034C20.4634 7.13034 21.2834 7.23032 21.8634 7.68032C22.4434 8.13032 22.7434 8.86032 22.7434 9.87032V18.3803C22.7434 18.7903 22.4034 19.1303 21.9934 19.1303C21.5834 19.1303 21.2434 18.7903 21.2434 18.3803V9.87032C21.2434 9.37032 21.1434 9.02033 20.9534 8.88033C20.7634 8.73033 20.3734 8.7203 19.9034 8.8503L15.5534 10.0403C15.2634 10.1203 14.7734 10.3603 14.7734 11.0703V19.8404C14.7734 20.2403 14.4334 20.5703 14.0234 20.5703Z" fill="#292D32"/>
<path d="M19.8206 21.2999C18.2106 21.2999 16.8906 19.9899 16.8906 18.3699C16.8906 16.7599 18.2006 15.4399 19.8206 15.4399C21.4406 15.4399 22.7506 16.7499 22.7506 18.3699C22.7506 19.9899 21.4406 21.2999 19.8206 21.2999ZM19.8206 16.95C19.0306 16.95 18.3906 17.5899 18.3906 18.3799C18.3906 19.1699 19.0306 19.8099 19.8206 19.8099C20.6106 19.8099 21.2506 19.1699 21.2506 18.3799C21.2506 17.5899 20.6106 16.95 19.8206 16.95Z" fill="#292D32"/>
<path d="M14.0202 14.35C13.6902 14.35 13.3902 14.13 13.3002 13.8C13.1902 13.4 13.4302 12.9901 13.8302 12.8801L21.8102 10.7001C22.2102 10.5901 22.6202 10.83 22.7302 11.23C22.8402 11.63 22.6002 12.0401 22.2002 12.1501L14.2202 14.3301C14.1502 14.3401 14.0802 14.35 14.0202 14.35Z" fill="#292D32"/>
</svg>
