<svg width="24" height="24" viewBox="0 0 24 24" fill="none" xmlns="http://www.w3.org/2000/svg">
<path d="M17 22.75H7C3.35 22.75 1.25 20.65 1.25 17V12C1.25 8.35 3.35 6.25 7 6.25H17C20.65 6.25 22.75 8.35 22.75 12V17C22.75 20.65 20.65 22.75 17 22.75ZM7 7.75C4.14 7.75 2.75 9.14 2.75 12V17C2.75 19.86 4.14 21.25 7 21.25H17C19.86 21.25 21.25 19.86 21.25 17V12C21.25 9.14 19.86 7.75 17 7.75H7Z" fill="#292D32"/>
<path d="M18 5.25H6C5.59 5.25 5.25 4.91 5.25 4.5C5.25 4.09 5.59 3.75 6 3.75H18C18.41 3.75 18.75 4.09 18.75 4.5C18.75 4.91 18.41 5.25 18 5.25Z" fill="#292D32"/>
<path d="M15 2.75H9C8.59 2.75 8.25 2.41 8.25 2C8.25 1.59 8.59 1.25 9 1.25H15C15.41 1.25 15.75 1.59 15.75 2C15.75 2.41 15.41 2.75 15 2.75Z" fill="#292D32"/>
<path d="M8.89343 19.8601C7.72343 19.8601 6.77344 18.9101 6.77344 17.7401C6.77344 16.5701 7.72343 15.6201 8.89343 15.6201C10.0634 15.6201 11.0134 16.5701 11.0134 17.7401C11.0134 18.9101 10.0634 19.8601 8.89343 19.8601ZM8.89343 17.1201C8.55343 17.1201 8.27344 17.4001 8.27344 17.7401C8.27344 18.0801 8.55343 18.3601 8.89343 18.3601C9.23343 18.3601 9.51343 18.0801 9.51343 17.7401C9.51343 17.4001 9.23343 17.1201 8.89343 17.1201Z" fill="#292D32"/>
<path d="M10.2578 18.4901C9.84781 18.4901 9.50781 18.1501 9.50781 17.7401V12.2301C9.50781 11.3501 10.0578 10.6401 10.8978 10.4101L13.6378 9.66011C14.5078 9.42011 15.0578 9.65015 15.3578 9.89015C15.6578 10.1201 16.0178 10.5901 16.0178 11.4801V16.8301C16.0178 17.2401 15.6778 17.5801 15.2678 17.5801C14.8578 17.5801 14.5178 17.2401 14.5178 16.8301V11.4801C14.5178 11.2001 14.4578 11.0901 14.4378 11.0801C14.4178 11.0701 14.2978 11.0301 14.0178 11.1101L11.2878 11.8601C11.0378 11.9301 10.9978 12.1001 10.9978 12.2401V17.7501C11.0078 18.1501 10.6678 18.4901 10.2578 18.4901Z" fill="#292D32"/>
<path d="M13.9091 18.95C12.7391 18.95 11.7891 18 11.7891 16.83C11.7891 15.66 12.7391 14.71 13.9091 14.71C15.0791 14.71 16.0291 15.66 16.0291 16.83C16.0291 18 15.0791 18.95 13.9091 18.95ZM13.9091 16.21C13.5691 16.21 13.2891 16.49 13.2891 16.83C13.2891 17.17 13.5691 17.45 13.9091 17.45C14.2491 17.45 14.5291 17.17 14.5291 16.83C14.5291 16.49 14.2491 16.21 13.9091 16.21Z" fill="#292D32"/>
<path d="M10.2624 14.5801C9.93237 14.5801 9.63234 14.3601 9.54234 14.0301C9.43234 13.6301 9.67237 13.2201 10.0724 13.1101L15.0824 11.7401C15.4924 11.6301 15.8924 11.8701 16.0024 12.2701C16.1124 12.6701 15.8723 13.0801 15.4723 13.1901L10.4624 14.5601C10.3924 14.5701 10.3324 14.5801 10.2624 14.5801Z" fill="#292D32"/>
</svg>
