<svg width="24" height="24" viewBox="0 0 24 24" fill="none" xmlns="http://www.w3.org/2000/svg">
<path d="M12.35 21.75H8.64999C3.45999 21.75 1.25 19.54 1.25 14.35V8.65002C1.25 3.46002 3.45999 1.25 8.64999 1.25H14.35C19.54 1.25 21.75 3.46002 21.75 8.65002V12.35C21.75 12.76 21.41 13.1 21 13.1C20.59 13.1 20.25 12.76 20.25 12.35V8.65002C20.25 4.29002 18.71 2.75 14.35 2.75H8.64999C4.28999 2.75 2.75 4.29002 2.75 8.65002V14.35C2.75 18.71 4.28999 20.25 8.64999 20.25H12.35C12.76 20.25 13.1 20.59 13.1 21C13.1 21.41 12.76 21.75 12.35 21.75Z" fill="#292D32"/>
<path d="M6.72343 15.17C5.51343 15.17 4.52344 14.18 4.52344 12.97C4.52344 11.76 5.51343 10.77 6.72343 10.77C7.93343 10.77 8.92343 11.76 8.92343 12.97C8.92343 14.18 7.93343 15.17 6.72343 15.17ZM6.72343 12.27C6.34343 12.27 6.02344 12.58 6.02344 12.97C6.02344 13.35 6.33343 13.67 6.72343 13.67C7.11343 13.67 7.42343 13.36 7.42343 12.97C7.42343 12.58 7.11343 12.27 6.72343 12.27Z" fill="#292D32"/>
<path d="M8.17188 13.7199C7.76188 13.7199 7.42188 13.3799 7.42188 12.9699V7.13993C7.42188 6.22993 7.99188 5.48992 8.86188 5.24992L11.7619 4.45994C12.6619 4.20994 13.2319 4.44992 13.5419 4.68992C13.8519 4.92992 14.2319 5.40994 14.2319 6.33994V11.9999C14.2319 12.4099 13.8919 12.7499 13.4819 12.7499C13.0719 12.7499 12.7319 12.4099 12.7319 11.9999V6.33994C12.7319 6.01994 12.6619 5.89992 12.6319 5.87992C12.6019 5.85992 12.4619 5.81994 12.1519 5.89994L9.26187 6.68992C8.96187 6.76992 8.92188 6.97992 8.92188 7.12992V12.9599C8.92188 13.3799 8.58187 13.7199 8.17188 13.7199Z" fill="#292D32"/>
<path d="M12.0281 14.1998C10.8181 14.1998 9.82812 13.2098 9.82812 11.9998C9.82812 10.7898 10.8181 9.7998 12.0281 9.7998C13.2381 9.7998 14.2281 10.7898 14.2281 11.9998C14.2281 13.2198 13.2381 14.1998 12.0281 14.1998ZM12.0281 11.3098C11.6481 11.3098 11.3281 11.6198 11.3281 12.0098C11.3281 12.3898 11.6381 12.7098 12.0281 12.7098C12.4181 12.7098 12.7281 12.3998 12.7281 12.0098C12.7281 11.6198 12.4081 11.3098 12.0281 11.3098Z" fill="#292D32"/>
<path d="M8.16859 9.58008C7.83859 9.58008 7.53859 9.36009 7.44859 9.03009C7.33859 8.63009 7.57859 8.22005 7.97859 8.11005L13.2886 6.66003C13.6886 6.56003 14.0986 6.79006 14.2086 7.19006C14.3186 7.59006 14.0786 8.00005 13.6786 8.11005L8.36859 9.56006C8.29859 9.57006 8.22859 9.58008 8.16859 9.58008Z" fill="#292D32"/>
<path d="M17.9422 22.0299C15.7622 22.0299 13.9922 20.2599 13.9922 18.0799C13.9922 15.8999 15.7622 14.1299 17.9422 14.1299C20.1222 14.1299 21.8922 15.8999 21.8922 18.0799C21.8922 20.2599 20.1222 22.0299 17.9422 22.0299ZM17.9422 15.6299C16.5922 15.6299 15.4922 16.7299 15.4922 18.0799C15.4922 19.4299 16.5922 20.5299 17.9422 20.5299C19.2922 20.5299 20.3922 19.4299 20.3922 18.0799C20.3922 16.7299 19.2922 15.6299 17.9422 15.6299Z" fill="#292D32"/>
<path d="M21.7397 22.6299C21.5497 22.6299 21.3597 22.5598 21.2097 22.4098L20.2097 21.4098C19.9197 21.1198 19.9197 20.6398 20.2097 20.3498C20.4997 20.0598 20.9797 20.0598 21.2697 20.3498L22.2697 21.3498C22.5597 21.6398 22.5597 22.1198 22.2697 22.4098C22.1197 22.5498 21.9297 22.6299 21.7397 22.6299Z" fill="#292D32"/>
</svg>
