<svg width="24" height="24" viewBox="0 0 24 24" fill="none" xmlns="http://www.w3.org/2000/svg">
<path d="M6.27625 22.7498C4.14625 22.7498 2.40625 21.0098 2.40625 18.8798C2.40625 16.7498 4.14625 15.0098 6.27625 15.0098C8.40625 15.0098 10.1462 16.7498 10.1462 18.8798C10.1462 21.0098 8.40625 22.7498 6.27625 22.7498ZM6.27625 16.5098C4.96625 16.5098 3.90625 17.5698 3.90625 18.8798C3.90625 20.1898 4.96625 21.2498 6.27625 21.2498C7.58625 21.2498 8.64625 20.1898 8.64625 18.8798C8.64625 17.5698 7.58625 16.5098 6.27625 16.5098Z" fill="#292D32"/>
<path d="M9.39844 19.6301C8.98844 19.6301 8.64844 19.2901 8.64844 18.8801V6.30013C8.64844 4.72013 9.59844 3.48013 11.1184 3.07013L17.3584 1.37013C18.6284 1.02013 19.6984 1.15013 20.4484 1.73013C21.2084 2.31013 21.5884 3.28013 21.5884 4.61013V16.8101C21.5884 17.2201 21.2484 17.5601 20.8384 17.5601C20.4284 17.5601 20.0884 17.2201 20.0884 16.8101V4.60013C20.0884 4.02013 19.9884 3.26013 19.5384 2.92013C19.0484 2.54013 18.2084 2.69013 17.7484 2.82013L11.5084 4.52013C10.6384 4.76013 10.1484 5.41013 10.1484 6.31013V18.8901C10.1484 19.2901 9.80844 19.6301 9.39844 19.6301Z" fill="#292D32"/>
<path d="M17.7216 20.6702C15.5916 20.6702 13.8516 18.9302 13.8516 16.8002C13.8516 14.6702 15.5916 12.9302 17.7216 12.9302C19.8516 12.9302 21.5916 14.6702 21.5916 16.8002C21.5916 18.9302 19.8516 20.6702 17.7216 20.6702ZM17.7216 14.4302C16.4116 14.4302 15.3516 15.4902 15.3516 16.8002C15.3516 18.1102 16.4116 19.1702 17.7216 19.1702C19.0316 19.1702 20.0916 18.1102 20.0916 16.8002C20.0916 15.4902 19.0316 14.4302 17.7216 14.4302Z" fill="#292D32"/>
<path d="M9.40371 10.2698C9.07371 10.2698 8.77371 10.0498 8.68371 9.71978C8.57371 9.31978 8.80371 8.89978 9.20371 8.78978L20.6437 5.66978C21.0437 5.55978 21.4537 5.79978 21.5637 6.19978C21.6737 6.59978 21.4337 7.00978 21.0337 7.11978L9.60371 10.2398C9.53371 10.2598 9.46371 10.2698 9.40371 10.2698Z" fill="#292D32"/>
</svg>
