<svg width="24" height="24" viewBox="0 0 24 24" fill="none" xmlns="http://www.w3.org/2000/svg">
<path d="M2.57767 9.42023C2.49767 9.42023 2.40767 9.41025 2.32767 9.38025C1.93767 9.24025 1.73768 8.81023 1.86768 8.42023C2.53768 6.54023 3.69768 4.89026 5.24768 3.64026C5.56768 3.38026 6.03767 3.43025 6.29767 3.75025C6.55767 4.07025 6.50769 4.54025 6.18769 4.81025C4.85769 5.88025 3.85769 7.30023 3.28769 8.92023C3.17769 9.23023 2.88767 9.42023 2.57767 9.42023Z" fill="#292D32"/>
<path d="M2.57999 16.08C2.26999 16.08 1.98 15.89 1.87 15.58C1.46 14.41 1.25 13.21 1.25 12C1.25 11.59 1.59 11.25 2 11.25C2.41 11.25 2.75 11.59 2.75 12C2.75 13.04 2.93001 14.08 3.29001 15.08C3.43001 15.47 3.21999 15.9 2.82999 16.04C2.74999 16.07 2.65999 16.08 2.57999 16.08Z" fill="#292D32"/>
<path d="M11.9986 22.7501C10.9386 22.7501 9.88864 22.5901 8.86864 22.2801C8.46864 22.1601 8.24864 21.7401 8.36864 21.3401C8.48864 20.9401 8.90864 20.7201 9.30864 20.8401C10.1786 21.1101 11.0886 21.24 11.9986 21.24C17.0986 21.24 21.2486 17.09 21.2486 11.99C21.2486 11.47 21.1987 10.93 21.0987 10.36C21.0287 9.95004 21.2986 9.56004 21.7086 9.49004C22.1186 9.42004 22.5086 9.69003 22.5786 10.1C22.6986 10.76 22.7587 11.3801 22.7587 12.0001C22.7487 17.9301 17.9286 22.7501 11.9986 22.7501Z" fill="#292D32"/>
<path d="M5.71827 20.5001C5.54827 20.5001 5.38827 20.4501 5.24827 20.3301C4.67827 19.8701 4.21825 19.43 3.82825 18.98C3.55825 18.67 3.59827 18.19 3.90827 17.92C4.21827 17.65 4.69827 17.6901 4.96827 18.0001C5.29827 18.3801 5.69827 18.76 6.18827 19.16C6.50827 19.42 6.55825 19.8901 6.29825 20.2101C6.15825 20.4001 5.93827 20.5001 5.71827 20.5001Z" fill="#292D32"/>
<path d="M20.2423 7.09003C20.0023 7.09003 19.7724 6.98001 19.6224 6.76001C17.8924 4.24001 15.0424 2.73999 12.0024 2.73999C11.0924 2.73999 10.1824 2.87001 9.31236 3.14001C8.92236 3.26001 8.50235 3.04001 8.37235 2.64001C8.24235 2.24001 8.47235 1.82001 8.87235 1.70001C9.89235 1.39001 10.9424 1.22998 12.0024 1.22998C15.5424 1.22998 18.8523 2.98002 20.8623 5.90002C21.0923 6.24002 21.0124 6.71 20.6724 6.94C20.5424 7.05 20.3923 7.09003 20.2423 7.09003Z" fill="#292D32"/>
<path d="M8.59 17.8597C7.3 17.8597 6.25 16.8097 6.25 15.5197C6.25 14.2297 7.3 13.1797 8.59 13.1797C9.88 13.1797 10.93 14.2297 10.93 15.5197C10.93 16.8097 9.88 17.8597 8.59 17.8597ZM8.59 14.6797C8.13 14.6797 7.75 15.0597 7.75 15.5197C7.75 15.9797 8.13 16.3597 8.59 16.3597C9.05 16.3597 9.42999 15.9797 9.42999 15.5197C9.42999 15.0597 9.05 14.6797 8.59 14.6797Z" fill="#292D32"/>
<path d="M10.1797 16.2697C9.76969 16.2697 9.42969 15.9297 9.42969 15.5197V9.11972C9.42969 8.15972 10.0297 7.36972 10.9597 7.11972L14.1397 6.24972C15.0997 5.98972 15.6997 6.23971 16.0297 6.48971C16.5097 6.85971 16.7497 7.44972 16.7497 8.24972V14.4597C16.7497 14.8697 16.4097 15.2097 15.9997 15.2097C15.5897 15.2097 15.2497 14.8697 15.2497 14.4597V8.24972C15.2497 7.90972 15.1797 7.72972 15.1097 7.68972C15.0397 7.63972 14.8297 7.61973 14.5197 7.69973L11.3397 8.56973C11.0597 8.64973 10.9197 8.82972 10.9197 9.11972V15.5197C10.9297 15.9297 10.5897 16.2697 10.1797 16.2697Z" fill="#292D32"/>
<path d="M14.4103 16.8001C13.1203 16.8001 12.0703 15.7501 12.0703 14.4601C12.0703 13.1701 13.1203 12.1201 14.4103 12.1201C15.7003 12.1201 16.7503 13.1701 16.7503 14.4601C16.7503 15.7501 15.7003 16.8001 14.4103 16.8001ZM14.4103 13.6201C13.9503 13.6201 13.5703 14.0001 13.5703 14.4601C13.5703 14.9201 13.9503 15.3001 14.4103 15.3001C14.8703 15.3001 15.2503 14.9201 15.2503 14.4601C15.2503 14.0001 14.8703 13.6201 14.4103 13.6201Z" fill="#292D32"/>
<path d="M10.1764 11.4998C9.84641 11.4998 9.54641 11.2798 9.45641 10.9498C9.34641 10.5498 9.5864 10.1398 9.9864 10.0298L15.8064 8.43981C16.2064 8.32981 16.6164 8.56977 16.7264 8.96977C16.8364 9.36977 16.5964 9.77982 16.1964 9.88982L10.3764 11.4798C10.3064 11.4998 10.2364 11.4998 10.1764 11.4998Z" fill="#292D32"/>
</svg>
