<svg width="24" height="24" viewBox="0 0 24 24" fill="none" xmlns="http://www.w3.org/2000/svg">
<path d="M6.3078 20.0899C5.7378 20.0899 5.17781 19.9399 4.65781 19.6399C3.61781 19.0399 3.00781 17.9799 3.00781 16.7799V7.20989C3.00781 6.01989 3.62781 4.9499 4.65781 4.3499C5.69781 3.7499 6.92779 3.7499 7.95779 4.3499L16.2478 9.1299C17.2778 9.7299 17.8978 10.7999 17.8978 11.9899C17.8978 13.1799 17.2778 14.2499 16.2478 14.8499L7.95779 19.6299C7.43779 19.9399 6.8778 20.0899 6.3078 20.0899ZM6.3078 5.4099C5.9978 5.4099 5.68781 5.48989 5.40781 5.64989C4.84781 5.97989 4.50781 6.55989 4.50781 7.20989V16.7799C4.50781 17.4299 4.84781 18.0099 5.40781 18.3399C5.96781 18.6599 6.64779 18.6699 7.20779 18.3399L15.4978 13.5599C16.0578 13.2299 16.3978 12.6499 16.3978 11.9999C16.3978 11.3499 16.0578 10.7699 15.4978 10.4399L7.20779 5.6599C6.92779 5.4999 6.6178 5.4099 6.3078 5.4099Z" fill="#292D32"/>
<path d="M20.2422 18.9303C19.8322 18.9303 19.4922 18.5903 19.4922 18.1803V5.82031C19.4922 5.41031 19.8322 5.07031 20.2422 5.07031C20.6522 5.07031 20.9922 5.41031 20.9922 5.82031V18.1803C20.9922 18.5903 20.6622 18.9303 20.2422 18.9303Z" fill="#292D32"/>
</svg>
