<svg width="24" height="24" viewBox="0 0 24 24" fill="none" xmlns="http://www.w3.org/2000/svg">
<path d="M11 22.75H9C3.57 22.75 1.25 20.43 1.25 15V9C1.25 3.57 3.57 1.25 9 1.25H15C20.43 1.25 22.75 3.57 22.75 9V10C22.75 10.41 22.41 10.75 22 10.75C21.59 10.75 21.25 10.41 21.25 10V9C21.25 4.39 19.61 2.75 15 2.75H9C4.39 2.75 2.75 4.39 2.75 9V15C2.75 19.61 4.39 21.25 9 21.25H11C11.41 21.25 11.75 21.59 11.75 22C11.75 22.41 11.41 22.75 11 22.75Z" fill="#292D32"/>
<path d="M15.5078 22.75C13.9978 22.75 12.7578 21.52 12.7578 20C12.7578 18.48 13.9878 17.25 15.5078 17.25C17.0278 17.25 18.2578 18.48 18.2578 20C18.2578 21.52 17.0178 22.75 15.5078 22.75ZM15.5078 18.76C14.8178 18.76 14.2578 19.32 14.2578 20.01C14.2578 20.7 14.8178 21.26 15.5078 21.26C16.1978 21.26 16.7578 20.7 16.7578 20.01C16.7578 19.32 16.1978 18.76 15.5078 18.76Z" fill="#292D32"/>
<path d="M17.5078 20.7498C17.0978 20.7498 16.7578 20.4098 16.7578 19.9998V13.0098C16.7578 12.5998 17.0978 12.2598 17.5078 12.2598C17.9178 12.2598 18.2578 12.5998 18.2578 13.0098V19.9998C18.2578 20.4198 17.9178 20.7498 17.5078 20.7498Z" fill="#292D32"/>
<path d="M21.0778 16.4998C20.8678 16.4998 20.6578 16.4698 20.4478 16.3898L18.2378 15.6597C17.3878 15.3797 16.7578 14.4897 16.7578 13.5997V13.0098C16.7578 12.3998 17.0078 11.8698 17.4578 11.5498C17.9078 11.2298 18.4878 11.1597 19.0578 11.3497L21.2678 12.0898C22.1178 12.3698 22.7478 13.2598 22.7478 14.1498V14.7398C22.7478 15.3498 22.4978 15.8798 22.0478 16.1998C21.7678 16.3998 21.4278 16.4998 21.0778 16.4998ZM18.4278 12.7498C18.3878 12.7498 18.3478 12.7598 18.3278 12.7698C18.2878 12.7998 18.2578 12.8698 18.2578 13.0098V13.5997C18.2578 13.8397 18.4878 14.1598 18.7178 14.2398L20.9278 14.9697C21.0578 15.0097 21.1478 14.9997 21.1778 14.9797C21.2178 14.9497 21.2578 14.8798 21.2578 14.7398V14.1498C21.2578 13.9098 21.0278 13.5898 20.7978 13.5098L18.5878 12.7798C18.5178 12.7598 18.4678 12.7498 18.4278 12.7498Z" fill="#292D32"/>
</svg>
