<svg width="24" height="24" viewBox="0 0 24 24" fill="none" xmlns="http://www.w3.org/2000/svg">
<path d="M9.5625 18.75C9.1525 18.75 8.8125 18.41 8.8125 18V13C8.8125 12.59 9.1525 12.25 9.5625 12.25C9.9725 12.25 10.3125 12.59 10.3125 13V18C10.3125 18.41 9.9725 18.75 9.5625 18.75Z" fill="#292D32"/>
<path d="M12 16.25H7C6.59 16.25 6.25 15.91 6.25 15.5C6.25 15.09 6.59 14.75 7 14.75H12C12.41 14.75 12.75 15.09 12.75 15.5C12.75 15.91 12.41 16.25 12 16.25Z" fill="#292D32"/>
<path d="M8 5.75C7.59 5.75 7.25 5.41 7.25 5V2C7.25 1.59 7.59 1.25 8 1.25C8.41 1.25 8.75 1.59 8.75 2V5C8.75 5.41 8.41 5.75 8 5.75Z" fill="#292D32"/>
<path d="M16 5.75C15.59 5.75 15.25 5.41 15.25 5V2C15.25 1.59 15.59 1.25 16 1.25C16.41 1.25 16.75 1.59 16.75 2V5C16.75 5.41 16.41 5.75 16 5.75Z" fill="#292D32"/>
<path d="M8.85197 22.8102C6.38197 22.8102 4.75197 22.2702 3.73197 21.1102C2.55197 19.7802 2.36197 17.7902 2.32197 16.0202L2.19197 9.85018C2.09197 5.12018 3.66197 3.15018 7.76197 2.84018L15.802 2.68018C15.822 2.68018 15.832 2.68018 15.842 2.68018C19.952 2.82018 21.592 4.72018 21.692 9.46018L21.812 15.6302C21.852 17.4002 21.732 19.4002 20.612 20.7702C19.592 22.0202 17.872 22.6302 15.202 22.6902L9.20197 22.8102C9.08197 22.8102 8.96197 22.8102 8.85197 22.8102ZM15.802 4.17018L7.83197 4.33018C5.03197 4.55018 3.60197 5.45018 3.69197 9.82018L3.82197 15.9902C3.86197 18.1102 4.17197 19.3502 4.85197 20.1202C5.61197 20.9802 6.98197 21.3602 9.18197 21.3102L15.182 21.1902C17.372 21.1502 18.732 20.7102 19.462 19.8202C20.112 19.0302 20.372 17.7802 20.322 15.6602L20.202 9.49018C20.102 5.13018 18.642 4.27018 15.802 4.17018Z" fill="#292D32"/>
</svg>
