<svg width="24" height="24" viewBox="0 0 24 24" fill="none" xmlns="http://www.w3.org/2000/svg">
<path d="M11.02 20.25H7.5C6.75 20.25 6.2 20.22 5.73 20.15C2.4 19.78 1.75 17.8 1.75 14.5V9.5C1.75 6.2 2.41 4.21 5.76 3.84C6.2 3.78 6.75 3.75 7.5 3.75H10.96C11.37 3.75 11.71 4.09 11.71 4.5C11.71 4.91 11.37 5.25 10.96 5.25H7.5C6.82 5.25 6.34 5.28 5.95 5.33C3.92 5.55 3.25 6.19 3.25 9.5V14.5C3.25 17.81 3.92 18.44 5.92 18.67C6.34 18.73 6.82 18.75 7.5 18.75H11.02C11.43 18.75 11.77 19.09 11.77 19.5C11.77 19.91 11.43 20.25 11.02 20.25Z" fill="#292D32"/>
<path d="M16.5034 20.25H15.0234C14.6134 20.25 14.2734 19.91 14.2734 19.5C14.2734 19.09 14.6134 18.75 15.0234 18.75H16.5034C17.1834 18.75 17.6634 18.72 18.0534 18.67C20.0834 18.45 20.7534 17.81 20.7534 14.5V9.5C20.7534 6.19 20.0834 5.56 18.0834 5.33C17.6634 5.27 17.1834 5.25 16.5034 5.25H15.0234C14.6134 5.25 14.2734 4.91 14.2734 4.5C14.2734 4.09 14.6134 3.75 15.0234 3.75H16.5034C17.2534 3.75 17.8034 3.78 18.2734 3.85C21.6034 4.22 22.2534 6.2 22.2534 9.5V14.5C22.2534 17.8 21.5934 19.79 18.2434 20.16C17.8034 20.22 17.2534 20.25 16.5034 20.25Z" fill="#292D32"/>
<path d="M15 22.75C14.59 22.75 14.25 22.41 14.25 22V2C14.25 1.59 14.59 1.25 15 1.25C15.41 1.25 15.75 1.59 15.75 2V22C15.75 22.41 15.41 22.75 15 22.75Z" fill="#292D32"/>
<path d="M6.70312 13.0002C6.57313 13.0002 6.44313 12.9702 6.32313 12.9202C6.20313 12.8702 6.09312 12.8002 5.99312 12.7102C5.90312 12.6102 5.82313 12.5002 5.77313 12.3802C5.72313 12.2602 5.70312 12.1302 5.70312 12.0002C5.70312 11.7402 5.81312 11.4802 5.99312 11.2902C6.36312 10.9202 7.03313 10.9202 7.41313 11.2902C7.59313 11.4802 7.70312 11.7402 7.70312 12.0002C7.70312 12.1302 7.67313 12.2602 7.62313 12.3802C7.57313 12.5002 7.50313 12.6102 7.41313 12.7102C7.31313 12.8002 7.20313 12.8702 7.08313 12.9202C6.96313 12.9702 6.83312 13.0002 6.70312 13.0002Z" fill="#292D32"/>
<path d="M10.7031 13.0002C10.5731 13.0002 10.4431 12.9702 10.3231 12.9202C10.2031 12.8702 10.0931 12.8002 9.99312 12.7102C9.90312 12.6102 9.83313 12.5002 9.77313 12.3802C9.73313 12.2602 9.70312 12.1302 9.70312 12.0002C9.70312 11.7402 9.81312 11.4802 9.99312 11.2902C10.3631 10.9202 11.0431 10.9202 11.4131 11.2902C11.5931 11.4802 11.7031 11.7402 11.7031 12.0002C11.7031 12.1302 11.6731 12.2602 11.6231 12.3802C11.5731 12.5002 11.5031 12.6102 11.4131 12.7102C11.3131 12.8002 11.2031 12.8702 11.0831 12.9202C10.9631 12.9702 10.8331 13.0002 10.7031 13.0002Z" fill="#292D32"/>
</svg>
