<svg width="24" height="24" viewBox="0 0 24 24" fill="none" xmlns="http://www.w3.org/2000/svg">
<path d="M11.9688 22.75C6.04875 22.75 1.21875 17.93 1.21875 12C1.21875 6.07 6.04875 1.25 11.9688 1.25C17.8888 1.25 22.7188 6.07 22.7188 12C22.7188 17.93 17.8988 22.75 11.9688 22.75ZM11.9688 2.75C6.86875 2.75 2.71875 6.9 2.71875 12C2.71875 17.1 6.86875 21.25 11.9688 21.25C17.0688 21.25 21.2188 17.1 21.2188 12C21.2188 6.9 17.0688 2.75 11.9688 2.75Z" fill="#292D32"/>
<path d="M10.01 15.9498H8.71C7.79 15.9498 7.25 15.4198 7.25 14.5298V9.4698C7.25 8.5798 7.8 8.0498 8.71 8.0498H10C10.92 8.0498 11.46 8.5798 11.46 9.4698V14.5298C11.47 15.4198 10.92 15.9498 10.01 15.9498ZM8.75 14.4498H9.97V9.5498H8.76L8.75 14.4498Z" fill="#292D32"/>
<path d="M15.2891 15.9498H13.9991C13.0791 15.9498 12.5391 15.4198 12.5391 14.5298V9.4698C12.5391 8.5798 13.0891 8.0498 13.9991 8.0498H15.2891C16.2091 8.0498 16.7491 8.5798 16.7491 9.4698V14.5298C16.7491 15.4198 16.1991 15.9498 15.2891 15.9498ZM14.0291 14.4498H15.2491V9.5498H14.0391L14.0291 14.4498Z" fill="#292D32"/>
</svg>
