<svg width="24" height="24" viewBox="0 0 24 24" fill="none" xmlns="http://www.w3.org/2000/svg">
<path d="M14.0412 22.75H9.25118C7.63118 22.75 6.16118 22.12 5.10118 20.96C4.04118 19.81 3.53118 18.29 3.67118 16.68C4.01118 12.58 7.63118 9.25 11.7512 9.25C15.5412 9.25 19.1212 12.29 19.7512 16.02C20.0512 17.8 19.6112 19.48 18.5312 20.76C17.4312 22.04 15.8412 22.75 14.0412 22.75ZM11.7412 10.75C8.39118 10.75 5.44118 13.47 5.16118 16.81C5.06118 18 5.43118 19.11 6.20118 19.95C6.97118 20.79 8.05118 21.25 9.24118 21.25H14.0312C15.3812 21.25 16.5712 20.73 17.3612 19.8C18.1512 18.87 18.4712 17.61 18.2512 16.27C17.7512 13.23 14.8312 10.75 11.7412 10.75Z" fill="#292D32"/>
<path d="M10.4688 8.25C8.67875 8.25 7.21875 6.79 7.21875 5C7.21875 3.21 8.67875 1.75 10.4688 1.75C12.2588 1.75 13.7188 3.21 13.7188 5C13.7188 6.79 12.2688 8.25 10.4688 8.25ZM10.4688 3.25C9.50875 3.25 8.71875 4.04 8.71875 5C8.71875 5.96 9.50875 6.75 10.4688 6.75C11.4288 6.75 12.2188 5.96 12.2188 5C12.2188 4.04 11.4388 3.25 10.4688 3.25Z" fill="#292D32"/>
<path d="M17.2969 9.4502C15.7769 9.4502 14.5469 8.22019 14.5469 6.7002C14.5469 5.1802 15.7769 3.9502 17.2969 3.9502C18.8169 3.9502 20.0469 5.1802 20.0469 6.7002C20.0469 8.22019 18.8169 9.4502 17.2969 9.4502ZM17.2969 5.4502C16.6069 5.4502 16.0469 6.0102 16.0469 6.7002C16.0469 7.3902 16.6069 7.9502 17.2969 7.9502C17.9869 7.9502 18.5469 7.3902 18.5469 6.7002C18.5469 6.0102 17.9869 5.4502 17.2969 5.4502Z" fill="#292D32"/>
<path d="M21 13.4502C19.76 13.4502 18.75 12.4402 18.75 11.2002C18.75 9.9602 19.76 8.9502 21 8.9502C22.24 8.9502 23.25 9.9602 23.25 11.2002C23.25 12.4402 22.24 13.4502 21 13.4502ZM21 10.4502C20.59 10.4502 20.25 10.7902 20.25 11.2002C20.25 11.6102 20.59 11.9502 21 11.9502C21.41 11.9502 21.75 11.6102 21.75 11.2002C21.75 10.7902 21.41 10.4502 21 10.4502Z" fill="#292D32"/>
<path d="M3.96875 11.4502C2.44875 11.4502 1.21875 10.2202 1.21875 8.7002C1.21875 7.1802 2.44875 5.9502 3.96875 5.9502C5.48875 5.9502 6.71875 7.1802 6.71875 8.7002C6.71875 10.2202 5.48875 11.4502 3.96875 11.4502ZM3.96875 7.4502C3.27875 7.4502 2.71875 8.0102 2.71875 8.7002C2.71875 9.3902 3.27875 9.9502 3.96875 9.9502C4.65875 9.9502 5.21875 9.3902 5.21875 8.7002C5.21875 8.0102 4.65875 7.4502 3.96875 7.4502Z" fill="#292D32"/>
</svg>
