<svg width="24" height="24" viewBox="0 0 24 24" fill="none" xmlns="http://www.w3.org/2000/svg">
<path d="M15 22.75H9C3.57 22.75 1.25 20.43 1.25 15V9C1.25 3.57 3.57 1.25 9 1.25H15C20.43 1.25 22.75 3.57 22.75 9V15C22.75 20.43 20.43 22.75 15 22.75ZM9 2.75C4.39 2.75 2.75 4.39 2.75 9V15C2.75 19.61 4.39 21.25 9 21.25H15C19.61 21.25 21.25 19.61 21.25 15V9C21.25 4.39 19.61 2.75 15 2.75H9Z" fill="#292D32"/>
<path d="M13.952 22.7502C13.612 22.7502 13.312 22.5202 13.222 22.1802L8.27205 2.18018C8.17205 1.78018 8.42204 1.37019 8.82204 1.27019C9.22204 1.17019 9.63201 1.41019 9.73201 1.82019L14.682 21.8202C14.782 22.2202 14.532 22.6302 14.132 22.7302C14.072 22.7402 14.012 22.7502 13.952 22.7502Z" fill="#292D32"/>
<path d="M2.0018 15.7501C1.6718 15.7501 1.38183 15.5401 1.28183 15.2101C1.16183 14.8101 1.39178 14.4001 1.79178 14.2801L11.3218 11.5001C11.7218 11.3801 12.1318 11.6101 12.2518 12.0101C12.3718 12.4101 12.1418 12.8201 11.7418 12.9401L2.21183 15.7201C2.14183 15.7401 2.0718 15.7501 2.0018 15.7501Z" fill="#292D32"/>
</svg>
