<svg width="24" height="24" viewBox="0 0 24 24" fill="none" xmlns="http://www.w3.org/2000/svg">
<path d="M11.9688 22.75C6.04875 22.75 1.21875 17.93 1.21875 12C1.21875 6.07 6.04875 1.25 11.9688 1.25C17.8888 1.25 22.7188 6.07 22.7188 12C22.7188 17.93 17.8988 22.75 11.9688 22.75ZM11.9688 2.75C6.86875 2.75 2.71875 6.9 2.71875 12C2.71875 17.1 6.86875 21.25 11.9688 21.25C17.0688 21.25 21.2188 17.1 21.2188 12C21.2188 6.9 17.0688 2.75 11.9688 2.75Z" fill="#292D32"/>
<path d="M10.5622 16.99C10.1222 16.99 9.70219 16.88 9.33219 16.67C8.47219 16.17 7.99219 15.19 7.99219 13.91V10.56C7.99219 9.27999 8.46219 8.29999 9.32219 7.79999C10.1822 7.29999 11.2722 7.37999 12.3822 8.01999L15.2822 9.68999C16.3922 10.33 17.0022 11.23 17.0022 12.23C17.0022 13.22 16.3922 14.13 15.2822 14.77L12.3822 16.44C11.7622 16.81 11.1322 16.99 10.5622 16.99ZM10.5622 8.96999C10.3822 8.96999 10.2122 9.00999 10.0822 9.08999C9.70219 9.30999 9.49219 9.83999 9.49219 10.56V13.91C9.49219 14.62 9.70219 15.16 10.0822 15.37C10.4522 15.59 11.0222 15.5 11.6422 15.15L14.5422 13.48C15.1622 13.12 15.5122 12.67 15.5122 12.24C15.5122 11.81 15.1522 11.36 14.5422 11L11.6422 9.32999C11.2422 9.08999 10.8722 8.96999 10.5622 8.96999Z" fill="#292D32"/>
</svg>
