<svg width="24" height="24" viewBox="0 0 24 24" fill="none" xmlns="http://www.w3.org/2000/svg">
<path d="M19.0678 19.8201C18.8778 19.8201 18.6878 19.7501 18.5378 19.6001C18.2478 19.3101 18.2478 18.8301 18.5378 18.5401C22.1478 14.9301 22.1478 9.06011 18.5378 5.46011C18.2478 5.17011 18.2478 4.69012 18.5378 4.40012C18.8278 4.11012 19.3078 4.11012 19.5978 4.40012C23.7878 8.59012 23.7878 15.4101 19.5978 19.6001C19.4478 19.7501 19.2578 19.8201 19.0678 19.8201Z" fill="#292D32"/>
<path d="M4.93031 19.8201C4.74031 19.8201 4.55031 19.7501 4.40031 19.6001C0.210312 15.4101 0.210312 8.59012 4.40031 4.40012C4.69031 4.11012 5.17031 4.11012 5.46031 4.40012C5.75031 4.69012 5.75031 5.17011 5.46031 5.46011C1.85031 9.07011 1.85031 14.9401 5.46031 18.5401C5.75031 18.8301 5.75031 19.3101 5.46031 19.6001C5.31031 19.7501 5.12031 19.8201 4.93031 19.8201Z" fill="#292D32"/>
<path d="M11.9988 22.71C10.7488 22.7 9.5588 22.4999 8.4488 22.1099C8.0588 21.9699 7.84878 21.54 7.98878 21.15C8.12878 20.76 8.5488 20.55 8.9488 20.69C9.9088 21.02 10.9288 21.2 12.0088 21.2C13.0788 21.2 14.1088 21.02 15.0588 20.69C15.4488 20.56 15.8788 20.76 16.0188 21.15C16.1588 21.54 15.9488 21.9699 15.5588 22.1099C14.4388 22.4999 13.2488 22.71 11.9988 22.71Z" fill="#292D32"/>
<path d="M15.3009 3.34009C15.2209 3.34009 15.1309 3.33005 15.0509 3.30005C14.0909 2.97005 13.061 2.79004 11.991 2.79004C10.9209 2.79004 9.90096 2.97005 8.94096 3.30005C8.55096 3.43005 8.12097 3.23009 7.98097 2.84009C7.84097 2.45009 8.05096 2.02007 8.44096 1.88007C9.55096 1.49007 10.751 1.29004 11.991 1.29004C13.231 1.29004 14.431 1.49007 15.541 1.88007C15.931 2.02007 16.141 2.45009 16.001 2.84009C15.901 3.15009 15.6109 3.34009 15.3009 3.34009Z" fill="#292D32"/>
<path d="M10.5622 16.76C10.1222 16.76 9.70218 16.65 9.33218 16.44C8.47218 15.94 7.99219 14.96 7.99219 13.68V10.33C7.99219 9.05003 8.46218 8.07002 9.33218 7.57002C10.1922 7.07002 11.2822 7.15 12.3922 7.79L15.2922 9.46004C16.4022 10.1 17.0122 11 17.0122 12C17.0122 13 16.4022 13.9 15.2922 14.54L12.3922 16.21C11.7622 16.58 11.1322 16.76 10.5622 16.76ZM10.5622 8.74001C10.3822 8.74001 10.2122 8.78 10.0822 8.86C9.71218 9.08 9.49219 9.61002 9.49219 10.32V13.67C9.49219 14.38 9.70218 14.92 10.0822 15.13C10.4522 15.34 11.0222 15.26 11.6422 14.91L14.5422 13.24C15.1622 12.88 15.5122 12.43 15.5122 12C15.5122 11.57 15.1622 11.12 14.5422 10.76L11.6422 9.09004C11.2422 8.86004 10.8722 8.74001 10.5622 8.74001Z" fill="#292D32"/>
</svg>
