<svg width="24" height="24" viewBox="0 0 24 24" fill="none" xmlns="http://www.w3.org/2000/svg">
<path d="M15.5912 21.6598C15.4012 21.6598 15.2113 21.5898 15.0613 21.4398C14.7713 21.1498 14.7713 20.6698 15.0613 20.3798L17.8812 17.5598C18.1712 17.2698 18.6513 17.2698 18.9413 17.5598C19.2313 17.8498 19.2313 18.3298 18.9413 18.6198L16.1213 21.4398C15.9713 21.5898 15.7812 21.6598 15.5912 21.6598Z" fill="#292D32"/>
<path d="M18.4112 21.6598C18.2212 21.6598 18.0312 21.5898 17.8812 21.4398L15.0613 18.6198C14.7713 18.3298 14.7713 17.8498 15.0613 17.5598C15.3512 17.2698 15.8313 17.2698 16.1213 17.5598L18.9413 20.3798C19.2313 20.6698 19.2313 21.1498 18.9413 21.4398C18.7913 21.5898 18.6012 21.6598 18.4112 21.6598Z" fill="#292D32"/>
<path d="M12.1625 11.62C12.1325 11.62 12.1125 11.62 12.0825 11.62C12.0325 11.61 11.9625 11.61 11.9025 11.62C9.0025 11.53 6.8125 9.25 6.8125 6.44C6.8125 3.58 9.1425 1.25 12.0025 1.25C14.8625 1.25 17.1925 3.58 17.1925 6.44C17.1825 9.25 14.9825 11.53 12.1925 11.62C12.1825 11.62 12.1725 11.62 12.1625 11.62ZM12.0025 2.75C9.9725 2.75 8.3125 4.41 8.3125 6.44C8.3125 8.44 9.8725 10.05 11.8625 10.12C11.9225 10.11 12.0525 10.11 12.1825 10.12C14.1425 10.03 15.6825 8.42 15.6925 6.44C15.6925 4.41 14.0325 2.75 12.0025 2.75Z" fill="#292D32"/>
<path d="M12.0019 22.5602C9.96187 22.5602 8.03188 22.0302 6.57188 21.0502C5.18188 20.1202 4.42188 18.8502 4.42188 17.4802C4.42188 16.1102 5.19188 14.8502 6.57188 13.9302C9.56188 11.9302 14.4219 11.9302 17.4119 13.9302C17.7519 14.1602 17.8519 14.6302 17.6219 14.9702C17.3919 15.3202 16.9219 15.4102 16.5819 15.1802C14.0919 13.5202 9.89188 13.5202 7.40188 15.1802C6.44187 15.8202 5.92188 16.6302 5.92188 17.4802C5.92188 18.3302 6.45187 19.1602 7.40188 19.8002C8.61188 20.6102 10.2419 21.0502 11.9919 21.0502C12.4019 21.0502 12.7419 21.3902 12.7419 21.8002C12.7419 22.2102 12.4119 22.5602 12.0019 22.5602Z" fill="#292D32"/>
</svg>
