<svg width="24" height="24" viewBox="0 0 24 24" fill="none" xmlns="http://www.w3.org/2000/svg">
<path d="M19.5 19.75H15.5C15.09 19.75 14.75 19.41 14.75 19C14.75 18.59 15.09 18.25 15.5 18.25H19.5C19.91 18.25 20.25 18.59 20.25 19C20.25 19.41 19.91 19.75 19.5 19.75Z" fill="#292D32"/>
<path d="M12.1469 11.62C12.1169 11.62 12.0969 11.62 12.0669 11.62C12.0069 11.61 11.9469 11.62 11.8869 11.62C8.98688 11.53 6.79688 9.25 6.79688 6.44C6.79688 3.58 9.12687 1.25 11.9869 1.25C14.8469 1.25 17.1769 3.58 17.1769 6.44C17.1669 9.25 14.9669 11.53 12.1769 11.62C12.1669 11.62 12.1569 11.62 12.1469 11.62ZM11.9869 2.75C9.95687 2.75 8.29688 4.41 8.29688 6.44C8.29688 8.44 9.85688 10.05 11.8469 10.12C11.9069 10.11 12.0369 10.11 12.1669 10.12C14.1269 10.03 15.6669 8.42 15.6769 6.44C15.6769 4.41 14.0169 2.75 11.9869 2.75Z" fill="#292D32"/>
<path d="M11.9941 22.5602C9.95406 22.5602 8.02406 22.0302 6.56406 21.0502C5.17406 20.1202 4.41406 18.8502 4.41406 17.4802C4.41406 16.1102 5.18406 14.8502 6.56406 13.9302C9.55406 11.9302 14.4141 11.9302 17.4041 13.9302C17.7441 14.1602 17.8441 14.6302 17.6141 14.9702C17.3841 15.3202 16.9141 15.4102 16.5741 15.1802C14.0841 13.5202 9.88406 13.5202 7.39406 15.1802C6.43406 15.8202 5.91406 16.6302 5.91406 17.4802C5.91406 18.3302 6.43406 19.1602 7.39406 19.8002C8.60406 20.6102 10.2341 21.0502 11.9841 21.0502C12.3941 21.0502 12.7341 21.3902 12.7341 21.8002C12.7341 22.2102 12.4041 22.5602 11.9941 22.5602Z" fill="#292D32"/>
</svg>
