<svg width="24" height="24" viewBox="0 0 24 24" fill="none" xmlns="http://www.w3.org/2000/svg">
<path d="M12.1166 13.53C12.0966 13.53 12.0666 13.53 12.0466 13.53C12.0166 13.53 11.9766 13.53 11.9466 13.53C9.67656 13.46 7.97656 11.69 7.97656 9.50998C7.97656 7.28998 9.78656 5.47998 12.0066 5.47998C14.2266 5.47998 16.0366 7.28998 16.0366 9.50998C16.0266 11.7 14.3166 13.46 12.1466 13.53C12.1266 13.53 12.1266 13.53 12.1166 13.53ZM11.9966 6.96998C10.5966 6.96998 9.46656 8.10998 9.46656 9.49998C9.46656 10.87 10.5366 11.98 11.8966 12.03C11.9266 12.02 12.0266 12.02 12.1266 12.03C13.4666 11.96 14.5166 10.86 14.5266 9.49998C14.5266 8.10998 13.3966 6.96998 11.9966 6.96998Z" fill="#292D32"/>
<path d="M12.0008 22.7498C9.31081 22.7498 6.74081 21.7498 4.75081 19.9298C4.57081 19.7698 4.49081 19.5298 4.51081 19.2998C4.64081 18.1098 5.38081 16.9998 6.61081 16.1798C9.59081 14.1998 14.4208 14.1998 17.3908 16.1798C18.6208 17.0098 19.3608 18.1098 19.4908 19.2998C19.5208 19.5398 19.4308 19.7698 19.2508 19.9298C17.2608 21.7498 14.6908 22.7498 12.0008 22.7498ZM6.08081 19.0998C7.74081 20.4898 9.83081 21.2498 12.0008 21.2498C14.1708 21.2498 16.2608 20.4898 17.9208 19.0998C17.7408 18.4898 17.2608 17.8998 16.5508 17.4198C14.0908 15.7798 9.92081 15.7798 7.44081 17.4198C6.73081 17.8998 6.26081 18.4898 6.08081 19.0998Z" fill="#292D32"/>
<path d="M12 22.75C6.07 22.75 1.25 17.93 1.25 12C1.25 6.07 6.07 1.25 12 1.25C17.93 1.25 22.75 6.07 22.75 12C22.75 17.93 17.93 22.75 12 22.75ZM12 2.75C6.9 2.75 2.75 6.9 2.75 12C2.75 17.1 6.9 21.25 12 21.25C17.1 21.25 21.25 17.1 21.25 12C21.25 6.9 17.1 2.75 12 2.75Z" fill="#292D32"/>
</svg>
