<svg width="24" height="24" viewBox="0 0 24 24" fill="none" xmlns="http://www.w3.org/2000/svg">
<path d="M15.9628 21.3202C15.7728 21.3202 15.5828 21.2502 15.4328 21.1002L13.9128 19.5802C13.6228 19.2902 13.6228 18.8102 13.9128 18.5202C14.2028 18.2302 14.6828 18.2302 14.9728 18.5202L15.9628 19.5102L18.4728 17.0002C18.7628 16.7102 19.2428 16.7102 19.5328 17.0002C19.8228 17.2902 19.8228 17.7702 19.5328 18.0602L16.4928 21.1002C16.3428 21.2502 16.1528 21.3202 15.9628 21.3202Z" fill="#292D32"/>
<path d="M12.1626 11.62C12.1326 11.62 12.1126 11.62 12.0826 11.62C12.0326 11.61 11.9626 11.61 11.9026 11.62C9.00264 11.53 6.81264 9.25 6.81264 6.44C6.80264 5.06 7.34264 3.76 8.32264 2.78C9.30264 1.8 10.6026 1.25 11.9926 1.25C14.8526 1.25 17.1826 3.58 17.1826 6.44C17.1826 9.25 14.9926 11.52 12.1926 11.62C12.1826 11.62 12.1726 11.62 12.1626 11.62ZM11.9926 2.75C11.0026 2.75 10.0826 3.14 9.38264 3.83C8.69264 4.53 8.31264 5.45 8.31264 6.43C8.31264 8.43 9.87264 10.05 11.8626 10.11C11.9226 10.1 12.0526 10.1 12.1826 10.11C14.1526 10.02 15.6826 8.41 15.6826 6.43C15.6826 4.41 14.0226 2.75 11.9926 2.75Z" fill="#292D32"/>
<path d="M11.9941 22.5602C9.95406 22.5602 8.02406 22.0302 6.56406 21.0502C5.17406 20.1202 4.41406 18.8502 4.41406 17.4802C4.41406 16.1102 5.18406 14.8502 6.56406 13.9302C9.55406 11.9302 14.4141 11.9302 17.4041 13.9302C17.7441 14.1602 17.8441 14.6302 17.6141 14.9702C17.3841 15.3202 16.9141 15.4102 16.5741 15.1802C14.0841 13.5202 9.88406 13.5202 7.39406 15.1802C6.43406 15.8202 5.91406 16.6302 5.91406 17.4802C5.91406 18.3302 6.43406 19.1602 7.39406 19.8002C8.60406 20.6102 10.2341 21.0502 11.9841 21.0502C12.3941 21.0502 12.7341 21.3902 12.7341 21.8002C12.7341 22.2102 12.4041 22.5602 11.9941 22.5602Z" fill="#292D32"/>
</svg>
