<svg width="24" height="24" viewBox="0 0 24 24" fill="none" xmlns="http://www.w3.org/2000/svg">
<path d="M21.9972 12.4H16.1972C14.2972 12.4 12.8672 10.97 12.8672 9.07001V5.84998C12.8672 3.94998 14.2972 2.52002 16.1972 2.52002H19.4172C21.2472 2.52002 22.7472 4.00998 22.7472 5.84998V11.65C22.7472 12.07 22.4072 12.4 21.9972 12.4ZM16.1972 4.03003C15.1372 4.03003 14.3672 4.79999 14.3672 5.85999V9.08002C14.3672 10.14 15.1372 10.91 16.1972 10.91H21.2472V5.85999C21.2472 4.84999 20.4272 4.03003 19.4172 4.03003H16.1972Z" fill="#292D32"/>
<path d="M17.4725 21.4698C17.2125 21.4698 16.9625 21.3399 16.8225 21.0999C16.6125 20.7399 16.7325 20.2799 17.0825 20.0699C20.3125 18.1499 21.2525 17.3499 21.2525 11.6499C21.2525 11.2399 21.5925 10.8999 22.0025 10.8999C22.4125 10.8999 22.7525 11.2399 22.7525 11.6499C22.7525 17.8999 21.4825 19.2099 17.8525 21.3599C17.7325 21.4399 17.6025 21.4698 17.4725 21.4698Z" fill="#292D32"/>
<path d="M10.3722 12.4H4.57219C2.67219 12.4 1.24219 10.97 1.24219 9.07001V5.84998C1.24219 3.94998 2.67219 2.52002 4.57219 2.52002H7.80219C9.63219 2.52002 11.1322 4.00998 11.1322 5.84998V11.65C11.1222 12.07 10.7922 12.4 10.3722 12.4ZM4.58219 4.03003C3.52219 4.03003 2.75219 4.79999 2.75219 5.85999V9.08002C2.75219 10.14 3.52219 10.91 4.58219 10.91H9.63219V5.85999C9.63219 4.84999 8.81219 4.03003 7.80219 4.03003H4.58219Z" fill="#292D32"/>
<path d="M5.83964 21.4698C5.57964 21.4698 5.32964 21.3399 5.18964 21.0999C4.97964 20.7399 5.09964 20.2799 5.44964 20.0699C8.67964 18.1499 9.61964 17.3499 9.61964 11.6499C9.61964 11.2399 9.95964 10.8999 10.3696 10.8999C10.7796 10.8999 11.1196 11.2399 11.1196 11.6499C11.1196 17.8999 9.84964 19.2099 6.21964 21.3599C6.09964 21.4399 5.96964 21.4698 5.83964 21.4698Z" fill="#292D32"/>
</svg>
