<svg width="24" height="24" viewBox="0 0 24 24" fill="none" xmlns="http://www.w3.org/2000/svg">
<path d="M15 22.75H9C3.57 22.75 1.25 20.43 1.25 15V9C1.25 3.57 3.57 1.25 9 1.25H15C20.43 1.25 22.75 3.57 22.75 9V15C22.75 20.43 20.43 22.75 15 22.75ZM9 2.75C4.39 2.75 2.75 4.39 2.75 9V15C2.75 19.61 4.39 21.25 9 21.25H15C19.61 21.25 21.25 19.61 21.25 15V9C21.25 4.39 19.61 2.75 15 2.75H9Z" fill="#292D32"/>
<path d="M14.8338 14.0901H10.5938C10.1838 14.0901 9.84375 13.7501 9.84375 13.3401C9.84375 12.9301 10.1838 12.5901 10.5938 12.5901H14.0838V9.1001C14.0838 8.6901 14.4238 8.3501 14.8338 8.3501C15.2438 8.3501 15.5838 8.6901 15.5838 9.1001V13.3401C15.5838 13.7601 15.2438 14.0901 14.8338 14.0901Z" fill="#292D32"/>
<path d="M14.8294 14.0901C14.6394 14.0901 14.4494 14.0201 14.2994 13.8701L8.63938 8.21013C8.34938 7.92013 8.34938 7.44012 8.63938 7.15012C8.92937 6.86012 9.40937 6.86012 9.69937 7.15012L15.3594 12.8101C15.6494 13.1001 15.6494 13.5801 15.3594 13.8701C15.2094 14.0201 15.0194 14.0901 14.8294 14.0901Z" fill="#292D32"/>
<path d="M11.9985 18.2302C9.88849 18.2302 7.76848 17.8902 5.75848 17.2202C5.36848 17.0902 5.15848 16.6602 5.28848 16.2702C5.41848 15.8802 5.84849 15.6602 6.23849 15.8002C9.95849 17.0402 14.0485 17.0402 17.7685 15.8002C18.1585 15.6702 18.5885 15.8802 18.7185 16.2702C18.8485 16.6602 18.6385 17.0902 18.2485 17.2202C16.2285 17.9002 14.1085 18.2302 11.9985 18.2302Z" fill="#292D32"/>
</svg>
