<svg width="24" height="24" viewBox="0 0 24 24" fill="none" xmlns="http://www.w3.org/2000/svg">
<path d="M10.5435 21.94C10.3135 21.94 10.0935 21.84 9.94345 21.64L8.93344 20.29C8.72344 20.01 8.44346 19.85 8.14346 19.83C7.84346 19.81 7.54344 19.95 7.30344 20.2C5.85344 21.75 4.75345 21.62 4.22345 21.42C3.68345 21.21 2.77344 20.52 2.77344 18.3V7.04001C2.77344 2.60001 4.05344 1.25 8.24344 1.25H15.7935C19.9835 1.25 21.2635 2.60001 21.2635 7.04001V11.3C21.2635 11.71 20.9235 12.05 20.5135 12.05C20.1035 12.05 19.7635 11.71 19.7635 11.3V7.04001C19.7635 3.43001 19.1335 2.75 15.7935 2.75H8.24344C4.90344 2.75 4.27344 3.43001 4.27344 7.04001V18.3C4.27344 19.35 4.53344 19.93 4.77344 20.02C4.95344 20.09 5.44346 19.99 6.20346 19.18C6.75346 18.6 7.47345 18.29 8.22345 18.33C8.96345 18.37 9.66345 18.76 10.1335 19.39L11.1534 20.74C11.4034 21.07 11.3334 21.54 11.0034 21.79C10.8534 21.9 10.6935 21.94 10.5435 21.94Z" fill="#292D32"/>
<path d="M18.2 22.15C16.02 22.15 14.25 20.38 14.25 18.2C14.25 16.02 16.02 14.25 18.2 14.25C20.38 14.25 22.15 16.02 22.15 18.2C22.15 20.38 20.38 22.15 18.2 22.15ZM18.2 15.75C16.85 15.75 15.75 16.85 15.75 18.2C15.75 19.55 16.85 20.65 18.2 20.65C19.55 20.65 20.65 19.55 20.65 18.2C20.65 16.85 19.55 15.75 18.2 15.75Z" fill="#292D32"/>
<path d="M21.9975 22.7499C21.8075 22.7499 21.6175 22.6799 21.4675 22.5299L20.4675 21.5299C20.1775 21.2399 20.1775 20.7599 20.4675 20.4699C20.7575 20.1799 21.2375 20.1799 21.5275 20.4699L22.5275 21.4699C22.8175 21.7599 22.8175 22.2399 22.5275 22.5299C22.3775 22.6799 22.1875 22.7499 21.9975 22.7499Z" fill="#292D32"/>
<path d="M16 7.75H8C7.59 7.75 7.25 7.41 7.25 7C7.25 6.59 7.59 6.25 8 6.25H16C16.41 6.25 16.75 6.59 16.75 7C16.75 7.41 16.41 7.75 16 7.75Z" fill="#292D32"/>
<path d="M15 11.75H9C8.59 11.75 8.25 11.41 8.25 11C8.25 10.59 8.59 10.25 9 10.25H15C15.41 10.25 15.75 10.59 15.75 11C15.75 11.41 15.41 11.75 15 11.75Z" fill="#292D32"/>
</svg>
