<svg width="24" height="24" viewBox="0 0 24 24" fill="none" xmlns="http://www.w3.org/2000/svg">
<path d="M11.9688 22.75C6.04875 22.75 1.21875 17.93 1.21875 12C1.21875 6.07 6.04875 1.25 11.9688 1.25C17.8888 1.25 22.7188 6.07 22.7188 12C22.7188 17.93 17.8988 22.75 11.9688 22.75ZM11.9688 2.75C6.86875 2.75 2.71875 6.9 2.71875 12C2.71875 17.1 6.86875 21.25 11.9688 21.25C17.0688 21.25 21.2188 17.1 21.2188 12C21.2188 6.9 17.0688 2.75 11.9688 2.75Z" fill="#292D32"/>
<path d="M12.0034 16.98C9.25344 16.98 7.02344 14.75 7.02344 12C7.02344 9.25002 9.25344 7.02002 12.0034 7.02002C14.7534 7.02002 16.9834 9.25002 16.9834 12C16.9834 14.75 14.7534 16.98 12.0034 16.98ZM12.0034 8.52002C10.0834 8.52002 8.52344 10.08 8.52344 12C8.52344 13.92 10.0834 15.48 12.0034 15.48C13.9234 15.48 15.4834 13.92 15.4834 12C15.4834 10.08 13.9234 8.52002 12.0034 8.52002Z" fill="#292D32"/>
</svg>
