<svg width="24" height="24" viewBox="0 0 24 24" fill="none" xmlns="http://www.w3.org/2000/svg">
<path d="M12 22.75C6.07 22.75 1.25 17.93 1.25 12C1.25 6.07 6.07 1.25 12 1.25C17.93 1.25 22.75 6.07 22.75 12C22.75 17.93 17.93 22.75 12 22.75ZM12 2.75C6.9 2.75 2.75 6.9 2.75 12C2.75 17.1 6.9 21.25 12 21.25C17.1 21.25 21.25 17.1 21.25 12C21.25 6.9 17.1 2.75 12 2.75Z" fill="#292D32"/>
<path d="M12.0014 17.4701C10.6014 17.4701 9.20141 16.9401 8.13141 15.8701C7.85141 15.5901 7.6014 15.2801 7.3714 14.9101C7.1514 14.5601 7.26139 14.1001 7.61139 13.8801C7.96139 13.6601 8.42142 13.7701 8.64142 14.1201C8.81142 14.4001 8.99141 14.6201 9.19141 14.8201C10.7414 16.3701 13.2614 16.3701 14.8114 14.8201C15.4114 14.2201 15.7914 13.4401 15.9214 12.5701C15.9814 12.1601 16.3614 11.8601 16.7714 11.9301C17.1814 11.9901 17.4614 12.3701 17.4114 12.7801C17.2414 13.9701 16.7114 15.0401 15.8814 15.8801C14.8014 16.9401 13.4014 17.4701 12.0014 17.4701Z" fill="#292D32"/>
<path d="M7.33599 12.08C7.29599 12.08 7.266 12.08 7.226 12.07C6.816 12.01 6.52599 11.6299 6.58599 11.2199C6.75599 10.0299 7.28599 8.95996 8.11599 8.11996C10.246 5.98996 13.716 5.98996 15.856 8.11996C16.136 8.39996 16.386 8.70999 16.616 9.08999C16.836 9.43999 16.726 9.89996 16.376 10.12C16.026 10.34 15.566 10.23 15.346 9.87997C15.176 9.60997 14.996 9.37996 14.796 9.17996C13.246 7.62996 10.726 7.62996 9.17599 9.17996C8.57599 9.77996 8.196 10.56 8.066 11.43C8.026 11.81 7.70599 12.08 7.33599 12.08Z" fill="#292D32"/>
<path d="M7.82031 17.9302C7.41031 17.9302 7.07031 17.5902 7.07031 17.1802V14.5103C7.07031 14.1003 7.41031 13.7603 7.82031 13.7603H10.4903C10.9003 13.7603 11.2403 14.1003 11.2403 14.5103C11.2403 14.9203 10.9003 15.2603 10.4903 15.2603H8.57031V17.1802C8.57031 17.5902 8.24031 17.9302 7.82031 17.9302Z" fill="#292D32"/>
<path d="M16.1778 10.2398H13.5078C13.0978 10.2398 12.7578 9.89981 12.7578 9.48981C12.7578 9.07981 13.0978 8.73981 13.5078 8.73981H15.4278V6.81982C15.4278 6.40982 15.7678 6.06982 16.1778 6.06982C16.5878 6.06982 16.9278 6.40982 16.9278 6.81982V9.48981C16.9278 9.90981 16.5878 10.2398 16.1778 10.2398Z" fill="#292D32"/>
</svg>
