<svg width="24" height="24" viewBox="0 0 24 24" fill="none" xmlns="http://www.w3.org/2000/svg">
<path d="M3.91 17.1799C3.72 17.1799 3.53 17.1099 3.38 16.9599C2.01 15.5799 1.25 13.7599 1.25 11.8299C1.25 7.81994 4.5 4.55992 8.5 4.55992L14.57 4.57994L13.48 3.5399C13.18 3.2499 13.17 2.77991 13.46 2.47991C13.75 2.17991 14.22 2.16995 14.52 2.45995L16.96 4.79991C17.18 5.00991 17.25 5.33992 17.14 5.61992C17.03 5.89992 16.75 6.08995 16.44 6.08995L8.48999 6.06993C5.31999 6.06993 2.73999 8.65995 2.73999 11.84C2.73999 13.37 3.33999 14.8199 4.42999 15.9099C4.71999 16.1999 4.71999 16.6799 4.42999 16.9699C4.28999 17.1099 4.1 17.1799 3.91 17.1799Z" fill="#292D32"/>
<path d="M10.0038 21.75C9.81382 21.75 9.63383 21.6799 9.48383 21.5399L7.04382 19.2C6.82382 18.99 6.7538 18.66 6.8638 18.38C6.9738 18.1 7.25381 17.9099 7.56381 17.9099L15.5138 17.93C18.6838 17.93 21.2638 15.3399 21.2638 12.1599C21.2638 10.6299 20.6638 9.18 19.5738 8.09C19.2838 7.8 19.2838 7.32 19.5738 7.03C19.8638 6.74 20.3438 6.74 20.6338 7.03C22.0038 8.41 22.7638 10.2299 22.7638 12.1599C22.7638 16.1699 19.5138 19.43 15.5138 19.43L9.44382 19.4099L10.5338 20.45C10.8338 20.74 10.8438 21.21 10.5538 21.51C10.3938 21.67 10.2038 21.75 10.0038 21.75Z" fill="#292D32"/>
<path d="M12.2485 15.4201C11.8385 15.4201 11.4985 15.0801 11.4985 14.6701V11.2801L11.3085 11.4901C11.0285 11.8001 10.5585 11.8201 10.2485 11.5501C9.93853 11.2801 9.91854 10.8001 10.1885 10.4901L11.6885 8.82008C11.8985 8.59008 12.2285 8.51007 12.5185 8.62007C12.8085 8.73007 12.9985 9.01008 12.9985 9.32008V14.6701C12.9985 15.0901 12.6585 15.4201 12.2485 15.4201Z" fill="#292D32"/>
</svg>
