<svg width="24" height="24" viewBox="0 0 24 24" fill="none" xmlns="http://www.w3.org/2000/svg">
<path d="M10.9107 13.155L5.96094 18.1048M11.6178 7.14451C14.4463 4.31614 18.8657 2.72514 21.1638 2.90201C21.3406 5.20001 19.7496 9.61951 16.9212 12.4479C14.0927 15.2763 10.9107 17.3976 9.14294 18.1048L5.96094 14.9228C6.66806 13.155 8.78944 9.97301 11.6178 7.14451Z" stroke="#7332D6" stroke-width="1.5" stroke-linecap="round" stroke-linejoin="round"/>
<path d="M14.9784 9.08823C15.5642 9.67402 16.5139 9.67402 17.0997 9.08823C17.6855 8.50244 17.6855 7.5527 17.0997 6.96691C16.5139 6.38112 15.5642 6.38112 14.9784 6.96691C14.3926 7.5527 14.3926 8.50244 14.9784 9.08823Z" fill="#7332D6"/>
<path d="M14.4485 14.922L14.6446 17.079C14.742 18.1502 14.2584 19.1915 13.3773 19.8084L11.2665 21.2859L11.0898 17.22M9.14512 9.6186L6.98812 9.42248C6.46187 9.37464 5.93231 9.46664 5.45303 9.68919C4.97376 9.91174 4.56177 10.2569 4.25875 10.6899L2.78125 12.8006L6.84713 12.9774" stroke="#7332D6" stroke-width="1.5" stroke-linecap="round" stroke-linejoin="round"/>
</svg>
