<svg width="24" height="24" viewBox="0 0 24 24" fill="none" xmlns="http://www.w3.org/2000/svg">
<path d="M11.9981 22.7501C6.79813 22.7501 2.57812 18.5201 2.57812 13.3301C2.57812 11.4601 3.12813 9.65014 4.16813 8.09014C4.39813 7.75014 4.86813 7.65014 5.20813 7.88014C5.54813 8.11014 5.64813 8.58014 5.41813 8.92014C4.54813 10.2201 4.08813 11.7501 4.08813 13.3201C4.08813 17.6901 7.63813 21.2401 12.0081 21.2401C16.3781 21.2401 19.9281 17.6901 19.9281 13.3201C19.9281 8.95014 16.3681 5.40014 11.9981 5.40014C11.0781 5.40014 10.1781 5.53014 9.32812 5.79014C8.92812 5.91014 8.50813 5.69014 8.38813 5.29014C8.26813 4.89014 8.48813 4.47014 8.88813 4.35014C9.88813 4.05014 10.9281 3.89014 11.9981 3.89014C17.1981 3.89014 21.4181 8.12014 21.4181 13.3101C21.4181 18.5001 17.1981 22.7501 11.9981 22.7501Z" fill="#292D32"/>
<path d="M7.87036 6.07012C7.70036 6.07012 7.52036 6.01012 7.38036 5.89012C7.06036 5.61012 7.03036 5.14012 7.30036 4.83012L10.1904 1.51012C10.4604 1.20012 10.9404 1.16012 11.2504 1.44012C11.5604 1.71012 11.5904 2.19012 11.3204 2.50012L8.43036 5.81012C8.28036 5.98012 8.07036 6.07012 7.87036 6.07012Z" fill="#292D32"/>
<path d="M11.2396 8.53013C11.0896 8.53013 10.9296 8.48013 10.7996 8.39013L7.41959 5.92013C7.08959 5.68013 7.01959 5.21013 7.25959 4.88013C7.49959 4.54013 7.96959 4.47013 8.30959 4.71013L11.6796 7.17013C12.0096 7.41013 12.0896 7.88013 11.8396 8.22013C11.6996 8.43013 11.4696 8.53013 11.2396 8.53013Z" fill="#292D32"/>
</svg>
