<svg width="24" height="24" viewBox="0 0 24 24" fill="none" xmlns="http://www.w3.org/2000/svg">
<path d="M5.46771 10.75C4.75771 10.75 4.03771 10.49 3.48771 9.96C1.64771 8.21 0.907714 6.3 1.33771 4.43C1.84771 2.23 3.77771 1.25 5.46771 1.25C7.15771 1.25 9.09771 2.24 9.59771 4.43C10.0277 6.3 9.27771 8.21 7.44771 9.96C6.89771 10.49 6.18771 10.75 5.46771 10.75ZM2.79771 4.77C2.41771 6.44 3.52771 7.92 4.52771 8.87C5.05771 9.38 5.88771 9.37 6.41771 8.87C7.41771 7.92 8.52771 6.44 8.13771 4.76C7.79771 3.28 6.48771 2.75 5.47771 2.75C4.45771 2.75 3.14771 3.28 2.79771 4.77Z" fill="#292D32"/>
<path d="M5.50781 6.2002C4.95781 6.2002 4.50781 5.7502 4.50781 5.2002C4.50781 4.6502 4.94781 4.2002 5.50781 4.2002H5.51781C6.06781 4.2002 6.51781 4.6502 6.51781 5.2002C6.51781 5.7502 6.06781 6.2002 5.50781 6.2002Z" fill="#292D32"/>
<path d="M18.4913 22.7502C17.7813 22.7502 17.0613 22.4902 16.5013 21.9602C14.6513 20.2102 13.9013 18.3002 14.3413 16.4202C14.8513 14.2302 16.7913 13.2402 18.4913 13.2402C20.1913 13.2402 22.1313 14.2302 22.6413 16.4202C23.0713 18.2902 22.3213 20.2102 20.4713 21.9502C19.9213 22.4902 19.2113 22.7502 18.4913 22.7502ZM18.4913 14.7502C17.4713 14.7502 16.1513 15.2802 15.8013 16.7702C15.4113 18.4402 16.5313 19.9302 17.5313 20.8802C18.0613 21.3902 18.9013 21.3902 19.4413 20.8802C20.4413 19.9302 21.5613 18.4502 21.1713 16.7802C20.8413 15.2802 19.5213 14.7502 18.4913 14.7502Z" fill="#292D32"/>
<path d="M18.5312 18.2002C17.9812 18.2002 17.5312 17.7502 17.5312 17.2002C17.5312 16.6502 17.9712 16.2002 18.5312 16.2002H18.5413C19.0913 16.2002 19.5413 16.6502 19.5413 17.2002C19.5413 17.7502 19.0812 18.2002 18.5312 18.2002Z" fill="#292D32"/>
<path d="M12.0014 19.75H9.32141C8.16141 19.75 7.15141 19.05 6.75141 17.97C6.34141 16.89 6.64141 15.7 7.51141 14.93L15.5014 7.94C15.9814 7.52 15.9914 6.95 15.8514 6.56C15.7014 6.17 15.3214 5.75 14.6814 5.75H12.0014C11.5914 5.75 11.2514 5.41 11.2514 5C11.2514 4.59 11.5914 4.25 12.0014 4.25H14.6814C15.8414 4.25 16.8514 4.95 17.2514 6.03C17.6614 7.11 17.3614 8.3 16.4914 9.07L8.50141 16.06C8.02141 16.48 8.01141 17.05 8.15141 17.44C8.30141 17.83 8.68141 18.25 9.32141 18.25H12.0014C12.4114 18.25 12.7514 18.59 12.7514 19C12.7514 19.41 12.4114 19.75 12.0014 19.75Z" fill="#292D32"/>
<path d="M12.0014 19.75H9.32141C8.16141 19.75 7.15141 19.05 6.75141 17.97C6.34141 16.89 6.64141 15.7 7.51141 14.93L15.5014 7.94C15.9814 7.52 15.9914 6.95 15.8514 6.56C15.7014 6.17 15.3214 5.75 14.6814 5.75H12.0014C11.5914 5.75 11.2514 5.41 11.2514 5C11.2514 4.59 11.5914 4.25 12.0014 4.25H14.6814C15.8414 4.25 16.8514 4.95 17.2514 6.03C17.6614 7.11 17.3614 8.3 16.4914 9.07L8.50141 16.06C8.02141 16.48 8.01141 17.05 8.15141 17.44C8.30141 17.83 8.68141 18.25 9.32141 18.25H12.0014C12.4114 18.25 12.7514 18.59 12.7514 19C12.7514 19.41 12.4114 19.75 12.0014 19.75Z" fill="#292D32"/>
</svg>
