<svg width="24" height="24" viewBox="0 0 24 24" fill="none" xmlns="http://www.w3.org/2000/svg">
<path d="M18.4687 22.75H14.4688C12.0487 22.75 10.7188 21.42 10.7188 19V5C10.7188 2.58 12.0487 1.25 14.4688 1.25H18.4687C20.8887 1.25 22.2187 2.58 22.2187 5V19C22.2187 21.42 20.8787 22.75 18.4687 22.75ZM14.4688 2.75C12.8888 2.75 12.2188 3.42 12.2188 5V19C12.2188 20.58 12.8888 21.25 14.4688 21.25H18.4687C20.0487 21.25 20.7187 20.58 20.7187 19V5C20.7187 3.42 20.0487 2.75 18.4687 2.75H14.4688Z" fill="#292D32"/>
<path d="M16.4687 6.75H11.4688C11.0588 6.75 10.7188 6.41 10.7188 6C10.7188 5.59 11.0588 5.25 11.4688 5.25H16.4687C16.8787 5.25 17.2187 5.59 17.2187 6C17.2187 6.41 16.8787 6.75 16.4687 6.75Z" fill="#292D32"/>
<path d="M15.4688 18.75H11.4688C11.0588 18.75 10.7188 18.41 10.7188 18C10.7188 17.59 11.0588 17.25 11.4688 17.25H15.4688C15.8787 17.25 16.2187 17.59 16.2187 18C16.2187 18.41 15.8787 18.75 15.4688 18.75Z" fill="#292D32"/>
<path d="M16.469 14.7502C16.459 14.7502 16.459 14.7502 16.469 14.7502L11.459 14.7002C11.049 14.7002 10.709 14.3602 10.719 13.9402C10.719 13.5302 11.059 13.2002 11.469 13.2002C11.469 13.2002 11.469 13.2002 11.479 13.2002L16.479 13.2502C16.889 13.2502 17.229 13.5902 17.219 14.0102C17.209 14.4202 16.879 14.7502 16.469 14.7502Z" fill="#292D32"/>
<path d="M14.4688 10.75H11.4688C11.0588 10.75 10.7188 10.41 10.7188 10C10.7188 9.59 11.0588 9.25 11.4688 9.25H14.4688C14.8787 9.25 15.2188 9.59 15.2188 10C15.2188 10.41 14.8787 10.75 14.4688 10.75Z" fill="#292D32"/>
<path d="M5.49125 22.72C4.58125 22.72 3.72125 22.16 3.13125 21.18L2.31125 19.82C2.01125 19.32 1.78125 18.5 1.78125 17.92V4.95C1.78125 2.91 3.44125 1.25 5.48125 1.25C7.52125 1.25 9.18125 2.91 9.18125 4.95V17.91C9.18125 18.49 8.95125 19.31 8.65125 19.81L7.83125 21.17C7.26125 22.16 6.40125 22.72 5.49125 22.72ZM5.49125 2.75C4.28125 2.75 3.29125 3.74 3.29125 4.95V17.91C3.29125 18.22 3.44125 18.77 3.60125 19.04L4.42125 20.4C4.73125 20.92 5.12125 21.21 5.49125 21.21C5.86125 21.21 6.25125 20.91 6.56125 20.4L7.38125 19.04C7.54125 18.77 7.69125 18.22 7.69125 17.91V4.95C7.69125 3.74 6.70125 2.75 5.49125 2.75Z" fill="#292D32"/>
<path d="M8.44125 7.75H2.53125C2.12125 7.75 1.78125 7.41 1.78125 7C1.78125 6.59 2.12125 6.25 2.53125 6.25H8.44125C8.85125 6.25 9.19125 6.59 9.19125 7C9.19125 7.41 8.85125 7.75 8.44125 7.75Z" fill="#292D32"/>
</svg>
