<svg width="16" height="16" viewBox="0 0 16 16" fill="none" xmlns="http://www.w3.org/2000/svg">
<path d="M4.66667 2H3.33333C2.59695 2 2 2.59695 2 3.33333V4.66667M2 11.3333V12.6667C2 13.4031 2.59695 14 3.33333 14H4.66667M11.3333 14H12.6667C13.4031 14 14 13.4031 14 12.6667V11.3333M14 4.66667V3.33333C14 2.59695 13.4031 2 12.6667 2H11.3333" stroke="#4C4C4C" stroke-linecap="round" stroke-linejoin="round"/>
<path d="M8 8C9.10457 8 10 7.10457 10 6C10 4.89543 9.10457 4 8 4C6.89543 4 6 4.89543 6 6C6 7.10457 6.89543 8 8 8Z" stroke="#4C4C4C" stroke-linecap="round" stroke-linejoin="round"/>
<path d="M11.3307 10.6667C11.3307 9.19393 9.83833 8 7.9974 8C6.15645 8 4.66406 9.19393 4.66406 10.6667" stroke="#4C4C4C" stroke-linecap="round" stroke-linejoin="round"/>
</svg>
