<svg width="24" height="24" viewBox="0 0 24 24" fill="none" xmlns="http://www.w3.org/2000/svg">
<path d="M11.9984 22.7599C10.9084 22.7599 9.82845 22.4399 8.97845 21.8099L4.67844 18.5999C3.53844 17.7499 2.64844 15.9699 2.64844 14.5599V7.11994C2.64844 5.57994 3.77845 3.93994 5.22845 3.39994L10.2184 1.52994C11.2084 1.15994 12.7685 1.15994 13.7585 1.52994L18.7484 3.39994C20.1984 3.93994 21.3284 5.57994 21.3284 7.11994V14.5499C21.3284 15.9699 20.4384 17.7399 19.2984 18.5899L14.9984 21.7999C14.1684 22.4399 13.0884 22.7599 11.9984 22.7599ZM10.7484 2.93994L5.75845 4.80994C4.90845 5.12994 4.15845 6.20994 4.15845 7.12994V14.5599C4.15845 15.5099 4.82843 16.8399 5.57843 17.3999L9.87845 20.6099C11.0284 21.4699 12.9684 21.4699 14.1284 20.6099L18.4284 17.3999C19.1884 16.8299 19.8484 15.5099 19.8484 14.5599V7.11994C19.8484 6.20994 19.0984 5.12994 18.2484 4.79994L13.2585 2.92994C12.5785 2.68994 11.4184 2.68994 10.7484 2.93994Z" fill="#292D32"/>
<path d="M12 16.25C9.38 16.25 7.25 14.12 7.25 11.5C7.25 8.88 9.38 6.75 12 6.75C14.62 6.75 16.75 8.88 16.75 11.5C16.75 14.12 14.62 16.25 12 16.25ZM12 8.25C10.21 8.25 8.75 9.71 8.75 11.5C8.75 13.29 10.21 14.75 12 14.75C13.79 14.75 15.25 13.29 15.25 11.5C15.25 9.71 13.79 8.25 12 8.25Z" fill="#292D32"/>
<path d="M10.996 13.2498C10.746 13.2498 10.496 13.1198 10.356 12.8898C10.146 12.5298 10.256 12.0698 10.616 11.8598L11.376 11.3998C11.456 11.3498 11.496 11.2698 11.496 11.1898V10.2598C11.496 9.84977 11.836 9.50977 12.246 9.50977C12.656 9.50977 12.996 9.83977 12.996 10.2498V11.1798C12.996 11.7898 12.666 12.3698 12.146 12.6798L11.376 13.1398C11.266 13.2198 11.126 13.2498 10.996 13.2498Z" fill="#292D32"/>
</svg>
