<svg width="24" height="24" viewBox="0 0 24 24" fill="none" xmlns="http://www.w3.org/2000/svg">
<path d="M11.9984 22.7602C10.9084 22.7602 9.82845 22.4402 8.97845 21.8102L4.67844 18.6002C3.53844 17.7502 2.64844 15.9802 2.64844 14.5602V7.13019C2.64844 5.59019 3.77845 3.95019 5.22845 3.41019L10.2184 1.5402C11.2084 1.1702 12.7685 1.1702 13.7585 1.5402L18.7585 3.41019C20.2085 3.95019 21.3384 5.59019 21.3384 7.13019V14.5602C21.3384 15.9802 20.4484 17.7502 19.3084 18.6002L15.0085 21.8102C14.1685 22.4402 13.0884 22.7602 11.9984 22.7602ZM10.7484 2.94019L5.75845 4.81018C4.89845 5.13018 4.14844 6.21019 4.14844 7.13019V14.5602C4.14844 15.5102 4.81845 16.8402 5.56845 17.4002L9.86844 20.6102C11.0184 21.4702 12.9684 21.4702 14.1184 20.6102L18.4185 17.4002C19.1785 16.8302 19.8384 15.5002 19.8384 14.5602V7.13019C19.8384 6.22019 19.0885 5.14018 18.2285 4.81018L13.2384 2.94019C12.5784 2.69019 11.4184 2.69019 10.7484 2.94019Z" fill="#292D32"/>
<path d="M12.0019 11.6702C11.9819 11.6702 11.9619 11.6702 11.9319 11.6702C10.4819 11.6302 9.42188 10.5202 9.42188 9.17017C9.42188 7.79017 10.5519 6.66016 11.9319 6.66016C13.3119 6.66016 14.4419 7.79017 14.4419 9.17017C14.4319 10.5302 13.3719 11.6301 12.0219 11.6801C12.0119 11.6701 12.0119 11.6702 12.0019 11.6702ZM11.9319 8.16016C11.3719 8.16016 10.9219 8.61017 10.9219 9.17017C10.9219 9.72017 11.3519 10.1601 11.8919 10.1801C11.8919 10.1801 11.9419 10.1801 12.0019 10.1801C12.5319 10.1501 12.9419 9.71017 12.9419 9.17017C12.9519 8.61017 12.4919 8.16016 11.9319 8.16016Z" fill="#292D32"/>
<path d="M11.9969 17.35C11.1369 17.35 10.2669 17.12 9.59689 16.67C8.92689 16.23 8.54688 15.58 8.54688 14.89C8.54688 14.2 8.92689 13.55 9.59689 13.1C10.9469 12.2 13.0569 12.21 14.3969 13.1C15.0669 13.54 15.4469 14.19 15.4469 14.88C15.4469 15.57 15.0669 16.22 14.3969 16.67C13.7269 17.12 12.8569 17.35 11.9969 17.35ZM10.4269 14.34C10.1769 14.5 10.0369 14.7 10.0469 14.88C10.0469 15.06 10.1869 15.26 10.4269 15.42C11.2669 15.98 12.7269 15.98 13.5669 15.42C13.8169 15.26 13.9569 15.06 13.9569 14.88C13.9569 14.7 13.8169 14.5 13.5769 14.34C12.7369 13.79 11.2669 13.79 10.4269 14.34Z" fill="#292D32"/>
</svg>
