<svg width="24" height="24" viewBox="0 0 24 24" fill="none" xmlns="http://www.w3.org/2000/svg">
<path d="M12.0038 22.7498C11.7638 22.7498 11.5238 22.7198 11.2938 22.6498C6.10376 21.2198 2.34375 16.3698 2.34375 11.1098V6.71978C2.34375 5.59978 3.15376 4.38983 4.19376 3.95983L9.76376 1.6798C11.2138 1.0898 12.8037 1.0898 14.2437 1.6798L19.8138 3.95983C20.8538 4.38983 21.6638 5.59978 21.6638 6.71978V11.1098C21.6638 16.3598 17.8937 21.2098 12.7137 22.6498C12.4837 22.7198 12.2438 22.7498 12.0038 22.7498ZM12.0038 2.74981C11.4338 2.74981 10.8737 2.85983 10.3337 3.07983L4.76376 5.3598C4.28376 5.5598 3.84375 6.20979 3.84375 6.72979V11.1198C3.84375 15.7098 7.14376 19.9498 11.6938 21.2098C11.8938 21.2698 12.1138 21.2698 12.3138 21.2098C16.8638 19.9498 20.1638 15.7098 20.1638 11.1198V6.72979C20.1638 6.20979 19.7237 5.5598 19.2437 5.3598L13.6738 3.07983C13.1338 2.85983 12.5738 2.74981 12.0038 2.74981Z" fill="#292D32"/>
</svg>
