<svg width="24" height="24" viewBox="0 0 24 24" fill="none" xmlns="http://www.w3.org/2000/svg">
<path d="M15 22.75H9C3.57 22.75 1.25 20.43 1.25 15V9C1.25 3.57 3.57 1.25 9 1.25H15C20.43 1.25 22.75 3.57 22.75 9V15C22.75 20.43 20.43 22.75 15 22.75ZM9 2.75C4.39 2.75 2.75 4.39 2.75 9V15C2.75 19.61 4.39 21.25 9 21.25H15C19.61 21.25 21.25 19.61 21.25 15V9C21.25 4.39 19.61 2.75 15 2.75H9Z" fill="#292D32"/>
<path d="M14.9975 10.2602C14.8075 10.2602 14.6175 10.1902 14.4675 10.0402L11.9975 7.57021L9.5275 10.0402C9.2375 10.3302 8.7575 10.3302 8.4675 10.0402C8.1775 9.75019 8.1775 9.2702 8.4675 8.9802L11.4675 5.9802C11.7575 5.6902 12.2375 5.6902 12.5275 5.9802L15.5275 8.9802C15.8175 9.2702 15.8175 9.75019 15.5275 10.0402C15.3775 10.1902 15.1875 10.2602 14.9975 10.2602Z" fill="#292D32"/>
<path d="M12 15.2603C11.59 15.2603 11.25 14.9203 11.25 14.5103V6.51025C11.25 6.10025 11.59 5.76025 12 5.76025C12.41 5.76025 12.75 6.10025 12.75 6.51025V14.5103C12.75 14.9303 12.41 15.2603 12 15.2603Z" fill="#292D32"/>
<path d="M11.9985 18.2302C9.88849 18.2302 7.76848 17.8902 5.75848 17.2202C5.36848 17.0902 5.15848 16.6602 5.28848 16.2702C5.41848 15.8802 5.84849 15.6602 6.23849 15.8002C9.95849 17.0402 14.0485 17.0402 17.7685 15.8002C18.1585 15.6702 18.5885 15.8802 18.7185 16.2702C18.8485 16.6602 18.6385 17.0902 18.2485 17.2202C16.2285 17.9002 14.1085 18.2302 11.9985 18.2302Z" fill="#292D32"/>
</svg>
