<svg width="24" height="24" viewBox="0 0 24 24" fill="none" xmlns="http://www.w3.org/2000/svg">
<path d="M14.2228 21.6298C13.0428 21.6298 11.3728 20.7998 10.0528 16.8298L9.33281 14.6698L7.17281 13.9498C3.21281 12.6298 2.38281 10.9598 2.38281 9.77983C2.38281 8.60983 3.21281 6.92983 7.17281 5.59983L15.6628 2.76983C17.7828 2.05983 19.5528 2.26983 20.6428 3.34983C21.7328 4.42983 21.9428 6.20983 21.2328 8.32983L18.4028 16.8198C17.0728 20.7998 15.4028 21.6298 14.2228 21.6298ZM7.64281 7.02983C4.86281 7.95983 3.87281 9.05983 3.87281 9.77983C3.87281 10.4998 4.86281 11.5998 7.64281 12.5198L10.1628 13.3598C10.3828 13.4298 10.5628 13.6098 10.6328 13.8298L11.4728 16.3498C12.3928 19.1298 13.5028 20.1198 14.2228 20.1198C14.9428 20.1198 16.0428 19.1298 16.9728 16.3498L19.8028 7.85983C20.3128 6.31983 20.2228 5.05983 19.5728 4.40983C18.9228 3.75983 17.6628 3.67983 16.1328 4.18983L7.64281 7.02983Z" fill="#292D32"/>
<path d="M10.1069 14.4C9.91687 14.4 9.72688 14.33 9.57688 14.18C9.28688 13.89 9.28688 13.41 9.57688 13.12L13.1569 9.53C13.4469 9.24 13.9269 9.24 14.2169 9.53C14.5069 9.82 14.5069 10.3 14.2169 10.59L10.6369 14.18C10.4969 14.33 10.2969 14.4 10.1069 14.4Z" fill="#292D32"/>
</svg>
