<svg width="24" height="24" viewBox="0 0 24 24" fill="none" xmlns="http://www.w3.org/2000/svg">
<path d="M5.41385 21.7501C4.29385 21.7501 3.58385 21.3701 3.13385 20.9201C2.25385 20.0401 1.63385 18.1701 3.61385 14.2001L4.48385 12.4701C4.59385 12.2401 4.59385 11.7601 4.48385 11.5301L3.61385 9.80014C1.62385 5.83014 2.25385 3.95014 3.13385 3.08014C4.00385 2.20014 5.88385 1.57014 9.84385 3.56014L18.4039 7.84014C20.5339 8.90014 21.7039 10.3801 21.7039 12.0001C21.7039 13.6201 20.5339 15.1001 18.4139 16.1601L9.85386 20.4401C7.91386 21.4101 6.47385 21.7501 5.41385 21.7501ZM5.41385 3.75014C4.87385 3.75014 4.45385 3.88014 4.19385 4.14014C3.46385 4.86014 3.75385 6.73014 4.95385 9.12014L5.82385 10.8601C6.14385 11.5101 6.14385 12.4901 5.82385 13.1401L4.95385 14.8701C3.75385 17.2701 3.46385 19.1301 4.19385 19.8501C4.91385 20.5801 6.78385 20.2901 9.18386 19.0901L17.7439 14.8101C19.3139 14.0301 20.2039 13.0001 20.2039 11.9901C20.2039 10.9801 19.3039 9.95014 17.7339 9.17014L9.17385 4.90014C7.65385 4.14014 6.34385 3.75014 5.41385 3.75014Z" fill="#292D32"/>
<path d="M10.8375 12.75H5.4375C5.0275 12.75 4.6875 12.41 4.6875 12C4.6875 11.59 5.0275 11.25 5.4375 11.25H10.8375C11.2475 11.25 11.5875 11.59 11.5875 12C11.5875 12.41 11.2475 12.75 10.8375 12.75Z" fill="#292D32"/>
</svg>
