<svg width="24" height="24" viewBox="0 0 24 24" fill="none" xmlns="http://www.w3.org/2000/svg">
<path d="M15 22.75H9C3.57 22.75 1.25 20.43 1.25 15V9C1.25 3.57 3.57 1.25 9 1.25H15C20.43 1.25 22.75 3.57 22.75 9V15C22.75 20.43 20.43 22.75 15 22.75ZM9 2.75C4.39 2.75 2.75 4.39 2.75 9V15C2.75 19.61 4.39 21.25 9 21.25H15C19.61 21.25 21.25 19.61 21.25 15V9C21.25 4.39 19.61 2.75 15 2.75H9Z" fill="#292D32"/>
<path d="M14.8259 12.6799C14.4159 12.6799 14.0759 12.3399 14.0759 11.9299V8.43994H10.5859C10.1759 8.43994 9.83594 8.09994 9.83594 7.68994C9.83594 7.27994 10.1759 6.93994 10.5859 6.93994H14.8259C15.2359 6.93994 15.5759 7.27994 15.5759 7.68994V11.9299C15.5759 12.3399 15.2359 12.6799 14.8259 12.6799Z" fill="#292D32"/>
<path d="M9.16937 14.0901C8.97937 14.0901 8.78938 14.0201 8.63938 13.8701C8.34938 13.5801 8.34938 13.1001 8.63938 12.8101L14.2994 7.15012C14.5894 6.86012 15.0694 6.86012 15.3594 7.15012C15.6494 7.44012 15.6494 7.92013 15.3594 8.21013L9.69937 13.8701C9.55937 14.0201 9.35937 14.0901 9.16937 14.0901Z" fill="#292D32"/>
<path d="M11.9985 18.2302C9.88849 18.2302 7.76848 17.8902 5.75848 17.2202C5.36848 17.0902 5.15848 16.6602 5.28848 16.2702C5.41848 15.8802 5.84849 15.6602 6.23849 15.8002C9.95849 17.0402 14.0485 17.0402 17.7685 15.8002C18.1585 15.6702 18.5885 15.8802 18.7185 16.2702C18.8485 16.6602 18.6385 17.0902 18.2485 17.2202C16.2285 17.9002 14.1085 18.2302 11.9985 18.2302Z" fill="#292D32"/>
</svg>
