<svg width="24" height="24" viewBox="0 0 24 24" fill="none" xmlns="http://www.w3.org/2000/svg">
<path d="M15 22.75H9C3.57 22.75 1.25 20.43 1.25 15V9C1.25 3.57 3.57 1.25 9 1.25H15C20.43 1.25 22.75 3.57 22.75 9V15C22.75 20.43 20.43 22.75 15 22.75ZM9 2.75C4.39 2.75 2.75 4.39 2.75 9V15C2.75 19.61 4.39 21.25 9 21.25H15C19.61 21.25 21.25 19.61 21.25 15V9C21.25 4.39 19.61 2.75 15 2.75H9Z" fill="#292D32"/>
<path d="M15.5781 19.2501C15.1681 19.2501 14.8281 18.9101 14.8281 18.5001V14.6001C14.8281 14.1901 15.1681 13.8501 15.5781 13.8501C15.9881 13.8501 16.3281 14.1901 16.3281 14.6001V18.5001C16.3281 18.9101 15.9881 19.2501 15.5781 19.2501Z" fill="#292D32"/>
<path d="M15.5781 8.2C15.1681 8.2 14.8281 7.86 14.8281 7.45V5.5C14.8281 5.09 15.1681 4.75 15.5781 4.75C15.9881 4.75 16.3281 5.09 16.3281 5.5V7.45C16.3281 7.86 15.9881 8.2 15.5781 8.2Z" fill="#292D32"/>
<path d="M15.5766 13.4002C13.7266 13.4002 12.2266 11.9002 12.2266 10.0502C12.2266 8.2002 13.7266 6.7002 15.5766 6.7002C17.4266 6.7002 18.9266 8.2002 18.9266 10.0502C18.9266 11.9002 17.4166 13.4002 15.5766 13.4002ZM15.5766 8.2002C14.5566 8.2002 13.7266 9.0302 13.7266 10.0502C13.7266 11.0702 14.5566 11.9002 15.5766 11.9002C16.5966 11.9002 17.4266 11.0702 17.4266 10.0502C17.4266 9.0302 16.5866 8.2002 15.5766 8.2002Z" fill="#292D32"/>
<path d="M8.42188 19.2498C8.01188 19.2498 7.67188 18.9098 7.67188 18.4998V16.5498C7.67188 16.1398 8.01188 15.7998 8.42188 15.7998C8.83187 15.7998 9.17188 16.1398 9.17188 16.5498V18.4998C9.17188 18.9098 8.84187 19.2498 8.42188 19.2498Z" fill="#292D32"/>
<path d="M8.42188 10.15C8.01188 10.15 7.67188 9.81 7.67188 9.4V5.5C7.67188 5.09 8.01188 4.75 8.42188 4.75C8.83187 4.75 9.17188 5.09 9.17188 5.5V9.4C9.17188 9.81 8.84187 10.15 8.42188 10.15Z" fill="#292D32"/>
<path d="M8.42031 17.3001C6.57031 17.3001 5.07031 15.8001 5.07031 13.9501C5.07031 12.1001 6.57031 10.6001 8.42031 10.6001C10.2703 10.6001 11.7703 12.1001 11.7703 13.9501C11.7703 15.8001 10.2703 17.3001 8.42031 17.3001ZM8.42031 12.1001C7.40031 12.1001 6.57031 12.9301 6.57031 13.9501C6.57031 14.9701 7.40031 15.8001 8.42031 15.8001C9.44031 15.8001 10.2703 14.9701 10.2703 13.9501C10.2703 12.9301 9.45031 12.1001 8.42031 12.1001Z" fill="#292D32"/>
</svg>
