<svg width="24" height="24" viewBox="0 0 24 24" fill="none" xmlns="http://www.w3.org/2000/svg">
<path d="M11.7188 22.75H7.21875C3.06875 22.75 1.21875 20.9 1.21875 16.75V12.25C1.21875 8.1 3.06875 6.25 7.21875 6.25H11.7188C15.8687 6.25 17.7188 8.1 17.7188 12.25V16.75C17.7188 20.9 15.8687 22.75 11.7188 22.75ZM7.21875 7.75C3.89875 7.75 2.71875 8.93 2.71875 12.25V16.75C2.71875 20.07 3.89875 21.25 7.21875 21.25H11.7188C15.0387 21.25 16.2187 20.07 16.2187 16.75V12.25C16.2187 8.93 15.0387 7.75 11.7188 7.75H7.21875Z" fill="#292D32"/>
<path d="M16.9712 13.7198C16.7812 13.7198 16.6012 13.6498 16.4612 13.5198C16.3012 13.3798 16.2212 13.1798 16.2212 12.9698V12.2498C16.2212 8.92977 15.0412 7.74977 11.7212 7.74977H11.0012C10.7912 7.74977 10.5912 7.65977 10.4512 7.50977C10.3112 7.34977 10.2412 7.14977 10.2612 6.93977C10.5512 3.69977 13.2212 1.25977 16.4812 1.25977C19.6012 1.25977 22.2612 3.58977 22.6612 6.67977C22.7012 6.91977 22.7312 7.20977 22.7312 7.50977C22.7312 10.7698 20.2912 13.4398 17.0512 13.7298C17.0212 13.7198 17.0012 13.7198 16.9712 13.7198ZM11.8912 6.24977C15.8612 6.29977 17.6712 8.09977 17.7212 12.0798C19.7612 11.5398 21.2212 9.68977 21.2212 7.49977C21.2212 7.28977 21.2012 7.08977 21.1712 6.89977C20.8612 4.51977 18.8412 2.74977 16.4712 2.74977C14.2812 2.74977 12.4412 4.20977 11.8912 6.24977Z" fill="#292D32"/>
</svg>
