<svg width="24" height="24" viewBox="0 0 24 24" fill="none" xmlns="http://www.w3.org/2000/svg">
<path d="M11.9984 22.7599C10.9084 22.7599 9.82844 22.4399 8.97844 21.8099L4.67844 18.5999C3.53844 17.7499 2.64844 15.9699 2.64844 14.5599V7.11994C2.64844 5.57994 3.77844 3.93994 5.22844 3.39994L10.2184 1.52994C11.2084 1.15994 12.7684 1.15994 13.7584 1.52994L18.7484 3.39994C20.1984 3.93994 21.3284 5.57994 21.3284 7.11994V14.5499C21.3284 15.9699 20.4384 17.7399 19.2984 18.5899L14.9984 21.7999C14.1684 22.4399 13.0884 22.7599 11.9984 22.7599ZM10.7484 2.93994L5.75844 4.80994C4.90844 5.12994 4.15844 6.20994 4.15844 7.12994V14.5599C4.15844 15.5099 4.82844 16.8399 5.57844 17.3999L9.87844 20.6099C11.0284 21.4699 12.9684 21.4699 14.1284 20.6099L18.4284 17.3999C19.1884 16.8299 19.8484 15.5099 19.8484 14.5599V7.11994C19.8484 6.20994 19.0984 5.12994 18.2484 4.79994L13.2584 2.92994C12.5784 2.68994 11.4184 2.68994 10.7484 2.93994Z" fill="#292D32"/>
<path d="M10.6622 14.2301C10.4722 14.2301 10.2822 14.1601 10.1322 14.0101L8.52219 12.4001C8.23219 12.1101 8.23219 11.6301 8.52219 11.3401C8.81219 11.0501 9.29219 11.0501 9.58219 11.3401L10.6622 12.4201L14.4322 8.65012C14.7222 8.36012 15.2022 8.36012 15.4922 8.65012C15.7822 8.94012 15.7822 9.42012 15.4922 9.71012L11.1922 14.0101C11.0422 14.1601 10.8522 14.2301 10.6622 14.2301Z" fill="#292D32"/>
</svg>
