<svg width="24" height="24" viewBox="0 0 24 24" fill="none" xmlns="http://www.w3.org/2000/svg">
<path d="M11.9962 22.7601C10.9062 22.7601 9.82621 22.4401 8.97621 21.8101L7.38621 20.6201C7.05621 20.3701 6.98621 19.9001 7.23621 19.5701C7.48621 19.2401 7.95621 19.1701 8.28621 19.4201L9.87621 20.6101C11.0262 21.4701 12.9762 21.4701 14.1262 20.6101L18.4262 17.4001C19.1862 16.8301 19.8462 15.5001 19.8462 14.5601V7.12012C19.8462 6.71012 20.1862 6.37012 20.5962 6.37012C21.0062 6.37012 21.3462 6.71012 21.3462 7.12012V14.5501C21.3462 15.9701 20.4562 17.7401 19.3162 18.5901L15.0162 21.8001C14.1662 22.4401 13.0862 22.7601 11.9962 22.7601Z" fill="#292D32"/>
<path d="M5.32844 18.8999C5.16844 18.8999 5.01844 18.8499 4.87844 18.7499L4.67844 18.5999C3.53844 17.7499 2.64844 15.9699 2.64844 14.5599V7.11994C2.64844 5.57994 3.77844 3.93994 5.22844 3.39994L10.2184 1.52994C11.2084 1.15994 12.7684 1.15994 13.7584 1.52994L18.7584 3.39994C18.9684 3.47994 19.1684 3.57994 19.3684 3.69994C19.7184 3.91994 19.8284 4.37994 19.6084 4.72994C19.3884 5.07994 18.9284 5.18994 18.5784 4.96994C18.4684 4.89994 18.3584 4.83994 18.2384 4.79994L13.2384 2.92994C12.5784 2.67994 11.4084 2.67994 10.7484 2.92994L5.75844 4.80994C4.89844 5.12994 4.14844 6.20994 4.14844 7.12994V14.5599C4.14844 15.5099 4.81844 16.8399 5.56844 17.3999L5.76844 17.5499C6.09844 17.7999 6.16844 18.2699 5.91844 18.5999C5.78844 18.7899 5.55844 18.8999 5.32844 18.8999Z" fill="#292D32"/>
<path d="M1.9975 22.7499C1.8075 22.7499 1.6175 22.6799 1.4675 22.5299C1.1775 22.2399 1.1775 21.7599 1.4675 21.4699L21.4675 1.46994C21.7575 1.17994 22.2375 1.17994 22.5275 1.46994C22.8175 1.75994 22.8175 2.23994 22.5275 2.52994L2.5275 22.5299C2.3775 22.6799 2.1875 22.7499 1.9975 22.7499Z" fill="#292D32"/>
</svg>
