<svg width="24" height="24" viewBox="0 0 24 24" fill="none" xmlns="http://www.w3.org/2000/svg">
<path d="M11.9984 22.7599C10.9084 22.7599 9.82844 22.4399 8.97844 21.8099L4.67844 18.5999C3.53844 17.7499 2.64844 15.9699 2.64844 14.5599V7.11994C2.64844 5.57994 3.77844 3.93994 5.22844 3.39994L10.2184 1.52994C11.2084 1.15994 12.7684 1.15994 13.7584 1.52994L18.7484 3.39994C20.1984 3.93994 21.3284 5.57994 21.3284 7.11994V14.5499C21.3284 15.9699 20.4384 17.7399 19.2984 18.5899L14.9984 21.7999C14.1684 22.4399 13.0884 22.7599 11.9984 22.7599ZM10.7484 2.93994L5.75844 4.80994C4.90844 5.12994 4.15844 6.20994 4.15844 7.12994V14.5599C4.15844 15.5099 4.82844 16.8399 5.57844 17.3999L9.87844 20.6099C11.0284 21.4699 12.9684 21.4699 14.1284 20.6099L18.4284 17.3999C19.1884 16.8299 19.8484 15.5099 19.8484 14.5599V7.11994C19.8484 6.20994 19.0984 5.12994 18.2484 4.79994L13.2584 2.92994C12.5784 2.68994 11.4184 2.68994 10.7484 2.93994Z" fill="#292D32"/>
<path d="M14.1537 14.1899C13.9637 14.1899 13.7738 14.1199 13.6238 13.9699L9.37375 9.71988C9.08375 9.42988 9.08375 8.94988 9.37375 8.65988C9.66375 8.36988 10.1438 8.36988 10.4338 8.65988L14.6838 12.9099C14.9738 13.1999 14.9738 13.6799 14.6838 13.9699C14.5338 14.1099 14.3438 14.1899 14.1537 14.1899Z" fill="#292D32"/>
<path d="M9.84906 14.2299C9.65906 14.2299 9.46906 14.1599 9.31906 14.0099C9.02906 13.7199 9.02906 13.2399 9.31906 12.9499L13.5691 8.69992C13.8591 8.40992 14.3391 8.40992 14.6291 8.69992C14.9191 8.98992 14.9191 9.46992 14.6291 9.75992L10.3791 14.0099C10.2391 14.1599 10.0391 14.2299 9.84906 14.2299Z" fill="#292D32"/>
</svg>
