<svg width="24" height="24" viewBox="0 0 24 24" fill="none" xmlns="http://www.w3.org/2000/svg">
<path d="M5.56219 18.74C5.56219 18.74 5.55221 18.74 5.54221 18.74L2.99219 18.73C2.58219 18.73 2.24219 18.39 2.24219 17.98C2.24219 17.57 2.58219 17.23 2.99219 17.23L5.54221 17.24H5.55219C6.20219 17.24 6.81221 16.92 7.17221 16.37L13.5622 6.78998C14.2022 5.82998 15.2722 5.25 16.4322 5.25C16.4322 5.25 16.4422 5.25 16.4522 5.25L21.0022 5.27002C21.4122 5.27002 21.7522 5.61002 21.7522 6.02002C21.7522 6.43002 21.4122 6.77002 21.0022 6.77002L16.4522 6.75H16.4422C15.7922 6.75 15.1822 7.07 14.8222 7.62L8.43219 17.2C7.79219 18.17 6.72219 18.74 5.56219 18.74Z" fill="#292D32"/>
<path d="M18.9975 20.7299C18.8075 20.7299 18.6175 20.6599 18.4675 20.5099C18.1775 20.2199 18.1775 19.7399 18.4675 19.4499L20.4675 17.4499C20.7575 17.1599 21.2375 17.1599 21.5275 17.4499C21.8175 17.7399 21.8175 18.2199 21.5275 18.5099L19.5275 20.5099C19.3775 20.6599 19.1875 20.7299 18.9975 20.7299Z" fill="#292D32"/>
<path d="M8.89001 9.37976C8.66001 9.37976 8.43 9.26976 8.28 9.06976L7.20001 7.56976C6.83001 7.05976 6.21999 6.75977 5.60999 6.75977L3 6.76978C2.54 6.75978 2.25 6.43978 2.25 6.01978C2.25 5.60978 2.58 5.26978 3 5.26978L5.60999 5.25977C5.61999 5.25977 5.62 5.25977 5.63 5.25977C6.74001 5.25977 7.77999 5.79976 8.42999 6.68976L9.51001 8.18976C9.75001 8.52976 9.68 8.98975 9.34 9.23975C9.2 9.32975 9.05001 9.37976 8.89001 9.37976Z" fill="#292D32"/>
<path d="M16.3234 18.7499C15.2634 18.7499 14.2434 18.2499 13.5934 17.4099L12.3734 15.84C12.1234 15.51 12.1834 15.0399 12.5034 14.7899C12.8334 14.5399 13.3034 14.5999 13.5534 14.9199L14.7734 16.4899C15.1434 16.9699 15.7334 17.2099 16.3234 17.2499L20.9934 17.2299C21.4034 17.2299 21.7434 17.5599 21.7434 17.9799C21.7434 18.3899 21.4134 18.7299 20.9934 18.7299L16.3234 18.7499C16.3334 18.7499 16.3234 18.7499 16.3234 18.7499Z" fill="#292D32"/>
<path d="M20.9975 6.76999C20.8075 6.76999 20.6175 6.69996 20.4675 6.54996L18.4675 4.54996C18.1775 4.25996 18.1775 3.77996 18.4675 3.48996C18.7575 3.19996 19.2375 3.19996 19.5275 3.48996L21.5275 5.48996C21.8175 5.77996 21.8175 6.25996 21.5275 6.54996C21.3775 6.69996 21.1875 6.76999 20.9975 6.76999Z" fill="#292D32"/>
</svg>
