<svg width="24" height="24" viewBox="0 0 24 24" fill="none" xmlns="http://www.w3.org/2000/svg">
<path d="M18.6122 6.67982C18.2022 6.67982 17.8622 6.33982 17.8622 5.92982V4.41982C17.8622 3.81982 17.3722 3.31982 16.7622 3.31982H3.83219C3.23219 3.31982 2.73219 3.80982 2.73219 4.41982V5.92982C2.73219 6.33982 2.39219 6.67982 1.98219 6.67982C1.57219 6.67982 1.24219 6.33982 1.24219 5.92982V4.41982C1.24219 2.98982 2.41219 1.81982 3.84219 1.81982H16.7622C18.1922 1.81982 19.3622 2.97982 19.3622 4.41982V5.92982C19.3622 6.33982 19.0222 6.67982 18.6122 6.67982Z" fill="#292D32"/>
<path d="M10.2969 18.8498C9.88688 18.8498 9.54688 18.5098 9.54688 18.0998V3.31982C9.54688 2.90982 9.88688 2.56982 10.2969 2.56982C10.7069 2.56982 11.0469 2.90982 11.0469 3.31982V18.0998C11.0469 18.5198 10.7069 18.8498 10.2969 18.8498Z" fill="#292D32"/>
<path d="M12.4784 18.8501H6.89844C6.48844 18.8501 6.14844 18.5101 6.14844 18.1001C6.14844 17.6901 6.48844 17.3501 6.89844 17.3501H12.4784C12.8884 17.3501 13.2284 17.6901 13.2284 18.1001C13.2284 18.5101 12.8884 18.8501 12.4784 18.8501Z" fill="#292D32"/>
<path d="M22.0097 13.2001C21.5997 13.2001 21.2597 12.8601 21.2597 12.4501V11.6501C21.2597 11.3401 20.9997 11.0801 20.6897 11.0801H13.6797C13.2697 11.0801 12.9297 10.7401 12.9297 10.3301C12.9297 9.92008 13.2697 9.58008 13.6797 9.58008H20.6897C21.8297 9.58008 22.7597 10.5101 22.7597 11.6501V12.4501C22.7597 12.8701 22.4297 13.2001 22.0097 13.2001Z" fill="#292D32"/>
<path d="M16.0781 22.1801C15.6681 22.1801 15.3281 21.8401 15.3281 21.4301V10.8701C15.3281 10.4601 15.6681 10.1201 16.0781 10.1201C16.4881 10.1201 16.8281 10.4601 16.8281 10.8701V21.4301C16.8281 21.8401 16.4881 22.1801 16.0781 22.1801Z" fill="#292D32"/>
<path d="M18.2175 22.1802H13.9375C13.5275 22.1802 13.1875 21.8402 13.1875 21.4302C13.1875 21.0202 13.5275 20.6802 13.9375 20.6802H18.2175C18.6275 20.6802 18.9675 21.0202 18.9675 21.4302C18.9675 21.8402 18.6275 22.1802 18.2175 22.1802Z" fill="#292D32"/>
</svg>
