<svg width="24" height="24" viewBox="0 0 24 24" fill="none" xmlns="http://www.w3.org/2000/svg">
<path d="M10 14.75H6.2C2.78 14.75 1.25 13.22 1.25 9.80005V6.19995C1.25 2.77995 2.78 1.25 6.2 1.25H9.8C13.22 1.25 14.75 2.77995 14.75 6.19995V10C14.75 10.41 14.42 10.74 14.01 10.75C11.61 10.79 10.79 11.62 10.75 14.01C10.74 14.42 10.41 14.75 10 14.75ZM6.2 2.75C3.62 2.75 2.75 3.61995 2.75 6.19995V9.80005C2.75 12.38 3.62 13.25 6.2 13.25H9.29C9.53 10.81 10.81 9.54004 13.25 9.29004V6.19995C13.25 3.61995 12.38 2.75 9.8 2.75H6.2Z" fill="#292D32"/>
<path d="M5.20147 6.63014C4.97147 6.63014 4.73147 6.52019 4.59147 6.31019C4.35147 5.97019 4.43147 5.50015 4.77147 5.26015C5.55147 4.71015 6.60147 4.70013 7.39147 5.24013C7.73147 5.47013 7.82147 5.94017 7.59147 6.28017C7.36147 6.62017 6.89147 6.71012 6.55147 6.48012C6.28147 6.30012 5.92147 6.30013 5.65147 6.49013C5.50147 6.59013 5.35147 6.63014 5.20147 6.63014Z" fill="#292D32"/>
<path d="M9.20147 6.63014C8.97147 6.63014 8.73147 6.52019 8.59147 6.31019C8.35147 5.97019 8.43147 5.50015 8.77147 5.26015C9.55147 4.71015 10.6015 4.70013 11.3915 5.24013C11.7315 5.47013 11.8215 5.94017 11.5915 6.28017C11.3615 6.62017 10.8915 6.71012 10.5515 6.48012C10.2815 6.30012 9.92147 6.30013 9.65147 6.49013C9.50147 6.59013 9.35147 6.63014 9.20147 6.63014Z" fill="#292D32"/>
<path d="M8.15688 12.1702H5.83688C5.12688 12.1702 4.54688 11.5901 4.54688 10.8801C4.54688 8.98013 6.09688 7.43018 7.99688 7.43018C8.77688 7.43018 9.54688 7.70006 10.1569 8.19006C10.4769 8.45006 10.5369 8.92011 10.2769 9.24011C10.0169 9.56011 9.54688 9.61011 9.22688 9.36011C8.87688 9.08011 8.45687 8.93018 8.00687 8.93018C7.00687 8.93018 6.17688 9.69017 6.06688 10.6702H8.16687C8.57687 10.6702 8.91687 11.0102 8.91687 11.4202C8.91687 11.8302 8.56688 12.1702 8.15688 12.1702Z" fill="#292D32"/>
<path d="M17.8 22.75H14.2C10.78 22.75 9.25 21.22 9.25 17.8V14C9.31 10.81 10.81 9.31 13.99 9.25H17.8C21.22 9.25 22.75 10.78 22.75 14.2V17.8C22.75 21.22 21.22 22.75 17.8 22.75ZM14 10.75C11.62 10.79 10.79 11.62 10.75 14.01V17.8C10.75 20.38 11.62 21.25 14.2 21.25H17.8C20.38 21.25 21.25 20.38 21.25 17.8V14.2C21.25 11.62 20.38 10.75 17.8 10.75H14Z" fill="#292D32"/>
<path d="M14.0915 14.6301C13.6215 14.6301 13.1615 14.4901 12.7715 14.2101C12.4315 13.9701 12.3515 13.5002 12.5915 13.1602C12.8315 12.8202 13.3015 12.7401 13.6415 12.9801C13.9115 13.1701 14.2715 13.1701 14.5415 12.9901C14.8815 12.7601 15.3515 12.8401 15.5815 13.1901C15.8115 13.5301 15.7315 14.0001 15.3815 14.2301C14.9915 14.5001 14.5415 14.6301 14.0915 14.6301Z" fill="#292D32"/>
<path d="M18.0915 14.6301C17.6215 14.6301 17.1615 14.4901 16.7715 14.2101C16.4315 13.9701 16.3515 13.5002 16.5915 13.1602C16.8315 12.8202 17.3015 12.7401 17.6415 12.9801C17.9115 13.1701 18.2715 13.1701 18.5415 12.9901C18.8815 12.7601 19.3515 12.8401 19.5815 13.1901C19.8115 13.5301 19.7315 14.0001 19.3815 14.2301C18.9915 14.5001 18.5415 14.6301 18.0915 14.6301Z" fill="#292D32"/>
<path d="M15.9969 20.1702C14.0969 20.1702 12.5469 18.6201 12.5469 16.7201C12.5469 16.0101 13.1269 15.4302 13.8369 15.4302H18.1569C18.8669 15.4302 19.4469 16.0101 19.4469 16.7201C19.4469 18.6201 17.8969 20.1702 15.9969 20.1702ZM14.0569 16.9302C14.1569 17.9102 14.9869 18.6702 15.9969 18.6702C17.0069 18.6702 17.8269 17.9102 17.9369 16.9302H14.0569Z" fill="#292D32"/>
</svg>
