<svg width="24" height="24" viewBox="0 0 24 24" fill="none" xmlns="http://www.w3.org/2000/svg">
<path d="M9.98589 22.5501C9.93589 22.5501 9.88589 22.5501 9.83589 22.5301C6.00589 21.7501 2.89589 18.9301 1.73589 15.1901C1.61589 14.7901 1.8359 14.3701 2.2259 14.2501C2.6259 14.1301 3.04589 14.3501 3.16589 14.7401C4.16589 17.9601 6.83589 20.3801 10.1359 21.0501C10.5459 21.1301 10.8059 21.5301 10.7159 21.9401C10.6459 22.3001 10.3259 22.5501 9.98589 22.5501Z" fill="#292D32"/>
<path d="M21.9483 11.73C21.5683 11.73 21.2383 11.44 21.1983 11.06C20.7183 6.32 16.7583 2.75 11.9983 2.75C7.22827 2.75 3.27827 6.32 2.79827 11.05C2.75827 11.46 2.39827 11.77 1.97827 11.72C1.56827 11.68 1.26827 11.31 1.30827 10.9C1.86827 5.4 6.46827 1.25 11.9983 1.25C17.5383 1.25 22.1383 5.4 22.6883 10.9C22.7283 11.31 22.4283 11.68 22.0183 11.72C21.9983 11.73 21.9683 11.73 21.9483 11.73Z" fill="#292D32"/>
<path d="M14.0101 22.5498C13.6601 22.5498 13.3501 22.3098 13.2801 21.9498C13.2001 21.5398 13.4601 21.1498 13.8601 21.0698C17.1401 20.3998 19.8101 17.9998 20.8201 14.7998C20.9401 14.3998 21.3701 14.1798 21.7601 14.3098C22.1601 14.4298 22.3701 14.8598 22.2501 15.2498C21.0701 18.9698 17.9701 21.7598 14.1601 22.5398C14.1101 22.5398 14.0601 22.5498 14.0101 22.5498Z" fill="#292D32"/>
</svg>
