<svg width="24" height="24" viewBox="0 0 24 24" fill="none" xmlns="http://www.w3.org/2000/svg">
<path d="M11.9688 22.75C6.04875 22.75 1.21875 17.93 1.21875 12C1.21875 6.07 6.04875 1.25 11.9688 1.25C17.8888 1.25 22.7188 6.07 22.7188 12C22.7188 17.93 17.8988 22.75 11.9688 22.75ZM11.9688 2.75C6.86875 2.75 2.71875 6.9 2.71875 12C2.71875 17.1 6.86875 21.25 11.9688 21.25C17.0688 21.25 21.2188 17.1 21.2188 12C21.2188 6.9 17.0688 2.75 11.9688 2.75Z" fill="#292D32"/>
<path d="M13.2734 16.98H10.7334C8.20344 16.98 7.02344 15.8 7.02344 13.27V10.73C7.02344 8.20002 8.20344 7.02002 10.7334 7.02002H13.2734C15.8034 7.02002 16.9834 8.20002 16.9834 10.73V13.27C16.9834 15.8 15.8034 16.98 13.2734 16.98ZM10.7334 8.52002C9.04344 8.52002 8.52344 9.04002 8.52344 10.73V13.27C8.52344 14.96 9.04344 15.48 10.7334 15.48H13.2734C14.9634 15.48 15.4834 14.96 15.4834 13.27V10.73C15.4834 9.04002 14.9634 8.52002 13.2734 8.52002H10.7334Z" fill="#292D32"/>
</svg>
