<svg width="24" height="24" viewBox="0 0 24 24" fill="none" xmlns="http://www.w3.org/2000/svg">
<path d="M11.9975 19.3701C10.2075 19.3701 8.4175 18.6901 7.0475 17.3201C4.3175 14.5901 4.3175 10.1501 7.0475 7.42006C9.7775 4.69006 14.2175 4.69006 16.9475 7.42006C19.6775 10.1501 19.6775 14.5901 16.9475 17.3201C15.5775 18.6901 13.7875 19.3701 11.9975 19.3701ZM11.9975 6.87007C10.5875 6.87007 9.1775 7.41006 8.1075 8.48006C5.9675 10.6301 5.9675 14.1101 8.1075 16.2601C10.2575 18.4101 13.7475 18.4001 15.8875 16.2601C18.0275 14.1101 18.0275 10.6301 15.8875 8.48006C14.8175 7.41006 13.4075 6.87007 11.9975 6.87007Z" fill="#292D32"/>
<path d="M8.25296 22.3899C8.16296 22.3899 8.06297 22.3699 7.97297 22.3399C5.72297 21.4399 3.90296 19.8499 2.68296 17.7499C1.50296 15.6999 1.03296 13.3799 1.34296 11.0199C1.39296 10.6099 1.77296 10.3199 2.18296 10.3699C2.59296 10.4199 2.88295 10.7999 2.83295 11.2099C2.57295 13.2299 2.97298 15.2299 3.98298 16.9899C5.02298 18.7899 6.59295 20.1599 8.52295 20.9299C8.90295 21.0899 9.09297 21.5198 8.94297 21.9098C8.83297 22.2098 8.54296 22.3899 8.25296 22.3899Z" fill="#292D32"/>
<path d="M5.85352 5.22986C5.63352 5.22986 5.41352 5.12988 5.26352 4.93988C5.00352 4.60988 5.06353 4.13989 5.39353 3.88989C7.30353 2.39989 9.58351 1.60986 12.0035 1.60986C14.3635 1.60986 16.6135 2.36988 18.5035 3.80988C18.8335 4.05988 18.8935 4.52986 18.6435 4.85986C18.3935 5.18986 17.9235 5.24988 17.5935 4.99988C15.9735 3.75988 14.0435 3.10986 12.0035 3.10986C9.92351 3.10986 7.95351 3.78989 6.31351 5.06989C6.17351 5.17989 6.01352 5.22986 5.85352 5.22986Z" fill="#292D32"/>
<path d="M15.7527 22.3901C15.4527 22.3901 15.1726 22.2101 15.0526 21.9201C14.9026 21.5401 15.0827 21.1001 15.4727 20.9401C17.4027 20.1601 18.9727 18.8001 20.0127 17.0001C21.0327 15.2401 21.4327 13.2401 21.1627 11.2201C21.1127 10.8101 21.4026 10.4301 21.8126 10.3801C22.2126 10.3301 22.6026 10.6201 22.6526 11.0301C22.9526 13.3801 22.4926 15.7101 21.3126 17.7601C20.1026 19.8601 18.2726 21.4401 16.0226 22.3501C15.9426 22.3701 15.8527 22.3901 15.7527 22.3901Z" fill="#292D32"/>
</svg>
