<svg width="24" height="24" viewBox="0 0 24 24" fill="none" xmlns="http://www.w3.org/2000/svg">
<path d="M17.0022 21H10.2822C8.66219 21 7.11219 20.31 6.03219 19.12L2.50219 15.24C0.822188 13.4 0.822188 10.62 2.50219 8.77L6.03219 4.89C7.11219 3.69 8.66219 3 10.2822 3H17.0022C20.1722 3 22.7522 5.58 22.7522 8.75V15.25C22.7522 18.42 20.1722 21 17.0022 21ZM10.2822 4.5C9.09219 4.5 7.94219 5.01 7.14219 5.89L3.60219 9.78C2.45219 11.05 2.45219 12.96 3.60219 14.23L7.13219 18.11C7.93219 18.99 9.08219 19.5 10.2722 19.5H17.0022C19.3422 19.5 21.2522 17.59 21.2522 15.25V8.75C21.2522 6.41 19.3422 4.5 17.0022 4.5H10.2822Z" fill="#292D32"/>
<path d="M16 15.22C15.81 15.22 15.62 15.15 15.47 15L10.53 10.05C10.24 9.75996 10.24 9.27996 10.53 8.98996C10.82 8.69996 11.3 8.69996 11.59 8.98996L16.53 13.94C16.82 14.23 16.82 14.71 16.53 15C16.38 15.15 16.19 15.22 16 15.22Z" fill="#292D32"/>
<path d="M11.06 15.2202C10.87 15.2202 10.68 15.1502 10.53 15.0002C10.24 14.7102 10.24 14.2302 10.53 13.9402L15.47 9.00021C15.76 8.71021 16.24 8.71021 16.53 9.00021C16.82 9.29021 16.82 9.77022 16.53 10.0602L11.59 15.0002C11.44 15.1502 11.25 15.2202 11.06 15.2202Z" fill="#292D32"/>
</svg>
