<svg width="24" height="24" viewBox="0 0 24 24" fill="none" xmlns="http://www.w3.org/2000/svg">
<path d="M17.6172 9.62012H12.3672C11.9572 9.62012 11.6172 9.28012 11.6172 8.87012C11.6172 8.46012 11.9572 8.12012 12.3672 8.12012H17.6172C18.0272 8.12012 18.3672 8.46012 18.3672 8.87012C18.3672 9.28012 18.0372 9.62012 17.6172 9.62012Z" fill="#292D32"/>
<path d="M7.1225 10.3798C6.9325 10.3798 6.7425 10.3098 6.5925 10.1598L5.8425 9.40982C5.5525 9.11982 5.5525 8.63982 5.8425 8.34982C6.1325 8.05982 6.6125 8.05982 6.9025 8.34982L7.1225 8.56982L8.8425 6.84982C9.1325 6.55982 9.6125 6.55982 9.9025 6.84982C10.1925 7.13982 10.1925 7.61982 9.9025 7.90982L7.6525 10.1598C7.5125 10.2998 7.3225 10.3798 7.1225 10.3798Z" fill="#292D32"/>
<path d="M17.6172 16.6201H12.3672C11.9572 16.6201 11.6172 16.2801 11.6172 15.8701C11.6172 15.4601 11.9572 15.1201 12.3672 15.1201H17.6172C18.0272 15.1201 18.3672 15.4601 18.3672 15.8701C18.3672 16.2801 18.0372 16.6201 17.6172 16.6201Z" fill="#292D32"/>
<path d="M7.1225 17.3798C6.9325 17.3798 6.7425 17.3098 6.5925 17.1598L5.8425 16.4098C5.5525 16.1198 5.5525 15.6398 5.8425 15.3498C6.1325 15.0598 6.6125 15.0598 6.9025 15.3498L7.1225 15.5698L8.8425 13.8498C9.1325 13.5598 9.6125 13.5598 9.9025 13.8498C10.1925 14.1398 10.1925 14.6198 9.9025 14.9098L7.6525 17.1598C7.5125 17.2998 7.3225 17.3798 7.1225 17.3798Z" fill="#292D32"/>
<path d="M15 22.75H9C3.57 22.75 1.25 20.43 1.25 15V9C1.25 3.57 3.57 1.25 9 1.25H15C20.43 1.25 22.75 3.57 22.75 9V15C22.75 20.43 20.43 22.75 15 22.75ZM9 2.75C4.39 2.75 2.75 4.39 2.75 9V15C2.75 19.61 4.39 21.25 9 21.25H15C19.61 21.25 21.25 19.61 21.25 15V9C21.25 4.39 19.61 2.75 15 2.75H9Z" fill="#292D32"/>
</svg>
