<svg width="24" height="24" viewBox="0 0 24 24" fill="none" xmlns="http://www.w3.org/2000/svg">
<path d="M21 20.25H11C10.59 20.25 10.25 19.91 10.25 19.5C10.25 19.09 10.59 18.75 11 18.75H21C21.41 18.75 21.75 19.09 21.75 19.5C21.75 19.91 21.41 20.25 21 20.25Z" fill="#292D32"/>
<path d="M21 13.25H11C10.59 13.25 10.25 12.91 10.25 12.5C10.25 12.09 10.59 11.75 11 11.75H21C21.41 11.75 21.75 12.09 21.75 12.5C21.75 12.91 21.41 13.25 21 13.25Z" fill="#292D32"/>
<path d="M21 6.25H11C10.59 6.25 10.25 5.91 10.25 5.5C10.25 5.09 10.59 4.75 11 4.75H21C21.41 4.75 21.75 5.09 21.75 5.5C21.75 5.91 21.41 6.25 21 6.25Z" fill="#292D32"/>
<path d="M3.9975 7.24994C3.8075 7.24994 3.6175 7.17994 3.4675 7.02994L2.4675 6.02994C2.1775 5.73994 2.1775 5.25994 2.4675 4.96994C2.7575 4.67994 3.2375 4.67994 3.5275 4.96994L3.9975 5.43994L6.4675 2.96994C6.7575 2.67994 7.2375 2.67994 7.5275 2.96994C7.8175 3.25994 7.8175 3.73994 7.5275 4.02994L4.5275 7.02994C4.3775 7.17994 4.1875 7.24994 3.9975 7.24994Z" fill="#292D32"/>
<path d="M3.9975 14.2499C3.8075 14.2499 3.6175 14.1799 3.4675 14.0299L2.4675 13.0299C2.1775 12.7399 2.1775 12.2599 2.4675 11.9699C2.7575 11.6799 3.2375 11.6799 3.5275 11.9699L3.9975 12.4399L6.4675 9.96994C6.7575 9.67994 7.2375 9.67994 7.5275 9.96994C7.8175 10.2599 7.8175 10.7399 7.5275 11.0299L4.5275 14.0299C4.3775 14.1799 4.1875 14.2499 3.9975 14.2499Z" fill="#292D32"/>
<path d="M3.9975 21.2499C3.8075 21.2499 3.6175 21.1799 3.4675 21.0299L2.4675 20.0299C2.1775 19.7399 2.1775 19.2599 2.4675 18.9699C2.7575 18.6799 3.2375 18.6799 3.5275 18.9699L3.9975 19.4399L6.4675 16.9699C6.7575 16.6799 7.2375 16.6799 7.5275 16.9699C7.8175 17.2599 7.8175 17.7399 7.5275 18.0299L4.5275 21.0299C4.3775 21.1799 4.1875 21.2499 3.9975 21.2499Z" fill="#292D32"/>
</svg>
