<svg width="24" height="24" viewBox="0 0 24 24" fill="none" xmlns="http://www.w3.org/2000/svg">
<path d="M21 5.25H3C2.59 5.25 2.25 4.91 2.25 4.5C2.25 4.09 2.59 3.75 3 3.75H21C21.41 3.75 21.75 4.09 21.75 4.5C21.75 4.91 21.41 5.25 21 5.25Z" fill="#292D32"/>
<path d="M16.7378 10.25H7.25781C6.84781 10.25 6.50781 9.91 6.50781 9.5C6.50781 9.09 6.84781 8.75 7.25781 8.75H16.7278C17.1378 8.75 17.4778 9.09 17.4778 9.5C17.4778 9.91 17.1478 10.25 16.7378 10.25Z" fill="#292D32"/>
<path d="M21 15.25H3C2.59 15.25 2.25 14.91 2.25 14.5C2.25 14.09 2.59 13.75 3 13.75H21C21.41 13.75 21.75 14.09 21.75 14.5C21.75 14.91 21.41 15.25 21 15.25Z" fill="#292D32"/>
<path d="M16.7378 20.25H7.25781C6.84781 20.25 6.50781 19.91 6.50781 19.5C6.50781 19.09 6.84781 18.75 7.25781 18.75H16.7278C17.1378 18.75 17.4778 19.09 17.4778 19.5C17.4778 19.91 17.1478 20.25 16.7378 20.25Z" fill="#292D32"/>
</svg>
