<svg width="24" height="24" viewBox="0 0 24 24" fill="none" xmlns="http://www.w3.org/2000/svg">
<path d="M12.0028 12.75H4.88281C4.47281 12.75 4.13281 12.41 4.13281 12V4.5C4.13281 2.98 5.36281 1.75 6.88281 1.75H12.0028C15.0328 1.75 17.5028 4.22 17.5028 7.25C17.5028 10.28 15.0328 12.75 12.0028 12.75ZM5.62281 11.25H12.0028C14.2128 11.25 16.0028 9.46 16.0028 7.25C16.0028 5.04 14.2128 3.25 12.0028 3.25H6.88281C6.19281 3.25 5.63281 3.81 5.63281 4.5V11.25H5.62281Z" fill="#292D32"/>
<path d="M14.3828 22.25H6.88281C5.36281 22.25 4.13281 21.02 4.13281 19.5V12C4.13281 11.59 4.47281 11.25 4.88281 11.25H14.3828C17.4128 11.25 19.8828 13.72 19.8828 16.75C19.8828 19.78 17.4128 22.25 14.3828 22.25ZM5.62281 12.75V19.5C5.62281 20.19 6.18281 20.75 6.87281 20.75H14.3728C16.5828 20.75 18.3728 18.96 18.3728 16.75C18.3728 14.54 16.5828 12.75 14.3728 12.75H5.62281Z" fill="#292D32"/>
</svg>
