<svg width="24" height="24" viewBox="0 0 24 24" fill="none" xmlns="http://www.w3.org/2000/svg">
<path d="M21.3319 7.91979C20.9219 7.91979 20.5819 7.57979 20.5819 7.16979V5.34979C20.5819 4.61979 19.9919 4.02979 19.2619 4.02979H4.74187C4.01187 4.02979 3.42188 4.61979 3.42188 5.34979V7.17978C3.42188 7.58978 3.08188 7.92978 2.67188 7.92978C2.26188 7.92978 1.92188 7.58979 1.92188 7.16979V5.34979C1.92188 3.78979 3.19187 2.52979 4.74187 2.52979H19.2619C20.8219 2.52979 22.0819 3.79979 22.0819 5.34979V7.17978C22.0819 7.58978 21.7519 7.91979 21.3319 7.91979Z" fill="#292D32"/>
<path d="M12 21.4699C11.59 21.4699 11.25 21.1299 11.25 20.7199V4.10986C11.25 3.69986 11.59 3.35986 12 3.35986C12.41 3.35986 12.75 3.69986 12.75 4.10986V20.7199C12.75 21.1399 12.41 21.4699 12 21.4699Z" fill="#292D32"/>
<path d="M15.9425 21.4702H8.0625C7.6525 21.4702 7.3125 21.1302 7.3125 20.7202C7.3125 20.3102 7.6525 19.9702 8.0625 19.9702H15.9425C16.3525 19.9702 16.6925 20.3102 16.6925 20.7202C16.6925 21.1302 16.3525 21.4702 15.9425 21.4702Z" fill="#292D32"/>
</svg>
