<svg width="24" height="24" viewBox="0 0 24 24" fill="none" xmlns="http://www.w3.org/2000/svg">
<path d="M18.8828 3.75H9.62281C9.21281 3.75 8.88281 3.41 8.88281 3C8.88281 2.59 9.22281 2.25 9.63281 2.25H18.8828C19.2928 2.25 19.6328 2.59 19.6328 3C19.6328 3.41 19.2928 3.75 18.8828 3.75Z" fill="#292D32"/>
<path d="M14.3772 21.75H5.11719C4.70719 21.75 4.36719 21.41 4.36719 21C4.36719 20.59 4.70719 20.25 5.11719 20.25H14.3672C14.7772 20.25 15.1172 20.59 15.1172 21C15.1172 21.41 14.7872 21.75 14.3772 21.75Z" fill="#292D32"/>
<path d="M9.75205 21.7501C9.69205 21.7501 9.63205 21.7401 9.57205 21.7301C9.17205 21.6301 8.92205 21.2201 9.02205 20.8201L13.5221 2.8201C13.6221 2.4201 14.0221 2.1701 14.4321 2.2701C14.8321 2.3701 15.082 2.7801 14.982 3.1801L10.482 21.1801C10.392 21.5201 10.0921 21.7501 9.75205 21.7501Z" fill="#292D32"/>
</svg>
