<svg width="24" height="24" viewBox="0 0 24 24" fill="none" xmlns="http://www.w3.org/2000/svg">
<path d="M16.6872 22.75H7.30719C3.13719 22.75 1.86719 21.48 1.86719 17.31V16.85C1.86719 16.44 2.20719 16.1 2.61719 16.1C3.49719 16.1 4.21719 15.38 4.21719 14.5C4.21719 13.62 3.49719 12.9 2.61719 12.9C2.20719 12.9 1.86719 12.56 1.86719 12.15V11.69C1.86719 7.52 3.13719 6.25 7.30719 6.25H16.6872C20.8572 6.25 22.1272 7.52 22.1272 11.69V12.63C22.1272 13.04 21.7872 13.38 21.3772 13.38C20.4972 13.38 19.7772 14.1 19.7772 14.98C19.7772 15.86 20.4972 16.57 21.3772 16.57C21.7872 16.57 22.1272 16.91 22.1272 17.32C22.1172 21.48 20.8472 22.75 16.6872 22.75ZM3.37719 17.51C3.39719 20.69 4.02719 21.25 7.31719 21.25H16.6972C19.8172 21.25 20.5372 20.74 20.6272 17.97C19.2872 17.63 18.2872 16.42 18.2872 14.97C18.2872 13.52 19.2872 12.3 20.6372 11.96V11.68C20.6372 8.33 20.0472 7.74 16.6972 7.74H7.30719C4.02719 7.74 3.39719 8.31 3.36719 11.48C4.71719 11.82 5.71719 13.04 5.71719 14.49C5.71719 15.94 4.71719 17.17 3.37719 17.51Z" fill="#292D32"/>
<path d="M10 10.25C9.59 10.25 9.25 9.91 9.25 9.5V7C9.25 6.59 9.59 6.25 10 6.25C10.41 6.25 10.75 6.59 10.75 7V9.5C10.75 9.91 10.41 10.25 10 10.25Z" fill="#292D32"/>
<path d="M10 16.9198C9.59 16.9198 9.25 16.5798 9.25 16.1698V12.8398C9.25 12.4298 9.59 12.0898 10 12.0898C10.41 12.0898 10.75 12.4298 10.75 12.8398V16.1698C10.75 16.5798 10.41 16.9198 10 16.9198Z" fill="#292D32"/>
<path d="M10 22.75C9.59 22.75 9.25 22.41 9.25 22V19.5C9.25 19.09 9.59 18.75 10 18.75C10.41 18.75 10.75 19.09 10.75 19.5V22C10.75 22.41 10.41 22.75 10 22.75Z" fill="#292D32"/>
<path d="M16.3263 7.75014H7.23627C6.93627 7.75014 6.65627 7.57014 6.54627 7.29014C6.43627 7.01014 6.49627 6.68014 6.70627 6.47014L9.63627 3.54014C12.3363 0.840137 13.9863 0.840137 16.6763 3.54014L17.2763 4.14014C17.4163 4.28014 17.4963 4.47014 17.4963 4.67014C17.4963 4.87014 17.4163 5.06014 17.2763 5.20014C16.8763 5.60014 16.7663 6.19014 16.9963 6.70014C17.1063 6.93014 17.0863 7.20014 16.9463 7.42014C16.8163 7.62014 16.5763 7.75014 16.3263 7.75014ZM9.04627 6.25014H15.3763C15.3563 5.72014 15.4863 5.19014 15.7563 4.73014L15.6263 4.60014C13.5363 2.51014 12.7963 2.51014 10.7063 4.60014L9.04627 6.25014Z" fill="#292D32"/>
</svg>
