<svg width="24" height="24" viewBox="0 0 24 24" fill="none" xmlns="http://www.w3.org/2000/svg">
<path d="M16.9987 20.75H6.99875C2.74875 20.75 1.35875 19.48 1.25875 15.52C1.25875 15.32 1.32875 15.12 1.46875 14.98C1.60875 14.84 1.79875 14.75 2.00875 14.75C3.51875 14.75 4.74875 13.51 4.74875 12C4.74875 10.49 3.51875 9.25 2.00875 9.25C1.80875 9.25 1.61875 9.17 1.46875 9.02C1.31875 8.87 1.24875 8.68 1.25875 8.48C1.35875 4.52 2.74875 3.25 6.99875 3.25H16.9987C21.4087 3.25 22.7488 4.59 22.7488 9V15C22.7488 19.41 21.4087 20.75 16.9987 20.75ZM2.78875 16.18C2.95875 18.72 3.81875 19.25 6.99875 19.25H16.9987C20.5788 19.25 21.2488 18.57 21.2488 15V9C21.2488 5.43 20.5788 4.75 16.9987 4.75H6.99875C3.81875 4.75 2.95875 5.29 2.78875 7.82C4.75875 8.2 6.24875 9.93 6.24875 12C6.24875 14.07 4.75875 15.8 2.78875 16.18Z" fill="#292D32"/>
<path d="M9 8.25C8.59 8.25 8.25 7.91 8.25 7.5V4C8.25 3.59 8.59 3.25 9 3.25C9.41 3.25 9.75 3.59 9.75 4V7.5C9.75 7.91 9.41 8.25 9 8.25Z" fill="#292D32"/>
<path d="M9 20.75C8.59 20.75 8.25 20.41 8.25 20V16.5C8.25 16.09 8.59 15.75 9 15.75C9.41 15.75 9.75 16.09 9.75 16.5V20C9.75 20.41 9.41 20.75 9 20.75Z" fill="#292D32"/>
<path d="M13.0362 15.6501C12.7962 15.6501 12.5562 15.5701 12.3562 15.4301C11.9962 15.1701 11.8162 14.7301 11.8962 14.2901L12.1062 13.1001L11.2362 12.2501C10.9162 11.9401 10.8062 11.4801 10.9362 11.0601C11.0762 10.6401 11.4362 10.3301 11.8762 10.2701L13.0762 10.0901L13.6162 9.0001C13.8162 8.6001 14.2162 8.3501 14.6562 8.3501C15.1062 8.3501 15.5062 8.6001 15.6962 9.0001L16.2362 10.0901L17.4362 10.2701C17.8762 10.3301 18.2362 10.6401 18.3762 11.0601C18.5162 11.4801 18.3962 11.9401 18.0762 12.2501L17.2062 13.1001L17.4162 14.2901C17.4962 14.7301 17.3162 15.1701 16.9562 15.4301C16.5962 15.6901 16.1262 15.7201 15.7362 15.5201L14.6662 14.9601L13.5862 15.5201C13.4162 15.6101 13.2262 15.6501 13.0362 15.6501ZM12.7662 11.6501L13.2762 12.1501C13.5562 12.4201 13.6762 12.8001 13.6162 13.1801L13.4962 13.8801L14.1262 13.5501C14.4662 13.3701 14.8662 13.3701 15.2062 13.5501L15.8362 13.8801L15.7162 13.1801C15.6562 12.7901 15.7762 12.4101 16.0562 12.1501L16.5662 11.6501L15.8662 11.5501C15.4862 11.4901 15.1562 11.2501 14.9862 10.9101L14.6762 10.2701L14.3662 10.9101C14.1962 11.2501 13.8662 11.4901 13.4862 11.5501L12.7662 11.6501Z" fill="#292D32"/>
</svg>
