<svg width="24" height="24" viewBox="0 0 24 24" fill="none" xmlns="http://www.w3.org/2000/svg">
<path d="M17.3762 20.75H10.9062C10.4963 20.75 10.1562 20.41 10.1562 20C10.1562 19.59 10.4963 19.25 10.9062 19.25H17.3762C20.4362 19.25 21.1562 18.75 21.2362 16.03C19.9163 15.69 18.9363 14.49 18.9363 13.07C18.9363 11.64 19.9163 10.43 21.2463 10.09V9.82996C21.2463 6.53996 20.6662 5.95996 17.3762 5.95996H11.7463V12C11.7463 12.41 11.4063 12.75 10.9963 12.75C10.5863 12.75 10.2463 12.41 10.2463 12V5.20996C10.2463 4.79996 10.5863 4.45996 10.9963 4.45996H17.3762C21.4962 4.45996 22.7463 5.70996 22.7463 9.82996V10.75C22.7463 11.16 22.4062 11.5 21.9963 11.5C21.1363 11.5 20.4363 12.2 20.4363 13.07C20.4363 13.93 21.1363 14.63 21.9963 14.63C22.4062 14.63 22.7463 14.97 22.7463 15.38C22.7463 19.5 21.4962 20.75 17.3762 20.75Z" fill="#292D32"/>
<path d="M10.9985 20.7502H8.22848C6.20848 20.7502 5.16848 19.2302 4.21848 16.9502L4.02848 16.4902C3.95848 16.3102 3.95848 16.1002 4.03848 15.9202C4.11848 15.7402 4.26848 15.5902 4.44848 15.5202C4.84848 15.3602 5.15848 15.0502 5.32848 14.6602C5.49848 14.2602 5.49848 13.8202 5.32848 13.4202C4.99848 12.5802 4.04848 12.1902 3.20848 12.5202C3.01848 12.6002 2.81848 12.5902 2.62848 12.5102C2.44848 12.4302 2.29848 12.2802 2.22848 12.1002L2.05848 11.6702C0.458483 7.78022 1.15848 6.11022 5.04848 4.50022L7.68848 3.42022C8.06848 3.26022 8.50848 3.45022 8.66848 3.83022L11.6985 11.1702C11.7385 11.2602 11.7585 11.3602 11.7585 11.4602V14.0002C11.7585 14.4102 11.4185 14.7502 11.0085 14.7502C10.5985 14.7502 10.2585 14.4102 10.2585 14.0002V11.6002L7.55848 5.09022L5.61848 5.89022C2.53848 7.16022 2.16848 7.94022 3.37848 10.9402C4.76848 10.7402 6.16848 11.4902 6.71848 12.8402C7.03848 13.6102 7.03848 14.4602 6.70848 15.2302C6.48848 15.7602 6.12848 16.2102 5.66848 16.5402C6.62848 18.8002 7.32848 19.2502 8.21848 19.2502H10.2385V17.0002C10.2385 16.5902 10.5785 16.2502 10.9885 16.2502C11.3985 16.2502 11.7385 16.5902 11.7385 17.0002V20.0002C11.7485 20.4102 11.4085 20.7502 10.9985 20.7502Z" fill="#292D32"/>
<path d="M8.17 20.75H8C7.59 20.75 7.25 20.41 7.25 20C7.25 19.59 7.59 19.25 8 19.25H8.17C8.58 19.25 8.92 19.59 8.92 20C8.92 20.41 8.58 20.75 8.17 20.75Z" fill="#292D32"/>
</svg>
