<svg width="24" height="24" viewBox="0 0 24 24" fill="none" xmlns="http://www.w3.org/2000/svg">
<path d="M12.0034 22.75C11.2234 22.75 10.4634 22.35 9.94344 21.65L8.93343 20.3C8.72343 20.02 8.44343 19.86 8.14343 19.84C7.84343 19.83 7.54344 19.96 7.30344 20.21L6.75343 19.7L7.30344 20.21C5.86344 21.75 4.75343 21.63 4.22343 21.42C3.68343 21.21 2.77344 20.52 2.77344 18.3V7.04C2.77344 2.6 4.05344 1.25 8.24344 1.25H15.8034C19.9934 1.25 21.2734 2.6 21.2734 7.04V18.3C21.2734 20.51 20.3634 21.2 19.8234 21.42C19.2934 21.63 18.1934 21.75 16.7434 20.21C16.5034 19.95 16.2034 19.82 15.8934 19.84C15.5934 19.86 15.3034 20.02 15.0934 20.3L14.0834 21.65C13.5434 22.35 12.7834 22.75 12.0034 22.75ZM8.08344 18.33C8.12344 18.33 8.17344 18.33 8.21344 18.33C8.95344 18.37 9.65343 18.76 10.1234 19.39L11.1334 20.74C11.6234 21.39 12.3734 21.39 12.8634 20.74L13.8734 19.39C14.3534 18.76 15.0434 18.37 15.7934 18.33C16.5434 18.29 17.2734 18.6 17.8134 19.18C18.5734 19.99 19.0634 20.09 19.2434 20.02C19.4834 19.92 19.7434 19.34 19.7434 18.3V7.04C19.7434 3.43 19.1134 2.75 15.7734 2.75H8.21344C4.87344 2.75 4.24344 3.43 4.24344 7.04V18.3C4.24344 19.35 4.50344 19.93 4.74344 20.02C4.91344 20.09 5.41343 19.99 6.17343 19.18C6.72343 18.63 7.39344 18.33 8.08344 18.33Z" fill="#292D32"/>
<path d="M14.75 10.75H9.25C8.84 10.75 8.5 10.41 8.5 10C8.5 9.59 8.84 9.25 9.25 9.25H14.75C15.16 9.25 15.5 9.59 15.5 10C15.5 10.41 15.16 10.75 14.75 10.75Z" fill="#292D32"/>
</svg>
