<svg width="24" height="24" viewBox="0 0 24 24" fill="none" xmlns="http://www.w3.org/2000/svg">
<path d="M14.7929 19.4199C14.6829 19.4199 14.5629 19.3899 14.4629 19.3399C14.0929 19.1499 13.9429 18.6999 14.1229 18.3299L16.2629 14.0599C16.3929 13.8099 16.6529 13.6499 16.9329 13.6499C17.2129 13.6499 17.4729 13.8099 17.6029 14.0699L19.7429 18.3399C19.9329 18.7099 19.7829 19.1599 19.4029 19.3499C19.0329 19.5399 18.5829 19.3899 18.3929 19.0099L16.9329 16.0799L15.4729 19.0099C15.3329 19.2699 15.0629 19.4199 14.7929 19.4199Z" fill="#292D32"/>
<path d="M18.6762 18.6602H15.1562C14.7463 18.6602 14.4062 18.3202 14.4062 17.9102C14.4062 17.5002 14.7463 17.1602 15.1562 17.1602H18.6762C19.0862 17.1602 19.4262 17.5002 19.4262 17.9102C19.4262 18.3202 19.0962 18.6602 18.6762 18.6602Z" fill="#292D32"/>
<path d="M16.9238 22.7498C13.7138 22.7498 11.0938 20.1398 11.0938 16.9198C11.0938 13.6998 13.7038 11.0898 16.9238 11.0898C20.1338 11.0898 22.7538 13.6998 22.7538 16.9198C22.7538 20.1398 20.1438 22.7498 16.9238 22.7498ZM16.9238 12.5998C14.5338 12.5998 12.5938 14.5398 12.5938 16.9298C12.5938 19.3198 14.5338 21.2598 16.9238 21.2598C19.3038 21.2598 21.2538 19.3198 21.2538 16.9298C21.2538 14.5398 19.3138 12.5998 16.9238 12.5998Z" fill="#292D32"/>
<path d="M4.86 12.7003C3.75 12.7003 2.87 12.3902 2.25 11.7902C1.59 11.1502 1.25 10.1802 1.25 8.93024V5.01025C1.25 2.58025 2.59 1.24023 5.02 1.24023H8.94C10.19 1.24023 11.15 1.57023 11.8 2.24023C12.43 2.89023 12.74 3.83027 12.71 5.03027V8.93024C12.74 10.1502 12.43 11.1103 11.78 11.7603C11.13 12.4103 10.17 12.7102 8.92999 12.6902H5.03C4.96 12.7002 4.91 12.7003 4.86 12.7003ZM5.02 2.75024C3.41 2.75024 2.75 3.41026 2.75 5.02026V8.94025C2.75 9.77025 2.92999 10.3702 3.28999 10.7202C3.63999 11.0602 4.20001 11.2103 4.99001 11.2003H8.92999C9.76999 11.2203 10.35 11.0503 10.7 10.7003C11.05 10.3503 11.21 9.76026 11.19 8.95026V5.01025C11.21 4.21025 11.05 3.64022 10.71 3.29022C10.36 2.93022 9.75999 2.75024 8.92999 2.75024H5.02Z" fill="#292D32"/>
<path d="M8.9975 6.59961H4.9375C4.5275 6.59961 4.1875 6.25961 4.1875 5.84961C4.1875 5.43961 4.5275 5.09961 4.9375 5.09961H8.9975C9.4075 5.09961 9.7475 5.43961 9.7475 5.84961C9.7475 6.25961 9.4175 6.59961 8.9975 6.59961Z" fill="#292D32"/>
<path d="M6.97656 6.59991C6.56656 6.59991 6.22656 6.25991 6.22656 5.84991V5.16992C6.22656 4.75992 6.56656 4.41992 6.97656 4.41992C7.38656 4.41992 7.72656 4.75992 7.72656 5.16992V5.84991C7.72656 6.25991 7.38656 6.59991 6.97656 6.59991Z" fill="#292D32"/>
<path d="M4.9375 9.75983C4.5275 9.75983 4.1875 9.41983 4.1875 9.00983C4.1875 8.59983 4.5275 8.25983 4.9375 8.25983C6.2075 8.25983 7.2375 7.17984 7.2375 5.83984C7.2375 5.42984 7.5775 5.08984 7.9875 5.08984C8.3975 5.08984 8.7375 5.42984 8.7375 5.83984C8.7375 7.99984 7.0375 9.75983 4.9375 9.75983Z" fill="#292D32"/>
<path d="M9.00652 9.76007C8.07652 9.76007 7.18652 9.29008 6.55652 8.46008C6.30652 8.13008 6.37653 7.66003 6.70653 7.41003C7.03653 7.16003 7.50652 7.23005 7.75652 7.56005C8.09652 8.02005 8.54652 8.27008 9.00652 8.27008C9.41652 8.27008 9.75652 8.61008 9.75652 9.02008C9.75652 9.43008 9.41652 9.76007 9.00652 9.76007Z" fill="#292D32"/>
<path d="M9 22.75C4.73 22.75 1.25 19.27 1.25 15C1.25 14.59 1.59 14.25 2 14.25C2.41 14.25 2.75 14.59 2.75 15C2.75 17.96 4.81 20.44 7.58 21.09L7.31 20.64C7.1 20.28 7.21001 19.82 7.57001 19.61C7.92001 19.4 8.39001 19.51 8.60001 19.87L9.64999 21.62C9.78999 21.85 9.79 22.14 9.66 22.37C9.52 22.6 9.27 22.75 9 22.75Z" fill="#292D32"/>
<path d="M21.9985 9.75C21.5885 9.75 21.2485 9.41 21.2485 9C21.2485 6.04 19.1885 3.55997 16.4185 2.90997L16.6885 3.35999C16.8985 3.71999 16.7885 4.18001 16.4285 4.39001C16.0785 4.60001 15.6085 4.49001 15.3985 4.13L14.3485 2.38C14.2085 2.15 14.2085 1.86 14.3385 1.63C14.4685 1.39 14.7185 1.25 14.9885 1.25C19.2585 1.25 22.7385 4.73 22.7385 9C22.7485 9.41 22.4085 9.75 21.9985 9.75Z" fill="#292D32"/>
</svg>
