<svg width="24" height="24" viewBox="0 0 24 24" fill="none" xmlns="http://www.w3.org/2000/svg">
<path d="M16.1663 10.8098H7.82632C6.96632 10.8098 6.30634 10.4698 6.00634 9.88985C5.70634 9.29985 5.82632 8.56984 6.32632 7.87984L10.4963 2.03985C11.2363 0.979847 12.7663 0.979849 13.5163 2.04985L17.6863 7.87984C18.1863 8.56984 18.3063 9.29985 18.0063 9.88985C17.6863 10.4698 17.0263 10.8098 16.1663 10.8098ZM11.9963 2.69984C11.9063 2.69984 11.8063 2.77985 11.7163 2.89985L7.54632 8.74985C7.34632 9.01985 7.33634 9.17984 7.34634 9.20985C7.35634 9.22985 7.49633 9.30984 7.83633 9.30984H16.1763C16.5063 9.30984 16.6463 9.21984 16.6663 9.19984C16.6663 9.17984 16.6563 9.01985 16.4663 8.74985L12.2963 2.90985C12.1863 2.76985 12.0863 2.69984 11.9963 2.69984Z" fill="#292D32"/>
<path d="M17.5877 18.7501H6.41773C4.98773 18.7501 4.4177 18.0601 4.2077 17.6501C3.9977 17.2401 3.77771 16.3801 4.61771 15.2201L8.6077 9.62006C8.7477 9.42006 8.97771 9.31006 9.21771 9.31006H14.7877C15.0277 9.31006 15.2577 9.43006 15.3977 9.62006L19.3877 15.2301C20.2277 16.3801 19.9977 17.2401 19.7877 17.6501C19.5777 18.0601 19.0177 18.7501 17.5877 18.7501ZM9.59772 10.8101L5.8277 16.1001C5.5077 16.5401 5.47772 16.8401 5.53772 16.9701C5.60772 17.1001 5.86772 17.2501 6.40772 17.2501H17.5777C18.1177 17.2501 18.3877 17.1001 18.4477 16.9701C18.5177 16.8401 18.4777 16.5401 18.1577 16.1001L14.3877 10.8001H9.59772V10.8101Z" fill="#292D32"/>
<path d="M12 22.75C11.59 22.75 11.25 22.41 11.25 22V18C11.25 17.59 11.59 17.25 12 17.25C12.41 17.25 12.75 17.59 12.75 18V22C12.75 22.41 12.41 22.75 12 22.75Z" fill="#292D32"/>
</svg>
