<svg width="24" height="24" viewBox="0 0 24 24" fill="none" xmlns="http://www.w3.org/2000/svg">
<path d="M12.0041 22.7501C11.3341 22.7501 10.6541 22.5801 10.0541 22.2301L4.11406 18.8001C2.91406 18.1001 2.16406 16.8101 2.16406 15.4201V8.58011C2.16406 7.19011 2.91406 5.90011 4.11406 5.20011L10.0541 1.77012C11.2541 1.07012 12.7441 1.07012 13.9541 1.77012L19.8941 5.20011C21.0941 5.90011 21.8441 7.19011 21.8441 8.58011V15.4201C21.8441 16.8101 21.0941 18.1001 19.8941 18.8001L13.9541 22.2301C13.3541 22.5801 12.6741 22.7501 12.0041 22.7501ZM12.0041 2.7501C11.5941 2.7501 11.1741 2.8601 10.8041 3.0701L4.86406 6.5001C4.12406 6.9301 3.66406 7.72011 3.66406 8.58011V15.4201C3.66406 16.2701 4.12406 17.0701 4.86406 17.5001L10.8041 20.9301C11.5441 21.3601 12.4641 21.3601 13.2041 20.9301L19.1441 17.5001C19.8841 17.0701 20.3441 16.2801 20.3441 15.4201V8.58011C20.3441 7.73011 19.8841 6.9301 19.1441 6.5001L13.2041 3.0701C12.8341 2.8601 12.4141 2.7501 12.0041 2.7501Z" fill="#292D32"/>
<path d="M12.0019 11.7498C10.3019 11.7498 8.92188 10.3698 8.92188 8.6698C8.92188 6.9698 10.3019 5.58984 12.0019 5.58984C13.7019 5.58984 15.0819 6.9698 15.0819 8.6698C15.0819 10.3698 13.7019 11.7498 12.0019 11.7498ZM12.0019 7.08984C11.1319 7.08984 10.4219 7.7998 10.4219 8.6698C10.4219 9.5398 11.1319 10.2498 12.0019 10.2498C12.8719 10.2498 13.5819 9.5398 13.5819 8.6698C13.5819 7.7998 12.8719 7.08984 12.0019 7.08984Z" fill="#292D32"/>
<path d="M16 17.4103C15.59 17.4103 15.25 17.0703 15.25 16.6603C15.25 15.2803 13.79 14.1504 12 14.1504C10.21 14.1504 8.75 15.2803 8.75 16.6603C8.75 17.0703 8.41 17.4103 8 17.4103C7.59 17.4103 7.25 17.0703 7.25 16.6603C7.25 14.4503 9.38 12.6504 12 12.6504C14.62 12.6504 16.75 14.4503 16.75 16.6603C16.75 17.0703 16.41 17.4103 16 17.4103Z" fill="#292D32"/>
</svg>
