<svg width="24" height="24" viewBox="0 0 24 24" fill="none" xmlns="http://www.w3.org/2000/svg">
<path d="M12 12.75C8.83 12.75 6.25 10.17 6.25 7C6.25 3.83 8.83 1.25 12 1.25C15.17 1.25 17.75 3.83 17.75 7C17.75 10.17 15.17 12.75 12 12.75ZM12 2.75C9.66 2.75 7.75 4.66 7.75 7C7.75 9.34 9.66 11.25 12 11.25C14.34 11.25 16.25 9.34 16.25 7C16.25 4.66 14.34 2.75 12 2.75Z" fill="#292D32"/>
<path d="M20.5941 22.75C20.1841 22.75 19.8441 22.41 19.8441 22C19.8441 18.55 16.3241 15.75 12.0041 15.75C7.68406 15.75 4.16406 18.55 4.16406 22C4.16406 22.41 3.82406 22.75 3.41406 22.75C3.00406 22.75 2.66406 22.41 2.66406 22C2.66406 17.73 6.85406 14.25 12.0041 14.25C17.1541 14.25 21.3441 17.73 21.3441 22C21.3441 22.41 21.0041 22.75 20.5941 22.75Z" fill="#292D32"/>
</svg>
