<svg width="24" height="24" viewBox="0 0 24 24" fill="none" xmlns="http://www.w3.org/2000/svg">
<path d="M12 12.75C8.83 12.75 6.25 10.17 6.25 7C6.25 3.83 8.83 1.25 12 1.25C15.17 1.25 17.75 3.83 17.75 7C17.75 10.17 15.17 12.75 12 12.75ZM12 2.75C9.66 2.75 7.75 4.66 7.75 7C7.75 9.34 9.66 11.25 12 11.25C14.34 11.25 16.25 9.34 16.25 7C16.25 4.66 14.34 2.75 12 2.75Z" fill="#292D32"/>
<path d="M3.41406 22.75C3.00406 22.75 2.66406 22.41 2.66406 22C2.66406 17.73 6.85406 14.25 12.0041 14.25C13.0141 14.25 14.0041 14.38 14.9641 14.65C15.364 14.76 15.5941 15.17 15.4841 15.57C15.3741 15.97 14.9641 16.2 14.5641 16.09C13.7441 15.86 12.8841 15.75 12.0041 15.75C7.68406 15.75 4.16406 18.55 4.16406 22C4.16406 22.41 3.82406 22.75 3.41406 22.75Z" fill="#292D32"/>
<path d="M18 22.75C16.34 22.75 14.78 21.87 13.94 20.44C13.49 19.72 13.25 18.87 13.25 18C13.25 16.54 13.9 15.19 15.03 14.29C15.87 13.62 16.93 13.25 18 13.25C20.62 13.25 22.75 15.38 22.75 18C22.75 18.87 22.51 19.72 22.06 20.45C21.81 20.87 21.49 21.25 21.11 21.57C20.28 22.33 19.17 22.75 18 22.75ZM18 14.75C17.26 14.75 16.56 15 15.97 15.47C15.2 16.08 14.75 17.01 14.75 18C14.75 18.59 14.91 19.17 15.22 19.67C15.8 20.65 16.87 21.25 18 21.25C18.79 21.25 19.55 20.96 20.13 20.44C20.39 20.22 20.61 19.96 20.77 19.68C21.09 19.17 21.25 18.59 21.25 18C21.25 16.21 19.79 14.75 18 14.75Z" fill="#292D32"/>
<path d="M17.4328 19.7401C17.2428 19.7401 17.0528 19.6701 16.9028 19.5201L15.9128 18.5301C15.6228 18.2401 15.6228 17.76 15.9128 17.47C16.2028 17.18 16.6828 17.18 16.9728 17.47L17.4528 17.9501L19.0528 16.47C19.3528 16.19 19.8328 16.2101 20.1128 16.5101C20.3928 16.8101 20.3728 17.2901 20.0728 17.5701L17.9428 19.54C17.7928 19.67 17.6128 19.7401 17.4328 19.7401Z" fill="#292D32"/>
</svg>
