<svg width="24" height="24" viewBox="0 0 24 24" fill="none" xmlns="http://www.w3.org/2000/svg">
<path d="M12 12.75C8.83 12.75 6.25 10.17 6.25 7C6.25 3.83 8.83 1.25 12 1.25C15.17 1.25 17.75 3.83 17.75 7C17.75 10.17 15.17 12.75 12 12.75ZM12 2.75C9.66 2.75 7.75 4.66 7.75 7C7.75 9.34 9.66 11.25 12 11.25C14.34 11.25 16.25 9.34 16.25 7C16.25 4.66 14.34 2.75 12 2.75Z" fill="#292D32"/>
<path d="M3.41406 22.75C3.00406 22.75 2.66406 22.41 2.66406 22C2.66406 17.73 6.85409 14.25 12.0041 14.25C12.4141 14.25 12.7541 14.59 12.7541 15C12.7541 15.41 12.4141 15.75 12.0041 15.75C7.68409 15.75 4.16406 18.55 4.16406 22C4.16406 22.41 3.82406 22.75 3.41406 22.75Z" fill="#292D32"/>
<path d="M18.2 22.15C16.02 22.15 14.25 20.38 14.25 18.2C14.25 16.02 16.02 14.25 18.2 14.25C20.38 14.25 22.15 16.02 22.15 18.2C22.15 20.38 20.38 22.15 18.2 22.15ZM18.2 15.75C16.85 15.75 15.75 16.85 15.75 18.2C15.75 19.55 16.85 20.65 18.2 20.65C19.55 20.65 20.65 19.55 20.65 18.2C20.65 16.85 19.55 15.75 18.2 15.75Z" fill="#292D32"/>
<path d="M21.9975 22.75C21.8075 22.75 21.6175 22.68 21.4675 22.53L20.4675 21.53C20.1775 21.24 20.1775 20.7599 20.4675 20.4699C20.7575 20.1799 21.2376 20.1799 21.5276 20.4699L22.5276 21.4699C22.8176 21.7599 22.8176 22.24 22.5276 22.53C22.3776 22.68 22.1875 22.75 21.9975 22.75Z" fill="#292D32"/>
</svg>
