<svg width="24" height="24" viewBox="0 0 24 24" fill="none" xmlns="http://www.w3.org/2000/svg">
<path d="M10.7925 15.1698C10.5925 15.1698 10.4025 15.0898 10.2625 14.9498L7.8425 12.5298C7.5525 12.2398 7.5525 11.7598 7.8425 11.4698C8.1325 11.1798 8.6125 11.1798 8.9025 11.4698L10.7925 13.3598L15.0925 9.05979C15.3825 8.76979 15.8625 8.76979 16.1525 9.05979C16.4425 9.34979 16.4425 9.82978 16.1525 10.1198L11.3225 14.9498C11.1825 15.0898 10.9925 15.1698 10.7925 15.1698Z" fill="#292D32"/>
<path d="M12.0028 22.75C11.3728 22.75 10.7428 22.54 10.2528 22.12L8.67281 20.76C8.51281 20.62 8.11281 20.48 7.90281 20.48H6.18281C4.70281 20.48 3.50281 19.28 3.50281 17.8V16.09C3.50281 15.88 3.36281 15.49 3.22281 15.33L1.87281 13.74C1.05281 12.77 1.05281 11.24 1.87281 10.27L3.22281 8.68C3.36281 8.52 3.50281 8.13 3.50281 7.92V6.2C3.50281 4.72 4.70281 3.52 6.18281 3.52H7.91281C8.12281 3.52 8.52281 3.37 8.68281 3.24L10.2628 1.88C11.2428 1.04 12.7728 1.04 13.7528 1.88L15.3328 3.24C15.4928 3.38 15.8928 3.52 16.1028 3.52H17.8028C19.2828 3.52 20.4828 4.72 20.4828 6.2V7.9C20.4828 8.11 20.6328 8.51 20.7728 8.67L22.1328 10.25C22.9728 11.23 22.9728 12.76 22.1328 13.74L20.7728 15.32C20.6328 15.48 20.4828 15.88 20.4828 16.09V17.79C20.4828 19.27 19.2828 20.47 17.8028 20.47H16.1028C15.8928 20.47 15.4928 20.62 15.3328 20.75L13.7528 22.11C13.2628 22.54 12.6328 22.75 12.0028 22.75ZM6.18281 5.02C5.53281 5.02 5.00281 5.55 5.00281 6.2V7.91C5.00281 8.48 4.73281 9.21 4.36281 9.64L3.01281 11.23C2.66281 11.64 2.66281 12.35 3.01281 12.76L4.36281 14.35C4.73281 14.79 5.00281 15.51 5.00281 16.08V17.79C5.00281 18.44 5.53281 18.97 6.18281 18.97H7.91281C8.49281 18.97 9.22281 19.24 9.66281 19.62L11.2428 20.98C11.6528 21.33 12.3728 21.33 12.7828 20.98L14.3628 19.62C14.8028 19.25 15.5328 18.97 16.1128 18.97H17.8128C18.4628 18.97 18.9928 18.44 18.9928 17.79V16.09C18.9928 15.51 19.2628 14.78 19.6428 14.34L21.0028 12.76C21.3528 12.35 21.3528 11.63 21.0028 11.22L19.6428 9.64C19.2628 9.2 18.9928 8.47 18.9928 7.89V6.2C18.9928 5.55 18.4628 5.02 17.8128 5.02H16.1128C15.5328 5.02 14.8028 4.75 14.3628 4.37L12.7828 3.01C12.3728 2.66 11.6528 2.66 11.2428 3.01L9.66281 4.38C9.22281 4.75 8.48281 5.02 7.91281 5.02H6.18281Z" fill="#292D32"/>
</svg>
