<svg width="24" height="24" viewBox="0 0 24 24" fill="none" xmlns="http://www.w3.org/2000/svg">
<path d="M15 22.75H9C3.57 22.75 1.25 20.43 1.25 15V9C1.25 3.57 3.57 1.25 9 1.25H15C20.43 1.25 22.75 3.57 22.75 9V15C22.75 15.25 22.75 15.5 22.73 15.74C22.7 16.06 22.48 16.32 22.17 16.4C21.86 16.48 21.54 16.36 21.36 16.09C21.35 16.08 21.29 16.01 21.28 15.99C20.59 15.2 19.58 14.75 18.51 14.75C17.49 14.75 16.53 15.15 15.82 15.88C15.14 16.58 14.76 17.51 14.76 18.5C14.76 19.17 14.95 19.84 15.3 20.43C15.49 20.75 15.73 21.03 16 21.27L16.12 21.38C16.35 21.57 16.46 21.9 16.37 22.19C16.28 22.48 16.04 22.7 15.74 22.73C15.51 22.75 15.25 22.75 15 22.75ZM9 2.75C4.39 2.75 2.75 4.39 2.75 9V15C2.75 19.61 4.39 21.25 9 21.25H14.03C14.02 21.24 14.01 21.22 14 21.21C13.5 20.38 13.24 19.45 13.24 18.5C13.24 17.12 13.77 15.82 14.72 14.84C15.7 13.83 17.08 13.25 18.49 13.25C19.48 13.25 20.43 13.52 21.24 14.03V9C21.24 4.39 19.6 2.75 14.99 2.75H9Z" fill="#292D32"/>
<path d="M21.4834 7.85986H2.52344C2.11344 7.85986 1.77344 7.51986 1.77344 7.10986C1.77344 6.69986 2.11344 6.35986 2.52344 6.35986H21.4834C21.8934 6.35986 22.2334 6.69986 22.2334 7.10986C22.2334 7.51986 21.9034 7.85986 21.4834 7.85986Z" fill="#292D32"/>
<path d="M8.52344 7.71985C8.11344 7.71985 7.77344 7.37985 7.77344 6.96985V2.10986C7.77344 1.69986 8.11344 1.35986 8.52344 1.35986C8.93344 1.35986 9.27344 1.69986 9.27344 2.10986V6.96985C9.27344 7.37985 8.93344 7.71985 8.52344 7.71985Z" fill="#292D32"/>
<path d="M15.4766 7.2699C15.0666 7.2699 14.7266 6.9299 14.7266 6.5199V2.10986C14.7266 1.69986 15.0666 1.35986 15.4766 1.35986C15.8866 1.35986 16.2266 1.69986 16.2266 2.10986V6.5199C16.2266 6.9399 15.8966 7.2699 15.4766 7.2699Z" fill="#292D32"/>
<path d="M18.4978 23.75C17.3178 23.75 16.1678 23.35 15.2678 22.61C15.2378 22.59 15.2078 22.57 15.1878 22.55C15.0978 22.47 15.0378 22.43 14.9878 22.37C14.6378 22.07 14.2978 21.67 14.0178 21.21C13.5178 20.38 13.2578 19.45 13.2578 18.5C13.2578 17.12 13.7878 15.82 14.7378 14.84C15.7178 13.83 17.0978 13.25 18.5078 13.25C20.0178 13.25 21.4378 13.89 22.4178 15.01C22.4678 15.05 22.5478 15.15 22.6178 15.25C23.3378 16.12 23.7678 17.29 23.7678 18.5C23.7678 18.94 23.7178 19.35 23.6178 19.74C23.4978 20.24 23.2978 20.73 23.0178 21.2C22.0478 22.78 20.3278 23.75 18.4978 23.75ZM16.0878 21.35C16.1078 21.37 16.1378 21.38 16.1578 21.4C16.8178 21.95 17.6178 22.24 18.4978 22.24C19.8078 22.24 21.0278 21.54 21.7078 20.42C21.9078 20.09 22.0478 19.73 22.1378 19.36C22.2078 19.08 22.2478 18.8 22.2478 18.49C22.2478 17.63 21.9478 16.8 21.3978 16.14C21.3878 16.13 21.2778 16 21.2678 15.98C20.5778 15.19 19.5678 14.74 18.4978 14.74C17.4778 14.74 16.5178 15.14 15.8078 15.87C15.1278 16.57 14.7478 17.5 14.7478 18.49C14.7478 19.16 14.9378 19.83 15.2878 20.42C15.4778 20.74 15.7178 21.02 15.9878 21.26L16.0878 21.35Z" fill="#292D32"/>
<path d="M19.6978 20.4302C19.5078 20.4302 19.3178 20.3602 19.1678 20.2102L16.7878 17.8302C16.4978 17.5402 16.4978 17.0602 16.7878 16.7702C17.0778 16.4802 17.5578 16.4802 17.8478 16.7702L20.2278 19.1502C20.5178 19.4402 20.5178 19.9202 20.2278 20.2102C20.0878 20.3502 19.8878 20.4302 19.6978 20.4302Z" fill="#292D32"/>
<path d="M17.3022 20.4498C17.1122 20.4498 16.9222 20.3798 16.7722 20.2298C16.4822 19.9398 16.4822 19.4598 16.7722 19.1698L19.1522 16.7898C19.4422 16.4998 19.9222 16.4998 20.2122 16.7898C20.5022 17.0798 20.5022 17.5598 20.2122 17.8498L17.8322 20.2298C17.6822 20.3798 17.4922 20.4498 17.3022 20.4498Z" fill="#292D32"/>
</svg>
