<svg width="24" height="24" viewBox="0 0 24 24" fill="none" xmlns="http://www.w3.org/2000/svg">
<path d="M10.7638 16.3698C10.3438 16.3698 9.95375 16.2698 9.60375 16.0698C8.80375 15.6098 8.34375 14.6698 8.34375 13.4798V10.5198C8.34375 9.33981 8.80375 8.3898 9.60375 7.9298C10.4038 7.4698 11.4438 7.53981 12.4738 8.13981L15.0437 9.6198C16.0637 10.2098 16.6537 11.0798 16.6537 11.9998C16.6537 12.9198 16.0637 13.7898 15.0437 14.3798L12.4738 15.8598C11.8938 16.1998 11.3038 16.3698 10.7638 16.3698ZM10.7738 9.12981C10.6138 9.12981 10.4737 9.1598 10.3637 9.2298C10.0437 9.4198 9.85375 9.88981 9.85375 10.5198V13.4798C9.85375 14.1098 10.0337 14.5798 10.3637 14.7698C10.6837 14.9598 11.1837 14.8798 11.7337 14.5598L14.3038 13.0798C14.8538 12.7598 15.1637 12.3698 15.1637 11.9998C15.1637 11.6298 14.8538 11.2298 14.3038 10.9198L11.7337 9.4398C11.3737 9.2298 11.0438 9.12981 10.7738 9.12981Z" fill="#292D32"/>
<path d="M12 22.75C6.07 22.75 1.25 17.93 1.25 12C1.25 6.07 6.07 1.25 12 1.25C17.93 1.25 22.75 6.07 22.75 12C22.75 17.93 17.93 22.75 12 22.75ZM12 2.75C6.9 2.75 2.75 6.9 2.75 12C2.75 17.1 6.9 21.25 12 21.25C17.1 21.25 21.25 17.1 21.25 12C21.25 6.9 17.1 2.75 12 2.75Z" fill="#292D32"/>
</svg>
