<svg width="24" height="24" viewBox="0 0 24 24" fill="none" xmlns="http://www.w3.org/2000/svg">
<path d="M11.9962 22.7501C11.3262 22.7501 10.6462 22.5801 10.0462 22.2301L4.10623 18.8001C2.90623 18.1001 2.15625 16.8101 2.15625 15.4201V8.58011C2.15625 7.19011 2.90623 5.90011 4.10623 5.20011L10.0462 1.77012C11.2462 1.07012 12.7363 1.07012 13.9463 1.77012L19.8863 5.20011C21.0863 5.90011 21.8362 7.19011 21.8362 8.58011V15.4201C21.8362 16.8101 21.0863 18.1001 19.8863 18.8001L13.9463 22.2301C13.3463 22.5801 12.6662 22.7501 11.9962 22.7501ZM11.9962 2.7501C11.5862 2.7501 11.1662 2.8601 10.7962 3.0701L4.85623 6.5001C4.11623 6.9301 3.65625 7.72011 3.65625 8.58011V15.4201C3.65625 16.2701 4.11623 17.0701 4.85623 17.5001L10.7962 20.9301C11.5362 21.3601 12.4563 21.3601 13.1963 20.9301L19.1363 17.5001C19.8763 17.0701 20.3362 16.2801 20.3362 15.4201V8.58011C20.3362 7.73011 19.8763 6.9301 19.1363 6.5001L13.1963 3.0701C12.8263 2.8601 12.4062 2.7501 11.9962 2.7501Z" fill="#292D32"/>
<path d="M11.0922 15.6703C10.7322 15.6703 10.3922 15.5803 10.0822 15.4103C9.39218 15.0103 8.99219 14.2003 8.99219 13.1903V10.7903C8.99219 9.78027 9.39218 8.9703 10.0822 8.5703C10.7722 8.1703 11.6722 8.23028 12.5422 8.74028L14.6222 9.94029C15.4922 10.4403 16.0022 11.1903 16.0022 11.9903C16.0022 12.7903 15.5022 13.5303 14.6222 14.0403L12.5422 15.2403C12.0622 15.5303 11.5622 15.6703 11.0922 15.6703ZM11.1022 9.8203C11.0022 9.8203 10.9122 9.8403 10.8422 9.8803C10.6322 10.0003 10.5022 10.3403 10.5022 10.8003V13.2003C10.5022 13.6503 10.6322 13.9903 10.8422 14.1203C11.0522 14.2403 11.4122 14.1803 11.8022 13.9503L13.8822 12.7503C14.2722 12.5203 14.5022 12.2403 14.5022 12.0003C14.5022 11.7603 14.2722 11.4803 13.8822 11.2503L11.8022 10.0503C11.5422 9.90028 11.2922 9.8203 11.1022 9.8203Z" fill="#292D32"/>
</svg>
