<svg width="24" height="24" viewBox="0 0 24 24" fill="none" xmlns="http://www.w3.org/2000/svg">
<path d="M13.8781 20.5901C13.0881 20.5901 12.2181 20.3101 11.3481 19.7601L8.42813 17.9301C8.22813 17.8101 7.99813 17.7401 7.76813 17.7401H6.32812C3.90812 17.7401 2.57812 16.4101 2.57812 13.9901V9.99011C2.57812 7.57011 3.90812 6.24011 6.32812 6.24011H7.75813C7.98813 6.24011 8.21813 6.17011 8.41813 6.05011L11.3381 4.22011C12.7981 3.31011 14.2181 3.14011 15.3381 3.76011C16.4581 4.38011 17.0681 5.67011 17.0681 7.40011V16.5701C17.0681 18.2901 16.4481 19.5901 15.3381 20.2101C14.8981 20.4701 14.4081 20.5901 13.8781 20.5901ZM6.32812 7.75011C4.74813 7.75011 4.07812 8.42011 4.07812 10.0001V14.0001C4.07812 15.5801 4.74813 16.2501 6.32812 16.2501H7.75813C8.27813 16.2501 8.77813 16.3901 9.21813 16.6701L12.1381 18.5001C13.1081 19.1001 14.0081 19.2601 14.6181 18.9201C15.2281 18.5801 15.5781 17.7301 15.5781 16.6001V7.41011C15.5781 6.27011 15.2281 5.42011 14.6181 5.09011C14.0081 4.75011 13.1081 4.90011 12.1381 5.51011L9.21813 7.33011C8.77813 7.61011 8.27813 7.75011 7.75813 7.75011H6.32812Z" fill="#292D32"/>
<path d="M19.3284 16.7498C19.1684 16.7498 19.0184 16.6998 18.8784 16.5998C18.5484 16.3498 18.4784 15.8798 18.7284 15.5498C20.2984 13.4598 20.2984 10.5398 18.7284 8.44978C18.4784 8.11978 18.5484 7.64978 18.8784 7.39978C19.2084 7.14978 19.6784 7.21978 19.9284 7.54978C21.8984 10.1698 21.8984 13.8298 19.9284 16.4498C19.7884 16.6498 19.5584 16.7498 19.3284 16.7498Z" fill="#292D32"/>
</svg>
