<svg width="24" height="24" viewBox="0 0 24 24" fill="none" xmlns="http://www.w3.org/2000/svg">
<path d="M17 22.75H12C11.59 22.75 11.25 22.41 11.25 22C11.25 21.59 11.59 21.25 12 21.25H17C19.58 21.25 21.25 19.58 21.25 17V12C21.25 9.71 19.83 8 17.71 7.75H17H7C6.72 7.75 6.62 7.75 6.44 7.81C6.39 7.83 6.34 7.84003 6.29 7.84003C4.08 8.10003 2.75 9.65 2.75 12V13C2.75 13.41 2.41 13.75 2 13.75C1.59 13.75 1.25 13.41 1.25 13V12C1.25 8.94 3.13 6.72999 6.04 6.35999C6.42 6.24999 6.7 6.25 7 6.25H17.8C20.8 6.6 22.75 8.91 22.75 12V17C22.75 20.44 20.44 22.75 17 22.75Z" fill="#292D32"/>
<path d="M6.20179 7.84996C6.00179 7.84996 5.81179 7.76999 5.67179 7.62999C5.47179 7.42999 5.40179 7.12997 5.49179 6.85997C5.65179 6.38997 5.94179 6.10001 6.27179 5.77001L9.46179 2.47997C11.1118 0.829969 13.8918 0.829959 15.5318 2.46996L17.3318 4.27001C17.9918 4.93001 18.4118 5.83996 18.5418 6.90996C18.5718 7.11996 18.5018 7.33999 18.3618 7.49999C18.2218 7.65999 18.0118 7.74999 17.8018 7.74999H7.00179C6.72179 7.74999 6.62179 7.74999 6.44179 7.80999C6.36179 7.83999 6.28179 7.84996 6.20179 7.84996ZM7.89179 6.24999H16.8518C16.7318 5.92999 16.5418 5.61001 16.2718 5.33001L14.4718 3.53002C13.4018 2.46002 11.6018 2.46002 10.5318 3.53002L7.89179 6.24999Z" fill="#292D32"/>
<path d="M22 17.25H19C17.48 17.25 16.25 16.02 16.25 14.5C16.25 12.98 17.48 11.75 19 11.75H22C22.41 11.75 22.75 12.09 22.75 12.5C22.75 12.91 22.41 13.25 22 13.25H19C18.31 13.25 17.75 13.81 17.75 14.5C17.75 15.19 18.31 15.75 19 15.75H22C22.41 15.75 22.75 16.09 22.75 16.5C22.75 16.91 22.41 17.25 22 17.25Z" fill="#292D32"/>
<path d="M5.80157 22.15C3.62157 22.15 1.85156 20.38 1.85156 18.2C1.85156 16.02 3.62157 14.25 5.80157 14.25C7.98157 14.25 9.75156 16.02 9.75156 18.2C9.75156 20.38 7.98157 22.15 5.80157 22.15ZM5.80157 15.75C4.45157 15.75 3.35156 16.85 3.35156 18.2C3.35156 19.55 4.45157 20.65 5.80157 20.65C7.15157 20.65 8.25156 19.55 8.25156 18.2C8.25156 16.85 7.15157 15.75 5.80157 15.75Z" fill="#292D32"/>
<path d="M1.9975 22.75C1.8075 22.75 1.6175 22.68 1.4675 22.53C1.1775 22.24 1.1775 21.7599 1.4675 21.4699L2.4675 20.4699C2.7575 20.1799 3.2375 20.1799 3.5275 20.4699C3.8175 20.7599 3.8175 21.24 3.5275 21.53L2.5275 22.53C2.3775 22.68 2.1875 22.75 1.9975 22.75Z" fill="#292D32"/>
</svg>
