<svg width="24" height="24" viewBox="0 0 24 24" fill="none" xmlns="http://www.w3.org/2000/svg">
<path d="M6.192 7.80995C5.952 7.80995 5.732 7.69995 5.582 7.49995C5.412 7.26995 5.392 6.96992 5.522 6.71992C5.692 6.37992 5.932 6.04995 6.242 5.74995L9.492 2.48994C11.152 0.839941 13.852 0.839941 15.512 2.48994L17.262 4.26997C18.002 4.99997 18.452 5.97997 18.502 7.01997C18.512 7.24997 18.422 7.46995 18.252 7.61995C18.082 7.76995 17.852 7.83994 17.632 7.79994C17.432 7.76994 17.222 7.75996 17.002 7.75996H7.002C6.762 7.75996 6.532 7.77995 6.302 7.80995C6.272 7.80995 6.232 7.80995 6.192 7.80995ZM7.862 6.24995H16.822C16.692 5.90995 16.482 5.59996 16.202 5.31996L14.442 3.53993C13.372 2.47993 11.622 2.47993 10.542 3.53993L7.862 6.24995Z" fill="#292D32"/>
<path d="M5 23.75C3.34 23.75 1.78 22.87 0.94 21.44C0.49 20.72 0.25 19.87 0.25 19C0.25 16.38 2.38 14.25 5 14.25C7.62 14.25 9.75 16.38 9.75 19C9.75 19.87 9.51 20.72 9.06 21.45C8.22 22.87 6.66 23.75 5 23.75ZM5 15.75C3.21 15.75 1.75 17.21 1.75 19C1.75 19.59 1.91 20.17 2.22 20.67C2.81 21.67 3.85 22.25 5 22.25C6.15 22.25 7.19 21.66 7.78 20.68C8.09 20.17 8.25 19.6 8.25 19C8.25 17.21 6.79 15.75 5 15.75Z" fill="#292D32"/>
<path d="M6.48781 19.73H3.50781C3.09781 19.73 2.75781 19.39 2.75781 18.98C2.75781 18.57 3.09781 18.23 3.50781 18.23H6.49781C6.90781 18.23 7.24781 18.57 7.24781 18.98C7.24781 19.39 6.90781 19.73 6.48781 19.73Z" fill="#292D32"/>
<path d="M5 21.26C4.59 21.26 4.25 20.92 4.25 20.51V17.52C4.25 17.11 4.59 16.77 5 16.77C5.41 16.77 5.75 17.11 5.75 17.52V20.51C5.75 20.93 5.41 21.26 5 21.26Z" fill="#292D32"/>
<path d="M16.9966 22.75H7.62656C7.30656 22.75 7.02656 22.55 6.91656 22.26C6.80656 21.96 6.89656 21.63 7.13656 21.43C7.37656 21.23 7.59656 20.97 7.75656 20.69C8.07656 20.18 8.23656 19.6 8.23656 19.01C8.23656 17.22 6.77656 15.76 4.98656 15.76C4.05656 15.76 3.16656 16.16 2.54656 16.87C2.33656 17.1 2.00656 17.19 1.71656 17.08C1.42656 16.97 1.22656 16.69 1.22656 16.38V12C1.22656 8.92 3.12656 6.69001 6.07656 6.32001C6.34656 6.28001 6.65656 6.25 6.97656 6.25H16.9766C17.2166 6.25 17.5266 6.26 17.8466 6.31C20.7966 6.65 22.7266 8.89 22.7266 12V17C22.7466 20.44 20.4366 22.75 16.9966 22.75ZM9.17656 21.25H16.9966C19.5766 21.25 21.2466 19.58 21.2466 17V12C21.2466 9.66 19.8766 8.04998 17.6566 7.78998C17.4166 7.74998 17.2066 7.75 16.9966 7.75H6.99656C6.75656 7.75 6.52656 7.76999 6.29656 7.79999C4.09656 8.07999 2.74656 9.68 2.74656 12V14.82C3.42656 14.45 4.20656 14.25 4.99656 14.25C7.61656 14.25 9.74656 16.38 9.74656 19C9.74656 19.79 9.54656 20.57 9.17656 21.25Z" fill="#292D32"/>
<path d="M22 17.25H19C17.48 17.25 16.25 16.02 16.25 14.5C16.25 12.98 17.48 11.75 19 11.75H22C22.41 11.75 22.75 12.09 22.75 12.5C22.75 12.91 22.41 13.25 22 13.25H19C18.31 13.25 17.75 13.81 17.75 14.5C17.75 15.19 18.31 15.75 19 15.75H22C22.41 15.75 22.75 16.09 22.75 16.5C22.75 16.91 22.41 17.25 22 17.25Z" fill="#292D32"/>
</svg>
