<svg width="24" height="24" viewBox="0 0 24 24" fill="none" xmlns="http://www.w3.org/2000/svg">
<path d="M12 13.75C11.59 13.75 11.25 13.41 11.25 13V7.75C11.25 7.34 11.59 7 12 7C12.41 7 12.75 7.34 12.75 7.75V13C12.75 13.41 12.41 13.75 12 13.75Z" fill="#292D32"/>
<path d="M12 17.2502C11.73 17.2502 11.48 17.1502 11.29 16.9602C11.2 16.8602 11.13 16.7502 11.07 16.6302C11.02 16.5102 11 16.3802 11 16.2502C11 15.9902 11.11 15.7302 11.29 15.5402C11.66 15.1702 12.34 15.1702 12.71 15.5402C12.89 15.7302 13 15.9902 13 16.2502C13 16.3802 12.97 16.5102 12.92 16.6302C12.87 16.7502 12.8 16.8602 12.71 16.9602C12.52 17.1502 12.27 17.2502 12 17.2502Z" fill="#292D32"/>
<path d="M11.9963 22.7501C11.3263 22.7501 10.6463 22.5801 10.0463 22.2301L4.10626 18.8001C2.90626 18.1001 2.15625 16.8101 2.15625 15.4201V8.58011C2.15625 7.19011 2.90626 5.90011 4.10626 5.20011L10.0463 1.77012C11.2463 1.07012 12.7363 1.07012 13.9463 1.77012L19.8863 5.20011C21.0863 5.90011 21.8363 7.19011 21.8363 8.58011V15.4201C21.8363 16.8101 21.0863 18.1001 19.8863 18.8001L13.9463 22.2301C13.3463 22.5801 12.6663 22.7501 11.9963 22.7501ZM11.9963 2.7501C11.5863 2.7501 11.1663 2.8601 10.7963 3.0701L4.85626 6.5001C4.11626 6.9301 3.65625 7.72011 3.65625 8.58011V15.4201C3.65625 16.2701 4.11626 17.0701 4.85626 17.5001L10.7963 20.9301C11.5363 21.3601 12.4563 21.3601 13.1863 20.9301L19.1263 17.5001C19.8663 17.0701 20.3263 16.2801 20.3263 15.4201V8.58011C20.3263 7.73011 19.8663 6.9301 19.1263 6.5001L13.1863 3.0701C12.8263 2.8601 12.4063 2.7501 11.9963 2.7501Z" fill="#292D32"/>
</svg>
