<svg width="24" height="24" viewBox="0 0 24 24" fill="none" xmlns="http://www.w3.org/2000/svg">
<path d="M18.0025 10.7102C17.8425 10.7102 17.6825 10.6602 17.5425 10.5502C14.1725 7.95016 9.82247 7.95016 6.46247 10.5502C6.13247 10.8002 5.66247 10.7402 5.41247 10.4202C5.16247 10.0902 5.22247 9.62016 5.54247 9.37016C9.46247 6.34016 14.5325 6.34016 18.4625 9.37016C18.7925 9.62016 18.8525 10.0902 18.5925 10.4202C18.4525 10.6102 18.2225 10.7102 18.0025 10.7102Z" fill="#292D32"/>
<path d="M16.3984 13.8C16.2384 13.8 16.0784 13.75 15.9384 13.64C13.5384 11.79 10.4484 11.79 8.04841 13.64C7.71841 13.89 7.24841 13.83 6.99841 13.51C6.74841 13.18 6.80841 12.71 7.12841 12.46C10.0784 10.18 13.8984 10.18 16.8484 12.46C17.1784 12.71 17.2384 13.18 16.9784 13.51C16.8484 13.7 16.6284 13.8 16.3984 13.8Z" fill="#292D32"/>
<path d="M14.2015 16.8899C14.0415 16.8899 13.8815 16.8399 13.7415 16.7299C12.6815 15.9099 11.3115 15.9099 10.2515 16.7299C9.92154 16.9799 9.45153 16.9199 9.20153 16.5999C8.95153 16.2699 9.01154 15.7999 9.33154 15.5499C10.9215 14.3199 13.0615 14.3199 14.6515 15.5499C14.9815 15.7999 15.0415 16.2699 14.7815 16.5999C14.6515 16.7899 14.4315 16.8899 14.2015 16.8899Z" fill="#292D32"/>
<path d="M15 22.75H9C3.57 22.75 1.25 20.43 1.25 15V9C1.25 3.57 3.57 1.25 9 1.25H15C20.43 1.25 22.75 3.57 22.75 9V15C22.75 20.43 20.43 22.75 15 22.75ZM9 2.75C4.39 2.75 2.75 4.39 2.75 9V15C2.75 19.61 4.39 21.25 9 21.25H15C19.61 21.25 21.25 19.61 21.25 15V9C21.25 4.39 19.61 2.75 15 2.75H9Z" fill="#292D32"/>
</svg>
