<svg width="24" height="24" viewBox="0 0 24 24" fill="none" xmlns="http://www.w3.org/2000/svg">
<path d="M19.0909 12.5899C18.9309 12.5899 18.7709 12.5399 18.6309 12.4299C14.6009 9.3199 9.39091 9.3199 5.36091 12.4299C5.03091 12.6799 4.56091 12.6199 4.31091 12.2999C4.06091 11.9699 4.12091 11.4999 4.44091 11.2499C9.03091 7.6999 14.9609 7.6999 19.5409 11.2499C19.8709 11.4999 19.9309 11.9699 19.6709 12.2999C19.5409 12.4899 19.3209 12.5899 19.0909 12.5899Z" fill="#292D32"/>
<path d="M22.0025 9.1099C21.8425 9.1099 21.6825 9.05993 21.5425 8.94993C15.7425 4.46993 8.25248 4.46993 2.46248 8.94993C2.13248 9.19993 1.66248 9.13992 1.41248 8.81992C1.16248 8.48992 1.22246 8.0199 1.54246 7.7699C7.89246 2.8599 16.1025 2.8599 22.4625 7.7699C22.7925 8.0199 22.8525 8.48992 22.5925 8.81992C22.4525 9.00992 22.2225 9.1099 22.0025 9.1099Z" fill="#292D32"/>
<path d="M17.2115 16.2403C17.0515 16.2403 16.8915 16.1903 16.7515 16.0803C13.8715 13.8503 10.1415 13.8503 7.25154 16.0803C6.92154 16.3303 6.45153 16.2703 6.20153 15.9503C5.95153 15.6203 6.01154 15.1503 6.33154 14.9003C9.77154 12.2403 14.2215 12.2403 17.6615 14.9003C17.9915 15.1503 18.0515 15.6203 17.7915 15.9503C17.6515 16.1403 17.4315 16.2403 17.2115 16.2403Z" fill="#292D32"/>
<path d="M14.6031 19.9C14.4431 19.9 14.2831 19.85 14.1431 19.74C12.8431 18.73 11.1531 18.73 9.8531 19.74C9.5231 19.99 9.0531 19.93 8.8031 19.61C8.5531 19.28 8.61309 18.81 8.93309 18.56C10.7931 17.12 13.1931 17.12 15.0531 18.56C15.3831 18.81 15.4431 19.28 15.1831 19.61C15.0531 19.79 14.8331 19.9 14.6031 19.9Z" fill="#292D32"/>
</svg>
