<svg width="24" height="24" viewBox="0 0 24 24" fill="none" xmlns="http://www.w3.org/2000/svg">
<path d="M5.14844 11.1221H10.2913V12.8363H5.14844V11.1221Z" fill="#4C4C4C"/>
<path d="M4.28133 8.56506H18.0068V11.914H19.721V3.39357C19.721 2.45701 18.9593 1.69482 18.0227 1.69482H17.3815C16.6971 1.69482 16.0913 2.08693 15.8374 2.69303C15.7036 3.01201 15.1849 3.01272 15.0511 2.69303C14.7966 2.08647 14.1907 1.69482 13.5068 1.69482H13.0812C12.3977 1.69482 11.7916 2.08647 11.5371 2.69303C11.4033 3.01201 10.8846 3.01201 10.7508 2.69303C10.4962 2.08647 9.89039 1.69482 9.20672 1.69482H8.79773C8.11336 1.69482 7.5075 2.08693 7.25367 2.69303C7.11984 3.01201 6.60117 3.01272 6.46734 2.69303C6.21281 2.08647 5.60695 1.69482 4.92305 1.69482H4.27688C3.34031 1.69482 2.57812 2.45701 2.57812 3.39357V22.2636H11.9815V20.5494H4.29164L4.28133 8.56506ZM4.88648 3.35561C5.22094 4.15412 5.99555 4.67022 6.86063 4.67022C7.72523 4.67022 8.50008 4.15459 8.79797 3.40928L9.16969 3.35607C9.50484 4.15459 10.2797 4.67022 11.1438 4.67022C12.0084 4.67022 12.7833 4.15459 13.0812 3.40928L13.47 3.35561C13.8045 4.15412 14.5791 4.67022 15.4441 4.67022C16.3088 4.67022 17.0836 4.15459 17.3815 3.40928L18.0068 3.39381V6.85084H4.27992L4.27688 3.40928L4.88648 3.35561Z" fill="#4C4C4C"/>
<path d="M19.7009 18.8581L18.8197 16.7811C19.1124 16.4147 19.2875 15.9502 19.2875 15.4446C19.2875 14.2611 18.3282 13.3018 17.1446 13.3018C15.9612 13.3018 15.0017 14.2611 15.0017 15.4446C15.0017 15.9516 15.178 16.4175 15.4723 16.7843L14.5925 18.8581H12.8516V22.2882H21.4229V18.8581H19.7009ZM17.1448 14.5875C17.6176 14.5875 18.002 14.9721 18.002 15.4446C18.002 15.9174 17.6173 16.3018 17.1448 16.3018C16.6723 16.3018 16.2877 15.9171 16.2877 15.4446C16.2877 14.9721 16.6721 14.5875 17.1448 14.5875ZM16.5624 17.5074C16.752 17.5608 16.9479 17.5877 17.1448 17.5875C17.348 17.5875 17.5447 17.5592 17.7308 17.5064L18.3043 18.8583H15.9894L16.5624 17.5074ZM20.1376 21.0026H14.1376V20.1439H20.1376V21.0026Z" fill="#4C4C4C"/>
</svg>
