<svg width="24" height="24" viewBox="0 0 24 24" fill="none" xmlns="http://www.w3.org/2000/svg">
<g clip-path="url(#clip0_21441_88509)">
<path d="M8.44791 4.52039C9.69642 4.52039 10.7078 3.50808 10.7078 2.26045C10.7078 1.01147 9.69642 0 8.44791 0C7.19897 0 6.1875 1.01147 6.1875 2.26045C6.1875 3.50808 7.19897 4.52039 8.44791 4.52039Z" fill="#4C4C4C"/>
<path d="M10.406 5.59082H8.42436H6.44281C5.34772 5.59082 4.15625 6.78229 4.15625 7.87785V15.4745C4.15625 16.0221 4.59987 16.4661 5.14742 16.4661C5.41695 16.4661 5.14742 16.4661 5.83948 16.4661L6.21636 22.9448C6.21636 23.5275 6.68914 23.9999 7.27175 23.9999C7.51766 23.9999 7.97103 23.9999 8.42436 23.9999C8.87773 23.9999 9.33106 23.9999 9.57697 23.9999C10.1596 23.9999 10.6324 23.5275 10.6324 22.9448L11.0092 16.4661C11.7013 16.4661 11.4318 16.4661 11.7013 16.4661C12.2488 16.4661 12.6925 16.0221 12.6925 15.4745V7.87785C12.6925 6.78229 11.5011 5.59082 10.406 5.59082Z" fill="#4C4C4C"/>
<path d="M16.9005 10.5153C17.7649 10.5153 18.465 9.81482 18.465 8.9512C18.465 8.08636 17.7649 7.38623 16.9005 7.38623C16.036 7.38623 15.3359 8.08636 15.3359 8.9512C15.3359 9.81482 16.036 10.5153 16.9005 10.5153Z" fill="#4C4C4C"/>
<path d="M18.2561 11.2563H16.8843H15.5124C14.7544 11.2563 13.9297 12.0811 13.9297 12.8399V18.0984C13.9297 18.4774 14.2368 18.785 14.6158 18.785C14.8026 18.785 14.6158 18.785 15.095 18.785L15.3557 23.2699C15.3557 23.6729 15.6831 24 16.0866 24C16.2565 24 16.5704 24 16.8843 24C17.1982 24 17.5121 24 17.682 24C18.0855 24 18.413 23.6729 18.413 23.2699L18.6736 18.785C19.1527 18.785 18.966 18.785 19.1527 18.785C19.5317 18.785 19.8389 18.4774 19.8389 18.0984V12.8399C19.8388 12.0811 19.0141 11.2563 18.2561 11.2563Z" fill="#4C4C4C"/>
</g>
<defs>
<clipPath id="clip0_21441_88509">
<rect width="24" height="24" fill="white"/>
</clipPath>
</defs>
</svg>
