<svg width="24" height="24" viewBox="0 0 24 24" fill="none" xmlns="http://www.w3.org/2000/svg">
<path d="M23 9.63998H19.6369L19.2 3.27998C19.1 1.44 17.2001 0 14.9 0H9.09998C6.8 0 4.94995 1.44 4.79995 3.27998L4.36437 9.6H1.00002C0.450001 9.6 0 9.96 0 10.4V11.2C0 11.64 0.450001 12 1.00002 12V16.4C1.00002 17.08 1.65 17.6 2.50003 17.6H3.00001V18C3.00001 18.24 3.19999 18.4 3.49999 18.4H4.99999V22.8C4.99999 23.48 5.64997 24 6.5 24C7.35002 24 8 23.48 8 22.8V18.4H16V22.8C16 23.48 16.65 24 17.5 24C18.35 24 19 23.48 19 22.8V18.4H20.5C20.8 18.4 21 18.24 21 18V17.6H21.5C22.35 17.6 23 17.08 23 16.44V12C23.55 12 24 11.64 24 11.24V10.44C24.0001 9.99998 23.5501 9.63998 23 9.63998ZM9.10004 0.800016H14.9001C16.6501 0.800016 18.1001 1.92 18.2001 3.32002L18.759 11.5597C18.7531 11.5845 18.75 11.6111 18.75 11.64L18.8713 13.2171L18.899 13.6247C18.8651 13.6205 18.831 13.6171 18.7966 13.614C18.709 13.6004 18.6047 13.6001 18.5 13.6001H5.50003C5.39538 13.6001 5.29109 13.6004 5.20343 13.614C5.1691 13.6171 5.13493 13.6205 5.10107 13.6247L5.23454 11.6567C5.24052 11.6383 5.24597 11.6196 5.25001 11.6001L5.35003 10.0001C5.35003 9.99323 5.34915 9.98569 5.34839 9.97823L5.80003 3.32011C5.89999 1.92 7.35002 0.800016 9.10004 0.800016ZM1.00002 10.4H4.30003L4.25005 11.2H1.5H1.00002V10.4ZM2.50003 16.8C2.20002 16.8 2.00004 16.64 2.00004 16.4V12H4.19896L4.18894 12.1452L4.05007 13.96C4.0411 13.9655 4.03272 13.9715 4.02382 13.977C3.39991 14.3376 3.00007 14.925 3.00007 15.6V16.8H2.50003ZM7.00004 22.8C7.00004 23.04 6.80006 23.2 6.50006 23.2C6.20005 23.2 6.00007 23.04 6.00007 22.8V18.4H7.0001L7.00004 22.8ZM18 22.8C18 23.04 17.8001 23.2 17.5001 23.2C17.2001 23.2 17.0001 23.04 17.0001 22.8V18.4H18V22.8ZM20 17.6H18.5H16.5H7.50002H5.50003H4.00003V17.2V15.6C4.00003 15.5732 4.00126 15.5466 4.00343 15.5201C4.00354 15.5185 4.00372 15.5169 4.00384 15.5153C4.02628 15.2598 4.14956 15.0213 4.34228 14.8233C4.43462 14.7345 4.54325 14.6572 4.66501 14.5937C4.70667 14.5884 4.75325 14.5787 4.80007 14.5599C4.92101 14.4874 5.06034 14.4444 5.20671 14.4215C5.22247 14.4192 5.23829 14.417 5.25417 14.415C5.26185 14.4141 5.26958 14.4132 5.27732 14.4123C5.29753 14.4101 5.31786 14.4081 5.33837 14.4064C5.34552 14.4059 5.35267 14.4055 5.35988 14.405C5.37892 14.4037 5.39796 14.4025 5.41724 14.4017C5.44478 14.4007 5.47244 14.4 5.50003 14.4H18.5001C18.5277 14.4 18.5553 14.4007 18.5829 14.4017C18.6022 14.4025 18.6212 14.4037 18.6402 14.405C18.6474 14.4055 18.6546 14.4059 18.6617 14.4064C18.6823 14.4081 18.7026 14.4101 18.7228 14.4123C18.7305 14.4132 18.7383 14.4141 18.7459 14.415C18.7619 14.417 18.7777 14.4192 18.7934 14.4215C18.9398 14.4444 19.0792 14.4874 19.2 14.5599C19.2207 14.5709 19.2423 14.5801 19.2646 14.5881C19.6945 14.7818 19.9622 15.1285 19.9963 15.5156C19.9964 15.517 19.9966 15.5184 19.9966 15.5198C19.9989 15.5464 20 15.5731 20 15.6V17.1999V17.6ZM22.0001 16.4C22.0001 16.64 21.8001 16.8 21.5001 16.8H21V15.6C21 15.5611 20.9984 15.5226 20.9958 15.4843C20.9948 15.4697 20.9931 15.4553 20.9918 15.4409C20.9896 15.418 20.9873 15.3953 20.9842 15.3727C20.9817 15.3538 20.9787 15.335 20.9755 15.3162C20.9727 15.2999 20.9697 15.2837 20.9664 15.2675C20.9618 15.2444 20.9569 15.2214 20.9514 15.1986C20.9497 15.1916 20.9477 15.1847 20.9459 15.1778C20.8171 14.6753 20.4615 14.2432 19.95 13.96L19.8 12H22.0001V16.4ZM23 11.2H19.75L19.7 10.4H23V11.2Z" fill="#4C4C4C"/>
<path d="M7.24667 3.7601C7.54667 3.80008 7.7967 3.6401 7.7967 3.4001C7.84668 2.84008 8.3967 2.40011 9.09672 2.40011H14.8967C15.5968 2.40011 16.1467 2.84013 16.1968 3.4001C16.1968 3.60011 16.4468 3.7601 16.6968 3.7601C16.9968 3.7601 17.1967 3.56008 17.1967 3.36011C17.1468 2.36013 16.1467 1.6001 14.8967 1.6001H9.09672C7.89671 1.6001 6.84671 2.36008 6.79673 3.32008C6.74669 3.56013 6.94667 3.7601 7.24667 3.7601Z" fill="#4C4C4C" stroke="#4C4C4C" stroke-width="0.00186"/>
</svg>
