<svg width="24" height="24" viewBox="0 0 24 24" fill="none" xmlns="http://www.w3.org/2000/svg">
<g clip-path="url(#clip0_21443_89039)">
<path d="M19.4024 2.04248H4.59391C4.38241 2.04248 4.21094 2.21395 4.21094 2.42545C4.21094 2.63695 4.38241 2.80842 4.59391 2.80842H19.4024C19.6139 2.80842 19.7854 2.63695 19.7854 2.42545C19.7854 2.21395 19.6139 2.04248 19.4024 2.04248Z" fill="url(#paint0_linear_21443_89039)"/>
<path d="M3 1H21V23L16.5 19L15 20.5L12 22L8.5 20.5L7.5 19L6.5 20.5L4 21.5L3.5 22L3 23V1Z" fill="#7332D6" fill-opacity="0.51"/>
<path d="M23.617 0C23.4055 0 23.2341 0.171469 23.2341 0.382969V0.510609H21.3157V0.382969C21.3157 0.171469 21.1443 0 20.9328 0H3.06727C2.85577 0 2.6843 0.171422 2.6843 0.382922V0.510609H0.765937V0.382969C0.765937 0.171469 0.594469 0 0.382969 0C0.171469 0 0 0.171469 0 0.382969V2.93616C0 3.14766 0.171469 3.31912 0.382969 3.31912C0.594469 3.31912 0.765937 3.14766 0.765937 2.93616V2.80852H2.68387L2.68083 22.0851V23.617C2.68083 23.8285 2.8523 24 3.0638 24C3.2753 24 3.44677 23.8285 3.44677 23.617V22.3311L4.46803 21.8638V22.7993C4.46803 23.0108 4.6395 23.1823 4.851 23.1823C5.0625 23.1823 5.23397 23.0108 5.23397 22.7993V21.5133L6.25523 21.046V21.9815C6.25523 22.193 6.4267 22.3645 6.6382 22.3645C6.8497 22.3645 7.02117 22.193 7.02117 21.9815V19.3007H8.04126V21.9815C8.04126 22.193 8.21273 22.3645 8.42423 22.3645C8.63573 22.3645 8.8072 22.193 8.8072 21.9815V21.0459L9.82964 21.5136V22.7992C9.82964 23.0107 10.0011 23.1822 10.2126 23.1822C10.4241 23.1822 10.5956 23.0107 10.5956 22.7992V21.8639L11.6168 22.3311V23.617C11.6168 23.8285 11.7883 24 11.9998 24C12.2113 24 12.3828 23.8285 12.3828 23.617V22.3311L13.404 21.864V22.7993C13.404 23.0108 13.5755 23.1823 13.787 23.1823C13.9985 23.1823 14.17 23.0108 14.17 22.7993V21.5136L15.1912 21.0465V21.9816C15.1912 22.1931 15.3627 22.3645 15.5742 22.3645C15.7857 22.3645 15.9572 22.1931 15.9572 21.9816V20.4636C15.9573 20.4589 15.9582 20.4542 15.9582 20.4494C15.958 20.0931 15.9577 19.6243 15.9577 19.3007H16.9785V21.9816C16.9785 22.1931 17.1499 22.3645 17.3614 22.3645C17.5729 22.3645 17.7444 22.1931 17.7444 21.9816V21.046L18.7657 21.5133V22.7993C18.7657 23.0108 18.9371 23.1823 19.1486 23.1823C19.3601 23.1823 19.5316 23.0108 19.5316 22.7993V21.8638L20.5529 22.3311V23.617C20.5529 23.8285 20.7243 24 20.9358 24C21.1473 24 21.3188 23.8285 21.3188 23.617V22.0851C21.3188 22.0685 21.3174 22.0523 21.3154 22.0363V2.80852H23.2337V2.93616C23.2337 3.14766 23.4052 3.31912 23.6167 3.31912C23.8282 3.31912 23.9996 3.14766 23.9996 2.93616V0.382969C24 0.171469 23.8285 0 23.617 0ZM2.68406 2.04253H0.765937V1.27659H2.68416L2.68406 2.04253ZM17.7447 20.2037V18.9177C17.7447 18.7062 17.5732 18.5347 17.3617 18.5347H15.5755C15.4858 18.5347 15.1929 18.5671 15.1922 18.9829L15.1921 19.157L15.1924 20.2037L13.6398 20.9139C13.6372 20.915 13.6347 20.9163 13.6321 20.9175L12 21.664L10.3698 20.9183C10.3664 20.9168 10.3631 20.9152 10.3597 20.9137L8.8073 20.2037V18.9178C8.8073 18.7063 8.63583 18.5348 8.42433 18.5348H6.63825C6.42675 18.5348 6.25528 18.7063 6.25528 18.9178V20.2037L3.44686 21.4887L3.44986 2.43173C3.44991 2.42963 3.45019 2.42761 3.45019 2.4255C3.45019 2.42339 3.44995 2.42138 3.44986 2.41931L3.45009 0.894984C3.45009 0.892219 3.45009 0.765938 3.45009 0.765938H20.5496V21.487L17.7447 20.2037ZM23.2341 2.04253H21.3157V1.27659H23.2341V2.04253Z" fill="url(#paint1_linear_21443_89039)"/>
<path d="M4.59391 4.8509C4.80541 4.8509 4.97687 4.67944 4.97687 4.46793C4.97687 4.25642 4.80541 4.08496 4.59391 4.08496C4.3824 4.08496 4.21094 4.25642 4.21094 4.46793C4.21094 4.67944 4.3824 4.8509 4.59391 4.8509Z" fill="url(#paint2_linear_21443_89039)"/>
<path d="M6.12516 6.38312C6.33666 6.38312 6.50813 6.21166 6.50813 6.00016C6.50813 5.78865 6.33666 5.61719 6.12516 5.61719C5.91365 5.61719 5.74219 5.78865 5.74219 6.00016C5.74219 6.21166 5.91365 6.38312 6.12516 6.38312Z" fill="url(#paint3_linear_21443_89039)"/>
<path d="M17.8752 16.8509C18.0867 16.8509 18.2581 16.6794 18.2581 16.4679C18.2581 16.2564 18.0867 16.085 17.8752 16.085C17.6636 16.085 17.4922 16.2564 17.4922 16.4679C17.4922 16.6794 17.6636 16.8509 17.8752 16.8509Z" fill="url(#paint4_linear_21443_89039)"/>
</g>
<defs>
<linearGradient id="paint0_linear_21443_89039" x1="4.45568" y1="2.05178" x2="4.69039" y2="4.40339" gradientUnits="userSpaceOnUse">
<stop offset="0.0001" stop-color="#7332D6"/>
<stop offset="0.50005" stop-color="#32155A"/>
<stop offset="1" stop-color="#5D28AC"/>
</linearGradient>
<linearGradient id="paint1_linear_21443_89039" x1="0.377137" y1="0.291498" x2="29.882" y2="14.829" gradientUnits="userSpaceOnUse">
<stop offset="0.0001" stop-color="#7332D6"/>
<stop offset="0.50005" stop-color="#32155A"/>
<stop offset="1" stop-color="#5D28AC"/>
</linearGradient>
<linearGradient id="paint2_linear_21443_89039" x1="4.22297" y1="4.09426" x2="5.1646" y2="4.55823" gradientUnits="userSpaceOnUse">
<stop offset="0.0001" stop-color="#7332D6"/>
<stop offset="0.50005" stop-color="#32155A"/>
<stop offset="1" stop-color="#5D28AC"/>
</linearGradient>
<linearGradient id="paint3_linear_21443_89039" x1="5.75422" y1="5.62649" x2="6.69585" y2="6.09045" gradientUnits="userSpaceOnUse">
<stop offset="0.0001" stop-color="#7332D6"/>
<stop offset="0.50005" stop-color="#32155A"/>
<stop offset="1" stop-color="#5D28AC"/>
</linearGradient>
<linearGradient id="paint4_linear_21443_89039" x1="17.5042" y1="16.0943" x2="18.4459" y2="16.5582" gradientUnits="userSpaceOnUse">
<stop offset="0.0001" stop-color="#7332D6"/>
<stop offset="0.50005" stop-color="#32155A"/>
<stop offset="1" stop-color="#5D28AC"/>
</linearGradient>
<clipPath id="clip0_21443_89039">
<rect width="24" height="24" fill="white"/>
</clipPath>
</defs>
</svg>
