<svg width="24" height="24" viewBox="0 0 24 24" fill="none" xmlns="http://www.w3.org/2000/svg">
<g clip-path="url(#clip0_21443_89041)">
<path d="M16.2891 16.7747C16.2891 17.3148 16.7253 17.758 17.2653 17.758H23.0222C23.3377 17.758 23.634 17.6002 23.8176 17.3434C24.0012 17.0866 24.0495 16.7544 23.9474 16.4557L23.1605 14.1511L23.9455 11.9012C24.0498 11.6021 24.0028 11.271 23.8193 11.0128C23.6359 10.7545 23.3388 10.6011 23.0222 10.6011H22.1763C22.039 11.0308 21.9017 11.4697 21.7667 11.9012L21.7641 11.9097C21.485 12.8014 21.1965 13.7235 20.9077 14.567C20.6045 15.4527 19.7718 16.0479 18.8359 16.0479C18.5944 16.0479 18.3556 16.008 18.1266 15.9295C17.5232 15.7229 16.9067 15.5478 16.2891 15.4037V16.7747H16.2891Z" fill="url(#paint0_linear_21443_89041)"/>
<path d="M18.8387 14.8358C19.2452 14.8358 19.6248 14.5804 19.7638 14.1744C20.0483 13.3436 20.3351 12.4264 20.6127 11.5394C20.8863 10.6649 21.1692 9.76049 21.445 8.95451C21.529 8.7091 21.5121 8.44041 21.3981 8.2076C21.2839 7.97463 21.0821 7.79661 20.8367 7.71257C17.987 6.73698 15.0148 6.24219 12.0028 6.24219C8.99074 6.24227 6.01854 6.73698 3.16892 7.71257C2.92351 7.79661 2.72157 7.97463 2.60747 8.2076C2.49337 8.44041 2.47656 8.7091 2.5606 8.95451C2.8364 9.76049 3.11939 10.6649 3.39292 11.5394C3.67042 12.4265 3.95728 13.3436 4.24173 14.1744C4.38072 14.5805 4.76044 14.8358 5.16674 14.8358C5.27187 14.8358 5.37862 14.8188 5.48359 14.7828C7.58662 14.0628 9.77999 13.6978 12.0029 13.6978C14.2257 13.6978 16.4191 14.0629 18.5221 14.7828C18.6269 14.8187 18.7337 14.8358 18.8387 14.8358Z" fill="url(#paint1_linear_21443_89041)"/>
<path d="M7.6374 15.4229C7.04694 15.5634 6.45106 15.7317 5.87369 15.9294C5.64427 16.008 5.40548 16.0479 5.16403 16.0479C4.22795 16.0479 3.3953 15.4527 3.09227 14.567C2.80265 13.7211 2.51336 12.7962 2.23239 11.898C2.09769 11.4674 1.96072 11.0296 1.82375 10.6011H0.977928C0.66116 10.6011 0.364109 10.7546 0.180675 11.0128C-0.00275936 11.271 -0.0497088 11.602 0.0546144 11.9012L0.839503 14.1511L0.0525942 16.453C-0.0495472 16.7516 -0.00114318 17.0867 0.182372 17.3435C0.365968 17.6003 0.66221 17.7581 0.977928 17.7581H6.65946C7.1995 17.7581 7.63732 17.3148 7.63732 16.7748L7.6374 15.4229Z" fill="url(#paint2_linear_21443_89041)"/>
<path d="M7.108 9.716V9.08H8.216V12H7.504V9.716H7.108ZM8.68391 10.5C8.68391 10.0413 8.77191 9.68 8.94791 9.416C9.12657 9.152 9.41324 9.02 9.80791 9.02C10.2026 9.02 10.4879 9.152 10.6639 9.416C10.8426 9.68 10.9319 10.0413 10.9319 10.5C10.9319 10.964 10.8426 11.328 10.6639 11.592C10.4879 11.856 10.2026 11.988 9.80791 11.988C9.41324 11.988 9.12657 11.856 8.94791 11.592C8.77191 11.328 8.68391 10.964 8.68391 10.5ZM10.2599 10.5C10.2599 10.2307 10.2306 10.024 10.1719 9.88C10.1132 9.73333 9.99191 9.66 9.80791 9.66C9.62391 9.66 9.50257 9.73333 9.44391 9.88C9.38524 10.024 9.35591 10.2307 9.35591 10.5C9.35591 10.6813 9.36657 10.832 9.38791 10.952C9.40924 11.0693 9.45191 11.1653 9.51591 11.24C9.58257 11.312 9.67991 11.348 9.80791 11.348C9.93591 11.348 10.0319 11.312 10.0959 11.24C10.1626 11.1653 10.2066 11.0693 10.2279 10.952C10.2492 10.832 10.2599 10.6813 10.2599 10.5ZM11.2933 10.5C11.2933 10.0413 11.3813 9.68 11.5573 9.416C11.7359 9.152 12.0226 9.02 12.4173 9.02C12.8119 9.02 13.0973 9.152 13.2733 9.416C13.4519 9.68 13.5413 10.0413 13.5413 10.5C13.5413 10.964 13.4519 11.328 13.2733 11.592C13.0973 11.856 12.8119 11.988 12.4173 11.988C12.0226 11.988 11.7359 11.856 11.5573 11.592C11.3813 11.328 11.2933 10.964 11.2933 10.5ZM12.8693 10.5C12.8693 10.2307 12.8399 10.024 12.7813 9.88C12.7226 9.73333 12.6013 9.66 12.4173 9.66C12.2333 9.66 12.1119 9.73333 12.0533 9.88C11.9946 10.024 11.9653 10.2307 11.9653 10.5C11.9653 10.6813 11.9759 10.832 11.9973 10.952C12.0186 11.0693 12.0613 11.1653 12.1253 11.24C12.1919 11.312 12.2893 11.348 12.4173 11.348C12.5453 11.348 12.6413 11.312 12.7053 11.24C12.7719 11.1653 12.8159 11.0693 12.8373 10.952C12.8586 10.832 12.8693 10.6813 12.8693 10.5ZM16.4463 12L15.5023 10.76V12H14.8183V9.192H15.5023V10.424L16.4383 9.192H17.2423L16.1543 10.568L17.2823 12H16.4463Z" fill="#FFD60A"/>
<path d="M8.884 19.192L7.888 22H7.032L6.036 19.192H6.764L7.46 21.312L8.16 19.192H8.884ZM9.85388 19.192V22H9.16988V19.192H9.85388ZM11.0336 19.74V20.308H11.9496V20.836H11.0336V21.452H12.0696V22H10.3496V19.192H12.0696V19.74H11.0336ZM16.3776 19.192L15.6456 22H14.8176L14.3696 20.152L13.9056 22H13.0776L12.3656 19.192H13.0976L13.5016 21.236L14.0016 19.192H14.7536L15.2336 21.236L15.6416 19.192H16.3776ZM17.7367 22.028C17.5313 22.028 17.3473 21.9947 17.1847 21.928C17.022 21.8613 16.8913 21.7627 16.7927 21.632C16.6967 21.5013 16.646 21.344 16.6407 21.16H17.3687C17.3793 21.264 17.4153 21.344 17.4767 21.4C17.538 21.4533 17.618 21.48 17.7167 21.48C17.818 21.48 17.898 21.4573 17.9567 21.412C18.0153 21.364 18.0447 21.2987 18.0447 21.216C18.0447 21.1467 18.0207 21.0893 17.9727 21.044C17.9273 20.9987 17.87 20.9613 17.8007 20.932C17.734 20.9027 17.638 20.8693 17.5127 20.832C17.3313 20.776 17.1833 20.72 17.0687 20.664C16.954 20.608 16.8553 20.5253 16.7727 20.416C16.69 20.3067 16.6487 20.164 16.6487 19.988C16.6487 19.7267 16.7433 19.5227 16.9327 19.376C17.122 19.2267 17.3687 19.152 17.6727 19.152C17.982 19.152 18.2313 19.2267 18.4207 19.376C18.61 19.5227 18.7113 19.728 18.7247 19.992H17.9847C17.9793 19.9013 17.946 19.8307 17.8847 19.78C17.8233 19.7267 17.7447 19.7 17.6487 19.7C17.566 19.7 17.4993 19.7227 17.4487 19.768C17.398 19.8107 17.3727 19.8733 17.3727 19.956C17.3727 20.0467 17.4153 20.1173 17.5007 20.168C17.586 20.2187 17.7193 20.2733 17.9007 20.332C18.082 20.3933 18.2287 20.452 18.3407 20.508C18.4553 20.564 18.554 20.6453 18.6367 20.752C18.7193 20.8587 18.7607 20.996 18.7607 21.164C18.7607 21.324 18.7193 21.4693 18.6367 21.6C18.5567 21.7307 18.4393 21.8347 18.2847 21.912C18.13 21.9893 17.9473 22.028 17.7367 22.028Z" fill="#7332D6"/>
</g>
<defs>
<linearGradient id="paint0_linear_21443_89041" x1="16.4102" y1="10.688" x2="25.6012" y2="15.5672" gradientUnits="userSpaceOnUse">
<stop offset="0.0001" stop-color="#7332D6"/>
<stop offset="0.50005" stop-color="#32155A"/>
<stop offset="1" stop-color="#5D28AC"/>
</linearGradient>
<linearGradient id="paint1_linear_21443_89041" x1="2.80623" y1="6.34656" x2="16.0818" y2="20.801" gradientUnits="userSpaceOnUse">
<stop offset="0.0001" stop-color="#7332D6"/>
<stop offset="0.50005" stop-color="#32155A"/>
<stop offset="1" stop-color="#5D28AC"/>
</linearGradient>
<linearGradient id="paint2_linear_21443_89041" x1="0.120016" y1="10.688" x2="9.26152" y2="15.4946" gradientUnits="userSpaceOnUse">
<stop offset="0.0001" stop-color="#7332D6"/>
<stop offset="0.50005" stop-color="#32155A"/>
<stop offset="1" stop-color="#5D28AC"/>
</linearGradient>
<clipPath id="clip0_21443_89041">
<rect width="24" height="24" fill="white"/>
</clipPath>
</defs>
</svg>
