<svg width="24" height="24" viewBox="0 0 24 24" fill="none" xmlns="http://www.w3.org/2000/svg">
<g clip-path="url(#clip0_21394_98965)">
<path d="M12.5536 8.01802C11.9751 7.43733 11.2706 6.97852 10.4875 6.68068C10.1177 7.09158 9.86597 7.59183 9.76083 8.13427C9.73224 8.28052 9.71508 8.42714 9.70721 8.57307C9.77157 8.59519 9.83452 8.61882 9.89607 8.64563C10.5783 8.93489 11.1641 9.41911 11.5746 10.0291C11.9042 10.5169 12.1231 11.0815 12.1968 11.6934C12.2161 11.8461 12.2254 12.0016 12.2254 12.1604C12.2254 12.6904 12.1188 13.1896 11.9265 13.6451C11.6876 14.2069 11.3178 14.7039 10.8537 15.0905C10.755 15.1738 10.6513 15.2511 10.544 15.3237C9.93399 15.7356 9.20593 15.9745 8.41135 15.9745C7.88283 15.9745 7.38436 15.8676 6.92808 15.6755C6.24436 15.3863 5.66077 14.9017 5.24883 14.292C4.8383 13.683 4.59943 12.9532 4.59943 12.1604C4.59943 11.6308 4.70457 11.1323 4.89765 10.6757C5.15729 10.0628 5.57565 9.52786 6.1013 9.12844C6.09127 8.99002 6.08696 8.85164 6.08696 8.71327C6.08696 8.00241 6.19852 7.30866 6.41096 6.65283C5.59777 6.94857 4.8683 7.41877 4.27041 8.01811C3.21052 9.07482 2.55254 10.5456 2.55469 12.1605C2.55258 13.7757 3.21057 15.2465 4.27041 16.3035C5.15293 17.1874 6.32297 17.7893 7.6246 17.9641V19.79H4.91049V21.3626H7.6246V24.0001H9.198V21.3626H11.9143V19.7899H9.198V17.9641C10.5004 17.7892 11.6718 17.1874 12.5536 16.3035C12.8483 16.0088 13.1108 15.6834 13.3389 15.3312C13.9289 14.4175 14.2715 13.3258 14.2701 12.1604C14.2701 11.8869 14.2508 11.6162 14.215 11.3523C14.0355 10.0577 13.4333 8.89557 12.5536 8.01802Z" fill="#4C4C4C"/>
<path d="M16.3618 0V1.5727H18.762L16.2817 4.05295C15.2375 3.25697 13.9824 2.85464 12.7337 2.85577C11.2383 2.85464 9.73283 3.42858 8.59137 4.57219C7.77462 5.38678 7.24972 6.38691 7.01511 7.43719C7.01225 7.45003 7.01084 7.46292 7.00723 7.47366C6.99795 7.51444 6.99008 7.55555 6.98225 7.59455C6.96791 7.67034 6.95506 7.74581 6.94292 7.82123C6.93505 7.86666 6.92863 7.91423 6.92361 7.95961C6.91433 8.02866 6.90645 8.09944 6.90073 8.17022C6.89717 8.211 6.89286 8.25216 6.89075 8.29289C6.88934 8.31328 6.88789 8.334 6.88648 8.35584C6.88287 8.39695 6.88147 8.43914 6.88002 8.47988C6.87716 8.55713 6.875 8.63578 6.875 8.71303C6.875 8.77275 6.87716 8.83247 6.87861 8.89359C6.88147 8.95369 6.88508 9.01303 6.88789 9.07458L6.89717 9.20686C6.89717 9.2287 6.90073 9.25083 6.90214 9.27445C7.02805 10.581 7.59228 11.8584 8.59137 12.8557C9.19644 13.4611 9.90444 13.9074 10.6575 14.1924C10.8856 13.941 11.0716 13.65 11.2054 13.3367C11.3434 13.0081 11.4221 12.6605 11.4378 12.3018C10.9265 12.118 10.4487 11.8223 10.0368 11.4104C9.66416 11.036 9.38525 10.608 9.2 10.1488C9.06772 9.82439 8.98259 9.48473 8.94537 9.14213C8.92109 8.93934 8.91537 8.73483 8.92466 8.53209C8.92752 8.48166 8.93108 8.43305 8.93394 8.38406C8.9375 8.34797 8.94036 8.31183 8.94678 8.27536C8.94678 8.26139 8.94964 8.24747 8.95109 8.23317C8.95466 8.19848 8.95897 8.16239 8.96539 8.12803C8.97327 8.08083 8.98114 8.03184 8.99042 7.98502C9.03186 7.7708 9.09125 7.56019 9.16991 7.35563C9.18425 7.31808 9.1985 7.28198 9.2157 7.24406C9.23145 7.20473 9.24856 7.16541 9.26717 7.12608C9.28292 7.08675 9.30153 7.04737 9.32225 7.0095C9.33941 6.97055 9.36013 6.93263 9.38234 6.89508C9.48603 6.7027 9.60838 6.5175 9.74853 6.34116C9.77713 6.30506 9.80717 6.26897 9.83652 6.23423C9.90158 6.16022 9.96739 6.08798 10.0382 6.0172C10.1261 5.92922 10.2155 5.84733 10.3085 5.77186C10.6132 5.51869 10.9471 5.32022 11.2976 5.17898C11.9848 4.90045 12.7415 4.82963 13.4631 4.96978C14.1855 5.10994 14.8692 5.45541 15.4313 6.01716C15.8054 6.39155 16.0821 6.81956 16.2674 7.27838C16.5478 7.96566 16.6186 8.72086 16.4784 9.44287C16.3368 10.1645 15.9906 10.8486 15.4313 11.4104C15.3083 11.533 15.1796 11.6464 15.0459 11.7468C15.0537 11.8852 15.058 12.0236 15.058 12.1602C15.0602 12.865 14.9479 13.5598 14.7326 14.2206C15.5157 13.9374 16.2502 13.4814 16.876 12.8557C18.0182 11.7153 18.5939 10.2099 18.5924 8.71298C18.5938 7.46391 18.1912 6.21094 17.3938 5.16497L19.874 2.68472V5.08594H21.4467V0H16.3618Z" fill="#4C4C4C"/>
</g>
<defs>
<clipPath id="clip0_21394_98965">
<rect width="24" height="24" fill="white"/>
</clipPath>
</defs>
</svg>
