<svg width="24" height="24" viewBox="0 0 24 24" fill="none" xmlns="http://www.w3.org/2000/svg">
<g clip-path="url(#clip0_21443_89056)">
<path d="M18.1339 20.9267C18.2148 20.6216 18.2918 20.3019 18.3652 19.9699C18.3784 19.9074 18.358 19.8413 18.3112 19.7982C18.2635 19.7538 18.1977 19.7382 18.1353 19.758C17.8393 19.8488 17.5234 19.9383 17.189 20.0248C17.1232 20.0408 17.0726 20.0943 17.0579 20.16C16.9846 20.4873 16.9071 20.8013 16.8262 21.1011C16.8101 21.1636 16.8272 21.2298 16.8731 21.2751C16.9071 21.3102 16.9539 21.3291 17.0017 21.3291C17.0168 21.3291 17.0319 21.3271 17.0471 21.3234C17.388 21.2354 17.7106 21.1447 18.0123 21.0529C18.0714 21.0359 18.1178 20.9871 18.1339 20.9267Z" fill="url(#paint0_linear_21443_89056)"/>
<path d="M18.7646 17.4084C18.7921 17.1123 18.8115 16.8115 18.8234 16.507C18.8256 16.4479 18.7987 16.3906 18.7519 16.3557C18.7037 16.3197 18.6418 16.3084 18.586 16.3277C18.2998 16.4213 17.9915 16.5173 17.6619 16.6096C17.5872 16.6305 17.5338 16.6971 17.5305 16.7747C17.5138 17.0773 17.4912 17.3753 17.4619 17.6685C17.4558 17.728 17.4799 17.7867 17.5257 17.8256C17.5588 17.8535 17.6 17.8681 17.6421 17.8681C17.6586 17.8681 17.6751 17.8653 17.6922 17.8605C18.0336 17.7622 18.351 17.6619 18.6422 17.5635C18.7103 17.5417 18.7585 17.4799 18.7646 17.4084Z" fill="url(#paint1_linear_21443_89056)"/>
<path d="M18.532 19.1448C18.5858 18.8426 18.636 18.532 18.6776 18.2141C18.6857 18.1527 18.6615 18.0912 18.6138 18.0515C18.566 18.0117 18.5026 17.9986 18.4421 18.0184C18.1503 18.112 17.8363 18.2057 17.5024 18.2975C17.4329 18.3164 17.3809 18.375 17.3709 18.4469C17.327 18.7609 17.2778 19.0679 17.222 19.3663C17.2101 19.4277 17.2315 19.4906 17.2772 19.5327C17.3108 19.5639 17.3543 19.5809 17.3998 19.5809C17.4159 19.5809 17.432 19.579 17.4485 19.5739C17.7913 19.4788 18.1125 19.3822 18.4094 19.2859C18.4732 19.265 18.5205 19.2111 18.532 19.1448Z" fill="url(#paint2_linear_21443_89056)"/>
<path d="M17.1985 15.6717C17.198 15.5814 17.1952 15.493 17.1933 15.4039L17.1918 15.3595C17.1895 15.2612 17.1091 15.1826 17.0107 15.1826H16.0923C16.0431 15.1826 15.9967 15.2025 15.9622 15.2371C15.9286 15.272 15.9102 15.3193 15.9111 15.3681L15.9121 15.4125C15.9143 15.4972 15.9164 15.5827 15.9173 15.6689C15.9192 15.9232 15.9144 16.1758 15.9064 16.425C15.9041 16.4808 15.9281 16.5342 15.9712 16.5702C16.0039 16.5977 16.045 16.6129 16.0875 16.6129C16.0998 16.6129 16.1125 16.6109 16.1249 16.6086C16.4484 16.54 16.7604 16.4671 17.0574 16.3905C17.1351 16.3707 17.1909 16.3007 17.1927 16.2198C17.1976 16.0381 17.1999 15.8561 17.1985 15.6717Z" fill="url(#paint3_linear_21443_89056)"/>
<path d="M15.6741 19.9831C15.6855 19.9831 15.6968 19.9822 15.7082 19.9798C16.0355 19.917 16.3514 19.8488 16.6545 19.7769C16.7235 19.7608 16.776 19.706 16.7901 19.637C16.8521 19.3315 16.9099 19.0185 16.9599 18.6958C16.969 18.6352 16.9481 18.5757 16.9041 18.534C16.8597 18.4934 16.7977 18.4782 16.7391 18.4915C16.4411 18.5619 16.1309 18.6286 15.8088 18.6901C15.7341 18.7043 15.6759 18.7643 15.6641 18.8395C15.6134 19.1565 15.5576 19.4666 15.4957 19.7656C15.4838 19.8251 15.5027 19.8867 15.5444 19.9292C15.58 19.9642 15.6258 19.9831 15.6741 19.9831Z" fill="url(#paint4_linear_21443_89056)"/>
<path d="M15.3817 18.2675C15.4228 17.9635 15.4569 17.6528 15.4848 17.3373C15.4901 17.2819 15.4688 17.2261 15.4276 17.1882C15.3865 17.1504 15.3283 17.133 15.2749 17.1429C14.9774 17.1921 14.671 17.2361 14.3569 17.2743C14.2722 17.2847 14.2056 17.3527 14.1985 17.4384C14.171 17.75 14.1361 18.0542 14.0954 18.3535C14.0878 18.4093 14.1063 18.4647 14.1456 18.5049C14.1801 18.5399 14.2269 18.5593 14.2756 18.5593C14.2827 18.5593 14.2898 18.5589 14.2974 18.5578C14.618 18.5186 14.9292 18.4718 15.2332 18.4211C15.3104 18.4093 15.3709 18.3461 15.3817 18.2675Z" fill="url(#paint5_linear_21443_89056)"/>
<path d="M16.3595 21.3907C16.4474 21.0872 16.5321 20.7674 16.6129 20.4321C16.6271 20.3716 16.6096 20.3073 16.5655 20.2623C16.5216 20.218 16.4582 20.1995 16.3972 20.2127C16.0984 20.278 15.7895 20.34 15.4694 20.3962C15.3984 20.4085 15.3417 20.462 15.3246 20.5324C15.2457 20.8607 15.1624 21.1736 15.0773 21.4707C15.0602 21.5307 15.0749 21.595 15.117 21.6418C15.1511 21.6806 15.2008 21.7024 15.2514 21.7024C15.2612 21.7024 15.2713 21.7014 15.2816 21.6995C15.6056 21.6437 15.9205 21.5833 16.2233 21.518C16.289 21.5037 16.3415 21.4545 16.3595 21.3907Z" fill="url(#paint6_linear_21443_89056)"/>
<path d="M17.6303 16.1592C17.6626 16.1834 17.7013 16.1957 17.7406 16.1957C17.7577 16.1957 17.7746 16.1937 17.7912 16.189C18.1242 16.0916 18.4353 15.9924 18.7186 15.8958C18.7928 15.8703 18.8424 15.7502 18.842 15.6717C18.8416 15.5814 18.8392 15.4924 18.8368 15.4031L18.8358 15.3595C18.8335 15.2612 18.7531 15.1826 18.6548 15.1826H17.7358C17.6872 15.1826 17.6408 15.2025 17.6062 15.2371C17.5722 15.272 17.5538 15.3193 17.5547 15.3681L17.5557 15.4117C17.558 15.4973 17.5605 15.5824 17.5614 15.6689C17.5624 15.7838 17.5609 15.8977 17.5591 16.0113C17.558 16.0698 17.585 16.1242 17.6303 16.1592Z" fill="url(#paint7_linear_21443_89056)"/>
<path d="M17.0717 17.9109C17.1066 17.6091 17.1364 17.3027 17.1577 16.9906C17.1614 16.9329 17.1373 16.8771 17.0929 16.8393C17.0485 16.8024 16.9888 16.7891 16.933 16.8024C16.6384 16.8743 16.3296 16.9433 16.0094 17.0081C15.93 17.0238 15.8708 17.0913 15.8637 17.1723C15.8406 17.4806 15.8117 17.7842 15.7748 18.0807C15.7677 18.1389 15.789 18.1966 15.832 18.2358C15.8656 18.2666 15.9097 18.284 15.955 18.284C15.9668 18.284 15.9792 18.283 15.9914 18.2808C16.3182 18.2126 16.6341 18.1413 16.9349 18.0659C17.0082 18.048 17.0626 17.9867 17.0717 17.9109Z" fill="url(#paint8_linear_21443_89056)"/>
<path d="M11.8232 9.08564C11.8232 9.03696 11.8038 8.99084 11.7686 8.95659C11.7341 8.92252 11.7007 8.90408 11.6378 8.90481C11.447 8.90864 11.2571 8.91494 11.0682 8.92517C10.9947 8.92901 10.9303 8.97741 10.9064 9.04765C10.7621 9.47042 10.6277 9.90808 10.5066 10.3489C10.491 10.4055 10.5035 10.4665 10.5408 10.5116C10.5753 10.5542 10.6271 10.5783 10.6807 10.5783C10.685 10.5783 10.6895 10.5783 10.6933 10.5778C11.0019 10.5566 11.3221 10.5426 11.6447 10.5367C11.7438 10.5348 11.8228 10.454 11.8228 10.3551V9.08564H11.8232Z" fill="url(#paint9_linear_21443_89056)"/>
<path d="M11.8196 15.3642C11.8196 15.264 11.7382 15.1836 11.638 15.1836H9.92226C9.82389 15.1836 9.74343 15.262 9.74115 15.36L9.73968 15.4031C9.73777 15.4929 9.73548 15.5818 9.73493 15.6726C9.73192 16.024 9.74105 16.3829 9.76288 16.7698C9.76836 16.8588 9.83522 16.9301 9.92317 16.9401C10.4989 17.0063 11.0748 17.045 11.6347 17.0554C11.6356 17.0554 11.6371 17.0554 11.638 17.0554C11.686 17.0554 11.731 17.0375 11.7651 17.0035C11.8003 16.9699 11.8197 16.9231 11.8197 16.8739L11.8196 15.3642Z" fill="url(#paint10_linear_21443_89056)"/>
<path d="M11.82 13.0748C11.82 13.0261 11.8007 12.9793 11.7654 12.9448C11.7314 12.9112 11.6815 12.889 11.6351 12.8937C11.1281 12.9032 10.606 12.9363 10.0844 12.9911C10.0011 12.9996 9.93468 13.0639 9.92354 13.1461C9.85523 13.6356 9.80554 14.1336 9.77385 14.6274C9.77047 14.6775 9.78801 14.7267 9.8228 14.7625C9.85687 14.7994 9.90464 14.8203 9.9545 14.8203H11.6384C11.7387 14.8203 11.8199 14.739 11.8199 14.6387V13.0748H11.82Z" fill="url(#paint11_linear_21443_89056)"/>
<path d="M10.0787 10.5127C10.1931 10.0755 10.3208 9.64009 10.4585 9.21969C10.4774 9.16151 10.4662 9.09813 10.428 9.05018C10.3897 9.00223 10.3287 8.97857 10.269 8.98232C9.84481 9.02351 9.41043 9.07931 8.97935 9.15C8.91222 9.16014 8.85733 9.20772 8.83605 9.27202C8.69275 9.70639 8.56105 10.1543 8.44332 10.6019C8.42798 10.662 8.44332 10.7254 8.48497 10.771C8.51995 10.8087 8.56845 10.8295 8.61877 10.8295C8.62891 10.8295 8.63914 10.829 8.64973 10.8271C9.07296 10.7541 9.50149 10.6936 9.92381 10.6469C9.99788 10.639 10.06 10.5848 10.0787 10.5127Z" fill="url(#paint12_linear_21443_89056)"/>
<path d="M9.85717 11.0993C9.8179 11.0554 9.76237 11.0331 9.70036 11.0412C9.26745 11.0951 8.82896 11.1644 8.3987 11.2471C8.32801 11.2602 8.2712 11.315 8.25568 11.385C8.15658 11.8272 8.07119 12.2675 8.00241 12.695C7.99273 12.7532 8.01255 12.8128 8.05511 12.8539C8.08918 12.8861 8.13457 12.9051 8.18161 12.9051C8.19275 12.9051 8.20435 12.9031 8.21586 12.9012C8.63443 12.8199 9.06496 12.7494 9.49587 12.6927C9.57533 12.6828 9.63825 12.6213 9.65095 12.5418C9.72072 12.1191 9.80347 11.6869 9.90019 11.2607C9.91343 11.2035 9.8969 11.1429 9.85717 11.0993Z" fill="url(#paint13_linear_21443_89056)"/>
<path d="M13.9776 20.2363C13.9847 20.2363 13.9905 20.2358 13.9966 20.2354C14.3139 20.2013 14.6241 20.1607 14.9263 20.1143C15.0006 20.103 15.0597 20.0462 15.0763 19.9739C15.1434 19.6689 15.2064 19.3549 15.2626 19.0309C15.2725 18.9736 15.2536 18.915 15.2125 18.8734C15.1718 18.8313 15.1137 18.8128 15.0564 18.8214C14.7585 18.8672 14.4525 18.9079 14.1394 18.9424C14.059 18.9515 13.9942 19.0119 13.9805 19.0919C13.9266 19.4101 13.8656 19.7185 13.8008 20.0174C13.789 20.0736 13.8041 20.1333 13.8434 20.1763C13.8773 20.2146 13.927 20.2363 13.9776 20.2363Z" fill="url(#paint14_linear_21443_89056)"/>
<path d="M11.8206 11.0801C11.8206 11.0312 11.8013 10.9852 11.7665 10.9507C11.7319 10.9169 11.6982 10.9004 11.6357 10.8989C11.2589 10.9062 10.8671 10.9266 10.472 10.9599C10.394 10.9668 10.329 11.0224 10.3107 11.0985C10.2088 11.5265 10.1178 11.9635 10.0419 12.3961C10.0318 12.4519 10.0488 12.5091 10.0869 12.5507C10.1219 12.5881 10.1704 12.609 10.2207 12.609C10.2259 12.609 10.2314 12.609 10.237 12.6085C10.704 12.5645 11.177 12.539 11.6413 12.53C11.7403 12.5286 11.8196 12.4477 11.8196 12.3489V11.08L11.8206 11.0801Z" fill="url(#paint15_linear_21443_89056)"/>
<path d="M15.7484 8.27127C15.7319 8.22816 15.6998 8.19363 15.6587 8.17336C15.328 8.01207 14.9762 7.86932 14.613 7.75013C14.5468 7.72739 14.4721 7.74684 14.4244 7.79817C14.3762 7.84904 14.3619 7.92393 14.3875 7.98942C14.4637 8.17975 14.5436 8.3879 14.6273 8.62079C14.6505 8.68445 14.7057 8.72984 14.7725 8.73906C15.0861 8.78373 15.3906 8.83414 15.6867 8.88921C15.6976 8.89113 15.7089 8.8925 15.7198 8.8925C15.7722 8.8925 15.8233 8.8694 15.8579 8.8282C15.9004 8.7787 15.9123 8.71002 15.8901 8.64901C15.8412 8.51485 15.7943 8.38954 15.7484 8.27127Z" fill="url(#paint16_linear_21443_89056)"/>
<path d="M17.6925 13.7337C17.6343 13.7171 17.5724 13.7299 17.5266 13.7677C17.4802 13.8065 17.4562 13.8651 17.4617 13.9253C17.4849 14.1622 17.5034 14.4043 17.518 14.6498C17.5237 14.7453 17.6031 14.8206 17.6991 14.8206H18.6156C18.6658 14.8206 18.713 14.7997 18.7475 14.7638C18.7816 14.7274 18.7996 14.6777 18.7962 14.6281C18.7877 14.4791 18.7758 14.3321 18.764 14.1864C18.7575 14.115 18.7096 14.0535 18.641 14.0308C18.3498 13.9324 18.0329 13.8321 17.6925 13.7337Z" fill="url(#paint17_linear_21443_89056)"/>
<path d="M17.8234 9.78101C17.5198 9.69141 17.1977 9.60373 16.8577 9.51898C16.7944 9.50336 16.7272 9.52281 16.6827 9.56957C16.6378 9.61716 16.6217 9.68447 16.6406 9.74685C16.7712 10.1822 16.8895 10.6263 16.9929 11.0656C17.0076 11.1313 17.0587 11.1831 17.124 11.1997C17.4588 11.2849 17.7752 11.373 18.0722 11.4636C18.0893 11.4691 18.1072 11.4714 18.1246 11.4714C18.17 11.4714 18.2145 11.4543 18.2485 11.4224C18.2959 11.3779 18.3157 11.312 18.301 11.2495C18.1956 10.7943 18.0759 10.3411 17.9463 9.9033C17.9274 9.84439 17.882 9.79827 17.8234 9.78101Z" fill="url(#paint18_linear_21443_89056)"/>
<path d="M18.3482 11.9388C18.0502 11.8431 17.7287 11.7466 17.3853 11.6527C17.3257 11.6357 17.26 11.6517 17.2141 11.6948C17.1677 11.7373 17.147 11.801 17.1601 11.8629C17.242 12.2829 17.3134 12.7147 17.3725 13.1455C17.382 13.2173 17.434 13.2769 17.5039 13.2963C17.8377 13.3876 18.1514 13.4822 18.4426 13.5754C18.4606 13.5815 18.479 13.5844 18.498 13.5844C18.5395 13.5844 18.5806 13.5702 18.6133 13.5428C18.6611 13.503 18.6852 13.4417 18.6777 13.3806C18.6237 12.9497 18.5533 12.5113 18.4705 12.0779C18.4583 12.0126 18.411 11.9591 18.3482 11.9388Z" fill="url(#paint19_linear_21443_89056)"/>
<path d="M12.9537 10.5582C12.9571 10.5587 12.9603 10.5587 12.9627 10.5587C13.0172 10.5587 13.0697 10.5337 13.1042 10.4906C13.1402 10.445 13.1529 10.3849 13.1373 10.3289C13.0152 9.88675 12.8813 9.45046 12.738 9.03244C12.7131 8.96175 12.6473 8.91234 12.5721 8.90996L12.373 8.90576C12.3239 8.90668 12.2777 8.92293 12.2425 8.95709C12.207 8.99088 12.1875 9.03801 12.1875 9.08687V10.356C12.1875 10.4549 12.2665 10.5352 12.3649 10.5376C12.5635 10.5419 12.7603 10.5487 12.9537 10.5582Z" fill="url(#paint20_linear_21443_89056)"/>
<path d="M7.74781 15.4041C7.74544 15.4935 7.74361 15.5819 7.74261 15.6727C7.74069 15.929 7.74544 16.1839 7.75466 16.4359C7.7575 16.5192 7.81659 16.5887 7.89741 16.6066C8.31553 16.697 8.74945 16.7756 9.18665 16.8417C9.19588 16.8432 9.2051 16.844 9.21387 16.844C9.2588 16.844 9.30182 16.8275 9.33543 16.7971C9.37607 16.7612 9.3979 16.7077 9.39498 16.6535C9.3789 16.3091 9.37205 15.9876 9.37461 15.6698C9.37562 15.5828 9.37744 15.4981 9.37982 15.4126L9.38073 15.369C9.38173 15.3199 9.36356 15.273 9.32894 15.238C9.29515 15.2034 9.24812 15.1836 9.19962 15.1836H7.92993C7.83175 15.1836 7.75138 15.262 7.74882 15.3605L7.74781 15.4041Z" fill="url(#paint21_linear_21443_89056)"/>
<path d="M12.1886 12.3511C12.1886 12.4495 12.267 12.5304 12.3659 12.5322C12.7234 12.5403 13.0743 12.5573 13.4077 12.5819C13.4124 12.5819 13.4167 12.5819 13.421 12.5819C13.4725 12.5819 13.5208 12.5602 13.5554 12.5224C13.5932 12.4807 13.6093 12.425 13.5993 12.3696C13.5251 11.944 13.4338 11.5086 13.3297 11.0742C13.3113 10.9966 13.2441 10.9409 13.1651 10.9352C12.905 10.9186 12.6411 10.9071 12.3735 10.9011C12.3238 10.8983 12.2776 10.9186 12.2422 10.9527C12.2074 10.9864 12.1875 11.0336 12.1875 11.0823V12.3511H12.1886Z" fill="url(#paint22_linear_21443_89056)"/>
<path d="M12.3648 20.7041C12.266 20.706 12.1875 20.7868 12.1875 20.8852V21.8037C12.1875 21.8524 12.2069 21.8987 12.2424 21.9332C12.2757 21.9663 12.3211 21.9843 12.3692 21.9843C12.3706 21.9843 12.3714 21.9843 12.3732 21.9843C12.5086 21.9815 12.6434 21.9772 12.7782 21.9711C12.8544 21.9673 12.9206 21.9171 12.9434 21.8434C13.0341 21.5507 13.1245 21.2371 13.2111 20.907C13.2258 20.8513 13.213 20.7916 13.1765 20.7462C13.1397 20.7013 13.0838 20.6743 13.0262 20.6799C12.808 20.6914 12.5876 20.6989 12.3648 20.7041Z" fill="url(#paint23_linear_21443_89056)"/>
<path d="M12.3366 23.1536C12.3477 23.1555 12.3578 23.1563 12.3686 23.1563C12.4432 23.1563 12.5118 23.11 12.5389 23.0381C12.5908 22.8953 12.6452 22.7448 12.7006 22.585C12.72 22.5292 12.7105 22.4667 12.6751 22.4186C12.6406 22.3704 12.5823 22.3447 12.5242 22.3447L12.364 22.3476C12.266 22.3504 12.1875 22.4309 12.1875 22.5283V22.9747C12.1874 23.0628 12.2507 23.1374 12.3366 23.1536Z" fill="url(#paint24_linear_21443_89056)"/>
<path d="M13.3943 20.162C13.4639 19.8611 13.5277 19.5472 13.5863 19.2251C13.5962 19.1697 13.5802 19.1129 13.5424 19.0713C13.5055 19.0292 13.4511 19.0075 13.3944 19.0117C13.0667 19.0364 12.7204 19.0524 12.3649 19.06C12.266 19.0628 12.1875 19.1432 12.1875 19.2415V20.1601C12.1875 20.2092 12.2074 20.2555 12.2425 20.2896C12.2757 20.3227 12.3211 20.3411 12.3692 20.3411C12.3706 20.3411 12.372 20.3411 12.373 20.3411C12.6634 20.335 12.9486 20.3213 13.23 20.3028C13.3096 20.2971 13.3764 20.24 13.3943 20.162Z" fill="url(#paint25_linear_21443_89056)"/>
<path d="M13.7084 18.4803C13.7528 18.1757 13.7916 17.865 13.8219 17.5461C13.8271 17.4932 13.8082 17.4403 13.7704 17.4015C13.7326 17.3637 13.681 17.3438 13.6262 17.349C13.2076 17.3845 12.7833 17.4072 12.3649 17.4161C12.2665 17.4185 12.1875 17.4988 12.1875 17.5972V18.5156C12.1875 18.5649 12.2074 18.6112 12.2424 18.6457C12.2757 18.6783 12.3211 18.6972 12.3692 18.6972C12.3706 18.6972 12.372 18.6972 12.3732 18.6972C12.7645 18.6877 13.1585 18.6674 13.5449 18.6347C13.6276 18.6273 13.6957 18.5635 13.7084 18.4803Z" fill="url(#paint26_linear_21443_89056)"/>
<path d="M14.8636 11.1181C14.5618 11.0727 14.2516 11.033 13.9342 10.9994C13.8765 10.9937 13.8188 11.0159 13.78 11.0595C13.7407 11.1034 13.726 11.1631 13.7389 11.2202C13.8345 11.6403 13.9191 12.071 13.991 12.5005C14.0033 12.5809 14.0685 12.6415 14.1494 12.6513C14.462 12.6858 14.7684 12.727 15.0669 12.7733C15.0767 12.7748 15.0858 12.7757 15.0953 12.7757C15.1435 12.7757 15.1894 12.7563 15.2243 12.7217C15.2655 12.6802 15.2839 12.6225 15.274 12.5647C15.2007 12.1235 15.1127 11.6837 15.0148 11.2576C14.9969 11.1839 14.9374 11.1288 14.8636 11.1181Z" fill="url(#paint27_linear_21443_89056)"/>
<path d="M16.0555 14.8202H16.972C17.0222 14.8202 17.0699 14.8003 17.1039 14.7634C17.1384 14.7271 17.1559 14.6774 17.1536 14.6282C17.1328 14.307 17.1049 13.9926 17.0709 13.6843C17.0618 13.6095 17.008 13.5471 16.9347 13.5292C16.6339 13.454 16.3185 13.3811 15.9917 13.3144C15.9344 13.3011 15.8758 13.3192 15.8323 13.3579C15.7898 13.3972 15.768 13.4549 15.7746 13.5121C15.8191 13.8857 15.8522 14.2683 15.8749 14.6509C15.8805 14.7455 15.96 14.8202 16.0555 14.8202Z" fill="url(#paint28_linear_21443_89056)"/>
<path d="M14.2694 9.04221C13.972 9.0065 13.6679 8.97645 13.3586 8.95261C13.2961 8.94832 13.2394 8.97407 13.2025 9.02193C13.1651 9.06988 13.1543 9.13281 13.1732 9.19099C13.3104 9.60883 13.4389 10.0423 13.5534 10.4783C13.5728 10.5523 13.6361 10.6064 13.7123 10.6128C14.0221 10.6405 14.3233 10.6738 14.619 10.7136C14.6274 10.7149 14.635 10.7155 14.6431 10.7155C14.6946 10.7155 14.7447 10.6933 14.7792 10.654C14.8194 10.6082 14.8341 10.5455 14.8181 10.4871C14.6989 10.0427 14.5642 9.59778 14.4189 9.16386C14.3972 9.09801 14.3385 9.05097 14.2694 9.04221Z" fill="url(#paint29_linear_21443_89056)"/>
<path d="M12.1877 14.6392C12.1877 14.7396 12.2691 14.8208 12.3692 14.8208H13.6906C13.7408 14.8208 13.7884 14.7999 13.8225 14.763C13.8566 14.7271 13.8746 14.6779 13.8717 14.6282C13.84 14.1232 13.788 13.6129 13.7179 13.1135C13.7066 13.0297 13.638 12.965 13.5538 12.9583C13.1633 12.9253 12.766 12.9044 12.3732 12.895C12.3358 12.895 12.2776 12.9125 12.2424 12.947C12.2073 12.9811 12.1875 13.0274 12.1875 13.0766V14.6392H12.1877Z" fill="url(#paint30_linear_21443_89056)"/>
<path d="M12.188 16.872C12.188 16.9212 12.2078 16.9681 12.2428 17.0016C12.2762 17.0351 12.3216 17.0535 12.3696 17.0535C12.3711 17.0535 12.3724 17.0535 12.3741 17.0535C12.8208 17.0432 13.272 17.0176 13.716 16.976C13.805 16.968 13.8749 16.8955 13.8801 16.8058C13.9033 16.4076 13.9132 16.0367 13.9104 15.6717C13.9094 15.5814 13.9075 15.4924 13.9047 15.4031L13.9037 15.3595C13.9013 15.2612 13.821 15.1826 13.7226 15.1826H12.3692C12.2688 15.1826 12.1875 15.264 12.1875 15.3642V16.8719L12.188 16.872Z" fill="url(#paint31_linear_21443_89056)"/>
<path d="M14.6303 21.6942C14.72 21.3954 14.8095 21.0775 14.8956 20.7432C14.9097 20.685 14.8956 20.6226 14.8548 20.5777C14.8151 20.5327 14.7556 20.511 14.695 20.5186C14.4 20.5592 14.0972 20.5942 13.7879 20.6226C13.7113 20.6302 13.6475 20.6851 13.6286 20.7593C13.5468 21.0846 13.4617 21.3954 13.3746 21.6891C13.3576 21.7463 13.3703 21.8083 13.4081 21.8546C13.4428 21.8971 13.4943 21.9212 13.5486 21.9212C13.5534 21.9212 13.5586 21.9212 13.5638 21.9212C13.8759 21.8948 14.1815 21.8607 14.4803 21.8219C14.5512 21.8129 14.6094 21.7623 14.6303 21.6942Z" fill="url(#paint32_linear_21443_89056)"/>
<path d="M14.1468 13.087C14.1069 13.1268 14.088 13.1826 14.0953 13.2384C14.1567 13.7122 14.2021 14.1876 14.2296 14.65C14.2353 14.7455 14.3147 14.8208 14.4107 14.8208H15.3272C15.3774 14.8208 15.4256 14.7999 15.4591 14.763C15.4932 14.7271 15.5106 14.6778 15.5083 14.6282C15.4808 14.1973 15.4383 13.7599 15.3825 13.3271C15.3721 13.2487 15.3116 13.1853 15.2325 13.1725C14.9285 13.121 14.6168 13.0747 14.2966 13.0354C14.2438 13.0275 14.1865 13.0473 14.1468 13.087Z" fill="url(#paint33_linear_21443_89056)"/>
<path d="M16.0242 9.33153C15.721 9.26869 15.4084 9.20951 15.0855 9.15773C15.0212 9.14595 14.9601 9.17024 14.919 9.21828C14.8779 9.26605 14.8645 9.33153 14.8834 9.39163C15.0183 9.81486 15.1436 10.2545 15.2571 10.699C15.2737 10.7684 15.331 10.8211 15.4018 10.8334C15.7215 10.888 16.0317 10.9486 16.3301 11.0136C16.3425 11.0164 16.3552 11.0179 16.368 11.0179C16.4167 11.0179 16.4636 10.998 16.4985 10.9627C16.5421 10.917 16.5595 10.8532 16.5439 10.7922C16.4305 10.3428 16.3014 9.89267 16.1609 9.45355C16.1395 9.39163 16.088 9.3445 16.0242 9.33153Z" fill="url(#paint34_linear_21443_89056)"/>
<path d="M15.6449 11.2511C15.5848 11.24 15.5243 11.2594 15.4813 11.3025C15.4392 11.3462 15.4212 11.4077 15.4335 11.4673C15.5248 11.8894 15.6047 12.3226 15.6705 12.7524C15.6818 12.8286 15.74 12.8886 15.8153 12.9033C16.1372 12.9658 16.448 13.0328 16.745 13.1029C16.7592 13.1057 16.7738 13.1076 16.7876 13.1076C16.8325 13.1076 16.8765 13.0916 16.9106 13.0599C16.9545 13.0192 16.9759 12.9591 16.9664 12.8996C16.9001 12.4598 16.8198 12.0183 16.7285 11.5893C16.7134 11.5205 16.6604 11.4666 16.5923 11.4512C16.289 11.3796 15.9722 11.3126 15.6449 11.2511Z" fill="url(#paint35_linear_21443_89056)"/>
<path d="M15.5292 16.5816C15.5434 16.2723 15.5496 15.9659 15.5467 15.6717C15.5462 15.5814 15.5438 15.493 15.5419 15.4039L15.5409 15.3595C15.5382 15.2612 15.4577 15.1826 15.3594 15.1826H14.4409C14.3917 15.1826 14.3458 15.2025 14.3113 15.2371C14.2768 15.272 14.2584 15.3193 14.2594 15.3681L14.2608 15.4125C14.2627 15.4972 14.2656 15.5827 14.266 15.6689C14.2684 15.9976 14.2608 16.3357 14.2424 16.7051C14.24 16.7585 14.2608 16.8105 14.3005 16.847C14.3342 16.8777 14.3782 16.8956 14.4236 16.8956C14.4316 16.8956 14.4392 16.8947 14.4472 16.8937C14.766 16.8521 15.0781 16.8048 15.3803 16.7513C15.4635 16.7376 15.5254 16.6667 15.5292 16.5816Z" fill="url(#paint36_linear_21443_89056)"/>
<path d="M5.97012 14.8208H7.23753C7.33334 14.8208 7.41234 14.7465 7.418 14.65C7.43791 14.3205 7.46604 13.996 7.50056 13.6805C7.50668 13.6219 7.48403 13.5638 7.44001 13.525C7.39535 13.4862 7.3348 13.471 7.27735 13.4852C6.83896 13.5921 6.39819 13.7131 5.96638 13.8455C5.8966 13.8667 5.84628 13.9287 5.83888 14.0016C5.81906 14.2079 5.80244 14.4168 5.78947 14.6277C5.78609 14.6778 5.8039 14.7271 5.83842 14.7629C5.87212 14.8 5.92016 14.8208 5.97012 14.8208Z" fill="url(#paint37_linear_21443_89056)"/>
<path d="M6.81611 22.1558C6.82725 22.1893 6.84807 22.2206 6.87712 22.2423C7.36821 22.6264 7.9003 22.9546 8.45925 23.2175C8.48391 23.2289 8.51058 23.2346 8.53606 23.2346C8.58082 23.2346 8.62429 23.2185 8.65808 23.1872C8.71252 23.1381 8.73142 23.061 8.70658 22.9924C8.61086 22.7247 8.50967 22.4315 8.40793 22.1118C8.38802 22.0484 8.33459 22.0011 8.26983 21.9888C7.83592 21.9056 7.3946 21.8072 6.95986 21.6961C6.89602 21.6786 6.82862 21.6993 6.78414 21.7472C6.73893 21.7949 6.72313 21.8631 6.7425 21.9255L6.81611 22.1558Z" fill="url(#paint38_linear_21443_89056)"/>
<path d="M14.6347 23.5731C14.6541 23.5731 14.674 23.5703 14.6929 23.5636C15.0514 23.4416 15.4042 23.2945 15.7395 23.1257C15.7806 23.1049 15.8123 23.0694 15.8284 23.0263C15.9211 22.7742 16.019 22.4986 16.1183 22.193C16.1382 22.132 16.1244 22.0649 16.082 22.0166C16.0394 21.9689 15.9732 21.9466 15.9113 21.9589C15.6153 22.0166 15.3082 22.0705 14.9928 22.1183C14.9247 22.1282 14.8684 22.176 14.8476 22.2418C14.7308 22.6035 14.6055 22.9587 14.465 23.3276C14.44 23.3929 14.4552 23.4675 14.5038 23.5177C14.5386 23.5537 14.5854 23.5731 14.6347 23.5731Z" fill="url(#paint39_linear_21443_89056)"/>
<path d="M11.6378 24.0001C11.6848 24.0001 11.7298 23.9821 11.7643 23.949C11.7995 23.9149 11.8194 23.8676 11.8194 23.8184V22.5311C11.8194 22.4318 11.7404 22.3518 11.6418 22.3496C11.4664 22.3457 11.2916 22.341 11.1192 22.3334C11.0582 22.3268 11.0015 22.3581 10.9658 22.4053C10.9298 22.4539 10.9201 22.5164 10.9395 22.5737C11.0979 23.0324 11.2663 23.475 11.4403 23.8889C11.4682 23.9551 11.5481 23.999 11.6193 24L11.6377 23.8184L11.6316 24C11.6336 24.0001 11.6359 24.0001 11.6378 24.0001Z" fill="url(#paint40_linear_21443_89056)"/>
<path d="M12.8381 23.9672C12.8442 23.9672 12.85 23.9667 12.8561 23.9657C13.162 23.9345 13.477 23.8834 13.793 23.8144C13.8516 23.8021 13.8994 23.7614 13.922 23.7057C14.0867 23.3032 14.2422 22.8852 14.3855 22.4614C14.4053 22.4028 14.3945 22.3379 14.3552 22.2898C14.3159 22.2416 14.2568 22.2159 14.1934 22.2235C13.9022 22.2561 13.6052 22.284 13.3024 22.3049C13.2291 22.3096 13.1662 22.3583 13.143 22.4279C12.9969 22.8658 12.838 23.3005 12.6697 23.718C12.6455 23.7767 12.6545 23.8438 12.6928 23.8944C12.7274 23.9402 12.7809 23.9672 12.8381 23.9672Z" fill="url(#paint41_linear_21443_89056)"/>
<path d="M9.28477 23.4855C9.30468 23.5356 9.34578 23.5744 9.39666 23.5909C9.84454 23.7389 10.3042 23.8481 10.7622 23.9167C10.7719 23.9187 10.7802 23.9187 10.7895 23.9187C10.8441 23.9187 10.8975 23.8936 10.9318 23.8501C10.972 23.7995 10.9817 23.7303 10.9581 23.6699C10.7947 23.2641 10.6398 22.8376 10.4956 22.4024C10.4726 22.3339 10.4112 22.2861 10.3395 22.279C9.92163 22.2425 9.49602 22.1909 9.07563 22.1271C9.01361 22.1176 8.95032 22.1408 8.90968 22.1896C8.86876 22.2378 8.8567 22.304 8.87652 22.3636C9.00384 22.7453 9.14074 23.1227 9.28477 23.4855Z" fill="url(#paint42_linear_21443_89056)"/>
<path d="M5.46147 20.8424C5.48366 20.8704 5.51371 20.8911 5.54778 20.9024L5.79556 20.9819C5.81355 20.9875 5.832 20.9904 5.85045 20.9904C5.89584 20.9904 5.9406 20.9734 5.97439 20.9412C6.02234 20.8958 6.04225 20.8287 6.02663 20.7648C5.95073 20.465 5.87785 20.1529 5.81118 19.8279C5.79794 19.7636 5.75063 19.712 5.68825 19.6922C5.41106 19.6047 5.15313 19.5177 4.91385 19.4325C4.84224 19.4089 4.7637 19.4292 4.7152 19.4865C4.66625 19.5442 4.65803 19.6255 4.69438 19.6913C4.91385 20.09 5.17177 20.4768 5.46147 20.8424Z" fill="url(#paint43_linear_21443_89056)"/>
<path d="M3.69898 14.9898L3.68784 15.1355C3.6829 15.2131 3.73277 15.2869 3.80346 15.3171C3.80346 15.3171 3.81031 15.3195 3.81031 15.3199C3.83251 15.3294 3.85616 15.3335 3.88009 15.3335C3.91534 15.3335 3.95078 15.3237 3.98083 15.3037C4.03115 15.2698 4.0612 15.213 4.0612 15.1525V15.004C4.0612 14.9065 3.98457 14.8271 3.88767 14.8223C3.79049 14.8196 3.70656 14.8928 3.69898 14.9898Z" fill="url(#paint44_linear_21443_89056)"/>
<path d="M3.74868 16.8426C3.75791 16.906 3.799 16.9599 3.8581 16.9846C4.28425 17.1643 4.73844 17.3374 5.20971 17.4997C5.22907 17.5067 5.24898 17.51 5.2688 17.51C5.30853 17.51 5.34753 17.4967 5.37968 17.4717C5.42845 17.4338 5.45421 17.3747 5.44946 17.3138C5.42553 17.0253 5.40808 16.7316 5.39795 16.4341C5.39511 16.3594 5.34616 16.2932 5.27447 16.2691C4.81004 16.1134 4.35531 15.9427 3.92239 15.7645C3.86677 15.7413 3.80083 15.7484 3.74996 15.7829C3.69964 15.8179 3.67004 15.8761 3.67196 15.9375C3.68128 16.2411 3.70749 16.5462 3.74868 16.8426Z" fill="url(#paint45_linear_21443_89056)"/>
<path d="M7.96227 14.8203H9.22949C9.32548 14.8203 9.40494 14.7461 9.4106 14.65C9.43782 14.2036 9.48083 13.7454 9.53947 13.2871C9.54687 13.2304 9.52696 13.1745 9.48677 13.1348C9.44659 13.0955 9.39169 13.0771 9.33425 13.0847C8.90554 13.1461 8.46788 13.2228 8.03259 13.314C7.95651 13.3296 7.89879 13.3926 7.88902 13.4696C7.84271 13.847 7.80673 14.2366 7.7817 14.6278C7.77814 14.6785 7.79568 14.7272 7.83066 14.7635C7.86436 14.7995 7.91286 14.8203 7.96227 14.8203Z" fill="url(#paint46_linear_21443_89056)"/>
<path d="M16.6347 22.5672C16.6711 22.5672 16.706 22.5568 16.7377 22.535C16.9987 22.3543 17.2537 22.1552 17.4977 21.942C17.5606 21.8862 17.5776 21.7944 17.5379 21.7197C17.4982 21.6459 17.4144 21.609 17.3312 21.6298C17.1363 21.6818 16.9368 21.7329 16.7287 21.7811C16.6662 21.7957 16.6162 21.8436 16.5967 21.905C16.5519 22.052 16.5069 22.1916 16.4624 22.3287C16.4378 22.4021 16.4634 22.4838 16.5257 22.5302C16.5585 22.5549 16.5963 22.5672 16.6347 22.5672Z" fill="url(#paint47_linear_21443_89056)"/>
<path d="M19.6328 15.1836H19.3764C19.3278 15.1836 19.2809 15.2025 19.2468 15.2375C19.2133 15.272 19.1949 15.3193 19.1953 15.3681L19.1972 15.4684C19.1987 15.527 19.2279 15.5813 19.2776 15.615C19.3074 15.6353 19.3434 15.6452 19.3788 15.6452C19.4005 15.6452 19.4224 15.6413 19.4436 15.6333L19.7004 15.533C19.7812 15.5009 19.8276 15.4158 19.811 15.3306C19.794 15.2441 19.7198 15.1836 19.6328 15.1836Z" fill="url(#paint48_linear_21443_89056)"/>
<path d="M19.9531 15.0174V15.1565C19.9531 15.2185 19.9895 15.2733 20.0415 15.3064C20.0704 15.3253 20.1049 15.3344 20.139 15.3344C20.1674 15.3344 20.1942 15.3282 20.2198 15.3169C20.2884 15.2867 20.3305 15.2157 20.3258 15.1409L20.3153 15.0038C20.3073 14.9073 20.243 14.8383 20.1276 14.8364C20.0298 14.8401 19.9531 14.9205 19.9531 15.0174Z" fill="url(#paint49_linear_21443_89056)"/>
<path d="M19.6117 12.3869C19.4684 12.3311 19.3174 12.2724 19.1492 12.212C19.0886 12.1892 19.021 12.2015 18.9718 12.2431C18.9217 12.2843 18.8986 12.3486 18.9085 12.4124C18.9804 12.83 19.0399 13.2571 19.0854 13.6827C19.0935 13.7517 19.1389 13.8103 19.2037 13.8339C19.4666 13.9295 19.7016 14.0208 19.9079 14.104C19.9301 14.1139 19.9533 14.1177 19.9765 14.1177C20.0186 14.1177 20.0597 14.1031 20.0932 14.0751C20.1443 14.0315 20.1679 13.9635 20.1533 13.8982C20.0487 13.4149 19.9007 12.9396 19.713 12.4869C19.6943 12.4408 19.658 12.4048 19.6117 12.3869Z" fill="url(#paint50_linear_21443_89056)"/>
<path d="M19.0137 11.1574C18.9651 11.0832 18.8718 11.0553 18.7911 11.0886C18.7102 11.1225 18.6648 11.2102 18.6841 11.2961L18.7064 11.3937C18.7215 11.4573 18.7366 11.5212 18.7508 11.5869C18.7631 11.65 18.8085 11.7008 18.8691 11.7212L19.0115 11.7715C19.0313 11.7789 19.0521 11.7822 19.0719 11.7822C19.1244 11.7822 19.176 11.7591 19.2106 11.7167C19.2597 11.6583 19.2668 11.5758 19.229 11.51C19.1603 11.3909 19.0889 11.273 19.0137 11.1574Z" fill="url(#paint51_linear_21443_89056)"/>
<path d="M19.7563 18.7352C19.8882 18.4003 19.9989 18.0602 20.084 17.7269C20.1011 17.6607 20.0793 17.5907 20.0283 17.5453C19.9772 17.5008 19.9035 17.4876 19.8414 17.5141C19.649 17.5907 19.4352 17.6734 19.1968 17.7599C19.132 17.7836 19.0857 17.8413 19.0781 17.9103C19.0436 18.2177 19.0019 18.5189 18.9552 18.8136C18.9457 18.8769 18.9698 18.9412 19.0195 18.9819C19.0525 19.009 19.0933 19.0231 19.1344 19.0231C19.1556 19.0231 19.1765 19.0198 19.1968 19.0123C19.3638 18.9513 19.5132 18.8931 19.6547 18.8373C19.7004 18.8184 19.7374 18.7815 19.7563 18.7352Z" fill="url(#paint52_linear_21443_89056)"/>
<path d="M5.20759 15.1836H4.392C4.30477 15.1836 4.22979 15.2451 4.21417 15.3311C4.19783 15.4168 4.24468 15.5018 4.32624 15.5336C4.56343 15.6263 4.83696 15.7284 5.14256 15.8348C5.16192 15.8414 5.18183 15.8447 5.20165 15.8447C5.23855 15.8447 5.2749 15.8333 5.30595 15.8125C5.35372 15.7784 5.3823 15.7235 5.38331 15.6659C5.38422 15.5676 5.38687 15.4701 5.38915 15.3699C5.39061 15.3202 5.37207 15.2734 5.33828 15.2385C5.3033 15.2034 5.25654 15.1836 5.20759 15.1836Z" fill="url(#paint53_linear_21443_89056)"/>
<path d="M19.9489 14.674C19.965 14.5893 19.9187 14.5042 19.8387 14.4715C19.7068 14.4177 19.5596 14.3599 19.4013 14.3004C19.3435 14.2786 19.2788 14.287 19.2291 14.3245C19.1794 14.3614 19.1525 14.4206 19.1567 14.4824L19.1675 14.6513C19.1742 14.7468 19.2528 14.8215 19.3483 14.8215H19.7711C19.8576 14.8206 19.9324 14.7591 19.9489 14.674Z" fill="url(#paint54_linear_21443_89056)"/>
<path d="M18.8476 20.1656C18.8699 20.1754 18.8926 20.1789 18.9158 20.1789C18.9763 20.1789 19.035 20.1486 19.069 20.0947C19.1499 19.9661 19.2269 19.8355 19.3007 19.7031C19.3371 19.6365 19.3291 19.5546 19.2804 19.4969C19.2312 19.4392 19.1527 19.4193 19.0808 19.444L18.928 19.4989C18.867 19.5197 18.8216 19.5717 18.8097 19.635C18.797 19.6983 18.7828 19.7589 18.7696 19.8199L18.7384 19.9598C18.72 20.0464 18.7663 20.1325 18.8476 20.1656Z" fill="url(#paint55_linear_21443_89056)"/>
<path d="M20.261 16.8485C20.3025 16.5549 20.329 16.2503 20.3385 15.9439C20.3404 15.8823 20.3111 15.8238 20.2601 15.7888C20.2099 15.7548 20.1442 15.7472 20.0879 15.7717C19.869 15.8625 19.6136 15.9646 19.3175 16.0743C19.247 16.1003 19.2007 16.1657 19.1987 16.2403C19.1912 16.534 19.1779 16.8244 19.1567 17.1105C19.1524 17.1719 19.1798 17.232 19.229 17.2693C19.2607 17.2925 19.2991 17.3048 19.3378 17.3048C19.3594 17.3048 19.3813 17.3011 19.4021 17.293C19.7 17.1809 19.9512 17.0769 20.1536 16.9899C20.2113 16.965 20.2519 16.9116 20.261 16.8485Z" fill="url(#paint56_linear_21443_89056)"/>
<path d="M4.34754 18.8274C4.71076 18.9689 5.0633 19.096 5.42644 19.218C5.44543 19.2237 5.46479 19.2275 5.4837 19.2275C5.52626 19.2275 5.56836 19.2124 5.60188 19.1839C5.65011 19.1424 5.67303 19.0781 5.66289 19.0156C5.61257 18.7205 5.56873 18.4173 5.53074 18.1076C5.52197 18.0381 5.47448 17.9795 5.40753 17.9576C4.98695 17.8191 4.56792 17.6667 4.16213 17.5051C4.09921 17.4804 4.02705 17.4932 3.97509 17.5372C3.92476 17.5826 3.90293 17.6522 3.91956 17.718C4.00331 18.05 4.11227 18.3895 4.24488 18.7248C4.26333 18.7716 4.30114 18.8088 4.34754 18.8274Z" fill="url(#paint57_linear_21443_89056)"/>
<path d="M6.62829 21.2253C7.07042 21.3473 7.51977 21.4566 7.96237 21.5502C7.97515 21.5525 7.98812 21.554 8.00027 21.554C8.04968 21.554 8.09763 21.5336 8.13197 21.4973C8.17544 21.4509 8.19152 21.3856 8.17453 21.3246C8.09178 21.0262 8.01086 20.7112 7.93451 20.3844C7.91844 20.3158 7.86473 20.2634 7.79587 20.2487C7.35611 20.1546 6.91598 20.0463 6.48727 19.928C6.42581 19.9091 6.35932 19.9261 6.31392 19.9711C6.26734 20.0151 6.24798 20.0798 6.2626 20.1423C6.33749 20.4762 6.41841 20.7954 6.50188 21.1C6.51887 21.1596 6.56682 21.2083 6.62829 21.2253Z" fill="url(#paint58_linear_21443_89056)"/>
<path d="M8.03538 18.279C8.47258 18.3702 8.91052 18.4468 9.33612 18.5078C9.34489 18.5088 9.35357 18.5102 9.36233 18.5102C9.40964 18.5102 9.45531 18.4913 9.48956 18.4577C9.5302 18.4175 9.54966 18.3612 9.5418 18.305C9.50207 18.007 9.46828 17.7016 9.44152 17.3908C9.4344 17.3061 9.36982 17.239 9.28662 17.2271C8.8707 17.1685 8.44199 17.0942 8.01392 17.0073C7.95766 16.9954 7.90021 17.0115 7.85811 17.0494C7.81481 17.0866 7.79262 17.1425 7.79755 17.1992C7.82212 17.5132 7.85409 17.8216 7.89235 18.1243C7.90222 18.2013 7.95994 18.2633 8.03538 18.279Z" fill="url(#paint59_linear_21443_89056)"/>
<path d="M5.4454 14.2767C5.45033 14.2161 5.42366 14.1566 5.37516 14.1196C5.32648 14.0823 5.26237 14.0705 5.20538 14.0912C4.85119 14.2132 4.50779 14.3414 4.18429 14.4705C4.10392 14.5027 4.05752 14.5877 4.07341 14.6734C4.08995 14.759 4.16493 14.8205 4.25169 14.8205H5.23871C5.33443 14.8205 5.41343 14.7458 5.41937 14.6492C5.42768 14.5245 5.43572 14.4006 5.4454 14.2767Z" fill="url(#paint60_linear_21443_89056)"/>
<path d="M8.33103 19.9822C8.7612 20.0654 9.19931 20.1355 9.63424 20.1922C9.642 20.1936 9.64985 20.1936 9.65762 20.1936C9.70849 20.1936 9.75625 20.1728 9.79123 20.1355C9.83096 20.0924 9.84731 20.0318 9.83516 19.9746C9.77132 19.6758 9.71168 19.3675 9.65762 19.0495C9.64437 18.9711 9.58154 18.9105 9.50254 18.9001C9.0783 18.8449 8.64767 18.7753 8.22353 18.6929C8.16608 18.6826 8.10553 18.6996 8.06297 18.7411C8.02013 18.7823 8.00022 18.8423 8.01045 18.9C8.06443 19.2235 8.12398 19.5375 8.18873 19.842C8.20316 19.9132 8.25942 19.9681 8.33103 19.9822Z" fill="url(#paint61_linear_21443_89056)"/>
<path d="M5.96914 17.7469C6.4026 17.8788 6.84382 17.9999 7.28011 18.1072C7.29399 18.1101 7.3087 18.112 7.32313 18.112C7.36669 18.112 7.40944 18.0968 7.44286 18.0666C7.48725 18.0278 7.51027 17.9692 7.50342 17.9105C7.47008 17.6154 7.44195 17.3137 7.42158 17.0087C7.4161 16.9292 7.36012 16.8625 7.28303 16.844C6.85597 16.7424 6.42726 16.6269 6.00658 16.5007C5.95032 16.4833 5.88877 16.4946 5.84274 16.5309C5.79643 16.5673 5.77058 16.6236 5.77369 16.6827C5.78858 16.9897 5.81177 17.2928 5.84182 17.5908C5.84904 17.6636 5.8989 17.7252 5.96914 17.7469Z" fill="url(#paint62_linear_21443_89056)"/>
<path d="M6.15042 11.8964C6.06366 12.328 5.99059 12.7673 5.9315 13.2034C5.92273 13.2639 5.9462 13.3254 5.99251 13.3651C6.02566 13.394 6.06822 13.4087 6.11069 13.4087C6.12777 13.4087 6.14458 13.4068 6.16156 13.4012C6.59174 13.2753 7.02793 13.1618 7.45856 13.0625C7.53117 13.0465 7.58624 12.9859 7.59739 12.9122C7.6584 12.4893 7.73502 12.056 7.82416 11.6259C7.83668 11.5653 7.81777 11.5024 7.77375 11.4594C7.73 11.4168 7.66662 11.3984 7.60661 11.4123C7.16658 11.5121 6.71942 11.6289 6.27719 11.7581C6.2128 11.7768 6.16339 11.8307 6.15042 11.8964Z" fill="url(#paint63_linear_21443_89056)"/>
<path d="M10.064 21.886C10.0709 21.887 10.0768 21.887 10.0835 21.887C10.1369 21.887 10.1882 21.8633 10.2225 21.8217C10.2613 21.7753 10.2738 21.7124 10.2567 21.6542C10.1707 21.3601 10.0858 21.0489 10.0044 20.7221C9.98622 20.6488 9.92402 20.594 9.84904 20.5859C9.42809 20.5382 8.99828 20.4758 8.57231 20.4011C8.50948 20.3907 8.44984 20.4114 8.40773 20.456C8.36609 20.5008 8.35001 20.5643 8.36472 20.6238C8.44847 20.9582 8.53615 21.2779 8.62483 21.5787C8.64419 21.6449 8.69981 21.6936 8.76813 21.7055C9.19766 21.7801 9.63368 21.8406 10.064 21.886Z" fill="url(#paint64_linear_21443_89056)"/>
<path d="M6.69126 9.73405C6.55673 10.1762 6.43353 10.629 6.32521 11.0784C6.3105 11.1408 6.32941 11.2068 6.37553 11.2507C6.40987 11.2836 6.45545 11.3016 6.50184 11.3016C6.51792 11.3016 6.53381 11.2993 6.54979 11.295C6.988 11.1749 7.42776 11.0682 7.85839 10.9782C7.92652 10.9637 7.97995 10.9115 7.99676 10.8441C8.1048 10.4043 8.22728 9.96284 8.36117 9.53175C8.37989 9.47029 8.36537 9.40334 8.32235 9.35631C8.27961 9.30854 8.21239 9.28699 8.15184 9.30023C7.70678 9.39037 7.25825 9.49486 6.81867 9.61167C6.75821 9.62783 6.70971 9.67396 6.69126 9.73405Z" fill="url(#paint65_linear_21443_89056)"/>
<path d="M5.75548 15.4039C5.75292 15.4933 5.751 15.5817 5.75 15.6717L5.75146 15.9034C5.75146 15.9824 5.80398 16.0519 5.87896 16.0755C6.30219 16.207 6.73474 16.3282 7.16317 16.4358C7.17788 16.4387 7.19222 16.4411 7.20738 16.4411C7.24802 16.4411 7.28775 16.4274 7.32017 16.401C7.36465 16.3654 7.3894 16.312 7.38849 16.2553C7.38356 16.0614 7.38072 15.8665 7.38209 15.6698C7.38255 15.5828 7.38493 15.4981 7.38684 15.4126L7.38803 15.369C7.3894 15.3199 7.37095 15.273 7.33652 15.238C7.30264 15.2034 7.25569 15.1836 7.20692 15.1836H5.93759C5.83923 15.1836 5.75877 15.262 5.75648 15.3605L5.75548 15.4039Z" fill="url(#paint66_linear_21443_89056)"/>
<path d="M6.21968 19.4659C6.66017 19.5964 7.10688 19.7132 7.54746 19.8153C7.5607 19.8186 7.57459 19.8201 7.5881 19.8201C7.63468 19.8201 7.67962 19.8016 7.71414 19.7695C7.75862 19.7259 7.77798 19.6645 7.76592 19.604C7.70729 19.3052 7.65313 18.9976 7.60463 18.6817C7.59395 18.6079 7.5386 18.5488 7.46608 18.5323C7.03354 18.4329 6.59734 18.319 6.16982 18.1937C6.10972 18.1758 6.04615 18.1899 5.99976 18.2306C5.95272 18.2712 5.93098 18.3317 5.9392 18.3932C5.98414 18.712 6.03492 19.0236 6.09264 19.3263C6.10479 19.3926 6.1542 19.4469 6.21968 19.4659Z" fill="url(#paint67_linear_21443_89056)"/>
<path d="M8.5399 8.08758C8.13393 8.27298 7.74614 8.48953 7.38519 8.7301C7.31268 8.77859 7.28491 8.87248 7.31944 8.9524C7.34857 9.02026 7.41433 9.06236 7.48593 9.06236C7.49845 9.06236 7.51306 9.0609 7.52612 9.05761C7.83756 8.98692 8.15722 8.91906 8.4904 8.85896C8.55469 8.84782 8.60748 8.80216 8.62922 8.74078C8.68219 8.59127 8.73398 8.45035 8.78439 8.31655C8.80997 8.2475 8.79216 8.16996 8.73781 8.12009C8.68502 8.06959 8.60611 8.05634 8.5399 8.08758Z" fill="url(#paint68_linear_21443_89056)"/>
<path d="M5.87078 10.0249C5.45431 10.477 5.08524 10.9811 4.7738 11.5217C4.73672 11.587 4.74329 11.6695 4.79124 11.7275C4.82677 11.7698 4.87856 11.7934 4.9308 11.7934C4.95117 11.7934 4.97144 11.79 4.99089 11.7833C5.22808 11.7005 5.48345 11.6147 5.75707 11.5296C5.81955 11.5101 5.86649 11.4589 5.88001 11.3959C5.96632 11.0024 6.06395 10.6109 6.17884 10.1973C6.20158 10.1164 6.1656 10.0311 6.09208 9.9899C6.02002 9.94825 5.9275 9.96287 5.87078 10.0249Z" fill="url(#paint69_linear_21443_89056)"/>
<path d="M11.8221 17.599C11.8221 17.5002 11.7427 17.4193 11.6441 17.4174C11.1099 17.4076 10.5635 17.3735 10.0208 17.3167C9.96737 17.3118 9.9123 17.3299 9.87394 17.3677C9.83467 17.4066 9.81576 17.4595 9.82124 17.5143C9.85175 17.8312 9.89001 18.1423 9.93312 18.4469C9.94463 18.5287 10.0111 18.5926 10.0939 18.6011C10.6151 18.655 11.1346 18.6886 11.6373 18.6984C11.6382 18.6984 11.6397 18.6984 11.6406 18.6984C11.6885 18.6984 11.7335 18.68 11.7676 18.6465C11.8029 18.6124 11.8222 18.566 11.8222 18.5169L11.8221 17.599Z" fill="url(#paint70_linear_21443_89056)"/>
<path d="M4.29392 12.4966C4.10642 12.9501 3.95974 13.4235 3.85553 13.9054C3.84165 13.9712 3.86475 14.0388 3.91608 14.0823C3.94915 14.1103 3.99079 14.125 4.0329 14.125C4.05564 14.125 4.07856 14.1207 4.10076 14.1121C4.51622 13.9453 4.95434 13.7853 5.40387 13.6378C5.47009 13.6156 5.51813 13.557 5.52635 13.487C5.57667 13.0633 5.64106 12.6328 5.71714 12.2097C5.72874 12.1468 5.706 12.0825 5.65759 12.0402C5.60909 11.9981 5.54288 11.9865 5.48187 12.0054C5.11463 12.1269 4.75971 12.2546 4.39603 12.3965C4.34954 12.4144 4.31283 12.4502 4.29392 12.4966Z" fill="url(#paint71_linear_21443_89056)"/>
<path d="M11.8244 19.2424C11.8244 19.1441 11.745 19.0636 11.6464 19.0617C11.1789 19.0527 10.7103 19.0267 10.253 18.9842C10.1978 18.9813 10.1406 19.0002 10.1026 19.0419C10.0643 19.0839 10.0477 19.1412 10.0574 19.197C10.1161 19.5195 10.1799 19.8331 10.2487 20.1348C10.2662 20.2109 10.331 20.2676 10.4095 20.2752C10.8222 20.3121 11.2357 20.3343 11.6396 20.3424C11.6405 20.3424 11.6419 20.3424 11.6429 20.3424C11.6908 20.3424 11.7358 20.3239 11.7699 20.2904C11.8052 20.2563 11.8245 20.21 11.8245 20.1608L11.8244 19.2424Z" fill="url(#paint72_linear_21443_89056)"/>
<path d="M11.8203 20.8861C11.8203 20.7872 11.7408 20.7068 11.6423 20.705C11.2935 20.6984 10.9487 20.6828 10.6165 20.6581C10.5588 20.6544 10.5018 20.678 10.4636 20.7234C10.4262 20.7683 10.4132 20.8283 10.4276 20.8852C10.5153 21.2172 10.6054 21.5307 10.6965 21.8253C10.7182 21.8972 10.783 21.9488 10.8582 21.953C11.1143 21.9691 11.374 21.9814 11.6354 21.9852C11.6363 21.9852 11.6378 21.9852 11.6387 21.9852C11.6867 21.9852 11.7317 21.9672 11.7662 21.9337C11.801 21.9001 11.8204 21.8533 11.8204 21.8046L11.8203 20.8861Z" fill="url(#paint73_linear_21443_89056)"/>
<path d="M11.8229 7.74062H12.2157C12.1983 7.76537 12.1857 7.79332 12.1857 7.82556V8.4119C12.1857 8.49273 12.2507 8.55803 12.3316 8.55995C12.3981 8.56096 12.4638 8.56351 12.5291 8.56543L12.5707 8.56689C12.573 8.56689 12.5745 8.56689 12.5759 8.56689C12.6241 8.56689 12.6682 8.5437 12.6965 8.50497C12.7253 8.46433 12.7315 8.41254 12.7144 8.36642C12.6217 8.1264 12.539 7.92639 12.4695 7.76701C12.4647 7.75587 12.4533 7.75094 12.4458 7.74126H12.6402C12.7262 7.94776 12.8193 8.17919 12.9205 8.45282C12.9452 8.52041 13.008 8.56653 13.0799 8.571C13.3792 8.58872 13.6739 8.61265 13.9619 8.64142C13.9685 8.64188 13.9742 8.64261 13.9804 8.64261C14.0361 8.64261 14.0896 8.61685 14.1241 8.57192C14.1624 8.52251 14.1728 8.45647 14.15 8.39738C14.0536 8.14175 13.9661 7.92821 13.8876 7.74171H13.8961C13.8961 7.74171 13.5651 6.0666 12.4277 5.87252V0.24212C12.4277 0.108502 12.3192 0 12.1856 0C12.052 0 11.9435 0.108502 11.9435 0.24212V5.877C11.0554 6.04185 10.6365 7.0085 10.4824 7.48069C10.144 7.5427 9.80842 7.61805 9.48538 7.72071C9.43433 7.73633 9.39314 7.77468 9.37286 7.8241C9.29413 8.01416 9.20691 8.23317 9.11302 8.48451C9.09056 8.54461 9.10161 8.61201 9.14189 8.6616C9.17641 8.7049 9.22865 8.72946 9.28281 8.72946C9.29158 8.72946 9.29989 8.72855 9.30857 8.72755C9.72358 8.66891 10.1454 8.62352 10.5627 8.5921C10.6334 8.58617 10.694 8.54059 10.7193 8.47383C10.8224 8.19198 10.9184 7.95269 11.0063 7.74108H11.4032C11.3338 7.90447 11.2596 8.08539 11.1764 8.3024C11.1546 8.35848 11.163 8.4225 11.1981 8.47237C11.2322 8.52013 11.2873 8.54826 11.3459 8.54826C11.3478 8.54826 11.3496 8.54826 11.3523 8.54826L11.4026 8.54634C11.483 8.54406 11.5639 8.54114 11.6452 8.53949C11.7438 8.53758 11.8233 8.4573 11.8233 8.35838V7.74053L11.8229 7.74062Z" fill="url(#paint74_linear_21443_89056)"/>
<rect x="4" width="15.4" height="0.4" fill="url(#paint75_linear_21443_89056)"/>
</g>
<defs>
<linearGradient id="paint0_linear_21443_89056" x1="16.8447" y1="19.7687" x2="18.7632" y2="20.6956" gradientUnits="userSpaceOnUse">
<stop offset="0.0001" stop-color="#7332D6"/>
<stop offset="0.50005" stop-color="#32155A"/>
<stop offset="1" stop-color="#5D28AC"/>
</linearGradient>
<linearGradient id="paint1_linear_21443_89056" x1="17.4823" y1="16.3372" x2="19.2352" y2="17.0965" gradientUnits="userSpaceOnUse">
<stop offset="0.0001" stop-color="#7332D6"/>
<stop offset="0.50005" stop-color="#32155A"/>
<stop offset="1" stop-color="#5D28AC"/>
</linearGradient>
<linearGradient id="paint2_linear_21443_89056" x1="17.2417" y1="18.0284" x2="19.0863" y2="18.8729" gradientUnits="userSpaceOnUse">
<stop offset="0.0001" stop-color="#7332D6"/>
<stop offset="0.50005" stop-color="#32155A"/>
<stop offset="1" stop-color="#5D28AC"/>
</linearGradient>
<linearGradient id="paint3_linear_21443_89056" x1="15.9266" y1="15.2" x2="17.5747" y2="15.9339" gradientUnits="userSpaceOnUse">
<stop offset="0.0001" stop-color="#7332D6"/>
<stop offset="0.50005" stop-color="#32155A"/>
<stop offset="1" stop-color="#5D28AC"/>
</linearGradient>
<linearGradient id="paint4_linear_21443_89056" x1="15.5153" y1="18.505" x2="17.3347" y2="19.3856" gradientUnits="userSpaceOnUse">
<stop offset="0.0001" stop-color="#7332D6"/>
<stop offset="0.50005" stop-color="#32155A"/>
<stop offset="1" stop-color="#5D28AC"/>
</linearGradient>
<linearGradient id="paint5_linear_21443_89056" x1="14.1156" y1="17.1574" x2="15.8396" y2="17.9905" gradientUnits="userSpaceOnUse">
<stop offset="0.0001" stop-color="#7332D6"/>
<stop offset="0.50005" stop-color="#32155A"/>
<stop offset="1" stop-color="#5D28AC"/>
</linearGradient>
<linearGradient id="paint6_linear_21443_89056" x1="15.0946" y1="20.2266" x2="16.9703" y2="21.1839" gradientUnits="userSpaceOnUse">
<stop offset="0.0001" stop-color="#7332D6"/>
<stop offset="0.50005" stop-color="#32155A"/>
<stop offset="1" stop-color="#5D28AC"/>
</linearGradient>
<linearGradient id="paint7_linear_21443_89056" x1="17.5749" y1="15.1949" x2="18.9879" y2="16.0796" gradientUnits="userSpaceOnUse">
<stop offset="0.0001" stop-color="#7332D6"/>
<stop offset="0.50005" stop-color="#32155A"/>
<stop offset="1" stop-color="#5D28AC"/>
</linearGradient>
<linearGradient id="paint8_linear_21443_89056" x1="15.7952" y1="16.8154" x2="17.5427" y2="17.6174" gradientUnits="userSpaceOnUse">
<stop offset="0.0001" stop-color="#7332D6"/>
<stop offset="0.50005" stop-color="#32155A"/>
<stop offset="1" stop-color="#5D28AC"/>
</linearGradient>
<linearGradient id="paint9_linear_21443_89056" x1="10.5208" y1="8.92511" x2="12.276" y2="9.60894" gradientUnits="userSpaceOnUse">
<stop offset="0.0001" stop-color="#7332D6"/>
<stop offset="0.50005" stop-color="#32155A"/>
<stop offset="1" stop-color="#5D28AC"/>
</linearGradient>
<linearGradient id="paint10_linear_21443_89056" x1="9.76714" y1="15.2063" x2="12.2155" y2="16.5502" gradientUnits="userSpaceOnUse">
<stop offset="0.0001" stop-color="#7332D6"/>
<stop offset="0.50005" stop-color="#32155A"/>
<stop offset="1" stop-color="#5D28AC"/>
</linearGradient>
<linearGradient id="paint11_linear_21443_89056" x1="9.8056" y1="12.9165" x2="12.2604" y2="14.2009" gradientUnits="userSpaceOnUse">
<stop offset="0.0001" stop-color="#7332D6"/>
<stop offset="0.50005" stop-color="#32155A"/>
<stop offset="1" stop-color="#5D28AC"/>
</linearGradient>
<linearGradient id="paint12_linear_21443_89056" x1="8.4694" y1="9.00437" x2="10.8679" y2="10.3029" gradientUnits="userSpaceOnUse">
<stop offset="0.0001" stop-color="#7332D6"/>
<stop offset="0.50005" stop-color="#32155A"/>
<stop offset="1" stop-color="#5D28AC"/>
</linearGradient>
<linearGradient id="paint13_linear_21443_89056" x1="8.02993" y1="11.0622" x2="10.3523" y2="12.2305" gradientUnits="userSpaceOnUse">
<stop offset="0.0001" stop-color="#7332D6"/>
<stop offset="0.50005" stop-color="#32155A"/>
<stop offset="1" stop-color="#5D28AC"/>
</linearGradient>
<linearGradient id="paint14_linear_21443_89056" x1="13.8199" y1="18.8365" x2="15.5994" y2="19.7451" gradientUnits="userSpaceOnUse">
<stop offset="0.0001" stop-color="#7332D6"/>
<stop offset="0.50005" stop-color="#32155A"/>
<stop offset="1" stop-color="#5D28AC"/>
</linearGradient>
<linearGradient id="paint15_linear_21443_89056" x1="10.0671" y1="10.9197" x2="12.2214" y2="12.0255" gradientUnits="userSpaceOnUse">
<stop offset="0.0001" stop-color="#7332D6"/>
<stop offset="0.50005" stop-color="#32155A"/>
<stop offset="1" stop-color="#5D28AC"/>
</linearGradient>
<linearGradient id="paint16_linear_21443_89056" x1="14.399" y1="7.75471" x2="16.0338" y2="8.822" gradientUnits="userSpaceOnUse">
<stop offset="0.0001" stop-color="#7332D6"/>
<stop offset="0.50005" stop-color="#32155A"/>
<stop offset="1" stop-color="#5D28AC"/>
</linearGradient>
<linearGradient id="paint17_linear_21443_89056" x1="17.4819" y1="13.7399" x2="18.9804" y2="14.6412" gradientUnits="userSpaceOnUse">
<stop offset="0.0001" stop-color="#7332D6"/>
<stop offset="0.50005" stop-color="#32155A"/>
<stop offset="1" stop-color="#5D28AC"/>
</linearGradient>
<linearGradient id="paint18_linear_21443_89056" x1="16.6591" y1="9.53745" x2="18.8302" y2="10.4516" gradientUnits="userSpaceOnUse">
<stop offset="0.0001" stop-color="#7332D6"/>
<stop offset="0.50005" stop-color="#32155A"/>
<stop offset="1" stop-color="#5D28AC"/>
</linearGradient>
<linearGradient id="paint19_linear_21443_89056" x1="17.1802" y1="11.6695" x2="19.2036" y2="12.4528" gradientUnits="userSpaceOnUse">
<stop offset="0.0001" stop-color="#7332D6"/>
<stop offset="0.50005" stop-color="#32155A"/>
<stop offset="1" stop-color="#5D28AC"/>
</linearGradient>
<linearGradient id="paint20_linear_21443_89056" x1="12.2025" y1="8.92584" x2="13.5538" y2="9.31106" gradientUnits="userSpaceOnUse">
<stop offset="0.0001" stop-color="#7332D6"/>
<stop offset="0.50005" stop-color="#32155A"/>
<stop offset="1" stop-color="#5D28AC"/>
</linearGradient>
<linearGradient id="paint21_linear_21443_89056" x1="7.76816" y1="15.2038" x2="9.80391" y2="16.2024" gradientUnits="userSpaceOnUse">
<stop offset="0.0001" stop-color="#7332D6"/>
<stop offset="0.50005" stop-color="#32155A"/>
<stop offset="1" stop-color="#5D28AC"/>
</linearGradient>
<linearGradient id="paint22_linear_21443_89056" x1="12.2097" y1="10.9213" x2="14.054" y2="11.6861" gradientUnits="userSpaceOnUse">
<stop offset="0.0001" stop-color="#7332D6"/>
<stop offset="0.50005" stop-color="#32155A"/>
<stop offset="1" stop-color="#5D28AC"/>
</linearGradient>
<linearGradient id="paint23_linear_21443_89056" x1="12.2037" y1="20.6951" x2="13.5702" y2="21.2262" gradientUnits="userSpaceOnUse">
<stop offset="0.0001" stop-color="#7332D6"/>
<stop offset="0.50005" stop-color="#32155A"/>
<stop offset="1" stop-color="#5D28AC"/>
</linearGradient>
<linearGradient id="paint24_linear_21443_89056" x1="12.1957" y1="22.3546" x2="12.9216" y2="22.585" gradientUnits="userSpaceOnUse">
<stop offset="0.0001" stop-color="#7332D6"/>
<stop offset="0.50005" stop-color="#32155A"/>
<stop offset="1" stop-color="#5D28AC"/>
</linearGradient>
<linearGradient id="paint25_linear_21443_89056" x1="12.2095" y1="19.0274" x2="13.8962" y2="19.9033" gradientUnits="userSpaceOnUse">
<stop offset="0.0001" stop-color="#7332D6"/>
<stop offset="0.50005" stop-color="#32155A"/>
<stop offset="1" stop-color="#5D28AC"/>
</linearGradient>
<linearGradient id="paint26_linear_21443_89056" x1="12.2132" y1="17.3645" x2="14.0547" y2="18.4644" gradientUnits="userSpaceOnUse">
<stop offset="0.0001" stop-color="#7332D6"/>
<stop offset="0.50005" stop-color="#32155A"/>
<stop offset="1" stop-color="#5D28AC"/>
</linearGradient>
<linearGradient id="paint27_linear_21443_89056" x1="13.7586" y1="11.0201" x2="15.7507" y2="11.8719" gradientUnits="userSpaceOnUse">
<stop offset="0.0001" stop-color="#7332D6"/>
<stop offset="0.50005" stop-color="#32155A"/>
<stop offset="1" stop-color="#5D28AC"/>
</linearGradient>
<linearGradient id="paint28_linear_21443_89056" x1="15.7951" y1="13.3284" x2="17.5485" y2="14.1181" gradientUnits="userSpaceOnUse">
<stop offset="0.0001" stop-color="#7332D6"/>
<stop offset="0.50005" stop-color="#32155A"/>
<stop offset="1" stop-color="#5D28AC"/>
</linearGradient>
<linearGradient id="paint29_linear_21443_89056" x1="13.1902" y1="8.97357" x2="15.2776" y2="9.94206" gradientUnits="userSpaceOnUse">
<stop offset="0.0001" stop-color="#7332D6"/>
<stop offset="0.50005" stop-color="#32155A"/>
<stop offset="1" stop-color="#5D28AC"/>
</linearGradient>
<linearGradient id="paint30_linear_21443_89056" x1="12.214" y1="12.9184" x2="14.3845" y2="13.8539" gradientUnits="userSpaceOnUse">
<stop offset="0.0001" stop-color="#7332D6"/>
<stop offset="0.50005" stop-color="#32155A"/>
<stop offset="1" stop-color="#5D28AC"/>
</linearGradient>
<linearGradient id="paint31_linear_21443_89056" x1="12.2146" y1="15.2053" x2="14.3979" y2="16.1962" gradientUnits="userSpaceOnUse">
<stop offset="0.0001" stop-color="#7332D6"/>
<stop offset="0.50005" stop-color="#32155A"/>
<stop offset="1" stop-color="#5D28AC"/>
</linearGradient>
<linearGradient id="paint32_linear_21443_89056" x1="13.3913" y1="20.5341" x2="15.2083" y2="21.512" gradientUnits="userSpaceOnUse">
<stop offset="0.0001" stop-color="#7332D6"/>
<stop offset="0.50005" stop-color="#32155A"/>
<stop offset="1" stop-color="#5D28AC"/>
</linearGradient>
<linearGradient id="paint33_linear_21443_89056" x1="14.116" y1="13.0554" x2="15.9921" y2="13.7872" gradientUnits="userSpaceOnUse">
<stop offset="0.0001" stop-color="#7332D6"/>
<stop offset="0.50005" stop-color="#32155A"/>
<stop offset="1" stop-color="#5D28AC"/>
</linearGradient>
<linearGradient id="paint34_linear_21443_89056" x1="14.9013" y1="9.17741" x2="17.0403" y2="10.1247" gradientUnits="userSpaceOnUse">
<stop offset="0.0001" stop-color="#7332D6"/>
<stop offset="0.50005" stop-color="#32155A"/>
<stop offset="1" stop-color="#5D28AC"/>
</linearGradient>
<linearGradient id="paint35_linear_21443_89056" x1="15.4539" y1="11.2706" x2="17.4699" y2="12.0927" gradientUnits="userSpaceOnUse">
<stop offset="0.0001" stop-color="#7332D6"/>
<stop offset="0.50005" stop-color="#32155A"/>
<stop offset="1" stop-color="#5D28AC"/>
</linearGradient>
<linearGradient id="paint36_linear_21443_89056" x1="14.2627" y1="15.2034" x2="16.0105" y2="15.8596" gradientUnits="userSpaceOnUse">
<stop offset="0.0001" stop-color="#7332D6"/>
<stop offset="0.50005" stop-color="#32155A"/>
<stop offset="1" stop-color="#5D28AC"/>
</linearGradient>
<linearGradient id="paint37_linear_21443_89056" x1="5.81597" y1="13.4963" x2="7.69015" y2="14.6757" gradientUnits="userSpaceOnUse">
<stop offset="0.0001" stop-color="#7332D6"/>
<stop offset="0.50005" stop-color="#32155A"/>
<stop offset="1" stop-color="#5D28AC"/>
</linearGradient>
<linearGradient id="paint38_linear_21443_89056" x1="6.76554" y1="21.7087" x2="8.92945" y2="23.0774" gradientUnits="userSpaceOnUse">
<stop offset="0.0001" stop-color="#7332D6"/>
<stop offset="0.50005" stop-color="#32155A"/>
<stop offset="1" stop-color="#5D28AC"/>
</linearGradient>
<linearGradient id="paint39_linear_21443_89056" x1="14.4794" y1="21.9752" x2="16.5093" y2="23.0104" gradientUnits="userSpaceOnUse">
<stop offset="0.0001" stop-color="#7332D6"/>
<stop offset="0.50005" stop-color="#32155A"/>
<stop offset="1" stop-color="#5D28AC"/>
</linearGradient>
<linearGradient id="paint40_linear_21443_89056" x1="10.9437" y1="22.3528" x2="12.2151" y2="22.687" gradientUnits="userSpaceOnUse">
<stop offset="0.0001" stop-color="#7332D6"/>
<stop offset="0.50005" stop-color="#32155A"/>
<stop offset="1" stop-color="#5D28AC"/>
</linearGradient>
<linearGradient id="paint41_linear_21443_89056" x1="12.6836" y1="22.2434" x2="14.8243" y2="23.2945" gradientUnits="userSpaceOnUse">
<stop offset="0.0001" stop-color="#7332D6"/>
<stop offset="0.50005" stop-color="#32155A"/>
<stop offset="1" stop-color="#5D28AC"/>
</linearGradient>
<linearGradient id="paint42_linear_21443_89056" x1="8.90024" y1="22.1468" x2="11.3096" y2="23.5391" gradientUnits="userSpaceOnUse">
<stop offset="0.0001" stop-color="#7332D6"/>
<stop offset="0.50005" stop-color="#32155A"/>
<stop offset="1" stop-color="#5D28AC"/>
</linearGradient>
<linearGradient id="paint43_linear_21443_89056" x1="4.69325" y1="19.4419" x2="6.45004" y2="20.1929" gradientUnits="userSpaceOnUse">
<stop offset="0.0001" stop-color="#7332D6"/>
<stop offset="0.50005" stop-color="#32155A"/>
<stop offset="1" stop-color="#5D28AC"/>
</linearGradient>
<linearGradient id="paint44_linear_21443_89056" x1="3.69337" y1="14.8285" x2="4.19877" y2="15.0105" gradientUnits="userSpaceOnUse">
<stop offset="0.0001" stop-color="#7332D6"/>
<stop offset="0.50005" stop-color="#32155A"/>
<stop offset="1" stop-color="#5D28AC"/>
</linearGradient>
<linearGradient id="paint45_linear_21443_89056" x1="3.69982" y1="15.7723" x2="5.87653" y2="16.8565" gradientUnits="userSpaceOnUse">
<stop offset="0.0001" stop-color="#7332D6"/>
<stop offset="0.50005" stop-color="#32155A"/>
<stop offset="1" stop-color="#5D28AC"/>
</linearGradient>
<linearGradient id="paint46_linear_21443_89056" x1="7.8089" y1="13.1041" x2="9.96138" y2="14.1784" gradientUnits="userSpaceOnUse">
<stop offset="0.0001" stop-color="#7332D6"/>
<stop offset="0.50005" stop-color="#32155A"/>
<stop offset="1" stop-color="#5D28AC"/>
</linearGradient>
<linearGradient id="paint47_linear_21443_89056" x1="16.4705" y1="21.6355" x2="17.7375" y2="22.3676" gradientUnits="userSpaceOnUse">
<stop offset="0.0001" stop-color="#7332D6"/>
<stop offset="0.50005" stop-color="#32155A"/>
<stop offset="1" stop-color="#5D28AC"/>
</linearGradient>
<linearGradient id="paint48_linear_21443_89056" x1="19.205" y1="15.1892" x2="19.8634" y2="15.6242" gradientUnits="userSpaceOnUse">
<stop offset="0.0001" stop-color="#7332D6"/>
<stop offset="0.50005" stop-color="#32155A"/>
<stop offset="1" stop-color="#5D28AC"/>
</linearGradient>
<linearGradient id="paint49_linear_21443_89056" x1="19.959" y1="14.8425" x2="20.4605" y2="15.0276" gradientUnits="userSpaceOnUse">
<stop offset="0.0001" stop-color="#7332D6"/>
<stop offset="0.50005" stop-color="#32155A"/>
<stop offset="1" stop-color="#5D28AC"/>
</linearGradient>
<linearGradient id="paint50_linear_21443_89056" x1="18.9259" y1="12.224" x2="20.6585" y2="12.7812" gradientUnits="userSpaceOnUse">
<stop offset="0.0001" stop-color="#7332D6"/>
<stop offset="0.50005" stop-color="#32155A"/>
<stop offset="1" stop-color="#5D28AC"/>
</linearGradient>
<linearGradient id="paint51_linear_21443_89056" x1="18.6887" y1="11.0833" x2="19.4443" y2="11.385" gradientUnits="userSpaceOnUse">
<stop offset="0.0001" stop-color="#7332D6"/>
<stop offset="0.50005" stop-color="#32155A"/>
<stop offset="1" stop-color="#5D28AC"/>
</linearGradient>
<linearGradient id="paint52_linear_21443_89056" x1="18.971" y1="17.519" x2="20.5006" y2="18.0816" gradientUnits="userSpaceOnUse">
<stop offset="0.0001" stop-color="#7332D6"/>
<stop offset="0.50005" stop-color="#32155A"/>
<stop offset="1" stop-color="#5D28AC"/>
</linearGradient>
<linearGradient id="paint53_linear_21443_89056" x1="4.22945" y1="15.1916" x2="5.24579" y2="16.0842" gradientUnits="userSpaceOnUse">
<stop offset="0.0001" stop-color="#7332D6"/>
<stop offset="0.50005" stop-color="#32155A"/>
<stop offset="1" stop-color="#5D28AC"/>
</linearGradient>
<linearGradient id="paint54_linear_21443_89056" x1="19.1688" y1="14.295" x2="19.9576" y2="14.8754" gradientUnits="userSpaceOnUse">
<stop offset="0.0001" stop-color="#7332D6"/>
<stop offset="0.50005" stop-color="#32155A"/>
<stop offset="1" stop-color="#5D28AC"/>
</linearGradient>
<linearGradient id="paint55_linear_21443_89056" x1="18.7436" y1="19.4426" x2="19.525" y2="19.7469" gradientUnits="userSpaceOnUse">
<stop offset="0.0001" stop-color="#7332D6"/>
<stop offset="0.50005" stop-color="#32155A"/>
<stop offset="1" stop-color="#5D28AC"/>
</linearGradient>
<linearGradient id="paint56_linear_21443_89056" x1="19.1748" y1="15.7761" x2="20.7571" y2="16.3718" gradientUnits="userSpaceOnUse">
<stop offset="0.0001" stop-color="#7332D6"/>
<stop offset="0.50005" stop-color="#32155A"/>
<stop offset="1" stop-color="#5D28AC"/>
</linearGradient>
<linearGradient id="paint57_linear_21443_89056" x1="3.94158" y1="17.5137" x2="6.08652" y2="18.5806" gradientUnits="userSpaceOnUse">
<stop offset="0.0001" stop-color="#7332D6"/>
<stop offset="0.50005" stop-color="#32155A"/>
<stop offset="1" stop-color="#5D28AC"/>
</linearGradient>
<linearGradient id="paint58_linear_21443_89056" x1="6.28804" y1="19.9403" x2="8.48669" y2="21.2157" gradientUnits="userSpaceOnUse">
<stop offset="0.0001" stop-color="#7332D6"/>
<stop offset="0.50005" stop-color="#32155A"/>
<stop offset="1" stop-color="#5D28AC"/>
</linearGradient>
<linearGradient id="paint59_linear_21443_89056" x1="7.82432" y1="17.0217" x2="9.83651" y2="18.171" gradientUnits="userSpaceOnUse">
<stop offset="0.0001" stop-color="#7332D6"/>
<stop offset="0.50005" stop-color="#32155A"/>
<stop offset="1" stop-color="#5D28AC"/>
</linearGradient>
<linearGradient id="paint60_linear_21443_89056" x1="4.09193" y1="14.09" x2="5.23403" y2="15.137" gradientUnits="userSpaceOnUse">
<stop offset="0.0001" stop-color="#7332D6"/>
<stop offset="0.50005" stop-color="#32155A"/>
<stop offset="1" stop-color="#5D28AC"/>
</linearGradient>
<linearGradient id="paint61_linear_21443_89056" x1="8.03659" y1="18.7082" x2="10.0938" y2="19.9426" gradientUnits="userSpaceOnUse">
<stop offset="0.0001" stop-color="#7332D6"/>
<stop offset="0.50005" stop-color="#32155A"/>
<stop offset="1" stop-color="#5D28AC"/>
</linearGradient>
<linearGradient id="paint62_linear_21443_89056" x1="5.80064" y1="16.5123" x2="7.8711" y2="17.603" gradientUnits="userSpaceOnUse">
<stop offset="0.0001" stop-color="#7332D6"/>
<stop offset="0.50005" stop-color="#32155A"/>
<stop offset="1" stop-color="#5D28AC"/>
</linearGradient>
<linearGradient id="paint63_linear_21443_89056" x1="5.95952" y1="11.432" x2="8.33971" y2="12.5446" gradientUnits="userSpaceOnUse">
<stop offset="0.0001" stop-color="#7332D6"/>
<stop offset="0.50005" stop-color="#32155A"/>
<stop offset="1" stop-color="#5D28AC"/>
</linearGradient>
<linearGradient id="paint64_linear_21443_89056" x1="8.38931" y1="20.4165" x2="10.4717" y2="21.7295" gradientUnits="userSpaceOnUse">
<stop offset="0.0001" stop-color="#7332D6"/>
<stop offset="0.50005" stop-color="#32155A"/>
<stop offset="1" stop-color="#5D28AC"/>
</linearGradient>
<linearGradient id="paint65_linear_21443_89056" x1="6.35251" y1="9.32074" x2="8.84987" y2="10.5781" gradientUnits="userSpaceOnUse">
<stop offset="0.0001" stop-color="#7332D6"/>
<stop offset="0.50005" stop-color="#32155A"/>
<stop offset="1" stop-color="#5D28AC"/>
</linearGradient>
<linearGradient id="paint66_linear_21443_89056" x1="5.77575" y1="15.1989" x2="7.5485" y2="16.337" gradientUnits="userSpaceOnUse">
<stop offset="0.0001" stop-color="#7332D6"/>
<stop offset="0.50005" stop-color="#32155A"/>
<stop offset="1" stop-color="#5D28AC"/>
</linearGradient>
<linearGradient id="paint67_linear_21443_89056" x1="5.96629" y1="18.2059" x2="8.11083" y2="19.3905" gradientUnits="userSpaceOnUse">
<stop offset="0.0001" stop-color="#7332D6"/>
<stop offset="0.50005" stop-color="#32155A"/>
<stop offset="1" stop-color="#5D28AC"/>
</linearGradient>
<linearGradient id="paint68_linear_21443_89056" x1="7.32812" y1="8.08284" x2="8.79887" y2="9.17267" gradientUnits="userSpaceOnUse">
<stop offset="0.0001" stop-color="#7332D6"/>
<stop offset="0.50005" stop-color="#32155A"/>
<stop offset="1" stop-color="#5D28AC"/>
</linearGradient>
<linearGradient id="paint69_linear_21443_89056" x1="4.77256" y1="9.9885" x2="6.68005" y2="10.727" gradientUnits="userSpaceOnUse">
<stop offset="0.0001" stop-color="#7332D6"/>
<stop offset="0.50005" stop-color="#32155A"/>
<stop offset="1" stop-color="#5D28AC"/>
</linearGradient>
<linearGradient id="paint70_linear_21443_89056" x1="9.85177" y1="17.3327" x2="11.8786" y2="18.7788" gradientUnits="userSpaceOnUse">
<stop offset="0.0001" stop-color="#7332D6"/>
<stop offset="0.50005" stop-color="#32155A"/>
<stop offset="1" stop-color="#5D28AC"/>
</linearGradient>
<linearGradient id="paint71_linear_21443_89056" x1="3.88093" y1="12.0224" x2="6.28581" y2="13.0627" gradientUnits="userSpaceOnUse">
<stop offset="0.0001" stop-color="#7332D6"/>
<stop offset="0.50005" stop-color="#32155A"/>
<stop offset="1" stop-color="#5D28AC"/>
</linearGradient>
<linearGradient id="paint72_linear_21443_89056" x1="10.0825" y1="19.0004" x2="11.9974" y2="20.2296" gradientUnits="userSpaceOnUse">
<stop offset="0.0001" stop-color="#7332D6"/>
<stop offset="0.50005" stop-color="#32155A"/>
<stop offset="1" stop-color="#5D28AC"/>
</linearGradient>
<linearGradient id="paint73_linear_21443_89056" x1="10.4439" y1="20.6738" x2="12.127" y2="21.5475" gradientUnits="userSpaceOnUse">
<stop offset="0.0001" stop-color="#7332D6"/>
<stop offset="0.50005" stop-color="#32155A"/>
<stop offset="1" stop-color="#5D28AC"/>
</linearGradient>
<linearGradient id="paint74_linear_21443_89056" x1="9.18108" y1="0.106026" x2="16.3294" y2="2.1478" gradientUnits="userSpaceOnUse">
<stop offset="0.0001" stop-color="#7332D6"/>
<stop offset="0.50005" stop-color="#32155A"/>
<stop offset="1" stop-color="#5D28AC"/>
</linearGradient>
<linearGradient id="paint75_linear_21443_89056" x1="4.242" y1="0.0048583" x2="4.3072" y2="1.24175" gradientUnits="userSpaceOnUse">
<stop offset="0.0001" stop-color="#7332D6"/>
<stop offset="0.50005" stop-color="#32155A"/>
<stop offset="1" stop-color="#5D28AC"/>
</linearGradient>
<clipPath id="clip0_21443_89056">
<rect width="24" height="24" fill="white"/>
</clipPath>
</defs>
</svg>
