<svg width="20" height="20" viewBox="0 0 20 20" fill="none" xmlns="http://www.w3.org/2000/svg">
<path d="M15 15.7164H14.3667C13.7 15.7164 13.0667 15.9747 12.6 16.4414L11.175 17.8497C10.525 18.4914 9.46667 18.4914 8.81667 17.8497L7.39167 16.4414C6.925 15.9747 6.28333 15.7164 5.625 15.7164H5C3.61667 15.7164 2.5 14.6082 2.5 13.2415V4.14978C2.5 2.78311 3.61667 1.6748 5 1.6748H15C16.3833 1.6748 17.5 2.78311 17.5 4.14978V13.2415C17.5 14.5998 16.3833 15.7164 15 15.7164Z" stroke="url(#paint0_linear_21443_89042)" stroke-miterlimit="10" stroke-linecap="round" stroke-linejoin="round"/>
<path opacity="0.4" d="M10.2333 12.4668C10.1083 12.5085 9.9 12.5085 9.76667 12.4668C8.68333 12.0918 6.25 10.5502 6.25 7.92517C6.25 6.76684 7.18333 5.8335 8.33333 5.8335C9.01667 5.8335 9.61667 6.1585 10 6.66683C10.3833 6.1585 10.9833 5.8335 11.6667 5.8335C12.8167 5.8335 13.75 6.76684 13.75 7.92517C13.7417 10.5502 11.3167 12.0918 10.2333 12.4668Z" fill="#7332D6" stroke="#7332D6" stroke-linecap="round" stroke-linejoin="round"/>
<defs>
<linearGradient id="paint0_linear_21443_89042" x1="2.73571" y1="1.87711" x2="21.8833" y2="10.3735" gradientUnits="userSpaceOnUse">
<stop offset="0.0001" stop-color="#7332D6"/>
<stop offset="0.50005" stop-color="#32155A"/>
<stop offset="1" stop-color="#5D28AC"/>
</linearGradient>
</defs>
</svg>
