<svg width="24" height="24" viewBox="0 0 24 24" fill="none" xmlns="http://www.w3.org/2000/svg">
<g clip-path="url(#clip0_21443_89055)">
<path d="M8.15875 6.56696C8.55625 7.53192 9.66072 7.99196 10.6258 7.59446C11.2213 7.34911 11.6236 6.83433 11.7516 6.24942L13.2868 6.68602L13.4976 6.06652L11.9239 5.01511L12.0765 3.73308C12.1051 3.49243 11.9547 3.26668 11.7216 3.20039L9.71772 2.63049C9.48466 2.56421 9.23791 2.67708 9.13563 2.89674L8.60425 4.03814L6.76357 4.15139L6.55272 4.7708L8.12622 5.21836C7.9765 5.64174 7.97425 6.11902 8.15875 6.56696ZM11.9568 12.3248H9.68107L8.50057 8.06161C8.32985 7.30871 7.65757 6.73505 6.86875 6.73505H2.70325C2.41591 6.73505 2.12866 6.88767 1.96741 7.13902L0.315723 10.0263C0.0644732 10.4294 0.225629 10.9356 0.621067 11.1831C0.981348 11.4078 1.51525 11.2704 1.77691 10.8958L3.18691 8.44749H5.37157L2.68244 13.0847C2.36875 13.6258 2.33904 14.2859 2.60294 14.8529L3.94919 17.7456L2.76204 22.2885C2.5961 22.9446 2.98675 23.6026 3.62585 23.7743C4.282 23.9402 4.9391 23.5496 5.11169 22.9105L6.36804 17.939C6.43535 17.6839 6.42682 17.3815 6.29219 17.1255L6.17744 16.8827L7.79032 17.812L6.19919 22.1472C5.96782 22.7759 6.26557 23.4936 6.89041 23.7316C7.52472 23.9734 8.22363 23.6549 8.45782 23.0195L10.4026 17.7048C10.6434 17.0477 10.3751 16.3148 9.76825 15.9677L6.331 14.0059L7.67557 11.6572L8.16625 13.3908C8.27726 13.7705 8.62544 14.0315 9.02097 14.0315H11.9567C12.4315 14.0487 12.7875 13.6893 12.8053 13.2238C12.8216 12.7987 12.4118 12.3664 11.9568 12.3248ZM17.834 5.65158C19.4112 5.0528 20.2656 3.39746 19.9093 1.79977C19.9047 1.88189 19.8678 1.94949 19.8339 2.02486C19.6208 2.49886 19.0508 2.71524 18.5768 2.50205C18.5014 2.46811 18.4308 2.42349 18.371 2.38364C17.8513 1.95568 17.1155 1.80614 16.4598 2.05514C15.4759 2.42864 14.9584 3.53621 15.3408 4.54346C15.7233 5.55061 16.8269 6.03389 17.834 5.65158ZM23.8094 19.1539C23.8094 19.1539 23.4301 13.0833 21.0122 10.9024C20.9962 10.8881 20.9806 10.8748 20.9647 10.8609V6.51446L22.9723 5.63818C23.4844 5.41449 23.7589 4.83943 23.6107 4.30046L22.6426 0.779957C22.5246 0.350769 22.081 0.0985816 21.6517 0.216519C21.2225 0.33455 20.9703 0.778175 21.0884 1.20736L21.9463 4.32708L20.1658 5.10427L16.5869 6.69352C15.8883 7.00383 15.4095 7.66927 15.3377 8.43024L15.1598 10.311L13.0686 9.11264C12.6824 8.8913 12.1899 9.02489 11.9686 9.41114C11.7472 9.79739 11.8809 10.2899 12.2671 10.5112L15.0808 12.1237C15.2469 12.219 15.431 12.2668 15.6154 12.2668C15.7847 12.2668 15.9541 12.2265 16.11 12.1458C16.436 11.977 16.6514 11.658 16.6862 11.2921L16.8546 9.51024L17.6934 11.4715C17.6934 11.4715 17.8747 12.7575 15.5599 14.4109C12.9049 16.3073 13.8058 20.2424 13.8058 20.2424C13.8058 20.2424 14.597 19.9666 15.7496 19.809V22.755C15.7503 23.3263 16.2342 23.7906 16.7927 23.7981C17.3639 23.7974 17.8275 23.3138 17.8357 22.755V19.718C18.2242 19.7401 18.6225 19.7867 19.0222 19.8664L18.9979 19.8775L19.7862 23.0035C19.9266 23.5572 20.5093 23.8891 21.0526 23.7599C21.6063 23.6194 21.9376 23.0372 21.8089 22.4935L21.229 20.1937C23.53 20.268 23.8094 19.1539 23.8094 19.1539Z" fill="url(#paint0_linear_21443_89055)"/>
</g>
<defs>
<linearGradient id="paint0_linear_21443_89055" x1="0.566391" y1="0.474443" x2="29.6023" y2="14.7745" gradientUnits="userSpaceOnUse">
<stop offset="0.0001" stop-color="#7332D6"/>
<stop offset="0.50005" stop-color="#32155A"/>
<stop offset="1" stop-color="#5D28AC"/>
</linearGradient>
<clipPath id="clip0_21443_89055">
<rect width="24" height="24" fill="white"/>
</clipPath>
</defs>
</svg>
