<svg width="24" height="24" viewBox="0 0 24 24" fill="none" xmlns="http://www.w3.org/2000/svg">
<g filter="url(#filter0_i_21441_88983)">
<path d="M12 0.000976562C13.2517 0.000976749 13.5646 1.28254 14.7732 1.60789C15.9852 1.93412 16.9001 0.980357 17.987 1.60789C19.0786 2.23811 18.7027 3.51575 19.594 4.40702C20.4852 5.2983 21.7629 4.92235 22.3931 6.01394C23.0206 7.10087 22.0669 8.01582 22.3931 9.22776C22.7184 10.4364 24 10.7493 24 12.001C24 13.2527 22.7184 13.5655 22.3931 14.7742C22.0669 15.9861 23.0206 16.9011 22.3931 17.988C21.7629 19.0796 20.4852 18.7037 19.594 19.5949C18.7027 20.4862 19.0786 21.7638 17.987 22.3941C16.9001 23.0216 15.9852 22.0678 14.7732 22.3941C13.5646 22.7194 13.2517 24.001 12 24.001C10.7483 24.001 10.4354 22.7194 9.22678 22.3941C8.01484 22.0678 7.09989 23.0216 6.01296 22.3941C4.92137 21.7638 5.29732 20.4862 4.40605 19.5949C3.51477 18.7037 2.23713 19.0796 1.60691 17.988C0.979381 16.9011 1.93314 15.9861 1.60691 14.7742C1.28157 13.5655 1.86721e-07 13.2527 0 12.001C-1.86721e-07 10.7493 1.28157 10.4364 1.60691 9.22776C1.93314 8.01582 0.979381 7.10087 1.60691 6.01394C2.23713 4.92235 3.51477 5.2983 4.40605 4.40702C5.29732 3.51575 4.92137 2.23811 6.01296 1.60789C7.09989 0.980358 8.01484 1.93411 9.22678 1.60789C10.4354 1.28254 10.7483 0.000976376 12 0.000976562Z" fill="url(#paint0_linear_21441_88983)"/>
<path d="M12 0.000976562C13.2517 0.000976749 13.5646 1.28254 14.7732 1.60789C15.9852 1.93412 16.9001 0.980357 17.987 1.60789C19.0786 2.23811 18.7027 3.51575 19.594 4.40702C20.4852 5.2983 21.7629 4.92235 22.3931 6.01394C23.0206 7.10087 22.0669 8.01582 22.3931 9.22776C22.7184 10.4364 24 10.7493 24 12.001C24 13.2527 22.7184 13.5655 22.3931 14.7742C22.0669 15.9861 23.0206 16.9011 22.3931 17.988C21.7629 19.0796 20.4852 18.7037 19.594 19.5949C18.7027 20.4862 19.0786 21.7638 17.987 22.3941C16.9001 23.0216 15.9852 22.0678 14.7732 22.3941C13.5646 22.7194 13.2517 24.001 12 24.001C10.7483 24.001 10.4354 22.7194 9.22678 22.3941C8.01484 22.0678 7.09989 23.0216 6.01296 22.3941C4.92137 21.7638 5.29732 20.4862 4.40605 19.5949C3.51477 18.7037 2.23713 19.0796 1.60691 17.988C0.979381 16.9011 1.93314 15.9861 1.60691 14.7742C1.28157 13.5655 1.86721e-07 13.2527 0 12.001C-1.86721e-07 10.7493 1.28157 10.4364 1.60691 9.22776C1.93314 8.01582 0.979381 7.10087 1.60691 6.01394C2.23713 4.92235 3.51477 5.2983 4.40605 4.40702C5.29732 3.51575 4.92137 2.23811 6.01296 1.60789C7.09989 0.980358 8.01484 1.93411 9.22678 1.60789C10.4354 1.28254 10.7483 0.000976376 12 0.000976562Z" fill="url(#paint1_linear_21441_88983)"/>
<path d="M11.2511 15.0429L8.21487 12.3634C7.96701 12.1344 7.9257 11.7451 8.13225 11.4703C8.3388 11.1955 8.68993 11.1497 8.93779 11.3787C10.3553 12.6385 12.5377 12.4594 13.7308 10.9852L16 8.18153C16.2065 7.92961 16.7728 7.9523 17 8.18132C17.2272 8.41033 17.2065 8.74906 17 9.00098L12.036 14.9742C11.8295 15.2261 11.4783 15.249 11.2511 15.0429Z" fill="url(#paint2_linear_21441_88983)"/>
<path d="M20 12C20 16.4183 16.4183 20 12 20C7.58172 20 4 16.4183 4 12C4 7.58172 7.58172 4 12 4C16.4183 4 20 7.58172 20 12ZM4.60113 12C4.60113 16.0863 7.91372 19.3989 12 19.3989C16.0863 19.3989 19.3989 16.0863 19.3989 12C19.3989 7.91372 16.0863 4.60113 12 4.60113C7.91372 4.60113 4.60113 7.91372 4.60113 12Z" fill="white"/>
<path fill-rule="evenodd" clip-rule="evenodd" d="M16.3536 8.67085C16.5488 8.89866 16.5488 9.26801 16.3536 9.49581L12.0607 14.5042C11.4749 15.1876 10.5251 15.1876 9.93934 14.5042L8.14645 12.4125C7.95118 12.1847 7.95118 11.8153 8.14645 11.5875C8.34171 11.3597 8.65829 11.3597 8.85355 11.5875L10.6464 13.6792C10.8417 13.907 11.1583 13.907 11.3536 13.6792L15.6464 8.67085C15.8417 8.44305 16.1583 8.44305 16.3536 8.67085Z" fill="white"/>
</g>
<defs>
<filter id="filter0_i_21441_88983" x="0" y="0" width="24" height="24.001" filterUnits="userSpaceOnUse" color-interpolation-filters="sRGB">
<feFlood flood-opacity="0" result="BackgroundImageFix"/>
<feBlend mode="normal" in="SourceGraphic" in2="BackgroundImageFix" result="shape"/>
<feColorMatrix in="SourceAlpha" type="matrix" values="0 0 0 0 0 0 0 0 0 0 0 0 0 0 0 0 0 0 127 0" result="hardAlpha"/>
<feOffset/>
<feGaussianBlur stdDeviation="0.35"/>
<feComposite in2="hardAlpha" operator="arithmetic" k2="-1" k3="1"/>
<feColorMatrix type="matrix" values="0 0 0 0 1 0 0 0 0 1 0 0 0 0 1 0 0 0 0.36 0"/>
<feBlend mode="normal" in2="shape" result="effect1_innerShadow_21441_88983"/>
</filter>
<linearGradient id="paint0_linear_21441_88983" x1="12" y1="0.000976562" x2="12" y2="24.001" gradientUnits="userSpaceOnUse">
<stop stop-color="#7332D6"/>
<stop offset="0.44" stop-color="#5826A3"/>
<stop offset="1" stop-color="#7332D6"/>
</linearGradient>
<linearGradient id="paint1_linear_21441_88983" x1="12" y1="0.000976562" x2="12" y2="24.001" gradientUnits="userSpaceOnUse">
<stop stop-color="#7332D6"/>
<stop offset="0.44" stop-color="#5826A3"/>
<stop offset="1" stop-color="#7332D6"/>
</linearGradient>
<linearGradient id="paint2_linear_21441_88983" x1="12" y1="0.000976562" x2="12" y2="24.001" gradientUnits="userSpaceOnUse">
<stop stop-color="#7332D6"/>
<stop offset="0.44" stop-color="#5826A3"/>
<stop offset="1" stop-color="#7332D6"/>
</linearGradient>
</defs>
</svg>
