<svg width="24" height="24" viewBox="0 0 24 24" fill="none" xmlns="http://www.w3.org/2000/svg">
<g clip-path="url(#clip0_21443_89070)">
<path d="M12.0037 9.14014L12.5938 10.3901L13.9137 10.6001L12.9637 11.5701L13.1838 12.9601L12.0037 12.3001L10.8237 12.9601L11.0437 11.5701L10.0938 10.6001L11.4137 10.3901L12.0037 9.14014Z" fill="#FFD60A"/>
<path d="M17.7303 9.14014L18.3203 10.3901L19.6403 10.6001L18.6803 11.5701L18.9103 12.9601L17.7303 12.3001L16.5503 12.9601L16.7703 11.5701L15.8203 10.6001L17.1403 10.3901L17.7303 9.14014Z" fill="#FFD60A"/>
<path d="M6.26937 9.14014L6.85938 10.3901L8.17938 10.6001L7.22937 11.5701L7.44937 12.9601L6.26937 12.3001L5.08938 12.9601L5.31938 11.5701L4.35938 10.6001L5.67937 10.3901L6.26937 9.14014Z" fill="#FFD60A"/>
<path d="M1.5 8.18002V13.91C1.5 14.4166 1.70123 14.9024 2.05943 15.2606C2.41762 15.6188 2.90344 15.82 3.41 15.82H10.09L12 17.73L13.91 15.82H20.59C21.0966 15.82 21.5824 15.6188 21.9406 15.2606C22.2988 14.9024 22.5 14.4166 22.5 13.91V8.18002C22.5 7.67346 22.2988 7.18764 21.9406 6.82945C21.5824 6.47125 21.0966 6.27002 20.59 6.27002H3.41C2.90344 6.27002 2.41762 6.47125 2.05943 6.82945C1.70123 7.18764 1.5 7.67346 1.5 8.18002Z" stroke="url(#paint0_linear_21443_89070)" stroke-miterlimit="10"/>
</g>
<defs>
<linearGradient id="paint0_linear_21443_89070" x1="1.83" y1="6.40921" x2="19.5054" y2="22.3683" gradientUnits="userSpaceOnUse">
<stop offset="0.0001" stop-color="#7332D6"/>
<stop offset="0.50005" stop-color="#32155A"/>
<stop offset="1" stop-color="#5D28AC"/>
</linearGradient>
<clipPath id="clip0_21443_89070">
<rect width="24" height="24" fill="white"/>
</clipPath>
</defs>
</svg>
