<svg width="24" height="24" viewBox="0 0 24 24" fill="none" xmlns="http://www.w3.org/2000/svg">
<g clip-path="url(#clip0_21443_89071)">
<path d="M24 5.41935C24 2.43097 21.569 0 18.5806 0H5.41935C2.43097 0 0 2.43097 0 5.41935C0 8.40774 2.43097 10.8387 5.41935 10.8387H6.4831C5.05935 12.2799 4.25806 14.2041 4.25806 16.2581C4.25806 20.527 7.7311 24 12 24C16.2689 24 19.7419 20.527 19.7419 16.2581C19.7419 14.2041 18.9406 12.2799 17.5169 10.8387H18.5806C21.569 10.8387 24 8.40774 24 5.41935ZM15.4839 22.2828C14.4577 22.879 13.2697 23.2258 12 23.2258C10.7303 23.2258 9.54232 22.879 8.51613 22.2828V21.2903C8.51613 19.3695 10.0788 17.8065 12 17.8065C13.9212 17.8065 15.4839 19.3695 15.4839 21.2903V22.2828ZM18.9677 16.2581C18.9677 18.4959 17.9028 20.4852 16.2581 21.761V21.2903C16.2581 18.9426 14.3477 17.0323 12 17.0323C9.65226 17.0323 7.74194 18.9426 7.74194 21.2903V21.761C6.09716 20.4852 5.03226 18.4959 5.03226 16.2581C5.03226 14.1387 5.98026 12.1719 7.63548 10.8387H9.81523C9.024 11.4778 8.51613 12.4545 8.51613 13.5484C8.51613 15.4692 10.0788 17.0323 12 17.0323C13.9212 17.0323 15.4839 15.4692 15.4839 13.5484C15.4839 12.4545 14.976 11.4778 14.1848 10.8387H16.3645C18.0197 12.1719 18.9677 14.1387 18.9677 16.2581ZM12 10.8387C13.4938 10.8387 14.7097 12.0542 14.7097 13.5484C14.7097 15.0426 13.4938 16.2581 12 16.2581C10.5062 16.2581 9.29032 15.0426 9.29032 13.5484C9.29032 12.0542 10.5062 10.8387 12 10.8387ZM5.41935 10.0645C2.85794 10.0645 0.774194 7.98077 0.774194 5.41935C0.774194 2.85794 2.85794 0.774194 5.41935 0.774194H18.5806C21.1421 0.774194 23.2258 2.85794 23.2258 5.41935C23.2258 7.98077 21.1421 10.0645 18.5806 10.0645H5.41935Z" fill="url(#paint0_linear_21443_89071)"/>
<path d="M18.9693 7.25251L21.1239 8.38555L20.7124 5.98593L22.4563 4.28658L20.0466 3.93664L18.9693 1.75342L17.892 3.93664L15.4855 4.28619L13.0789 3.93664L12.0016 1.75342L10.9243 3.93664L8.51771 4.28619L6.11113 3.93664L5.03384 1.75342L3.95655 3.93664L1.54688 4.28658L3.29075 5.98593L2.87926 8.38555L5.03384 7.25251L7.18842 8.38555L6.77694 5.98593L8.51771 4.28968L10.2585 5.98632L9.847 8.38593L12.0016 7.25251L14.1562 8.38555L13.7447 5.98593L15.4855 4.28968L17.2262 5.98632L16.8147 8.38593L18.9693 7.25251ZM5.94507 5.71574L6.16029 6.97032L5.03384 6.37806L3.90739 6.97032L4.12262 5.71574L3.211 4.82735L4.47062 4.64426L5.03384 3.5031L5.59707 4.64426L6.85668 4.82735L5.94507 5.71574ZM12.9132 5.71574L13.1284 6.97032L12.0016 6.37806L10.8751 6.97032L11.0904 5.71574L10.1787 4.82735L11.4384 4.64426L12.0016 3.5031L12.5648 4.64426L13.8244 4.82735L12.9132 5.71574ZM17.1469 4.82735L18.4061 4.64426L18.9693 3.5031L19.5326 4.64426L20.7922 4.82735L19.8809 5.71574L20.0962 6.97032L18.9693 6.37806L17.8429 6.97032L18.0581 5.71574L17.1469 4.82735Z" fill="url(#paint1_linear_21443_89071)"/>
</g>
<defs>
<linearGradient id="paint0_linear_21443_89071" x1="0.377143" y1="0.291498" x2="29.8823" y2="14.8294" gradientUnits="userSpaceOnUse">
<stop offset="0.0001" stop-color="#7332D6"/>
<stop offset="0.50005" stop-color="#32155A"/>
<stop offset="1" stop-color="#5D28AC"/>
</linearGradient>
<linearGradient id="paint1_linear_21443_89071" x1="1.87545" y1="1.83397" x2="11.236" y2="16.3741" gradientUnits="userSpaceOnUse">
<stop offset="0.0001" stop-color="#7332D6"/>
<stop offset="0.50005" stop-color="#32155A"/>
<stop offset="1" stop-color="#5D28AC"/>
</linearGradient>
<clipPath id="clip0_21443_89071">
<rect width="24" height="24" fill="white"/>
</clipPath>
</defs>
</svg>
