<svg width="24" height="24" viewBox="0 0 24 24" fill="none" xmlns="http://www.w3.org/2000/svg">
<g clip-path="url(#clip0_21443_89037)">
<g clip-path="url(#clip1_21443_89037)">
<path d="M22.9969 19.85L19.0969 20.45L17.2469 24L14.3469 20L12.2969 17.15L17.9969 13L20.6469 16.65L22.9969 19.85Z" fill="#C6A7F5"/>
<path d="M11.7 17.15L9.64998 19.95L6.74999 24L4.9 20.45L1 19.85L3.34999 16.6L6.00001 13L11.7 17.15Z" fill="#C6A7F5"/>
<path d="M6.00158 13L11.7016 17.2L9.65156 20C9.55155 19.95 9.50154 19.9 9.45154 19.9C9.40153 19.9 9.35153 19.9 9.30152 19.9C9.1015 19.9 8.80152 19.95 8.50154 20C8.15155 20.1 7.80152 20.15 7.40153 20.15C7.05154 20.15 6.70151 20.1 6.45153 19.9C5.80151 19.5 5.55154 18.8 5.35152 18.15C5.25151 17.8 5.10154 17.45 5.00153 17.3C4.85152 17.15 4.50153 17.0501 4.15154 16.9501C3.90157 16.85 3.60154 16.75 3.35156 16.6501L6.00158 13Z" fill="#7332D6"/>
<path d="M20.6531 16.6501C20.4031 16.8001 20.1031 16.8501 19.8531 16.9501C19.5031 17.0501 19.1531 17.2 19.0031 17.3C18.8531 17.4501 18.7531 17.8 18.6031 18.15C18.4031 18.8 18.1531 19.5 17.5031 19.9C17.2531 20.05 16.9031 20.15 16.5531 20.15C16.2031 20.15 15.8031 20.1 15.4531 20C15.1531 19.95 14.9031 19.9 14.6531 19.9C14.6031 19.9 14.5531 19.9 14.5031 19.9C14.4531 19.9 14.3531 19.95 14.2531 20L12.2031 17.2L17.9031 13L20.6531 16.6501Z" fill="#7332D6"/>
<path d="M22.303 10.3C22.303 11.15 21.0531 11.85 20.803 12.65C20.603 13.5 21.303 14.7 20.903 15.45C20.453 16.2 19.053 16.15 18.453 16.75C17.853 17.3499 17.903 18.8 17.1531 19.2C16.4031 19.6 15.2031 18.9 14.3531 19.1C13.5531 19.3 12.8531 20.6 12.0031 20.6C11.1531 20.6 10.4531 19.35 9.65309 19.1C8.8031 18.8999 7.60308 19.6 6.8531 19.2C6.10312 18.75 6.15308 17.35 5.55312 16.75C4.95311 16.15 3.50311 16.2 3.10312 15.45C2.70313 14.7 3.4031 13.5 3.20313 12.65C3.00311 11.85 1.70312 11.15 1.70312 10.3C1.70312 9.45001 2.9531 8.74999 3.20313 7.95001C3.40315 7.10002 2.70313 5.9 3.10312 5.15002C3.55311 4.40005 4.95311 4.45 5.55312 3.85004C6.15313 3.25003 6.10312 1.80003 6.8531 1.40004C7.60308 1.00005 8.8031 1.70002 9.65309 1.50005C10.4531 1.29998 11.153 0 12.0031 0C12.8531 0 13.5531 1.24998 14.3531 1.5C15.2031 1.70002 16.4031 1 17.1531 1.39999C17.903 1.84999 17.8531 3.24998 18.453 3.84999C19.053 4.45 20.503 4.4 20.903 5.14998C21.303 5.89995 20.6031 7.09998 20.803 7.94996C21.0531 8.74999 22.303 9.45001 22.303 10.3Z" fill="url(#paint0_linear_21443_89037)"/>
<path d="M12.0015 18.9999C11.9014 18.8999 11.8014 18.7999 11.7015 18.7499C11.3015 18.3499 10.7515 17.8999 10.0515 17.6999C9.80147 17.6499 9.55145 17.5999 9.30147 17.5999C8.85148 17.5999 8.40148 17.6999 8.0515 17.7499C7.95149 17.7999 7.80152 17.7999 7.70151 17.7999C7.6515 17.6999 7.6015 17.5499 7.6015 17.4499C7.40148 16.8999 7.20151 16.1999 6.6515 15.6999C6.1015 15.1499 5.45148 14.95 4.90152 14.7499C4.75151 14.7499 4.60154 14.6999 4.50153 14.6499C4.50153 14.5499 4.55154 14.4 4.55154 14.2999C4.65155 13.7499 4.80151 13.05 4.65155 12.2999C4.45153 11.5999 4.00153 11.05 3.60154 10.6499C3.50153 10.5499 3.40152 10.4499 3.35156 10.3499C3.45157 10.2499 3.55158 10.1499 3.60154 10.05C4.00153 9.64997 4.45153 9.09996 4.65155 8.39994C4.85157 7.64996 4.70155 6.94994 4.55154 6.39994C4.55154 6.29993 4.50153 6.14996 4.50153 6.04995C4.60154 5.99994 4.75151 5.94994 4.85152 5.94994C5.40152 5.74992 6.1015 5.54995 6.6015 4.99994C7.15141 4.44989 7.35143 3.79987 7.55145 3.24987C7.60145 3.14986 7.65146 2.99989 7.65146 2.89988C7.75147 2.89988 7.90143 2.94989 8.00144 2.94989C8.35143 3.0499 8.80142 3.0999 9.25142 3.0999C9.5014 3.0999 9.75142 3.0499 10.0014 2.99989C10.7514 2.74991 11.2514 2.29987 11.7014 1.89988C11.8014 1.79987 11.9014 1.69986 12.0014 1.6499C12.1014 1.74991 12.2014 1.84992 12.3014 1.89988C12.7514 2.29987 13.2514 2.74987 14.0014 2.94989C14.2514 2.99989 14.5014 3.0499 14.7514 3.0499C15.2014 3.0499 15.6514 2.94989 16.0014 2.89988C16.1014 2.84988 16.2513 2.84988 16.3513 2.84988C16.4014 2.94989 16.4514 3.09985 16.4514 3.19986C16.6514 3.74987 16.8514 4.44984 17.4014 4.94984C17.9514 5.49985 18.6014 5.69982 19.1513 5.89984C19.2513 5.94984 19.4013 5.99985 19.5013 5.99985C19.5013 6.09986 19.4513 6.24983 19.4513 6.34984C19.3513 6.89984 19.2013 7.59981 19.3513 8.34984C19.5513 9.04986 20.0013 9.59982 20.4013 9.99986C20.5013 10.0999 20.6013 10.1999 20.6513 10.2998C20.5513 10.3998 20.4513 10.4999 20.4013 10.5998C20.0013 10.9998 19.5513 11.5498 19.3513 12.2498C19.1513 12.9998 19.3013 13.6998 19.4513 14.2498C19.4513 14.3499 19.5013 14.4998 19.5013 14.5998C19.4013 14.6998 19.2513 14.7498 19.1513 14.7498C18.6013 14.9499 17.9014 15.1498 17.4014 15.6998C16.8514 16.2498 16.6514 16.8999 16.4514 17.4498C16.4014 17.5498 16.3513 17.6998 16.3513 17.7998C16.2513 17.7998 16.1014 17.7498 16.0014 17.7498C15.6514 17.6498 15.2014 17.5998 14.7514 17.5998C14.5014 17.5998 14.2514 17.6498 14.0014 17.6998C13.3014 17.8998 12.7514 18.3498 12.3514 18.7498C12.2014 18.7999 12.1014 18.8999 12.0015 18.9999Z" fill="#C6A7F5" fill-opacity="0.2"/>
<path d="M17.3485 9.09999L13.6485 8.55003L11.9985 5.25L10.3485 8.55003L6.64844 9.09999L9.34846 11.7L8.69845 15.4L11.9985 13.65L15.2985 15.4L14.6485 11.7L17.3485 9.09999Z" fill="#FFD60A"/>
</g>
</g>
<defs>
<linearGradient id="paint0_linear_21443_89037" x1="2.02684" y1="0.250202" x2="27.352" y2="12.7285" gradientUnits="userSpaceOnUse">
<stop offset="0.0001" stop-color="#7332D6"/>
<stop offset="0.50005" stop-color="#32155A"/>
<stop offset="1" stop-color="#5D28AC"/>
</linearGradient>
<clipPath id="clip0_21443_89037">
<rect width="24" height="24" fill="white"/>
</clipPath>
<clipPath id="clip1_21443_89037">
<rect width="24" height="24" fill="white"/>
</clipPath>
</defs>
</svg>
