<svg width="24" height="24" viewBox="0 0 24 24" fill="none" xmlns="http://www.w3.org/2000/svg">
<g clip-path="url(#clip0_21443_89036)">
<path fill-rule="evenodd" clip-rule="evenodd" d="M15.0254 0H16.3223C16.6191 0 16.8613 0.242188 16.8613 0.539062V5.15234L18.4512 6.74219C18.4609 6.73828 18.4727 6.73633 18.4824 6.73438C21.7578 5.95898 21.2539 3.63281 20.8047 1.55859C20.7441 1.2832 20.6855 1.01172 20.627 0.699219C20.5742 0.419922 20.7598 0.150391 21.0391 0.0976562C21.3184 0.0449219 21.5879 0.230469 21.6406 0.509766C21.6855 0.746094 21.75 1.04297 21.8145 1.3418C22.3379 3.76367 22.9219 6.46289 19.291 7.58594L20.8047 9.09961C21.1113 9.40625 21.2637 9.80859 21.2637 10.2109C21.2637 10.6133 21.1113 11.0176 20.8047 11.3223L16.7227 15.4043C16.6875 15.4395 16.6465 15.4688 16.6035 15.4902C17.0156 17.1641 16.7246 18.8809 15.3379 20.2656L15.166 20.4375C14.9863 20.6172 14.6934 20.6172 14.5117 20.4375L12.4082 18.3359C9.72852 19.9863 5.95117 16.3711 7.79297 13.7207L5.28516 11.2109C5.10547 11.0312 5.10547 10.7383 5.28516 10.5566L5.45703 10.3848C6.70312 9.13867 8.25195 8.79883 9.80078 9.07031L9.80859 9.05469C9.83203 9.00781 9.86133 8.9668 9.89648 8.93164L14.1562 4.67188C14.2578 4.57031 14.3691 4.48633 14.4863 4.41992V0.539062C14.4863 0.242188 14.7285 0 15.0254 0ZM16.8613 6.46289V8.71289C16.8613 9.00977 16.6191 9.25195 16.3223 9.25195H15.0254C14.7285 9.25195 14.4863 9.00977 14.4863 8.71289V5.65039L10.998 9.13672C11.9707 9.65039 12.9297 10.2539 13.8379 11.0449C14.8047 11.8867 15.709 12.9375 16.502 14.3164L20.1504 10.668C20.2754 10.543 20.3379 10.377 20.3379 10.2109C20.3379 10.0449 20.2754 9.87891 20.1504 9.75391L16.8613 6.46289ZM3.92969 13.3574C4.21484 13.3574 4.44531 13.5879 4.44531 13.873C4.44531 14.1582 4.21484 14.3887 3.92969 14.3887L2.3125 14.3945C2.02734 14.3926 1.79688 14.1621 1.79688 13.8789C1.79688 13.5938 2.02734 13.3633 2.3125 13.3633L3.92969 13.3574ZM5.82617 18.8691C6.04492 18.6875 6.36914 18.7168 6.55078 18.9355C6.73242 19.1543 6.70312 19.4785 6.48437 19.6602L3.70703 21.9766C3.48828 22.1582 3.16406 22.1289 2.98242 21.9102C2.80078 21.6914 2.83008 21.3672 3.04883 21.1855L5.82617 18.8691ZM8.02734 21.041C8.15234 20.7852 8.46094 20.6777 8.71875 20.8027C8.97656 20.9277 9.08203 21.2363 8.95703 21.4941L7.875 23.7109C7.75 23.9668 7.44141 24.0742 7.18359 23.9492C6.92773 23.8242 6.82031 23.5156 6.94531 23.2578L8.02734 21.041ZM4.44922 15.9277C4.7207 15.8418 5.00977 15.9922 5.0957 16.2637C5.18164 16.5352 5.03125 16.8242 4.75977 16.9102L2.50586 17.627C2.23437 17.7129 1.94531 17.5625 1.85937 17.291C1.77344 17.0195 1.92383 16.7305 2.19531 16.6445L4.44922 15.9277ZM11.3184 20.873C11.3828 20.5957 11.6582 20.4219 11.9355 20.4844C12.2129 20.5488 12.3867 20.8242 12.3242 21.1016L11.7656 23.5254C11.7012 23.8027 11.4258 23.9766 11.1484 23.9141C10.8711 23.8496 10.6973 23.5742 10.7598 23.2969L11.3184 20.873ZM6.27148 10.8887L14.8359 19.4531C16.1953 17.9512 16.0605 15.9824 15.1328 14.2305C14.7441 13.4961 14.2168 12.7988 13.6035 12.1855C12.9883 11.5723 12.2871 11.0469 11.5469 10.6543C9.76172 9.70898 7.75586 9.55078 6.27148 10.8887Z" fill="url(#paint0_linear_21443_89036)"/>
</g>
<defs>
<linearGradient id="paint0_linear_21443_89036" x1="2.11756" y1="0.291515" x2="28.6413" y2="11.4032" gradientUnits="userSpaceOnUse">
<stop offset="0.0001" stop-color="#7332D6"/>
<stop offset="0.50005" stop-color="#32155A"/>
<stop offset="1" stop-color="#5D28AC"/>
</linearGradient>
<clipPath id="clip0_21443_89036">
<rect width="24" height="24" fill="white" transform="matrix(-1 0 0 1 24 0)"/>
</clipPath>
</defs>
</svg>
