<svg width="24" height="24" viewBox="0 0 24 24" fill="none" xmlns="http://www.w3.org/2000/svg">
<g clip-path="url(#clip0_21443_89040)">
<path d="M23.9182 9.56501L24.1526 9.39542L24.5336 9.92204C24.3934 10.0235 24.2391 10.1351 24.0647 10.2612C23.5471 10.6357 23.4684 11.4115 23.889 11.9929C24.0284 12.1856 24.1576 12.3641 24.27 12.5195L8.32913 24.0518C8.21674 23.8965 8.08758 23.718 7.94814 23.5252C7.52753 22.9438 6.76608 22.7759 6.24847 23.1503C6.09891 23.2585 5.93622 23.3762 5.77962 23.4895L5.39864 22.9629L5.63306 22.7933C5.76247 22.6997 5.78215 22.5057 5.67699 22.3604C5.57184 22.215 5.38148 22.1731 5.25208 22.2667L5.01765 22.4363L4.63667 21.9096L4.87109 21.7401C5.00049 21.6464 5.02017 21.4525 4.91502 21.3071C4.80987 21.1618 4.61951 21.1198 4.4901 21.2134L4.25568 21.383L3.87469 20.8564L4.10912 20.6868C4.23852 20.5932 4.2582 20.3992 4.15305 20.2539C4.0479 20.1085 3.85753 20.0666 3.72813 20.1602L3.49371 20.3298L3.11272 19.8031L3.34715 19.6335C3.47655 19.5399 3.49623 19.346 3.39108 19.2006C3.28593 19.0553 3.09556 19.0133 2.96616 19.1069L2.73174 19.2765L2.35075 18.7499L2.58517 18.5803C2.71458 18.4867 2.73426 18.2927 2.62911 18.1474C2.52395 18.002 2.33359 17.9601 2.20419 18.0537L1.96976 18.2233L1.58878 17.6966L1.8232 17.527C1.9526 17.4334 1.97229 17.2395 1.86713 17.0941C1.76198 16.9488 1.57162 16.9068 1.44222 17.0004L1.20779 17.17L0.826806 16.6434L1.06123 16.4738C1.19063 16.3802 1.21031 16.1862 1.10516 16.0409C1.00001 15.8955 0.809646 15.8535 0.680244 15.9472L0.445819 16.1168L0.0648333 15.5901C0.205019 15.4887 0.35927 15.3771 0.533682 15.2509C1.05129 14.8765 1.13001 14.1007 0.709406 13.5193C0.569965 13.3266 0.440811 13.148 0.32842 12.9927L16.2693 1.46034C16.3817 1.61569 16.5108 1.79422 16.6503 1.98696C17.0709 2.56836 17.8323 2.7363 18.3499 2.36184C18.5243 2.23566 18.6786 2.12407 18.8188 2.02265L19.1998 2.54928L18.9653 2.71887C18.8359 2.81249 18.8162 3.00643 18.9214 3.15178C19.0266 3.29713 19.2169 3.33911 19.3463 3.2455L19.5807 3.0759L19.9617 3.60253L19.7273 3.77212C19.5979 3.86574 19.5782 4.05968 19.6834 4.20503C19.7885 4.35038 19.9789 4.39237 20.1083 4.29875L20.3427 4.12916L20.7237 4.65578L20.4893 4.82538C20.3599 4.91899 20.3402 5.11293 20.4453 5.25828C20.5505 5.40363 20.7409 5.44562 20.8703 5.352L21.1047 5.18241L21.4857 5.70904L21.2512 5.87863C21.1218 5.97224 21.1022 6.16619 21.2073 6.31153C21.3125 6.45688 21.5028 6.49887 21.6322 6.40526L21.8667 6.23566L22.2476 6.76229L22.0132 6.93188C21.8838 7.0255 21.8641 7.21944 21.9693 7.36479C22.0744 7.51014 22.2648 7.55212 22.3942 7.45851L22.6286 7.28891L23.0096 7.81554L22.7752 7.98513C22.6458 8.07875 22.6261 8.27269 22.7313 8.41804C22.8364 8.56339 23.0268 8.60537 23.1562 8.51176L23.3906 8.34217L23.7716 8.86879L23.5372 9.03839C23.4078 9.132 23.3881 9.32594 23.4932 9.47129C23.5984 9.61664 23.7888 9.65863 23.9182 9.56501ZM17.7053 4.43265C17.2847 3.85126 16.5233 3.68331 16.0057 4.05777L2.87792 13.555C2.36032 13.9295 2.28159 14.7052 2.7022 15.2866L6.89305 21.0795C7.31365 21.6609 8.07511 21.8289 8.59272 21.4544L21.7205 11.9572C22.2381 11.5827 22.3168 10.8069 21.8962 10.2255L17.7053 4.43265ZM21.3395 11.4305L8.21173 20.9278C7.95246 21.1153 7.5722 21.031 7.36189 20.7403L3.17105 14.9474C2.96036 14.6562 2.99964 14.2692 3.25891 14.0816L16.3867 4.5844C16.6455 4.39717 17.0258 4.48062 17.2365 4.77184L21.4273 10.5647C21.6377 10.8554 21.5983 11.2433 21.3395 11.4305ZM7.30397 14.3546L5.44123 15.7022L5.66602 16.0129L6.44055 15.4526L8.12527 17.7813L8.43659 17.5561L6.75187 15.2274L7.52828 14.6657L7.3035 14.355L7.30397 14.3546ZM7.95145 13.8862L7.64013 14.1114L9.54964 16.7509L9.86095 16.5257L7.95145 13.8862ZM9.45717 14.0019C9.38706 13.8023 9.37837 13.6096 9.42971 13.4249C9.48019 13.2399 9.5961 13.0823 9.77661 12.9517C9.93367 12.8381 10.0956 12.7875 10.2629 12.8005C10.4302 12.8126 10.6103 12.8957 10.8038 13.0485L11.0508 12.7463C10.8119 12.5484 10.5636 12.4401 10.3061 12.4218C10.0486 12.4035 9.80196 12.4793 9.56707 12.6492C9.35984 12.7991 9.20843 12.9897 9.11286 13.2209C9.01728 13.4521 8.99698 13.7034 9.05095 13.9765C9.10585 14.2488 9.23232 14.5223 9.43081 14.7967C9.6133 15.049 9.82571 15.2547 10.0676 15.4143C10.3094 15.5738 10.5515 15.6547 10.7933 15.6562C11.036 15.6571 11.2838 15.5661 11.5369 15.383C11.7812 15.2062 11.934 14.981 11.9943 14.708C12.0545 14.4349 12.0136 14.1315 11.8712 13.7974L11.4959 13.9341C11.614 14.1872 11.6531 14.4141 11.615 14.6141C11.5755 14.8143 11.4695 14.9768 11.2951 15.103C11.1521 15.2065 10.9889 15.2612 10.8062 15.2674C10.6236 15.2736 10.4424 15.2137 10.2631 15.0883C10.0838 14.9629 9.91257 14.7883 9.74989 14.5635C9.62434 14.388 9.52642 14.2013 9.45717 14.0019ZM12.9189 10.2925L12.4979 10.5971L12.2762 12.747L11.3314 11.441L11.0201 11.6662L12.9296 14.3057L13.2409 14.0805L12.5787 13.1652L12.6612 12.4677L14.4622 13.1969L14.8725 12.9001L12.708 12.0753L12.9189 10.2925ZM16.7486 11.0695L15.3074 12.1121L14.657 11.2132L15.9557 10.2736L15.7309 9.96293L14.4322 10.9025L13.8474 10.0941L15.2338 9.09113L15.009 8.78042L13.3113 10.0086L15.2208 12.6481L16.9734 11.3802L16.7486 11.0695ZM17.2614 7.15097L15.3986 8.49856L15.6234 8.80927L16.398 8.24893L18.0827 10.5777L18.394 10.3525L16.7093 8.02371L17.4857 7.46202L17.2614 7.15097Z" fill="url(#paint0_linear_21443_89040)"/>
</g>
<defs>
<linearGradient id="paint0_linear_21443_89040" x1="-0.686245" y1="13.9314" x2="26.3864" y2="15.823" gradientUnits="userSpaceOnUse">
<stop offset="0.0001" stop-color="#7332D6"/>
<stop offset="0.50005" stop-color="#32155A"/>
<stop offset="1" stop-color="#5D28AC"/>
</linearGradient>
<clipPath id="clip0_21443_89040">
<rect width="24" height="24" fill="white"/>
</clipPath>
</defs>
</svg>
