<svg width="24" height="24" viewBox="0 0 24 24" fill="none" xmlns="http://www.w3.org/2000/svg">
<path d="M19.1195 7.04231C19.0871 9.00712 18.3812 11.6674 15.072 12.6988C16.1082 10.4163 16.2664 8.23192 15.5322 6.18999C14.5511 3.44868 11.2772 1.3074 9.09882 0.141326C8.35482 -0.258694 7.40047 0.238062 7.41459 1.03418C7.44282 2.48784 6.96565 4.61213 4.64894 6.75733C1.56282 9.61237 0 12.5628 0 15.5251C0 19.2442 2.82353 24 8.47059 24C2.76565 18.7174 7.05882 14.2178 7.05882 14.2178C8.25318 21.9489 14.1007 24 16.9412 24C19.3567 24 24 22.3659 24 15.5708C24 11.4752 22.1195 8.36656 20.6329 6.55209C20.1431 5.95337 19.1308 6.29326 19.1195 7.04231Z" fill="url(#paint0_linear_21443_89035)"/>
<defs>
<linearGradient id="paint0_linear_21443_89035" x1="0" y1="12" x2="24" y2="12" gradientUnits="userSpaceOnUse">
<stop stop-color="#7332D6"/>
<stop offset="1" stop-color="#3C1A70"/>
</linearGradient>
</defs>
</svg>
