<svg width="24" height="24" viewBox="0 0 24 24" fill="none" xmlns="http://www.w3.org/2000/svg">
<path d="M12 2.65853L2.65853 12L12 21.3415L21.3415 12L12 2.65853ZM12.7784 0.32234L23.6777 11.2216C23.8841 11.4281 24 11.7081 24 12C24 12.2919 23.8841 12.5719 23.6777 12.7784L12.7784 23.6777C12.5719 23.8841 12.2919 24 12 24C11.7081 24 11.4281 23.8841 11.2216 23.6777L0.32234 12.7784C0.115946 12.5719 0 12.2919 0 12C0 11.7081 0.115946 11.4281 0.32234 11.2216L11.2216 0.32234C11.4281 0.115946 11.7081 0 12 0C12.2919 0 12.5719 0.115946 12.7784 0.32234ZM13.1009 9.79812V7.04577L16.9542 10.8991L13.1009 14.7523V12H9.79812V15.3028H7.59624V10.8991C7.59624 10.6071 7.71224 10.327 7.9187 10.1206C8.12517 9.91411 8.4052 9.79812 8.69718 9.79812H13.1009Z" fill="#4C4C4C"/>
</svg>
