<svg width="24" height="24" viewBox="0 0 24 24" fill="none" xmlns="http://www.w3.org/2000/svg">
<path d="M23.9062 12.3698C24.0313 12.1395 24.0313 11.8609 23.9062 11.6305C21.6135 7.40922 17.1415 4.54346 12 4.54346C6.85857 4.54346 2.38653 7.40926 0.0938235 11.6305C-0.0312745 11.8609 -0.0312745 12.1395 0.0938235 12.3698C2.38657 16.5911 6.85849 19.4569 12 19.4569C17.1415 19.4569 21.6134 16.5911 23.9062 12.3698ZM12 17.72C8.841 17.72 6.28018 15.1591 6.28018 12.0002C6.28018 8.84126 8.841 6.28036 12 6.28036C15.159 6.28036 17.7198 8.84122 17.7198 12.0002C17.7198 15.1592 15.159 17.72 12 17.72Z" fill="#292D32"/>
<path d="M12.0009 9.08545C11.7603 9.08545 11.5266 9.11482 11.3029 9.16976C11.532 9.43486 11.6709 9.78008 11.6709 10.1579C11.6709 10.9932 10.9937 11.6704 10.1584 11.6704C9.78056 11.6704 9.43535 11.5315 9.17025 11.3024C9.11531 11.5261 9.08594 11.7598 9.08594 12.0004C9.08594 13.6103 10.391 14.9153 12.0008 14.9153C13.6107 14.9153 14.9157 13.6102 14.9157 12.0004C14.9157 10.3905 13.6108 9.08545 12.0009 9.08545Z" fill="#292D32"/>
</svg>
