<svg width="24" height="24" viewBox="0 0 24 24" fill="none" xmlns="http://www.w3.org/2000/svg">
<g clip-path="url(#clip0_21441_88509)">
<path d="M8.44888 4.52039C9.6974 4.52039 10.7088 3.50808 10.7088 2.26045C10.7088 1.01147 9.6974 0 8.44888 0C7.19995 0 6.18848 1.01147 6.18848 2.26045C6.18848 3.50808 7.19995 4.52039 8.44888 4.52039Z" fill="#4C4C4C"/>
<path d="M10.4069 5.59082H8.42534H6.44379C5.3487 5.59082 4.15723 6.78229 4.15723 7.87785V15.4745C4.15723 16.0221 4.60085 16.4661 5.1484 16.4661C5.41793 16.4661 5.1484 16.4661 5.84046 16.4661L6.21734 22.9448C6.21734 23.5275 6.69012 23.9999 7.27273 23.9999C7.51863 23.9999 7.97201 23.9999 8.42534 23.9999C8.87871 23.9999 9.33204 23.9999 9.57795 23.9999C10.1606 23.9999 10.6333 23.5275 10.6333 22.9448L11.0102 16.4661C11.7023 16.4661 11.4327 16.4661 11.7023 16.4661C12.2498 16.4661 12.6934 16.0221 12.6934 15.4745V7.87785C12.6935 6.78229 11.5021 5.59082 10.4069 5.59082Z" fill="#4C4C4C"/>
<path d="M16.9034 10.5158C17.7678 10.5158 18.468 9.81531 18.468 8.95169C18.468 8.08684 17.7678 7.38672 16.9034 7.38672C16.0389 7.38672 15.3389 8.08684 15.3389 8.95169C15.3389 9.81531 16.0389 10.5158 16.9034 10.5158Z" fill="#4C4C4C"/>
<path d="M18.26 11.2559H16.8882H15.5163C14.7583 11.2559 13.9336 12.0806 13.9336 12.8394V18.0979C13.9336 18.4769 14.2407 18.7845 14.6198 18.7845C14.8065 18.7845 14.6198 18.7845 15.0989 18.7845L15.3596 23.2694C15.3596 23.6724 15.687 23.9995 16.0905 23.9995C16.2604 23.9995 16.5743 23.9995 16.8882 23.9995C17.2021 23.9995 17.516 23.9995 17.6859 23.9995C18.0894 23.9995 18.4169 23.6724 18.4169 23.2694L18.6775 18.7845C19.1566 18.7845 18.9699 18.7845 19.1566 18.7845C19.5356 18.7845 19.8428 18.4769 19.8428 18.0979V12.8394C19.8427 12.0806 19.018 11.2559 18.26 11.2559Z" fill="#4C4C4C"/>
</g>
<defs>
<clipPath id="clip0_21441_88509">
<rect width="24" height="24" fill="white"/>
</clipPath>
</defs>
</svg>
