<svg width="24" height="24" viewBox="0 0 24 24" fill="none" xmlns="http://www.w3.org/2000/svg">
<path d="M5.14746 11.1221H10.2904V12.8363H5.14746V11.1221Z" fill="#4C4C4C"/>
<path d="M4.2823 8.56555H18.0078V11.9145H19.722V3.39406C19.722 2.4575 18.9603 1.69531 18.0237 1.69531H17.3825C16.6981 1.69531 16.0922 2.08742 15.8384 2.69352C15.7046 3.0125 15.1859 3.0132 15.0521 2.69352C14.7975 2.08695 14.1917 1.69531 13.5078 1.69531H13.0821C12.3987 1.69531 11.7926 2.08695 11.5381 2.69352C11.4043 3.0125 10.8856 3.0125 10.7518 2.69352C10.4972 2.08695 9.89137 1.69531 9.2077 1.69531H8.79871C8.11434 1.69531 7.50848 2.08742 7.25465 2.69352C7.12082 3.0125 6.60215 3.0132 6.46832 2.69352C6.21379 2.08695 5.60793 1.69531 4.92402 1.69531H4.27785C3.34129 1.69531 2.5791 2.4575 2.5791 3.39406V22.2641H11.9825V20.5498H4.29262L4.2823 8.56555ZM4.88746 3.35609C5.22191 4.15461 5.99652 4.6707 6.8616 4.6707C7.72621 4.6707 8.50105 4.15508 8.79895 3.40977L9.17066 3.35656C9.50582 4.15508 10.2807 4.6707 11.1448 4.6707C12.0094 4.6707 12.7843 4.15508 13.0821 3.40977L13.471 3.35609C13.8054 4.15461 14.58 4.6707 15.4451 4.6707C16.3097 4.6707 17.0846 4.15508 17.3825 3.40977L18.0078 3.3943V6.85133H4.2809L4.27785 3.40977L4.88746 3.35609Z" fill="#4C4C4C"/>
<path d="M19.7029 18.8581L18.8216 16.7811C19.1144 16.4147 19.2895 15.9502 19.2895 15.4446C19.2895 14.2611 18.3302 13.3018 17.1466 13.3018C15.9632 13.3018 15.0037 14.2611 15.0037 15.4446C15.0037 15.9516 15.1799 16.4175 15.4743 16.7843L14.5945 18.8581H12.8535V22.2882H21.4248V18.8581H19.7029ZM17.1468 14.5875C17.6195 14.5875 18.0039 14.9721 18.0039 15.4446C18.0039 15.9174 17.6193 16.3018 17.1468 16.3018C16.6743 16.3018 16.2897 15.9171 16.2897 15.4446C16.2897 14.9721 16.6741 14.5875 17.1468 14.5875ZM16.5644 17.5074C16.7539 17.5608 16.9499 17.5877 17.1468 17.5875C17.35 17.5875 17.5466 17.5592 17.7327 17.5064L18.3063 18.8583H15.9913L16.5644 17.5074ZM20.1395 21.0026H14.1395V20.1439H20.1395V21.0026Z" fill="#4C4C4C"/>
</svg>
