<svg width="24" height="24" viewBox="0 0 24 24" fill="none" xmlns="http://www.w3.org/2000/svg">
<path d="M7 3H5C3.89543 3 3 3.89543 3 5V7M3 17V19C3 20.1046 3.89543 21 5 21H7M17 21H19C20.1046 21 21 20.1046 21 19V17M21 7V5C21 3.89543 20.1046 3 19 3H17" stroke="#4C4C4C" stroke-linecap="round" stroke-linejoin="round"/>
<path d="M12 12C13.6569 12 15 10.6569 15 9C15 7.34315 13.6569 6 12 6C10.3431 6 9 7.34315 9 9C9 10.6569 10.3431 12 12 12Z" stroke="#4C4C4C" stroke-linecap="round" stroke-linejoin="round"/>
<path d="M17 16C17 13.7909 14.7614 12 12 12C9.23858 12 7 13.7909 7 16" stroke="#4C4C4C" stroke-linecap="round" stroke-linejoin="round"/>
</svg>
