<svg width="24" height="24" viewBox="0 0 24 24" fill="none" xmlns="http://www.w3.org/2000/svg">
<path fill-rule="evenodd" clip-rule="evenodd" d="M13.002 15.0859C13.002 15.6382 12.5543 16.0859 12.002 16.0859C11.4497 16.0859 11.002 15.6382 11.002 15.0859V6.99971L8.20906 9.79263C7.81854 10.1832 7.18537 10.1832 6.79485 9.79263C6.40432 9.40211 6.40432 8.76894 6.79485 8.37842L10.5878 4.58548C11.3688 3.80443 12.6352 3.80443 13.4162 4.58548L17.2072 8.37647C17.5977 8.76699 17.5977 9.40016 17.2072 9.79068C16.8167 10.1812 16.1835 10.1812 15.793 9.79068L13.002 6.99968V15.0859Z" fill="#4C4C4C"/>
<path fill-rule="evenodd" clip-rule="evenodd" d="M4 14C4.55228 14 5 14.4477 5 15V17C5 17.5523 5.44772 18 6 18H18C18.5523 18 19 17.5523 19 17V15C19 14.4477 19.4477 14 20 14C20.5523 14 21 14.4477 21 15V17C21 18.6569 19.6569 20 18 20H6C4.34315 20 3 18.6569 3 17V15C3 14.4477 3.44772 14 4 14Z" fill="#4C4C4C"/>
</svg>
