<svg width="24" height="24" viewBox="0 0 24 24" fill="none" xmlns="http://www.w3.org/2000/svg">
<path fill-rule="evenodd" clip-rule="evenodd" d="M15.8101 14.3927C16.0443 14.2156 16.2525 14.004 16.4272 13.7636C16.7996 13.251 17.0002 12.6338 17.0002 12.0002C17.0002 11.3667 16.7996 10.7494 16.4272 10.2369C16.2524 9.99632 16.044 9.78462 15.8097 9.60744C15.7527 9.56434 15.698 9.51756 15.6464 9.46763C15.599 9.42187 15.5542 9.37346 15.5124 9.32283C15.2478 9.00174 15.1079 8.59101 15.2362 8.196C15.4069 7.67075 15.9783 7.37508 16.4592 7.6467C16.6529 7.75611 16.8389 7.87826 17.0161 8.01224M17.0161 8.01224C17.4064 8.30748 17.754 8.66047 18.0452 9.0613C18.6659 9.91554 19.0002 10.9443 19.0002 12.0002C19.0002 13.0561 18.6659 14.0849 18.0452 14.9392C17.7539 15.3401 17.4066 15.6929 17.0161 15.9882C16.8389 16.1222 16.6529 16.2443 16.4592 16.3538C15.9783 16.6254 15.4069 16.3297 15.2362 15.8045C15.1079 15.4094 15.2478 14.9987 15.5124 14.6776C15.5542 14.627 15.599 14.5786 15.6464 14.5328C15.698 14.4829 15.7531 14.4358 15.8101 14.3927" fill="#4C4C4C"/>
<path fill-rule="evenodd" clip-rule="evenodd" d="M17.8876 17.2591C18.6588 16.8357 19.3317 16.2455 19.8542 15.5263C20.5989 14.5012 21.0001 13.2667 21.0001 11.9996C21.0001 10.7325 20.5989 9.49795 19.8542 8.47286C19.3064 7.71895 18.5935 7.10679 17.7752 6.6799C17.7739 6.67924 17.7726 6.67857 17.7713 6.6779C17.7359 6.65926 17.7015 6.63902 17.6682 6.61733C17.6321 6.59378 17.5973 6.56851 17.564 6.54169C17.2063 6.25369 17.0188 5.78657 17.1632 5.34218C17.3339 4.81693 17.9017 4.52388 18.4015 4.75871C18.5022 4.80599 18.6018 4.85533 18.7002 4.90669C19.7912 5.47584 20.7418 6.29203 21.4722 7.29729C22.4652 8.66407 23.0001 10.3101 23.0001 11.9996C23.0001 13.689 22.4652 15.3351 21.4722 16.7019C20.7418 17.7071 19.7912 18.5233 18.7002 19.0925C18.6018 19.1438 18.5022 19.1932 18.4015 19.2404C17.9017 19.4753 17.3339 19.1822 17.1632 18.657C17.0188 18.2126 17.2063 17.7455 17.564 17.4575C17.5973 17.4306 17.6321 17.4054 17.6682 17.3818C17.7015 17.3601 17.7359 17.3399 17.7713 17.3212C17.7726 17.3206 17.7739 17.3199 17.7752 17.3192C17.8129 17.2996 17.8503 17.2795 17.8876 17.2591Z" fill="#4C4C4C"/>
<path fill-rule="evenodd" clip-rule="evenodd" d="M6 14.9997C6.48445 14.9997 6.95243 15.1755 7.31701 15.4945L12 19.5921L12 4.40721L7.31701 8.50483C6.95243 8.82384 6.48445 8.99968 6 8.99968H4C3.44772 8.99968 3 9.44739 3 9.99968V13.9997C3 14.552 3.44772 14.9997 4 14.9997H6ZM6 16.9997L10.683 21.0973C11.9762 22.2288 14 21.3105 14 19.5921V4.40721C14 2.6889 11.9762 1.77054 10.683 2.90206L6 6.99968H4C2.34315 6.99968 1 8.34282 1 9.99968V13.9997C1 15.6565 2.34315 16.9997 4 16.9997H6Z" fill="#4C4C4C"/>
</svg>
