<svg width="24" height="24" viewBox="0 0 24 24" fill="none" xmlns="http://www.w3.org/2000/svg">
<path d="M17.74 22.7502H7.63C7.31 22.7502 7.03 22.5503 6.92 22.2603C6.81 21.9603 6.9 21.6302 7.14 21.4302C7.38 21.2302 7.6 20.9702 7.76 20.6902C8.08 20.1802 8.24 19.6003 8.24 19.0103C8.24 17.2203 6.78 15.7603 4.99 15.7603C4.25 15.7603 3.55 16.0102 2.96 16.4802C2.73 16.6602 2.43 16.6903 2.17 16.5703C1.91 16.4503 1.75 16.1803 1.75 15.8903V11.5203C1.75 9.03026 3.77 7.01025 6.26 7.01025H17.74C20.23 7.01025 22.25 9.03026 22.25 11.5203V12.9603C22.25 13.3703 21.91 13.7103 21.5 13.7103H19.48C19.13 13.7103 18.81 13.8403 18.58 14.0803L18.57 14.0903C18.29 14.3603 18.16 14.7302 18.19 15.1102C18.25 15.7702 18.88 16.3002 19.6 16.3002H21.5C21.91 16.3002 22.25 16.6402 22.25 17.0502V18.2402C22.25 20.7302 20.23 22.7502 17.74 22.7502ZM9.18 21.2502H17.74C19.4 21.2502 20.75 19.9002 20.75 18.2402V17.8002H19.6C18.09 17.8002 16.81 16.6802 16.69 15.2402C16.61 14.4202 16.91 13.6103 17.51 13.0203C18.03 12.4903 18.73 12.2003 19.48 12.2003H20.75V11.5103C20.75 9.85025 19.4 8.50024 17.74 8.50024H6.26C4.6 8.50024 3.25 9.85025 3.25 11.5103V14.5903C3.81 14.3703 4.4 14.2502 5 14.2502C7.62 14.2502 9.75 16.3802 9.75 19.0002C9.75 19.7902 9.55 20.5702 9.18 21.2502Z" fill="#4C4C4C"/>
<path d="M2.5 13.16C2.09 13.16 1.75 12.82 1.75 12.41V7.84006C1.75 6.35006 2.69 5.00001 4.08 4.47001L12.02 1.47001C12.83 1.16001 13.75 1.27005 14.46 1.77005C15.18 2.27005 15.6 3.08005 15.6 3.95005V7.75003C15.6 8.16003 15.26 8.50003 14.85 8.50003C14.44 8.50003 14.1 8.16003 14.1 7.75003V3.95005C14.1 3.57005 13.92 3.22003 13.6 3.00003C13.28 2.78003 12.9 2.73003 12.54 2.87003L4.6 5.87003C3.79 6.18003 3.24 6.97006 3.24 7.84006V12.41C3.25 12.83 2.91 13.16 2.5 13.16Z" fill="#4C4C4C"/>
<path d="M19.6024 17.7997C18.0924 17.7997 16.8124 16.6797 16.6924 15.2397C16.6124 14.4097 16.9124 13.5997 17.5124 13.0097C18.0224 12.4897 18.7224 12.1997 19.4724 12.1997H21.5524C22.5424 12.2297 23.3024 13.0097 23.3024 13.9697V16.0297C23.3024 16.9897 22.5424 17.7697 21.5824 17.7997H19.6024ZM21.5324 13.6997H19.4824C19.1324 13.6997 18.8124 13.8297 18.5824 14.0697C18.2924 14.3497 18.1524 14.7297 18.1924 15.1097C18.2524 15.7697 18.8824 16.2997 19.6024 16.2997H21.5624C21.6924 16.2997 21.8124 16.1797 21.8124 16.0297V13.9697C21.8124 13.8197 21.6924 13.7097 21.5324 13.6997Z" fill="#4C4C4C"/>
<path d="M14 12.75H7C6.59 12.75 6.25 12.41 6.25 12C6.25 11.59 6.59 11.25 7 11.25H14C14.41 11.25 14.75 11.59 14.75 12C14.75 12.41 14.41 12.75 14 12.75Z" fill="#4C4C4C"/>
<path d="M5 14.75C7.34386 14.75 9.25 16.6561 9.25 19C9.25 19.7783 9.03548 20.5373 8.63477 21.1875L8.62988 21.1943L8.62598 21.2021C8.41887 21.5645 8.12914 21.9003 7.78809 22.1875L7.77246 22.2012C7.03899 22.8728 6.051 23.25 5 23.25C3.51454 23.25 2.11991 22.4613 1.37109 21.1865L1.36426 21.1748L1.22266 20.9307C0.914177 20.3473 0.75 19.6816 0.75 19C0.75 17.6912 1.33172 16.4852 2.3418 15.6807C3.09317 15.0814 4.04327 14.75 5 14.75ZM5 15.25C4.14363 15.25 3.33473 15.5403 2.65918 16.0781C1.76919 16.7833 1.25 17.8579 1.25 19C1.25 19.6759 1.4326 20.3435 1.78906 20.9229V20.9238C2.47063 22.079 3.67633 22.75 5 22.75C5.91188 22.75 6.79024 22.4145 7.46289 21.8115C7.75936 21.5586 8.01523 21.2583 8.2041 20.9277L8.20312 20.9268C8.56714 20.339 8.75 19.6742 8.75 19C8.75 16.9339 7.06614 15.25 5 15.25Z" fill="#7332D6" stroke="#7332D6"/>
<path d="M3.00007 18.0751C3.00007 18.0751 3.00682 17.4585 3.62864 17.1423C3.81557 17.0472 4.02355 17 4.23371 17H5.94719C6.0067 17 6.06601 17.0065 6.12393 17.02C6.12698 17.0207 6.13009 17.0214 6.13326 17.0222C6.64322 17.1455 7 17.6008 7 18.1203V18.8772C7 19.1833 6.90415 19.4831 6.72 19.7291C6.7151 19.7356 6.71014 19.7422 6.70504 19.7487C6.46992 20.0516 6.10262 20.2253 5.71658 20.2253H3.90943V20.9995L3 21V18.0751L3.00007 18.0751Z" fill="white"/>
<path d="M3.93915 19.6851C3.9273 19.6976 3.90625 19.6895 3.90625 19.6724V18.3062C3.90625 18.3062 3.91141 18.0083 4.1609 17.8903C4.22007 17.8622 4.28534 17.8491 4.35094 17.8491H5.6801C5.77409 17.8491 5.8667 17.8756 5.94434 17.928C5.99703 17.9636 6.04972 18.015 6.08904 18.0892C6.12492 18.1568 6.1422 18.2325 6.1422 18.3089V18.9146C6.1422 19.0126 6.11817 19.1095 6.06938 19.1948C5.99558 19.3238 5.84803 19.4623 5.55433 19.4661L4.38913 19.4765C4.38913 19.4765 4.14091 19.4734 3.93921 19.6852L3.93915 19.6851Z" fill="#1E1E23"/>
</svg>
