<svg xmlns="http://www.w3.org/2000/svg" width="24" height="24" viewBox="0 0 24 24">
  <defs/>
  <path fill="#4C4C4C" d="M8.448,4.52 C7.199,4.52 6.188,3.508 6.188,2.26 C6.188,1.011 7.199,0 8.448,0 C9.696,0 10.708,1.011 10.708,2.26 C10.708,3.508 9.696,4.52 8.448,4.52 Z"/>
  <path fill="#4C4C4C" d="M10.406,5.591 C11.501,5.591 12.693,6.782 12.693,7.878 L12.693,15.474 C12.693,16.022 12.249,16.466 11.701,16.466 L11.009,16.466 L10.632,22.945 C10.632,23.528 10.16,24 9.577,24 L7.272,24 C6.689,24 6.216,23.528 6.216,22.945 L5.839,16.466 L5.147,16.466 C4.6,16.466 4.156,16.022 4.156,15.474 L4.156,7.878 C4.156,6.782 5.348,5.591 6.443,5.591 Z"/>
  <path fill="#4C4C4C" d="M16.9,10.515 C16.036,10.515 15.336,9.815 15.336,8.951 C15.336,8.086 16.036,7.386 16.9,7.386 C17.765,7.386 18.465,8.086 18.465,8.951 C18.465,9.815 17.765,10.515 16.9,10.515 Z"/>
  <path fill="#4C4C4C" d="M18.256,11.256 C19.014,11.256 19.839,12.081 19.839,12.84 L19.839,18.098 C19.839,18.477 19.532,18.785 19.153,18.785 L18.674,18.785 L18.413,23.27 C18.413,23.673 18.086,24 17.682,24 L16.087,24 C15.683,24 15.356,23.673 15.356,23.27 L15.095,18.785 L14.616,18.785 C14.237,18.785 13.93,18.477 13.93,18.098 L13.93,12.84 C13.93,12.081 14.754,11.256 15.512,11.256 Z"/>
</svg>