<svg xmlns="http://www.w3.org/2000/svg" width="24" height="24" viewBox="0 0 24 24">
  <defs/>
  <path fill="#4C4C4C" d="M15.241,1.25 Q18.482,1.25 19.147,3.725 Q19.751,5.975 17.765,7.775 L13.116,12 L17.765,16.225 Q19.751,18.025 19.147,20.275 Q18.482,22.75 15.241,22.75 L8.761,22.75 Q5.52,22.75 4.855,20.275 Q4.251,18.025 6.237,16.224 L10.886,12 L6.237,7.776 Q4.251,5.975 4.855,3.725 Q5.52,1.25 8.761,1.25 Z M12.001,13.013 L7.245,17.336 Q5.937,18.521 6.304,19.885 Q6.671,21.25 8.761,21.25 L15.241,21.25 Q17.331,21.25 17.698,19.885 Q18.065,18.521 16.757,17.335 L12.001,13.013 Z M15.241,2.75 L8.761,2.75 Q6.671,2.75 6.304,4.115 Q5.937,5.479 7.245,6.664 L12.001,10.987 L16.757,6.665 Q18.065,5.479 17.698,4.115 Q17.331,2.75 15.241,2.75 Z"/>
</svg>