<svg xmlns="http://www.w3.org/2000/svg" width="24" height="24" viewBox="0 0 24 24">
  <defs/>
  <path fill="#4C4C4C" d="M23,9.64 L19.637,9.64 L19.2,3.28 C19.1,1.44 17.2,0 14.9,0 L9.1,0 C6.8,0 4.95,1.44 4.8,3.28 L4.364,9.6 L1,9.6 C0.45,9.6 0,9.96 0,10.4 L0,11.2 C0,11.64 0.45,12 1,12 L1,16.4 C1,17.08 1.65,17.6 2.5,17.6 L3,17.6 L3,18 C3,18.24 3.2,18.4 3.5,18.4 L5,18.4 L5,22.8 C5,23.48 5.65,24 6.5,24 C7.35,24 8,23.48 8,22.8 L8,18.4 L16,18.4 L16,22.8 C16,23.48 16.65,24 17.5,24 C18.35,24 19,23.48 19,22.8 L19,18.4 L20.5,18.4 C20.8,18.4 21,18.24 21,18 L21,17.6 L21.5,17.6 C22.35,17.6 23,17.08 23,16.44 L23,12 C23.55,12 24,11.64 24,11.24 L24,10.44 C24,10 23.55,9.64 23,9.64 Z M9.1,0.8 L14.9,0.8 C16.65,0.8 18.1,1.92 18.2,3.32 L18.759,11.56 C18.753,11.585 18.75,11.611 18.75,11.64 L18.871,13.217 L18.899,13.625 C18.865,13.62 18.831,13.617 18.797,13.614 C18.709,13.6 18.605,13.6 18.5,13.6 L5.5,13.6 C5.395,13.6 5.291,13.6 5.203,13.614 C5.169,13.617 5.135,13.62 5.101,13.625 L5.235,11.657 C5.241,11.638 5.246,11.62 5.25,11.6 L5.35,10 C5.35,9.993 5.349,9.986 5.348,9.978 L5.8,3.32 C5.9,1.92 7.35,0.8 9.1,0.8 Z M1,10.4 L4.3,10.4 L4.25,11.2 L1.5,11.2 L1,11.2 L1,10.4 Z M2.5,16.8 C2.2,16.8 2,16.64 2,16.4 L2,12 L4.199,12 L4.189,12.145 L4.05,13.96 C4.041,13.966 4.033,13.972 4.024,13.977 C3.4,14.338 3,14.925 3,15.6 L3,16.8 L2.5,16.8 Z M7,22.8 C7,23.04 6.8,23.2 6.5,23.2 C6.2,23.2 6,23.04 6,22.8 L6,18.4 L7,18.4 L7,22.8 Z M18,22.8 C18,23.04 17.8,23.2 17.5,23.2 C17.2,23.2 17,23.04 17,22.8 L17,18.4 L18,18.4 L18,22.8 Z M20,17.6 L18.5,17.6 L16.5,17.6 L7.5,17.6 L5.5,17.6 L4,17.6 L4,17.2 L4,15.6 C4,15.573 4.001,15.547 4.003,15.52 C4.004,15.518 4.004,15.517 4.004,15.515 C4.026,15.26 4.15,15.021 4.342,14.823 C4.435,14.735 4.543,14.657 4.665,14.594 C4.707,14.588 4.753,14.579 4.8,14.56 C4.921,14.487 5.06,14.444 5.207,14.421 C5.222,14.419 5.238,14.417 5.254,14.415 C5.262,14.414 5.27,14.413 5.277,14.412 C5.298,14.41 5.318,14.408 5.338,14.406 C5.346,14.406 5.353,14.405 5.36,14.405 C5.379,14.404 5.398,14.402 5.417,14.402 C5.445,14.401 5.472,14.4 5.5,14.4 L18.5,14.4 C18.528,14.4 18.555,14.401 18.583,14.402 C18.602,14.402 18.621,14.404 18.64,14.405 C18.647,14.405 18.655,14.406 18.662,14.406 C18.682,14.408 18.703,14.41 18.723,14.412 C18.73,14.413 18.738,14.414 18.746,14.415 C18.762,14.417 18.778,14.419 18.793,14.421 C18.94,14.444 19.079,14.487 19.2,14.56 C19.221,14.571 19.242,14.58 19.265,14.588 C19.695,14.782 19.962,15.129 19.996,15.516 C19.996,15.517 19.997,15.518 19.997,15.52 C19.999,15.546 20,15.573 20,15.6 L20,17.2 L20,17.6 Z M22,16.4 C22,16.64 21.8,16.8 21.5,16.8 L21,16.8 L21,15.6 C21,15.561 20.998,15.523 20.996,15.484 C20.995,15.47 20.993,15.455 20.992,15.441 C20.99,15.418 20.987,15.395 20.984,15.373 C20.982,15.354 20.979,15.335 20.976,15.316 C20.973,15.3 20.97,15.284 20.966,15.268 C20.962,15.244 20.957,15.221 20.951,15.199 C20.95,15.192 20.948,15.185 20.946,15.178 C20.817,14.675 20.462,14.243 19.95,13.96 L19.8,12 L22,12 L22,16.4 Z M23,11.2 L19.75,11.2 L19.7,10.4 L23,10.4 L23,11.2 Z"/>
  <path fill="#4C4C4C" d="M7.247,3.76 C7.547,3.8 7.797,3.64 7.797,3.4 C7.847,2.84 8.397,2.4 9.097,2.4 L14.897,2.4 C15.597,2.4 16.147,2.84 16.197,3.4 C16.197,3.6 16.447,3.76 16.697,3.76 C16.997,3.76 17.197,3.56 17.197,3.36 C17.147,2.36 16.147,1.6 14.897,1.6 L9.097,1.6 C7.897,1.6 6.847,2.36 6.797,3.32 C6.747,3.56 6.947,3.76 7.247,3.76 Z"/>
  <path fill="#4C4C4C" d="M7.247,3.761 Q7.022,3.761 6.89,3.631 Q6.758,3.501 6.796,3.32 Q6.885,1.599 9.097,1.599 L14.897,1.599 Q17.11,1.599 17.198,3.36 Q17.198,3.761 16.697,3.761 Q16.196,3.761 16.196,3.4 L16.196,3.4 Q16.106,2.401 14.897,2.401 L9.097,2.401 Q7.887,2.401 7.798,3.4 L7.798,3.4 Q7.798,3.58 7.635,3.686 Q7.473,3.791 7.247,3.761 Z M7.247,3.759 Q7.472,3.789 7.634,3.684 Q7.796,3.579 7.796,3.4 L7.796,3.4 L7.796,3.4 Q7.885,2.399 9.097,2.399 L14.897,2.399 Q16.108,2.399 16.198,3.4 L16.198,3.4 L16.198,3.4 Q16.198,3.759 16.697,3.759 Q17.196,3.759 17.196,3.36 L17.196,3.36 Q17.108,1.601 14.897,1.601 L9.097,1.601 Q6.887,1.601 6.798,3.32 L6.798,3.32 L6.798,3.32 Q6.76,3.5 6.891,3.629 Q7.023,3.759 7.247,3.759 L7.247,3.759 Z"/>
</svg>