<svg xmlns="http://www.w3.org/2000/svg" width="24" height="24" viewBox="0 0 24 24">
  <defs/>
  <path fill="#4C4C4C" d="M5.148,11.122 L10.291,11.122 L10.291,12.836 L5.148,12.836 L5.148,11.122 Z"/>
  <path fill="#4C4C4C" d="M4.281,8.565 L18.007,8.565 L18.007,11.914 L19.721,11.914 L19.721,3.394 C19.721,2.457 18.959,1.695 18.023,1.695 L17.381,1.695 C16.697,1.695 16.091,2.087 15.837,2.693 C15.704,3.012 15.185,3.013 15.051,2.693 C14.797,2.086 14.191,1.695 13.507,1.695 L13.081,1.695 C12.398,1.695 11.792,2.086 11.537,2.693 C11.403,3.012 10.885,3.012 10.751,2.693 C10.496,2.086 9.89,1.695 9.207,1.695 L8.798,1.695 C8.113,1.695 7.508,2.087 7.254,2.693 C7.12,3.012 6.601,3.013 6.467,2.693 C6.213,2.086 5.607,1.695 4.923,1.695 L4.277,1.695 C3.34,1.695 2.578,2.457 2.578,3.394 L2.578,22.264 L11.982,22.264 L11.982,20.549 L4.292,20.549 L4.281,8.565 Z M4.886,3.356 C5.221,4.154 5.996,4.67 6.861,4.67 C7.725,4.67 8.5,4.155 8.798,3.409 L9.17,3.356 C9.505,4.155 10.28,4.67 11.144,4.67 C12.008,4.67 12.783,4.155 13.081,3.409 L13.47,3.356 C13.805,4.154 14.579,4.67 15.444,4.67 C16.309,4.67 17.084,4.155 17.381,3.409 L18.007,3.394 L18.007,6.851 L4.28,6.851 L4.277,3.409 L4.886,3.356 Z"/>
  <path fill="#4C4C4C" d="M19.701,18.858 L18.82,16.781 C19.112,16.415 19.288,15.95 19.288,15.445 C19.288,14.261 18.328,13.302 17.145,13.302 C15.961,13.302 15.002,14.261 15.002,15.445 C15.002,15.952 15.178,16.418 15.472,16.784 L14.592,18.858 L12.852,18.858 L12.852,22.288 L21.423,22.288 L21.423,18.858 L19.701,18.858 Z M17.145,14.588 C17.618,14.588 18.002,14.972 18.002,15.445 C18.002,15.917 17.617,16.302 17.145,16.302 C16.672,16.302 16.288,15.917 16.288,15.445 C16.288,14.972 16.672,14.588 17.145,14.588 Z M16.562,17.507 C16.752,17.561 16.948,17.588 17.145,17.587 C17.348,17.587 17.545,17.559 17.731,17.506 L18.304,18.858 L15.989,18.858 L16.562,17.507 Z M20.138,21.003 L14.138,21.003 L14.138,20.144 L20.138,20.144 L20.138,21.003 Z"/>
</svg>