<svg xmlns="http://www.w3.org/2000/svg" width="24" height="24" viewBox="0 0 24 24">
  <defs/>
  <path fill="#4C4C4C" d="M12,22.75 Q7.564,22.75 4.407,19.593 Q1.25,16.436 1.25,12 Q1.25,7.564 4.407,4.407 Q7.564,1.25 12,1.25 Q16.436,1.25 19.593,4.407 Q22.75,7.564 22.75,12 Q22.75,16.436 19.593,19.593 Q16.436,22.75 12,22.75 Z M12,21.25 Q15.814,21.25 18.532,18.532 Q21.25,15.814 21.25,12 Q21.25,8.186 18.532,5.468 Q15.814,2.75 12,2.75 Q8.186,2.75 5.468,5.468 Q2.75,8.186 2.75,12 Q2.75,15.814 5.468,18.532 Q8.186,21.25 12,21.25 Z"/>
  <path fill="#4C4C4C" d="M8,11.25 L16,11.25 Q16.311,11.25 16.53,11.47 Q16.75,11.689 16.75,12 Q16.75,12.311 16.53,12.53 Q16.311,12.75 16,12.75 L8,12.75 Q7.689,12.75 7.47,12.53 Q7.25,12.311 7.25,12 Q7.25,11.689 7.47,11.47 Q7.689,11.25 8,11.25 Z"/>
  <path fill="#4C4C4C" d="M11.25,16 L11.25,8 Q11.25,7.689 11.47,7.47 Q11.689,7.25 12,7.25 Q12.311,7.25 12.53,7.47 Q12.75,7.689 12.75,8 L12.75,16 Q12.75,16.311 12.53,16.53 Q12.311,16.75 12,16.75 Q11.689,16.75 11.47,16.53 Q11.25,16.311 11.25,16 Z"/>
</svg>