<svg xmlns="http://www.w3.org/2000/svg" width="24" height="24" viewBox="0 0 24 24">
  <defs/>
  <path fill="#292D32" d="M22,22.75 L2,22.75 C1.59,22.75 1.25,22.41 1.25,22 C1.25,21.59 1.59,21.25 2,21.25 L22,21.25 C22.41,21.25 22.75,21.59 22.75,22 C22.75,22.41 22.41,22.75 22,22.75 Z"/>
  <path fill="#292D32" d="M21,22.75 L3,22.75 C2.59,22.75 2.25,22.41 2.25,22 L2.25,15 C2.25,9.62 6.62,5.25 12,5.25 C17.38,5.25 21.75,9.62 21.75,15 L21.75,22 C21.75,22.41 21.41,22.75 21,22.75 Z M3.75,21.25 L20.25,21.25 L20.25,15 C20.25,10.45 16.55,6.75 12,6.75 C7.45,6.75 3.75,10.45 3.75,15 L3.75,21.25 Z"/>
  <path fill="#292D32" d="M12,3.75 C11.59,3.75 11.25,3.41 11.25,3 L11.25,2 C11.25,1.59 11.59,1.25 12,1.25 C12.41,1.25 12.75,1.59 12.75,2 L12.75,3 C12.75,3.41 12.41,3.75 12,3.75 Z"/>
  <path fill="#292D32" d="M4.997,5.75 C4.808,5.75 4.617,5.68 4.468,5.53 L3.467,4.53 C3.178,4.24 3.178,3.76 3.467,3.47 C3.757,3.18 4.237,3.18 4.527,3.47 L5.527,4.47 C5.817,4.76 5.817,5.24 5.527,5.53 C5.378,5.68 5.188,5.75 4.997,5.75 Z"/>
  <path fill="#292D32" d="M18.997,5.75 C18.808,5.75 18.617,5.68 18.468,5.53 C18.177,5.24 18.177,4.76 18.468,4.47 L19.468,3.47 C19.758,3.18 20.238,3.18 20.527,3.47 C20.817,3.76 20.817,4.24 20.527,4.53 L19.527,5.53 C19.378,5.68 19.188,5.75 18.997,5.75 Z"/>
</svg>