<svg xmlns="http://www.w3.org/2000/svg" width="24" height="24" viewBox="0 0 24 24">
  <defs/>
  <path fill="#292D32" d="M17.028,19.75 L15.988,19.75 C13.978,19.75 13.008,18.82 13.008,16.9 L13.008,5.1 C13.008,4.69 13.348,4.35 13.758,4.35 C14.168,4.35 14.508,4.69 14.508,5.1 L14.508,16.9 C14.508,17.91 14.718,18.25 15.988,18.25 L17.028,18.25 C18.298,18.25 18.508,17.91 18.508,16.9 L18.508,5.1 C18.508,4.69 18.848,4.35 19.258,4.35 C19.668,4.35 20.008,4.69 20.008,5.1 L20.008,16.9 C20.008,18.82 19.038,19.75 17.028,19.75 Z"/>
  <path fill="#292D32" d="M8.528,14.75 L7.488,14.75 C5.478,14.75 4.508,13.82 4.508,11.9 L4.508,5.1 C4.508,4.69 4.848,4.35 5.258,4.35 C5.668,4.35 6.008,4.69 6.008,5.1 L6.008,11.9 C6.008,12.91 6.218,13.25 7.488,13.25 L8.528,13.25 C9.798,13.25 10.008,12.91 10.008,11.9 L10.008,5.1 C10.008,4.69 10.348,4.35 10.758,4.35 C11.168,4.35 11.508,4.69 11.508,5.1 L11.508,11.9 C11.508,13.82 10.538,14.75 8.528,14.75 Z"/>
  <path fill="#292D32" d="M22,5.75 L2,5.75 C1.58,5.75 1.25,5.41 1.25,5 C1.25,4.59 1.58,4.25 2,4.25 L22,4.25 C22.41,4.25 22.75,4.59 22.75,5 C22.75,5.41 22.42,5.75 22,5.75 Z"/>
</svg>