<svg xmlns="http://www.w3.org/2000/svg" width="24" height="24" viewBox="0 0 24 24">
  <defs/>
  <path fill="#292D32" d="M16.902,20 L5.102,20 C4.692,20 4.352,19.66 4.352,19.25 C4.352,18.84 4.692,18.5 5.102,18.5 L16.902,18.5 C17.912,18.5 18.252,18.29 18.252,17.02 L18.252,15.98 C18.252,14.71 17.912,14.5 16.902,14.5 L5.102,14.5 C4.692,14.5 4.352,14.16 4.352,13.75 C4.352,13.34 4.692,13 5.102,13 L16.902,13 C18.822,13 19.752,13.98 19.752,15.98 L19.752,17.02 C19.752,19.02 18.822,20 16.902,20 Z"/>
  <path fill="#292D32" d="M11.902,11.5 L5.102,11.5 C4.692,11.5 4.352,11.16 4.352,10.75 C4.352,10.34 4.692,10 5.102,10 L11.902,10 C12.912,10 13.252,9.79 13.252,8.52 L13.252,7.48 C13.252,6.21 12.912,6 11.902,6 L5.102,6 C4.692,6 4.352,5.66 4.352,5.25 C4.352,4.84 4.692,4.5 5.102,4.5 L11.902,4.5 C13.822,4.5 14.752,5.48 14.752,7.48 L14.752,8.52 C14.752,10.52 13.822,11.5 11.902,11.5 Z"/>
  <path fill="#292D32" d="M5,22.74 C4.59,22.74 4.25,22.4 4.25,21.99 L4.25,1.99 C4.25,1.58 4.59,1.24 5,1.24 C5.41,1.24 5.75,1.58 5.75,1.99 L5.75,21.99 C5.75,22.4 5.41,22.74 5,22.74 Z"/>
</svg>