<svg xmlns="http://www.w3.org/2000/svg" width="24" height="24" viewBox="0 0 24 24">
  <defs>
    <linearGradient id="paint0_linear_21443_89074" x1="2.64723" y1="0.474443" x2="28.035" y2="10.7002" gradientUnits="userSpaceOnUse">
      <stop offset="0.0001" stop-color="#7332D6"/>
      <stop offset="0.50005" stop-color="#32155A"/>
      <stop offset="1" stop-color="#5D28AC"/>
    </linearGradient>
  </defs>
  <path fill="url(#paint0_linear_21443_89074)" d="M18.52,13.547 L21.656,23.812 L14.156,23.812 L10.898,21.938 L15.164,21.938 C15.28,21.938 15.38,21.886 15.388,21.768 C15.397,21.655 15.297,21.562 15.184,21.562 L4.477,21.562 C3.37,21.562 2.344,20.616 2.344,19.5 L2.344,2.344 C2.344,1.178 3.335,0.188 4.5,0.188 L15.094,0.188 C16.191,0.188 17.062,1.059 17.062,2.156 L17.062,12.938 L17.658,12.938 C18.052,12.938 18.389,13.172 18.52,13.547 Z M15.656,12.938 L15.656,2.906 L3.844,2.906 L3.844,18.75 L15.67,18.75 L15.67,14.812 L13.814,14.812 C13.317,14.812 12.895,14.372 12.895,13.875 C12.895,13.378 13.317,12.938 13.814,12.938 Z M14.51,8.439 L12.904,10.05 L11.293,8.439 L12.289,8.439 C12.29,8.404 12.291,8.38 12.291,8.344 C12.291,6.928 11.139,5.776 9.723,5.776 C8.988,5.776 8.324,6.086 7.855,6.583 L6.984,5.715 C7.675,4.995 8.646,4.549 9.722,4.549 C11.816,4.549 13.522,6.249 13.522,8.344 C13.522,8.379 13.519,8.404 13.517,8.439 Z M7.155,8.439 C7.211,9.806 8.343,10.912 9.723,10.912 C10.403,10.912 11.021,10.647 11.481,10.213 L12.353,11.082 C11.67,11.738 10.742,12.142 9.722,12.142 C7.663,12.142 5.985,10.484 5.929,8.439 L4.934,8.439 L6.54,6.851 L8.151,8.439 Z M9.848,20.644 C10.148,20.644 10.364,20.419 10.373,20.119 C10.373,19.819 10.149,19.594 9.849,19.594 C9.563,19.594 9.323,19.833 9.323,20.119 C9.324,20.419 9.549,20.644 9.848,20.644 Z"/>
</svg>