<svg xmlns="http://www.w3.org/2000/svg" width="24" height="24" viewBox="0 0 24 24">
  <defs/>
  <path fill="#4C4C4C" d="M18.951,12.672 C18.974,15.033 20.346,16.377 21.326,17.038 C21.847,17.389 22.159,18.008 21.916,18.577 C21.64,19.223 21.203,20.104 20.571,20.999 C19.532,22.471 18.454,23.938 16.756,23.968 C15.087,23.998 14.55,23.009 12.642,23.009 C10.734,23.009 10.138,23.938 8.558,23.998 C6.918,24.059 5.67,22.407 4.622,20.94 C2.482,17.939 0.846,12.461 3.042,8.764 C4.134,6.927 6.084,5.764 8.2,5.735 C9.81,5.705 11.33,6.785 12.314,6.785 C13.298,6.785 15.144,5.486 17.086,5.677 C17.753,5.704 19.41,5.901 20.793,7.121 C21.318,7.585 21.131,8.372 20.625,8.855 C19.854,9.589 18.934,10.848 18.951,12.672 Z M15.814,3.692 C16.453,2.942 16.938,1.977 17.088,0.958 C17.181,0.329 16.594,-0.153 15.972,0.045 C15.026,0.347 14.077,0.94 13.439,1.665 C12.821,2.357 12.262,3.369 12.12,4.427 C12.044,4.993 12.544,5.453 13.119,5.333 C14.168,5.114 15.152,4.469 15.814,3.692 Z"/>
</svg>