<svg xmlns="http://www.w3.org/2000/svg" width="24" height="24" viewBox="0 0 24 24">
  <defs/>
  <path fill="#292D32" d="M4.933,22.75 C4.513,22.75 4.122,22.65 3.772,22.45 C3.002,22 2.562,21.09 2.562,19.96 L2.562,5.86 C2.562,3.32 4.633,1.25 7.173,1.25 L16.823,1.25 C19.363,1.25 21.433,3.32 21.433,5.86 L21.433,19.95 C21.433,21.08 20.992,21.99 20.223,22.44 C19.453,22.89 18.442,22.84 17.453,22.29 L12.572,19.58 C12.283,19.42 11.713,19.42 11.422,19.58 L6.543,22.29 C6.003,22.59 5.452,22.75 4.933,22.75 Z M7.183,2.75 C5.473,2.75 4.072,4.15 4.072,5.86 L4.072,19.95 C4.072,20.54 4.242,20.98 4.543,21.15 C4.843,21.32 5.312,21.27 5.822,20.98 L10.703,18.27 C11.443,17.86 12.562,17.86 13.303,18.27 L18.183,20.98 C18.692,21.27 19.163,21.33 19.462,21.15 C19.762,20.97 19.933,20.53 19.933,19.95 L19.933,5.86 C19.933,4.15 18.532,2.75 16.823,2.75 L7.183,2.75 Z"/>
  <path fill="#292D32" d="M11.091,13.25 C10.901,13.25 10.711,13.18 10.561,13.03 L9.061,11.53 C8.771,11.24 8.771,10.76 9.061,10.47 C9.351,10.18 9.831,10.18 10.121,10.47 L11.091,11.44 L14.561,7.97 C14.851,7.68 15.331,7.68 15.621,7.97 C15.911,8.26 15.911,8.74 15.621,9.03 L11.621,13.03 C11.471,13.18 11.281,13.25 11.091,13.25 Z"/>
</svg>