<svg xmlns="http://www.w3.org/2000/svg" width="24" height="24" viewBox="0 0 24 24">
  <defs/>
  <path fill="#292D32" d="M1.998,22.75 C1.808,22.75 1.617,22.68 1.468,22.53 C1.177,22.24 1.177,21.76 1.468,21.47 L21.468,1.47 C21.758,1.18 22.238,1.18 22.527,1.47 C22.817,1.76 22.817,2.24 22.527,2.53 L2.527,22.53 C2.377,22.68 2.188,22.75 1.998,22.75 Z"/>
  <path fill="#292D32" d="M18.884,22.75 C18.324,22.75 17.724,22.58 17.124,22.25 L10.604,18.18 C10.254,17.96 10.144,17.5 10.364,17.15 C10.584,16.8 11.044,16.69 11.394,16.91 L17.884,20.96 C18.444,21.27 19.004,21.34 19.364,21.13 C19.724,20.92 19.934,20.4 19.934,19.71 L19.934,8.71 C19.934,8.3 20.274,7.96 20.684,7.96 C21.094,7.96 21.434,8.3 21.434,8.71 L21.434,19.71 C21.434,20.94 20.954,21.93 20.124,22.42 C19.754,22.64 19.334,22.75 18.884,22.75 Z"/>
  <path fill="#292D32" d="M3.32,20.7 C2.91,20.7 2.57,20.36 2.57,19.95 L2.57,5.86 C2.57,3.32 4.64,1.25 7.18,1.25 L16.83,1.25 C18.22,1.25 19.53,1.87 20.41,2.96 C20.67,3.28 20.62,3.75 20.3,4.02 C19.98,4.28 19.51,4.23 19.25,3.91 C18.65,3.17 17.77,2.75 16.83,2.75 L7.18,2.75 C5.47,2.75 4.07,4.15 4.07,5.86 L4.07,19.95 C4.07,20.36 3.73,20.7 3.32,20.7 Z"/>
</svg>