<svg xmlns="http://www.w3.org/2000/svg" width="24" height="24" viewBox="0 0 24 24">
  <defs/>
  <path fill="#292D32" d="M16.858,10.64 C16.668,10.64 16.478,10.57 16.328,10.42 L13.288,7.38 C12.998,7.09 12.998,6.61 13.288,6.32 C13.578,6.03 14.058,6.03 14.348,6.32 L17.388,9.36 C17.678,9.65 17.678,10.13 17.388,10.42 C17.238,10.56 17.048,10.64 16.858,10.64 Z"/>
  <path fill="#292D32" d="M13.82,17.9 C13.41,17.9 13.07,17.56 13.07,17.15 L13.07,6.84 C13.07,6.43 13.41,6.09 13.82,6.09 C14.23,6.09 14.57,6.43 14.57,6.84 L14.57,17.15 C14.57,17.57 14.23,17.9 13.82,17.9 Z"/>
  <path fill="#292D32" d="M10.178,17.9 C9.988,17.9 9.798,17.83 9.648,17.68 L6.608,14.64 C6.318,14.35 6.318,13.87 6.608,13.58 C6.898,13.29 7.378,13.29 7.668,13.58 L10.708,16.62 C10.998,16.91 10.998,17.39 10.708,17.68 C10.568,17.83 10.378,17.9 10.178,17.9 Z"/>
  <path fill="#292D32" d="M10.18,17.9 C9.77,17.9 9.43,17.56 9.43,17.15 L9.43,6.84 C9.43,6.43 9.77,6.09 10.18,6.09 C10.59,6.09 10.93,6.43 10.93,6.84 L10.93,17.15 C10.93,17.57 10.6,17.9 10.18,17.9 Z"/>
  <path fill="#292D32" d="M12,22.75 C6.07,22.75 1.25,17.93 1.25,12 C1.25,6.07 6.07,1.25 12,1.25 C17.93,1.25 22.75,6.07 22.75,12 C22.75,17.93 17.93,22.75 12,22.75 Z M12,2.75 C6.9,2.75 2.75,6.9 2.75,12 C2.75,17.1 6.9,21.25 12,21.25 C17.1,21.25 21.25,17.1 21.25,12 C21.25,6.9 17.1,2.75 12,2.75 Z"/>
</svg>