<svg xmlns="http://www.w3.org/2000/svg" width="24" height="24" viewBox="0 0 24 24">
  <defs/>
  <path fill="#292D32" d="M14.107,17.61 C13.917,17.61 13.727,17.54 13.577,17.39 C13.287,17.1 13.287,16.62 13.577,16.33 L16.617,13.29 C16.907,13 17.387,13 17.677,13.29 C17.967,13.58 17.967,14.06 17.677,14.35 L14.637,17.39 C14.497,17.53 14.307,17.61 14.107,17.61 Z"/>
  <path fill="#292D32" d="M17.154,14.57 L6.844,14.57 C6.434,14.57 6.094,14.23 6.094,13.82 C6.094,13.41 6.434,13.07 6.844,13.07 L17.154,13.07 C17.564,13.07 17.904,13.41 17.904,13.82 C17.904,14.23 17.574,14.57 17.154,14.57 Z"/>
  <path fill="#292D32" d="M6.849,10.93 C6.659,10.93 6.469,10.86 6.319,10.71 C6.029,10.42 6.029,9.94 6.319,9.65 L9.359,6.61 C9.649,6.32 10.129,6.32 10.419,6.61 C10.709,6.9 10.709,7.38 10.419,7.67 L7.379,10.71 C7.229,10.86 7.039,10.93 6.849,10.93 Z"/>
  <path fill="#292D32" d="M17.154,10.93 L6.844,10.93 C6.434,10.93 6.094,10.59 6.094,10.18 C6.094,9.77 6.434,9.43 6.844,9.43 L17.154,9.43 C17.564,9.43 17.904,9.77 17.904,10.18 C17.904,10.59 17.574,10.93 17.154,10.93 Z"/>
  <path fill="#292D32" d="M12,22.75 C6.07,22.75 1.25,17.93 1.25,12 C1.25,6.07 6.07,1.25 12,1.25 C17.93,1.25 22.75,6.07 22.75,12 C22.75,17.93 17.93,22.75 12,22.75 Z M12,2.75 C6.9,2.75 2.75,6.9 2.75,12 C2.75,17.1 6.9,21.25 12,21.25 C17.1,21.25 21.25,17.1 21.25,12 C21.25,6.9 17.1,2.75 12,2.75 Z"/>
</svg>