<svg xmlns="http://www.w3.org/2000/svg" width="24" height="24" viewBox="0 0 24 24">
  <defs/>
  <path fill="#292D32" d="M15,22.75 L9,22.75 C3.57,22.75 1.25,20.43 1.25,15 L1.25,9 C1.25,3.57 3.57,1.25 9,1.25 L15,1.25 C20.43,1.25 22.75,3.57 22.75,9 L22.75,15 C22.75,20.43 20.43,22.75 15,22.75 Z M9,2.75 C4.39,2.75 2.75,4.39 2.75,9 L2.75,15 C2.75,19.61 4.39,21.25 9,21.25 L15,21.25 C19.61,21.25 21.25,19.61 21.25,15 L21.25,9 C21.25,4.39 19.61,2.75 15,2.75 L9,2.75 Z"/>
  <path fill="#292D32" d="M11.996,14.91 C11.806,14.91 11.616,14.84 11.466,14.69 L7.936,11.16 C7.646,10.87 7.646,10.39 7.936,10.1 C8.226,9.81 8.706,9.81 8.996,10.1 L11.996,13.1 L14.996,10.1 C15.286,9.81 15.766,9.81 16.056,10.1 C16.346,10.39 16.346,10.87 16.056,11.16 L12.526,14.69 C12.376,14.84 12.186,14.91 11.996,14.91 Z"/>
</svg>