<svg xmlns="http://www.w3.org/2000/svg" width="24" height="24" viewBox="0 0 24 24">
  <defs/>
  <path fill="#292D32" d="M14.672,18.75 L9.332,18.75 C7.452,18.75 6.022,18.07 5.312,16.84 C4.602,15.61 4.732,14.03 5.672,12.4 L8.342,7.77 C9.282,6.15 10.582,5.25 12.002,5.25 C13.422,5.25 14.722,6.15 15.662,7.78 L18.332,12.41 C19.272,14.04 19.402,15.62 18.692,16.85 C17.982,18.07 16.552,18.75 14.672,18.75 Z M12.002,6.75 C11.142,6.75 10.302,7.38 9.642,8.53 L6.972,13.16 C6.312,14.31 6.182,15.35 6.612,16.1 C7.042,16.85 8.012,17.26 9.332,17.26 L14.672,17.26 C15.992,17.26 16.962,16.85 17.392,16.1 C17.822,15.35 17.692,14.31 17.032,13.16 L14.362,8.53 C13.702,7.38 12.862,6.75 12.002,6.75 Z"/>
</svg>