<svg xmlns="http://www.w3.org/2000/svg" width="24" height="24" viewBox="0 0 24 24">
  <defs/>
  <path fill="#292D32" d="M12,22.75 C6.07,22.75 1.25,17.93 1.25,12 C1.25,6.07 6.07,1.25 12,1.25 C17.93,1.25 22.75,6.07 22.75,12 C22.75,17.93 17.93,22.75 12,22.75 Z M12,2.75 C6.9,2.75 2.75,6.9 2.75,12 C2.75,17.1 6.9,21.25 12,21.25 C17.1,21.25 21.25,17.1 21.25,12 C21.25,6.9 17.1,2.75 12,2.75 Z"/>
  <path fill="#292D32" d="M15.526,14.01 C15.336,14.01 15.146,13.94 14.996,13.79 L11.996,10.79 L8.996,13.79 C8.706,14.08 8.226,14.08 7.936,13.79 C7.646,13.5 7.646,13.02 7.936,12.73 L11.466,9.2 C11.756,8.91 12.236,8.91 12.526,9.2 L16.056,12.73 C16.346,13.02 16.346,13.5 16.056,13.79 C15.906,13.94 15.716,14.01 15.526,14.01 Z"/>
</svg>