<svg xmlns="http://www.w3.org/2000/svg" width="24" height="24" viewBox="0 0 24 24">
  <defs/>
  <path fill="#292D32" d="M12,22.75 C6.07,22.75 1.25,17.93 1.25,12 C1.25,6.07 6.07,1.25 12,1.25 C17.93,1.25 22.75,6.07 22.75,12 C22.75,17.93 17.93,22.75 12,22.75 Z M12,2.75 C6.9,2.75 2.75,6.9 2.75,12 C2.75,17.1 6.9,21.25 12,21.25 C17.1,21.25 21.25,17.1 21.25,12 C21.25,6.9 17.1,2.75 12,2.75 Z"/>
  <path fill="#292D32" d="M11.996,15.01 C11.806,15.01 11.616,14.94 11.466,14.79 L7.936,11.26 C7.646,10.97 7.646,10.49 7.936,10.2 C8.226,9.91 8.706,9.91 8.996,10.2 L11.996,13.2 L14.996,10.2 C15.286,9.91 15.766,9.91 16.056,10.2 C16.346,10.49 16.346,10.97 16.056,11.26 L12.526,14.79 C12.376,14.94 12.186,15.01 11.996,15.01 Z"/>
</svg>