<svg xmlns="http://www.w3.org/2000/svg" width="24" height="24" viewBox="0 0 24 24">
  <defs/>
  <path fill="#292D32" d="M12,22.75 C6.07,22.75 1.25,17.93 1.25,12 C1.25,6.07 6.07,1.25 12,1.25 C17.93,1.25 22.75,6.07 22.75,12 C22.75,17.93 17.93,22.75 12,22.75 Z M12,2.75 C6.9,2.75 2.75,6.9 2.75,12 C2.75,17.1 6.9,21.25 12,21.25 C17.1,21.25 21.25,17.1 21.25,12 C21.25,6.9 17.1,2.75 12,2.75 Z"/>
  <path fill="#292D32" d="M13.262,16.28 C13.072,16.28 12.882,16.21 12.732,16.06 L9.202,12.53 C8.912,12.24 8.912,11.76 9.202,11.47 L12.732,7.94 C13.022,7.65 13.502,7.65 13.792,7.94 C14.082,8.23 14.082,8.71 13.792,9 L10.792,12 L13.792,15 C14.082,15.29 14.082,15.77 13.792,16.06 C13.652,16.21 13.462,16.28 13.262,16.28 Z"/>
</svg>