<svg xmlns="http://www.w3.org/2000/svg" width="24" height="24" viewBox="0 0 24 24">
  <defs/>
  <path fill="#292D32" d="M10.453,7.47 C10.263,7.47 10.073,7.4 9.923,7.25 L6.733,4.06 L3.543,7.25 C3.253,7.54 2.773,7.54 2.483,7.25 C2.193,6.96 2.193,6.48 2.483,6.19 L6.203,2.47 C6.343,2.33 6.533,2.25 6.733,2.25 C6.933,2.25 7.123,2.33 7.263,2.47 L10.983,6.19 C11.273,6.48 11.273,6.96 10.983,7.25 C10.833,7.4 10.643,7.47 10.453,7.47 Z"/>
  <path fill="#292D32" d="M6.727,21.75 C6.317,21.75 5.977,21.41 5.977,21 L5.977,3 C5.977,2.59 6.317,2.25 6.727,2.25 C7.137,2.25 7.477,2.59 7.477,3 L7.477,21 C7.477,21.41 7.137,21.75 6.727,21.75 Z"/>
  <path fill="#292D32" d="M17.28,21.75 C17.08,21.75 16.89,21.67 16.75,21.53 L13.03,17.81 C12.74,17.52 12.74,17.04 13.03,16.75 C13.32,16.46 13.8,16.46 14.09,16.75 L17.28,19.94 L20.47,16.75 C20.76,16.46 21.24,16.46 21.53,16.75 C21.82,17.04 21.82,17.52 21.53,17.81 L17.81,21.53 C17.67,21.67 17.47,21.75 17.28,21.75 Z"/>
  <path fill="#292D32" d="M17.273,21.75 C16.863,21.75 16.523,21.41 16.523,21 L16.523,3 C16.523,2.59 16.863,2.25 17.273,2.25 C17.683,2.25 18.023,2.59 18.023,3 L18.023,21 C18.023,21.41 17.693,21.75 17.273,21.75 Z"/>
</svg>