<svg xmlns="http://www.w3.org/2000/svg" width="24" height="24" viewBox="0 0 24 24">
  <defs/>
  <path fill="#292D32" d="M9.008,21.25 C8.818,21.25 8.627,21.18 8.477,21.03 L3.467,16.02 C3.178,15.73 3.178,15.25 3.467,14.96 C3.757,14.67 4.237,14.67 4.527,14.96 L9.537,19.97 C9.828,20.26 9.828,20.74 9.537,21.03 C9.387,21.17 9.197,21.25 9.008,21.25 Z"/>
  <path fill="#292D32" d="M9.008,21.25 C8.598,21.25 8.258,20.91 8.258,20.5 L8.258,3.5 C8.258,3.09 8.598,2.75 9.008,2.75 C9.418,2.75 9.758,3.09 9.758,3.5 L9.758,20.5 C9.758,20.91 9.418,21.25 9.008,21.25 Z"/>
  <path fill="#292D32" d="M20.008,9.26 C19.817,9.26 19.628,9.19 19.477,9.04 L14.467,4.03 C14.178,3.74 14.178,3.26 14.467,2.97 C14.758,2.68 15.238,2.68 15.527,2.97 L20.538,7.98 C20.828,8.27 20.828,8.75 20.538,9.04 C20.387,9.19 20.198,9.26 20.008,9.26 Z"/>
  <path fill="#292D32" d="M14.992,21.25 C14.582,21.25 14.242,20.91 14.242,20.5 L14.242,3.5 C14.242,3.09 14.582,2.75 14.992,2.75 C15.402,2.75 15.742,3.09 15.742,3.5 L15.742,20.5 C15.742,20.91 15.412,21.25 14.992,21.25 Z"/>
</svg>