<svg xmlns="http://www.w3.org/2000/svg" width="24" height="24" viewBox="0 0 24 24">
  <defs/>
  <path fill="#292D32" d="M12.141,15.82 C11.731,15.82 11.391,15.48 11.391,15.07 L11.391,13.11 C11.391,10.18 13.771,7.8 16.711,7.8 L18.671,7.8 C19.081,7.8 19.421,8.14 19.421,8.55 C19.421,8.96 19.081,9.3 18.671,9.3 L16.711,9.3 C14.611,9.3 12.891,11.01 12.891,13.11 L12.891,15.07 C12.891,15.49 12.551,15.82 12.141,15.82 Z"/>
  <path fill="#292D32" d="M12.137,18 C11.727,18 11.387,17.66 11.387,17.25 L11.387,13.12 C11.387,11.02 9.677,9.31 7.577,9.31 L5.617,9.31 C5.207,9.31 4.867,8.97 4.867,8.56 C4.867,8.15 5.207,7.81 5.617,7.81 L7.577,7.81 C10.507,7.81 12.887,10.19 12.887,13.12 L12.887,17.25 C12.887,17.66 12.547,18 12.137,18 Z"/>
  <path fill="#292D32" d="M7.141,11.1 C6.951,11.1 6.761,11.03 6.611,10.88 L4.811,9.08 C4.521,8.79 4.521,8.31 4.811,8.02 L6.611,6.22 C6.901,5.93 7.381,5.93 7.671,6.22 C7.961,6.51 7.961,6.99 7.671,7.28 L6.401,8.55 L7.671,9.82 C7.961,10.11 7.961,10.59 7.671,10.88 C7.521,11.03 7.331,11.1 7.141,11.1 Z"/>
  <path fill="#292D32" d="M16.857,11.1 C16.667,11.1 16.477,11.03 16.327,10.88 C16.037,10.59 16.037,10.11 16.327,9.82 L17.597,8.55 L16.327,7.28 C16.037,6.99 16.037,6.51 16.327,6.22 C16.617,5.93 17.097,5.93 17.387,6.22 L19.187,8.02 C19.477,8.31 19.477,8.79 19.187,9.08 L17.387,10.88 C17.247,11.03 17.047,11.1 16.857,11.1 Z"/>
  <path fill="#292D32" d="M15,22.75 L9,22.75 C3.57,22.75 1.25,20.43 1.25,15 L1.25,9 C1.25,3.57 3.57,1.25 9,1.25 L15,1.25 C20.43,1.25 22.75,3.57 22.75,9 L22.75,15 C22.75,20.43 20.43,22.75 15,22.75 Z M9,2.75 C4.39,2.75 2.75,4.39 2.75,9 L2.75,15 C2.75,19.61 4.39,21.25 9,21.25 L15,21.25 C19.61,21.25 21.25,19.61 21.25,15 L21.25,9 C21.25,4.39 19.61,2.75 15,2.75 L9,2.75 Z"/>
</svg>