<svg xmlns="http://www.w3.org/2000/svg" width="24" height="24" viewBox="0 0 24 24">
  <defs/>
  <path fill="#292D32" d="M15,22.75 L9,22.75 C3.57,22.75 1.25,20.43 1.25,15 L1.25,9 C1.25,3.57 3.57,1.25 9,1.25 L15,1.25 C20.43,1.25 22.75,3.57 22.75,9 L22.75,15 C22.75,20.43 20.43,22.75 15,22.75 Z M9,2.75 C4.39,2.75 2.75,4.39 2.75,9 L2.75,15 C2.75,19.61 4.39,21.25 9,21.25 L15,21.25 C19.61,21.25 21.25,19.61 21.25,15 L21.25,9 C21.25,4.39 19.61,2.75 15,2.75 L9,2.75 Z"/>
  <path fill="#292D32" d="M15.526,14.21 C15.336,14.21 15.146,14.14 14.996,13.99 L11.996,10.99 L8.996,13.99 C8.706,14.28 8.226,14.28 7.936,13.99 C7.646,13.7 7.646,13.22 7.936,12.93 L11.466,9.4 C11.756,9.11 12.236,9.11 12.526,9.4 L16.056,12.93 C16.346,13.22 16.346,13.7 16.056,13.99 C15.906,14.14 15.716,14.21 15.526,14.21 Z"/>
</svg>