<svg xmlns="http://www.w3.org/2000/svg" width="24" height="24" viewBox="0 0 24 24">
  <defs/>
  <path fill="#292D32" d="M14.427,18.82 C14.237,18.82 14.047,18.75 13.897,18.6 C13.607,18.31 13.607,17.83 13.897,17.54 L19.437,12 L13.897,6.46 C13.607,6.17 13.607,5.69 13.897,5.4 C14.187,5.11 14.667,5.11 14.957,5.4 L21.027,11.47 C21.317,11.76 21.317,12.24 21.027,12.53 L14.957,18.6 C14.807,18.75 14.617,18.82 14.427,18.82 Z"/>
  <path fill="#292D32" d="M20.33,12.75 L3.5,12.75 C3.09,12.75 2.75,12.41 2.75,12 C2.75,11.59 3.09,11.25 3.5,11.25 L20.33,11.25 C20.74,11.25 21.08,11.59 21.08,12 C21.08,12.41 20.74,12.75 20.33,12.75 Z"/>
</svg>