<svg xmlns="http://www.w3.org/2000/svg" width="24" height="24" viewBox="0 0 24 24">
  <defs/>
  <path fill="#292D32" d="M11.997,21.25 C11.807,21.25 11.617,21.18 11.467,21.03 L5.397,14.96 C5.107,14.67 5.107,14.19 5.397,13.9 C5.687,13.61 6.167,13.61 6.457,13.9 L11.997,19.44 L17.537,13.9 C17.827,13.61 18.307,13.61 18.597,13.9 C18.887,14.19 18.887,14.67 18.597,14.96 L12.527,21.03 C12.377,21.18 12.187,21.25 11.997,21.25 Z"/>
  <path fill="#292D32" d="M12,21.08 C11.59,21.08 11.25,20.74 11.25,20.33 L11.25,3.5 C11.25,3.09 11.59,2.75 12,2.75 C12.41,2.75 12.75,3.09 12.75,3.5 L12.75,20.33 C12.75,20.74 12.41,21.08 12,21.08 Z"/>
</svg>