<svg xmlns="http://www.w3.org/2000/svg" width="24" height="24" viewBox="0 0 24 24">
  <defs/>
  <path fill="#292D32" d="M18.067,10.32 C17.877,10.32 17.687,10.25 17.537,10.1 L11.997,4.56 L6.457,10.1 C6.167,10.39 5.687,10.39 5.397,10.1 C5.107,9.81 5.107,9.33 5.397,9.04 L11.467,2.97 C11.757,2.68 12.237,2.68 12.527,2.97 L18.597,9.04 C18.887,9.33 18.887,9.81 18.597,10.1 C18.457,10.25 18.257,10.32 18.067,10.32 Z"/>
  <path fill="#292D32" d="M12,21.25 C11.59,21.25 11.25,20.91 11.25,20.5 L11.25,3.67 C11.25,3.26 11.59,2.92 12,2.92 C12.41,2.92 12.75,3.26 12.75,3.67 L12.75,20.5 C12.75,20.91 12.41,21.25 12,21.25 Z"/>
</svg>