<svg xmlns="http://www.w3.org/2000/svg" width="24" height="24" viewBox="0 0 24 24">
  <defs/>
  <path fill="#292D32" d="M12,22.75 C6.07,22.75 1.25,17.93 1.25,12 C1.25,6.07 6.07,1.25 12,1.25 C17.93,1.25 22.75,6.07 22.75,12 C22.75,17.93 17.93,22.75 12,22.75 Z M12,2.75 C6.9,2.75 2.75,6.9 2.75,12 C2.75,17.1 6.9,21.25 12,21.25 C17.1,21.25 21.25,17.1 21.25,12 C21.25,6.9 17.1,2.75 12,2.75 Z"/>
  <path fill="#292D32" d="M15.5,12.75 L9.5,12.75 C9.09,12.75 8.75,12.41 8.75,12 C8.75,11.59 9.09,11.25 9.5,11.25 L15.5,11.25 C15.91,11.25 16.25,11.59 16.25,12 C16.25,12.41 15.91,12.75 15.5,12.75 Z"/>
  <path fill="#292D32" d="M11.498,15.75 C11.307,15.75 11.117,15.68 10.967,15.53 L7.968,12.53 C7.678,12.24 7.678,11.76 7.968,11.47 L10.967,8.47 C11.258,8.18 11.738,8.18 12.027,8.47 C12.318,8.76 12.318,9.24 12.027,9.53 L9.557,12 L12.027,14.47 C12.318,14.76 12.318,15.24 12.027,15.53 C11.877,15.68 11.688,15.75 11.498,15.75 Z"/>
</svg>