<svg xmlns="http://www.w3.org/2000/svg" width="24" height="24" viewBox="0 0 24 24">
  <defs/>
  <path fill="#292D32" d="M12,22.75 C6.07,22.75 1.25,17.93 1.25,12 C1.25,6.07 6.07,1.25 12,1.25 C17.93,1.25 22.75,6.07 22.75,12 C22.75,17.93 17.93,22.75 12,22.75 Z M12,2.75 C6.9,2.75 2.75,6.9 2.75,12 C2.75,17.1 6.9,21.25 12,21.25 C17.1,21.25 21.25,17.1 21.25,12 C21.25,6.9 17.1,2.75 12,2.75 Z"/>
  <path fill="#292D32" d="M12,15.25 C11.59,15.25 11.25,14.91 11.25,14.5 L11.25,8.5 C11.25,8.09 11.59,7.75 12,7.75 C12.41,7.75 12.75,8.09 12.75,8.5 L12.75,14.5 C12.75,14.91 12.41,15.25 12,15.25 Z"/>
  <path fill="#292D32" d="M11.998,16.25 C11.807,16.25 11.617,16.18 11.467,16.03 L8.467,13.03 C8.178,12.74 8.178,12.26 8.467,11.97 C8.758,11.68 9.238,11.68 9.527,11.97 L11.998,14.44 L14.467,11.97 C14.758,11.68 15.238,11.68 15.527,11.97 C15.818,12.26 15.818,12.74 15.527,13.03 L12.527,16.03 C12.377,16.18 12.188,16.25 11.998,16.25 Z"/>
</svg>