<svg xmlns="http://www.w3.org/2000/svg" width="24" height="24" viewBox="0 0 24 24">
  <defs/>
  <path fill="#292D32" d="M12,22.75 C6.07,22.75 1.25,17.93 1.25,12 C1.25,6.07 6.07,1.25 12,1.25 C17.93,1.25 22.75,6.07 22.75,12 C22.75,17.93 17.93,22.75 12,22.75 Z M12,2.75 C6.9,2.75 2.75,6.9 2.75,12 C2.75,17.1 6.9,21.25 12,21.25 C17.1,21.25 21.25,17.1 21.25,12 C21.25,6.9 17.1,2.75 12,2.75 Z"/>
  <path fill="#292D32" d="M14.5,12.75 L8.5,12.75 C8.09,12.75 7.75,12.41 7.75,12 C7.75,11.59 8.09,11.25 8.5,11.25 L14.5,11.25 C14.91,11.25 15.25,11.59 15.25,12 C15.25,12.41 14.91,12.75 14.5,12.75 Z"/>
  <path fill="#292D32" d="M12.498,15.75 C12.307,15.75 12.117,15.68 11.967,15.53 C11.678,15.24 11.678,14.76 11.967,14.47 L14.438,12 L11.967,9.53 C11.678,9.24 11.678,8.76 11.967,8.47 C12.258,8.18 12.738,8.18 13.027,8.47 L16.027,11.47 C16.317,11.76 16.317,12.24 16.027,12.53 L13.027,15.53 C12.877,15.68 12.688,15.75 12.498,15.75 Z"/>
</svg>