<svg xmlns="http://www.w3.org/2000/svg" width="24" height="24" viewBox="0 0 24 24">
  <defs/>
  <path fill="#292D32" d="M15,22.75 L9,22.75 C3.57,22.75 1.25,20.43 1.25,15 L1.25,9 C1.25,3.57 3.57,1.25 9,1.25 L15,1.25 C20.43,1.25 22.75,3.57 22.75,9 L22.75,15 C22.75,20.43 20.43,22.75 15,22.75 Z M9,2.75 C4.39,2.75 2.75,4.39 2.75,9 L2.75,15 C2.75,19.61 4.39,21.25 9,21.25 L15,21.25 C19.61,21.25 21.25,19.61 21.25,15 L21.25,9 C21.25,4.39 19.61,2.75 15,2.75 L9,2.75 Z"/>
  <path fill="#292D32" d="M13.262,16.28 C13.072,16.28 12.882,16.21 12.732,16.06 L9.202,12.53 C8.912,12.24 8.912,11.76 9.202,11.47 L12.732,7.94 C13.022,7.65 13.502,7.65 13.792,7.94 C14.082,8.23 14.082,8.71 13.792,9 L10.792,12 L13.792,15 C14.082,15.29 14.082,15.77 13.792,16.06 C13.652,16.21 13.462,16.28 13.262,16.28 Z"/>
</svg>