<svg xmlns="http://www.w3.org/2000/svg" width="24" height="24" viewBox="0 0 24 24">
  <defs/>
  <path fill="#292D32" d="M11.997,18.75 C10.577,18.75 9.277,17.85 8.337,16.22 L5.667,11.59 C4.717,9.96 4.597,8.39 5.307,7.16 C6.017,5.93 7.447,5.25 9.327,5.25 L14.667,5.25 C16.547,5.25 17.977,5.93 18.687,7.16 C19.397,8.39 19.267,9.97 18.327,11.6 L15.657,16.23 C14.717,17.85 13.417,18.75 11.997,18.75 Z M9.327,6.75 C7.997,6.75 7.037,7.16 6.607,7.91 C6.167,8.66 6.297,9.7 6.957,10.84 L9.627,15.47 C10.287,16.62 11.127,17.25 11.987,17.25 C12.847,17.25 13.687,16.62 14.347,15.47 L17.017,10.84 C17.677,9.69 17.807,8.65 17.377,7.9 C16.947,7.15 15.977,6.74 14.657,6.74 L9.327,6.74 L9.327,6.75 Z"/>
</svg>