<svg xmlns="http://www.w3.org/2000/svg" width="24" height="24" viewBox="0 0 24 24">
  <defs/>
  <path fill="#292D32" d="M9.568,18.82 C9.377,18.82 9.188,18.75 9.037,18.6 L2.967,12.53 C2.678,12.24 2.678,11.76 2.967,11.47 L9.037,5.4 C9.328,5.11 9.807,5.11 10.098,5.4 C10.387,5.69 10.387,6.17 10.098,6.46 L4.558,12 L10.098,17.54 C10.387,17.83 10.387,18.31 10.098,18.6 C9.957,18.75 9.758,18.82 9.568,18.82 Z"/>
  <path fill="#292D32" d="M20.502,12.75 L3.672,12.75 C3.262,12.75 2.922,12.41 2.922,12 C2.922,11.59 3.262,11.25 3.672,11.25 L20.502,11.25 C20.912,11.25 21.252,11.59 21.252,12 C21.252,12.41 20.912,12.75 20.502,12.75 Z"/>
</svg>