<svg xmlns="http://www.w3.org/2000/svg" width="24" height="24" viewBox="0 0 24 24">
  <defs/>
  <path fill="#292D32" d="M12.198,17.38 C11.498,17.38 10.788,17.11 10.258,16.58 C9.738,16.06 9.448,15.37 9.448,14.64 C9.448,13.91 9.738,13.21 10.258,12.7 L11.668,11.29 C11.958,11 12.438,11 12.728,11.29 C13.018,11.58 13.018,12.06 12.728,12.35 L11.318,13.76 C11.078,14 10.948,14.31 10.948,14.64 C10.948,14.97 11.078,15.29 11.318,15.52 C11.808,16.01 12.598,16.01 13.088,15.52 L15.308,13.3 C16.578,12.03 16.578,9.97 15.308,8.7 C14.038,7.43 11.978,7.43 10.708,8.7 L8.288,11.12 C7.778,11.63 7.498,12.3 7.498,13.01 C7.498,13.72 7.778,14.4 8.288,14.9 C8.578,15.19 8.578,15.67 8.288,15.96 C7.998,16.25 7.518,16.25 7.228,15.96 C6.438,15.17 6.008,14.12 6.008,13 C6.008,11.88 6.438,10.83 7.228,10.04 L9.648,7.62 C11.498,5.77 14.518,5.77 16.368,7.62 C18.218,9.47 18.218,12.49 16.368,14.34 L14.148,16.56 C13.608,17.11 12.908,17.38 12.198,17.38 Z"/>
  <path fill="#292D32" d="M15,22.75 L9,22.75 C3.57,22.75 1.25,20.43 1.25,15 L1.25,9 C1.25,3.57 3.57,1.25 9,1.25 L15,1.25 C20.43,1.25 22.75,3.57 22.75,9 L22.75,15 C22.75,20.43 20.43,22.75 15,22.75 Z M9,2.75 C4.39,2.75 2.75,4.39 2.75,9 L2.75,15 C2.75,19.61 4.39,21.25 9,21.25 L15,21.25 C19.61,21.25 21.25,19.61 21.25,15 L21.25,9 C21.25,4.39 19.61,2.75 15,2.75 L9,2.75 Z"/>
</svg>