<svg xmlns="http://www.w3.org/2000/svg" width="24" height="24" viewBox="0 0 24 24">
  <defs/>
  <path fill="#292D32" d="M15,22.75 L9,22.75 C3.57,22.75 1.25,20.43 1.25,15 L1.25,9 C1.25,3.57 3.57,1.25 9,1.25 L15,1.25 C20.43,1.25 22.75,3.57 22.75,9 L22.75,15 C22.75,20.43 20.43,22.75 15,22.75 Z M9,2.75 C4.39,2.75 2.75,4.39 2.75,9 L2.75,15 C2.75,19.61 4.39,21.25 9,21.25 L15,21.25 C19.61,21.25 21.25,19.61 21.25,15 L21.25,9 C21.25,4.39 19.61,2.75 15,2.75 L9,2.75 Z"/>
  <path fill="#292D32" d="M9.62,18.05 C8.04,18.05 6.75,16.76 6.75,15.18 C6.75,13.6 8.04,12.31 9.62,12.31 C11.2,12.31 12.49,13.6 12.49,15.18 C12.49,16.76 11.2,18.05 9.62,18.05 Z M9.62,13.82 C8.87,13.82 8.25,14.43 8.25,15.19 C8.25,15.94 8.86,16.56 9.62,16.56 C10.37,16.56 10.99,15.95 10.99,15.19 C10.99,14.43 10.37,13.82 9.62,13.82 Z"/>
  <path fill="#292D32" d="M11.742,15.93 C11.332,15.93 10.992,15.59 10.992,15.18 L10.992,7.77 C10.992,7.36 11.332,7.02 11.742,7.02 C12.152,7.02 12.492,7.36 12.492,7.77 L12.492,15.18 C12.492,15.6 12.152,15.93 11.742,15.93 Z"/>
  <path fill="#292D32" d="M15.522,11.43 C15.312,11.43 15.092,11.39 14.872,11.32 L12.532,10.54 C11.652,10.25 10.992,9.33 10.992,8.4 L10.992,7.78 C10.992,7.15 11.252,6.6 11.712,6.27 C12.172,5.94 12.772,5.86 13.372,6.06 L15.712,6.84 C16.592,7.13 17.252,8.05 17.252,8.98 L17.252,9.6 C17.252,10.23 16.992,10.78 16.532,11.11 C16.242,11.32 15.892,11.43 15.522,11.43 Z M12.712,7.45 C12.662,7.45 12.612,7.46 12.582,7.48 C12.522,7.52 12.482,7.63 12.482,7.77 L12.482,8.39 C12.482,8.67 12.742,9.02 13.002,9.11 L15.342,9.89 C15.472,9.93 15.592,9.93 15.652,9.89 C15.712,9.85 15.752,9.74 15.752,9.6 L15.752,8.98 C15.752,8.7 15.492,8.35 15.232,8.26 L12.892,7.48 C12.832,7.46 12.762,7.45 12.712,7.45 Z"/>
</svg>