<svg xmlns="http://www.w3.org/2000/svg" width="24" height="24" viewBox="0 0 24 24">
  <defs/>
  <path fill="#292D32" d="M11.998,22.75 C11.398,22.75 10.808,22.61 10.328,22.34 L5.598,19.61 C3.638,18.29 3.508,18.05 3.508,15.98 L3.508,11.02 C3.508,8.95 3.638,8.71 5.558,7.42 L10.338,4.66 C11.288,4.11 12.718,4.11 13.668,4.66 L18.398,7.39 C20.358,8.71 20.488,8.95 20.488,11.02 L20.488,15.98 C20.488,18.05 20.358,18.29 18.438,19.58 L13.658,22.34 C13.188,22.62 12.588,22.75 11.998,22.75 Z M11.998,5.75 C11.658,5.75 11.318,5.82 11.078,5.96 L6.348,8.69 C5.008,9.6 5.008,9.6 5.008,11.02 L5.008,15.98 C5.008,17.4 5.008,17.4 6.398,18.34 L11.088,21.04 C11.568,21.32 12.438,21.32 12.918,21.04 L17.648,18.31 C18.988,17.4 18.988,17.4 18.988,15.98 L18.988,11.02 C18.988,9.6 18.988,9.6 17.598,8.66 L12.908,5.96 C12.678,5.82 12.338,5.75 11.998,5.75 Z"/>
  <path fill="#292D32" d="M17.5,8.38 C17.09,8.38 16.75,8.04 16.75,7.63 L16.75,5 C16.75,3.42 16.08,2.75 14.5,2.75 L9.5,2.75 C7.92,2.75 7.25,3.42 7.25,5 L7.25,7.56 C7.25,7.97 6.91,8.31 6.5,8.31 C6.09,8.31 5.75,7.98 5.75,7.56 L5.75,5 C5.75,2.58 7.08,1.25 9.5,1.25 L14.5,1.25 C16.92,1.25 18.25,2.58 18.25,5 L18.25,7.63 C18.25,8.04 17.91,8.38 17.5,8.38 Z"/>
  <path fill="#292D32" d="M13.628,17.63 C13.418,17.63 13.198,17.59 12.978,17.5 L11.998,17.12 L11.018,17.51 C10.488,17.72 9.948,17.67 9.548,17.38 C9.148,17.09 8.938,16.59 8.968,16.02 L9.028,14.97 L8.358,14.16 C7.998,13.71 7.878,13.19 8.038,12.71 C8.188,12.24 8.598,11.88 9.148,11.74 L10.168,11.48 L10.738,10.59 C11.348,9.63 12.658,9.63 13.268,10.59 L13.838,11.48 L14.858,11.74 C15.408,11.88 15.818,12.24 15.968,12.71 C16.118,13.18 15.998,13.71 15.638,14.15 L14.968,14.96 L15.028,16.01 C15.058,16.58 14.848,17.07 14.448,17.37 C14.208,17.54 13.928,17.63 13.628,17.63 Z M9.518,13.2 L10.188,14.01 C10.418,14.28 10.548,14.71 10.528,15.06 L10.468,16.11 L11.448,15.72 C11.778,15.59 12.218,15.59 12.548,15.72 L13.528,16.11 L13.468,15.06 C13.448,14.71 13.578,14.29 13.808,14.01 L14.478,13.2 L13.458,12.94 C13.118,12.85 12.758,12.59 12.568,12.3 L12.008,11.42 L11.438,12.3 C11.248,12.6 10.888,12.86 10.548,12.95 L9.518,13.2 Z"/>
</svg>