<svg xmlns="http://www.w3.org/2000/svg" width="24" height="24" viewBox="0 0 24 24">
  <defs/>
  <path fill="#292D32" d="M12.377,16.92 L10.087,16.92 C9.677,16.92 9.337,16.58 9.337,16.17 C9.337,15.76 9.677,15.42 10.087,15.42 L12.377,15.42 C12.807,15.42 13.157,15.07 13.157,14.64 C13.157,14.21 12.807,13.86 12.377,13.86 L10.087,13.86 C9.847,13.86 9.617,13.74 9.477,13.55 C9.337,13.36 9.297,13.1 9.377,12.87 L10.137,10.58 C10.237,10.27 10.527,10.07 10.847,10.07 L13.907,10.07 C14.317,10.07 14.657,10.41 14.657,10.82 C14.657,11.23 14.317,11.57 13.907,11.57 L11.387,11.57 L11.127,12.36 L12.377,12.36 C13.637,12.36 14.657,13.38 14.657,14.64 C14.657,15.9 13.637,16.92 12.377,16.92 Z"/>
  <path fill="#292D32" d="M10.022,5.22 C9.852,5.22 9.692,5.17 9.552,5.05 C9.232,4.79 9.182,4.32 9.432,4 L11.412,1.53 C11.672,1.21 12.142,1.16 12.462,1.41 C12.782,1.67 12.832,2.14 12.582,2.46 L10.602,4.93 C10.462,5.12 10.242,5.22 10.022,5.22 Z"/>
  <path fill="#292D32" d="M11.999,22.75 C6.689,22.75 2.359,18.43 2.359,13.11 C2.359,11.04 3.029,9.05 4.309,7.35 C4.559,7.02 5.029,6.95 5.359,7.2 C5.689,7.45 5.759,7.92 5.509,8.25 C4.429,9.69 3.859,11.37 3.859,13.11 C3.859,17.6 7.509,21.25 11.999,21.25 C16.489,21.25 20.139,17.6 20.139,13.11 C20.139,8.62 16.489,4.97 11.999,4.97 C11.419,4.97 10.829,5.04 10.189,5.19 C9.789,5.28 9.379,5.03 9.289,4.63 C9.199,4.23 9.449,3.82 9.849,3.73 C10.599,3.56 11.309,3.47 11.999,3.47 C17.309,3.47 21.639,7.79 21.639,13.11 C21.639,18.43 17.309,22.75 11.999,22.75 Z"/>
</svg>