<svg xmlns="http://www.w3.org/2000/svg" width="24" height="24" viewBox="0 0 24 24">
  <defs/>
  <path fill="#292D32" d="M14.431,16.92 L12.141,16.92 C11.731,16.92 11.391,16.58 11.391,16.17 C11.391,15.76 11.731,15.42 12.141,15.42 L14.431,15.42 C14.861,15.42 15.211,15.07 15.211,14.64 C15.211,14.21 14.861,13.86 14.431,13.86 L12.141,13.86 C11.901,13.86 11.671,13.74 11.531,13.55 C11.391,13.36 11.351,13.1 11.431,12.87 L12.191,10.58 C12.291,10.27 12.581,10.07 12.901,10.07 L15.961,10.07 C16.371,10.07 16.711,10.41 16.711,10.82 C16.711,11.23 16.371,11.57 15.961,11.57 L13.441,11.57 L13.181,12.36 L14.431,12.36 C15.691,12.36 16.711,13.38 16.711,14.64 C16.711,15.9 15.681,16.92 14.431,16.92 Z"/>
  <path fill="#292D32" d="M9.538,16.92 C9.128,16.92 8.788,16.58 8.788,16.17 L8.788,12.78 L8.598,13 C8.318,13.31 7.848,13.33 7.538,13.06 C7.228,12.78 7.208,12.31 7.478,12 L8.978,10.33 C9.188,10.1 9.518,10.02 9.808,10.13 C10.098,10.24 10.288,10.52 10.288,10.83 L10.288,16.18 C10.288,16.59 9.958,16.92 9.538,16.92 Z"/>
  <path fill="#292D32" d="M10.022,5.22 C9.852,5.22 9.692,5.17 9.552,5.05 C9.232,4.79 9.182,4.32 9.432,4 L11.412,1.53 C11.672,1.21 12.142,1.16 12.462,1.41 C12.782,1.66 12.832,2.14 12.582,2.46 L10.602,4.93 C10.462,5.12 10.242,5.22 10.022,5.22 Z"/>
  <path fill="#292D32" d="M11.999,22.75 C6.689,22.75 2.359,18.43 2.359,13.11 C2.359,11.04 3.029,9.05 4.309,7.35 C4.559,7.02 5.029,6.95 5.359,7.2 C5.689,7.45 5.759,7.92 5.509,8.25 C4.429,9.69 3.859,11.37 3.859,13.11 C3.859,17.6 7.509,21.25 11.999,21.25 C16.489,21.25 20.139,17.6 20.139,13.11 C20.139,8.62 16.489,4.97 11.999,4.97 C11.419,4.97 10.829,5.04 10.189,5.19 C9.779,5.28 9.379,5.03 9.289,4.63 C9.199,4.23 9.449,3.82 9.849,3.73 C10.599,3.56 11.309,3.47 11.999,3.47 C17.309,3.47 21.639,7.79 21.639,13.11 C21.639,18.43 17.309,22.75 11.999,22.75 Z"/>
</svg>