<svg xmlns="http://www.w3.org/2000/svg" width="24" height="24" viewBox="0 0 24 24">
  <defs/>
  <path fill="#292D32" d="M20.5,15.25 C20.09,15.25 19.75,14.91 19.75,14.5 C19.75,14.09 20.09,13.75 20.5,13.75 C21.09,13.75 21.22,13.66 21.23,13.66 C21.25,13.6 21.25,13.25 21.25,13 L21.25,11 C21.25,10.75 21.25,10.41 21.21,10.32 C21.2,10.33 21.05,10.25 20.5,10.25 C20.09,10.25 19.75,9.91 19.75,9.5 C19.75,9.09 20.09,8.75 20.5,8.75 C22.58,8.75 22.75,9.77 22.75,11 L22.75,13 C22.75,14.23 22.58,15.25 20.5,15.25 Z"/>
  <path fill="#292D32" d="M6.378,14.75 C6.318,14.75 6.258,14.74 6.198,14.73 C5.798,14.63 5.548,14.22 5.648,13.82 C5.948,12.63 5.948,11.37 5.648,10.18 C5.548,9.78 5.788,9.37 6.198,9.27 C6.598,9.17 6.998,9.42 7.098,9.82 C7.458,11.25 7.458,12.76 7.098,14.18 C7.018,14.52 6.708,14.75 6.378,14.75 Z"/>
  <path fill="#292D32" d="M9.878,14.75 C9.818,14.75 9.758,14.74 9.698,14.73 C9.298,14.63 9.048,14.22 9.148,13.82 C9.448,12.63 9.448,11.37 9.148,10.18 C9.048,9.78 9.288,9.37 9.698,9.27 C10.098,9.17 10.508,9.41 10.608,9.82 C10.968,11.25 10.968,12.76 10.608,14.18 C10.518,14.52 10.208,14.75 9.878,14.75 Z"/>
  <path fill="#292D32" d="M13,19.75 L7,19.75 C2.59,19.75 1.25,18.41 1.25,14 L1.25,10 C1.25,5.59 2.59,4.25 7,4.25 L13,4.25 C17.41,4.25 18.75,5.59 18.75,10 L18.75,14 C18.75,18.41 17.41,19.75 13,19.75 Z M7,5.75 C3.43,5.75 2.75,6.43 2.75,10 L2.75,14 C2.75,17.57 3.43,18.25 7,18.25 L13,18.25 C16.57,18.25 17.25,17.57 17.25,14 L17.25,10 C17.25,6.43 16.57,5.75 13,5.75 L7,5.75 Z"/>
</svg>