<svg xmlns="http://www.w3.org/2000/svg" width="24" height="24" viewBox="0 0 24 24">
  <defs/>
  <path fill="#292D32" d="M12.002,22.25 C11.182,22.25 10.362,21.99 9.682,21.48 L4.472,17.58 C3.502,16.85 2.922,15.69 2.922,14.48 L2.922,1.76 L21.082,1.76 L21.082,14.48 C21.082,15.69 20.502,16.85 19.532,17.58 L14.322,21.48 C13.642,21.99 12.822,22.25 12.002,22.25 Z M4.422,3.25 L4.422,14.47 C4.422,15.21 4.782,15.92 5.372,16.37 L10.582,20.27 C11.422,20.9 12.592,20.9 13.432,20.27 L18.642,16.37 C19.232,15.92 19.592,15.21 19.592,14.47 L19.592,3.25 L4.422,3.25 Z"/>
  <path fill="#292D32" d="M22,3.25 L2,3.25 C1.59,3.25 1.25,2.91 1.25,2.5 C1.25,2.09 1.59,1.75 2,1.75 L22,1.75 C22.41,1.75 22.75,2.09 22.75,2.5 C22.75,2.91 22.41,3.25 22,3.25 Z"/>
  <path fill="#292D32" d="M16,8.75 L8,8.75 C7.59,8.75 7.25,8.41 7.25,8 C7.25,7.59 7.59,7.25 8,7.25 L16,7.25 C16.41,7.25 16.75,7.59 16.75,8 C16.75,8.41 16.41,8.75 16,8.75 Z"/>
  <path fill="#292D32" d="M16,13.75 L8,13.75 C7.59,13.75 7.25,13.41 7.25,13 C7.25,12.59 7.59,12.25 8,12.25 L16,12.25 C16.41,12.25 16.75,12.59 16.75,13 C16.75,13.41 16.41,13.75 16,13.75 Z"/>
</svg>