<svg xmlns="http://www.w3.org/2000/svg" width="24" height="24" viewBox="0 0 24 24">
  <defs/>
  <path d="M21.5,12 Q21.5,15.932 18.722,18.713 Q18.72,18.715 18.718,18.718 Q18.715,18.72 18.713,18.722 Q15.932,21.5 12,21.5 Q8.065,21.5 5.282,18.718 Q2.5,15.935 2.5,12 Q2.5,8.065 5.282,5.282 Q8.065,2.5 12,2.5 Q15.935,2.5 18.718,5.282 Q21.5,8.065 21.5,12 Z M17.648,18.355 L5.645,6.352 Q3.5,8.732 3.5,12 Q3.5,15.521 5.99,18.01 Q8.479,20.5 12,20.5 Q15.268,20.5 17.648,18.355 Z M20.5,12 Q20.5,8.479 18.01,5.99 Q15.521,3.5 12,3.5 Q8.732,3.5 6.352,5.645 L18.355,17.648 Q20.5,15.268 20.5,12 Z"/>
</svg>