<svg xmlns="http://www.w3.org/2000/svg" width="24" height="24" viewBox="0 0 24 24">
  <defs/>
  <path fill="#292D32" d="M11.998,22.08 C11.698,22.08 11.398,22.01 11.148,21.87 C9.278,20.85 5.998,19.77 3.938,19.5 L3.648,19.46 C2.338,19.3 1.258,18.07 1.258,16.74 L1.258,4.66 C1.258,3.87 1.568,3.15 2.138,2.63 C2.708,2.11 3.448,1.86 4.228,1.93 C6.418,2.11 9.738,3.21 11.618,4.38 L11.858,4.52 C11.928,4.55 12.078,4.56 12.138,4.52 L12.298,4.42 C12.968,4 13.808,3.59 14.728,3.22 C14.958,3.13 15.218,3.16 15.428,3.3 C15.638,3.44 15.758,3.67 15.758,3.92 L15.758,6.6 L16.588,6.05 C16.838,5.88 17.168,5.88 17.418,6.05 L18.248,6.6 L18.248,2.78 C18.248,2.42 18.508,2.11 18.858,2.04 C19.148,1.99 19.438,1.95 19.698,1.93 C19.718,1.93 19.798,1.93 19.818,1.93 C20.548,1.87 21.298,2.12 21.858,2.64 C22.428,3.16 22.738,3.88 22.738,4.67 L22.738,16.74 C22.738,18.08 21.658,19.3 20.338,19.46 L20.008,19.5 C17.948,19.77 14.648,20.86 12.818,21.87 C12.598,22.01 12.298,22.08 11.998,22.08 Z M3.978,3.41 C3.658,3.41 3.368,3.52 3.138,3.73 C2.888,3.96 2.748,4.29 2.748,4.66 L2.748,16.74 C2.748,17.33 3.258,17.9 3.828,17.98 L4.128,18.02 C6.378,18.32 9.828,19.45 11.828,20.55 C11.918,20.59 12.048,20.6 12.098,20.58 C14.108,19.47 17.568,18.33 19.828,18.03 L20.168,17.99 C20.738,17.92 21.248,17.34 21.248,16.75 L21.248,4.68 C21.248,4.31 21.108,3.99 20.858,3.75 C20.608,3.52 20.258,3.41 19.898,3.43 C19.868,3.43 19.778,3.43 19.758,3.43 L19.758,8 C19.758,8.28 19.608,8.53 19.358,8.66 C19.108,8.79 18.818,8.78 18.588,8.62 L17.008,7.57 L15.428,8.62 C15.198,8.77 14.908,8.79 14.658,8.66 C14.418,8.53 14.258,8.28 14.258,8 L14.258,5.07 C13.828,5.28 13.438,5.49 13.098,5.69 L12.938,5.79 C12.388,6.13 11.608,6.13 11.078,5.8 L10.838,5.65 C9.148,4.59 6.068,3.57 4.108,3.41 C4.058,3.41 4.018,3.41 3.978,3.41 Z"/>
  <path fill="#292D32" d="M12,21.24 C11.59,21.24 11.25,20.9 11.25,20.49 L11.25,5.49 C11.25,5.08 11.59,4.74 12,4.74 C12.41,4.74 12.75,5.08 12.75,5.49 L12.75,20.49 C12.75,20.91 12.41,21.24 12,21.24 Z"/>
  <path fill="#292D32" d="M19,8.75 C18.85,8.75 18.71,8.71 18.58,8.62 L17,7.57 L15.42,8.62 C15.19,8.77 14.9,8.79 14.65,8.66 C14.41,8.53 14.25,8.28 14.25,8 L14.25,3.92 C14.25,3.61 14.44,3.34 14.72,3.22 C16.1,2.67 17.61,2.24 18.88,2.04 C19.1,2 19.32,2.07 19.49,2.21 C19.66,2.35 19.75,2.56 19.75,2.78 L19.75,8 C19.75,8.28 19.6,8.53 19.35,8.66 C19.24,8.72 19.12,8.75 19,8.75 Z M17,5.92 C17.14,5.92 17.29,5.96 17.42,6.05 L18.25,6.6 L18.25,3.69 C17.45,3.87 16.58,4.13 15.75,4.44 L15.75,6.6 L16.58,6.05 C16.71,5.96 16.86,5.92 17,5.92 Z"/>
</svg>