<svg xmlns="http://www.w3.org/2000/svg" width="24" height="24" viewBox="0 0 24 24">
  <defs/>
  <path fill="#292D32" d="M16.002,22.75 L8.002,22.75 C3.382,22.75 2.522,20.6 2.302,18.51 L1.552,10.5 C1.442,9.45 1.412,7.9 2.452,6.74 C3.352,5.74 4.842,5.26 7.002,5.26 L17.002,5.26 C19.172,5.26 20.662,5.75 21.552,6.74 C22.592,7.9 22.562,9.45 22.452,10.51 L21.702,18.5 C21.482,20.6 20.622,22.75 16.002,22.75 Z M7.002,6.75 C5.312,6.75 4.152,7.08 3.562,7.74 C3.072,8.28 2.912,9.11 3.042,10.35 L3.792,18.36 C3.962,19.94 4.392,21.25 8.002,21.25 L16.002,21.25 C19.602,21.25 20.042,19.94 20.212,18.35 L20.962,10.36 C21.092,9.11 20.932,8.28 20.442,7.74 C19.852,7.08 18.692,6.75 17.002,6.75 L7.002,6.75 Z"/>
  <path fill="#292D32" d="M16,6.75 C15.59,6.75 15.25,6.41 15.25,6 L15.25,5.2 C15.25,3.42 15.25,2.75 12.8,2.75 L11.2,2.75 C8.75,2.75 8.75,3.42 8.75,5.2 L8.75,6 C8.75,6.41 8.41,6.75 8,6.75 C7.59,6.75 7.25,6.41 7.25,6 L7.25,5.2 C7.25,3.44 7.25,1.25 11.2,1.25 L12.8,1.25 C16.75,1.25 16.75,3.44 16.75,5.2 L16.75,6 C16.75,6.41 16.41,6.75 16,6.75 Z"/>
  <path fill="#292D32" d="M12,16.75 C9.25,16.75 9.25,15.05 9.25,14.03 L9.25,13 C9.25,11.59 9.59,11.25 11,11.25 L13,11.25 C14.41,11.25 14.75,11.59 14.75,13 L14.75,14 C14.75,15.04 14.75,16.75 12,16.75 Z M10.75,12.75 C10.75,12.83 10.75,12.92 10.75,13 L10.75,14.03 C10.75,15.06 10.75,15.25 12,15.25 C13.25,15.25 13.25,15.09 13.25,14.02 L13.25,13 C13.25,12.92 13.25,12.83 13.25,12.75 C13.17,12.75 13.08,12.75 13,12.75 L11,12.75 C10.92,12.75 10.83,12.75 10.75,12.75 Z"/>
  <path fill="#292D32" d="M14.003,14.77 C13.633,14.77 13.303,14.49 13.263,14.11 C13.213,13.7 13.503,13.32 13.913,13.27 C16.553,12.94 19.083,11.94 21.213,10.39 C21.543,10.14 22.013,10.22 22.263,10.56 C22.503,10.89 22.433,11.36 22.093,11.61 C19.753,13.31 16.993,14.4 14.093,14.77 C14.063,14.77 14.033,14.77 14.003,14.77 Z"/>
  <path fill="#292D32" d="M9.997,14.78 C9.967,14.78 9.937,14.78 9.907,14.78 C7.167,14.47 4.497,13.47 2.187,11.89 C1.847,11.66 1.757,11.19 1.987,10.85 C2.217,10.51 2.687,10.42 3.027,10.65 C5.137,12.09 7.567,13 10.067,13.29 C10.477,13.34 10.777,13.71 10.727,14.12 C10.697,14.5 10.377,14.78 9.997,14.78 Z"/>
</svg>