<svg xmlns="http://www.w3.org/2000/svg" width="24" height="24" viewBox="0 0 24 24">
  <defs/>
  <path fill="#292D32" d="M10.434,18.37 C10.284,18.37 10.144,18.33 10.014,18.24 C9.804,18.1 9.684,17.87 9.684,17.62 C9.684,17.47 9.674,17.31 9.654,17.15 C9.564,16.44 9.244,15.82 8.704,15.28 C8.164,14.74 7.494,14.4 6.774,14.31 C6.654,14.3 6.484,14.29 6.324,14.3 C6.064,14.32 5.824,14.21 5.674,14 C5.524,13.8 5.484,13.53 5.564,13.29 C5.714,12.88 5.934,12.51 6.194,12.21 L7.734,10.27 C10.384,6.96 15.754,2.98 19.684,1.4 C20.514,1.08 21.404,1.27 22.014,1.87 C22.644,2.5 22.834,3.4 22.504,4.22 C20.924,8.16 16.954,13.52 13.644,16.17 L11.674,17.75 C11.304,18.02 11.004,18.19 10.704,18.31 C10.624,18.35 10.524,18.37 10.434,18.37 Z M7.544,12.94 C8.384,13.16 9.134,13.6 9.764,14.23 C10.394,14.85 10.814,15.57 11.024,16.37 L12.714,15.01 C15.854,12.5 19.624,7.41 21.114,3.67 C21.264,3.3 21.054,3.04 20.954,2.95 C20.884,2.88 20.624,2.66 20.224,2.81 C16.504,4.31 11.414,8.08 8.894,11.22 L7.544,12.94 Z"/>
  <path fill="#292D32" d="M4.083,22.75 C3.333,22.75 2.613,22.45 2.073,21.91 C1.453,21.29 1.153,20.43 1.253,19.55 L1.523,17.09 C1.783,14.65 3.783,12.84 6.263,12.79 C6.453,12.78 6.703,12.79 6.933,12.81 C8.023,12.95 8.993,13.44 9.773,14.22 C10.543,14.99 11.003,15.91 11.143,16.94 C11.173,17.16 11.193,17.4 11.193,17.61 C11.193,18.93 10.683,20.16 9.763,21.09 C8.993,21.85 8.003,22.32 6.883,22.46 L4.413,22.73 C4.303,22.74 4.193,22.75 4.083,22.75 Z M6.453,14.3 C6.413,14.3 6.363,14.3 6.323,14.3 C4.813,14.33 3.213,15.36 3.013,17.26 L2.743,19.72 C2.693,20.14 2.843,20.55 3.133,20.85 C3.423,21.14 3.833,21.29 4.243,21.24 L6.703,20.97 C7.473,20.87 8.163,20.55 8.683,20.03 C9.323,19.39 9.683,18.53 9.683,17.61 C9.683,17.46 9.673,17.3 9.653,17.14 C9.563,16.43 9.243,15.81 8.703,15.27 C8.163,14.73 7.493,14.39 6.773,14.3 C6.693,14.3 6.573,14.3 6.453,14.3 Z"/>
  <path fill="#292D32" d="M14.238,15.22 C13.828,15.22 13.488,14.88 13.488,14.47 C13.488,12.27 11.698,10.49 9.508,10.49 C9.098,10.49 8.758,10.15 8.758,9.74 C8.758,9.33 9.088,8.99 9.498,8.99 C12.518,8.99 14.978,11.45 14.978,14.47 C14.988,14.89 14.648,15.22 14.238,15.22 Z"/>
</svg>