<svg xmlns="http://www.w3.org/2000/svg" width="24" height="24" viewBox="0 0 24 24">
  <defs/>
  <path fill="#292D32" d="M22,22.75 L2,22.75 C1.59,22.75 1.25,22.41 1.25,22 C1.25,21.59 1.59,21.25 2,21.25 L22,21.25 C22.41,21.25 22.75,21.59 22.75,22 C22.75,22.41 22.41,22.75 22,22.75 Z"/>
  <path fill="#292D32" d="M20.889,22.75 C20.479,22.75 20.139,22.41 20.139,22 L20.139,13 C20.139,11.76 18.979,10.75 17.559,10.75 L6.439,10.75 C5.019,10.75 3.859,11.76 3.859,13 L3.859,22 C3.859,22.41 3.519,22.75 3.109,22.75 C2.699,22.75 2.359,22.41 2.359,22 L2.359,13 C2.359,10.93 4.189,9.25 6.439,9.25 L17.549,9.25 C19.799,9.25 21.629,10.93 21.629,13 L21.629,22 C21.639,22.41 21.299,22.75 20.889,22.75 Z"/>
  <path fill="#292D32" d="M18.442,10.75 C18.032,10.75 17.692,10.41 17.692,10 L17.692,7.17 C17.692,6.39 16.942,5.75 16.032,5.75 L7.982,5.75 C7.062,5.75 6.322,6.39 6.322,7.17 L6.322,10 C6.322,10.41 5.982,10.75 5.572,10.75 C5.162,10.75 4.812,10.41 4.812,10 L4.812,7.17 C4.812,5.56 6.232,4.25 7.973,4.25 L16.023,4.25 C17.762,4.25 19.183,5.56 19.183,7.17 L19.183,10 C19.192,10.41 18.852,10.75 18.442,10.75 Z"/>
  <path fill="#292D32" d="M17.327,17.75 C16.167,17.75 15.227,16.81 15.227,15.65 L15.227,15.34 C15.227,15.01 14.957,14.74 14.627,14.74 C14.297,14.74 14.027,15.01 14.027,15.34 L14.027,15.65 C14.027,16.81 13.087,17.75 11.927,17.75 C10.767,17.75 9.827,16.81 9.827,15.65 L9.827,15.34 C9.827,15.01 9.557,14.74 9.227,14.74 C8.897,14.74 8.627,15.01 8.627,15.34 L8.627,15.65 C8.627,16.81 7.687,17.75 6.527,17.75 C5.367,17.75 4.427,16.81 4.427,15.65 L4.427,15.32 C4.427,15 4.167,14.73 3.837,14.72 L3.467,14.72 C3.057,14.71 2.717,14.37 2.727,13.96 C2.737,13.55 3.067,13.22 3.477,13.22 L3.487,13.22 L3.857,13.22 C4.997,13.24 5.927,14.18 5.927,15.32 L5.927,15.65 C5.927,15.98 6.197,16.25 6.527,16.25 C6.857,16.25 7.127,15.98 7.127,15.65 L7.127,15.34 C7.127,14.18 8.067,13.24 9.227,13.24 C10.387,13.24 11.327,14.18 11.327,15.34 L11.327,15.65 C11.327,15.98 11.597,16.25 11.927,16.25 C12.257,16.25 12.527,15.98 12.527,15.65 L12.527,15.34 C12.527,14.18 13.467,13.24 14.627,13.24 C15.787,13.24 16.727,14.18 16.727,15.34 L16.727,15.65 C16.727,15.98 16.997,16.25 17.327,16.25 C17.657,16.25 17.927,15.98 17.927,15.65 L17.927,15.34 C17.927,14.18 18.867,13.24 20.027,13.24 L20.477,13.24 C20.887,13.24 21.227,13.58 21.227,13.99 C21.227,14.4 20.887,14.74 20.477,14.74 L20.027,14.74 C19.697,14.74 19.427,15.01 19.427,15.34 L19.427,15.65 C19.427,16.81 18.487,17.75 17.327,17.75 Z"/>
  <path fill="#292D32" d="M8,5.75 C7.59,5.75 7.25,5.41 7.25,5 L7.25,3 C7.25,2.59 7.59,2.25 8,2.25 C8.41,2.25 8.75,2.59 8.75,3 L8.75,5 C8.75,5.41 8.41,5.75 8,5.75 Z"/>
  <path fill="#292D32" d="M16,5.75 C15.59,5.75 15.25,5.41 15.25,5 L15.25,3 C15.25,2.59 15.59,2.25 16,2.25 C16.41,2.25 16.75,2.59 16.75,3 L16.75,5 C16.75,5.41 16.41,5.75 16,5.75 Z"/>
  <path fill="#292D32" d="M12,5.75 C11.59,5.75 11.25,5.41 11.25,5 L11.25,2 C11.25,1.59 11.59,1.25 12,1.25 C12.41,1.25 12.75,1.59 12.75,2 L12.75,5 C12.75,5.41 12.41,5.75 12,5.75 Z"/>
</svg>