<svg xmlns="http://www.w3.org/2000/svg" width="24" height="24" viewBox="0 0 24 24">
  <defs/>
  <path fill="#4C4C4C" d="M8.75,2 L8.75,5 Q8.75,5.311 8.53,5.53 Q8.311,5.75 8,5.75 Q7.689,5.75 7.47,5.53 Q7.25,5.311 7.25,5 L7.25,2 Q7.25,1.689 7.47,1.47 Q7.689,1.25 8,1.25 Q8.311,1.25 8.53,1.47 Q8.75,1.689 8.75,2 Z"/>
  <path fill="#4C4C4C" d="M16.75,2 L16.75,5 Q16.75,5.311 16.53,5.53 Q16.311,5.75 16,5.75 Q15.689,5.75 15.47,5.53 Q15.25,5.311 15.25,5 L15.25,2 Q15.25,1.689 15.47,1.47 Q15.689,1.25 16,1.25 Q16.311,1.25 16.53,1.47 Q16.75,1.689 16.75,2 Z"/>
  <path fill="#4C4C4C" d="M3.5,8.34 L20.5,8.34 Q20.811,8.34 21.03,8.56 Q21.25,8.779 21.25,9.09 Q21.25,9.4 21.03,9.62 Q20.811,9.84 20.5,9.84 L3.5,9.84 Q3.189,9.84 2.97,9.62 Q2.75,9.4 2.75,9.09 Q2.75,8.779 2.97,8.56 Q3.189,8.34 3.5,8.34 Z"/>
  <path fill="#4C4C4C" d="M21.75,8.5 L21.75,17 Q21.75,22.75 16,22.75 L8,22.75 Q2.25,22.75 2.25,17 L2.25,8.5 Q2.25,2.75 8,2.75 L16,2.75 Q21.75,2.75 21.75,8.5 Z M20.25,8.5 Q20.25,4.25 16,4.25 L8,4.25 Q3.75,4.25 3.75,8.5 L3.75,17 Q3.75,21.25 8,21.25 L16,21.25 Q20.25,21.25 20.25,17 Z"/>
  <path fill="#4C4C4C" d="M15.695,12.95 L15.704,12.95 Q16.014,12.95 16.234,13.17 Q16.454,13.39 16.454,13.7 Q16.454,14.011 16.234,14.231 Q16.014,14.45 15.704,14.45 L15.695,14.45 Q15.384,14.45 15.164,14.231 Q14.945,14.011 14.945,13.7 Q14.945,13.39 15.164,13.17 Q15.384,12.95 15.695,12.95 Z"/>
  <path fill="#4C4C4C" d="M15.695,15.95 L15.704,15.95 Q16.014,15.95 16.234,16.17 Q16.454,16.39 16.454,16.7 Q16.454,17.011 16.234,17.231 Q16.014,17.45 15.704,17.45 L15.695,17.45 Q15.384,17.45 15.164,17.231 Q14.945,17.011 14.945,16.7 Q14.945,16.39 15.164,16.17 Q15.384,15.95 15.695,15.95 Z"/>
  <path fill="#4C4C4C" d="M11.995,12.95 L12.005,12.95 Q12.315,12.95 12.535,13.17 Q12.754,13.39 12.755,13.7 Q12.754,14.011 12.535,14.231 Q12.315,14.45 12.005,14.45 L11.995,14.45 Q11.685,14.45 11.465,14.231 Q11.245,14.011 11.245,13.7 Q11.245,13.39 11.465,13.17 Q11.685,12.95 11.995,12.95 Z"/>
  <path fill="#4C4C4C" d="M11.995,15.95 L12.005,15.95 Q12.315,15.95 12.535,16.17 Q12.754,16.39 12.755,16.7 Q12.754,17.011 12.535,17.231 Q12.315,17.45 12.005,17.45 L11.995,17.45 Q11.685,17.45 11.465,17.231 Q11.245,17.011 11.245,16.7 Q11.245,16.39 11.465,16.17 Q11.685,15.95 11.995,15.95 Z"/>
  <path fill="#4C4C4C" d="M8.294,12.95 L8.303,12.95 Q8.614,12.95 8.834,13.17 Q9.053,13.39 9.053,13.7 Q9.053,14.011 8.834,14.231 Q8.614,14.45 8.303,14.45 L8.294,14.45 Q7.984,14.45 7.764,14.231 Q7.544,14.011 7.544,13.7 Q7.544,13.39 7.764,13.17 Q7.984,12.95 8.294,12.95 Z"/>
  <path fill="#4C4C4C" d="M8.294,15.95 L8.303,15.95 Q8.614,15.95 8.834,16.17 Q9.053,16.39 9.053,16.7 Q9.053,17.011 8.834,17.231 Q8.614,17.45 8.303,17.45 L8.294,17.45 Q7.984,17.45 7.764,17.231 Q7.544,17.011 7.544,16.7 Q7.544,16.39 7.764,16.17 Q7.984,15.95 8.294,15.95 Z"/>
</svg>