<svg xmlns="http://www.w3.org/2000/svg" width="24" height="24" viewBox="0 0 24 24">
  <defs/>
  <path fill="#292D32" d="M17.452,22.75 C16.322,22.75 15.132,22.48 13.902,21.96 C12.702,21.45 11.492,20.75 10.312,19.9 L9.872,19.57 C9.542,19.32 9.482,18.85 9.732,18.52 C9.982,18.19 10.452,18.13 10.782,18.38 L11.202,18.69 C12.282,19.48 13.392,20.12 14.492,20.58 C16.202,21.31 17.802,21.48 19.122,20.93 C19.632,20.72 20.082,20.4 20.492,19.94 C20.722,19.69 20.902,19.42 21.052,19.1 C21.172,18.85 21.232,18.59 21.232,18.33 C21.232,18.17 21.202,18.01 21.122,17.83 C21.102,17.78 21.032,17.66 20.842,17.53 L17.522,15.17 C17.322,15.03 17.142,14.93 16.972,14.86 C16.712,14.76 16.542,14.75 16.322,14.89 C16.122,14.99 15.942,15.14 15.742,15.34 L14.982,16.09 C14.592,16.47 13.992,16.56 13.532,16.39 C13.512,16.38 13.412,16.34 13.392,16.33 C13.382,16.32 13.272,16.28 13.262,16.27 C13.042,16.16 12.802,16 12.522,15.8 C12.192,15.56 12.112,15.09 12.352,14.75 C12.592,14.41 13.062,14.34 13.402,14.58 C13.612,14.73 13.802,14.85 13.962,14.94 L13.952,15 L14.682,14.27 C14.992,13.96 15.292,13.73 15.582,13.58 C16.132,13.24 16.832,13.18 17.532,13.47 C17.792,13.58 18.072,13.73 18.372,13.94 L21.692,16.3 C22.052,16.55 22.332,16.87 22.492,17.25 C22.642,17.63 22.712,17.98 22.712,18.33 C22.712,18.81 22.602,19.29 22.392,19.74 C22.182,20.19 21.922,20.58 21.592,20.94 C21.022,21.57 20.402,22.02 19.682,22.31 C18.992,22.6 18.242,22.75 17.452,22.75 Z M13.952,15.01 L13.792,15.69 L14.062,14.99 C14.022,14.98 13.972,14.99 13.952,15.01 Z"/>
  <path fill="#292D32" d="M7.47,17.24 C7.28,17.24 7.08,17.17 6.94,17.02 C5.89,15.96 4.92,14.83 4.08,13.66 C3.22,12.46 2.53,11.27 2.04,10.1 C1.51,8.87 1.25,7.67 1.25,6.54 C1.25,5.76 1.39,5.02 1.66,4.33 C1.95,3.61 2.39,2.96 3,2.39 C3.77,1.64 4.65,1.25 5.59,1.25 C5.98,1.25 6.38,1.34 6.72,1.5 C7.11,1.68 7.44,1.95 7.68,2.31 L10,5.58 C10.21,5.87 10.37,6.15 10.48,6.43 C10.61,6.73 10.68,7.03 10.68,7.32 C10.68,7.7 10.57,8.07 10.36,8.42 C10.21,8.69 9.98,8.98 9.69,9.27 L9.01,9.98 C9.02,10.01 9.03,10.03 9.04,10.05 C9.16,10.26 9.4,10.62 9.86,11.16 C10.34,11.72 10.81,12.22 11.27,12.7 C11.56,13 11.56,13.47 11.26,13.76 C10.96,14.05 10.49,14.05 10.2,13.75 C9.71,13.25 9.23,12.72 8.72,12.13 C8.25,11.58 7.91,11.11 7.7,10.72 C7.68,10.68 7.66,10.64 7.65,10.6 L7.58,10.43 C7.52,10.21 7.5,10.08 7.5,9.94 C7.5,9.58 7.63,9.26 7.88,9.01 L8.63,8.23 C8.83,8.03 8.98,7.84 9.08,7.67 C9.16,7.54 9.19,7.43 9.19,7.33 C9.19,7.25 9.16,7.13 9.11,7.01 C9.03,6.82 8.92,6.65 8.78,6.45 L6.46,3.17 C6.36,3.03 6.24,2.93 6.09,2.86 C5.94,2.79 5.77,2.75 5.59,2.75 C5.04,2.75 4.53,2.99 4.04,3.47 C3.59,3.9 3.26,4.37 3.06,4.88 C2.85,5.4 2.75,5.95 2.75,6.54 C2.75,7.47 2.97,8.48 3.41,9.52 C3.86,10.58 4.49,11.68 5.29,12.78 C6.09,13.88 7,14.95 8,15.96 C8.29,16.25 8.29,16.73 8,17.02 C7.85,17.17 7.66,17.24 7.47,17.24 Z"/>
  <path fill="#292D32" d="M1.998,22.75 C1.808,22.75 1.617,22.68 1.468,22.53 C1.177,22.24 1.177,21.76 1.468,21.47 L21.468,1.47 C21.758,1.18 22.238,1.18 22.527,1.47 C22.817,1.76 22.817,2.24 22.527,2.53 L2.527,22.53 C2.377,22.68 2.188,22.75 1.998,22.75 Z"/>
</svg>