<svg xmlns="http://www.w3.org/2000/svg" width="24" height="24" viewBox="0 0 24 24">
  <defs/>
  <path fill="#292D32" d="M17.242,22.75 L6.762,22.75 C3.962,22.75 2.182,21.08 2.022,18.29 L1.502,10.04 C1.422,8.79 1.852,7.59 2.712,6.68 C3.562,5.77 4.762,5.25 6.002,5.25 C6.322,5.25 6.632,5.06 6.782,4.76 L7.502,3.33 C8.092,2.16 9.572,1.25 10.862,1.25 L13.152,1.25 C14.442,1.25 15.912,2.16 16.502,3.32 L17.222,4.78 C17.372,5.06 17.672,5.25 18.002,5.25 C19.242,5.25 20.442,5.77 21.292,6.68 C22.152,7.6 22.582,8.79 22.502,10.04 L21.982,18.3 C21.802,21.13 20.072,22.75 17.242,22.75 Z M10.862,2.75 C10.122,2.75 9.182,3.33 8.842,4 L8.122,5.44 C7.702,6.25 6.892,6.75 6.002,6.75 C5.162,6.75 4.382,7.09 3.802,7.7 C3.232,8.31 2.942,9.11 3.002,9.94 L3.522,18.2 C3.642,20.22 4.732,21.25 6.762,21.25 L17.242,21.25 C19.262,21.25 20.352,20.22 20.482,18.2 L21.002,9.94 C21.052,9.11 20.772,8.31 20.202,7.7 C19.622,7.09 18.842,6.75 18.002,6.75 C17.112,6.75 16.302,6.25 15.882,5.46 L15.152,4 C14.822,3.34 13.882,2.76 13.142,2.76 L10.862,2.76 L10.862,2.75 Z"/>
  <path fill="#292D32" d="M13.5,8.75 L10.5,8.75 C10.09,8.75 9.75,8.41 9.75,8 C9.75,7.59 10.09,7.25 10.5,7.25 L13.5,7.25 C13.91,7.25 14.25,7.59 14.25,8 C14.25,8.41 13.91,8.75 13.5,8.75 Z"/>
  <path fill="#292D32" d="M12,18.75 C9.79,18.75 8,16.96 8,14.75 C8,12.54 9.79,10.75 12,10.75 C14.21,10.75 16,12.54 16,14.75 C16,16.96 14.21,18.75 12,18.75 Z M12,12.25 C10.62,12.25 9.5,13.37 9.5,14.75 C9.5,16.13 10.62,17.25 12,17.25 C13.38,17.25 14.5,16.13 14.5,14.75 C14.5,13.37 13.38,12.25 12,12.25 Z"/>
</svg>