<svg xmlns="http://www.w3.org/2000/svg" width="24" height="24" viewBox="0 0 24 24">
  <defs/>
  <path fill="#292D32" d="M9,10.75 L6,10.75 C5.59,10.75 5.25,10.41 5.25,10 C5.25,9.59 5.59,9.25 6,9.25 L9,9.25 C9.41,9.25 9.75,9.59 9.75,10 C9.75,10.41 9.41,10.75 9,10.75 Z"/>
  <path fill="#292D32" d="M17.238,22.75 L6.758,22.75 C6.348,22.75 6.008,22.41 6.008,22 C6.008,21.59 6.348,21.25 6.758,21.25 L17.238,21.25 C19.258,21.25 20.348,20.22 20.478,18.2 L20.998,9.94 C21.048,9.23 20.838,8.53 20.408,7.96 C20.158,7.63 20.228,7.16 20.558,6.91 C20.888,6.66 21.358,6.73 21.608,7.06 C22.248,7.92 22.568,8.97 22.498,10.04 L21.978,18.3 C21.798,21.13 20.068,22.75 17.238,22.75 Z"/>
  <path fill="#292D32" d="M3.442,21.21 C3.202,21.21 2.962,21.09 2.812,20.87 C2.352,20.17 2.082,19.3 2.022,18.29 L1.502,10.04 C1.422,8.79 1.852,7.59 2.712,6.68 C3.562,5.77 4.762,5.25 6.002,5.25 C6.322,5.25 6.632,5.06 6.782,4.76 L7.502,3.33 C8.092,2.16 9.572,1.25 10.862,1.25 L13.152,1.25 C14.442,1.25 15.912,2.16 16.502,3.32 L17.222,4.78 C17.372,5.06 17.672,5.25 18.002,5.25 C18.412,5.25 18.752,5.59 18.752,6 C18.752,6.41 18.412,6.75 18.002,6.75 C17.112,6.75 16.302,6.25 15.882,5.46 L15.152,4 C14.822,3.34 13.882,2.76 13.142,2.76 L10.852,2.76 C10.112,2.76 9.172,3.34 8.832,4.01 L8.122,5.44 C7.702,6.25 6.892,6.75 6.002,6.75 C5.162,6.75 4.382,7.09 3.802,7.7 C3.232,8.31 2.942,9.11 3.002,9.94 L3.522,18.2 C3.562,18.93 3.752,19.57 4.072,20.04 C4.302,20.39 4.202,20.85 3.862,21.08 C3.732,21.17 3.582,21.21 3.442,21.21 Z"/>
  <path fill="#292D32" d="M11.998,18.75 C11.108,18.75 10.238,18.45 9.538,17.9 C9.208,17.64 9.158,17.17 9.408,16.85 C9.668,16.52 10.138,16.47 10.458,16.72 C10.898,17.06 11.438,17.25 11.998,17.25 C13.378,17.25 14.498,16.13 14.498,14.75 C14.498,14.27 14.368,13.81 14.118,13.42 C13.898,13.07 13.998,12.61 14.348,12.38 C14.698,12.16 15.158,12.26 15.388,12.61 C15.788,13.24 16.008,13.98 16.008,14.74 C15.998,16.96 14.208,18.75 11.998,18.75 Z"/>
  <path fill="#292D32" d="M1.998,22.75 C1.808,22.75 1.617,22.68 1.468,22.53 C1.177,22.24 1.177,21.76 1.468,21.47 L21.468,1.47 C21.758,1.18 22.238,1.18 22.527,1.47 C22.817,1.76 22.817,2.24 22.527,2.53 L2.527,22.53 C2.377,22.68 2.188,22.75 1.998,22.75 Z"/>
</svg>