<svg xmlns="http://www.w3.org/2000/svg" width="24" height="24" viewBox="0 0 24 24">
  <defs/>
  <path fill="#292D32" d="M21.898,10.78 L1.898,10.78 C1.488,10.78 1.148,10.44 1.148,10.03 C1.148,9.62 1.488,9.28 1.898,9.28 L21.898,9.28 C22.308,9.28 22.648,9.62 22.648,10.03 C22.648,10.44 22.318,10.78 21.898,10.78 Z"/>
  <path fill="#292D32" d="M11.458,21.28 L6.348,21.28 C2.368,21.28 1.148,20.08 1.148,16.14 L1.148,7.92 C1.148,4.77 1.818,3.02 5.388,2.81 C5.698,2.8 6.008,2.79 6.348,2.79 L17.458,2.79 C21.438,2.79 22.658,3.99 22.658,7.93 L22.658,12.34 C22.658,12.75 22.318,13.09 21.908,13.09 C21.498,13.09 21.158,12.75 21.158,12.34 L21.158,7.93 C21.158,4.84 20.608,4.29 17.458,4.29 L6.348,4.29 C6.028,4.29 5.738,4.3 5.458,4.31 C3.288,4.44 2.648,4.93 2.648,7.93 L2.648,16.15 C2.648,19.24 3.198,19.79 6.348,19.79 L11.458,19.79 C11.868,19.79 12.208,20.13 12.208,20.54 C12.208,20.95 11.868,21.28 11.458,21.28 Z"/>
  <path fill="#292D32" d="M17.898,22.78 C15.278,22.78 13.148,20.65 13.148,18.03 C13.148,15.41 15.278,13.28 17.898,13.28 C20.518,13.28 22.648,15.41 22.648,18.03 C22.648,20.65 20.518,22.78 17.898,22.78 Z M17.898,14.78 C16.108,14.78 14.648,16.24 14.648,18.03 C14.648,19.82 16.108,21.28 17.898,21.28 C19.688,21.28 21.148,19.82 21.148,18.03 C21.148,16.24 19.688,14.78 17.898,14.78 Z"/>
  <path fill="#292D32" d="M18.967,19.9 C18.777,19.9 18.587,19.83 18.437,19.68 L16.327,17.57 C16.037,17.28 16.037,16.8 16.327,16.51 C16.617,16.22 17.097,16.22 17.387,16.51 L19.497,18.62 C19.787,18.91 19.787,19.39 19.497,19.68 C19.357,19.82 19.157,19.9 18.967,19.9 Z"/>
  <path fill="#292D32" d="M16.834,19.92 C16.643,19.92 16.453,19.85 16.303,19.7 C16.013,19.41 16.013,18.93 16.303,18.64 L18.413,16.53 C18.703,16.24 19.183,16.24 19.473,16.53 C19.763,16.82 19.763,17.3 19.473,17.59 L17.363,19.7 C17.223,19.85 17.034,19.92 16.834,19.92 Z"/>
  <path fill="#292D32" d="M9.898,16.78 L5.898,16.78 C5.488,16.78 5.148,16.44 5.148,16.03 C5.148,15.62 5.488,15.28 5.898,15.28 L9.898,15.28 C10.308,15.28 10.648,15.62 10.648,16.03 C10.648,16.44 10.318,16.78 9.898,16.78 Z"/>
</svg>