<svg xmlns="http://www.w3.org/2000/svg" width="24" height="24" viewBox="0 0 24 24">
  <defs/>
  <path fill="#292D32" d="M11.02,20.25 L7.5,20.25 C6.75,20.25 6.2,20.22 5.73,20.15 C2.4,19.78 1.75,17.8 1.75,14.5 L1.75,9.5 C1.75,6.2 2.41,4.21 5.76,3.84 C6.2,3.78 6.75,3.75 7.5,3.75 L10.96,3.75 C11.37,3.75 11.71,4.09 11.71,4.5 C11.71,4.91 11.37,5.25 10.96,5.25 L7.5,5.25 C6.82,5.25 6.34,5.28 5.95,5.33 C3.92,5.55 3.25,6.19 3.25,9.5 L3.25,14.5 C3.25,17.81 3.92,18.44 5.92,18.67 C6.34,18.73 6.82,18.75 7.5,18.75 L11.02,18.75 C11.43,18.75 11.77,19.09 11.77,19.5 C11.77,19.91 11.43,20.25 11.02,20.25 Z"/>
  <path fill="#292D32" d="M16.503,20.25 L15.023,20.25 C14.613,20.25 14.273,19.91 14.273,19.5 C14.273,19.09 14.613,18.75 15.023,18.75 L16.503,18.75 C17.183,18.75 17.663,18.72 18.053,18.67 C20.083,18.45 20.753,17.81 20.753,14.5 L20.753,9.5 C20.753,6.19 20.083,5.56 18.083,5.33 C17.663,5.27 17.183,5.25 16.503,5.25 L15.023,5.25 C14.613,5.25 14.273,4.91 14.273,4.5 C14.273,4.09 14.613,3.75 15.023,3.75 L16.503,3.75 C17.253,3.75 17.803,3.78 18.273,3.85 C21.603,4.22 22.253,6.2 22.253,9.5 L22.253,14.5 C22.253,17.8 21.593,19.79 18.243,20.16 C17.803,20.22 17.253,20.25 16.503,20.25 Z"/>
  <path fill="#292D32" d="M15,22.75 C14.59,22.75 14.25,22.41 14.25,22 L14.25,2 C14.25,1.59 14.59,1.25 15,1.25 C15.41,1.25 15.75,1.59 15.75,2 L15.75,22 C15.75,22.41 15.41,22.75 15,22.75 Z"/>
  <path fill="#292D32" d="M8,16.25 C7.59,16.25 7.25,15.91 7.25,15.5 L7.25,8.5 C7.25,8.09 7.59,7.75 8,7.75 C8.41,7.75 8.75,8.09 8.75,8.5 L8.75,15.5 C8.75,15.91 8.41,16.25 8,16.25 Z"/>
</svg>