<svg xmlns="http://www.w3.org/2000/svg" width="24" height="24" viewBox="0 0 24 24">
  <defs/>
  <path fill="#7332D6" d="M7.313,10.199 L10.378,3.193 Q10.686,2.491 11.411,2.241 Q12.136,1.99 12.811,2.354 L18.355,5.34 Q18.629,5.487 18.718,5.784 Q18.807,6.082 18.66,6.356 Q18.513,6.629 18.215,6.718 Q17.918,6.808 17.644,6.66 L12.1,3.675 Q12.003,3.623 11.9,3.658 Q11.796,3.694 11.752,3.795 L8.687,10.801 Q8.563,11.085 8.273,11.198 Q7.984,11.312 7.699,11.187 Q7.415,11.062 7.302,10.773 Q7.188,10.484 7.313,10.199 Z"/>
  <path fill="#7332D6" d="M12.25,15.5 L12.25,6 Q12.25,5.689 12.47,5.47 Q12.689,5.25 13,5.25 L21,5.25 Q21.311,5.25 21.53,5.47 Q21.75,5.689 21.75,6 L21.75,20.5 Q21.75,20.811 21.53,21.03 Q21.311,21.25 21,21.25 L13,21.25 Q12.689,21.25 12.47,21.03 Q12.25,20.811 12.25,20.5 L12.25,18.5 Q12.25,18.189 12.47,17.97 Q12.689,17.75 13,17.75 Q13.311,17.75 13.53,17.97 Q13.75,18.189 13.75,18.5 L13.75,19.75 L20.25,19.75 L20.25,6.75 L13.75,6.75 L13.75,15.5 Q13.75,15.811 13.53,16.03 Q13.311,16.25 13,16.25 Q12.689,16.25 12.47,16.03 Q12.25,15.811 12.25,15.5 Z"/>
  <path fill="#7332D6" d="M2,21.25 Q4.697,21.25 6.472,19.441 Q7.384,18.512 8.058,18.414 Q8.544,18.344 9.509,18.226 Q11.504,17.983 12.374,17.771 Q14.22,17.322 15.894,16.629 Q15.932,16.614 15.944,16.591 Q16.199,16.102 16.243,15.788 Q15.726,15.779 13.835,16.21 Q10.656,16.936 9.463,16.774 Q7.527,16.513 7.543,15.095 Q7.554,14.066 8.516,13.447 Q10.032,12.471 11.75,12.616 L11.75,9.977 Q5.419,11.745 3.076,14.558 Q2.878,14.797 2.568,14.825 Q2.259,14.853 2.02,14.654 Q1.781,14.456 1.753,14.146 Q1.725,13.837 1.924,13.598 Q4.746,10.209 12.314,8.273 Q12.406,8.25 12.5,8.25 Q12.811,8.25 13.03,8.47 Q13.25,8.689 13.25,9 L13.25,13.5 Q13.25,13.592 13.228,13.682 Q13.152,13.983 12.886,14.143 Q12.619,14.303 12.318,14.228 Q10.703,13.824 9.328,14.709 Q9.045,14.891 9.043,15.112 Q9.042,15.204 9.664,15.288 Q10.587,15.413 13.501,14.748 Q15.888,14.203 16.579,14.314 Q17.899,14.526 17.736,15.936 Q17.667,16.53 17.274,17.285 Q17.01,17.791 16.468,18.015 Q14.687,18.753 12.729,19.229 Q11.773,19.461 9.691,19.715 Q8.742,19.83 8.273,19.898 Q8.1,19.924 7.543,20.491 Q5.327,22.75 2,22.75 Q1.689,22.75 1.47,22.53 Q1.25,22.311 1.25,22 Q1.25,21.689 1.47,21.47 Q1.689,21.25 2,21.25 Z"/>
  <path fill="#7332D6" d="M16,9.75 L21,9.75 Q21.311,9.75 21.53,9.97 Q21.75,10.189 21.75,10.5 Q21.75,10.811 21.53,11.03 Q21.311,11.25 21,11.25 L16,11.25 Q15.689,11.25 15.47,11.03 Q15.25,10.811 15.25,10.5 Q15.25,10.189 15.47,9.97 Q15.689,9.75 16,9.75 Z"/>
</svg>