<svg xmlns="http://www.w3.org/2000/svg" width="9" height="18" viewBox="0 0 9 18">
  <defs/>
  <path fill="#4C4C4C" d="M7.317,17.12 L0.797,10.6 Q0,9.803 0,8.67 Q0,7.537 0.797,6.74 L7.317,0.22 Q7.423,0.114 7.561,0.057 Q7.698,0 7.848,0 Q7.997,0 8.135,0.057 Q8.273,0.114 8.378,0.22 Q8.483,0.325 8.541,0.463 Q8.598,0.601 8.598,0.75 Q8.598,0.899 8.541,1.037 Q8.483,1.175 8.378,1.28 L1.858,7.8 Q1.5,8.158 1.5,8.67 Q1.5,9.182 1.858,9.54 L8.378,16.06 Q8.483,16.165 8.541,16.303 Q8.598,16.441 8.598,16.59 Q8.598,16.739 8.541,16.877 Q8.483,17.015 8.378,17.12 Q8.273,17.226 8.135,17.283 Q7.997,17.34 7.848,17.34 Q7.698,17.34 7.561,17.283 Q7.423,17.226 7.317,17.12 Z"/>
</svg>