<svg xmlns="http://www.w3.org/2000/svg" width="24" height="24" viewBox="0 0 24 24">
  <defs/>
  <path fill="#292D32" d="M12,22.75 C6.07,22.75 1.25,17.93 1.25,12 C1.25,6.07 6.07,1.25 12,1.25 C17.93,1.25 22.75,6.07 22.75,12 C22.75,17.93 17.93,22.75 12,22.75 Z M12,2.75 C6.9,2.75 2.75,6.9 2.75,12 C2.75,17.1 6.9,21.25 12,21.25 C17.1,21.25 21.25,17.1 21.25,12 C21.25,6.9 17.1,2.75 12,2.75 Z"/>
  <path fill="#292D32" d="M12,16.75 C9.38,16.75 7.25,14.62 7.25,12 C7.25,9.38 9.38,7.25 12,7.25 C14.62,7.25 16.75,9.38 16.75,12 C16.75,14.62 14.62,16.75 12,16.75 Z M12,8.75 C10.21,8.75 8.75,10.21 8.75,12 C8.75,13.79 10.21,15.25 12,15.25 C13.79,15.25 15.25,13.79 15.25,12 C15.25,10.21 13.79,8.75 12,8.75 Z"/>
  <path fill="#292D32" d="M21.168,8.75 C21.118,8.75 21.058,8.74 21.008,8.73 C18.068,8.09 15.098,8.09 12.158,8.73 C11.748,8.82 11.358,8.56 11.268,8.16 C11.178,7.75 11.438,7.36 11.838,7.27 C14.988,6.58 18.178,6.58 21.328,7.27 C21.728,7.36 21.988,7.76 21.898,8.16 C21.828,8.51 21.518,8.75 21.168,8.75 Z"/>
  <path fill="#292D32" d="M8.538,14.75 C8.328,14.75 8.118,14.66 7.968,14.49 C5.888,12.1 4.308,9.37 3.258,6.37 L3.948,6.06 L4.658,5.82 L4.678,5.88 C5.658,8.69 7.148,11.26 9.108,13.51 C9.378,13.82 9.348,14.3 9.038,14.57 C8.888,14.69 8.708,14.75 8.538,14.75 Z"/>
  <path fill="#292D32" d="M10.88,22.69 C10.7,22.69 10.52,22.63 10.38,22.5 C10.07,22.22 10.05,21.75 10.33,21.44 C12.33,19.24 13.81,16.69 14.73,13.86 C14.86,13.47 15.3,13.21 15.69,13.34 C16.08,13.47 16.31,13.85 16.19,14.24 C15.18,17.36 13.59,20.1 11.45,22.46 C11.29,22.61 11.08,22.69 10.88,22.69 Z"/>
</svg>