<svg xmlns="http://www.w3.org/2000/svg" width="24" height="24" viewBox="0 0 24 24">
  <defs/>
  <path fill="#7A7A7A" d="M4.016,9.96 Q6.6,10.03 6.6,12.48 Q6.6,14.929 4.016,14.999 Q4,15 3.984,14.999 Q1.4,14.929 1.4,12.48 Q1.4,10.03 3.984,9.96 Q4,9.959 4.016,9.96 Z M4,11.16 Q2.6,11.205 2.6,12.48 Q2.6,13.754 4,13.799 Q5.4,13.754 5.4,12.48 Q5.4,11.205 4,11.16 Z"/>
  <path fill="#7A7A7A" d="M20.052,14.999 L20.046,14.999 Q18.311,15.03 17.617,13.487 Q16.912,11.921 18.152,10.707 Q19.371,9.514 20.976,10.144 Q22.601,10.782 22.6,12.481 Q22.61,13.517 21.853,14.258 Q21.109,14.987 20.052,14.999 Z M20.034,13.799 Q20.613,13.794 21.014,13.401 Q21.405,13.018 21.4,12.481 Q21.4,11.6 20.538,11.261 Q19.655,10.915 18.992,11.564 Q18.35,12.192 18.711,12.995 Q19.081,13.818 20.029,13.799 Z"/>
  <path fill="#7A7A7A" d="M9.401,20.212 L9.4,20.205 Q9.368,18.511 10.977,17.843 Q12.569,17.183 13.812,18.353 Q15.076,19.543 14.403,21.122 Q13.739,22.681 11.998,22.68 Q9.43,22.703 9.401,20.212 Z M10.6,20.193 Q10.614,21.493 11.999,21.48 Q12.946,21.481 13.299,20.652 Q13.644,19.843 12.989,19.226 Q12.312,18.589 11.437,18.952 Q10.582,19.306 10.6,20.186 Z"/>
  <path fill="#7A7A7A" d="M14.6,4.817 Q14.526,7.32 12,7.32 Q9.473,7.32 9.4,4.817 Q9.4,4.8 9.4,4.782 Q9.473,2.28 12,2.28 Q14.526,2.28 14.6,4.782 Q14.6,4.8 14.6,4.817 Z M13.4,4.8 Q13.352,3.48 12,3.48 Q10.648,3.48 10.6,4.8 Q10.648,6.12 12,6.12 Q13.352,6.12 13.4,4.8 Z"/>
  <path fill="#7A7A7A" d="M14.6,12.48 Q14.6,15 12,15 Q9.4,15 9.4,12.48 Q9.4,9.96 12,9.96 Q14.6,9.96 14.6,12.48 Z M13.4,12.48 Q13.4,11.16 12,11.16 Q10.6,11.16 10.6,12.48 Q10.6,13.8 12,13.8 Q13.4,13.8 13.4,12.48 Z"/>
  <path fill="#7A7A7A" d="M5.034,11.046 C4.908,11.451 5.148,11.878 5.57,11.999 C5.992,12.12 6.436,11.889 6.562,11.484 L5.034,11.046 Z M7.486,9.78 C7.76,9.448 7.701,8.967 7.356,8.704 C7.011,8.441 6.509,8.497 6.236,8.829 L7.486,9.78 Z M6.562,13.475 C6.436,13.069 5.992,12.839 5.57,12.96 C5.148,13.081 4.908,13.507 5.034,13.912 L6.562,13.475 Z M6.236,16.13 C6.509,16.461 7.011,16.517 7.356,16.255 C7.701,15.992 7.76,15.51 7.486,15.179 L6.236,16.13 Z M18.966,13.913 C19.092,13.508 18.852,13.082 18.43,12.961 C18.008,12.84 17.564,13.07 17.438,13.476 L18.966,13.913 Z M16.514,15.18 C16.24,15.511 16.299,15.993 16.644,16.256 C16.989,16.518 17.491,16.462 17.764,16.131 L16.514,15.18 Z M17.438,11.485 C17.564,11.89 18.008,12.121 18.43,12 C18.852,11.879 19.092,11.452 18.966,11.047 L17.438,11.485 Z M17.764,8.83 C17.491,8.498 16.989,8.442 16.644,8.705 C16.299,8.968 16.24,9.449 16.514,9.781 L17.764,8.83 Z M10.507,19.168 C10.929,19.288 11.373,19.058 11.499,18.653 C11.625,18.248 11.385,17.821 10.963,17.7 L10.507,19.168 Z M9.187,16.813 C8.842,16.55 8.34,16.606 8.067,16.938 C7.793,17.269 7.852,17.751 8.197,18.013 L9.187,16.813 Z M13.036,17.7 C12.614,17.821 12.374,18.248 12.5,18.653 C12.626,19.058 13.07,19.288 13.492,19.168 L13.036,17.7 Z M15.802,18.013 C16.147,17.751 16.206,17.269 15.932,16.938 C15.659,16.606 15.157,16.55 14.812,16.813 L15.802,18.013 Z M13.493,5.792 C13.071,5.671 12.627,5.902 12.501,6.307 C12.375,6.712 12.615,7.138 13.037,7.259 L13.493,5.792 Z M14.813,8.146 C15.158,8.409 15.66,8.353 15.933,8.022 C16.207,7.69 16.148,7.209 15.803,6.946 L14.813,8.146 Z M10.964,7.259 C11.386,7.138 11.626,6.712 11.5,6.307 C11.374,5.902 10.93,5.671 10.508,5.792 L10.964,7.259 Z M8.198,6.946 C7.853,7.209 7.795,7.69 8.068,8.022 C8.342,8.353 8.843,8.409 9.188,8.146 L8.198,6.946 Z M6.562,11.484 C6.754,10.865 7.068,10.286 7.486,9.78 L6.236,8.829 C5.692,9.488 5.284,10.24 5.034,11.046 L6.562,11.484 Z M5.034,13.912 C5.284,14.718 5.692,15.471 6.236,16.13 L7.486,15.179 C7.068,14.672 6.754,14.094 6.562,13.475 L5.034,13.912 Z M17.438,13.476 C17.246,14.095 16.932,14.673 16.514,15.18 L17.764,16.131 C18.308,15.472 18.716,14.719 18.966,13.913 L17.438,13.476 Z M18.966,11.047 C18.716,10.241 18.308,9.489 17.764,8.83 L16.514,9.781 C16.932,10.287 17.246,10.866 17.438,11.485 L18.966,11.047 Z M10.963,17.7 C10.318,17.516 9.715,17.215 9.187,16.813 L8.197,18.013 C8.883,18.535 9.667,18.927 10.507,19.168 L10.963,17.7 Z M13.492,19.168 C14.332,18.927 15.116,18.535 15.802,18.013 L14.812,16.813 C14.284,17.215 13.681,17.516 13.036,17.7 L13.492,19.168 Z M13.037,7.259 C13.682,7.444 14.285,7.745 14.813,8.146 L15.803,6.946 C15.117,6.424 14.333,6.032 13.493,5.792 L13.037,7.259 Z M10.508,5.792 C9.668,6.032 8.884,6.424 8.198,6.946 L9.188,8.146 C9.716,7.745 10.319,7.444 10.964,7.259 L10.508,5.792 Z"/>
</svg>