<svg xmlns="http://www.w3.org/2000/svg" width="24" height="24" viewBox="0 0 24 24">
  <defs/>
  <path fill="#292D32" d="M13.05,19.42 C12.509,19.42 11.94,19.37 11.319,19.27 L6.63,18.53 C5.149,18.3 4.01,17.89 3.159,17.29 C0.969,15.77 1.099,13.16 1.379,11.33 L2.119,6.64 C2.8,2.34 5.019,0.73 9.319,1.4 L14.009,2.14 C16.22,2.49 19.189,3.38 19.38,7.11 C19.419,7.75 19.38,8.48 19.239,9.34 L18.509,14.03 C17.93,17.7 16.22,19.42 13.05,19.42 Z M7.529,2.75 C5.149,2.75 4.069,3.96 3.599,6.88 L2.86,11.57 C2.4,14.52 3.24,15.52 4.019,16.07 C4.679,16.54 5.609,16.86 6.859,17.05 L11.55,17.79 C15.04,18.34 16.48,17.29 17.029,13.79 L17.759,9.1 C17.88,8.35 17.919,7.72 17.88,7.19 L17.88,7.18 C17.77,5.08 16.579,4.05 13.77,3.61 L9.089,2.88 C8.509,2.79 8,2.75 7.529,2.75 Z"/>
  <path fill="#292D32" d="M14.681,22.75 C13.831,22.75 12.871,22.57 11.761,22.2 L7.251,20.7 C4.681,19.85 3.291,18.63 2.871,16.85 C2.801,16.55 2.921,16.23 3.181,16.06 C3.441,15.89 3.781,15.89 4.031,16.07 C4.691,16.54 5.611,16.86 6.861,17.05 L11.551,17.79 C15.041,18.34 16.481,17.29 17.031,13.79 L17.761,9.1 C17.881,8.35 17.921,7.72 17.881,7.19 C17.871,6.93 18.001,6.67 18.231,6.52 C18.461,6.37 18.751,6.36 18.991,6.49 C21.671,7.92 22.381,10.21 21.221,13.71 L19.721,18.22 C19.011,20.34 18.081,21.64 16.781,22.29 C16.151,22.6 15.461,22.75 14.681,22.75 Z M5.731,18.36 C6.211,18.68 6.851,18.99 7.721,19.28 L12.231,20.78 C13.951,21.35 15.181,21.4 16.101,20.95 C17.021,20.49 17.721,19.47 18.291,17.75 L19.791,13.24 C20.611,10.76 20.291,9.44 19.341,8.55 C19.321,8.8 19.281,9.06 19.241,9.34 L18.511,14.03 C17.831,18.33 15.611,19.94 11.311,19.28 L6.621,18.54 C6.311,18.48 6.011,18.42 5.731,18.36 Z"/>
  <path fill="#292D32" d="M8.24,9.72 C6.87,9.72 5.75,8.6 5.75,7.23 C5.75,5.86 6.87,4.74 8.24,4.74 C9.61,4.74 10.73,5.86 10.73,7.23 C10.73,8.6 9.61,9.72 8.24,9.72 Z M8.24,6.25 C7.7,6.25 7.25,6.69 7.25,7.24 C7.25,7.79 7.69,8.23 8.24,8.23 C8.78,8.23 9.23,7.79 9.23,7.24 C9.23,6.69 8.78,6.25 8.24,6.25 Z"/>
</svg>