<svg xmlns="http://www.w3.org/2000/svg" width="24" height="24" viewBox="0 0 24 24">
  <defs/>
  <path fill="#292D32" d="M12,22.75 C6.07,22.75 1.25,17.93 1.25,12 C1.25,6.07 6.07,1.25 12,1.25 C17.93,1.25 22.75,6.07 22.75,12 C22.75,17.93 17.93,22.75 12,22.75 Z M12,2.75 C6.9,2.75 2.75,6.9 2.75,12 C2.75,17.1 6.9,21.25 12,21.25 C17.1,21.25 21.25,17.1 21.25,12 C21.25,6.9 17.1,2.75 12,2.75 Z"/>
  <path fill="#292D32" d="M15.711,15.93 C15.581,15.93 15.451,15.9 15.331,15.82 L12.231,13.97 C11.461,13.51 10.891,12.5 10.891,11.61 L10.891,7.51 C10.891,7.1 11.231,6.76 11.641,6.76 C12.051,6.76 12.391,7.1 12.391,7.51 L12.391,11.61 C12.391,11.97 12.691,12.5 13.001,12.68 L16.101,14.53 C16.461,14.74 16.571,15.2 16.361,15.56 C16.211,15.8 15.961,15.93 15.711,15.93 Z"/>
</svg>