<svg xmlns="http://www.w3.org/2000/svg" width="24" height="24" viewBox="0 0 24 24">
  <defs/>
  <path fill="#4C4C4C" d="M9.707,15.707 C9.317,16.098 8.683,16.098 8.293,15.707 C7.902,15.317 7.902,14.683 8.293,14.293 L11.293,11.293 C11.487,11.098 11.742,11.001 11.997,11 L12.003,11 C12.137,11 12.266,11.027 12.383,11.076 C12.501,11.125 12.611,11.197 12.707,11.293 L15.707,14.293 C16.098,14.683 16.098,15.317 15.707,15.707 C15.317,16.098 14.683,16.098 14.293,15.707 L13,14.414 L13,20 C13,20.552 12.552,21 12,21 C11.448,21 11,20.552 11,20 L11,14.414 Z"/>
  <path fill="#4C4C4C" d="M8.562,6.249 C9.63,3.751 12.11,2 15,2 C18.866,2 22,5.134 22,9 C22,11.073 21.097,12.937 19.667,14.217 C19.255,14.586 18.623,14.551 18.255,14.139 C17.886,13.728 17.922,13.095 18.333,12.727 C19.358,11.81 20,10.481 20,9 C20,6.239 17.761,4 15,4 C12.632,4 10.647,5.647 10.131,7.858 C10.057,8.174 9.834,8.435 9.533,8.557 C9.232,8.68 8.89,8.648 8.617,8.472 C8.151,8.173 7.597,8 7,8 C5.343,8 4,9.343 4,11 C4,12.109 4.601,13.079 5.501,13.599 C5.979,13.876 6.142,14.488 5.866,14.966 C5.589,15.444 4.977,15.607 4.499,15.33 C3.007,14.467 2,12.852 2,11 C2,8.239 4.239,6 7,6 C7.545,6 8.07,6.087 8.562,6.249 Z"/>
</svg>