<svg xmlns="http://www.w3.org/2000/svg" width="24" height="24" viewBox="0 0 24 24">
  <defs/>
  <path fill="#292D32" d="M5.998,22.75 C5.698,22.75 5.378,22.72 5.058,22.66 C4.888,22.62 4.738,22.58 4.588,22.54 C4.418,22.49 4.258,22.43 4.108,22.37 C4.068,22.36 4.038,22.34 4.008,22.33 C3.658,22.15 3.358,21.97 3.088,21.77 C3.068,21.76 3.058,21.74 3.038,21.73 C2.888,21.61 2.748,21.49 2.618,21.35 C2.478,21.2 2.378,21.08 2.268,20.96 C2.038,20.66 1.848,20.36 1.678,20.01 C1.658,19.98 1.648,19.94 1.638,19.9 C1.578,19.76 1.528,19.62 1.488,19.47 C1.428,19.26 1.388,19.12 1.358,18.97 C1.288,18.62 1.258,18.31 1.258,18.01 L1.258,4.51 C1.258,2.6 2.598,1.26 4.508,1.26 L7.508,1.26 C9.418,1.26 10.758,2.6 10.758,4.51 L10.758,18 C10.758,19.24 10.278,20.42 9.408,21.31 C9.248,21.47 9.128,21.58 9.018,21.67 C8.698,21.95 8.288,22.2 7.848,22.38 C7.748,22.42 7.628,22.47 7.498,22.52 C7.008,22.67 6.498,22.75 5.998,22.75 Z M4.738,21 C4.838,21.04 4.938,21.07 5.038,21.1 C5.148,21.13 5.258,21.16 5.368,21.19 C5.918,21.29 6.508,21.26 6.978,21.1 C7.048,21.07 7.148,21.04 7.238,21 C7.558,20.87 7.818,20.71 8.048,20.52 C8.148,20.44 8.218,20.37 8.288,20.31 C8.918,19.66 9.248,18.86 9.248,18.01 L9.248,4.51 C9.248,3.43 8.578,2.76 7.498,2.76 L4.498,2.76 C3.418,2.76 2.748,3.43 2.748,4.51 L2.748,18 C2.748,18.21 2.768,18.43 2.818,18.66 C2.838,18.75 2.868,18.86 2.898,18.98 C2.938,19.09 2.968,19.18 3.008,19.28 C3.028,19.31 3.038,19.34 3.048,19.36 C3.058,19.38 3.068,19.41 3.078,19.43 C3.198,19.65 3.318,19.84 3.448,20.01 C3.518,20.09 3.608,20.19 3.698,20.29 C3.808,20.41 3.898,20.48 3.998,20.56 C4.008,20.57 4.028,20.58 4.038,20.59 C4.198,20.71 4.378,20.82 4.588,20.93 C4.608,20.94 4.628,20.94 4.648,20.95 C4.668,20.96 4.698,20.98 4.738,21 Z"/>
  <path fill="#292D32" d="M19.5,22.75 L6,22.75 C5.59,22.75 5.25,22.41 5.25,22 C5.25,21.59 5.59,21.25 6,21.25 C6.35,21.25 6.69,21.2 6.98,21.1 C7.05,21.07 7.15,21.04 7.24,21 C7.56,20.87 7.82,20.71 8.05,20.52 C8.15,20.44 8.22,20.37 8.29,20.31 L15.13,13.48 C15.27,13.34 15.46,13.26 15.66,13.26 L19.5,13.26 C21.41,13.26 22.75,14.6 22.75,16.51 L22.75,19.51 C22.75,21.41 21.41,22.75 19.5,22.75 Z M9.46,21.25 L19.5,21.25 C20.58,21.25 21.25,20.58 21.25,19.5 L21.25,16.5 C21.25,15.42 20.58,14.75 19.5,14.75 L15.97,14.75 L9.46,21.25 Z"/>
  <path fill="#292D32" d="M4.81,22.57 C4.74,22.57 4.67,22.56 4.6,22.54 C3.86,22.32 3.18,21.91 2.64,21.36 C2.1,20.83 1.69,20.15 1.47,19.41 C1.35,19.01 1.57,18.6 1.97,18.48 C2.37,18.36 2.78,18.58 2.91,18.97 C3.23,19.99 4.03,20.79 5.05,21.11 C5.44,21.23 5.66,21.65 5.54,22.05 C5.43,22.36 5.13,22.57 4.81,22.57 Z"/>
  <path fill="#292D32" d="M8.862,21.54 C8.672,21.54 8.482,21.47 8.332,21.32 C8.042,21.03 8.032,20.56 8.322,20.26 C8.922,19.65 9.252,18.84 9.252,17.99 L9.252,8.33 C9.252,8.13 9.332,7.94 9.472,7.8 L12.182,5.09 C13.492,3.78 15.472,3.78 16.782,5.09 L18.902,7.21 C20.252,8.56 20.252,10.46 18.902,11.81 L9.392,21.31 C9.242,21.47 9.052,21.54 8.862,21.54 Z M10.752,8.65 L10.752,17.84 L17.842,10.76 C18.602,10 18.602,9.05 17.842,8.28 L15.722,6.16 C14.972,5.41 13.992,5.41 13.242,6.16 L10.752,8.65 Z"/>
  <path fill="#292D32" d="M6,19.75 C5.04,19.75 4.25,18.96 4.25,18 C4.25,17.04 5.04,16.25 6,16.25 C6.96,16.25 7.75,17.04 7.75,18 C7.75,18.96 6.96,19.75 6,19.75 Z M6,17.75 C5.86,17.75 5.75,17.86 5.75,18 C5.75,18.28 6.25,18.28 6.25,18 C6.25,17.86 6.14,17.75 6,17.75 Z"/>
</svg>