<svg xmlns="http://www.w3.org/2000/svg" width="24" height="24" viewBox="0 0 24 24">
  <defs/>
  <path fill="#292D32" d="M22,6.31 L12,6.31 C11.59,6.31 11.25,5.97 11.25,5.56 C11.25,5.15 11.59,4.81 12,4.81 L22,4.81 C22.41,4.81 22.75,5.15 22.75,5.56 C22.75,5.98 22.41,6.31 22,6.31 Z"/>
  <path fill="#292D32" d="M19.778,11.25 L14.228,11.25 C12.038,11.25 11.258,10.48 11.258,8.3 L11.258,4.2 C11.258,2.02 12.038,1.25 14.228,1.25 L19.778,1.25 C21.968,1.25 22.748,2.02 22.748,4.2 L22.748,8.31 C22.748,10.48 21.968,11.25 19.778,11.25 Z M14.218,2.75 C12.858,2.75 12.748,2.86 12.748,4.2 L12.748,8.31 C12.748,9.65 12.858,9.76 14.218,9.76 L19.768,9.76 C21.128,9.76 21.238,9.65 21.238,8.31 L21.238,4.2 C21.238,2.86 21.128,2.75 19.768,2.75 L14.218,2.75 Z"/>
  <path fill="#292D32" d="M12,17.81 L2,17.81 C1.59,17.81 1.25,17.47 1.25,17.06 C1.25,16.65 1.59,16.31 2,16.31 L12,16.31 C12.41,16.31 12.75,16.65 12.75,17.06 C12.75,17.48 12.41,17.81 12,17.81 Z"/>
  <path fill="#292D32" d="M9.778,22.75 L4.228,22.75 C2.038,22.75 1.258,21.98 1.258,19.8 L1.258,15.7 C1.258,13.52 2.038,12.75 4.228,12.75 L9.778,12.75 C11.968,12.75 12.748,13.52 12.748,15.7 L12.748,19.81 C12.748,21.98 11.968,22.75 9.778,22.75 Z M4.218,14.25 C2.858,14.25 2.748,14.36 2.748,15.7 L2.748,19.81 C2.748,21.15 2.858,21.26 4.218,21.26 L9.768,21.26 C11.128,21.26 11.238,21.15 11.238,19.81 L11.238,15.7 C11.238,14.36 11.128,14.25 9.768,14.25 L4.218,14.25 Z"/>
  <path fill="#292D32" d="M14.996,22.75 C14.726,22.75 14.476,22.6 14.346,22.37 C14.216,22.13 14.216,21.85 14.356,21.61 L15.406,19.86 C15.616,19.51 16.076,19.39 16.436,19.6 C16.796,19.81 16.906,20.27 16.696,20.63 L16.426,21.08 C19.186,20.43 21.256,17.95 21.256,14.99 C21.256,14.58 21.596,14.24 22.006,14.24 C22.416,14.24 22.756,14.58 22.756,14.99 C22.746,19.27 19.266,22.75 14.996,22.75 Z"/>
  <path fill="#292D32" d="M2,9.75 C1.59,9.75 1.25,9.41 1.25,9 C1.25,4.73 4.73,1.25 9,1.25 C9.27,1.25 9.52,1.4 9.65,1.63 C9.78,1.87 9.78,2.15 9.64,2.39 L8.59,4.14 C8.38,4.49 7.92,4.61 7.56,4.4 C7.2,4.19 7.09,3.73 7.3,3.37 L7.57,2.92 C4.81,3.57 2.74,6.05 2.74,9.01 C2.75,9.41 2.41,9.75 2,9.75 Z"/>
</svg>