<svg xmlns="http://www.w3.org/2000/svg" width="24" height="24" viewBox="0 0 24 24">
  <defs/>
  <path fill="#292D32" d="M17.1,1.25 L12.9,1.25 C8.99,1.25 7.25,2.99 7.25,6.9 L7.25,8 C7.25,8.41 7.59,8.75 8,8.75 L11.1,8.75 C14.2,8.75 15.25,9.8 15.25,12.9 L15.25,16 C15.25,16.41 15.59,16.75 16,16.75 L17.1,16.75 C21.01,16.75 22.75,15.01 22.75,11.1 L22.75,6.9 C22.75,2.99 21.01,1.25 17.1,1.25 Z M8.75,7.25 L8.75,6.9 C8.75,3.8 9.8,2.75 12.9,2.75 L17.1,2.75 C20.2,2.75 21.25,3.8 21.25,6.9 L21.25,11.1 C21.25,14.2 20.2,15.25 17.1,15.25 L16.75,15.25 L16.75,12.9 C16.75,8.99 15.01,7.25 11.1,7.25 L8.75,7.25 Z"/>
  <path fill="#292D32" d="M11.1,7.25 L6.9,7.25 C2.99,7.25 1.25,8.99 1.25,12.9 L1.25,17.1 C1.25,21.01 2.99,22.75 6.9,22.75 L11.1,22.75 C15.01,22.75 16.75,21.01 16.75,17.1 L16.75,12.9 C16.75,8.99 15.01,7.25 11.1,7.25 Z M6.9,21.25 C3.8,21.25 2.75,20.2 2.75,17.1 L2.75,12.9 C2.75,9.8 3.8,8.75 6.9,8.75 L11.1,8.75 C14.2,8.75 15.25,9.8 15.25,12.9 L15.25,17.1 C15.25,20.2 14.2,21.25 11.1,21.25 L6.9,21.25 Z"/>
  <path fill="#292D32" d="M8.033,17.7 C7.843,17.7 7.653,17.63 7.503,17.48 L5.553,15.53 C5.263,15.24 5.263,14.76 5.553,14.47 C5.843,14.18 6.323,14.18 6.613,14.47 L8.033,15.89 L11.393,12.53 C11.683,12.24 12.163,12.24 12.453,12.53 C12.743,12.82 12.743,13.3 12.453,13.59 L8.553,17.48 C8.413,17.62 8.223,17.7 8.033,17.7 Z"/>
</svg>