<svg xmlns="http://www.w3.org/2000/svg" width="24" height="24" viewBox="0 0 24 24">
  <defs/>
  <path fill="#292D32" d="M12,22.75 C6.07,22.75 1.25,17.93 1.25,12 C1.25,6.07 6.07,1.25 12,1.25 C17.93,1.25 22.75,6.07 22.75,12 C22.75,17.93 17.93,22.75 12,22.75 Z M12,2.75 C6.9,2.75 2.75,6.9 2.75,12 C2.75,17.1 6.9,21.25 12,21.25 C17.1,21.25 21.25,17.1 21.25,12 C21.25,6.9 17.1,2.75 12,2.75 Z"/>
  <path fill="#292D32" d="M12.242,16.75 C9.622,16.75 7.492,14.62 7.492,12 C7.492,9.38 9.622,7.25 12.242,7.25 C13.392,7.25 14.512,7.67 15.372,8.44 C15.682,8.71 15.712,9.19 15.442,9.5 C15.172,9.81 14.692,9.84 14.382,9.57 C13.792,9.05 13.032,8.76 12.242,8.76 C10.452,8.76 8.992,10.22 8.992,12.01 C8.992,13.8 10.452,15.26 12.242,15.26 C13.022,15.26 13.792,14.97 14.382,14.45 C14.692,14.18 15.172,14.21 15.442,14.52 C15.712,14.83 15.682,15.31 15.372,15.58 C14.502,16.33 13.392,16.75 12.242,16.75 Z"/>
</svg>