<svg xmlns="http://www.w3.org/2000/svg" width="24" height="24" viewBox="0 0 24 24">
  <defs/>
  <path fill="#7332D6" d="M12,4.5 L13.189,3.014 C13.702,2.373 14.478,2 15.298,2 L15.5,2 C16.881,2 18,3.119 18,4.5 C18,4.671 17.983,4.838 17.95,5 L19,5 C20.657,5 22,6.343 22,8 L22,9 C22,9.889 21.614,10.687 21,11.236 L21,19 C21,20.657 19.657,22 18,22 L6,22 C4.343,22 3,20.657 3,19 L3,11.236 C2.386,10.687 2,9.889 2,9 L2,8 C2,6.343 3.343,5 5,5 L6.05,5 C6.017,4.838 6,4.671 6,4.5 C6,3.119 7.119,2 8.5,2 L8.702,2 C9.522,2 10.298,2.373 10.811,3.014 Z M13,20 L18,20 C18.552,20 19,19.552 19,19 L19,12 L13,12 Z M5,12 L5,19 C5,19.552 5.448,20 6,20 L11,20 L11,12 Z M13,7 L13,10 L19,10 C19.552,10 20,9.552 20,9 L20,8 C20,7.448 19.552,7 19,7 Z M5,7 C4.448,7 4,7.448 4,8 L4,9 C4,9.552 4.448,10 5,10 L11,10 L11,7 Z M14.161,5 L15.5,5 C15.776,5 16,4.776 16,4.5 C16,4.224 15.776,4 15.5,4 L15.298,4 C15.085,4 14.884,4.097 14.751,4.263 Z M8,4.5 C8,4.776 8.224,5 8.5,5 L9.839,5 L9.249,4.263 C9.116,4.097 8.915,4 8.702,4 L8.5,4 C8.224,4 8,4.224 8,4.5 Z"/>
</svg>