<svg xmlns="http://www.w3.org/2000/svg" width="24" height="24" viewBox="0 0 24 24">
  <defs/>
  <path fill="#292D32" d="M12,22.75 C6.07,22.75 1.25,17.93 1.25,12 C1.25,6.07 6.07,1.25 12,1.25 C17.93,1.25 22.75,6.07 22.75,12 C22.75,17.93 17.93,22.75 12,22.75 Z M12,2.75 C6.9,2.75 2.75,6.9 2.75,12 C2.75,17.1 6.9,21.25 12,21.25 C17.1,21.25 21.25,17.1 21.25,12 C21.25,6.9 17.1,2.75 12,2.75 Z"/>
  <path fill="#292D32" d="M8.987,15.62 C6.987,15.62 5.367,14 5.367,12 C5.367,10 6.987,8.38 8.987,8.38 C9.867,8.38 10.707,8.7 11.377,9.28 C11.687,9.55 11.717,10.03 11.447,10.34 C11.177,10.65 10.697,10.68 10.387,10.41 C9.997,10.07 9.507,9.88 8.987,9.88 C7.817,9.88 6.867,10.83 6.867,12 C6.867,13.17 7.817,14.12 8.987,14.12 C9.497,14.12 9.997,13.93 10.387,13.59 C10.697,13.32 11.167,13.35 11.447,13.66 C11.717,13.97 11.687,14.45 11.377,14.72 C10.707,15.3 9.857,15.62 8.987,15.62 Z"/>
  <path fill="#292D32" d="M15.987,15.62 C13.987,15.62 12.367,14 12.367,12 C12.367,10 13.987,8.38 15.987,8.38 C16.867,8.38 17.707,8.7 18.377,9.28 C18.687,9.55 18.717,10.03 18.447,10.34 C18.177,10.65 17.697,10.68 17.387,10.41 C16.997,10.07 16.507,9.88 15.987,9.88 C14.817,9.88 13.867,10.83 13.867,12 C13.867,13.17 14.817,14.12 15.987,14.12 C16.497,14.12 16.997,13.93 17.387,13.59 C17.697,13.32 18.167,13.35 18.447,13.66 C18.717,13.97 18.687,14.45 18.377,14.72 C17.707,15.3 16.857,15.62 15.987,15.62 Z"/>
</svg>