<svg xmlns="http://www.w3.org/2000/svg" width="24" height="24" viewBox="0 0 24 24">
  <defs/>
  <path fill="#B79501" d="M18.831,12.31 L18.73,14.014 L20.164,14.175 L20.265,12.47 L18.831,12.31 Z M13.4,20.251 L11.318,20.251 L11.383,21.751 L13.465,21.751 L13.4,20.251 Z M5.448,14.014 L5.199,12.31 L3.779,12.47 L4.028,14.175 L5.448,14.014 Z M9.498,11.301 L11.072,8.092 L9.787,7.362 L8.213,10.57 L9.498,11.301 Z M12.594,8.092 L14.444,11.301 L15.666,10.57 L13.815,7.362 L12.594,8.092 Z M14.444,11.301 C14.612,11.591 14.766,11.86 14.913,12.065 C15.064,12.277 15.268,12.51 15.571,12.647 L16.09,11.274 C16.144,11.299 16.136,11.324 16.05,11.203 C15.959,11.076 15.85,10.889 15.666,10.57 L14.444,11.301 Z M16.673,10.715 C16.437,10.973 16.297,11.124 16.185,11.222 C16.079,11.315 16.076,11.289 16.133,11.28 L16.394,12.766 C16.713,12.72 16.953,12.551 17.139,12.388 C17.319,12.23 17.517,12.013 17.732,11.778 L16.673,10.715 Z M15.571,12.647 C15.833,12.765 16.118,12.806 16.394,12.766 L16.133,11.28 C16.118,11.282 16.103,11.28 16.09,11.274 L15.571,12.647 Z M6.252,11.778 C6.488,12.013 6.705,12.23 6.899,12.388 C7.098,12.551 7.353,12.72 7.676,12.766 L7.808,11.28 C7.866,11.289 7.865,11.315 7.751,11.222 C7.631,11.124 7.478,10.973 7.219,10.715 L6.252,11.778 Z M8.213,10.57 C8.057,10.889 7.964,11.076 7.885,11.203 C7.809,11.324 7.798,11.299 7.851,11.274 L8.488,12.647 C8.78,12.51 8.963,12.277 9.096,12.065 C9.225,11.86 9.356,11.591 9.498,11.301 L8.213,10.57 Z M7.676,12.766 C7.956,12.806 8.237,12.765 8.488,12.647 L7.851,11.274 C7.838,11.28 7.823,11.282 7.808,11.28 L7.676,12.766 Z M11.318,20.251 C9.943,20.251 8.979,20.25 8.239,20.152 C7.52,20.056 7.108,19.879 6.793,19.596 L5.885,20.713 C6.512,21.277 7.249,21.523 8.122,21.64 C8.974,21.753 10.046,21.751 11.383,21.751 L11.318,20.251 Z M4.028,14.175 C4.229,15.552 4.4,16.901 4.639,17.995 C4.76,18.547 4.905,19.067 5.093,19.519 C5.28,19.966 5.529,20.394 5.885,20.713 L6.793,19.596 C6.678,19.492 6.543,19.301 6.406,18.972 C6.27,18.647 6.15,18.231 6.039,17.725 C5.816,16.703 5.657,15.446 5.448,14.014 L4.028,14.175 Z M18.73,14.014 C18.645,15.446 18.595,16.703 18.46,17.725 C18.393,18.231 18.309,18.647 18.201,18.972 C18.093,19.301 17.974,19.492 17.868,19.596 L18.873,20.713 C19.201,20.394 19.413,19.966 19.562,19.519 C19.711,19.067 19.81,18.547 19.883,17.995 C20.027,16.901 20.081,15.552 20.164,14.175 L18.73,14.014 Z M13.465,21.751 C14.802,21.751 15.874,21.753 16.716,21.64 C17.579,21.523 18.295,21.277 18.873,20.713 L17.868,19.596 C17.578,19.879 17.181,20.056 16.47,20.152 C15.739,20.25 14.775,20.251 13.4,20.251 L13.465,21.751 Z M10.503,5.001 C10.473,4.311 10.984,3.751 11.645,3.751 L11.58,2.251 C10.127,2.251 9.002,3.483 9.068,5.001 L10.503,5.001 Z M11.645,3.751 C12.305,3.751 12.865,4.311 12.895,5.001 L14.33,5.001 C14.264,3.483 13.033,2.251 11.58,2.251 L11.645,3.751 Z M20.243,9.001 C20.261,9.416 19.954,9.751 19.558,9.751 L19.623,11.251 C20.812,11.251 21.732,10.244 21.678,9.001 L20.243,9.001 Z M18.808,9.001 C18.79,8.587 19.097,8.251 19.493,8.251 L19.428,6.751 C18.239,6.751 17.319,7.759 17.373,9.001 L18.808,9.001 Z M19.493,8.251 C19.889,8.251 20.225,8.587 20.243,9.001 L21.678,9.001 C21.624,7.759 20.617,6.751 19.428,6.751 L19.493,8.251 Z M4.251,9.751 C3.854,9.751 3.519,9.416 3.501,9.001 L2.066,9.001 C2.119,10.244 3.127,11.251 4.316,11.251 L4.251,9.751 Z M3.501,9.001 C3.483,8.587 3.79,8.251 4.186,8.251 L4.121,6.751 C2.932,6.751 2.012,7.759 2.066,9.001 L3.501,9.001 Z M4.186,8.251 C4.582,8.251 4.918,8.587 4.936,9.001 L6.371,9.001 C6.317,7.759 5.31,6.751 4.121,6.751 L4.186,8.251 Z M19.558,9.751 C19.555,9.751 19.552,9.751 19.549,9.751 L19.598,11.251 C19.606,11.251 19.614,11.251 19.623,11.251 L19.558,9.751 Z M20.265,12.47 C20.292,12.02 20.316,11.627 20.324,11.299 C20.331,10.978 20.326,10.67 20.28,10.402 L18.867,10.601 C18.885,10.711 18.895,10.892 18.888,11.193 C18.88,11.488 18.859,11.85 18.831,12.31 L20.265,12.47 Z M19.549,9.751 C19.336,9.749 19.141,9.65 19.003,9.491 L17.96,10.472 C18.369,10.942 18.956,11.243 19.598,11.251 L19.549,9.751 Z M19.003,9.491 C18.889,9.359 18.816,9.189 18.808,9.001 L17.373,9.001 C17.397,9.563 17.617,10.078 17.96,10.472 L19.003,9.491 Z M17.732,11.778 C18.351,11.103 18.67,10.763 18.886,10.62 L18.077,9.343 C17.686,9.603 17.227,10.112 16.673,10.715 L17.732,11.778 Z M4.936,9.001 C4.944,9.189 4.886,9.359 4.783,9.491 L5.911,10.472 C6.22,10.078 6.395,9.563 6.371,9.001 L4.936,9.001 Z M7.219,10.715 C6.613,10.112 6.109,9.603 5.696,9.343 L4.998,10.62 C5.226,10.763 5.575,11.103 6.252,11.778 L7.219,10.715 Z M4.783,9.491 C4.659,9.65 4.473,9.749 4.259,9.751 L4.341,11.251 C4.982,11.243 5.543,10.942 5.911,10.472 L4.783,9.491 Z M4.259,9.751 C4.257,9.751 4.254,9.751 4.251,9.751 L4.316,11.251 C4.324,11.251 4.333,11.251 4.341,11.251 L4.259,9.751 Z M5.199,12.31 C5.132,11.85 5.079,11.488 5.046,11.193 C5.013,10.892 5.006,10.711 5.016,10.601 L3.585,10.402 C3.562,10.67 3.583,10.978 3.619,11.299 C3.656,11.627 3.713,12.02 3.779,12.47 L5.199,12.31 Z M12.895,5.001 C12.916,5.487 12.67,5.908 12.289,6.116 L12.999,7.452 C13.831,6.998 14.376,6.072 14.33,5.001 L12.895,5.001 Z M12.289,6.116 C12.131,6.202 11.95,6.251 11.753,6.251 L11.818,7.751 C12.246,7.751 12.648,7.644 12.999,7.452 L12.289,6.116 Z M13.815,7.362 C13.602,6.992 13.41,6.659 13.236,6.387 L12.053,7.182 C12.203,7.415 12.374,7.711 12.594,8.092 L13.815,7.362 Z M11.753,6.251 C11.556,6.251 11.37,6.202 11.205,6.116 L10.61,7.452 C10.978,7.644 11.389,7.751 11.818,7.751 L11.753,6.251 Z M11.205,6.116 C10.806,5.908 10.524,5.487 10.503,5.001 L9.068,5.001 C9.114,6.072 9.74,6.998 10.61,7.452 L11.205,6.116 Z M11.072,8.092 C11.258,7.711 11.404,7.415 11.533,7.182 L10.282,6.387 C10.131,6.659 9.968,6.992 9.787,7.362 L11.072,8.092 Z"/>
  <path fill="#B79501" d="M5.517,17.001 C5.241,17.001 5.027,17.225 5.039,17.5 C5.051,17.776 5.285,18 5.561,18 L5.539,17.5 L5.517,17.001 Z M18.954,18 C19.231,18 19.445,17.776 19.433,17.5 C19.421,17.225 19.187,17.001 18.911,17.001 L18.933,17.5 L18.954,18 Z M5.539,17.5 L5.561,18 L18.954,18 L18.933,17.5 L18.911,17.001 L5.517,17.001 L5.539,17.5 Z"/>
</svg>