<svg xmlns="http://www.w3.org/2000/svg" width="24" height="24" viewBox="0 0 24 24">
  <defs/>
  <path fill="#292D32" d="M12.148,19.35 C11.738,19.35 11.398,19.01 11.398,18.6 L11.398,16.5 C11.398,16.09 11.738,15.75 12.148,15.75 C12.558,15.75 12.898,16.09 12.898,16.5 L12.898,18.6 C12.898,19.01 12.558,19.35 12.148,19.35 Z"/>
  <path fill="#292D32" d="M17.898,22.75 L6.398,22.75 L6.398,21 C6.398,19.48 7.628,18.25 9.148,18.25 L15.148,18.25 C16.668,18.25 17.898,19.48 17.898,21 L17.898,22.75 Z M7.898,21.25 L16.398,21.25 L16.398,21 C16.398,20.31 15.838,19.75 15.148,19.75 L9.148,19.75 C8.458,19.75 7.898,20.31 7.898,21 L7.898,21.25 Z"/>
  <path fill="#292D32" d="M18.148,22.75 L6.148,22.75 C5.738,22.75 5.398,22.41 5.398,22 C5.398,21.59 5.738,21.25 6.148,21.25 L18.148,21.25 C18.558,21.25 18.898,21.59 18.898,22 C18.898,22.41 18.558,22.75 18.148,22.75 Z"/>
  <path fill="#292D32" d="M18.427,12.44 C18.217,12.44 18.007,12.35 17.857,12.18 C17.667,11.96 17.617,11.65 17.737,11.39 C18.077,10.61 18.247,9.78 18.247,8.91 L18.247,5.91 C18.247,5.56 18.187,5.22 18.067,4.86 C18.057,4.83 18.047,4.79 18.037,4.75 C18.007,4.6 17.997,4.45 17.997,4.31 C17.997,3.9 18.337,3.56 18.747,3.56 L19.347,3.56 C21.137,3.56 22.597,5.06 22.597,6.91 C22.597,8.44 21.967,9.95 20.877,11.04 C20.857,11.06 20.797,11.11 20.787,11.12 C20.197,11.61 19.527,12.16 18.627,12.41 C18.557,12.43 18.497,12.44 18.427,12.44 Z M19.677,5.09 C19.727,5.36 19.747,5.64 19.747,5.91 L19.747,8.91 C19.747,9.32 19.717,9.71 19.657,10.11 C19.717,10.06 19.767,10.02 19.827,9.97 C20.627,9.17 21.097,8.05 21.097,6.91 C21.097,6.01 20.487,5.25 19.677,5.09 Z"/>
  <path fill="#292D32" d="M5.578,12.4 C5.498,12.4 5.428,12.39 5.348,12.36 C4.528,12.1 3.758,11.62 3.118,10.98 C1.968,9.71 1.398,8.32 1.398,6.85 C1.398,5.03 2.828,3.6 4.648,3.6 L5.298,3.6 C5.548,3.6 5.788,3.73 5.928,3.94 C6.068,4.15 6.088,4.42 5.988,4.65 C5.828,5.01 5.748,5.42 5.748,5.85 L5.748,8.85 C5.748,9.71 5.918,10.55 6.268,11.35 C6.388,11.62 6.328,11.93 6.138,12.15 C5.988,12.31 5.788,12.4 5.578,12.4 Z M4.298,5.13 C3.488,5.29 2.898,5.99 2.898,6.85 C2.898,7.94 3.338,8.99 4.208,9.95 C4.248,10 4.298,10.04 4.348,10.08 C4.278,9.67 4.248,9.26 4.248,8.85 L4.248,5.85 C4.248,5.61 4.268,5.37 4.298,5.13 Z"/>
  <path fill="#292D32" d="M12,16.75 C7.73,16.75 4.25,13.27 4.25,9 L4.25,6 C4.25,3.38 6.38,1.25 9,1.25 L15,1.25 C17.62,1.25 19.75,3.38 19.75,6 L19.75,9 C19.75,13.27 16.27,16.75 12,16.75 Z M9,2.75 C7.21,2.75 5.75,4.21 5.75,6 L5.75,9 C5.75,12.45 8.55,15.25 12,15.25 C15.45,15.25 18.25,12.45 18.25,9 L18.25,6 C18.25,4.21 16.79,2.75 15,2.75 L9,2.75 Z"/>
</svg>