<svg xmlns="http://www.w3.org/2000/svg" width="24" height="24" viewBox="0 0 24 24">
  <defs/>
  <path fill="#292D32" d="M12,14.75 C11.59,14.75 11.25,14.41 11.25,14 L11.25,9 C11.25,8.59 11.59,8.25 12,8.25 C12.41,8.25 12.75,8.59 12.75,9 L12.75,14 C12.75,14.41 12.41,14.75 12,14.75 Z"/>
  <path fill="#292D32" d="M12,18 C11.94,18 11.87,17.99 11.8,17.98 C11.74,17.97 11.68,17.95 11.62,17.92 C11.56,17.9 11.5,17.87 11.44,17.83 C11.39,17.79 11.34,17.75 11.29,17.71 C11.11,17.52 11,17.26 11,17 C11,16.74 11.11,16.48 11.29,16.29 C11.34,16.25 11.39,16.21 11.44,16.17 C11.5,16.13 11.56,16.1 11.62,16.08 C11.68,16.05 11.74,16.03 11.8,16.02 C11.93,15.99 12.07,15.99 12.19,16.02 C12.26,16.03 12.32,16.05 12.38,16.08 C12.44,16.1 12.5,16.13 12.56,16.17 C12.61,16.21 12.66,16.25 12.71,16.29 C12.89,16.48 13,16.74 13,17 C13,17.26 12.89,17.52 12.71,17.71 C12.66,17.75 12.61,17.79 12.56,17.83 C12.5,17.87 12.44,17.9 12.38,17.92 C12.32,17.95 12.26,17.97 12.19,17.98 C12.13,17.99 12.06,18 12,18 Z"/>
  <path fill="#292D32" d="M18.058,22.16 L5.939,22.16 C3.989,22.16 2.499,21.45 1.739,20.17 C0.989,18.89 1.089,17.24 2.039,15.53 L8.099,4.63 C9.099,2.83 10.479,1.84 11.998,1.84 C13.518,1.84 14.899,2.83 15.899,4.63 L21.959,15.54 C22.909,17.25 23.018,18.89 22.259,20.18 C21.498,21.45 20.009,22.16 18.058,22.16 Z M11.998,3.34 C11.059,3.34 10.139,4.06 9.409,5.36 L3.359,16.27 C2.679,17.49 2.569,18.61 3.039,19.42 C3.509,20.23 4.549,20.67 5.949,20.67 L18.069,20.67 C19.468,20.67 20.498,20.23 20.979,19.42 C21.459,18.61 21.338,17.5 20.659,16.27 L14.588,5.36 C13.858,4.06 12.938,3.34 11.998,3.34 Z"/>
</svg>