<svg xmlns="http://www.w3.org/2000/svg" width="24" height="24" viewBox="0 0 24 24">
  <defs/>
  <path fill="#292D32" d="M15.5,19.15 L6.5,19.15 C3.16,19.15 1.25,17.24 1.25,13.9 L1.25,8.5 C1.25,5.16 3.16,3.25 6.5,3.25 L9.2,3.25 C9.44,3.25 9.67,3.37 9.81,3.56 C9.95,3.75 9.99,4.01 9.91,4.24 C9.8,4.55 9.75,4.89 9.75,5.25 L9.75,9.15 C9.75,9.91 9.98,10.54 10.42,10.98 C10.86,11.42 11.49,11.65 12.25,11.65 C12.66,11.65 13,11.99 13,12.4 L13,13.6 L15.73,11.77 C15.85,11.69 16,11.64 16.15,11.64 L18.75,11.64 C19.11,11.64 19.45,11.59 19.76,11.48 C19.99,11.4 20.24,11.44 20.44,11.58 C20.64,11.72 20.75,11.95 20.75,12.19 L20.75,13.89 C20.75,17.24 18.84,19.15 15.5,19.15 Z M6.5,4.75 C3.98,4.75 2.75,5.98 2.75,8.5 L2.75,13.9 C2.75,16.42 3.98,17.65 6.5,17.65 L15.5,17.65 C18.02,17.65 19.25,16.42 19.25,13.9 L19.25,13.12 C19.09,13.14 18.92,13.15 18.75,13.15 L16.38,13.15 L13.68,14.95 C13.24,15.23 12.69,15.26 12.24,15.01 C11.79,14.77 11.51,14.3 11.51,13.79 L11.51,13.09 C10.67,12.96 9.93,12.59 9.37,12.04 C8.66,11.33 8.26,10.3 8.26,9.15 L8.26,5.25 C8.26,5.08 8.27,4.91 8.28,4.75 L6.5,4.75 Z"/>
  <path fill="#292D32" d="M12.9,15.18 C12.67,15.18 12.44,15.12 12.23,15.01 C11.78,14.77 11.5,14.3 11.5,13.79 L11.5,13.09 C10.66,12.96 9.92,12.59 9.36,12.04 C8.65,11.33 8.25,10.3 8.25,9.15 L8.25,5.25 C8.25,4.72 8.33,4.22 8.49,3.76 C9.05,2.19 10.45,1.25 12.25,1.25 L18.75,1.25 C21.1,1.25 22.75,2.89 22.75,5.25 L22.75,9.15 C22.75,10.95 21.82,12.35 20.25,12.91 C19.77,13.07 19.27,13.15 18.75,13.15 L16.38,13.15 L13.68,14.95 C13.44,15.11 13.17,15.18 12.9,15.18 Z M12.25,2.75 C11.1,2.75 10.25,3.3 9.91,4.25 C9.81,4.55 9.75,4.89 9.75,5.25 L9.75,9.15 C9.75,9.91 9.98,10.54 10.42,10.98 C10.86,11.42 11.49,11.65 12.25,11.65 C12.66,11.65 13,11.99 13,12.4 L13,13.6 L15.73,11.77 C15.85,11.69 16,11.64 16.15,11.64 L18.75,11.64 C19.11,11.64 19.45,11.59 19.76,11.48 C20.71,11.14 21.25,10.29 21.25,9.14 L21.25,5.24 C21.25,3.7 20.29,2.74 18.75,2.74 L12.25,2.74 L12.25,2.75 Z"/>
  <path fill="#292D32" d="M14.598,22.75 L7.398,22.75 C6.988,22.75 6.648,22.41 6.648,22 C6.648,21.59 6.988,21.25 7.398,21.25 L14.598,21.25 C15.008,21.25 15.348,21.59 15.348,22 C15.348,22.41 15.008,22.75 14.598,22.75 Z"/>
  <path fill="#292D32" d="M11,22.75 C10.59,22.75 10.25,22.41 10.25,22 L10.25,18.4 C10.25,17.99 10.59,17.65 11,17.65 C11.41,17.65 11.75,17.99 11.75,18.4 L11.75,22 C11.75,22.41 11.41,22.75 11,22.75 Z"/>
  <path fill="#292D32" d="M15.438,8 C15.018,8 14.688,7.66 14.688,7.25 C14.688,6.84 15.027,6.5 15.438,6.5 C15.848,6.5 16.188,6.84 16.188,7.25 C16.188,7.66 15.848,8 15.438,8 Z"/>
  <path fill="#292D32" d="M18.25,8 C17.83,8 17.5,7.66 17.5,7.25 C17.5,6.84 17.84,6.5 18.25,6.5 C18.66,6.5 19,6.84 19,7.25 C19,7.66 18.66,8 18.25,8 Z"/>
  <path fill="#292D32" d="M12.617,8 C12.197,8 11.867,7.66 11.867,7.25 C11.867,6.84 12.207,6.5 12.617,6.5 C13.027,6.5 13.367,6.84 13.367,7.25 C13.367,7.66 13.037,8 12.617,8 Z"/>
</svg>