<svg xmlns="http://www.w3.org/2000/svg" width="24" height="24" viewBox="0 0 24 24">
  <defs/>
  <path fill="#292D32" d="M11.997,19.42 C10.457,19.42 8.917,18.83 7.747,17.66 C5.397,15.31 5.397,11.5 7.747,9.15 C8.887,8.01 10.397,7.39 11.997,7.39 C13.597,7.39 15.117,8.02 16.247,9.15 C18.597,11.5 18.597,15.31 16.247,17.66 C15.077,18.83 13.537,19.42 11.997,19.42 Z M11.997,8.9 C10.797,8.9 9.657,9.37 8.807,10.22 C7.047,11.98 7.047,14.84 8.807,16.6 C10.567,18.36 13.427,18.35 15.187,16.6 C16.947,14.84 16.947,11.98 15.187,10.22 C14.337,9.37 13.197,8.9 11.997,8.9 Z"/>
  <path fill="#292D32" d="M10.412,15.75 C10.222,15.75 10.022,15.68 9.882,15.53 C9.592,15.24 9.592,14.76 9.882,14.46 L11.472,12.87 C11.762,12.58 12.242,12.58 12.542,12.87 C12.832,13.16 12.832,13.64 12.542,13.94 L10.952,15.53 C10.792,15.68 10.602,15.75 10.412,15.75 Z"/>
  <path fill="#292D32" d="M18.791,7.51 C18.551,7.51 18.331,7.42 18.161,7.25 C17.811,6.9 17.811,6.33 18.161,5.99 C18.331,5.82 18.551,5.73 18.791,5.73 C19.031,5.73 19.251,5.82 19.421,5.99 C19.591,6.16 19.681,6.38 19.681,6.62 C19.681,6.86 19.591,7.08 19.421,7.25 C19.261,7.42 19.031,7.51 18.791,7.51 Z M18.721,6.54 L18.721,6.69 C18.741,6.71 18.771,6.72 18.801,6.72 C18.921,6.65 18.921,6.58 18.871,6.54 L18.721,6.54 Z"/>
  <path fill="#292D32" d="M18.788,7.76 C18.478,7.76 18.198,7.64 17.978,7.42 C17.538,6.98 17.538,6.25 17.978,5.8 C18.198,5.58 18.478,5.47 18.788,5.47 C19.098,5.47 19.378,5.59 19.598,5.81 C19.818,6.03 19.928,6.31 19.928,6.62 C19.928,6.93 19.808,7.21 19.588,7.43 C19.388,7.64 19.098,7.76 18.788,7.76 Z M18.538,6.87 C18.608,6.94 18.698,6.97 18.788,6.97 C18.878,6.97 18.968,6.93 19.038,6.87 C19.178,6.73 19.178,6.51 19.038,6.37 C18.908,6.24 18.668,6.24 18.538,6.37 C18.478,6.43 18.438,6.52 18.438,6.62 C18.438,6.71 18.468,6.8 18.538,6.87 Z"/>
  <path fill="#292D32" d="M5.21,21.09 C4.98,21.09 4.75,21 4.58,20.83 C4.41,20.66 4.32,20.43 4.32,20.2 C4.32,19.96 4.41,19.74 4.58,19.57 C4.75,19.4 4.97,19.31 5.21,19.31 C5.45,19.31 5.67,19.4 5.84,19.57 C6.19,19.92 6.19,20.49 5.84,20.83 C5.67,21 5.44,21.09 5.21,21.09 Z M5.19,20.1 C5.17,20.1 5.15,20.11 5.13,20.13 C5.09,20.17 5.09,20.24 5.13,20.28 C5.15,20.3 5.18,20.31 5.2,20.31 L5.3,20.21 C5.27,20.12 5.23,20.1 5.19,20.1 Z"/>
  <path fill="#292D32" d="M5.212,21.34 C4.922,21.34 4.622,21.23 4.402,21.01 C4.183,20.79 4.062,20.5 4.062,20.2 C4.062,19.89 4.183,19.61 4.402,19.39 C4.612,19.18 4.902,19.06 5.212,19.06 C5.522,19.06 5.802,19.18 6.022,19.4 C6.472,19.85 6.472,20.57 6.022,21.02 C5.802,21.23 5.502,21.34 5.212,21.34 Z M5.212,19.84 C5.122,19.84 5.032,19.87 4.962,19.94 C4.822,20.08 4.822,20.3 4.962,20.44 C5.032,20.51 5.122,20.54 5.212,20.54 C5.302,20.54 5.402,20.5 5.462,20.43 C5.522,20.37 5.562,20.28 5.562,20.18 C5.562,20.09 5.522,19.99 5.462,19.93 C5.392,19.88 5.302,19.84 5.212,19.84 Z"/>
  <path fill="#292D32" d="M21.603,14.3 C21.373,14.3 21.143,14.21 20.973,14.04 C20.623,13.69 20.623,13.12 20.973,12.77 C21.143,12.6 21.373,12.56 21.603,12.51 C21.843,12.51 22.063,12.6 22.233,12.77 C22.583,13.12 22.583,13.69 22.233,14.04 C22.063,14.21 21.833,14.3 21.603,14.3 Z M21.533,13.48 C21.553,13.5 21.583,13.51 21.613,13.51 C21.723,13.44 21.723,13.37 21.683,13.33 C21.643,13.29 21.573,13.29 21.533,13.33 C21.493,13.37 21.493,13.44 21.533,13.48 Z"/>
  <path fill="#292D32" d="M21.601,14.55 C21.311,14.55 21.011,14.44 20.791,14.22 C20.341,13.77 20.341,13.05 20.791,12.6 C21.011,12.38 21.291,12.26 21.601,12.26 C21.911,12.26 22.191,12.38 22.411,12.6 C22.861,13.05 22.861,13.77 22.411,14.22 C22.191,14.44 21.901,14.55 21.601,14.55 Z M21.351,13.66 C21.421,13.73 21.511,13.76 21.601,13.76 C21.691,13.76 21.781,13.72 21.851,13.66 C21.991,13.52 21.991,13.3 21.851,13.16 C21.711,13.02 21.491,13.02 21.351,13.16 C21.221,13.29 21.211,13.52 21.351,13.66 Z"/>
  <path fill="#292D32" d="M2.4,14.3 C2.17,14.3 1.94,14.21 1.77,14.04 C1.42,13.69 1.42,13.12 1.77,12.77 C2.12,12.42 2.69,12.42 3.04,12.77 C3.39,13.12 3.39,13.69 3.04,14.04 C2.85,14.21 2.62,14.3 2.4,14.3 Z M2.32,13.48 C2.36,13.52 2.43,13.52 2.47,13.48 C2.51,13.44 2.51,13.37 2.47,13.33 C2.43,13.29 2.36,13.29 2.32,13.33 C2.28,13.37 2.28,13.44 2.32,13.48 Z"/>
  <path fill="#292D32" d="M2.397,14.55 C2.107,14.55 1.808,14.44 1.587,14.22 C1.137,13.77 1.137,13.05 1.587,12.6 C2.038,12.15 2.768,12.16 3.208,12.6 C3.658,13.05 3.658,13.77 3.208,14.22 C2.978,14.44 2.688,14.55 2.397,14.55 Z M2.138,13.66 C2.278,13.8 2.498,13.8 2.638,13.66 C2.778,13.52 2.778,13.29 2.638,13.16 C2.498,13.02 2.278,13.02 2.138,13.16 C2.008,13.29 2.008,13.52 2.138,13.66 Z"/>
  <path fill="#292D32" d="M18.791,21.09 C18.561,21.09 18.331,21 18.161,20.83 C17.811,20.48 17.811,19.91 18.161,19.56 C18.511,19.21 19.081,19.21 19.431,19.56 C19.601,19.73 19.691,19.95 19.691,20.19 C19.691,20.43 19.601,20.65 19.431,20.82 C19.251,21 19.021,21.09 18.791,21.09 Z M18.791,20.09 C18.761,20.09 18.741,20.1 18.721,20.12 L18.721,20.27 C18.761,20.31 18.831,20.31 18.871,20.27 C18.911,20.23 18.911,20.16 18.871,20.12 C18.841,20.1 18.821,20.09 18.791,20.09 Z"/>
  <path fill="#292D32" d="M18.788,21.34 C18.498,21.34 18.198,21.23 17.978,21.01 C17.528,20.56 17.528,19.84 17.978,19.39 C18.428,18.94 19.148,18.94 19.598,19.39 C19.818,19.61 19.938,19.89 19.938,20.2 C19.938,20.51 19.818,20.79 19.598,21.01 C19.378,21.23 19.078,21.34 18.788,21.34 Z M18.538,20.45 C18.678,20.59 18.898,20.59 19.038,20.45 C19.178,20.31 19.178,20.09 19.038,19.95 C18.898,19.81 18.678,19.81 18.538,19.95 C18.468,20.02 18.438,20.11 18.438,20.2 C18.438,20.29 18.468,20.38 18.538,20.45 Z"/>
  <path fill="#292D32" d="M5.21,7.51 C4.97,7.51 4.75,7.42 4.58,7.25 C4.41,7.08 4.32,6.86 4.32,6.62 C4.32,6.38 4.41,6.16 4.58,5.99 C4.75,5.82 4.97,5.73 5.21,5.73 C5.45,5.73 5.67,5.82 5.84,5.99 C6.19,6.34 6.19,6.91 5.84,7.26 C5.67,7.42 5.45,7.51 5.21,7.51 Z M5.13,6.69 C5.15,6.71 5.18,6.72 5.2,6.72 L5.3,6.62 L5.2,6.52 C5.09,6.58 5.09,6.65 5.13,6.69 Z"/>
  <path fill="#292D32" d="M5.21,7.76 C4.9,7.76 4.62,7.64 4.4,7.42 C4.19,7.21 4.07,6.92 4.07,6.61 C4.07,6.3 4.19,6.02 4.41,5.8 C4.62,5.59 4.91,5.47 5.22,5.47 C5.53,5.47 5.81,5.59 6.03,5.81 C6.47,6.26 6.47,6.98 6.03,7.43 C5.8,7.64 5.52,7.76 5.21,7.76 Z M4.96,6.87 C5.03,6.94 5.12,6.98 5.21,6.98 C5.3,6.98 5.39,6.94 5.46,6.88 C5.53,6.82 5.56,6.72 5.56,6.63 C5.56,6.54 5.52,6.44 5.45,6.38 C5.33,6.25 5.08,6.25 4.95,6.38 C4.82,6.5 4.82,6.73 4.96,6.87 Z"/>
  <path fill="#292D32" d="M11.999,4.7 C11.759,4.7 11.539,4.61 11.369,4.44 C11.199,4.27 11.109,4.05 11.109,3.81 C11.109,3.57 11.199,3.35 11.369,3.18 C11.719,2.83 12.289,2.83 12.639,3.18 C12.989,3.53 12.989,4.1 12.639,4.44 C12.469,4.6 12.239,4.7 11.999,4.7 Z M12.069,3.73 L11.919,3.88 C11.959,3.92 12.029,3.92 12.069,3.88 L12.069,3.73 Z M11.929,3.73 C11.889,3.77 11.889,3.84 11.929,3.88 L12.079,3.73 L11.929,3.73 Z"/>
  <path fill="#292D32" d="M11.999,4.95 C11.689,4.95 11.409,4.83 11.189,4.61 C10.979,4.4 10.859,4.11 10.859,3.8 C10.859,3.49 10.979,3.21 11.199,2.99 C11.649,2.54 12.369,2.54 12.819,2.99 C13.259,3.44 13.259,4.16 12.819,4.61 C12.599,4.83 12.309,4.95 11.999,4.95 Z M12.249,3.55 L11.749,4.05 C11.889,4.19 12.109,4.19 12.249,4.05 C12.319,3.98 12.349,3.89 12.349,3.8 C12.349,3.71 12.319,3.62 12.249,3.55 Z M11.999,3.45 C11.909,3.45 11.809,3.49 11.749,3.56 C11.609,3.7 11.609,3.92 11.749,4.06 L12.249,3.56 C12.189,3.49 12.099,3.45 11.999,3.45 Z"/>
</svg>