<svg xmlns="http://www.w3.org/2000/svg" width="24" height="24" viewBox="0 0 24 24">
  <defs/>
  <path fill="#292D32" d="M11.997,22.6 C10.887,22.6 9.857,22.13 9.087,21.29 L2.227,13.75 C1.257,12.69 0.957,10.82 1.537,9.51 L4.097,3.75 C4.797,2.18 5.967,1.41 7.687,1.41 L16.277,1.41 L16.277,2.16 L16.277,1.41 C17.997,1.41 19.167,2.17 19.867,3.74 L22.427,9.5 C23.007,10.81 22.717,12.68 21.747,13.74 L14.897,21.29 C14.147,22.13 13.107,22.6 11.997,22.6 Z M16.287,2.9 L7.697,2.9 C6.387,2.9 5.857,3.48 5.477,4.35 L2.917,10.11 C2.577,10.88 2.777,12.11 3.337,12.73 L10.197,20.27 C10.677,20.8 11.317,21.09 11.997,21.09 C12.677,21.09 13.317,20.8 13.797,20.27 L20.647,12.72 C21.217,12.09 21.417,10.87 21.067,10.1 L18.507,4.34 C18.127,3.48 17.597,2.9 16.287,2.9 Z"/>
  <path fill="#292D32" d="M3.5,8.75 C3.09,8.75 2.75,8.41 2.75,8 C2.75,7.59 3.09,7.25 3.5,7.25 L20.5,7.24 C20.91,7.24 21.25,7.58 21.25,7.99 C21.25,8.4 20.91,8.74 20.5,8.74 L3.5,8.75 Z"/>
</svg>