<svg xmlns="http://www.w3.org/2000/svg" width="24" height="24" viewBox="0 0 24 24">
  <defs/>
  <path fill="#292D32" d="M6.189,22.06 C5.189,22.06 4.219,21.67 3.449,20.92 C2.199,19.7 1.899,17.9 2.679,16.34 L4.299,13.1 C4.639,12.42 4.639,11.6 4.299,10.91 L2.679,7.66 C1.899,6.1 2.199,4.3 3.449,3.08 C4.699,1.86 6.499,1.59 8.049,2.41 L19.639,8.51 C20.939,9.19 21.749,10.53 21.749,12 C21.749,13.47 20.939,14.81 19.639,15.49 L8.049,21.59 C7.449,21.91 6.819,22.06 6.189,22.06 Z M6.199,3.44 C5.509,3.44 4.909,3.76 4.499,4.16 C3.879,4.76 3.439,5.83 4.019,7 L5.639,10.24 C6.189,11.35 6.189,12.66 5.639,13.77 L4.019,17.01 C3.429,18.18 3.879,19.25 4.499,19.85 C5.119,20.45 6.189,20.88 7.349,20.27 L18.939,14.17 C19.759,13.74 20.249,12.93 20.249,12.01 C20.249,11.09 19.759,10.28 18.939,9.85 L7.349,3.73 C6.949,3.52 6.559,3.44 6.199,3.44 Z"/>
</svg>