<svg xmlns="http://www.w3.org/2000/svg" width="24" height="24" viewBox="0 0 24 24">
  <defs/>
  <path fill="#292D32" d="M18.118,21.75 C17.518,21.75 16.908,21.61 16.328,21.32 L13.088,19.7 C12.408,19.36 11.588,19.36 10.898,19.7 L7.658,21.32 C6.098,22.1 4.298,21.8 3.078,20.55 C1.858,19.3 1.588,17.5 2.408,15.95 L8.508,4.36 C9.188,3.06 10.528,2.25 11.998,2.25 C13.468,2.25 14.808,3.06 15.488,4.36 L21.588,15.95 C22.398,17.5 22.138,19.3 20.918,20.55 C20.148,21.34 19.148,21.75 18.118,21.75 Z M11.998,17.94 C12.608,17.94 13.208,18.08 13.758,18.35 L16.998,19.97 C18.168,20.56 19.238,20.11 19.838,19.49 C20.438,18.87 20.868,17.8 20.258,16.64 L14.158,5.05 C13.728,4.24 12.918,3.75 11.998,3.75 C11.078,3.75 10.268,4.24 9.838,5.06 L3.738,16.65 C3.128,17.81 3.548,18.89 4.158,19.5 C4.768,20.11 5.828,20.56 6.998,19.98 L10.238,18.36 C10.788,18.08 11.388,17.94 11.998,17.94 Z"/>
</svg>