<svg xmlns="http://www.w3.org/2000/svg" width="24" height="24" viewBox="0 0 24 24">
  <defs/>
  <path fill="#292D32" d="M11.998,9.75 C11.588,9.75 11.248,9.41 11.248,9 L11.248,3.81 L10.527,4.53 C10.238,4.82 9.758,4.82 9.467,4.53 C9.178,4.24 9.178,3.76 9.467,3.47 L11.467,1.47 C11.678,1.26 12.008,1.19 12.287,1.31 C12.568,1.42 12.748,1.7 12.748,2 L12.748,9 C12.748,9.41 12.408,9.75 11.998,9.75 Z"/>
  <path fill="#292D32" d="M13.998,4.75 C13.807,4.75 13.617,4.68 13.467,4.53 L11.467,2.53 C11.178,2.24 11.178,1.76 11.467,1.47 C11.758,1.18 12.238,1.18 12.527,1.47 L14.527,3.47 C14.818,3.76 14.818,4.24 14.527,4.53 C14.377,4.68 14.188,4.75 13.998,4.75 Z"/>
  <path fill="#292D32" d="M13.757,17.75 L10.227,17.75 C9.177,17.75 8.237,17.17 7.767,16.23 L6.597,13.89 C6.557,13.8 6.467,13.75 6.377,13.75 L1.977,13.75 C1.567,13.75 1.227,13.41 1.227,13 C1.227,12.59 1.567,12.25 1.977,12.25 L6.387,12.25 C7.057,12.25 7.657,12.62 7.957,13.22 L9.127,15.56 C9.337,15.99 9.767,16.25 10.247,16.25 L13.777,16.25 C14.257,16.25 14.687,15.99 14.897,15.56 L16.067,13.22 C16.367,12.62 16.967,12.25 17.637,12.25 L21.997,12.25 C22.407,12.25 22.747,12.59 22.747,13 C22.747,13.41 22.407,13.75 21.997,13.75 L17.637,13.75 C17.537,13.75 17.457,13.8 17.417,13.89 L16.247,16.23 C15.747,17.17 14.807,17.75 13.757,17.75 Z"/>
  <path fill="#292D32" d="M15,22.75 L9,22.75 C3.57,22.75 1.25,20.43 1.25,15 L1.25,12 C1.25,7.31 2.99,4.96 6.89,4.39 C7.31,4.33 7.68,4.61 7.74,5.02 C7.8,5.43 7.52,5.81 7.11,5.87 C3.97,6.33 2.75,8.05 2.75,12 L2.75,15 C2.75,19.61 4.39,21.25 9,21.25 L15,21.25 C19.61,21.25 21.25,19.61 21.25,15 L21.25,12 C21.25,8.05 20.03,6.33 16.89,5.87 C16.48,5.81 16.2,5.43 16.26,5.02 C16.32,4.61 16.7,4.33 17.11,4.39 C21.01,4.96 22.75,7.31 22.75,12 L22.75,15 C22.75,20.43 20.43,22.75 15,22.75 Z"/>
</svg>