<svg xmlns="http://www.w3.org/2000/svg" width="24" height="24" viewBox="0 0 24 24">
  <defs/>
  <path fill="#4C4C4C" d="M12,2.659 L2.659,12 L12,21.341 L21.341,12 L12,2.659 Z M12.778,0.322 L23.678,11.222 C23.884,11.428 24,11.708 24,12 C24,12.292 23.884,12.572 23.678,12.778 L12.778,23.678 C12.572,23.884 12.292,24 12,24 C11.708,24 11.428,23.884 11.222,23.678 L0.322,12.778 C0.116,12.572 0,12.292 0,12 C0,11.708 0.116,11.428 0.322,11.222 L11.222,0.322 C11.428,0.116 11.708,0 12,0 C12.292,0 12.572,0.116 12.778,0.322 Z M13.101,9.798 L13.101,7.046 L16.954,10.899 L13.101,14.752 L13.101,12 L9.798,12 L9.798,15.303 L7.596,15.303 L7.596,10.899 C7.596,10.607 7.712,10.327 7.919,10.121 C8.125,9.914 8.405,9.798 8.697,9.798 L13.101,9.798 Z"/>
</svg>