<svg xmlns="http://www.w3.org/2000/svg" width="24" height="24" viewBox="0 0 24 24">
  <defs/>
  <path fill="#292D32" d="M11.998,21.75 C10.528,21.75 9.188,20.94 8.508,19.64 L2.408,8.05 C1.588,6.5 1.858,4.7 3.078,3.45 C4.298,2.2 6.098,1.9 7.658,2.68 L10.898,4.3 C11.578,4.64 12.398,4.64 13.088,4.3 L16.328,2.68 C17.898,1.9 19.698,2.2 20.918,3.45 C22.138,4.7 22.408,6.5 21.588,8.05 L15.488,19.64 C14.808,20.94 13.468,21.75 11.998,21.75 Z M5.878,3.75 C5.168,3.75 4.548,4.09 4.148,4.5 C3.548,5.12 3.118,6.19 3.728,7.35 L9.828,18.94 C10.258,19.76 11.068,20.25 11.988,20.25 C12.908,20.25 13.718,19.76 14.148,18.94 L20.248,7.35 C20.858,6.19 20.438,5.11 19.828,4.5 C19.228,3.89 18.168,3.44 16.988,4.02 L13.748,5.64 C12.638,6.19 11.328,6.19 10.218,5.64 L6.988,4.02 C6.608,3.83 6.228,3.75 5.878,3.75 Z"/>
</svg>