<svg xmlns="http://www.w3.org/2000/svg" width="24" height="24" viewBox="0 0 24 24">
  <defs/>
  <path fill="#292D32" d="M15,22.75 L9,22.75 C3.57,22.75 1.25,20.43 1.25,15 L1.25,9 C1.25,3.57 3.57,1.25 9,1.25 L15,1.25 C20.43,1.25 22.75,3.57 22.75,9 L22.75,15 C22.75,20.43 20.43,22.75 15,22.75 Z M9,2.75 C4.39,2.75 2.75,4.39 2.75,9 L2.75,15 C2.75,19.61 4.39,21.25 9,21.25 L15,21.25 C19.61,21.25 21.25,19.61 21.25,15 L21.25,9 C21.25,4.39 19.61,2.75 15,2.75 L9,2.75 Z"/>
  <path fill="#292D32" d="M13.762,17.75 L10.232,17.75 C9.132,17.75 8.262,17.21 7.772,16.23 L6.882,14.44 C6.672,14.01 6.242,13.75 5.762,13.75 L1.992,13.75 C1.582,13.75 1.242,13.41 1.242,13 C1.242,12.59 1.592,12.25 2.002,12.25 L5.762,12.25 C6.812,12.25 7.752,12.83 8.222,13.77 L9.112,15.56 C9.342,16.02 9.712,16.25 10.232,16.25 L13.762,16.25 C14.242,16.25 14.672,15.99 14.882,15.56 L15.772,13.77 C16.242,12.83 17.182,12.25 18.232,12.25 L21.972,12.25 C22.382,12.25 22.722,12.59 22.722,13 C22.722,13.41 22.382,13.75 21.972,13.75 L18.232,13.75 C17.752,13.75 17.322,14.01 17.112,14.44 L16.222,16.23 C15.752,17.17 14.812,17.75 13.762,17.75 Z"/>
  <path fill="#292D32" d="M13.668,7.75 L10.338,7.75 C9.918,7.75 9.578,7.41 9.578,7 C9.578,6.59 9.918,6.25 10.328,6.25 L13.658,6.25 C14.068,6.25 14.408,6.59 14.408,7 C14.408,7.41 14.078,7.75 13.668,7.75 Z"/>
  <path fill="#292D32" d="M14.5,10.75 L9.5,10.75 C9.09,10.75 8.75,10.41 8.75,10 C8.75,9.59 9.09,9.25 9.5,9.25 L14.5,9.25 C14.91,9.25 15.25,9.59 15.25,10 C15.25,10.41 14.91,10.75 14.5,10.75 Z"/>
</svg>