<svg xmlns="http://www.w3.org/2000/svg" width="24" height="24" viewBox="0 0 24 24">
  <defs/>
  <path fill="#292D32" d="M12,9.75 C11.9,9.75 11.81,9.73 11.71,9.69 C11.43,9.58 11.25,9.3 11.25,9 L11.25,2 C11.25,1.59 11.59,1.25 12,1.25 C12.41,1.25 12.75,1.59 12.75,2 L12.75,7.19 L13.47,6.47 C13.76,6.18 14.24,6.18 14.53,6.47 C14.82,6.76 14.82,7.24 14.53,7.53 L12.53,9.53 C12.39,9.67 12.2,9.75 12,9.75 Z"/>
  <path fill="#292D32" d="M11.998,9.75 C11.807,9.75 11.617,9.68 11.467,9.53 L9.467,7.53 C9.178,7.24 9.178,6.76 9.467,6.47 C9.758,6.18 10.238,6.18 10.527,6.47 L12.527,8.47 C12.818,8.76 12.818,9.24 12.527,9.53 C12.377,9.68 12.188,9.75 11.998,9.75 Z"/>
  <path fill="#292D32" d="M13.757,17.75 L10.227,17.75 C9.177,17.75 8.237,17.17 7.767,16.23 L6.597,13.89 C6.557,13.8 6.467,13.75 6.377,13.75 L1.977,13.75 C1.567,13.75 1.227,13.41 1.227,13 C1.227,12.59 1.567,12.25 1.977,12.25 L6.387,12.25 C7.057,12.25 7.657,12.62 7.957,13.22 L9.127,15.56 C9.337,15.99 9.767,16.25 10.247,16.25 L13.777,16.25 C14.257,16.25 14.687,15.99 14.897,15.56 L16.067,13.22 C16.367,12.62 16.967,12.25 17.637,12.25 L21.997,12.25 C22.407,12.25 22.747,12.59 22.747,13 C22.747,13.41 22.407,13.75 21.997,13.75 L17.637,13.75 C17.537,13.75 17.457,13.8 17.417,13.89 L16.247,16.23 C15.747,17.17 14.807,17.75 13.757,17.75 Z"/>
  <path fill="#292D32" d="M15,22.75 L9,22.75 C3.57,22.75 1.25,20.43 1.25,15 L1.25,11 C1.25,6.31 2.99,3.96 6.89,3.39 C7.31,3.33 7.68,3.61 7.74,4.02 C7.8,4.43 7.52,4.81 7.11,4.87 C3.97,5.33 2.75,7.05 2.75,11 L2.75,15 C2.75,19.61 4.39,21.25 9,21.25 L15,21.25 C19.61,21.25 21.25,19.61 21.25,15 L21.25,11 C21.25,7.05 20.03,5.33 16.89,4.87 C16.48,4.81 16.2,4.43 16.26,4.02 C16.32,3.61 16.7,3.33 17.11,3.39 C21.01,3.96 22.75,6.31 22.75,11 L22.75,15 C22.75,20.43 20.43,22.75 15,22.75 Z"/>
</svg>