<svg xmlns="http://www.w3.org/2000/svg" width="24" height="24" viewBox="0 0 24 24">
  <defs/>
  <path fill="#292D32" d="M4.911,22.82 C3.821,22.82 2.891,22.47 2.211,21.79 C1.241,20.82 0.941,19.34 1.371,17.62 L3.851,7.69 C4.281,5.97 5.961,4.3 7.671,3.87 L17.601,1.39 C19.321,0.96 20.801,1.26 21.771,2.23 C22.741,3.2 23.041,4.68 22.611,6.4 L20.131,16.33 C19.701,18.05 18.021,19.72 16.311,20.15 L6.381,22.63 C5.871,22.75 5.381,22.82 4.911,22.82 Z M17.981,2.83 L8.051,5.32 C6.881,5.61 5.611,6.88 5.311,8.05 L2.831,17.98 C2.531,19.17 2.691,20.14 3.271,20.73 C3.851,21.31 4.831,21.47 6.021,21.17 L15.951,18.69 C17.121,18.4 18.391,17.12 18.681,15.96 L21.161,6.03 C21.461,4.84 21.301,3.87 20.721,3.28 C20.141,2.69 19.171,2.54 17.981,2.83 Z"/>
  <path fill="#292D32" d="M12,16.25 C9.66,16.25 7.75,14.34 7.75,12 C7.75,9.66 9.66,7.75 12,7.75 C14.34,7.75 16.25,9.66 16.25,12 C16.25,14.34 14.34,16.25 12,16.25 Z M12,9.25 C10.48,9.25 9.25,10.48 9.25,12 C9.25,13.52 10.48,14.75 12,14.75 C13.52,14.75 14.75,13.52 14.75,12 C14.75,10.48 13.52,9.25 12,9.25 Z"/>
</svg>