<svg xmlns="http://www.w3.org/2000/svg" width="24" height="24" viewBox="0 0 24 24">
  <defs/>
  <path fill="#292D32" d="M15,22.75 L9,22.75 C3.57,22.75 1.25,20.43 1.25,15 L1.25,9 C1.25,3.57 3.57,1.25 9,1.25 L11,1.25 C11.41,1.25 11.75,1.59 11.75,2 C11.75,2.41 11.41,2.75 11,2.75 L9,2.75 C4.39,2.75 2.75,4.39 2.75,9 L2.75,15 C2.75,19.61 4.39,21.25 9,21.25 L15,21.25 C19.61,21.25 21.25,19.61 21.25,15 L21.25,13 C21.25,12.59 21.59,12.25 22,12.25 C22.41,12.25 22.75,12.59 22.75,13 L22.75,15 C22.75,20.43 20.43,22.75 15,22.75 Z"/>
  <path fill="#292D32" d="M8.503,17.69 C7.893,17.69 7.333,17.47 6.923,17.07 C6.433,16.58 6.223,15.87 6.333,15.12 L6.763,12.11 C6.843,11.53 7.223,10.78 7.633,10.37 L15.513,2.49 C17.503,0.5 19.523,0.5 21.513,2.49 C22.603,3.58 23.093,4.69 22.993,5.8 C22.903,6.7 22.423,7.58 21.513,8.48 L13.633,16.36 C13.223,16.77 12.473,17.15 11.893,17.23 L8.883,17.66 C8.753,17.69 8.623,17.69 8.503,17.69 Z M16.573,3.55 L8.693,11.43 C8.503,11.62 8.283,12.06 8.243,12.32 L7.813,15.33 C7.773,15.62 7.833,15.86 7.983,16.01 C8.133,16.16 8.373,16.22 8.663,16.18 L11.673,15.75 C11.933,15.71 12.383,15.49 12.563,15.3 L20.443,7.42 C21.093,6.77 21.433,6.19 21.483,5.65 C21.543,5 21.203,4.31 20.443,3.54 C18.843,1.94 17.743,2.39 16.573,3.55 Z"/>
  <path fill="#292D32" d="M19.852,9.83 C19.782,9.83 19.712,9.82 19.651,9.8 C17.021,9.06 14.931,6.97 14.191,4.34 C14.082,3.94 14.312,3.53 14.711,3.41 C15.111,3.3 15.521,3.53 15.632,3.93 C16.232,6.06 17.922,7.75 20.052,8.35 C20.451,8.46 20.681,8.88 20.572,9.28 C20.482,9.62 20.181,9.83 19.852,9.83 Z"/>
</svg>