<svg xmlns="http://www.w3.org/2000/svg" width="24" height="24" viewBox="0 0 24 24">
  <defs/>
  <path fill="#292D32" d="M5.538,19.52 C4.928,19.52 4.358,19.31 3.948,18.92 C3.428,18.43 3.178,17.69 3.268,16.89 L3.638,13.65 C3.708,13.04 4.078,12.23 4.508,11.79 L12.718,3.1 C14.768,0.93 16.908,0.87 19.078,2.92 C21.248,4.97 21.308,7.11 19.258,9.28 L11.048,17.97 C10.628,18.42 9.848,18.84 9.238,18.94 L6.018,19.49 C5.848,19.5 5.698,19.52 5.538,19.52 Z M15.928,2.91 C15.158,2.91 14.488,3.39 13.808,4.11 L5.598,12.81 C5.398,13.02 5.168,13.52 5.128,13.81 L4.758,17.05 C4.718,17.38 4.798,17.65 4.978,17.82 C5.158,17.99 5.428,18.05 5.758,18 L8.978,17.45 C9.268,17.4 9.748,17.14 9.948,16.93 L18.158,8.24 C19.398,6.92 19.848,5.7 18.038,4 C17.238,3.23 16.548,2.91 15.928,2.91 Z"/>
  <path fill="#292D32" d="M17.337,10.95 C17.317,10.95 17.287,10.95 17.267,10.95 C14.146,10.64 11.636,8.27 11.156,5.17 C11.097,4.76 11.377,4.38 11.787,4.31 C12.197,4.25 12.576,4.53 12.646,4.94 C13.027,7.36 14.986,9.22 17.427,9.46 C17.837,9.5 18.137,9.87 18.096,10.28 C18.047,10.66 17.716,10.95 17.337,10.95 Z"/>
  <path fill="#292D32" d="M21,22.75 L3,22.75 C2.59,22.75 2.25,22.41 2.25,22 C2.25,21.59 2.59,21.25 3,21.25 L21,21.25 C21.41,21.25 21.75,21.59 21.75,22 C21.75,22.41 21.41,22.75 21,22.75 Z"/>
</svg>