<svg xmlns="http://www.w3.org/2000/svg" width="24" height="24" viewBox="0 0 24 24">
  <defs/>
  <path fill="#292D32" d="M15,22.75 L9,22.75 C3.57,22.75 1.25,20.43 1.25,15 L1.25,9 C1.25,3.57 3.57,1.25 9,1.25 L15,1.25 C20.43,1.25 22.75,3.57 22.75,9 L22.75,15 C22.75,20.43 20.43,22.75 15,22.75 Z M9,2.75 C4.39,2.75 2.75,4.39 2.75,9 L2.75,15 C2.75,19.61 4.39,21.25 9,21.25 L15,21.25 C19.61,21.25 21.25,19.61 21.25,15 L21.25,9 C21.25,4.39 19.61,2.75 15,2.75 L9,2.75 Z"/>
  <path fill="#292D32" d="M8.818,9.75 C7.968,9.75 7.117,9.43 6.468,8.78 C6.178,8.49 6.178,8.01 6.468,7.72 C6.758,7.43 7.237,7.43 7.527,7.72 C8.238,8.43 9.398,8.43 10.107,7.72 C10.398,7.43 10.877,7.43 11.168,7.72 C11.457,8.01 11.457,8.49 11.168,8.78 C10.518,9.42 9.668,9.75 8.818,9.75 Z"/>
  <path fill="#292D32" d="M15.177,9.75 C14.327,9.75 13.477,9.43 12.827,8.78 C12.537,8.49 12.537,8.01 12.827,7.72 C13.117,7.43 13.597,7.43 13.887,7.72 C14.597,8.43 15.757,8.43 16.467,7.72 C16.757,7.43 17.237,7.43 17.527,7.72 C17.817,8.01 17.817,8.49 17.527,8.78 C16.877,9.42 16.027,9.75 15.177,9.75 Z"/>
  <path fill="#292D32" d="M12,19.15 C9.1,19.15 6.75,16.79 6.75,13.9 C6.75,12.99 7.49,12.25 8.4,12.25 L15.6,12.25 C16.51,12.25 17.25,12.99 17.25,13.9 C17.25,16.79 14.9,19.15 12,19.15 Z M8.4,13.75 C8.32,13.75 8.25,13.82 8.25,13.9 C8.25,15.97 9.93,17.65 12,17.65 C14.07,17.65 15.75,15.97 15.75,13.9 C15.75,13.82 15.68,13.75 15.6,13.75 L8.4,13.75 Z"/>
</svg>