<svg xmlns="http://www.w3.org/2000/svg" width="24" height="24" viewBox="0 0 24 24">
  <defs/>
  <path fill="#292D32" d="M15,22.75 L9,22.75 C3.57,22.75 1.25,20.43 1.25,15 L1.25,9 C1.25,3.57 3.57,1.25 9,1.25 L15,1.25 C20.43,1.25 22.75,3.57 22.75,9 L22.75,15 C22.75,20.43 20.43,22.75 15,22.75 Z M9,2.75 C4.39,2.75 2.75,4.39 2.75,9 L2.75,15 C2.75,19.61 4.39,21.25 9,21.25 L15,21.25 C19.61,21.25 21.25,19.61 21.25,15 L21.25,9 C21.25,4.39 19.61,2.75 15,2.75 L9,2.75 Z"/>
  <path fill="#292D32" d="M10.637,9.5 C10.447,9.5 10.258,9.43 10.107,9.28 C9.398,8.57 8.238,8.57 7.527,9.28 C7.237,9.57 6.758,9.57 6.468,9.28 C6.178,8.99 6.178,8.51 6.468,8.22 C7.758,6.93 9.867,6.93 11.168,8.22 C11.457,8.51 11.457,8.99 11.168,9.28 C11.018,9.43 10.828,9.5 10.637,9.5 Z"/>
  <path fill="#292D32" d="M13.357,9.5 C13.167,9.5 12.977,9.43 12.827,9.28 C12.537,8.99 12.537,8.51 12.827,8.22 C14.117,6.93 16.227,6.93 17.527,8.22 C17.817,8.51 17.817,8.99 17.527,9.28 C17.237,9.57 16.757,9.57 16.467,9.28 C15.757,8.57 14.597,8.57 13.887,9.28 C13.747,9.43 13.557,9.5 13.357,9.5 Z"/>
  <path fill="#292D32" d="M15.6,18.45 L8.4,18.45 C7.49,18.45 6.75,17.71 6.75,16.8 C6.75,13.91 9.1,11.55 12,11.55 C14.9,11.55 17.25,13.91 17.25,16.8 C17.25,17.71 16.51,18.45 15.6,18.45 Z M12,13.05 C9.93,13.05 8.25,14.73 8.25,16.8 C8.25,16.88 8.32,16.95 8.4,16.95 L15.6,16.95 C15.68,16.95 15.75,16.88 15.75,16.8 C15.75,14.73 14.07,13.05 12,13.05 Z"/>
</svg>