<svg xmlns="http://www.w3.org/2000/svg" width="24" height="24" viewBox="0 0 24 24">
  <defs/>
  <path fill="#292D32" d="M17.742,22.75 L12.262,22.75 C11.852,22.75 11.512,22.41 11.512,22 C11.512,21.59 11.852,21.25 12.262,21.25 L17.742,21.25 C19.402,21.25 20.752,19.9 20.752,18.24 L20.752,17.8 L19.602,17.8 C18.092,17.8 16.812,16.68 16.692,15.24 C16.612,14.41 16.912,13.6 17.512,13.01 C18.022,12.49 18.722,12.2 19.472,12.2 L20.742,12.2 L20.742,11.51 C20.742,9.85 19.392,8.5 17.732,8.5 L6.252,8.5 C4.592,8.5 3.242,9.85 3.242,11.51 L3.242,13.24 C3.242,13.65 2.902,13.99 2.492,13.99 C2.082,13.99 1.742,13.65 1.742,13.24 L1.742,11.51 C1.742,9.02 3.762,7 6.252,7 L17.732,7 C20.222,7 22.242,9.02 22.242,11.51 L22.242,12.95 C22.242,13.36 21.902,13.7 21.492,13.7 L19.472,13.7 C19.122,13.7 18.802,13.83 18.572,14.07 C18.282,14.35 18.142,14.73 18.182,15.11 C18.242,15.77 18.872,16.3 19.592,16.3 L21.492,16.3 C21.902,16.3 22.242,16.64 22.242,17.05 L22.242,18.24 C22.252,20.73 20.232,22.75 17.742,22.75 Z"/>
  <path fill="#292D32" d="M2.5,13.16 C2.09,13.16 1.75,12.82 1.75,12.41 L1.75,7.84 C1.75,6.35 2.69,5 4.08,4.47 L12.02,1.47 C12.84,1.16 13.75,1.27 14.46,1.77 C15.18,2.27 15.6,3.08 15.6,3.95 L15.6,7.75 C15.6,8.16 15.26,8.5 14.85,8.5 C14.44,8.5 14.1,8.16 14.1,7.75 L14.1,3.95 C14.1,3.57 13.92,3.22 13.6,3 C13.28,2.78 12.9,2.73 12.54,2.87 L4.6,5.87 C3.79,6.18 3.24,6.97 3.24,7.84 L3.24,12.41 C3.25,12.83 2.91,13.16 2.5,13.16 Z"/>
  <path fill="#292D32" d="M19.602,17.8 C18.092,17.8 16.812,16.68 16.692,15.24 C16.612,14.41 16.912,13.6 17.512,13.01 C18.022,12.49 18.722,12.2 19.472,12.2 L21.552,12.2 C22.542,12.23 23.302,13.01 23.302,13.97 L23.302,16.03 C23.302,16.99 22.542,17.77 21.582,17.8 L19.602,17.8 Z M21.532,13.7 L19.482,13.7 C19.132,13.7 18.812,13.83 18.582,14.07 C18.292,14.35 18.152,14.73 18.192,15.11 C18.252,15.77 18.882,16.3 19.602,16.3 L21.562,16.3 C21.692,16.3 21.812,16.18 21.812,16.03 L21.812,13.97 C21.812,13.82 21.692,13.71 21.532,13.7 Z"/>
  <path fill="#292D32" d="M14,12.75 L7,12.75 C6.59,12.75 6.25,12.41 6.25,12 C6.25,11.59 6.59,11.25 7,11.25 L14,11.25 C14.41,11.25 14.75,11.59 14.75,12 C14.75,12.41 14.41,12.75 14,12.75 Z"/>
  <path fill="#292D32" d="M9.5,19.69 C9.09,19.69 8.75,19.35 8.75,18.94 L8.75,17.66 C8.75,17.44 8.57,17.25 8.34,17.25 L3,17.25 C2.59,17.25 2.25,16.91 2.25,16.5 C2.25,16.09 2.59,15.75 3,15.75 L8.34,15.75 C9.39,15.75 10.25,16.61 10.25,17.66 L10.25,18.94 C10.25,19.35 9.91,19.69 9.5,19.69 Z"/>
  <path fill="#292D32" d="M4.218,18.47 C4.027,18.47 3.837,18.4 3.688,18.25 L2.467,17.03 C2.178,16.74 2.178,16.26 2.467,15.97 L3.688,14.75 C3.978,14.46 4.457,14.46 4.747,14.75 C5.037,15.04 5.037,15.52 4.747,15.81 L4.058,16.5 L4.747,17.19 C5.037,17.48 5.037,17.96 4.747,18.25 C4.598,18.4 4.407,18.47 4.218,18.47 Z"/>
  <path fill="#292D32" d="M9.5,22.53 L4.16,22.53 C3.11,22.53 2.25,21.67 2.25,20.62 L2.25,19.34 C2.25,18.93 2.59,18.59 3,18.59 C3.41,18.59 3.75,18.93 3.75,19.34 L3.75,20.62 C3.75,20.84 3.93,21.03 4.16,21.03 L9.5,21.03 C9.91,21.03 10.25,21.37 10.25,21.78 C10.25,22.19 9.91,22.53 9.5,22.53 Z"/>
  <path fill="#292D32" d="M8.279,23.75 C8.089,23.75 7.899,23.68 7.749,23.53 C7.459,23.24 7.459,22.76 7.749,22.47 L8.439,21.78 L7.749,21.09 C7.459,20.8 7.459,20.32 7.749,20.03 C8.039,19.74 8.519,19.74 8.809,20.03 L10.029,21.25 C10.319,21.54 10.319,22.02 10.029,22.31 L8.809,23.53 C8.669,23.68 8.469,23.75 8.279,23.75 Z"/>
</svg>