<svg xmlns="http://www.w3.org/2000/svg" width="24" height="24" viewBox="0 0 24 24">
  <defs/>
  <path fill="#292D32" d="M17.74,22.75 L7.63,22.75 C7.31,22.75 7.03,22.55 6.92,22.26 C6.81,21.96 6.9,21.63 7.14,21.43 C7.38,21.23 7.6,20.97 7.76,20.69 C8.08,20.18 8.24,19.6 8.24,19.01 C8.24,17.22 6.78,15.76 4.99,15.76 C4.25,15.76 3.55,16.01 2.96,16.48 C2.73,16.66 2.43,16.69 2.17,16.57 C1.91,16.45 1.75,16.18 1.75,15.89 L1.75,11.52 C1.75,9.03 3.77,7.01 6.26,7.01 L17.74,7.01 C20.23,7.01 22.25,9.03 22.25,11.52 L22.25,12.96 C22.25,13.37 21.91,13.71 21.5,13.71 L19.48,13.71 C19.13,13.71 18.81,13.84 18.58,14.08 L18.57,14.09 C18.29,14.36 18.16,14.73 18.19,15.11 C18.25,15.77 18.88,16.3 19.6,16.3 L21.5,16.3 C21.91,16.3 22.25,16.64 22.25,17.05 L22.25,18.24 C22.25,20.73 20.23,22.75 17.74,22.75 Z M9.18,21.25 L17.74,21.25 C19.4,21.25 20.75,19.9 20.75,18.24 L20.75,17.8 L19.6,17.8 C18.09,17.8 16.81,16.68 16.69,15.24 C16.61,14.42 16.91,13.61 17.51,13.02 C18.03,12.49 18.73,12.2 19.48,12.2 L20.75,12.2 L20.75,11.51 C20.75,9.85 19.4,8.5 17.74,8.5 L6.26,8.5 C4.6,8.5 3.25,9.85 3.25,11.51 L3.25,14.59 C3.81,14.37 4.4,14.25 5,14.25 C7.62,14.25 9.75,16.38 9.75,19 C9.75,19.79 9.55,20.57 9.18,21.25 Z"/>
  <path fill="#292D32" d="M2.5,13.16 C2.09,13.16 1.75,12.82 1.75,12.41 L1.75,7.84 C1.75,6.35 2.69,5 4.08,4.47 L12.02,1.47 C12.84,1.16 13.75,1.27 14.46,1.77 C15.18,2.27 15.6,3.08 15.6,3.95 L15.6,7.75 C15.6,8.16 15.26,8.5 14.85,8.5 C14.44,8.5 14.1,8.16 14.1,7.75 L14.1,3.95 C14.1,3.57 13.92,3.22 13.6,3 C13.28,2.78 12.9,2.73 12.54,2.87 L4.6,5.87 C3.79,6.18 3.24,6.97 3.24,7.84 L3.24,12.41 C3.25,12.83 2.91,13.16 2.5,13.16 Z"/>
  <path fill="#292D32" d="M19.602,17.8 C18.092,17.8 16.812,16.68 16.692,15.24 C16.612,14.41 16.912,13.6 17.512,13.01 C18.022,12.49 18.722,12.2 19.472,12.2 L21.552,12.2 C22.542,12.23 23.302,13.01 23.302,13.97 L23.302,16.03 C23.302,16.99 22.542,17.77 21.582,17.8 L19.602,17.8 Z M21.532,13.7 L19.482,13.7 C19.132,13.7 18.812,13.83 18.582,14.07 C18.292,14.35 18.152,14.73 18.192,15.11 C18.252,15.77 18.882,16.3 19.602,16.3 L21.562,16.3 C21.692,16.3 21.812,16.18 21.812,16.03 L21.812,13.97 C21.812,13.82 21.692,13.71 21.532,13.7 Z"/>
  <path fill="#292D32" d="M14,12.75 L7,12.75 C6.59,12.75 6.25,12.41 6.25,12 C6.25,11.59 6.59,11.25 7,11.25 L14,11.25 C14.41,11.25 14.75,11.59 14.75,12 C14.75,12.41 14.41,12.75 14,12.75 Z"/>
  <path fill="#292D32" d="M5,23.75 C3.34,23.75 1.78,22.87 0.94,21.44 C0.49,20.72 0.25,19.87 0.25,19 C0.25,17.54 0.9,16.19 2.03,15.29 C2.87,14.62 3.93,14.25 5,14.25 C7.62,14.25 9.75,16.38 9.75,19 C9.75,19.87 9.51,20.72 9.06,21.45 C8.82,21.87 8.49,22.25 8.11,22.57 C7.28,23.33 6.17,23.75 5,23.75 Z M5,15.75 C4.26,15.75 3.56,16 2.97,16.47 C2.2,17.08 1.75,18.01 1.75,19 C1.75,19.59 1.91,20.17 2.22,20.67 C2.81,21.67 3.85,22.25 5,22.25 C5.79,22.25 6.55,21.96 7.13,21.44 C7.39,21.22 7.61,20.96 7.77,20.68 C8.09,20.17 8.25,19.59 8.25,19 C8.25,17.21 6.79,15.75 5,15.75 Z"/>
  <path fill="#292D32" d="M6.068,20.79 C5.878,20.79 5.688,20.72 5.538,20.57 L3.428,18.46 C3.138,18.17 3.138,17.69 3.428,17.4 C3.718,17.11 4.198,17.11 4.488,17.4 L6.598,19.51 C6.888,19.8 6.888,20.28 6.598,20.57 C6.448,20.72 6.258,20.79 6.068,20.79 Z"/>
  <path fill="#292D32" d="M3.927,20.82 C3.737,20.82 3.547,20.75 3.397,20.6 C3.107,20.31 3.107,19.83 3.397,19.54 L5.507,17.43 C5.797,17.14 6.277,17.14 6.567,17.43 C6.857,17.72 6.857,18.2 6.567,18.49 L4.457,20.6 C4.307,20.75 4.117,20.82 3.927,20.82 Z"/>
</svg>