<svg xmlns="http://www.w3.org/2000/svg" width="24" height="24" viewBox="0 0 24 24">
  <defs/>
  <path fill="#292D32" d="M17.743,22.75 L7.643,22.75 C7.333,22.75 7.053,22.56 6.943,22.26 C6.833,21.96 6.913,21.64 7.153,21.43 C7.853,20.81 8.263,19.92 8.263,18.99 C8.263,17.2 6.803,15.74 5.013,15.74 C4.273,15.74 3.573,15.99 2.983,16.46 C2.753,16.64 2.453,16.67 2.193,16.55 C1.933,16.43 1.773,16.16 1.773,15.87 L1.773,11.5 C1.773,9.01 3.793,6.99 6.283,6.99 L17.763,6.99 C20.253,6.99 22.273,9.01 22.273,11.5 L22.273,12.94 C22.273,13.35 21.933,13.69 21.523,13.69 L19.503,13.69 C19.153,13.69 18.833,13.82 18.603,14.06 L18.593,14.07 C18.313,14.34 18.183,14.71 18.213,15.09 C18.273,15.75 18.903,16.28 19.623,16.28 L21.523,16.28 C21.933,16.28 22.273,16.62 22.273,17.03 L22.273,18.22 C22.253,20.73 20.233,22.75 17.743,22.75 Z M9.183,21.25 L17.743,21.25 C19.403,21.25 20.753,19.9 20.753,18.24 L20.753,17.8 L19.603,17.8 C18.093,17.8 16.813,16.68 16.693,15.24 C16.613,14.42 16.913,13.61 17.513,13.02 C18.033,12.49 18.733,12.2 19.483,12.2 L20.753,12.2 L20.753,11.51 C20.753,9.85 19.403,8.5 17.743,8.5 L6.263,8.5 C4.603,8.5 3.253,9.85 3.253,11.51 L3.253,14.59 C3.813,14.37 4.403,14.25 5.003,14.25 C7.623,14.25 9.753,16.38 9.753,19 C9.753,19.79 9.553,20.57 9.183,21.25 Z"/>
  <path fill="#292D32" d="M2.5,12.26 C2.09,12.26 1.75,11.92 1.75,11.51 L1.75,7.84 C1.75,6.35 2.68,4.99 4.07,4.47 L12.01,1.47 C12.83,1.17 13.75,1.28 14.46,1.78 C15.17,2.28 15.6,3.09 15.6,3.95 L15.6,7.75 C15.6,8.16 15.26,8.5 14.85,8.5 C14.44,8.5 14.1,8.16 14.1,7.75 L14.1,3.95 C14.1,3.57 13.92,3.23 13.61,3.01 C13.29,2.79 12.9,2.74 12.54,2.87 L4.6,5.87 C3.78,6.18 3.25,6.95 3.25,7.84 L3.25,11.51 C3.25,11.92 2.91,12.26 2.5,12.26 Z"/>
  <path fill="#292D32" d="M19.602,17.8 C18.092,17.8 16.812,16.68 16.692,15.24 C16.612,14.41 16.912,13.6 17.512,13.01 C18.022,12.49 18.722,12.2 19.472,12.2 L21.552,12.2 C22.542,12.23 23.302,13.01 23.302,13.97 L23.302,16.03 C23.302,16.99 22.542,17.77 21.582,17.8 L19.602,17.8 Z M21.532,13.7 L19.482,13.7 C19.132,13.7 18.812,13.83 18.582,14.07 C18.292,14.35 18.152,14.73 18.192,15.11 C18.252,15.77 18.882,16.3 19.602,16.3 L21.562,16.3 C21.692,16.3 21.812,16.18 21.812,16.03 L21.812,13.97 C21.812,13.82 21.692,13.71 21.532,13.7 Z"/>
  <path fill="#292D32" d="M14,12.75 L7,12.75 C6.59,12.75 6.25,12.41 6.25,12 C6.25,11.59 6.59,11.25 7,11.25 L14,11.25 C14.41,11.25 14.75,11.59 14.75,12 C14.75,12.41 14.41,12.75 14,12.75 Z"/>
  <path fill="#292D32" d="M5,23.75 C2.38,23.75 0.25,21.62 0.25,19 C0.25,17.54 0.9,16.19 2.03,15.29 C2.87,14.62 3.93,14.25 5,14.25 C7.62,14.25 9.75,16.38 9.75,19 C9.75,20.36 9.16,21.66 8.14,22.56 C7.26,23.33 6.15,23.75 5,23.75 Z M5,15.75 C4.26,15.75 3.56,16 2.97,16.47 C2.2,17.08 1.75,18.01 1.75,19 C1.75,20.79 3.21,22.25 5,22.25 C5.78,22.25 6.54,21.96 7.15,21.44 C7.85,20.82 8.25,19.94 8.25,19 C8.25,17.21 6.79,15.75 5,15.75 Z"/>
  <path fill="#292D32" d="M3.996,20.75 C3.746,20.75 3.496,20.62 3.356,20.39 C3.146,20.03 3.256,19.57 3.616,19.36 L4.506,18.83 L4.506,17.75 C4.506,17.34 4.846,17 5.256,17 C5.666,17 6.006,17.34 6.006,17.75 L6.006,19.25 C6.006,19.51 5.866,19.76 5.646,19.89 L4.396,20.64 C4.266,20.72 4.126,20.75 3.996,20.75 Z"/>
</svg>