<svg xmlns="http://www.w3.org/2000/svg" width="24" height="24" viewBox="0 0 24 24">
  <defs/>
  <path fill="#292D32" d="M15,22.75 L9,22.75 C3.57,22.75 1.25,20.43 1.25,15 L1.25,9 C1.25,3.57 3.57,1.25 9,1.25 L15,1.25 C20.43,1.25 22.75,3.57 22.75,9 L22.75,15 C22.75,20.43 20.43,22.75 15,22.75 Z M9,2.75 C4.39,2.75 2.75,4.39 2.75,9 L2.75,15 C2.75,19.61 4.39,21.25 9,21.25 L15,21.25 C19.61,21.25 21.25,19.61 21.25,15 L21.25,9 C21.25,4.39 19.61,2.75 15,2.75 L9,2.75 Z"/>
  <path fill="#292D32" d="M10.087,18.25 C9.467,18.25 8.857,18.02 8.387,17.55 L6.447,15.61 C5.507,14.67 5.507,13.15 6.447,12.21 L12.197,6.46 C13.137,5.52 14.657,5.52 15.597,6.46 L17.537,8.4 C18.477,9.34 18.477,10.86 17.537,11.8 L11.787,17.55 C11.317,18.01 10.707,18.25 10.087,18.25 Z M7.517,14.55 L9.457,16.49 C9.807,16.84 10.387,16.84 10.737,16.49 L16.487,10.74 C16.837,10.39 16.837,9.81 16.487,9.46 L14.547,7.52 C14.197,7.17 13.617,7.17 13.267,7.52 L7.517,13.27 C7.167,13.62 7.167,14.19 7.517,14.55 Z"/>
  <path fill="#292D32" d="M13.582,15.44 C13.392,15.44 13.202,15.37 13.052,15.22 L8.772,10.94 C8.482,10.65 8.482,10.17 8.772,9.88 C9.062,9.59 9.542,9.59 9.832,9.88 L14.112,14.16 C14.402,14.45 14.402,14.93 14.112,15.22 C13.972,15.37 13.772,15.44 13.582,15.44 Z"/>
</svg>