<svg xmlns="http://www.w3.org/2000/svg" width="24" height="24" viewBox="0 0 24 24">
  <defs/>
  <path fill="#292D32" d="M15.257,22.25 L8.737,22.25 C3.827,22.25 1.727,20.15 1.727,15.24 L1.727,15.11 C1.727,10.67 3.477,8.53 7.397,8.16 C7.797,8.13 8.177,8.43 8.217,8.84 C8.257,9.25 7.957,9.62 7.537,9.66 C4.397,9.95 3.227,11.43 3.227,15.12 L3.227,15.25 C3.227,19.32 4.667,20.76 8.737,20.76 L15.257,20.76 C19.327,20.76 20.767,19.32 20.767,15.25 L20.767,15.12 C20.767,11.41 19.577,9.93 16.377,9.66 C15.967,9.62 15.657,9.26 15.697,8.85 C15.737,8.44 16.087,8.13 16.507,8.17 C20.487,8.51 22.267,10.66 22.267,15.13 L22.267,15.26 C22.267,20.15 20.167,22.25 15.257,22.25 Z"/>
  <path fill="#292D32" d="M12,15.75 C11.59,15.75 11.25,15.41 11.25,15 L11.25,3.62 C11.25,3.21 11.59,2.87 12,2.87 C12.41,2.87 12.75,3.21 12.75,3.62 L12.75,15 C12.75,15.41 12.41,15.75 12,15.75 Z"/>
  <path fill="#292D32" d="M15.354,6.6 C15.164,6.6 14.974,6.53 14.824,6.38 L12.004,3.56 L9.184,6.38 C8.894,6.67 8.414,6.67 8.124,6.38 C7.834,6.09 7.834,5.61 8.124,5.32 L11.474,1.97 C11.764,1.68 12.244,1.68 12.534,1.97 L15.884,5.32 C16.174,5.61 16.174,6.09 15.884,6.38 C15.744,6.53 15.544,6.6 15.354,6.6 Z"/>
</svg>