<svg xmlns="http://www.w3.org/2000/svg" width="24" height="24" viewBox="0 0 24 24">
  <defs/>
  <path fill="#292D32" d="M14.438,7.25 C14.248,7.25 14.058,7.18 13.908,7.03 L11.878,5 L9.848,7.03 C9.558,7.32 9.078,7.32 8.788,7.03 C8.498,6.74 8.498,6.26 8.788,5.97 L11.348,3.41 C11.638,3.12 12.118,3.12 12.408,3.41 L14.968,5.97 C15.258,6.26 15.258,6.74 14.968,7.03 C14.818,7.18 14.628,7.25 14.438,7.25 Z"/>
  <path fill="#292D32" d="M11.883,14.93 C11.473,14.93 11.133,14.59 11.133,14.18 L11.133,4.01 C11.133,3.6 11.473,3.26 11.883,3.26 C12.293,3.26 12.633,3.6 12.633,4.01 L12.633,14.18 C12.633,14.6 12.293,14.93 11.883,14.93 Z"/>
  <path fill="#292D32" d="M12,20.75 C6.85,20.75 3.25,17.15 3.25,12 C3.25,11.59 3.59,11.25 4,11.25 C4.41,11.25 4.75,11.59 4.75,12 C4.75,16.27 7.73,19.25 12,19.25 C16.27,19.25 19.25,16.27 19.25,12 C19.25,11.59 19.59,11.25 20,11.25 C20.41,11.25 20.75,11.59 20.75,12 C20.75,17.15 17.15,20.75 12,20.75 Z"/>
</svg>