<svg xmlns="http://www.w3.org/2000/svg" width="24" height="24" viewBox="0 0 24 24">
  <defs/>
  <path fill="#292D32" d="M12.998,11.75 C12.807,11.75 12.617,11.68 12.467,11.53 C12.178,11.24 12.178,10.76 12.467,10.47 L20.668,2.27 C20.957,1.98 21.438,1.98 21.727,2.27 C22.017,2.56 22.017,3.04 21.727,3.33 L13.527,11.53 C13.377,11.68 13.188,11.75 12.998,11.75 Z"/>
  <path fill="#292D32" d="M22.003,7.55 C21.593,7.55 21.253,7.21 21.253,6.8 L21.253,2.75 L17.203,2.75 C16.793,2.75 16.453,2.41 16.453,2 C16.453,1.59 16.793,1.25 17.203,1.25 L22.003,1.25 C22.413,1.25 22.753,1.59 22.753,2 L22.753,6.8 C22.753,7.21 22.413,7.55 22.003,7.55 Z"/>
  <path fill="#292D32" d="M15,22.75 L9,22.75 C3.57,22.75 1.25,20.43 1.25,15 L1.25,9 C1.25,3.57 3.57,1.25 9,1.25 L11,1.25 C11.41,1.25 11.75,1.59 11.75,2 C11.75,2.41 11.41,2.75 11,2.75 L9,2.75 C4.39,2.75 2.75,4.39 2.75,9 L2.75,15 C2.75,19.61 4.39,21.25 9,21.25 L15,21.25 C19.61,21.25 21.25,19.61 21.25,15 L21.25,13 C21.25,12.59 21.59,12.25 22,12.25 C22.41,12.25 22.75,12.59 22.75,13 L22.75,15 C22.75,20.43 20.43,22.75 15,22.75 Z"/>
</svg>