<svg xmlns="http://www.w3.org/2000/svg" width="24" height="24" viewBox="0 0 24 24">
  <defs/>
  <path fill="#292D32" d="M23.906,12.37 C24.031,12.139 24.031,11.861 23.906,11.63 C21.613,7.409 17.142,4.543 12,4.543 C6.859,4.543 2.387,7.409 0.094,11.63 C-0.031,11.861 -0.031,12.139 0.094,12.37 C2.387,16.591 6.858,19.457 12,19.457 C17.142,19.457 21.613,16.591 23.906,12.37 Z M12,17.72 C8.841,17.72 6.28,15.159 6.28,12 C6.28,8.841 8.841,6.28 12,6.28 C15.159,6.28 17.72,8.841 17.72,12 C17.72,15.159 15.159,17.72 12,17.72 Z"/>
  <path fill="#292D32" d="M12.001,9.085 C11.76,9.085 11.527,9.115 11.303,9.17 C11.532,9.435 11.671,9.78 11.671,10.158 C11.671,10.993 10.994,11.67 10.158,11.67 C9.781,11.67 9.435,11.531 9.17,11.302 C9.115,11.526 9.086,11.76 9.086,12 C9.086,13.61 10.391,14.915 12.001,14.915 C13.611,14.915 14.916,13.61 14.916,12 C14.916,10.39 13.611,9.085 12.001,9.085 Z"/>
</svg>