<svg xmlns="http://www.w3.org/2000/svg" width="24" height="24" viewBox="0 0 24 24">
  <defs/>
  <path fill="#4C4C4C" d="M8.449,4.52 C7.2,4.52 6.188,3.508 6.188,2.26 C6.188,1.011 7.2,0 8.449,0 C9.697,0 10.709,1.011 10.709,2.26 C10.709,3.508 9.697,4.52 8.449,4.52 Z"/>
  <path fill="#4C4C4C" d="M10.407,5.591 C11.502,5.591 12.693,6.782 12.693,7.878 L12.693,15.474 C12.693,16.022 12.25,16.466 11.702,16.466 L11.01,16.466 L10.633,22.945 C10.633,23.528 10.161,24 9.578,24 L7.273,24 C6.69,24 6.217,23.528 6.217,22.945 L5.84,16.466 L5.148,16.466 C4.601,16.466 4.157,16.022 4.157,15.474 L4.157,7.878 C4.157,6.782 5.349,5.591 6.444,5.591 Z"/>
  <path fill="#4C4C4C" d="M16.903,10.516 C16.039,10.516 15.339,9.815 15.339,8.952 C15.339,8.087 16.039,7.387 16.903,7.387 C17.768,7.387 18.468,8.087 18.468,8.952 C18.468,9.815 17.768,10.516 16.903,10.516 Z"/>
  <path fill="#4C4C4C" d="M18.26,11.256 C19.018,11.256 19.843,12.081 19.843,12.839 L19.843,18.098 C19.843,18.477 19.536,18.785 19.157,18.785 L18.677,18.785 L18.417,23.269 C18.417,23.672 18.089,24 17.686,24 L16.09,24 C15.687,24 15.36,23.672 15.36,23.269 L15.099,18.785 L14.62,18.785 C14.241,18.785 13.934,18.477 13.934,18.098 L13.934,12.839 C13.934,12.081 14.758,11.256 15.516,11.256 Z"/>
</svg>