<svg xmlns="http://www.w3.org/2000/svg" width="24" height="24" viewBox="0 0 24 24">
  <defs/>
  <path fill="#292D32" d="M10.927,22.75 C10.447,22.75 9.967,22.63 9.527,22.39 C8.637,21.89 8.107,21 8.107,19.99 L8.107,14.64 C8.107,14.13 7.777,13.38 7.467,12.99 L3.667,9 C3.037,8.37 2.547,7.27 2.547,6.46 L2.547,4.14 C2.547,2.53 3.767,1.27 5.317,1.27 L18.657,1.27 C20.187,1.27 21.427,2.51 21.427,4.04 L21.427,6.26 C21.427,7.31 20.797,8.52 20.197,9.11 C19.907,9.4 19.427,9.4 19.137,9.11 C18.847,8.82 18.847,8.34 19.137,8.05 C19.507,7.68 19.927,6.85 19.927,6.26 L19.927,4.04 C19.927,3.34 19.357,2.77 18.657,2.77 L5.317,2.77 C4.607,2.77 4.047,3.37 4.047,4.14 L4.047,6.46 C4.047,6.83 4.347,7.56 4.737,7.95 L8.587,12 C9.097,12.63 9.597,13.69 9.597,14.64 L9.597,19.99 C9.597,20.65 10.047,20.97 10.247,21.08 C10.677,21.32 11.187,21.31 11.587,21.07 L12.987,20.17 C13.277,20 13.557,19.45 13.557,19.08 C13.557,18.67 13.897,18.33 14.307,18.33 C14.717,18.33 15.057,18.67 15.057,19.08 C15.057,19.98 14.497,21.01 13.787,21.44 L12.397,22.34 C11.947,22.61 11.437,22.75 10.927,22.75 Z"/>
  <path fill="#292D32" d="M16.067,17.27 C13.887,17.27 12.117,15.5 12.117,13.32 C12.117,11.14 13.887,9.37 16.067,9.37 C18.247,9.37 20.017,11.14 20.017,13.32 C20.017,15.5 18.247,17.27 16.067,17.27 Z M16.067,10.87 C14.717,10.87 13.617,11.97 13.617,13.32 C13.617,14.67 14.717,15.77 16.067,15.77 C17.417,15.77 18.517,14.67 18.517,13.32 C18.517,11.97 17.417,10.87 16.067,10.87 Z"/>
  <path fill="#292D32" d="M19.872,17.87 C19.683,17.87 19.492,17.8 19.343,17.65 L18.343,16.65 C18.052,16.36 18.052,15.88 18.343,15.59 C18.633,15.3 19.113,15.3 19.402,15.59 L20.402,16.59 C20.692,16.88 20.692,17.36 20.402,17.65 C20.262,17.79 20.062,17.87 19.872,17.87 Z"/>
</svg>