<svg xmlns="http://www.w3.org/2000/svg" width="24" height="24" viewBox="0 0 24 24">
  <defs/>
  <path fill="#292D32" d="M10.927,22.75 C10.447,22.75 9.967,22.63 9.527,22.38 C8.637,21.88 8.107,20.99 8.107,19.98 L8.107,14.63 C8.107,14.12 7.777,13.37 7.467,12.98 L3.667,8.99 C3.037,8.36 2.547,7.26 2.547,6.45 L2.547,4.13 C2.547,2.52 3.767,1.26 5.317,1.26 L18.647,1.26 C20.177,1.26 21.417,2.5 21.417,4.03 L21.417,6.25 C21.417,7.3 20.787,8.51 20.187,9.1 C19.897,9.39 19.417,9.39 19.127,9.1 C18.837,8.81 18.837,8.33 19.127,8.04 C19.497,7.67 19.917,6.84 19.917,6.25 L19.917,4.03 C19.917,3.33 19.347,2.76 18.647,2.76 L5.327,2.76 C4.617,2.76 4.057,3.36 4.057,4.13 L4.057,6.45 C4.057,6.82 4.357,7.55 4.747,7.94 L8.597,11.99 C9.107,12.62 9.607,13.68 9.607,14.63 L9.607,19.98 C9.607,20.64 10.057,20.96 10.257,21.07 C10.687,21.31 11.197,21.3 11.597,21.06 L12.997,20.16 C13.347,19.94 13.807,20.04 14.037,20.39 C14.257,20.74 14.157,21.2 13.807,21.43 L12.397,22.34 C11.947,22.61 11.437,22.75 10.927,22.75 Z"/>
  <path fill="#292D32" d="M16.883,20.25 C14.963,20.25 13.153,19.23 12.173,17.58 C11.653,16.74 11.383,15.76 11.383,14.75 C11.383,11.72 13.853,9.25 16.883,9.25 C19.913,9.25 22.383,11.72 22.383,14.75 C22.383,15.76 22.103,16.74 21.583,17.59 C20.613,19.23 18.813,20.25 16.883,20.25 Z M16.883,10.75 C14.673,10.75 12.883,12.54 12.883,14.75 C12.883,15.48 13.083,16.19 13.463,16.8 C14.183,18.01 15.493,18.75 16.883,18.75 C18.303,18.75 19.583,18.03 20.303,16.81 C20.683,16.19 20.883,15.48 20.883,14.75 C20.883,12.54 19.093,10.75 16.883,10.75 Z"/>
  <path fill="#292D32" d="M18.148,16.74 C17.958,16.74 17.768,16.67 17.618,16.52 L15.108,14.01 C14.818,13.72 14.818,13.24 15.108,12.95 C15.398,12.66 15.878,12.66 16.168,12.95 L18.678,15.46 C18.968,15.75 18.968,16.23 18.678,16.52 C18.538,16.67 18.348,16.74 18.148,16.74 Z"/>
  <path fill="#292D32" d="M15.623,16.77 C15.432,16.77 15.242,16.7 15.092,16.55 C14.803,16.26 14.803,15.78 15.092,15.49 L17.602,12.98 C17.892,12.69 18.372,12.69 18.663,12.98 C18.953,13.27 18.953,13.75 18.663,14.04 L16.152,16.55 C16.003,16.7 15.812,16.77 15.623,16.77 Z"/>
  <path fill="#292D32" d="M10.927,22.75 C10.447,22.75 9.967,22.63 9.537,22.39 C8.647,21.89 8.117,20.99 8.117,19.98 L8.117,14.63 C8.117,14.13 7.787,13.37 7.467,12.98 L3.667,8.99 C3.037,8.34 2.547,7.25 2.547,6.45 L2.547,4.12 C2.547,2.51 3.767,1.25 5.317,1.25 L18.657,1.25 C20.187,1.25 21.427,2.49 21.427,4.02 L21.427,6.24 C21.427,7.29 20.807,8.47 20.207,9.09 L18.407,10.68 C18.227,10.84 17.967,10.9 17.737,10.85 C17.467,10.78 17.177,10.75 16.877,10.75 C14.667,10.75 12.877,12.54 12.877,14.75 C12.877,15.48 13.077,16.19 13.457,16.81 C13.777,17.34 14.207,17.78 14.707,18.09 C14.927,18.23 15.067,18.47 15.067,18.73 L15.067,19.07 C15.067,19.86 14.587,20.97 13.787,21.44 L12.407,22.33 C11.957,22.61 11.437,22.75 10.927,22.75 Z M5.327,2.75 C4.617,2.75 4.057,3.35 4.057,4.12 L4.057,6.45 C4.057,6.81 4.357,7.55 4.757,7.95 L8.607,12 C9.117,12.63 9.627,13.7 9.627,14.64 L9.627,19.99 C9.627,20.65 10.087,20.98 10.277,21.09 C10.707,21.33 11.217,21.32 11.607,21.08 L13.007,20.18 C13.277,20.02 13.547,19.51 13.567,19.15 C13.017,18.74 12.537,18.21 12.177,17.61 C11.657,16.76 11.377,15.78 11.377,14.78 C11.377,11.75 13.847,9.28 16.877,9.28 C17.157,9.28 17.437,9.3 17.697,9.34 L19.177,8.03 C19.517,7.68 19.937,6.85 19.937,6.26 L19.937,4.04 C19.937,3.34 19.367,2.77 18.667,2.77 L5.327,2.77 L5.327,2.75 Z"/>
</svg>