<svg xmlns="http://www.w3.org/2000/svg" width="24" height="24" viewBox="0 0 24 24">
  <defs/>
  <path fill="#292D32" d="M10.927,22.75 C10.447,22.75 9.967,22.63 9.527,22.39 C8.637,21.89 8.107,21 8.107,19.99 L8.107,14.64 C8.107,14.13 7.777,13.38 7.467,12.99 L3.667,9 C3.037,8.37 2.547,7.27 2.547,6.46 L2.547,4.14 C2.547,2.53 3.767,1.27 5.317,1.27 L18.657,1.27 C20.187,1.27 21.427,2.51 21.427,4.04 L21.427,6.26 C21.427,7.31 20.797,8.52 20.197,9.11 C19.907,9.4 19.427,9.4 19.137,9.11 C18.847,8.82 18.847,8.34 19.137,8.05 C19.507,7.68 19.927,6.85 19.927,6.26 L19.927,4.04 C19.927,3.34 19.357,2.77 18.657,2.77 L5.317,2.77 C4.607,2.77 4.047,3.37 4.047,4.14 L4.047,6.46 C4.047,6.83 4.347,7.56 4.737,7.95 L8.587,12 C9.097,12.63 9.597,13.69 9.597,14.64 L9.597,19.99 C9.597,20.65 10.047,20.97 10.247,21.08 C10.677,21.32 11.187,21.31 11.587,21.07 L12.987,20.17 C13.337,19.95 13.797,20.05 14.027,20.4 C14.247,20.75 14.147,21.21 13.807,21.44 L12.397,22.35 C11.947,22.61 11.437,22.75 10.927,22.75 Z"/>
  <path fill="#292D32" d="M13.687,18.89 C13.307,18.89 12.947,18.75 12.687,18.49 C12.377,18.18 12.237,17.73 12.307,17.26 L12.497,15.91 C12.547,15.56 12.757,15.15 13.007,14.9 L16.547,11.36 C17.027,10.88 17.497,10.63 18.007,10.58 C18.627,10.52 19.247,10.78 19.827,11.36 C20.407,11.94 20.667,12.55 20.607,13.18 C20.557,13.68 20.297,14.16 19.827,14.64 L16.287,18.18 C16.037,18.43 15.617,18.64 15.267,18.69 L13.917,18.88 C13.837,18.89 13.767,18.89 13.687,18.89 Z M18.177,12.06 C18.167,12.06 18.157,12.06 18.147,12.06 C18.007,12.07 17.817,12.19 17.607,12.41 L14.067,15.95 C14.037,15.98 13.987,16.08 13.987,16.12 L13.807,17.37 L15.057,17.19 C15.097,17.18 15.197,17.13 15.227,17.1 L18.767,13.56 C18.977,13.35 19.107,13.16 19.117,13.02 C19.137,12.82 18.937,12.58 18.767,12.41 C18.607,12.25 18.377,12.06 18.177,12.06 Z"/>
  <path fill="#292D32" d="M18.788,15.36 C18.718,15.36 18.648,15.35 18.588,15.33 C17.268,14.96 16.218,13.91 15.848,12.59 C15.738,12.19 15.968,11.78 16.368,11.66 C16.768,11.55 17.178,11.78 17.288,12.18 C17.518,13 18.168,13.65 18.988,13.88 C19.388,13.99 19.618,14.41 19.508,14.81 C19.418,15.15 19.118,15.36 18.788,15.36 Z"/>
</svg>