<svg xmlns="http://www.w3.org/2000/svg" width="24" height="24" viewBox="0 0 24 24">
  <defs/>
  <path fill="#292D32" d="M16.883,20.25 C15.823,20.25 14.793,19.94 13.913,19.35 C13.223,18.93 12.623,18.31 12.183,17.58 C11.663,16.73 11.383,15.75 11.383,14.75 C11.383,11.72 13.853,9.25 16.883,9.25 C17.303,9.25 17.713,9.3 18.103,9.39 C20.583,9.94 22.383,12.19 22.383,14.75 C22.383,15.76 22.113,16.74 21.593,17.59 C20.613,19.23 18.803,20.25 16.883,20.25 Z M16.883,10.75 C14.673,10.75 12.883,12.54 12.883,14.75 C12.883,15.48 13.083,16.19 13.463,16.81 C13.783,17.34 14.213,17.78 14.713,18.09 C15.373,18.53 16.113,18.75 16.883,18.75 C18.283,18.75 19.593,18.01 20.313,16.81 C20.693,16.19 20.883,15.48 20.883,14.75 C20.883,12.89 19.573,11.25 17.763,10.85 C17.473,10.78 17.183,10.75 16.883,10.75 Z"/>
  <path fill="#292D32" d="M16.199,16.67 C16.009,16.67 15.819,16.6 15.669,16.45 L14.499,15.28 C14.209,14.99 14.209,14.51 14.499,14.22 C14.789,13.93 15.269,13.93 15.559,14.22 L16.219,14.88 L18.229,13.03 C18.539,12.75 19.009,12.77 19.289,13.07 C19.569,13.37 19.549,13.85 19.249,14.13 L16.709,16.47 C16.569,16.6 16.379,16.67 16.199,16.67 Z"/>
  <path fill="#292D32" d="M10.927,22.75 C10.447,22.75 9.967,22.63 9.537,22.39 C8.647,21.89 8.117,20.99 8.117,19.98 L8.117,14.63 C8.117,14.12 7.787,13.37 7.467,12.98 L3.667,8.99 C3.037,8.34 2.547,7.25 2.547,6.45 L2.547,4.12 C2.547,2.51 3.767,1.25 5.317,1.25 L18.657,1.25 C20.187,1.25 21.427,2.49 21.427,4.02 L21.427,6.24 C21.427,7.29 20.807,8.47 20.197,9.09 L18.397,10.68 C18.217,10.84 17.967,10.9 17.727,10.85 C17.457,10.78 17.167,10.75 16.867,10.75 C14.657,10.75 12.867,12.54 12.867,14.75 C12.867,15.48 13.067,16.19 13.447,16.81 C13.767,17.34 14.197,17.78 14.697,18.09 C14.917,18.23 15.057,18.47 15.057,18.73 L15.057,19.07 C15.057,19.86 14.577,20.97 13.777,21.44 L12.397,22.33 C11.957,22.61 11.437,22.75 10.927,22.75 Z M5.327,2.75 C4.617,2.75 4.057,3.35 4.057,4.12 L4.057,6.45 C4.057,6.81 4.357,7.54 4.757,7.94 L8.607,11.99 C9.117,12.62 9.627,13.68 9.627,14.63 L9.627,19.98 C9.627,20.64 10.087,20.97 10.277,21.08 C10.707,21.32 11.217,21.31 11.607,21.07 L13.007,20.17 C13.277,20.01 13.547,19.5 13.567,19.14 C13.017,18.73 12.537,18.2 12.177,17.6 C11.657,16.75 11.377,15.77 11.377,14.77 C11.377,11.74 13.847,9.27 16.877,9.27 C17.157,9.27 17.437,9.29 17.697,9.33 L19.177,8.02 C19.517,7.67 19.937,6.84 19.937,6.25 L19.937,4.03 C19.937,3.33 19.367,2.76 18.667,2.76 L5.327,2.76 L5.327,2.75 Z"/>
</svg>