<svg xmlns="http://www.w3.org/2000/svg" width="24" height="24" viewBox="0 0 24 24">
  <defs/>
  <path fill="#292D32" d="M10.938,22.65 C10.458,22.65 9.988,22.53 9.548,22.29 C8.668,21.8 8.138,20.91 8.138,19.91 L8.138,14.61 C8.138,14.11 7.808,13.36 7.498,12.98 L3.758,9.02 C3.128,8.39 2.648,7.31 2.648,6.5 L2.648,4.2 C2.648,2.6 3.858,1.35 5.398,1.35 L18.598,1.35 C20.118,1.35 21.348,2.58 21.348,4.1 L21.348,6.3 C21.348,7.35 20.718,8.54 20.128,9.13 L15.798,12.96 C15.378,13.31 15.048,14.08 15.048,14.7 L15.048,19 C15.048,19.89 14.488,20.92 13.788,21.34 L12.408,22.23 C11.958,22.51 11.448,22.65 10.938,22.65 Z M5.398,2.85 C4.698,2.85 4.148,3.44 4.148,4.2 L4.148,6.5 C4.148,6.87 4.448,7.59 4.828,7.97 L8.638,11.98 C9.148,12.61 9.648,13.66 9.648,14.6 L9.648,19.9 C9.648,20.55 10.098,20.87 10.288,20.97 C10.708,21.2 11.218,21.2 11.608,20.96 L12.998,20.07 C13.278,19.9 13.558,19.36 13.558,19 L13.558,14.7 C13.558,13.63 14.078,12.45 14.828,11.82 L19.108,8.03 C19.448,7.69 19.858,6.88 19.858,6.29 L19.858,4.1 C19.858,3.41 19.298,2.85 18.608,2.85 L5.398,2.85 Z"/>
  <path fill="#292D32" d="M6.004,10.75 C5.864,10.75 5.734,10.71 5.604,10.64 C5.254,10.42 5.144,9.95 5.364,9.6 L10.294,1.7 C10.514,1.35 10.974,1.24 11.324,1.46 C11.674,1.68 11.784,2.14 11.564,2.49 L6.634,10.39 C6.494,10.62 6.254,10.75 6.004,10.75 Z"/>
</svg>