<svg xmlns="http://www.w3.org/2000/svg" width="24" height="24" viewBox="0 0 24 24">
  <defs>
    <linearGradient id="paint0_linear_21443_89035" x1="0" y1="12" x2="24" y2="12" gradientUnits="userSpaceOnUse">
      <stop stop-color="#7332D6"/>
      <stop offset="1" stop-color="#3C1A70"/>
    </linearGradient>
  </defs>
  <path fill="url(#paint0_linear_21443_89035)" d="M19.119,7.042 C19.087,9.007 18.381,11.667 15.072,12.699 C16.108,10.416 16.266,8.232 15.532,6.19 C14.551,3.449 11.277,1.307 9.099,0.141 C8.355,-0.259 7.4,0.238 7.415,1.034 C7.443,2.488 6.966,4.612 4.649,6.757 C1.563,9.612 0,12.563 0,15.525 C0,19.244 2.824,24 8.471,24 C2.766,18.717 7.059,14.218 7.059,14.218 C8.253,21.949 14.101,24 16.941,24 C19.357,24 24,22.366 24,15.571 C24,11.475 22.119,8.367 20.633,6.552 C20.143,5.953 19.131,6.293 19.119,7.042 Z"/>
</svg>