<svg xmlns="http://www.w3.org/2000/svg" width="24" height="24" viewBox="0 0 24 24">
  <defs/>
  <path fill="#292D32" d="M6.453,22.75 C6.043,22.75 5.703,22.41 5.703,22 L5.703,2 C5.703,1.59 6.043,1.25 6.453,1.25 C6.863,1.25 7.203,1.59 7.203,2 L7.203,22 C7.203,22.41 6.863,22.75 6.453,22.75 Z"/>
  <path fill="#292D32" d="M6.953,17.75 C6.673,17.75 6.413,17.6 6.283,17.33 C6.103,16.96 6.253,16.51 6.623,16.33 L14.923,12.23 C16.143,11.6 16.833,10.84 16.803,10.13 C16.773,9.44 16.033,8.73 14.763,8.19 L6.663,4.69 C6.273,4.52 6.103,4.08 6.263,3.7 C6.423,3.32 6.873,3.14 7.253,3.31 L15.353,6.81 C17.853,7.87 18.273,9.31 18.303,10.07 C18.353,11.4 17.393,12.64 15.603,13.56 L7.293,17.67 C7.183,17.73 7.063,17.75 6.953,17.75 Z"/>
</svg>