<svg xmlns="http://www.w3.org/2000/svg" width="24" height="24" viewBox="0 0 24 24">
  <defs/>
  <path fill="#292D32" d="M5.148,22.75 C4.738,22.75 4.398,22.41 4.398,22 L4.398,2 C4.398,1.59 4.738,1.25 5.148,1.25 C5.558,1.25 5.898,1.59 5.898,2 L5.898,22 C5.898,22.41 5.558,22.75 5.148,22.75 Z"/>
  <path fill="#292D32" d="M16.348,16.75 L5.148,16.75 C4.738,16.75 4.398,16.41 4.398,16 C4.398,15.59 4.738,15.25 5.148,15.25 L16.348,15.25 C17.438,15.25 17.948,14.96 18.048,14.71 C18.148,14.46 17.998,13.9 17.218,13.13 L16.018,11.93 C15.528,11.5 15.228,10.85 15.198,10.13 C15.168,9.37 15.468,8.62 16.018,8.07 L17.218,6.87 C17.958,6.13 18.188,5.53 18.078,5.27 C17.968,5.01 17.398,4.75 16.348,4.75 L5.148,4.75 C4.728,4.75 4.398,4.41 4.398,4 C4.398,3.59 4.738,3.25 5.148,3.25 L16.348,3.25 C18.538,3.25 19.238,4.16 19.468,4.7 C19.688,5.24 19.838,6.38 18.278,7.94 L17.078,9.14 C16.828,9.39 16.688,9.74 16.698,10.09 C16.708,10.39 16.828,10.66 17.038,10.85 L18.278,12.08 C19.808,13.61 19.658,14.75 19.438,15.3 C19.208,15.83 18.498,16.75 16.348,16.75 Z"/>
</svg>