<svg xmlns="http://www.w3.org/2000/svg" width="24" height="24" viewBox="0 0 24 24">
  <defs/>
  <path fill="#292D32" d="M9.99,22.75 C9.79,22.75 9.63,22.71 9.51,22.66 C9.11,22.51 8.43,22.02 8.43,20.47 L8.43,18.03 C8.43,17.62 8.77,17.28 9.18,17.28 C9.59,17.28 9.93,17.62 9.93,18.03 L9.93,20.47 C9.93,20.97 10.02,21.19 10.06,21.25 C10.09,21.21 10.3,21.11 10.63,20.73 L18.2,12.13 C18.48,11.81 18.52,11.61 18.52,11.57 C18.5,11.56 18.32,11.46 17.9,11.46 L16.97,11.46 C16.56,11.46 16.22,11.12 16.22,10.71 C16.22,10.3 16.56,9.96 16.97,9.96 L17.9,9.96 C19.24,9.96 19.72,10.59 19.89,10.96 C20.06,11.34 20.21,12.11 19.33,13.12 L11.76,21.72 C11.05,22.54 10.43,22.75 9.99,22.75 Z"/>
  <path fill="#292D32" d="M9.179,15.22 C8.769,15.22 8.429,14.88 8.429,14.47 L8.429,14.04 L6.089,14.04 C4.749,14.04 4.269,13.41 4.099,13.04 C3.929,12.66 3.779,11.89 4.659,10.88 L12.229,2.28 C13.249,1.12 14.079,1.2 14.479,1.35 C14.879,1.5 15.559,1.99 15.559,3.54 L15.559,8.85 C15.559,9.26 15.219,9.6 14.809,9.6 C14.399,9.6 14.059,9.26 14.059,8.85 L14.059,3.52 C14.059,3.02 13.969,2.8 13.929,2.74 C13.899,2.78 13.689,2.88 13.359,3.26 L5.789,11.86 C5.509,12.18 5.469,12.38 5.469,12.42 C5.489,12.43 5.669,12.53 6.089,12.53 L9.179,12.53 C9.589,12.53 9.929,12.87 9.929,13.28 L9.929,14.46 C9.929,14.88 9.589,15.22 9.179,15.22 Z"/>
  <path fill="#292D32" d="M1.998,22.75 C1.808,22.75 1.617,22.68 1.468,22.53 C1.177,22.24 1.177,21.76 1.468,21.47 L21.468,1.47 C21.758,1.18 22.238,1.18 22.527,1.47 C22.817,1.76 22.817,2.24 22.527,2.53 L2.527,22.53 C2.377,22.68 2.188,22.75 1.998,22.75 Z"/>
</svg>