<svg xmlns="http://www.w3.org/2000/svg" width="24" height="24" viewBox="0 0 24 24">
  <defs/>
  <path fill="#292D32" d="M9.989,22.75 C9.789,22.75 9.629,22.71 9.509,22.66 C9.109,22.51 8.429,22.02 8.429,20.47 L8.429,14.02 L6.089,14.02 C4.749,14.02 4.269,13.39 4.099,13.02 C3.929,12.64 3.779,11.87 4.659,10.86 L12.229,2.26 C13.249,1.1 14.079,1.18 14.479,1.33 C14.879,1.48 15.559,1.97 15.559,3.52 L15.559,9.97 L17.899,9.97 C19.239,9.97 19.719,10.6 19.889,10.97 C20.059,11.35 20.209,12.12 19.329,13.13 L11.759,21.73 C11.049,22.54 10.429,22.75 9.989,22.75 Z M13.929,2.74 C13.899,2.78 13.689,2.88 13.359,3.26 L5.789,11.86 C5.509,12.18 5.469,12.38 5.469,12.42 C5.489,12.43 5.669,12.53 6.089,12.53 L9.179,12.53 C9.589,12.53 9.929,12.87 9.929,13.28 L9.929,20.48 C9.929,20.98 10.019,21.2 10.059,21.26 C10.089,21.22 10.299,21.12 10.629,20.74 L18.199,12.14 C18.479,11.82 18.519,11.62 18.519,11.58 C18.499,11.57 18.319,11.47 17.899,11.47 L14.809,11.47 C14.399,11.47 14.059,11.13 14.059,10.72 L14.059,3.52 C14.069,3.02 13.969,2.81 13.929,2.74 Z"/>
</svg>