<svg xmlns="http://www.w3.org/2000/svg" width="24" height="24" viewBox="0 0 24 24">
  <defs/>
  <path fill="#292D32" d="M12.002,17.88 C11.752,17.88 11.492,17.79 11.292,17.61 L8.712,15.35 C7.742,14.5 7.612,13.04 8.422,12.03 C9.242,11.01 10.702,10.82 11.752,11.61 L12.002,11.8 L12.262,11.6 C13.312,10.81 14.772,11 15.592,12.02 C16.402,13.03 16.272,14.49 15.302,15.34 L12.722,17.6 C12.512,17.79 12.252,17.88 12.002,17.88 Z M9.692,14.22 L12.002,16.24 L14.312,14.22 C14.682,13.9 14.732,13.35 14.422,12.97 C14.112,12.58 13.562,12.51 13.162,12.81 L12.452,13.34 C12.182,13.54 11.822,13.54 11.552,13.34 L10.842,12.81 C10.452,12.51 9.892,12.58 9.582,12.97 C9.282,13.35 9.332,13.9 9.692,14.22 Z"/>
  <path fill="#292D32" d="M17,22.75 L7,22.75 C2.59,22.75 1.25,21.41 1.25,17 L1.25,7 C1.25,2.59 2.59,1.25 7,1.25 L8.5,1.25 C10.25,1.25 10.8,1.82 11.5,2.75 L13,4.75 C13.33,5.19 13.38,5.25 14,5.25 L17,5.25 C21.41,5.25 22.75,6.59 22.75,11 L22.75,17 C22.75,21.41 21.41,22.75 17,22.75 Z M7,2.75 C3.42,2.75 2.75,3.43 2.75,7 L2.75,17 C2.75,20.57 3.42,21.25 7,21.25 L17,21.25 C20.58,21.25 21.25,20.57 21.25,17 L21.25,11 C21.25,7.43 20.58,6.75 17,6.75 L14,6.75 C12.72,6.75 12.3,6.31 11.8,5.65 L10.3,3.65 C9.78,2.96 9.62,2.75 8.5,2.75 L7,2.75 Z"/>
</svg>