<svg xmlns="http://www.w3.org/2000/svg" width="24" height="24" viewBox="0 0 24 24">
  <defs/>
  <path fill="#292D32" d="M14.9,22.75 L9.1,22.75 C8.21,22.75 7.07,22.28 6.45,21.65 L2.35,17.55 C1.72,16.92 1.25,15.78 1.25,14.9 L1.25,9.1 C1.25,8.21 1.72,7.07 2.35,6.45 L6.45,2.35 C7.08,1.72 8.22,1.25 9.1,1.25 L14.9,1.25 C15.79,1.25 16.93,1.72 17.55,2.35 L21.65,6.45 C22.28,7.08 22.75,8.22 22.75,9.1 L22.75,14.9 C22.75,15.79 22.28,16.93 21.65,17.55 L17.55,21.65 C16.92,22.28 15.79,22.75 14.9,22.75 Z M9.1,2.75 C8.61,2.75 7.85,3.06 7.51,3.41 L3.41,7.51 C3.07,7.86 2.75,8.61 2.75,9.1 L2.75,14.9 C2.75,15.39 3.06,16.15 3.41,16.49 L7.51,20.59 C7.86,20.93 8.61,21.25 9.1,21.25 L14.9,21.25 C15.39,21.25 16.15,20.94 16.49,20.59 L20.59,16.49 C20.93,16.14 21.25,15.39 21.25,14.9 L21.25,9.1 C21.25,8.61 20.94,7.85 20.59,7.51 L16.49,3.41 C16.14,3.07 15.39,2.75 14.9,2.75 L9.1,2.75 Z"/>
  <path fill="#292D32" d="M8.498,16.25 C8.307,16.25 8.117,16.18 7.968,16.03 C7.678,15.74 7.678,15.26 7.968,14.97 L14.967,7.97 C15.258,7.68 15.738,7.68 16.027,7.97 C16.317,8.26 16.317,8.74 16.027,9.03 L9.027,16.03 C8.877,16.18 8.688,16.25 8.498,16.25 Z"/>
  <path fill="#292D32" d="M15.498,16.25 C15.307,16.25 15.117,16.18 14.967,16.03 L7.968,9.03 C7.678,8.74 7.678,8.26 7.968,7.97 C8.258,7.68 8.738,7.68 9.027,7.97 L16.027,14.97 C16.317,15.26 16.317,15.74 16.027,16.03 C15.877,16.18 15.688,16.25 15.498,16.25 Z"/>
</svg>