<svg xmlns="http://www.w3.org/2000/svg" width="24" height="24" viewBox="0 0 24 24">
  <defs/>
  <path fill="#292D32" d="M18.647,8.95 C16.657,8.95 15.047,7.33 15.047,5.35 C15.047,4.54 15.317,3.77 15.817,3.13 C15.837,3.1 15.867,3.08 15.887,3.05 C16.567,2.22 17.567,1.75 18.647,1.75 C20.627,1.75 22.247,3.37 22.247,5.35 C22.247,6.46 21.747,7.49 20.867,8.18 C20.227,8.68 19.457,8.95 18.647,8.95 Z M16.947,4.12 C16.687,4.48 16.547,4.9 16.547,5.35 C16.547,6.51 17.487,7.45 18.647,7.45 C19.117,7.45 19.567,7.29 19.937,7 C20.447,6.6 20.747,6 20.747,5.35 C20.747,4.19 19.807,3.25 18.647,3.25 C17.997,3.25 17.397,3.54 17.007,4.05 C16.987,4.08 16.967,4.1 16.947,4.12 Z"/>
  <path fill="#292D32" d="M5.35,8.95 C4.54,8.95 3.77,8.68 3.13,8.18 C2.25,7.49 1.75,6.46 1.75,5.35 C1.75,3.37 3.37,1.75 5.35,1.75 C6.46,1.75 7.49,2.25 8.18,3.13 C8.68,3.77 8.95,4.54 8.95,5.35 C8.95,7.33 7.33,8.95 5.35,8.95 Z M5.35,3.25 C4.19,3.25 3.25,4.19 3.25,5.35 C3.25,6 3.54,6.6 4.06,7 C4.43,7.29 4.88,7.45 5.35,7.45 C6.51,7.45 7.45,6.51 7.45,5.35 C7.45,4.88 7.29,4.43 7,4.06 C6.6,3.54 6,3.25 5.35,3.25 Z"/>
  <path fill="#292D32" d="M18.647,22.25 C17.567,22.25 16.567,21.78 15.887,20.95 C15.857,20.93 15.837,20.9 15.817,20.87 C15.317,20.23 15.047,19.46 15.047,18.65 C15.047,16.66 16.667,15.05 18.647,15.05 C19.457,15.05 20.227,15.32 20.867,15.82 C20.897,15.84 20.917,15.87 20.947,15.89 C21.777,16.57 22.247,17.57 22.247,18.65 C22.247,20.63 20.627,22.25 18.647,22.25 Z M16.947,19.88 C16.967,19.9 16.987,19.92 17.007,19.95 C17.397,20.46 17.997,20.75 18.647,20.75 C19.807,20.75 20.747,19.81 20.747,18.65 C20.747,18 20.457,17.4 19.947,17.01 C19.917,16.99 19.897,16.97 19.877,16.95 C19.517,16.69 19.097,16.55 18.647,16.55 C17.487,16.55 16.547,17.49 16.547,18.65 C16.547,19.1 16.687,19.52 16.947,19.88 Z"/>
  <path fill="#292D32" d="M5.35,22.25 C3.37,22.25 1.75,20.63 1.75,18.65 C1.75,17.57 2.22,16.57 3.05,15.89 C3.07,15.86 3.1,15.84 3.13,15.82 C3.77,15.32 4.54,15.05 5.35,15.05 C7.34,15.05 8.95,16.67 8.95,18.65 C8.95,19.46 8.68,20.23 8.18,20.87 C7.49,21.75 6.46,22.25 5.35,22.25 Z M4.12,16.95 C4.1,16.97 4.08,16.99 4.05,17.01 C3.54,17.4 3.25,18 3.25,18.65 C3.25,19.81 4.19,20.75 5.35,20.75 C6,20.75 6.6,20.46 7,19.94 C7.29,19.57 7.45,19.12 7.45,18.65 C7.45,17.49 6.51,16.55 5.35,16.55 C4.9,16.55 4.48,16.69 4.12,16.95 Z"/>
  <path fill="#292D32" d="M12,22.25 C10.34,22.25 8.69,21.84 7.24,21.07 C7.04,20.97 6.91,20.78 6.86,20.56 C6.81,20.34 6.86,20.12 7,19.94 C7.29,19.57 7.45,19.12 7.45,18.65 C7.45,17.49 6.51,16.55 5.35,16.55 C4.88,16.55 4.43,16.71 4.06,17 C3.89,17.14 3.66,17.19 3.44,17.14 C3.22,17.09 3.04,16.96 2.93,16.76 C2.15,15.29 1.75,13.69 1.75,12 C1.75,10.34 2.16,8.69 2.93,7.24 C3.03,7.04 3.22,6.91 3.44,6.86 C3.66,6.81 3.88,6.87 4.06,7 C4.43,7.29 4.88,7.45 5.35,7.45 C6.51,7.45 7.45,6.51 7.45,5.35 C7.45,4.88 7.29,4.43 7,4.06 C6.86,3.89 6.81,3.66 6.86,3.44 C6.91,3.22 7.04,3.04 7.24,2.93 C8.69,2.16 10.34,1.75 12,1.75 C13.69,1.75 15.29,2.15 16.76,2.93 C16.96,3.03 17.09,3.22 17.14,3.44 C17.19,3.66 17.13,3.88 17,4.06 C16.71,4.43 16.55,4.88 16.55,5.35 C16.55,6.51 17.49,7.45 18.65,7.45 C19.12,7.45 19.57,7.29 19.94,7 C20.11,6.86 20.34,6.81 20.56,6.86 C20.78,6.91 20.96,7.04 21.07,7.24 C21.84,8.69 22.25,10.34 22.25,12 C22.25,13.69 21.85,15.29 21.07,16.76 C20.97,16.96 20.78,17.09 20.56,17.14 C20.34,17.19 20.12,17.13 19.94,17 C19.57,16.71 19.12,16.55 18.65,16.55 C17.49,16.55 16.55,17.49 16.55,18.65 C16.55,19.12 16.71,19.57 17,19.94 C17.14,20.11 17.19,20.34 17.14,20.56 C17.09,20.78 16.96,20.96 16.76,21.07 C15.29,21.85 13.69,22.25 12,22.25 Z M8.65,20.08 C10.77,20.97 13.25,20.96 15.34,20.08 C15.14,19.63 15.04,19.15 15.04,18.65 C15.04,16.66 16.66,15.05 18.64,15.05 C19.14,15.05 19.62,15.15 20.07,15.35 C20.51,14.3 20.74,13.18 20.74,12 C20.74,10.85 20.51,9.7 20.07,8.65 C19.62,8.85 19.14,8.95 18.64,8.95 C16.65,8.95 15.04,7.33 15.04,5.35 C15.04,4.85 15.14,4.37 15.34,3.92 C13.25,3.04 10.76,3.04 8.65,3.92 C8.85,4.37 8.95,4.85 8.95,5.35 C8.95,7.34 7.33,8.95 5.35,8.95 C4.85,8.95 4.37,8.85 3.92,8.65 C3.48,9.7 3.25,10.85 3.25,12 C3.25,13.17 3.47,14.29 3.92,15.35 C4.37,15.15 4.85,15.05 5.35,15.05 C7.34,15.05 8.95,16.67 8.95,18.65 C8.95,19.15 8.85,19.63 8.65,20.08 Z"/>
</svg>