<svg xmlns="http://www.w3.org/2000/svg" width="24" height="24" viewBox="0 0 24 24">
  <defs/>
  <path fill="#292D32" d="M3.95,18.36 C3.49,18.36 3.02,18.24 2.6,17.99 C1.75,17.5 1.25,16.63 1.25,15.65 L1.25,8.33 C1.25,7.35 1.75,6.48 2.6,5.99 C3.45,5.5 4.46,5.5 5.3,5.99 L11.64,9.65 C11.93,9.82 12.16,10.02 12.34,10.24 C12.45,10.37 12.51,10.54 12.51,10.71 L12.51,13.27 C12.51,13.44 12.45,13.61 12.34,13.74 C12.16,13.96 11.93,14.16 11.66,14.32 L5.3,18 C4.88,18.24 4.42,18.36 3.95,18.36 Z M3.95,7.14 C3.74,7.14 3.54,7.19 3.35,7.3 C2.97,7.52 2.75,7.91 2.75,8.34 L2.75,15.66 C2.75,16.09 2.97,16.48 3.35,16.7 C3.73,16.92 4.17,16.92 4.55,16.7 L10.89,13.04 C10.93,13.02 10.97,12.99 11,12.96 L11,11.03 C10.96,11 10.92,10.97 10.88,10.95 L4.55,7.3 C4.36,7.19 4.16,7.14 3.95,7.14 Z"/>
  <path fill="#292D32" d="M13.708,18.36 C13.248,18.36 12.778,18.24 12.358,17.99 C11.508,17.5 11.008,16.63 11.008,15.65 L11.008,8.33 C11.008,7.35 11.508,6.48 12.358,5.99 C13.208,5.5 14.218,5.5 15.058,5.99 L21.398,9.65 C22.238,10.14 22.748,11.01 22.748,11.99 C22.748,12.97 22.248,13.84 21.398,14.33 L15.058,17.99 C14.638,18.24 14.168,18.36 13.708,18.36 Z M13.708,7.14 C13.498,7.14 13.298,7.19 13.108,7.3 C12.728,7.52 12.508,7.9 12.508,8.34 L12.508,15.66 C12.508,16.09 12.728,16.48 13.108,16.7 C13.488,16.92 13.938,16.92 14.308,16.7 L20.648,13.04 C21.028,12.82 21.248,12.43 21.248,12 C21.248,11.57 21.028,11.18 20.648,10.96 L14.308,7.3 C14.118,7.19 13.918,7.14 13.708,7.14 Z"/>
</svg>