<svg xmlns="http://www.w3.org/2000/svg" width="24" height="24" viewBox="0 0 24 24">
  <defs/>
  <path fill="#292D32" d="M14.431,16.92 L12.141,16.92 C11.731,16.92 11.391,16.58 11.391,16.17 C11.391,15.76 11.731,15.42 12.141,15.42 L14.431,15.42 C14.861,15.42 15.211,15.07 15.211,14.64 C15.211,14.21 14.861,13.86 14.431,13.86 L12.141,13.86 C11.901,13.86 11.671,13.74 11.531,13.55 C11.391,13.36 11.351,13.1 11.431,12.87 L12.191,10.58 C12.291,10.27 12.581,10.07 12.901,10.07 L15.961,10.07 C16.371,10.07 16.711,10.41 16.711,10.82 C16.711,11.23 16.371,11.57 15.961,11.57 L13.441,11.57 L13.181,12.36 L14.431,12.36 C15.691,12.36 16.711,13.38 16.711,14.64 C16.711,15.9 15.681,16.92 14.431,16.92 Z"/>
  <path fill="#292D32" d="M9.538,16.92 C9.128,16.92 8.788,16.58 8.788,16.17 L8.788,12.78 L8.598,13 C8.318,13.31 7.848,13.33 7.538,13.06 C7.228,12.78 7.208,12.31 7.478,12 L8.978,10.33 C9.188,10.1 9.518,10.02 9.808,10.13 C10.098,10.24 10.288,10.52 10.288,10.83 L10.288,16.18 C10.288,16.59 9.958,16.92 9.538,16.92 Z"/>
  <path fill="#292D32" d="M13.976,5.22 C13.756,5.22 13.536,5.12 13.396,4.94 L11.416,2.47 C11.156,2.15 11.206,1.67 11.536,1.42 C11.856,1.16 12.326,1.21 12.586,1.54 L14.566,4.01 C14.826,4.33 14.776,4.81 14.446,5.06 C14.306,5.16 14.136,5.22 13.976,5.22 Z"/>
  <path fill="#292D32" d="M11.999,22.75 C6.689,22.75 2.359,18.43 2.359,13.11 C2.359,7.79 6.679,3.47 11.999,3.47 C12.689,3.47 13.389,3.55 14.149,3.73 C14.549,3.82 14.809,4.23 14.709,4.63 C14.619,5.03 14.209,5.29 13.809,5.19 C13.169,5.04 12.569,4.97 11.999,4.97 C7.509,4.97 3.859,8.62 3.859,13.11 C3.859,17.6 7.509,21.25 11.999,21.25 C16.489,21.25 20.139,17.6 20.139,13.11 C20.139,11.37 19.569,9.69 18.489,8.25 C18.239,7.92 18.309,7.45 18.639,7.2 C18.969,6.95 19.439,7.02 19.689,7.35 C20.969,9.05 21.639,11.04 21.639,13.11 C21.639,18.43 17.309,22.75 11.999,22.75 Z"/>
</svg>