<svg xmlns="http://www.w3.org/2000/svg" width="24" height="24" viewBox="0 0 24 24">
  <defs/>
  <path fill="#292D32" d="M13.976,5.22 C13.756,5.22 13.536,5.12 13.396,4.94 L11.416,2.47 C11.156,2.15 11.206,1.67 11.536,1.42 C11.856,1.16 12.326,1.21 12.586,1.54 L14.566,4.01 C14.826,4.33 14.776,4.81 14.446,5.06 C14.306,5.16 14.136,5.22 13.976,5.22 Z"/>
  <path fill="#292D32" d="M11.999,22.75 C6.689,22.75 2.359,18.43 2.359,13.11 C2.359,7.79 6.679,3.47 11.999,3.47 C12.689,3.47 13.389,3.55 14.149,3.73 C14.549,3.82 14.809,4.23 14.709,4.63 C14.619,5.03 14.219,5.29 13.809,5.19 C13.169,5.04 12.569,4.97 11.999,4.97 C7.509,4.97 3.859,8.62 3.859,13.11 C3.859,17.6 7.509,21.25 11.999,21.25 C16.489,21.25 20.139,17.6 20.139,13.11 C20.139,11.37 19.569,9.69 18.489,8.25 C18.239,7.92 18.309,7.45 18.639,7.2 C18.969,6.95 19.439,7.02 19.689,7.35 C20.969,9.05 21.639,11.04 21.639,13.11 C21.639,18.43 17.309,22.75 11.999,22.75 Z"/>
  <path fill="#292D32" d="M9.538,16.67 C9.128,16.67 8.788,16.33 8.788,15.92 L8.788,12.53 L8.598,12.74 C8.318,13.05 7.848,13.07 7.538,12.8 C7.228,12.52 7.208,12.05 7.478,11.74 L8.978,10.07 C9.188,9.84 9.518,9.76 9.808,9.87 C10.098,9.98 10.288,10.26 10.288,10.57 L10.288,15.92 C10.288,16.34 9.958,16.67 9.538,16.67 Z"/>
  <path fill="#292D32" d="M14,16.67 C12.48,16.67 11.25,15.44 11.25,13.92 L11.25,12.57 C11.25,11.05 12.48,9.82 14,9.82 C15.52,9.82 16.75,11.05 16.75,12.57 L16.75,13.92 C16.75,15.44 15.52,16.67 14,16.67 Z M14,11.33 C13.31,11.33 12.75,11.89 12.75,12.58 L12.75,13.93 C12.75,14.62 13.31,15.18 14,15.18 C14.69,15.18 15.25,14.62 15.25,13.93 L15.25,12.58 C15.25,11.89 14.69,11.33 14,11.33 Z"/>
</svg>