<svg xmlns="http://www.w3.org/2000/svg" width="24" height="24" viewBox="0 0 24 24">
  <defs/>
  <path fill="#292D32" d="M13.976,5.22 C13.756,5.22 13.536,5.12 13.396,4.94 L11.416,2.47 C11.156,2.15 11.206,1.67 11.536,1.42 C11.866,1.17 12.326,1.21 12.586,1.54 L14.566,4.01 C14.826,4.33 14.776,4.81 14.446,5.06 C14.306,5.16 14.136,5.22 13.976,5.22 Z"/>
  <path fill="#292D32" d="M11.999,22.75 C6.689,22.75 2.359,18.43 2.359,13.11 C2.359,7.79 6.679,3.47 11.999,3.47 C12.689,3.47 13.389,3.55 14.149,3.73 C14.549,3.82 14.809,4.23 14.709,4.63 C14.619,5.03 14.219,5.29 13.809,5.19 C13.169,5.04 12.569,4.97 11.999,4.97 C7.509,4.97 3.859,8.62 3.859,13.11 C3.859,17.6 7.509,21.25 11.999,21.25 C16.489,21.25 20.139,17.6 20.139,13.11 C20.139,11.37 19.569,9.69 18.489,8.25 C18.239,7.92 18.309,7.45 18.639,7.2 C18.969,6.95 19.439,7.02 19.689,7.35 C20.969,9.05 21.639,11.04 21.639,13.11 C21.639,18.43 17.309,22.75 11.999,22.75 Z"/>
  <path fill="#292D32" d="M12.377,16.92 L10.087,16.92 C9.677,16.92 9.337,16.58 9.337,16.17 C9.337,15.76 9.677,15.42 10.087,15.42 L12.377,15.42 C12.807,15.42 13.157,15.07 13.157,14.64 C13.157,14.21 12.807,13.86 12.377,13.86 L10.087,13.86 C9.847,13.86 9.617,13.74 9.477,13.55 C9.337,13.36 9.297,13.1 9.377,12.87 L10.137,10.58 C10.237,10.27 10.527,10.07 10.847,10.07 L13.907,10.07 C14.317,10.07 14.657,10.41 14.657,10.82 C14.657,11.23 14.317,11.57 13.907,11.57 L11.387,11.57 L11.127,12.36 L12.377,12.36 C13.637,12.36 14.657,13.38 14.657,14.64 C14.657,15.9 13.637,16.92 12.377,16.92 Z"/>
</svg>