<svg xmlns="http://www.w3.org/2000/svg" width="24" height="24" viewBox="0 0 24 24">
  <defs/>
  <path fill="#292D32" d="M11.998,22.76 C10.908,22.76 9.828,22.44 8.978,21.81 L4.678,18.6 C3.538,17.75 2.648,15.98 2.648,14.56 L2.648,7.12 C2.648,5.58 3.778,3.94 5.228,3.4 L10.218,1.53 C11.208,1.16 12.768,1.16 13.758,1.53 L18.758,3.4 C20.208,3.94 21.338,5.58 21.338,7.12 L21.338,14.55 C21.338,15.97 20.448,17.74 19.308,18.59 L15.008,21.8 C14.168,22.44 13.088,22.76 11.998,22.76 Z M10.748,2.94 L5.758,4.81 C4.898,5.13 4.148,6.21 4.148,7.13 L4.148,14.56 C4.148,15.51 4.818,16.84 5.568,17.4 L9.868,20.61 C11.018,21.47 12.968,21.47 14.118,20.61 L18.418,17.4 C19.178,16.83 19.838,15.5 19.838,14.56 L19.838,7.12 C19.838,6.21 19.088,5.13 18.228,4.8 L13.238,2.93 C12.578,2.69 11.418,2.69 10.748,2.94 Z"/>
  <path fill="#292D32" d="M12,13.25 C10.48,13.25 9.25,12.02 9.25,10.5 C9.25,8.98 10.48,7.75 12,7.75 C13.52,7.75 14.75,8.98 14.75,10.5 C14.75,12.02 13.52,13.25 12,13.25 Z M12,9.25 C11.31,9.25 10.75,9.81 10.75,10.5 C10.75,11.19 11.31,11.75 12,11.75 C12.69,11.75 13.25,11.19 13.25,10.5 C13.25,9.81 12.69,9.25 12,9.25 Z"/>
  <path fill="#292D32" d="M12,16.25 C11.59,16.25 11.25,15.91 11.25,15.5 L11.25,12.5 C11.25,12.09 11.59,11.75 12,11.75 C12.41,11.75 12.75,12.09 12.75,12.5 L12.75,15.5 C12.75,15.91 12.41,16.25 12,16.25 Z"/>
</svg>