<svg xmlns="http://www.w3.org/2000/svg" width="24" height="24" viewBox="0 0 24 24">
  <defs/>
  <path fill="#292D32" d="M9,10.75 C7.48,10.75 6.25,9.52 6.25,8 C6.25,6.48 7.48,5.25 9,5.25 C10.52,5.25 11.75,6.48 11.75,8 C11.75,9.52 10.52,10.75 9,10.75 Z M9,6.75 C8.31,6.75 7.75,7.31 7.75,8 C7.75,8.69 8.31,9.25 9,9.25 C9.69,9.25 10.25,8.69 10.25,8 C10.25,7.31 9.69,6.75 9,6.75 Z"/>
  <path fill="#292D32" d="M15,22.75 L9,22.75 C3.57,22.75 1.25,20.43 1.25,15 L1.25,9 C1.25,3.57 3.57,1.25 9,1.25 L12,1.25 C12.41,1.25 12.75,1.59 12.75,2 C12.75,2.41 12.41,2.75 12,2.75 L9,2.75 C4.39,2.75 2.75,4.39 2.75,9 L2.75,15 C2.75,19.61 4.39,21.25 9,21.25 L15,21.25 C19.61,21.25 21.25,19.61 21.25,15 L21.25,11 C21.25,10.59 21.59,10.25 22,10.25 C22.41,10.25 22.75,10.59 22.75,11 L22.75,15 C22.75,20.43 20.43,22.75 15,22.75 Z"/>
  <path fill="#292D32" d="M18.938,8.36 C18.067,8.36 16.027,7.29 15.398,5.34 C14.967,3.99 15.467,2.22 17.027,1.72 C17.688,1.51 18.378,1.6 18.927,1.94 C19.468,1.6 20.177,1.5 20.848,1.72 C22.407,2.22 22.907,3.99 22.477,5.34 C21.848,7.33 19.707,8.36 18.938,8.36 Z M16.828,4.88 C17.258,6.21 18.698,6.83 18.957,6.86 C19.247,6.83 20.657,6.13 21.047,4.88 C21.258,4.21 21.047,3.36 20.387,3.14 C20.108,3.05 19.738,3.1 19.567,3.36 C19.427,3.57 19.198,3.7 18.957,3.7 C18.727,3.7 18.477,3.59 18.337,3.39 C18.128,3.1 17.758,3.06 17.497,3.14 C16.828,3.36 16.617,4.21 16.828,4.88 Z"/>
  <path fill="#292D32" d="M2.669,19.7 C2.429,19.7 2.189,19.58 2.049,19.37 C1.819,19.03 1.909,18.56 2.259,18.33 L7.189,15.02 C8.269,14.29 9.759,14.38 10.739,15.21 L11.069,15.5 C11.569,15.93 12.419,15.93 12.909,15.5 L17.069,11.93 C18.129,11.02 19.799,11.02 20.869,11.93 L22.499,13.33 C22.809,13.6 22.849,14.07 22.579,14.39 C22.309,14.7 21.839,14.74 21.519,14.47 L19.889,13.07 C19.389,12.64 18.539,12.64 18.039,13.07 L13.879,16.64 C12.819,17.55 11.149,17.55 10.079,16.64 L9.749,16.35 C9.289,15.96 8.529,15.92 8.019,16.27 L3.089,19.58 C2.959,19.66 2.809,19.7 2.669,19.7 Z"/>
</svg>