<svg xmlns="http://www.w3.org/2000/svg" width="24" height="24" viewBox="0 0 24 24">
  <defs/>
  <path fill="#292D32" d="M9,10.75 C7.48,10.75 6.25,9.52 6.25,8 C6.25,6.48 7.48,5.25 9,5.25 C10.52,5.25 11.75,6.48 11.75,8 C11.75,9.52 10.52,10.75 9,10.75 Z M9,6.75 C8.31,6.75 7.75,7.31 7.75,8 C7.75,8.69 8.31,9.25 9,9.25 C9.69,9.25 10.25,8.69 10.25,8 C10.25,7.31 9.69,6.75 9,6.75 Z"/>
  <path fill="#292D32" d="M15,22.75 L9,22.75 C3.57,22.75 1.25,20.43 1.25,15 L1.25,9 C1.25,3.57 3.57,1.25 9,1.25 L13,1.25 C13.41,1.25 13.75,1.59 13.75,2 C13.75,2.41 13.41,2.75 13,2.75 L9,2.75 C4.39,2.75 2.75,4.39 2.75,9 L2.75,15 C2.75,19.61 4.39,21.25 9,21.25 L15,21.25 C19.61,21.25 21.25,19.61 21.25,15 L21.25,10 C21.25,9.59 21.59,9.25 22,9.25 C22.41,9.25 22.75,9.59 22.75,10 L22.75,15 C22.75,20.43 20.43,22.75 15,22.75 Z"/>
  <path fill="#292D32" d="M15.667,9.75 C15.277,9.75 14.917,9.61 14.657,9.34 C14.347,9.03 14.197,8.57 14.267,8.1 L14.467,6.71 C14.517,6.36 14.727,5.93 14.987,5.68 L18.617,2.05 C20.067,0.6 21.327,1.43 21.947,2.05 C22.537,2.64 22.807,3.26 22.747,3.9 C22.697,4.41 22.437,4.9 21.947,5.38 L18.317,9.01 C18.067,9.26 17.637,9.47 17.287,9.53 L15.897,9.73 C15.817,9.75 15.737,9.75 15.667,9.75 Z M19.667,3.12 L16.037,6.75 C16.007,6.78 15.957,6.89 15.947,6.94 L15.757,8.24 L17.067,8.06 C17.107,8.05 17.217,8 17.257,7.96 L20.887,4.33 C21.107,4.11 21.237,3.91 21.247,3.76 C21.267,3.55 21.057,3.29 20.887,3.12 C20.367,2.6 20.127,2.66 19.667,3.12 Z"/>
  <path fill="#292D32" d="M20.9,6.13 C20.83,6.13 20.76,6.12 20.7,6.1 C19.36,5.72 18.29,4.65 17.91,3.31 C17.8,2.91 18.03,2.5 18.43,2.39 C18.83,2.28 19.24,2.51 19.35,2.91 C19.59,3.75 20.26,4.43 21.11,4.67 C21.51,4.78 21.74,5.2 21.63,5.59 C21.52,5.91 21.22,6.13 20.9,6.13 Z"/>
  <path fill="#292D32" d="M2.669,19.7 C2.429,19.7 2.189,19.58 2.049,19.37 C1.819,19.03 1.909,18.56 2.249,18.33 L7.179,15.02 C8.259,14.3 9.749,14.38 10.729,15.21 L11.059,15.5 C11.559,15.93 12.409,15.93 12.899,15.5 L17.059,11.93 C18.119,11.02 19.789,11.02 20.859,11.93 L22.489,13.33 C22.799,13.6 22.839,14.07 22.569,14.39 C22.299,14.7 21.829,14.74 21.509,14.47 L19.879,13.07 C19.379,12.64 18.529,12.64 18.039,13.07 L13.879,16.64 C12.819,17.55 11.149,17.55 10.079,16.64 L9.749,16.35 C9.289,15.96 8.529,15.92 8.019,16.27 L3.099,19.58 C2.959,19.66 2.809,19.7 2.669,19.7 Z"/>
</svg>