<svg xmlns="http://www.w3.org/2000/svg" width="24" height="24" viewBox="0 0 24 24">
  <defs/>
  <path fill="#4C4C4C" d="M12.554,8.018 C11.975,7.437 11.271,6.978 10.488,6.68 C10.118,7.091 9.866,7.591 9.761,8.134 C9.732,8.28 9.715,8.427 9.707,8.573 C9.772,8.595 9.835,8.618 9.896,8.645 C10.578,8.934 11.164,9.419 11.575,10.029 C11.904,10.516 12.123,11.081 12.197,11.693 C12.216,11.846 12.225,12.001 12.225,12.16 C12.225,12.69 12.119,13.189 11.927,13.645 C11.688,14.206 11.318,14.704 10.854,15.09 C10.755,15.173 10.651,15.251 10.544,15.323 C9.934,15.735 9.206,15.974 8.411,15.974 C7.883,15.974 7.384,15.867 6.928,15.675 C6.244,15.386 5.661,14.901 5.249,14.291 C4.838,13.682 4.599,12.953 4.599,12.16 C4.599,11.63 4.705,11.132 4.898,10.675 C5.157,10.062 5.576,9.527 6.101,9.128 C6.091,8.99 6.087,8.851 6.087,8.713 C6.087,8.002 6.199,7.308 6.411,6.652 C5.598,6.948 4.868,7.418 4.27,8.018 C3.211,9.074 2.553,10.545 2.555,12.16 C2.553,13.775 3.211,15.246 4.27,16.303 C5.153,17.187 6.323,17.789 7.625,17.964 L7.625,19.79 L4.91,19.79 L4.91,21.362 L7.625,21.362 L7.625,24 L9.198,24 L9.198,21.362 L11.914,21.362 L11.914,19.789 L9.198,19.789 L9.198,17.964 C10.5,17.789 11.672,17.187 12.554,16.303 C12.848,16.008 13.111,15.683 13.339,15.331 C13.929,14.417 14.271,13.325 14.27,12.16 C14.27,11.886 14.251,11.616 14.215,11.352 C14.036,10.057 13.433,8.895 12.554,8.018 Z"/>
  <path fill="#4C4C4C" d="M16.36,0 L16.36,1.573 L18.76,1.573 L16.28,4.053 C15.236,3.257 13.98,2.855 12.732,2.856 C11.236,2.855 9.731,3.429 8.589,4.572 C7.773,5.387 7.248,6.387 7.013,7.437 C7.01,7.45 7.009,7.463 7.005,7.474 C6.996,7.514 6.988,7.556 6.98,7.595 C6.966,7.67 6.953,7.746 6.941,7.821 C6.933,7.867 6.927,7.914 6.922,7.96 C6.912,8.029 6.904,8.099 6.899,8.17 C6.895,8.211 6.891,8.252 6.889,8.293 C6.887,8.313 6.886,8.334 6.885,8.356 C6.881,8.397 6.88,8.439 6.878,8.48 C6.875,8.557 6.873,8.636 6.873,8.713 C6.873,8.773 6.875,8.832 6.877,8.894 C6.88,8.954 6.883,9.013 6.886,9.075 L6.895,9.207 C6.895,9.229 6.899,9.251 6.9,9.274 C7.026,10.581 7.59,11.858 8.589,12.856 C9.194,13.461 9.902,13.907 10.656,14.192 C10.884,13.941 11.07,13.65 11.203,13.337 C11.341,13.008 11.42,12.661 11.436,12.302 C10.925,12.118 10.447,11.822 10.035,11.41 C9.662,11.036 9.383,10.608 9.198,10.149 C9.066,9.824 8.981,9.485 8.943,9.142 C8.919,8.939 8.913,8.735 8.923,8.532 C8.926,8.482 8.929,8.433 8.932,8.384 C8.936,8.348 8.938,8.312 8.945,8.275 C8.945,8.261 8.948,8.247 8.949,8.233 C8.953,8.198 8.957,8.162 8.963,8.128 C8.971,8.081 8.979,8.032 8.988,7.985 C9.03,7.771 9.089,7.56 9.168,7.356 C9.182,7.318 9.197,7.282 9.214,7.244 C9.229,7.205 9.247,7.165 9.265,7.126 C9.281,7.087 9.3,7.047 9.32,7.01 C9.337,6.971 9.358,6.933 9.38,6.895 C9.484,6.703 9.606,6.518 9.747,6.341 C9.775,6.305 9.805,6.269 9.835,6.234 C9.9,6.16 9.965,6.088 10.036,6.017 C10.124,5.929 10.214,5.847 10.306,5.772 C10.611,5.519 10.945,5.32 11.296,5.179 C11.983,4.9 12.739,4.83 13.461,4.97 C14.184,5.11 14.867,5.455 15.429,6.017 C15.803,6.392 16.08,6.82 16.265,7.278 C16.546,7.966 16.617,8.721 16.476,9.443 C16.335,10.165 15.989,10.849 15.429,11.41 C15.306,11.533 15.178,11.646 15.044,11.747 C15.052,11.885 15.056,12.024 15.056,12.16 C15.058,12.865 14.946,13.56 14.731,14.221 C15.514,13.937 16.248,13.481 16.874,12.856 C18.016,11.715 18.592,10.21 18.59,8.713 C18.592,7.464 18.189,6.211 17.392,5.165 L19.872,2.685 L19.872,5.086 L21.445,5.086 L21.445,0 L16.36,0 Z"/>
</svg>