<svg xmlns="http://www.w3.org/2000/svg" width="24" height="24" viewBox="0 0 24 24">
  <defs/>
  <path fill="#4C4C4C" d="M12.554,8.018 C13.433,8.896 14.035,10.058 14.215,11.352 C14.251,11.616 14.27,11.887 14.27,12.16 C14.271,13.326 13.929,14.417 13.339,15.331 C13.111,15.683 12.848,16.009 12.554,16.303 C11.672,17.187 10.5,17.789 9.198,17.964 L9.198,19.79 L11.914,19.79 L11.914,21.363 L9.198,21.363 L9.198,24 L7.625,24 L7.625,21.363 L4.91,21.363 L4.91,19.79 L7.625,19.79 L7.625,17.964 C6.323,17.789 5.153,17.187 4.27,16.303 C3.211,15.247 2.553,13.776 2.555,12.16 C2.553,10.546 3.211,9.075 4.27,8.018 C4.868,7.419 5.598,6.949 6.411,6.653 C6.199,7.309 6.087,8.002 6.087,8.713 C6.087,8.852 6.091,8.99 6.101,9.128 C5.576,9.528 5.157,10.063 4.898,10.676 C4.705,11.132 4.599,11.631 4.599,12.16 C4.599,12.953 4.838,13.683 5.249,14.292 C5.661,14.902 6.244,15.386 6.928,15.675 C7.384,15.868 7.883,15.974 8.411,15.974 C9.206,15.974 9.934,15.736 10.544,15.324 C10.651,15.251 10.755,15.174 10.854,15.09 C11.318,14.704 11.688,14.207 11.927,13.645 C12.119,13.19 12.225,12.69 12.225,12.16 C12.225,12.002 12.216,11.846 12.197,11.693 C12.123,11.082 11.904,10.517 11.575,10.029 C11.164,9.419 10.578,8.935 9.896,8.646 C9.835,8.619 9.772,8.595 9.707,8.573 C9.715,8.427 9.732,8.281 9.761,8.134 C9.866,7.592 10.118,7.092 10.488,6.681 C11.271,6.979 11.975,7.437 12.554,8.018 Z"/>
  <path fill="#4C4C4C" d="M16.362,0 L21.447,0 L21.447,5.086 L19.874,5.086 L19.874,2.685 L17.394,5.165 C18.191,6.211 18.594,7.464 18.592,8.713 C18.594,10.21 18.018,11.715 16.876,12.856 C16.25,13.481 15.516,13.937 14.733,14.221 C14.948,13.56 15.06,12.865 15.058,12.16 C15.058,12.024 15.054,11.885 15.046,11.747 C15.18,11.646 15.308,11.533 15.431,11.41 C15.991,10.849 16.337,10.165 16.478,9.443 C16.619,8.721 16.548,7.966 16.267,7.278 C16.082,6.82 15.805,6.392 15.431,6.017 C14.869,5.455 14.186,5.11 13.463,4.97 C12.741,4.83 11.985,4.9 11.298,5.179 C10.947,5.32 10.613,5.519 10.309,5.772 C10.215,5.847 10.126,5.929 10.038,6.017 C9.967,6.088 9.902,6.16 9.837,6.234 C9.807,6.269 9.777,6.305 9.749,6.341 C9.608,6.517 9.486,6.703 9.382,6.895 C9.36,6.933 9.339,6.971 9.322,7.01 C9.302,7.047 9.283,7.087 9.267,7.126 C9.249,7.165 9.231,7.205 9.216,7.244 C9.198,7.282 9.184,7.318 9.17,7.356 C9.091,7.56 9.032,7.771 8.99,7.985 C8.981,8.032 8.973,8.081 8.965,8.128 C8.959,8.162 8.955,8.198 8.951,8.233 C8.95,8.247 8.947,8.261 8.947,8.275 C8.94,8.312 8.938,8.348 8.934,8.384 C8.931,8.433 8.928,8.482 8.925,8.532 C8.915,8.735 8.921,8.939 8.945,9.142 C8.983,9.485 9.068,9.824 9.2,10.149 C9.385,10.608 9.664,11.036 10.037,11.41 C10.449,11.822 10.927,12.118 11.438,12.302 C11.422,12.66 11.343,13.008 11.205,13.337 C11.072,13.65 10.886,13.941 10.658,14.192 C9.904,13.907 9.196,13.461 8.591,12.856 C7.592,11.858 7.028,10.581 6.902,9.274 C6.901,9.251 6.897,9.229 6.897,9.207 L6.888,9.075 C6.885,9.013 6.881,8.954 6.879,8.894 C6.877,8.832 6.875,8.773 6.875,8.713 C6.875,8.636 6.877,8.557 6.88,8.48 C6.881,8.439 6.883,8.397 6.886,8.356 C6.888,8.334 6.889,8.313 6.891,8.293 C6.893,8.252 6.897,8.211 6.901,8.17 C6.906,8.099 6.914,8.029 6.924,7.96 C6.929,7.914 6.935,7.867 6.943,7.821 C6.955,7.746 6.968,7.67 6.982,7.595 C6.99,7.556 6.998,7.514 7.007,7.474 C7.011,7.463 7.012,7.45 7.015,7.437 C7.25,6.387 7.775,5.387 8.591,4.572 C9.733,3.429 11.238,2.855 12.734,2.856 C13.982,2.855 15.238,3.257 16.282,4.053 L18.762,1.573 L16.362,1.573 Z"/>
</svg>