<svg xmlns="http://www.w3.org/2000/svg" width="24" height="24" viewBox="0 0 24 24">
  <defs/>
  <path fill="#292D32" d="M12,22.75 C6.07,22.75 1.25,17.93 1.25,12 C1.25,6.07 6.07,1.25 12,1.25 C17.93,1.25 22.75,6.07 22.75,12 C22.75,12.41 22.41,12.75 22,12.75 C21.59,12.75 21.25,12.41 21.25,12 C21.25,6.9 17.1,2.75 12,2.75 C6.9,2.75 2.75,6.9 2.75,12 C2.75,17.1 6.9,21.25 12,21.25 C12.41,21.25 12.75,21.59 12.75,22 C12.75,22.41 12.41,22.75 12,22.75 Z"/>
  <path fill="#292D32" d="M9.002,21.75 L8.002,21.75 C7.592,21.75 7.252,21.41 7.252,21 C7.252,20.59 7.572,20.26 7.982,20.25 C6.412,14.89 6.412,9.11 7.982,3.75 C7.582,3.74 7.252,3.41 7.252,3 C7.252,2.59 7.592,2.25 8.002,2.25 L9.002,2.25 C9.242,2.25 9.472,2.37 9.612,2.56 C9.752,2.76 9.792,3.01 9.712,3.24 C7.832,8.89 7.832,15.12 9.712,20.77 C9.792,21 9.752,21.25 9.612,21.45 C9.472,21.65 9.242,21.75 9.002,21.75 Z"/>
  <path fill="#292D32" d="M16.459,12.75 C16.049,12.75 15.709,12.41 15.709,12 C15.709,9.02 15.229,6.07 14.289,3.24 C14.159,2.85 14.368,2.42 14.758,2.29 C15.149,2.16 15.579,2.37 15.709,2.76 C16.698,5.74 17.209,8.85 17.209,12 C17.209,12.41 16.869,12.75 16.459,12.75 Z"/>
  <path fill="#292D32" d="M12,17.21 C9.2,17.21 6.43,16.81 3.75,16.02 C3.74,16.42 3.41,16.75 3,16.75 C2.59,16.75 2.25,16.41 2.25,16 L2.25,15 C2.25,14.76 2.37,14.53 2.56,14.39 C2.76,14.25 3.01,14.21 3.24,14.29 C6.07,15.23 9.02,15.71 12,15.71 C12.41,15.71 12.75,16.05 12.75,16.46 C12.75,16.87 12.41,17.21 12,17.21 Z"/>
  <path fill="#292D32" d="M21.001,9.75 C20.921,9.75 20.841,9.74 20.761,9.71 C15.111,7.83 8.881,7.83 3.231,9.71 C2.841,9.84 2.411,9.63 2.281,9.24 C2.151,8.85 2.361,8.42 2.751,8.29 C8.711,6.3 15.271,6.3 21.221,8.29 C21.611,8.42 21.821,8.85 21.691,9.24 C21.611,9.55 21.311,9.75 21.001,9.75 Z"/>
  <path fill="#292D32" d="M18.2,22.15 C16.02,22.15 14.25,20.38 14.25,18.2 C14.25,16.02 16.02,14.25 18.2,14.25 C20.38,14.25 22.15,16.02 22.15,18.2 C22.15,20.38 20.38,22.15 18.2,22.15 Z M18.2,15.75 C16.85,15.75 15.75,16.85 15.75,18.2 C15.75,19.55 16.85,20.65 18.2,20.65 C19.55,20.65 20.65,19.55 20.65,18.2 C20.65,16.85 19.55,15.75 18.2,15.75 Z"/>
  <path fill="#292D32" d="M21.997,22.75 C21.808,22.75 21.617,22.68 21.468,22.53 L20.468,21.53 C20.177,21.24 20.177,20.76 20.468,20.47 C20.758,20.18 21.238,20.18 21.527,20.47 L22.527,21.47 C22.817,21.76 22.817,22.24 22.527,22.53 C22.378,22.68 22.188,22.75 21.997,22.75 Z"/>
</svg>