<svg xmlns="http://www.w3.org/2000/svg" width="24" height="24" viewBox="0 0 24 24">
  <defs/>
  <path fill="#292D32" d="M12,22.75 C6.07,22.75 1.25,17.93 1.25,12 C1.25,6.07 6.07,1.25 12,1.25 C17.93,1.25 22.75,6.07 22.75,12 C22.75,12.41 22.41,12.75 22,12.75 C21.59,12.75 21.25,12.41 21.25,12 C21.25,6.9 17.1,2.75 12,2.75 C6.9,2.75 2.75,6.9 2.75,12 C2.75,17.1 6.9,21.25 12,21.25 C12.41,21.25 12.75,21.59 12.75,22 C12.75,22.41 12.41,22.75 12,22.75 Z"/>
  <path fill="#292D32" d="M9.002,21.75 L8.002,21.75 C7.592,21.75 7.252,21.41 7.252,21 C7.252,20.59 7.572,20.26 7.982,20.25 C6.412,14.89 6.412,9.11 7.982,3.75 C7.582,3.74 7.252,3.41 7.252,3 C7.252,2.59 7.592,2.25 8.002,2.25 L9.002,2.25 C9.242,2.25 9.472,2.37 9.612,2.56 C9.752,2.76 9.792,3.01 9.712,3.24 C7.832,8.89 7.832,15.12 9.712,20.77 C9.792,21 9.752,21.25 9.612,21.45 C9.472,21.65 9.242,21.75 9.002,21.75 Z"/>
  <path fill="#292D32" d="M16.459,12.75 C16.049,12.75 15.709,12.41 15.709,12 C15.709,9.02 15.229,6.07 14.289,3.24 C14.159,2.85 14.368,2.42 14.758,2.29 C15.149,2.16 15.579,2.37 15.709,2.76 C16.698,5.74 17.209,8.85 17.209,12 C17.209,12.41 16.869,12.75 16.459,12.75 Z"/>
  <path fill="#292D32" d="M12,17.21 C9.2,17.21 6.43,16.81 3.75,16.02 C3.74,16.42 3.41,16.75 3,16.75 C2.59,16.75 2.25,16.41 2.25,16 L2.25,15 C2.25,14.76 2.37,14.53 2.56,14.39 C2.75,14.25 3.01,14.21 3.24,14.29 C6.07,15.23 9.02,15.71 12,15.71 C12.41,15.71 12.75,16.05 12.75,16.46 C12.75,16.87 12.41,17.21 12,17.21 Z"/>
  <path fill="#292D32" d="M21.001,9.75 C20.921,9.75 20.841,9.74 20.761,9.71 C15.111,7.83 8.881,7.83 3.231,9.71 C2.841,9.84 2.411,9.63 2.281,9.24 C2.151,8.85 2.361,8.42 2.751,8.29 C8.711,6.3 15.271,6.3 21.221,8.29 C21.611,8.42 21.821,8.85 21.691,9.24 C21.611,9.55 21.311,9.75 21.001,9.75 Z"/>
  <path fill="#292D32" d="M18.264,22.75 C15.784,22.75 13.773,20.73 13.773,18.26 C13.773,15.79 15.793,13.76 18.264,13.76 C18.764,13.76 19.264,13.83 19.733,13.98 C20.134,14.1 20.354,14.52 20.233,14.92 C20.113,15.32 19.694,15.54 19.294,15.42 C18.963,15.32 18.613,15.27 18.264,15.27 C16.613,15.27 15.273,16.61 15.273,18.27 C15.273,19.93 16.613,21.26 18.264,21.26 C19.913,21.26 21.253,19.92 21.253,18.27 C21.253,17.67 21.083,17.1 20.753,16.61 C20.523,16.27 20.613,15.8 20.963,15.57 C21.303,15.34 21.773,15.43 22.003,15.78 C22.503,16.52 22.764,17.39 22.764,18.28 C22.753,20.73 20.733,22.75 18.264,22.75 Z"/>
  <path fill="#292D32" d="M20.043,15.55 C19.833,15.55 19.623,15.46 19.473,15.29 L18.223,13.86 C17.953,13.55 17.983,13.07 18.293,12.8 C18.603,12.53 19.073,12.56 19.353,12.87 L20.603,14.3 C20.873,14.61 20.843,15.09 20.533,15.36 C20.393,15.49 20.223,15.55 20.043,15.55 Z"/>
  <path fill="#292D32" d="M18.581,16.61 C18.351,16.61 18.12,16.5 17.971,16.3 C17.73,15.97 17.8,15.5 18.131,15.25 L19.59,14.19 C19.921,13.94 20.39,14.02 20.64,14.35 C20.881,14.68 20.811,15.15 20.48,15.4 L19.02,16.46 C18.89,16.56 18.741,16.61 18.581,16.61 Z"/>
</svg>