<svg xmlns="http://www.w3.org/2000/svg" width="24" height="24" viewBox="0 0 24 24">
  <defs/>
  <path fill="#292D32" d="M12,22.75 C6.07,22.75 1.25,17.93 1.25,12 C1.25,6.07 6.07,1.25 12,1.25 C17.93,1.25 22.75,6.07 22.75,12 C22.75,17.93 17.93,22.75 12,22.75 Z M12,2.75 C6.9,2.75 2.75,6.9 2.75,12 C2.75,17.1 6.9,21.25 12,21.25 C17.1,21.25 21.25,17.1 21.25,12 C21.25,6.9 17.1,2.75 12,2.75 Z"/>
  <path fill="#292D32" d="M9.002,21.75 L8.002,21.75 C7.592,21.75 7.252,21.41 7.252,21 C7.252,20.59 7.572,20.26 7.982,20.25 C6.412,14.89 6.412,9.11 7.982,3.75 C7.572,3.74 7.252,3.41 7.252,3 C7.252,2.59 7.592,2.25 8.002,2.25 L9.002,2.25 C9.242,2.25 9.472,2.37 9.612,2.56 C9.752,2.76 9.792,3.01 9.712,3.24 C7.832,8.89 7.832,15.11 9.712,20.77 C9.792,21 9.752,21.25 9.612,21.45 C9.472,21.63 9.242,21.75 9.002,21.75 Z"/>
  <path fill="#292D32" d="M15.002,21.75 C14.922,21.75 14.842,21.74 14.762,21.71 C14.372,21.58 14.152,21.15 14.292,20.76 C16.172,15.11 16.172,8.89 14.292,3.23 C14.162,2.84 14.372,2.41 14.762,2.28 C15.162,2.15 15.582,2.36 15.712,2.75 C17.702,8.71 17.702,15.27 15.712,21.22 C15.612,21.55 15.312,21.75 15.002,21.75 Z"/>
  <path fill="#292D32" d="M12,17.2 C9.21,17.2 6.43,16.81 3.75,16.02 C3.74,16.42 3.41,16.75 3,16.75 C2.59,16.75 2.25,16.41 2.25,16 L2.25,15 C2.25,14.76 2.37,14.53 2.56,14.39 C2.76,14.25 3.01,14.21 3.24,14.29 C8.89,16.17 15.12,16.17 20.77,14.29 C21,14.21 21.25,14.25 21.45,14.39 C21.65,14.53 21.76,14.76 21.76,15 L21.76,16 C21.76,16.41 21.42,16.75 21.01,16.75 C20.6,16.75 20.27,16.43 20.26,16.02 C17.57,16.81 14.79,17.2 12,17.2 Z"/>
  <path fill="#292D32" d="M21.004,9.75 C20.924,9.75 20.844,9.74 20.764,9.71 C15.114,7.83 8.884,7.83 3.234,9.71 C2.834,9.84 2.414,9.63 2.284,9.24 C2.164,8.84 2.374,8.42 2.764,8.29 C8.724,6.3 15.284,6.3 21.234,8.29 C21.624,8.42 21.844,8.85 21.704,9.24 C21.614,9.55 21.314,9.75 21.004,9.75 Z"/>
</svg>