<svg xmlns="http://www.w3.org/2000/svg" width="24" height="24" viewBox="0 0 24 24">
  <defs/>
  <path fill="#292D32" d="M10,22.75 L9,22.75 C3.57,22.75 1.25,20.43 1.25,15 L1.25,9 C1.25,3.57 3.57,1.25 9,1.25 L15,1.25 C20.43,1.25 22.75,3.57 22.75,9 L22.75,11 C22.75,11.41 22.41,11.75 22,11.75 C21.59,11.75 21.25,11.41 21.25,11 L21.25,9 C21.25,4.39 19.61,2.75 15,2.75 L9,2.75 C4.39,2.75 2.75,4.39 2.75,9 L2.75,15 C2.75,19.61 4.39,21.25 9,21.25 L10,21.25 C10.41,21.25 10.75,21.59 10.75,22 C10.75,22.41 10.41,22.75 10,22.75 Z"/>
  <path fill="#292D32" d="M22.001,9.25 L2.031,9.25 C1.621,9.25 1.281,8.91 1.281,8.5 C1.281,8.09 1.621,7.75 2.031,7.75 L22.001,7.75 C22.411,7.75 22.751,8.09 22.751,8.5 C22.751,8.91 22.411,9.25 22.001,9.25 Z"/>
  <path fill="#292D32" d="M12.001,16.25 L2.031,16.25 C1.621,16.25 1.281,15.91 1.281,15.5 C1.281,15.09 1.621,14.75 2.031,14.75 L12.001,14.75 C12.411,14.75 12.751,15.09 12.751,15.5 C12.751,15.91 12.411,16.25 12.001,16.25 Z"/>
  <path fill="#292D32" d="M8.508,22.74 C8.098,22.74 7.758,22.4 7.758,21.99 L7.758,2.02 C7.758,1.61 8.098,1.27 8.508,1.27 C8.918,1.27 9.258,1.61 9.258,2.02 L9.258,21.99 C9.258,22.4 8.928,22.74 8.508,22.74 Z"/>
  <path fill="#292D32" d="M15.508,12.74 C15.098,12.74 14.758,12.4 14.758,11.99 L14.758,2.02 C14.758,1.61 15.098,1.27 15.508,1.27 C15.918,1.27 16.258,1.61 16.258,2.02 L16.258,11.99 C16.258,12.4 15.928,12.74 15.508,12.74 Z"/>
  <path fill="#292D32" d="M14.761,22.75 C14.341,22.75 13.961,22.6 13.681,22.32 C13.341,21.99 13.191,21.5 13.271,20.99 L13.501,19.4 C13.551,19.02 13.781,18.56 14.061,18.28 L18.211,14.13 C18.751,13.59 19.281,13.31 19.841,13.25 C20.531,13.18 21.221,13.48 21.871,14.13 C22.521,14.78 22.821,15.46 22.751,16.16 C22.701,16.72 22.411,17.25 21.871,17.79 L17.721,21.94 C17.451,22.21 16.991,22.44 16.601,22.5 L15.021,22.73 C14.931,22.74 14.841,22.75 14.761,22.75 Z M20.021,14.75 C20.011,14.75 19.991,14.75 19.981,14.75 C19.781,14.77 19.541,14.92 19.261,15.2 L15.111,19.35 C15.061,19.4 14.991,19.55 14.981,19.62 L14.751,21.21 L16.381,21.03 C16.451,21.02 16.601,20.94 16.651,20.9 L20.801,16.75 C21.081,16.47 21.231,16.23 21.251,16.03 C21.271,15.8 21.121,15.53 20.801,15.21 C20.501,14.9 20.241,14.75 20.021,14.75 Z"/>
  <path fill="#292D32" d="M20.738,18.61 C20.668,18.61 20.608,18.6 20.538,18.58 C19.038,18.16 17.838,16.96 17.418,15.46 C17.308,15.06 17.538,14.65 17.938,14.54 C18.348,14.43 18.748,14.66 18.858,15.06 C19.138,16.06 19.938,16.86 20.938,17.14 C21.338,17.25 21.568,17.67 21.458,18.06 C21.368,18.4 21.058,18.61 20.738,18.61 Z"/>
</svg>