<svg xmlns="http://www.w3.org/2000/svg" width="24" height="24" viewBox="0 0 24 24">
  <defs/>
  <path fill="#292D32" d="M15,22.75 L9,22.75 C3.57,22.75 1.25,20.43 1.25,15 L1.25,9 C1.25,3.57 3.57,1.25 9,1.25 L15,1.25 C20.43,1.25 22.75,3.57 22.75,9 L22.75,15 C22.75,20.43 20.43,22.75 15,22.75 Z M9,2.75 C4.39,2.75 2.75,4.39 2.75,9 L2.75,15 C2.75,19.61 4.39,21.25 9,21.25 L15,21.25 C19.61,21.25 21.25,19.61 21.25,15 L21.25,9 C21.25,4.39 19.61,2.75 15,2.75 L9,2.75 Z"/>
  <path fill="#292D32" d="M22.001,9.25 L2.031,9.25 C1.621,9.25 1.281,8.91 1.281,8.5 C1.281,8.09 1.621,7.75 2.031,7.75 L22.001,7.75 C22.411,7.75 22.751,8.09 22.751,8.5 C22.751,8.91 22.411,9.25 22.001,9.25 Z"/>
  <path fill="#292D32" d="M22.001,16.25 L2.031,16.25 C1.621,16.25 1.281,15.91 1.281,15.5 C1.281,15.09 1.621,14.75 2.031,14.75 L22.001,14.75 C22.411,14.75 22.751,15.09 22.751,15.5 C22.751,15.91 22.411,16.25 22.001,16.25 Z"/>
  <path fill="#292D32" d="M8.508,22.74 C8.098,22.74 7.758,22.4 7.758,21.99 L7.758,2.01 C7.758,1.6 8.098,1.26 8.508,1.26 C8.918,1.26 9.258,1.6 9.258,2.01 L9.258,21.98 C9.258,22.4 8.928,22.74 8.508,22.74 Z"/>
  <path fill="#292D32" d="M15.508,22.74 C15.098,22.74 14.758,22.4 14.758,21.99 L14.758,2.01 C14.758,1.6 15.098,1.26 15.508,1.26 C15.918,1.26 16.258,1.6 16.258,2.01 L16.258,21.98 C16.258,22.4 15.928,22.74 15.508,22.74 Z"/>
</svg>