<svg xmlns="http://www.w3.org/2000/svg" width="24" height="24" viewBox="0 0 24 24">
  <defs/>
  <path fill="#292D32" d="M10,22.75 L9,22.75 C3.57,22.75 1.25,20.43 1.25,15 L1.25,9 C1.25,3.57 3.57,1.25 9,1.25 L15,1.25 C20.43,1.25 22.75,3.57 22.75,9 L22.75,11 C22.75,11.41 22.41,11.75 22,11.75 C21.59,11.75 21.25,11.41 21.25,11 L21.25,9 C21.25,4.39 19.61,2.75 15,2.75 L9,2.75 C4.39,2.75 2.75,4.39 2.75,9 L2.75,15 C2.75,19.61 4.39,21.25 9,21.25 L10,21.25 C10.41,21.25 10.75,21.59 10.75,22 C10.75,22.41 10.41,22.75 10,22.75 Z"/>
  <path fill="#292D32" d="M22.001,9.25 L2.031,9.25 C1.621,9.25 1.281,8.91 1.281,8.5 C1.281,8.09 1.621,7.75 2.031,7.75 L22.001,7.75 C22.411,7.75 22.751,8.09 22.751,8.5 C22.751,8.91 22.411,9.25 22.001,9.25 Z"/>
  <path fill="#292D32" d="M12.001,16.25 L2.031,16.25 C1.621,16.25 1.281,15.91 1.281,15.5 C1.281,15.09 1.621,14.75 2.031,14.75 L12.001,14.75 C12.411,14.75 12.751,15.09 12.751,15.5 C12.751,15.91 12.411,16.25 12.001,16.25 Z"/>
  <path fill="#292D32" d="M8.508,22.74 C8.098,22.74 7.758,22.4 7.758,21.99 L7.758,2.02 C7.758,1.61 8.098,1.27 8.508,1.27 C8.918,1.27 9.258,1.61 9.258,2.02 L9.258,21.99 C9.258,22.4 8.928,22.74 8.508,22.74 Z"/>
  <path fill="#292D32" d="M15.508,12.74 C15.098,12.74 14.758,12.4 14.758,11.99 L14.758,2.02 C14.758,1.61 15.098,1.27 15.508,1.27 C15.918,1.27 16.258,1.61 16.258,2.02 L16.258,11.99 C16.258,12.4 15.928,12.74 15.508,12.74 Z"/>
  <path fill="#292D32" d="M15.953,22.75 C15.413,22.75 14.883,22.55 14.463,22.14 L12.873,20.54 C12.063,19.73 12.063,18.4 12.873,17.57 L14.783,15.67 C15.073,15.38 15.553,15.38 15.843,15.67 L19.343,19.17 C19.483,19.31 19.563,19.5 19.563,19.7 C19.563,19.9 19.483,20.09 19.343,20.23 L17.443,22.13 C17.023,22.54 16.493,22.75 15.953,22.75 Z M15.303,17.27 L13.933,18.64 C13.703,18.87 13.703,19.26 13.933,19.49 L15.513,21.08 C15.743,21.31 16.133,21.31 16.363,21.08 L17.743,19.71 L15.303,17.27 Z"/>
  <path fill="#292D32" d="M18.802,20.45 C18.602,20.45 18.412,20.37 18.272,20.23 L14.772,16.73 C14.482,16.44 14.482,15.96 14.772,15.67 L17.582,12.85 C18.402,12.03 19.742,12.03 20.562,12.85 L22.142,14.44 C22.532,14.83 22.752,15.36 22.752,15.93 C22.752,16.5 22.532,17.02 22.142,17.42 L19.342,20.23 C19.192,20.38 19.002,20.45 18.802,20.45 Z M16.372,16.21 L18.812,18.65 L21.082,16.37 C21.192,16.26 21.252,16.11 21.252,15.94 C21.252,15.78 21.192,15.62 21.082,15.51 L19.502,13.92 C19.272,13.69 18.882,13.69 18.652,13.92 L16.372,16.21 Z"/>
</svg>