<svg xmlns="http://www.w3.org/2000/svg" width="24" height="24" viewBox="0 0 24 24">
  <defs/>
  <path fill="#292D32" d="M10,22.75 L9,22.75 C3.57,22.75 1.25,20.43 1.25,15 L1.25,9 C1.25,3.57 3.57,1.25 9,1.25 L15,1.25 C20.43,1.25 22.75,3.57 22.75,9 L22.75,11 C22.75,11.41 22.41,11.75 22,11.75 C21.59,11.75 21.25,11.41 21.25,11 L21.25,9 C21.25,4.39 19.61,2.75 15,2.75 L9,2.75 C4.39,2.75 2.75,4.39 2.75,9 L2.75,15 C2.75,19.61 4.39,21.25 9,21.25 L10,21.25 C10.41,21.25 10.75,21.59 10.75,22 C10.75,22.41 10.41,22.75 10,22.75 Z"/>
  <path fill="#292D32" d="M22.001,9.25 L2.031,9.25 C1.621,9.25 1.281,8.91 1.281,8.5 C1.281,8.09 1.621,7.75 2.031,7.75 L22.001,7.75 C22.411,7.75 22.751,8.09 22.751,8.5 C22.751,8.91 22.411,9.25 22.001,9.25 Z"/>
  <path fill="#292D32" d="M12.001,16.25 L2.031,16.25 C1.621,16.25 1.281,15.91 1.281,15.5 C1.281,15.09 1.621,14.75 2.031,14.75 L12.001,14.75 C12.411,14.75 12.751,15.09 12.751,15.5 C12.751,15.91 12.411,16.25 12.001,16.25 Z"/>
  <path fill="#292D32" d="M8.508,22.74 C8.098,22.74 7.758,22.4 7.758,21.99 L7.758,2.02 C7.758,1.61 8.098,1.27 8.508,1.27 C8.918,1.27 9.258,1.61 9.258,2.02 L9.258,21.99 C9.258,22.4 8.928,22.74 8.508,22.74 Z"/>
  <path fill="#292D32" d="M15.508,12.74 C15.098,12.74 14.758,12.4 14.758,11.99 L14.758,2.02 C14.758,1.61 15.098,1.27 15.508,1.27 C15.918,1.27 16.258,1.61 16.258,2.02 L16.258,11.99 C16.258,12.4 15.928,12.74 15.508,12.74 Z"/>
  <path fill="#292D32" d="M20.402,17.95 C19.992,17.95 19.652,17.61 19.652,17.2 L19.652,16.4 C19.652,15.28 19.402,14.75 18.002,14.75 C16.602,14.75 16.352,15.28 16.352,16.4 L16.352,17.2 C16.352,17.61 16.012,17.95 15.602,17.95 C15.192,17.95 14.852,17.61 14.852,17.2 L14.852,16.4 C14.852,14.31 15.912,13.25 18.002,13.25 C20.092,13.25 21.152,14.31 21.152,16.4 L21.152,17.2 C21.152,17.61 20.812,17.95 20.402,17.95 Z"/>
  <path fill="#292D32" d="M20,22.75 L16,22.75 C14,22.75 13.25,22 13.25,20 L13.25,19.2 C13.25,17.2 14,16.45 16,16.45 L20,16.45 C22,16.45 22.75,17.2 22.75,19.2 L22.75,20 C22.75,22 22,22.75 20,22.75 Z M16,17.95 C14.81,17.95 14.75,18.01 14.75,19.2 L14.75,20 C14.75,21.18 14.82,21.25 16,21.25 L20,21.25 C21.18,21.25 21.25,21.18 21.25,20 L21.25,19.2 C21.25,18.01 21.19,17.95 20,17.95 L16,17.95 Z"/>
</svg>