<svg xmlns="http://www.w3.org/2000/svg" width="24" height="24" viewBox="0 0 24 24">
  <defs/>
  <path fill="#292D32" d="M11.969,22.75 C6.049,22.75 1.219,17.93 1.219,12 C1.219,6.07 6.049,1.25 11.969,1.25 C17.889,1.25 22.719,6.07 22.719,12 C22.719,17.93 17.899,22.75 11.969,22.75 Z M11.969,2.75 C6.869,2.75 2.719,6.9 2.719,12 C2.719,17.1 6.869,21.25 11.969,21.25 C17.069,21.25 21.219,17.1 21.219,12 C21.219,6.9 17.069,2.75 11.969,2.75 Z"/>
  <path fill="#292D32" d="M12.004,19.25 C9.854,19.25 7.834,18.2 6.604,16.43 C6.364,16.09 6.454,15.62 6.794,15.39 C7.134,15.15 7.604,15.24 7.834,15.58 C8.784,16.94 10.344,17.76 12.004,17.76 C13.664,17.76 15.224,16.95 16.174,15.58 C16.414,15.24 16.874,15.16 17.214,15.39 C17.554,15.63 17.634,16.09 17.404,16.43 C16.174,18.2 14.154,19.25 12.004,19.25 Z"/>
</svg>