<svg xmlns="http://www.w3.org/2000/svg" width="24" height="24" viewBox="0 0 24 24">
  <defs/>
  <path fill="#4C4C4C" d="M11.13,21.517 Q7.875,20.406 5.066,17.527 Q1.25,13.618 1.25,8.69 Q1.25,6.063 3.097,4.207 Q4.945,2.35 7.56,2.35 Q10.235,2.35 12,4.179 Q13.765,2.35 16.44,2.35 Q19.055,2.35 20.903,4.207 Q22.75,6.063 22.75,8.69 Q22.75,13.618 18.934,17.527 Q16.126,20.404 12.866,21.518 Q11.998,21.823 11.13,21.517 Z M12.378,20.1 Q15.302,19.102 17.861,16.48 Q21.25,13.007 21.25,8.69 Q21.25,6.682 19.84,5.265 Q18.431,3.85 16.44,3.85 Q14.041,3.85 12.602,5.787 Q12.536,5.876 12.447,5.942 Q12.198,6.127 11.89,6.082 Q11.583,6.036 11.398,5.787 Q9.959,3.85 7.56,3.85 Q5.569,3.85 4.16,5.265 Q2.75,6.682 2.75,8.69 Q2.75,13.007 6.139,16.48 Q8.698,19.102 11.63,20.102 Q12,20.233 12.37,20.102 Z"/>
</svg>