<svg xmlns="http://www.w3.org/2000/svg" width="24" height="24" viewBox="0 0 24 24">
  <defs/>
  <path fill="#4C4C4C" d="M5,22 C3.343,22 2,20.657 2,19 L2,11.336 C2,10.486 2.361,9.675 2.993,9.106 L9.993,2.806 C11.134,1.779 12.866,1.779 14.007,2.806 L21.007,9.106 C21.639,9.675 22,10.486 22,11.336 L22,19 C22,20.657 20.657,22 19,22 Z M20,11.336 C20,11.053 19.88,10.783 19.669,10.593 L12.669,4.293 C12.289,3.951 11.711,3.951 11.331,4.293 L4.331,10.593 C4.12,10.783 4,11.053 4,11.336 L4,19 C4,19.552 4.448,20 5,20 L8,20 L8,15 C8,13.343 9.343,12 11,12 L13,12 C14.657,12 16,13.343 16,15 L16,20 L19,20 C19.552,20 20,19.552 20,19 Z M10,20 L14,20 L14,15 C14,14.448 13.552,14 13,14 L11,14 C10.448,14 10,14.448 10,15 Z"/>
</svg>