<svg xmlns="http://www.w3.org/2000/svg" width="24" height="24" viewBox="0 0 24 24">
  <defs/>
  <path fill="#4C4C4C" d="M5.147,11.122 L10.29,11.122 L10.29,12.836 L5.147,12.836 L5.147,11.122 Z"/>
  <path fill="#4C4C4C" d="M4.282,8.566 L18.008,8.566 L18.008,11.915 L19.722,11.915 L19.722,3.394 C19.722,2.458 18.96,1.695 18.024,1.695 L17.383,1.695 C16.698,1.695 16.092,2.087 15.838,2.694 C15.705,3.013 15.186,3.013 15.052,2.694 C14.797,2.087 14.192,1.695 13.508,1.695 L13.082,1.695 C12.399,1.695 11.793,2.087 11.538,2.694 C11.404,3.013 10.886,3.013 10.752,2.694 C10.497,2.087 9.891,1.695 9.208,1.695 L8.799,1.695 C8.114,1.695 7.508,2.087 7.255,2.694 C7.121,3.013 6.602,3.013 6.468,2.694 C6.214,2.087 5.608,1.695 4.924,1.695 L4.278,1.695 C3.341,1.695 2.579,2.458 2.579,3.394 L2.579,22.264 L11.982,22.264 L11.982,20.55 L4.293,20.55 L4.282,8.566 Z M4.887,3.356 C5.222,4.155 5.997,4.671 6.862,4.671 C7.726,4.671 8.501,4.155 8.799,3.41 L9.171,3.357 C9.506,4.155 10.281,4.671 11.145,4.671 C12.009,4.671 12.784,4.155 13.082,3.41 L13.471,3.356 C13.805,4.155 14.58,4.671 15.445,4.671 C16.31,4.671 17.085,4.155 17.383,3.41 L18.008,3.394 L18.008,6.851 L4.281,6.851 L4.278,3.41 L4.887,3.356 Z"/>
  <path fill="#4C4C4C" d="M19.703,18.858 L18.822,16.781 C19.114,16.415 19.29,15.95 19.29,15.445 C19.29,14.261 18.33,13.302 17.147,13.302 C15.963,13.302 15.004,14.261 15.004,15.445 C15.004,15.952 15.18,16.418 15.474,16.784 L14.595,18.858 L12.854,18.858 L12.854,22.288 L21.425,22.288 L21.425,18.858 L19.703,18.858 Z M17.147,14.588 C17.619,14.588 18.004,14.972 18.004,15.445 C18.004,15.917 17.619,16.302 17.147,16.302 C16.674,16.302 16.29,15.917 16.29,15.445 C16.29,14.972 16.674,14.588 17.147,14.588 Z M16.564,17.507 C16.754,17.561 16.95,17.588 17.147,17.587 C17.35,17.587 17.547,17.559 17.733,17.506 L18.306,18.858 L15.991,18.858 L16.564,17.507 Z M20.14,21.003 L14.139,21.003 L14.139,20.144 L20.14,20.144 L20.14,21.003 Z"/>
</svg>