<svg xmlns="http://www.w3.org/2000/svg" width="24" height="24" viewBox="0 0 24 24">
  <defs/>
  <path fill="#292D32" d="M15.257,22.25 L8.737,22.25 C3.827,22.25 1.727,20.15 1.727,15.24 L1.727,15.11 C1.727,10.67 3.477,8.53 7.397,8.16 C7.797,8.13 8.177,8.43 8.217,8.84 C8.257,9.25 7.957,9.62 7.537,9.66 C4.397,9.95 3.227,11.43 3.227,15.12 L3.227,15.25 C3.227,19.32 4.667,20.76 8.737,20.76 L15.257,20.76 C19.327,20.76 20.767,19.32 20.767,15.25 L20.767,15.12 C20.767,11.41 19.577,9.93 16.377,9.66 C15.967,9.62 15.657,9.26 15.697,8.85 C15.737,8.44 16.087,8.13 16.507,8.17 C20.487,8.51 22.267,10.66 22.267,15.13 L22.267,15.26 C22.267,20.15 20.167,22.25 15.257,22.25 Z"/>
  <path fill="#292D32" d="M12,15.63 C11.59,15.63 11.25,15.29 11.25,14.88 L11.25,2 C11.25,1.59 11.59,1.25 12,1.25 C12.41,1.25 12.75,1.59 12.75,2 L12.75,14.88 C12.75,15.3 12.41,15.63 12,15.63 Z"/>
  <path fill="#292D32" d="M12.004,16.75 C11.814,16.75 11.624,16.68 11.474,16.53 L8.124,13.18 C7.834,12.89 7.834,12.41 8.124,12.12 C8.414,11.83 8.894,11.83 9.184,12.12 L12.004,14.94 L14.824,12.12 C15.114,11.83 15.594,11.83 15.884,12.12 C16.174,12.41 16.174,12.89 15.884,13.18 L12.534,16.53 C12.384,16.68 12.194,16.75 12.004,16.75 Z"/>
</svg>