<svg xmlns="http://www.w3.org/2000/svg" width="24" height="24" viewBox="0 0 24 24">
  <defs/>
  <path fill="#292D32" d="M11.878,14.99 C11.688,14.99 11.498,14.92 11.348,14.77 L8.788,12.21 C8.498,11.92 8.498,11.44 8.788,11.15 C9.078,10.86 9.558,10.86 9.848,11.15 L11.878,13.18 L13.908,11.15 C14.198,10.86 14.678,10.86 14.968,11.15 C15.258,11.44 15.258,11.92 14.968,12.21 L12.408,14.77 C12.258,14.92 12.068,14.99 11.878,14.99 Z"/>
  <path fill="#292D32" d="M11.883,14.92 C11.473,14.92 11.133,14.58 11.133,14.17 L11.133,4 C11.133,3.59 11.473,3.25 11.883,3.25 C12.293,3.25 12.633,3.59 12.633,4 L12.633,14.17 C12.633,14.58 12.293,14.92 11.883,14.92 Z"/>
  <path fill="#292D32" d="M12,20.93 C6.85,20.93 3.25,17.33 3.25,12.18 C3.25,11.77 3.59,11.43 4,11.43 C4.41,11.43 4.75,11.77 4.75,12.18 C4.75,16.45 7.73,19.43 12,19.43 C16.27,19.43 19.25,16.45 19.25,12.18 C19.25,11.77 19.59,11.43 20,11.43 C20.41,11.43 20.75,11.77 20.75,12.18 C20.75,17.33 17.15,20.93 12,20.93 Z"/>
</svg>