<svg xmlns="http://www.w3.org/2000/svg" width="24" height="24" viewBox="0 0 24 24">
  <defs/>
  <path fill="#292D32" d="M12.007,22.74 C11.377,22.74 10.757,22.53 10.267,22.11 L8.687,20.76 C8.527,20.62 8.127,20.48 7.917,20.48 L6.167,20.48 C4.687,20.48 3.487,19.28 3.487,17.8 L3.487,16.09 C3.487,15.88 3.347,15.48 3.217,15.33 L1.857,13.73 C1.037,12.76 1.037,11.24 1.857,10.26 L3.217,8.66 C3.347,8.51 3.487,8.11 3.487,7.9 L3.487,6.2 C3.487,4.72 4.687,3.52 6.167,3.52 L7.897,3.52 C8.107,3.52 8.497,3.37 8.667,3.23 L10.247,1.88 C11.227,1.05 12.757,1.05 13.737,1.88 L15.317,3.23 C15.477,3.37 15.887,3.51 16.097,3.51 L17.797,3.51 C19.277,3.51 20.477,4.71 20.477,6.19 L20.477,7.89 C20.477,8.1 20.627,8.49 20.767,8.66 L22.117,10.24 C22.957,11.23 22.947,12.76 22.117,13.73 L20.767,15.31 C20.627,15.48 20.487,15.87 20.487,16.08 L20.487,17.78 C20.487,19.26 19.287,20.46 17.807,20.46 L16.107,20.46 C15.897,20.46 15.507,20.61 15.327,20.75 L13.747,22.1 C13.257,22.53 12.627,22.74 12.007,22.74 Z M6.167,5.02 C5.517,5.02 4.987,5.55 4.987,6.2 L4.987,7.9 C4.987,8.47 4.727,9.19 4.357,9.63 L2.997,11.23 C2.657,11.64 2.657,12.36 2.997,12.76 L4.347,14.35 C4.707,14.76 4.977,15.51 4.977,16.08 L4.977,17.79 C4.977,18.44 5.507,18.97 6.157,18.97 L7.897,18.97 C8.457,18.97 9.197,19.24 9.637,19.61 L11.227,20.97 C11.637,21.32 12.357,21.32 12.767,20.97 L14.347,19.62 C14.797,19.24 15.527,18.98 16.087,18.98 L17.787,18.98 C18.437,18.98 18.967,18.45 18.967,17.8 L18.967,16.1 C18.967,15.54 19.237,14.81 19.607,14.36 L20.967,12.77 C21.317,12.36 21.317,11.64 20.967,11.23 L19.617,9.65 C19.237,9.2 18.977,8.47 18.977,7.91 L18.977,6.2 C18.977,5.55 18.447,5.02 17.797,5.02 L16.097,5.02 C15.527,5.02 14.787,4.75 14.347,4.38 L12.757,3.02 C12.347,2.67 11.637,2.67 11.217,3.02 L9.647,4.38 C9.197,4.75 8.467,5.02 7.897,5.02 L6.167,5.02 Z"/>
  <path fill="#292D32" d="M12,16.87 C11.45,16.87 11,16.42 11,15.87 C11,15.32 11.44,14.87 12,14.87 C12.55,14.87 13,15.32 13,15.87 C13,16.42 12.56,16.87 12,16.87 Z"/>
  <path fill="#292D32" d="M12,13.72 C11.59,13.72 11.25,13.38 11.25,12.97 L11.25,8.13 C11.25,7.72 11.59,7.38 12,7.38 C12.41,7.38 12.75,7.72 12.75,8.13 L12.75,12.96 C12.75,13.38 12.42,13.72 12,13.72 Z"/>
</svg>