<svg xmlns="http://www.w3.org/2000/svg" width="24" height="24" viewBox="0 0 24 24">
  <defs/>
  <path fill="#4C4C4C" d="M12,22 C6.477,22 2,17.523 2,12 C2,6.477 6.477,2 12,2 C17.523,2 22,6.477 22,12 C22,17.523 17.523,22 12,22 Z M12,20 C16.418,20 20,16.418 20,12 C20,7.582 16.418,4 12,4 C7.582,4 4,7.582 4,12 C4,16.418 7.582,20 12,20 Z"/>
  <path fill="#4C4C4C" d="M12,10 C12.552,10 13,10.448 13,11 L13,16.001 C13,16.553 12.552,17.001 12,17.001 C11.448,17.001 11,16.553 11,16.001 L11,11 C11,10.448 11.448,10 12,10 Z"/>
  <path fill="#4C4C4C" d="M13,8 A1 1 0 1 1 11,8 A1 1 0 1 1 13,8 Z"/>
</svg>