<svg xmlns="http://www.w3.org/2000/svg" width="24" height="24" viewBox="0 0 24 24">
  <defs/>
  <path fill="#292D32" d="M20.01,19.26 C19.82,19.26 19.63,19.19 19.48,19.04 L14.53,14.09 C14.24,13.8 14.24,13.32 14.53,13.03 C14.82,12.74 15.3,12.74 15.59,13.03 L20.54,17.98 C20.83,18.27 20.83,18.75 20.54,19.04 C20.39,19.19 20.2,19.26 20.01,19.26 Z"/>
  <path fill="#292D32" d="M10.107,18.43 C9.378,18.43 8.678,18.14 8.168,17.62 L3.928,13.38 C2.857,12.31 2.857,10.56 3.928,9.49 L10.998,2.42 C12.068,1.35 13.818,1.35 14.887,2.42 L19.128,6.66 C19.648,7.18 19.938,7.87 19.938,8.6 C19.938,9.33 19.648,10.03 19.128,10.54 L12.057,17.61 C11.537,18.15 10.848,18.43 10.107,18.43 Z M12.938,3.12 C12.617,3.12 12.297,3.24 12.057,3.49 L4.988,10.56 C4.498,11.05 4.498,11.84 4.988,12.33 L9.227,16.57 C9.697,17.04 10.518,17.04 10.998,16.57 L18.067,9.5 C18.308,9.26 18.438,8.95 18.438,8.62 C18.438,8.29 18.308,7.97 18.067,7.74 L13.828,3.5 C13.578,3.24 13.258,3.12 12.938,3.12 Z"/>
  <path fill="#292D32" d="M8,21.75 L2,21.75 C1.59,21.75 1.25,21.41 1.25,21 C1.25,20.59 1.59,20.25 2,20.25 L8,20.25 C8.41,20.25 8.75,20.59 8.75,21 C8.75,21.41 8.41,21.75 8,21.75 Z"/>
  <path fill="#292D32" d="M13.63,15.74 C13.44,15.74 13.25,15.67 13.1,15.52 L6.03,8.45 C5.74,8.16 5.74,7.68 6.03,7.39 C6.32,7.1 6.8,7.1 7.09,7.39 L14.16,14.46 C14.45,14.75 14.45,15.23 14.16,15.52 C14.02,15.67 13.82,15.74 13.63,15.74 Z"/>
</svg>