<svg xmlns="http://www.w3.org/2000/svg" width="24" height="24" viewBox="0 0 24 24">
  <defs/>
  <path fill="#292D32" d="M15,22.75 L9,22.75 C3.57,22.75 1.25,20.43 1.25,15 L1.25,9 C1.25,3.57 3.57,1.25 9,1.25 L15,1.25 C20.43,1.25 22.75,3.57 22.75,9 L22.75,15 C22.75,20.43 20.43,22.75 15,22.75 Z M9,2.75 C4.39,2.75 2.75,4.39 2.75,9 L2.75,15 C2.75,19.61 4.39,21.25 9,21.25 L15,21.25 C19.61,21.25 21.25,19.61 21.25,15 L21.25,9 C21.25,4.39 19.61,2.75 15,2.75 L9,2.75 Z"/>
  <path fill="#292D32" d="M8.812,18.25 C8.742,18.25 8.662,18.25 8.592,18.23 L7.402,18.07 C6.682,17.97 6.052,17.35 5.942,16.61 L5.772,15.4 C5.702,14.92 5.902,14.31 6.252,13.95 L8.532,11.67 C8.192,10.05 8.682,8.37 9.872,7.19 C11.782,5.28 14.902,5.28 16.812,7.19 C17.742,8.12 18.252,9.35 18.252,10.66 C18.252,11.97 17.742,13.21 16.812,14.13 C15.622,15.31 13.942,15.8 12.332,15.46 L10.042,17.74 C9.752,18.05 9.262,18.25 8.812,18.25 Z M13.342,7.25 C12.472,7.25 11.592,7.58 10.932,8.25 C10.032,9.15 9.712,10.46 10.082,11.68 C10.162,11.95 10.092,12.23 9.892,12.43 L7.312,15.01 C7.292,15.04 7.252,15.15 7.252,15.19 L7.422,16.39 C7.432,16.45 7.542,16.56 7.602,16.57 L8.802,16.74 C8.852,16.73 8.952,16.71 8.982,16.68 L11.572,14.09 C11.772,13.89 12.062,13.83 12.322,13.91 C13.532,14.29 14.842,13.97 15.742,13.07 C16.382,12.43 16.742,11.57 16.742,10.66 C16.742,9.75 16.392,8.89 15.742,8.25 C15.092,7.59 14.212,7.25 13.342,7.25 Z"/>
  <path fill="#292D32" d="M10.451,17.03 C10.261,17.03 10.071,16.96 9.921,16.81 L9.061,15.95 C8.771,15.66 8.771,15.18 9.061,14.89 C9.351,14.6 9.831,14.6 10.121,14.89 L10.981,15.75 C11.271,16.04 11.271,16.52 10.981,16.81 C10.841,16.96 10.651,17.03 10.451,17.03 Z"/>
  <path fill="#292D32" d="M13.377,11.8 C13.237,11.8 13.107,11.78 12.987,11.73 C12.867,11.68 12.757,11.6 12.667,11.51 C12.477,11.32 12.367,11.07 12.367,10.8 C12.367,10.54 12.477,10.28 12.667,10.1 C12.897,9.86 13.247,9.75 13.567,9.82 C13.627,9.84 13.697,9.85 13.757,9.88 C13.817,9.91 13.877,9.94 13.927,9.97 C13.977,10.01 14.037,10.05 14.077,10.1 C14.267,10.28 14.377,10.54 14.377,10.8 C14.377,10.94 14.347,11.06 14.297,11.19 C14.247,11.31 14.177,11.42 14.077,11.51 C13.887,11.7 13.637,11.8 13.377,11.8 Z"/>
</svg>