<svg xmlns="http://www.w3.org/2000/svg" width="24" height="24" viewBox="0 0 24 24">
  <defs/>
  <path fill="#292D32" d="M20.779,19.34 L3.219,19.34 C2.809,19.34 2.469,19 2.469,18.59 L2.469,13.65 C2.469,8.43 6.719,4.18 11.939,4.18 L12.059,4.18 C17.279,4.18 21.529,8.43 21.529,13.65 L21.529,18.59 C21.529,19 21.189,19.34 20.779,19.34 Z M3.969,17.84 L20.029,17.84 L20.029,13.65 C20.029,9.25 16.449,5.68 12.059,5.68 L11.939,5.68 C7.539,5.68 3.969,9.26 3.969,13.65 L3.969,17.84 Z"/>
  <path fill="#292D32" d="M12,5.68 C11.59,5.68 11.25,5.34 11.25,4.93 L11.25,2 C11.25,1.59 11.59,1.25 12,1.25 C12.41,1.25 12.75,1.59 12.75,2 L12.75,4.93 C12.75,5.34 12.41,5.68 12,5.68 Z"/>
  <path fill="#292D32" d="M12.002,22.75 C9.693,22.75 7.763,20.94 7.603,18.64 C7.593,18.43 7.662,18.23 7.802,18.08 C7.942,17.93 8.143,17.84 8.352,17.84 L15.652,17.84 C15.863,17.84 16.062,17.93 16.203,18.08 C16.343,18.23 16.413,18.44 16.402,18.64 C16.242,20.94 14.312,22.75 12.002,22.75 Z M9.272,19.34 C9.682,20.46 10.762,21.25 12.002,21.25 C13.242,21.25 14.322,20.46 14.732,19.34 L9.272,19.34 Z"/>
</svg>