<svg xmlns="http://www.w3.org/2000/svg" width="24" height="24" viewBox="0 0 24 24">
  <defs/>
  <path fill="#292D32" d="M4.177,19.08 C3.987,19.08 3.797,19.01 3.647,18.86 C3.357,18.57 3.357,18.09 3.647,17.8 L19.497,1.95 C19.787,1.66 20.267,1.66 20.557,1.95 C20.847,2.24 20.847,2.72 20.557,3.01 L4.707,18.86 C4.557,19.01 4.367,19.08 4.177,19.08 Z"/>
  <path fill="#292D32" d="M5.25,13.75 C4.96,13.75 4.69,13.58 4.56,13.3 C4.07,12.18 3.82,11.04 3.82,9.9 C3.82,7.18 5,4.67 7.05,3.01 C8.97,1.47 11.35,0.91 13.75,1.44 C15.33,1.79 16.77,2.62 17.9,3.84 C18.18,4.14 18.16,4.62 17.86,4.9 C17.56,5.18 17.08,5.16 16.8,4.86 C15.87,3.86 14.71,3.18 13.43,2.9 C11.48,2.48 9.55,2.93 8,4.18 C6.3,5.55 5.33,7.63 5.33,9.9 C5.33,10.83 5.54,11.77 5.94,12.7 C6.11,13.08 5.93,13.52 5.55,13.69 C5.45,13.73 5.35,13.75 5.25,13.75 Z"/>
  <path fill="#292D32" d="M14.612,19.75 L9.422,19.75 C9.032,19.75 8.482,19.71 8.112,19.33 C7.752,18.96 7.762,18.49 7.772,18.18 L7.772,17.27 C7.372,16.99 6.992,16.67 6.632,16.31 C6.342,16.02 6.342,15.54 6.632,15.25 C6.922,14.96 7.402,14.96 7.692,15.25 C8.082,15.63 8.492,15.97 8.922,16.25 C9.132,16.39 9.272,16.63 9.272,16.88 L9.272,18.22 C9.272,18.23 9.272,18.24 9.272,18.25 C9.312,18.25 9.362,18.25 9.432,18.25 L14.622,18.25 C14.692,18.25 14.742,18.25 14.782,18.24 C14.782,18.2 14.782,18.16 14.782,18.13 L14.782,16.87 C14.782,16.61 14.912,16.38 15.132,16.24 C17.602,14.66 19.502,11.16 18.362,7.53 C18.242,7.13 18.462,6.71 18.852,6.59 C19.242,6.46 19.672,6.69 19.792,7.08 C21.102,11.26 19.062,15.29 16.282,17.27 L16.282,18.04 C16.292,18.35 16.302,18.88 15.892,19.3 C15.582,19.6 15.162,19.75 14.612,19.75 Z"/>
  <path fill="#292D32" d="M15.503,22.75 C15.433,22.75 15.363,22.74 15.293,22.72 C13.133,22.1 10.863,22.1 8.703,22.72 C8.303,22.83 7.893,22.6 7.773,22.2 C7.653,21.8 7.893,21.39 8.293,21.27 C10.713,20.58 13.283,20.58 15.703,21.27 C16.103,21.38 16.333,21.8 16.223,22.2 C16.133,22.54 15.833,22.75 15.503,22.75 Z"/>
</svg>