<svg xmlns="http://www.w3.org/2000/svg" width="24" height="24" viewBox="0 0 24 24">
  <defs/>
  <path fill="#292D32" d="M14.767,19.75 L9.257,19.75 C8.817,19.75 8.257,19.7 7.887,19.32 C7.527,18.95 7.537,18.49 7.547,18.18 L7.547,17.29 C5.027,15.61 3.367,12.69 3.367,9.91 C3.367,7.28 4.547,4.82 6.597,3.17 C8.647,1.52 11.337,0.9 13.967,1.48 C16.467,2.03 18.627,3.7 19.747,5.95 C21.917,10.32 19.827,15.05 16.487,17.3 L16.487,18.05 C16.497,18.34 16.507,18.87 16.097,19.29 C15.787,19.59 15.347,19.75 14.767,19.75 Z M9.037,18.24 C9.087,18.24 9.157,18.25 9.247,18.25 L14.767,18.25 C14.867,18.25 14.937,18.24 14.977,18.23 C14.977,18.2 14.977,18.16 14.977,18.13 L14.977,16.87 C14.977,16.61 15.117,16.36 15.337,16.23 C18.297,14.44 20.257,10.35 18.387,6.6 C17.467,4.75 15.687,3.38 13.627,2.93 C11.447,2.45 9.217,2.96 7.517,4.33 C5.817,5.7 4.847,7.73 4.847,9.91 C4.847,12.69 6.767,15.09 8.667,16.24 C8.897,16.38 9.027,16.62 9.027,16.88 L9.027,18.23 C9.037,18.23 9.037,18.23 9.037,18.24 Z"/>
  <path fill="#292D32" d="M15.503,22.75 C15.433,22.75 15.363,22.74 15.293,22.72 C13.133,22.1 10.863,22.1 8.703,22.72 C8.303,22.83 7.893,22.6 7.773,22.2 C7.653,21.8 7.893,21.39 8.293,21.27 C10.713,20.58 13.283,20.58 15.703,21.27 C16.103,21.38 16.333,21.8 16.223,22.2 C16.133,22.54 15.833,22.75 15.503,22.75 Z"/>
</svg>