<svg xmlns="http://www.w3.org/2000/svg" width="24" height="24" viewBox="0 0 24 24">
  <defs/>
  <path fill="#292D32" d="M11.788,11.88 C11.248,11.88 10.698,11.78 10.268,11.59 L4.368,8.97 C2.868,8.3 2.648,7.4 2.648,6.91 C2.648,6.42 2.868,5.52 4.368,4.85 L10.268,2.23 C11.138,1.84 12.448,1.84 13.318,2.23 L19.228,4.85 C20.718,5.51 20.948,6.42 20.948,6.91 C20.948,7.4 20.728,8.3 19.228,8.97 L13.318,11.59 C12.878,11.79 12.338,11.88 11.788,11.88 Z M11.788,3.44 C11.448,3.44 11.118,3.49 10.878,3.6 L4.978,6.22 C4.368,6.5 4.148,6.78 4.148,6.91 C4.148,7.04 4.368,7.33 4.968,7.6 L10.868,10.22 C11.348,10.43 12.218,10.43 12.698,10.22 L18.608,7.6 C19.218,7.33 19.438,7.04 19.438,6.91 C19.438,6.78 19.218,6.49 18.608,6.22 L12.708,3.6 C12.468,3.5 12.128,3.44 11.788,3.44 Z"/>
  <path fill="#292D32" d="M12,17.09 C11.62,17.09 11.24,17.01 10.88,16.85 L4.09,13.83 C3.06,13.38 2.25,12.13 2.25,11 C2.25,10.59 2.59,10.25 3,10.25 C3.41,10.25 3.75,10.59 3.75,11 C3.75,11.55 4.2,12.24 4.7,12.47 L11.49,15.49 C11.81,15.63 12.18,15.63 12.51,15.49 L19.3,12.47 C19.8,12.25 20.25,11.55 20.25,11 C20.25,10.59 20.59,10.25 21,10.25 C21.41,10.25 21.75,10.59 21.75,11 C21.75,12.13 20.94,13.38 19.91,13.84 L13.12,16.86 C12.76,17.01 12.38,17.09 12,17.09 Z"/>
  <path fill="#292D32" d="M12,22.09 C11.62,22.09 11.24,22.01 10.88,21.85 L4.09,18.83 C2.97,18.33 2.25,17.22 2.25,15.99 C2.25,15.58 2.59,15.24 3,15.24 C3.41,15.24 3.75,15.59 3.75,16 C3.75,16.63 4.12,17.21 4.7,17.47 L11.49,20.49 C11.81,20.63 12.18,20.63 12.51,20.49 L19.3,17.47 C19.88,17.21 20.25,16.64 20.25,16 C20.25,15.59 20.59,15.25 21,15.25 C21.41,15.25 21.75,15.59 21.75,16 C21.75,17.23 21.03,18.34 19.91,18.84 L13.12,21.86 C12.76,22.01 12.38,22.09 12,22.09 Z"/>
</svg>