<svg xmlns="http://www.w3.org/2000/svg" width="24" height="24" viewBox="0 0 24 24">
  <defs/>
  <path fill="#292D32" d="M12.013,22.75 C11.383,22.75 10.753,22.54 10.263,22.12 L8.683,20.76 C8.523,20.62 8.123,20.48 7.913,20.48 L6.183,20.48 C4.703,20.48 3.503,19.28 3.503,17.8 L3.503,16.09 C3.503,15.88 3.363,15.49 3.223,15.33 L1.873,13.74 C1.053,12.77 1.053,11.24 1.873,10.27 L3.223,8.68 C3.363,8.52 3.503,8.13 3.503,7.92 L3.503,6.21 C3.503,4.73 4.703,3.53 6.183,3.53 L7.913,3.53 C8.123,3.53 8.523,3.38 8.683,3.25 L10.263,1.89 C11.243,1.05 12.773,1.05 13.753,1.89 L15.333,3.25 C15.493,3.39 15.893,3.53 16.103,3.53 L17.803,3.53 C19.283,3.53 20.483,4.73 20.483,6.21 L20.483,7.91 C20.483,8.12 20.633,8.52 20.773,8.68 L22.123,10.26 C22.963,11.24 22.963,12.77 22.123,13.75 L20.773,15.33 C20.633,15.49 20.493,15.89 20.493,16.1 L20.493,17.8 C20.493,19.28 19.293,20.48 17.813,20.48 L16.113,20.48 C15.903,20.48 15.503,20.63 15.343,20.76 L13.763,22.12 C13.263,22.54 12.633,22.75 12.013,22.75 Z M6.183,5.02 C5.533,5.02 5.003,5.55 5.003,6.2 L5.003,7.91 C5.003,8.48 4.733,9.21 4.373,9.64 L3.023,11.23 C2.673,11.64 2.673,12.35 3.023,12.76 L4.373,14.35 C4.743,14.79 5.013,15.52 5.013,16.08 L5.013,17.79 C5.013,18.44 5.543,18.97 6.193,18.97 L7.923,18.97 C8.503,18.97 9.233,19.24 9.673,19.62 L11.253,20.98 C11.663,21.33 12.383,21.33 12.793,20.98 L14.373,19.62 C14.813,19.25 15.543,18.97 16.123,18.97 L17.823,18.97 C18.473,18.97 19.003,18.44 19.003,17.79 L19.003,16.09 C19.003,15.51 19.273,14.78 19.653,14.34 L21.003,12.76 C21.353,12.35 21.353,11.63 21.003,11.22 L19.653,9.64 C19.283,9.2 19.003,8.47 19.003,7.89 L19.003,6.19 C19.003,5.54 18.473,5.01 17.823,5.01 L16.123,5.01 C15.553,5.01 14.813,4.74 14.373,4.36 L12.793,3 C12.383,2.65 11.663,2.65 11.253,3 L9.673,4.36 C9.233,4.73 8.503,5.01 7.923,5.01 L6.183,5.01 L6.183,5.02 Z"/>
  <path fill="#292D32" d="M13.998,16.97 L12.218,16.97 C11.798,16.97 11.168,16.84 10.798,16.47 L9.418,15.41 L10.338,14.22 L11.788,15.34 C11.888,15.41 12.068,15.46 12.218,15.46 L13.998,15.46 C14.238,15.46 14.528,15.25 14.578,15.04 L15.718,11.57 C15.748,11.48 15.748,11.42 15.738,11.4 C15.718,11.37 15.648,11.34 15.548,11.34 L13.678,11.34 C13.318,11.34 12.988,11.19 12.748,10.92 C12.518,10.65 12.408,10.29 12.458,9.92 L12.698,8.41 C12.718,8.33 12.658,8.23 12.598,8.21 C12.538,8.2 12.448,8.22 12.418,8.25 L10.508,11.09 L9.258,10.25 L11.178,7.4 C11.578,6.8 12.418,6.54 13.098,6.79 C13.858,7.04 14.348,7.9 14.178,8.68 L13.998,9.82 L15.548,9.82 C16.138,9.82 16.658,10.07 16.968,10.51 C17.268,10.94 17.338,11.5 17.148,12.03 L16.028,15.43 C15.818,16.29 14.928,16.97 13.998,16.97 Z"/>
  <path fill="#292D32" d="M8.902,16.46 L8.432,16.46 C6.962,16.46 6.742,15.43 6.742,14.82 L6.742,10.24 C6.742,9.63 6.962,8.6 8.432,8.6 L8.902,8.6 C10.372,8.6 10.592,9.63 10.592,10.24 L10.592,14.82 C10.592,15.43 10.372,16.46 8.902,16.46 Z M8.262,14.95 C8.302,14.96 8.362,14.96 8.442,14.96 L8.912,14.96 C8.992,14.96 9.052,14.96 9.092,14.95 C9.092,14.92 9.102,14.88 9.102,14.82 L9.102,10.24 C9.102,10.18 9.102,10.14 9.092,10.11 C9.052,10.1 8.992,10.1 8.912,10.1 L8.442,10.1 C8.362,10.1 8.302,10.1 8.262,10.11 C8.262,10.14 8.252,10.18 8.252,10.24 L8.252,14.82 C8.252,14.88 8.252,14.92 8.262,14.95 Z"/>
</svg>