<svg xmlns="http://www.w3.org/2000/svg" width="24" height="24" viewBox="0 0 24 24">
  <defs/>
  <path fill="#292D32" d="M9.951,22.75 L7.781,22.75 C7.391,22.75 6.611,22.63 6.161,22.19 L4.461,20.88 L5.381,19.69 L7.151,21.06 C7.281,21.17 7.551,21.25 7.781,21.25 L9.951,21.25 C10.321,21.25 10.741,20.94 10.821,20.62 L12.211,16.39 C12.251,16.29 12.281,16.14 12.211,16.03 C12.151,15.94 12.011,15.89 11.841,15.89 L9.551,15.89 C9.161,15.89 8.801,15.72 8.541,15.43 C8.281,15.13 8.171,14.75 8.231,14.34 L8.521,12.5 C8.561,12.33 8.441,12.12 8.281,12.07 C8.151,12.02 7.931,12.11 7.881,12.18 L5.531,15.67 L4.281,14.83 L6.621,11.34 C7.061,10.68 8.021,10.38 8.761,10.66 C9.611,10.94 10.171,11.9 9.971,12.78 L9.721,14.38 L11.811,14.38 C12.481,14.38 13.061,14.66 13.411,15.16 C13.751,15.64 13.821,16.27 13.601,16.87 L12.231,21.03 C12.031,21.97 11.011,22.75 9.951,22.75 Z"/>
  <path fill="#292D32" d="M3.718,22.12 L3.148,22.12 C1.588,22.12 1.258,21.12 1.258,20.28 L1.258,14.68 C1.258,13.84 1.588,12.84 3.148,12.84 L3.718,12.84 C5.278,12.84 5.608,13.84 5.608,14.68 L5.608,20.28 C5.608,21.12 5.278,22.12 3.718,22.12 Z M2.788,20.58 C2.798,20.58 2.898,20.62 3.138,20.62 L3.708,20.62 C3.968,20.62 4.058,20.58 4.078,20.57 C4.078,20.56 4.108,20.49 4.108,20.28 L4.108,14.68 C4.108,14.47 4.078,14.39 4.068,14.38 C4.068,14.4 3.968,14.34 3.718,14.34 L3.148,14.34 C2.888,14.34 2.798,14.38 2.778,14.39 C2.778,14.4 2.748,14.47 2.748,14.68 L2.748,20.28 C2.748,20.49 2.778,20.57 2.788,20.58 Z"/>
  <path fill="#292D32" d="M15.806,13.44 C15.606,13.44 15.406,13.41 15.216,13.34 C14.366,13.06 13.806,12.1 14.006,11.22 L14.256,9.62 L12.166,9.62 C11.496,9.62 10.916,9.34 10.566,8.84 C10.226,8.36 10.156,7.73 10.376,7.13 L11.746,2.97 C11.976,2.03 13.006,1.25 14.056,1.25 L16.226,1.25 C16.616,1.25 17.396,1.37 17.846,1.81 L19.546,3.12 L18.626,4.31 L16.856,2.94 C16.726,2.83 16.456,2.75 16.226,2.75 L14.056,2.75 C13.686,2.75 13.266,3.06 13.186,3.38 L11.796,7.61 C11.756,7.71 11.726,7.86 11.796,7.97 C11.856,8.06 11.996,8.11 12.166,8.11 L14.456,8.11 C14.846,8.11 15.206,8.28 15.466,8.57 C15.726,8.87 15.836,9.25 15.776,9.66 L15.486,11.5 C15.446,11.67 15.566,11.88 15.726,11.93 C15.866,11.98 16.076,11.9 16.126,11.82 L18.476,8.33 L19.726,9.17 L17.386,12.66 C17.026,13.14 16.406,13.44 15.806,13.44 Z"/>
  <path fill="#292D32" d="M20.858,11.16 L20.288,11.16 C18.728,11.16 18.398,10.16 18.398,9.32 L18.398,3.72 C18.398,2.88 18.728,1.88 20.288,1.88 L20.858,1.88 C22.418,1.88 22.748,2.88 22.748,3.72 L22.748,9.32 C22.748,10.16 22.418,11.16 20.858,11.16 Z M19.928,9.62 C19.938,9.62 20.038,9.66 20.278,9.66 L20.848,9.66 C21.108,9.66 21.198,9.62 21.218,9.61 C21.218,9.6 21.248,9.53 21.248,9.32 L21.248,3.72 C21.248,3.51 21.218,3.44 21.208,3.42 C21.218,3.46 21.108,3.38 20.858,3.38 L20.288,3.38 C20.028,3.38 19.938,3.42 19.918,3.43 C19.918,3.44 19.888,3.51 19.888,3.72 L19.888,9.32 C19.888,9.53 19.918,9.6 19.928,9.62 Z"/>
</svg>