<svg xmlns="http://www.w3.org/2000/svg" width="24" height="24" viewBox="0 0 24 24">
  <defs/>
  <path fill="#292D32" d="M12.502,14.75 L10.002,14.75 C9.592,14.75 9.252,14.41 9.252,14 C9.252,13.59 9.592,13.25 10.002,13.25 L12.502,13.25 C15.122,13.25 17.252,11.12 17.252,8.5 C17.252,5.88 15.122,3.75 12.502,3.75 L7.502,3.75 C4.882,3.75 2.752,5.88 2.752,8.5 C2.752,9.6 3.142,10.67 3.842,11.52 C4.102,11.84 4.062,12.31 3.742,12.58 C3.422,12.84 2.952,12.8 2.682,12.48 C1.752,11.36 1.242,9.95 1.242,8.5 C1.242,5.05 4.042,2.25 7.492,2.25 L12.492,2.25 C15.942,2.25 18.742,5.05 18.742,8.5 C18.742,11.95 15.952,14.75 12.502,14.75 Z"/>
  <path fill="#292D32" d="M16.5,21.75 L11.5,21.75 C8.05,21.75 5.25,18.95 5.25,15.5 C5.25,12.05 8.05,9.25 11.5,9.25 L14,9.25 C14.41,9.25 14.75,9.59 14.75,10 C14.75,10.41 14.41,10.75 14,10.75 L11.5,10.75 C8.88,10.75 6.75,12.88 6.75,15.5 C6.75,18.12 8.88,20.25 11.5,20.25 L16.5,20.25 C19.12,20.25 21.25,18.12 21.25,15.5 C21.25,14.4 20.86,13.33 20.16,12.48 C19.9,12.16 19.94,11.69 20.26,11.42 C20.58,11.15 21.05,11.2 21.32,11.52 C22.25,12.64 22.76,14.05 22.76,15.5 C22.75,18.95 19.95,21.75 16.5,21.75 Z"/>
</svg>