<svg xmlns="http://www.w3.org/2000/svg" width="24" height="24" viewBox="0 0 24 24">
  <defs/>
  <path fill="#292D32" d="M12.002,22.76 C10.522,22.76 9.032,22.2 7.872,21.09 C4.922,18.25 1.662,13.72 2.892,8.33 C4.002,3.44 8.272,1.25 12.002,1.25 C12.002,1.25 12.002,1.25 12.012,1.25 C15.742,1.25 20.012,3.44 21.122,8.34 C22.342,13.73 19.082,18.25 16.132,21.09 C14.972,22.2 13.482,22.76 12.002,22.76 Z M12.002,2.75 C9.092,2.75 5.352,4.3 4.362,8.66 C3.282,13.37 6.242,17.43 8.922,20 C10.652,21.67 13.362,21.67 15.092,20 C17.762,17.43 20.722,13.37 19.662,8.66 C18.662,4.3 14.912,2.75 12.002,2.75 Z"/>
  <path fill="#292D32" d="M13.997,13.71 C13.807,13.71 13.617,13.64 13.467,13.49 L9.507,9.53 C9.217,9.24 9.217,8.76 9.507,8.47 C9.797,8.18 10.277,8.18 10.567,8.47 L14.527,12.43 C14.817,12.72 14.817,13.2 14.527,13.49 C14.377,13.63 14.187,13.71 13.997,13.71 Z"/>
  <path fill="#292D32" d="M9.998,13.75 C9.807,13.75 9.617,13.68 9.467,13.53 C9.178,13.24 9.178,12.76 9.467,12.47 L13.428,8.51 C13.717,8.22 14.197,8.22 14.488,8.51 C14.777,8.8 14.777,9.28 14.488,9.57 L10.527,13.53 C10.377,13.68 10.188,13.75 9.998,13.75 Z"/>
</svg>