<svg xmlns="http://www.w3.org/2000/svg" width="24" height="24" viewBox="0 0 24 24">
  <defs/>
  <path fill="#292D32" d="M12.002,22.76 C10.522,22.76 9.032,22.2 7.872,21.09 C4.922,18.25 1.662,13.72 2.892,8.33 C4.002,3.44 8.272,1.25 12.002,1.25 C12.002,1.25 12.002,1.25 12.012,1.25 C15.742,1.25 20.012,3.44 21.122,8.34 C22.342,13.73 19.082,18.25 16.132,21.09 C14.972,22.2 13.482,22.76 12.002,22.76 Z M12.002,2.75 C9.092,2.75 5.352,4.3 4.362,8.66 C3.282,13.37 6.242,17.43 8.922,20 C10.652,21.67 13.362,21.67 15.092,20 C17.762,17.43 20.722,13.37 19.662,8.66 C18.662,4.3 14.912,2.75 12.002,2.75 Z"/>
  <path fill="#292D32" d="M10.748,13.75 C10.557,13.75 10.367,13.68 10.217,13.53 L8.717,12.03 C8.428,11.74 8.428,11.26 8.717,10.97 C9.008,10.68 9.488,10.68 9.777,10.97 L10.748,11.94 L14.217,8.47 C14.508,8.18 14.988,8.18 15.277,8.47 C15.568,8.76 15.568,9.24 15.277,9.53 L11.277,13.53 C11.127,13.68 10.938,13.75 10.748,13.75 Z"/>
</svg>