<svg xmlns="http://www.w3.org/2000/svg" width="24" height="24" viewBox="0 0 24 24">
  <defs/>
  <path fill="#292D32" d="M14.75,11.75 L9.25,11.75 C8.84,11.75 8.5,11.41 8.5,11 C8.5,10.59 8.84,10.25 9.25,10.25 L14.75,10.25 C15.16,10.25 15.5,10.59 15.5,11 C15.5,11.41 15.16,11.75 14.75,11.75 Z"/>
  <path fill="#292D32" d="M12,14.5 C11.59,14.5 11.25,14.16 11.25,13.75 L11.25,8.25 C11.25,7.84 11.59,7.5 12,7.5 C12.41,7.5 12.75,7.84 12.75,8.25 L12.75,13.75 C12.75,14.16 12.41,14.5 12,14.5 Z"/>
  <path fill="#292D32" d="M12.002,22.76 C10.522,22.76 9.032,22.2 7.872,21.09 C4.922,18.25 1.662,13.72 2.892,8.33 C4.002,3.44 8.272,1.25 12.002,1.25 C12.002,1.25 12.002,1.25 12.012,1.25 C15.742,1.25 20.012,3.44 21.122,8.34 C22.342,13.73 19.082,18.25 16.132,21.09 C14.972,22.2 13.482,22.76 12.002,22.76 Z M12.002,2.75 C9.092,2.75 5.352,4.3 4.362,8.66 C3.282,13.37 6.242,17.43 8.922,20 C10.652,21.67 13.362,21.67 15.092,20 C17.762,17.43 20.722,13.37 19.662,8.66 C18.662,4.3 14.912,2.75 12.002,2.75 Z"/>
</svg>