<svg xmlns="http://www.w3.org/2000/svg" width="24" height="24" viewBox="0 0 24 24">
  <defs/>
  <path fill="#292D32" d="M12.003,14.17 C9.873,14.17 8.133,12.44 8.133,10.3 C8.133,8.16 9.873,6.44 12.003,6.44 C14.133,6.44 15.873,8.17 15.873,10.31 C15.873,12.45 14.133,14.17 12.003,14.17 Z M12.003,7.94 C10.703,7.94 9.633,9 9.633,10.31 C9.633,11.62 10.693,12.68 12.003,12.68 C13.313,12.68 14.373,11.62 14.373,10.31 C14.373,9 13.303,7.94 12.003,7.94 Z"/>
  <path fill="#292D32" d="M12.002,22.76 C10.522,22.76 9.032,22.2 7.872,21.09 C4.922,18.25 1.662,13.72 2.892,8.33 C4.002,3.44 8.272,1.25 12.002,1.25 C12.002,1.25 12.002,1.25 12.012,1.25 C15.742,1.25 20.012,3.44 21.122,8.34 C22.342,13.73 19.082,18.25 16.132,21.09 C14.972,22.2 13.482,22.76 12.002,22.76 Z M12.002,2.75 C9.092,2.75 5.352,4.3 4.362,8.66 C3.282,13.37 6.242,17.43 8.922,20 C10.652,21.67 13.362,21.67 15.092,20 C17.762,17.43 20.722,13.37 19.662,8.66 C18.662,4.3 14.912,2.75 12.002,2.75 Z"/>
</svg>