<svg xmlns="http://www.w3.org/2000/svg" width="24" height="24" viewBox="0 0 24 24">
  <defs/>
  <path fill="#292D32" d="M10.423,13.75 C10.293,13.75 10.163,13.72 10.043,13.65 C8.863,12.96 8.133,11.68 8.133,10.32 C8.133,8.19 9.863,6.45 12.003,6.45 C13.373,6.45 14.653,7.18 15.343,8.37 C15.553,8.73 15.433,9.19 15.073,9.4 C14.713,9.61 14.253,9.49 14.043,9.13 C13.623,8.39 12.843,7.94 12.003,7.94 C10.703,7.94 9.633,9 9.633,10.31 C9.633,11.15 10.083,11.93 10.803,12.35 C11.163,12.56 11.283,13.02 11.073,13.38 C10.933,13.61 10.683,13.75 10.423,13.75 Z"/>
  <path fill="#292D32" d="M5.991,18.56 C5.761,18.56 5.531,18.45 5.381,18.25 C2.981,14.96 2.141,11.62 2.891,8.32 C3.671,4.89 6.191,2.35 9.631,1.52 C13.231,0.65 17.011,1.82 19.241,4.49 C19.511,4.81 19.461,5.28 19.151,5.55 C18.831,5.82 18.361,5.77 18.091,5.45 C16.221,3.21 13.041,2.24 9.981,2.97 C7.061,3.67 5.011,5.74 4.351,8.64 C3.701,11.5 4.451,14.43 6.591,17.35 C6.831,17.68 6.761,18.15 6.431,18.4 C6.301,18.51 6.141,18.56 5.991,18.56 Z"/>
  <path fill="#292D32" d="M12.002,22.76 C10.522,22.76 9.032,22.2 7.872,21.09 C7.572,20.8 7.562,20.33 7.852,20.03 C8.142,19.73 8.612,19.72 8.912,20.01 C10.642,21.68 13.352,21.68 15.082,20.01 C17.752,17.44 20.712,13.38 19.652,8.67 C19.562,8.27 19.812,7.86 20.222,7.77 C20.622,7.68 21.032,7.93 21.122,8.34 C22.342,13.73 19.082,18.25 16.132,21.09 C14.972,22.2 13.482,22.76 12.002,22.76 Z"/>
  <path fill="#292D32" d="M1.998,22.75 C1.808,22.75 1.617,22.68 1.468,22.53 C1.177,22.24 1.177,21.76 1.468,21.47 L21.468,1.47 C21.758,1.18 22.238,1.18 22.527,1.47 C22.817,1.76 22.817,2.24 22.527,2.53 L2.527,22.53 C2.377,22.68 2.188,22.75 1.998,22.75 Z"/>
</svg>