<svg xmlns="http://www.w3.org/2000/svg" width="24" height="24" viewBox="0 0 24 24">
  <defs/>
  <path fill="#292D32" d="M11.677,15.37 C11.487,15.37 11.297,15.3 11.147,15.15 C10.857,14.86 10.857,14.38 11.147,14.09 L13.177,12.06 L11.147,10.03 C10.857,9.74 10.857,9.26 11.147,8.97 C11.437,8.68 11.917,8.68 12.207,8.97 L14.767,11.53 C15.057,11.82 15.057,12.3 14.767,12.59 L12.207,15.15 C12.067,15.3 11.867,15.37 11.677,15.37 Z"/>
  <path fill="#292D32" d="M14.17,12.81 L4,12.81 C3.59,12.81 3.25,12.47 3.25,12.06 C3.25,11.65 3.59,11.31 4,11.31 L14.17,11.31 C14.58,11.31 14.92,11.65 14.92,12.06 C14.92,12.47 14.58,12.81 14.17,12.81 Z"/>
  <path fill="#292D32" d="M12,20.75 C11.59,20.75 11.25,20.41 11.25,20 C11.25,19.59 11.59,19.25 12,19.25 C16.27,19.25 19.25,16.27 19.25,12 C19.25,7.73 16.27,4.75 12,4.75 C11.59,4.75 11.25,4.41 11.25,4 C11.25,3.59 11.59,3.25 12,3.25 C17.15,3.25 20.75,6.85 20.75,12 C20.75,17.15 17.15,20.75 12,20.75 Z"/>
</svg>