<svg xmlns="http://www.w3.org/2000/svg" width="24" height="24" viewBox="0 0 24 24">
  <defs/>
  <path fill="#292D32" d="M17.443,15.37 C17.253,15.37 17.063,15.3 16.913,15.15 C16.623,14.86 16.623,14.38 16.913,14.09 L18.943,12.06 L16.913,10.03 C16.623,9.74 16.623,9.26 16.913,8.97 C17.203,8.68 17.683,8.68 17.973,8.97 L20.533,11.53 C20.823,11.82 20.823,12.3 20.533,12.59 L17.973,15.15 C17.823,15.3 17.633,15.37 17.443,15.37 Z"/>
  <path fill="#292D32" d="M19.928,12.81 L9.758,12.81 C9.348,12.81 9.008,12.47 9.008,12.06 C9.008,11.65 9.348,11.31 9.758,11.31 L19.928,11.31 C20.338,11.31 20.678,11.65 20.678,12.06 C20.678,12.47 20.338,12.81 19.928,12.81 Z"/>
  <path fill="#292D32" d="M11.758,20.75 C6.608,20.75 3.008,17.15 3.008,12 C3.008,6.85 6.608,3.25 11.758,3.25 C12.168,3.25 12.508,3.59 12.508,4 C12.508,4.41 12.168,4.75 11.758,4.75 C7.488,4.75 4.508,7.73 4.508,12 C4.508,16.27 7.488,19.25 11.758,19.25 C12.168,19.25 12.508,19.59 12.508,20 C12.508,20.41 12.168,20.75 11.758,20.75 Z"/>
</svg>