<svg xmlns="http://www.w3.org/2000/svg" width="24" height="24" viewBox="0 0 24 24">
  <defs/>
  <path fill="#292D32" d="M15.241,22.27 L15.111,22.27 C10.671,22.27 8.53,20.52 8.161,16.6 C8.12,16.19 8.421,15.82 8.841,15.78 C9.241,15.74 9.62,16.05 9.661,16.46 C9.95,19.6 11.431,20.77 15.12,20.77 L15.251,20.77 C19.32,20.77 20.761,19.33 20.761,15.26 L20.761,8.74 C20.761,4.67 19.32,3.23 15.251,3.23 L15.12,3.23 C11.411,3.23 9.931,4.42 9.661,7.62 C9.611,8.03 9.261,8.34 8.841,8.3 C8.421,8.27 8.12,7.9 8.15,7.49 C8.491,3.51 10.64,1.73 15.111,1.73 L15.241,1.73 C20.151,1.73 22.25,3.83 22.25,8.74 L22.25,15.26 C22.25,20.17 20.151,22.27 15.241,22.27 Z"/>
  <path fill="#292D32" d="M14.997,12.75 L3.617,12.75 C3.207,12.75 2.867,12.41 2.867,12 C2.867,11.59 3.207,11.25 3.617,11.25 L14.997,11.25 C15.407,11.25 15.747,11.59 15.747,12 C15.747,12.41 15.407,12.75 14.997,12.75 Z"/>
  <path fill="#292D32" d="M5.848,16.1 C5.657,16.1 5.468,16.03 5.317,15.88 L1.968,12.53 C1.677,12.24 1.677,11.76 1.968,11.47 L5.317,8.12 C5.607,7.83 6.088,7.83 6.378,8.12 C6.668,8.41 6.668,8.89 6.378,9.18 L3.558,12 L6.378,14.82 C6.668,15.11 6.668,15.59 6.378,15.88 C6.237,16.03 6.037,16.1 5.848,16.1 Z"/>
</svg>