<svg xmlns="http://www.w3.org/2000/svg" width="24" height="24" viewBox="0 0 24 24">
  <defs/>
  <path fill="#292D32" d="M13.014,22.5 C12.414,22.5 11.484,22.21 10.594,20.75 L8.834,17.9 C8.664,17.62 8.144,17.35 7.824,17.37 L4.484,17.54 C2.484,17.64 1.784,16.81 1.534,16.31 C1.284,15.81 1.064,14.74 2.364,13.22 L4.344,10.92 C4.544,10.68 4.654,10.16 4.564,9.86 L3.554,6.63 C3.044,5.01 3.614,4.14 3.994,3.76 C4.374,3.38 5.254,2.83 6.874,3.37 L9.824,4.34 C10.094,4.43 10.594,4.35 10.824,4.19 L13.904,1.97 C15.314,0.95 16.334,1.22 16.804,1.47 C17.274,1.72 18.074,2.4 18.044,4.14 L17.974,7.93 C17.964,8.21 18.194,8.67 18.414,8.84 L20.894,10.72 C22.244,11.75 22.294,12.78 22.204,13.31 C22.114,13.84 21.714,14.8 20.094,15.3 L16.864,16.31 C16.564,16.4 16.194,16.79 16.114,17.09 L15.344,20.03 C14.834,21.96 13.834,22.39 13.274,22.47 C13.204,22.49 13.114,22.5 13.014,22.5 Z M7.854,15.87 C8.714,15.87 9.664,16.39 10.104,17.11 L11.864,19.96 C12.364,20.78 12.814,21.03 13.054,20.99 C13.284,20.96 13.644,20.58 13.894,19.66 L14.664,16.72 C14.874,15.92 15.624,15.13 16.414,14.89 L19.644,13.88 C20.264,13.69 20.664,13.38 20.724,13.06 C20.784,12.74 20.504,12.32 19.984,11.92 L17.504,10.04 C16.894,9.58 16.454,8.66 16.464,7.9 L16.534,4.11 C16.544,3.44 16.384,2.94 16.094,2.79 C15.804,2.64 15.314,2.79 14.764,3.18 L11.684,5.4 C11.074,5.84 10.064,6 9.334,5.76 L6.384,4.79 C5.764,4.59 5.264,4.6 5.034,4.83 C4.804,5.06 4.784,5.56 4.974,6.18 L5.984,9.41 C6.234,10.2 6.014,11.27 5.474,11.89 L3.494,14.19 C2.864,14.92 2.764,15.43 2.874,15.64 C2.974,15.85 3.454,16.08 4.404,16.03 L7.744,15.86 C7.784,15.87 7.824,15.87 7.854,15.87 Z"/>
  <path fill="#292D32" d="M21.91,22.75 C21.72,22.75 21.53,22.68 21.38,22.53 L18.35,19.5 C18.06,19.21 18.06,18.73 18.35,18.44 C18.64,18.15 19.12,18.15 19.41,18.44 L22.44,21.47 C22.73,21.76 22.73,22.24 22.44,22.53 C22.29,22.68 22.1,22.75 21.91,22.75 Z"/>
</svg>