<svg xmlns="http://www.w3.org/2000/svg" width="20" height="16" viewBox="0 0 20 16">
  <defs/>
  <path fill="#4C4C4C" d="M0,3 C0,1.343 1.343,0 3,0 L17,0 C18.657,0 20,1.343 20,3 L20,13 C20,14.657 18.657,16 17,16 L3,16 C1.343,16 0,14.657 0,13 Z M2,4.869 L2,13 C2,13.552 2.448,14 3,14 L17,14 C17.552,14 18,13.552 18,13 L18,4.869 L11.664,9.092 C10.656,9.764 9.344,9.764 8.336,9.092 Z M3,2 C2.614,2 2.279,2.219 2.112,2.54 L9.445,7.428 C9.781,7.652 10.219,7.652 10.555,7.428 L17.888,2.54 C17.721,2.219 17.386,2 17,2 Z"/>
</svg>