<svg xmlns="http://www.w3.org/2000/svg" width="24" height="24" viewBox="0 0 24 24">
  <defs/>
  <path fill="#292D32" d="M20.378,21.13 C20.177,21.13 19.988,21.05 19.848,20.91 L13.467,14.53 C13.178,14.24 13.178,13.76 13.467,13.47 L21.198,5.74 C21.387,5.55 21.677,5.48 21.938,5.55 C22.198,5.63 22.398,5.84 22.457,6.1 C22.648,6.95 22.747,7.9 22.747,9 L22.747,15 C22.747,17.77 22.168,19.64 20.907,20.91 C20.767,21.05 20.558,21.08 20.378,21.13 Z M15.057,14 L20.317,19.26 C20.948,18.29 21.247,16.91 21.247,15 L21.247,9 C21.247,8.59 21.238,8.21 21.207,7.85 L15.057,14 Z"/>
  <path fill="#292D32" d="M6.27,22.48 C6.21,22.48 6.16,22.47 6.1,22.46 C2.79,21.7 1.25,19.33 1.25,15 L1.25,9 C1.25,3.57 3.57,1.25 9,1.25 L15,1.25 C19.33,1.25 21.7,2.79 22.46,6.1 C22.52,6.35 22.44,6.62 22.26,6.8 L6.8,22.26 C6.66,22.4 6.47,22.48 6.27,22.48 Z M9,2.75 C4.39,2.75 2.75,4.39 2.75,9 L2.75,15 C2.75,18.47 3.71,20.21 6.04,20.9 L20.89,6.05 C20.21,3.72 18.46,2.76 14.99,2.76 L9,2.76 L9,2.75 Z"/>
  <path fill="#292D32" d="M14.996,22.75 L8.996,22.75 C7.896,22.75 6.956,22.66 6.096,22.46 C5.826,22.4 5.616,22.2 5.546,21.94 C5.466,21.68 5.546,21.4 5.736,21.2 L13.466,13.47 C13.757,13.18 14.236,13.18 14.527,13.47 L20.907,19.85 C21.047,19.99 21.127,20.18 21.127,20.38 C21.127,20.58 21.047,20.77 20.907,20.91 C19.637,22.17 17.767,22.75 14.996,22.75 Z M7.846,21.21 C8.206,21.24 8.586,21.25 8.996,21.25 L14.996,21.25 C16.916,21.25 18.287,20.95 19.256,20.32 L13.996,15.06 L7.846,21.21 Z"/>
  <path fill="#292D32" d="M9.123,13.31 C8.493,13.31 7.863,13.08 7.363,12.61 C5.773,11.1 5.133,9.44 5.513,7.82 C5.893,6.16 7.343,5.04 9.123,5.04 C10.903,5.04 12.353,6.16 12.733,7.82 C13.103,9.45 12.463,11.1 10.873,12.61 C10.383,13.07 9.753,13.31 9.123,13.31 Z M6.973,8.15 C6.653,9.51 7.573,10.73 8.403,11.52 C8.813,11.91 9.443,11.91 9.843,11.52 C10.663,10.74 11.583,9.52 11.273,8.15 C11.003,6.96 9.943,6.53 9.123,6.53 C8.303,6.53 7.253,6.96 6.973,8.15 Z"/>
  <path fill="#292D32" d="M9.148,9.49 C8.598,9.49 8.148,9.04 8.148,8.49 C8.148,7.94 8.588,7.49 9.148,7.49 L9.158,7.49 C9.708,7.49 10.158,7.94 10.158,8.49 C10.158,9.04 9.698,9.49 9.148,9.49 Z"/>
</svg>