<svg xmlns="http://www.w3.org/2000/svg" width="24" height="24" viewBox="0 0 24 24">
  <defs/>
  <path fill="#292D32" d="M12,15.75 C7.86,15.75 4.5,12.5 4.5,8.5 C4.5,4.5 7.86,1.25 12,1.25 C16.14,1.25 19.5,4.5 19.5,8.5 C19.5,12.5 16.14,15.75 12,15.75 Z M12,2.75 C8.69,2.75 6,5.33 6,8.5 C6,11.67 8.69,14.25 12,14.25 C15.31,14.25 18,11.67 18,8.5 C18,5.33 15.31,2.75 12,2.75 Z"/>
  <path fill="#292D32" d="M15.618,22.75 C15.338,22.75 15.058,22.68 14.768,22.55 L12.078,21.28 C12.048,21.27 11.938,21.27 11.898,21.28 L9.228,22.54 C8.638,22.82 8.018,22.81 7.538,22.5 C7.038,22.18 6.748,21.59 6.758,20.89 L6.768,13.51 C6.768,13.1 7.088,12.74 7.518,12.76 C7.928,12.76 8.268,13.1 8.268,13.51 L8.258,20.89 C8.258,21.11 8.318,21.22 8.348,21.23 C8.368,21.24 8.458,21.25 8.598,21.18 L11.278,19.91 C11.708,19.71 12.298,19.71 12.728,19.91 L15.418,21.18 C15.558,21.25 15.648,21.24 15.668,21.23 C15.698,21.21 15.758,21.1 15.758,20.89 L15.758,13.33 C15.758,12.92 16.098,12.58 16.508,12.58 C16.918,12.58 17.258,12.92 17.258,13.33 L17.258,20.89 C17.258,21.6 16.968,22.18 16.468,22.5 C16.208,22.67 15.918,22.75 15.618,22.75 Z"/>
</svg>