<svg xmlns="http://www.w3.org/2000/svg" width="24" height="24" viewBox="0 0 24 24">
  <defs>
    <linearGradient id="paint0_linear_21443_89069" x1="-0.879915" y1="8.58595" x2="26.2803" y2="8.59704" gradientUnits="userSpaceOnUse">
      <stop offset="0.0001" stop-color="#7332D6"/>
      <stop offset="0.50005" stop-color="#32155A"/>
      <stop offset="1" stop-color="#5D28AC"/>
    </linearGradient>
  </defs>
  <path fill="url(#paint0_linear_21443_89069)" d="M7.038,6.627 Q8.871,5.683 10.977,2.58 L10.977,2.579 Q12,1.072 12.451,0.905 Q13.069,0.677 13.656,0.978 Q14.084,1.198 14.874,2.733 L15.282,3.525 Q18.504,2.137 20.217,5.463 Q21.93,8.79 18.93,10.607 L19.337,11.399 Q20.128,12.934 20.058,13.41 Q19.963,14.062 19.418,14.433 Q19.02,14.704 17.198,14.661 Q13.673,14.578 11.841,15.408 L14.015,19.629 Q14.182,19.954 14.228,20.068 Q14.989,21.98 13.258,23.095 Q13.156,23.16 12.831,23.328 Q12.569,23.462 12.475,23.502 Q10.958,24.132 9.778,22.991 Q9.703,22.919 9.51,22.698 L5.226,17.82 Q5.186,17.774 5.159,17.724 Q4.816,17.662 4.468,17.551 Q2.496,16.92 1.548,15.078 Q0.6,13.237 1.231,11.265 Q1.862,9.292 3.704,8.344 L6.815,6.741 Z M17.815,10.628 L13.985,3.191 Q13.342,1.941 13.199,1.868 Q13.003,1.767 12.797,1.843 Q12.647,1.899 11.805,3.14 L11.804,3.141 Q9.675,6.279 7.715,7.397 L11.383,14.519 Q13.432,13.572 17.222,13.661 Q18.723,13.697 18.855,13.606 Q19.037,13.483 19.069,13.265 Q19.092,13.107 18.448,11.857 L17.823,10.643 Q17.821,10.639 17.819,10.635 Q17.817,10.632 17.815,10.628 Z M10.491,14.972 L6.829,7.859 L4.162,9.233 Q2.689,9.992 2.183,11.57 Q1.678,13.148 2.437,14.62 Q3.195,16.093 4.773,16.599 Q6.351,17.104 7.824,16.345 Z M10.949,15.861 L8.282,17.234 Q7.415,17.681 6.519,17.777 L10.261,22.039 Q10.428,22.228 10.472,22.271 Q11.181,22.957 12.091,22.578 Q12.148,22.555 12.373,22.439 Q12.656,22.293 12.718,22.253 Q13.755,21.585 13.299,20.438 Q13.271,20.369 13.126,20.087 Z M15.743,4.419 L18.469,9.713 Q20.582,8.356 19.328,5.921 Q18.074,3.487 15.743,4.419 Z"/>
</svg>