<svg xmlns="http://www.w3.org/2000/svg" width="24" height="24" viewBox="0 0 24 24">
  <defs/>
  <path fill="#292D32" d="M15.998,22.32 C15.658,22.32 15.328,22.22 15.038,22.03 L10.778,19.19 L8.888,19.19 C8.658,19.19 8.438,19.08 8.298,18.9 C8.158,18.71 8.108,18.47 8.168,18.25 C8.228,18.01 8.258,17.77 8.258,17.51 C8.258,16.71 7.958,15.94 7.418,15.34 C6.808,14.65 5.938,14.26 5.008,14.26 C4.118,14.26 3.298,14.61 2.678,15.24 C2.488,15.44 2.198,15.51 1.938,15.44 C1.678,15.36 1.468,15.15 1.408,14.88 C1.308,14.44 1.258,13.96 1.258,13.44 L1.258,7.44 C1.258,4 3.568,1.69 7.008,1.69 L17.008,1.69 C20.448,1.69 22.758,4 22.758,7.44 L22.758,13.44 C22.758,15.11 22.208,16.55 21.158,17.6 C20.278,18.48 19.108,19.01 17.758,19.15 L17.758,20.57 C17.758,21.22 17.398,21.81 16.828,22.12 C16.558,22.25 16.278,22.32 15.998,22.32 Z M9.748,17.68 L10.998,17.68 C11.148,17.68 11.288,17.72 11.418,17.81 L15.868,20.78 C15.978,20.85 16.068,20.82 16.118,20.79 C16.168,20.76 16.258,20.7 16.258,20.56 L16.258,18.43 C16.258,18.02 16.598,17.68 17.008,17.68 C18.278,17.68 19.348,17.28 20.098,16.53 C20.858,15.77 21.258,14.7 21.258,13.43 L21.258,7.43 C21.258,4.85 19.588,3.18 17.008,3.18 L7.008,3.18 C4.428,3.18 2.758,4.85 2.758,7.43 L2.758,13.31 C3.438,12.94 4.208,12.75 5.008,12.75 C6.368,12.75 7.658,13.33 8.538,14.33 C9.318,15.2 9.758,16.32 9.758,17.5 C9.748,17.56 9.748,17.62 9.748,17.68 Z"/>
  <path fill="#292D32" d="M5,22.25 C3.34,22.25 1.78,21.37 0.94,19.94 C0.49,19.22 0.25,18.37 0.25,17.5 C0.25,16.04 0.9,14.69 2.03,13.79 C2.87,13.12 3.93,12.75 5,12.75 C7.62,12.75 9.75,14.88 9.75,17.5 C9.75,18.37 9.51,19.22 9.06,19.95 C8.81,20.37 8.49,20.75 8.11,21.07 C7.28,21.83 6.17,22.25 5,22.25 Z M5,14.25 C4.26,14.25 3.56,14.5 2.97,14.97 C2.2,15.58 1.75,16.51 1.75,17.5 C1.75,18.09 1.91,18.67 2.22,19.17 C2.8,20.15 3.87,20.75 5,20.75 C5.79,20.75 6.55,20.46 7.13,19.94 C7.39,19.72 7.61,19.46 7.77,19.18 C8.09,18.67 8.25,18.09 8.25,17.5 C8.25,15.71 6.79,14.25 5,14.25 Z"/>
  <path fill="#292D32" d="M4.433,19.24 C4.243,19.24 4.053,19.17 3.903,19.02 L2.913,18.03 C2.623,17.74 2.623,17.26 2.913,16.97 C3.203,16.68 3.683,16.68 3.973,16.97 L4.453,17.45 L6.053,15.97 C6.353,15.69 6.833,15.71 7.113,16.01 C7.393,16.31 7.373,16.79 7.073,17.07 L4.943,19.04 C4.793,19.17 4.613,19.24 4.433,19.24 Z"/>
  <path fill="#292D32" d="M15.5,11.25 L8.5,11.25 C8.09,11.25 7.75,10.91 7.75,10.5 C7.75,10.09 8.09,9.75 8.5,9.75 L15.5,9.75 C15.91,9.75 16.25,10.09 16.25,10.5 C16.25,10.91 15.91,11.25 15.5,11.25 Z"/>
</svg>