<svg xmlns="http://www.w3.org/2000/svg" width="24" height="24" viewBox="0 0 24 24">
  <defs/>
  <path fill="#292D32" d="M15.998,22.32 C15.658,22.32 15.328,22.22 15.038,22.03 L10.778,19.19 L8.888,19.19 C8.658,19.19 8.438,19.08 8.298,18.9 C8.158,18.71 8.108,18.47 8.168,18.25 C8.228,18.01 8.258,17.77 8.258,17.51 C8.258,16.71 7.958,15.94 7.418,15.34 C6.808,14.65 5.938,14.26 5.008,14.26 C4.118,14.26 3.288,14.61 2.678,15.24 C2.488,15.44 2.198,15.52 1.938,15.44 C1.678,15.36 1.468,15.15 1.408,14.88 C1.308,14.44 1.258,13.96 1.258,13.44 L1.258,7.44 C1.258,4 3.568,1.69 7.008,1.69 L17.008,1.69 C20.448,1.69 22.758,4 22.758,7.44 L22.758,13.44 C22.758,15.11 22.208,16.55 21.158,17.6 C20.278,18.48 19.108,19.01 17.758,19.15 L17.758,20.57 C17.758,21.22 17.398,21.81 16.828,22.12 C16.558,22.25 16.278,22.32 15.998,22.32 Z M9.748,17.68 L10.998,17.68 C11.148,17.68 11.288,17.72 11.418,17.81 L15.868,20.78 C15.968,20.85 16.068,20.82 16.118,20.79 C16.168,20.76 16.258,20.7 16.258,20.56 L16.258,18.43 C16.258,18.02 16.598,17.68 17.008,17.68 C18.278,17.68 19.348,17.28 20.098,16.53 C20.858,15.77 21.258,14.7 21.258,13.43 L21.258,7.43 C21.258,4.85 19.588,3.18 17.008,3.18 L7.008,3.18 C4.428,3.18 2.758,4.85 2.758,7.43 L2.758,13.31 C3.438,12.94 4.208,12.75 5.008,12.75 C6.368,12.75 7.658,13.33 8.538,14.33 C9.318,15.2 9.758,16.33 9.758,17.5 C9.748,17.56 9.748,17.62 9.748,17.68 Z"/>
  <path fill="#292D32" d="M5,22.25 C3.82,22.25 2.7,21.81 1.83,21.02 C1.48,20.72 1.17,20.35 0.93,19.94 C0.49,19.22 0.25,18.37 0.25,17.5 C0.25,16.25 0.73,15.08 1.59,14.19 C2.49,13.26 3.7,12.75 5,12.75 C6.36,12.75 7.65,13.33 8.53,14.33 C9.31,15.2 9.75,16.33 9.75,17.5 C9.75,17.88 9.7,18.26 9.6,18.62 C9.5,19.07 9.31,19.54 9.05,19.95 C8.22,21.37 6.66,22.25 5,22.25 Z M5,14.25 C4.11,14.25 3.28,14.6 2.67,15.23 C2.08,15.84 1.75,16.64 1.75,17.5 C1.75,18.09 1.91,18.67 2.22,19.17 C2.38,19.45 2.59,19.7 2.83,19.91 C3.43,20.46 4.2,20.76 5,20.76 C6.15,20.76 7.19,20.17 7.78,19.19 C7.96,18.91 8.08,18.6 8.15,18.28 C8.22,18.02 8.25,17.77 8.25,17.51 C8.25,16.71 7.95,15.94 7.41,15.34 C6.81,14.64 5.93,14.25 5,14.25 Z"/>
  <path fill="#292D32" d="M6.068,19.29 C5.878,19.29 5.688,19.22 5.538,19.07 L3.428,16.96 C3.138,16.67 3.138,16.19 3.428,15.9 C3.718,15.61 4.198,15.61 4.488,15.9 L6.598,18.01 C6.888,18.3 6.888,18.78 6.598,19.07 C6.448,19.22 6.258,19.29 6.068,19.29 Z"/>
  <path fill="#292D32" d="M3.927,19.32 C3.737,19.32 3.547,19.25 3.397,19.1 C3.107,18.81 3.107,18.33 3.397,18.04 L5.507,15.93 C5.797,15.64 6.277,15.64 6.567,15.93 C6.857,16.22 6.857,16.7 6.567,16.99 L4.457,19.1 C4.307,19.25 4.117,19.32 3.927,19.32 Z"/>
  <path fill="#292D32" d="M15.5,11.25 L8.5,11.25 C8.09,11.25 7.75,10.91 7.75,10.5 C7.75,10.09 8.09,9.75 8.5,9.75 L15.5,9.75 C15.91,9.75 16.25,10.09 16.25,10.5 C16.25,10.91 15.91,11.25 15.5,11.25 Z"/>
</svg>