<svg xmlns="http://www.w3.org/2000/svg" width="24" height="24" viewBox="0 0 24 24">
  <defs/>
  <path fill="#292D32" d="M17.868,21.87 C17.558,21.87 17.248,21.79 16.968,21.62 L12.958,19.24 C12.538,19.23 12.118,19.2 11.718,19.14 C11.448,19.1 11.218,18.92 11.118,18.66 C11.018,18.4 11.068,18.12 11.248,17.91 C11.908,17.14 12.248,16.22 12.248,15.24 C12.248,12.82 10.118,10.85 7.498,10.85 C6.518,10.85 5.578,11.12 4.788,11.64 C4.568,11.78 4.298,11.8 4.058,11.69 C3.828,11.58 3.658,11.36 3.628,11.1 C3.598,10.82 3.578,10.54 3.578,10.25 C3.578,5.29 7.878,1.26 13.158,1.26 C18.438,1.26 22.738,5.29 22.738,10.25 C22.738,12.97 21.478,15.47 19.258,17.18 L19.598,19.9 C19.678,20.58 19.378,21.22 18.808,21.59 C18.528,21.77 18.198,21.87 17.868,21.87 Z M13.148,17.73 C13.288,17.72 13.428,17.76 13.548,17.84 L17.738,20.33 C17.848,20.4 17.938,20.37 17.998,20.33 C18.048,20.3 18.128,20.22 18.108,20.08 L17.718,16.92 C17.688,16.64 17.808,16.37 18.028,16.21 C20.068,14.78 21.238,12.6 21.238,10.23 C21.238,6.1 17.618,2.74 13.158,2.74 C8.868,2.74 5.348,5.86 5.088,9.78 C5.838,9.49 6.648,9.33 7.488,9.33 C10.938,9.33 13.738,11.97 13.738,15.22 C13.748,16.1 13.538,16.95 13.148,17.73 Z"/>
  <path fill="#292D32" d="M4.578,22.75 C4.318,22.75 4.068,22.68 3.838,22.53 C3.388,22.24 3.148,21.74 3.208,21.21 L3.408,19.67 C2.058,18.57 1.258,16.94 1.258,15.23 C1.258,13.28 2.278,11.46 3.988,10.37 C5.018,9.7 6.238,9.34 7.508,9.34 C10.958,9.34 13.758,11.98 13.758,15.23 C13.758,16.55 13.278,17.85 12.398,18.88 C11.268,20.25 9.578,21.05 7.718,21.11 L5.278,22.56 C5.058,22.69 4.818,22.75 4.578,22.75 Z M7.498,10.84 C6.518,10.84 5.578,11.11 4.788,11.63 C3.508,12.45 2.748,13.79 2.748,15.23 C2.748,16.62 3.428,17.89 4.628,18.71 C4.858,18.87 4.978,19.14 4.948,19.42 L4.728,21.13 L7.118,19.71 C7.238,19.64 7.368,19.6 7.498,19.6 C8.968,19.6 10.358,18.97 11.238,17.9 C11.898,17.12 12.248,16.2 12.248,15.22 C12.248,12.81 10.118,10.84 7.498,10.84 Z"/>
</svg>