<svg xmlns="http://www.w3.org/2000/svg" width="24" height="24" viewBox="0 0 24 24">
  <defs/>
  <path fill="#292D32" d="M12,22.81 C11.31,22.81 10.66,22.46 10.2,21.85 L8.7,19.85 C8.67,19.81 8.55,19.75 8.49,19.75 L8,19.75 C3.83,19.75 1.25,18.62 1.25,13 L1.25,8 C1.25,3.58 3.58,1.25 8,1.25 L12,1.25 C12.41,1.25 12.75,1.59 12.75,2 C12.75,2.41 12.41,2.75 12,2.75 L8,2.75 C4.42,2.75 2.75,4.42 2.75,8 L2.75,13 C2.75,17.52 4.3,18.25 8,18.25 L8.5,18.25 C9.01,18.25 9.59,18.54 9.9,18.95 L11.4,20.95 C11.75,21.41 12.25,21.41 12.6,20.95 L14.1,18.95 C14.43,18.51 14.95,18.25 15.5,18.25 L16,18.25 C19.58,18.25 21.25,16.58 21.25,13 L21.25,8 C21.25,7.59 21.59,7.25 22,7.25 C22.41,7.25 22.75,7.59 22.75,8 L22.75,13 C22.75,17.42 20.42,19.75 16,19.75 L15.5,19.75 C15.42,19.75 15.35,19.79 15.3,19.85 L13.8,21.85 C13.34,22.46 12.69,22.81 12,22.81 Z"/>
  <path fill="#292D32" d="M12,12 C11.44,12 11,11.55 11,11 C11,10.45 11.45,10 12,10 C12.55,10 13,10.45 13,11 C13,11.55 12.56,12 12,12 Z"/>
  <path fill="#292D32" d="M16,12 C15.44,12 15,11.55 15,11 C15,10.45 15.45,10 16,10 C16.55,10 17,10.45 17,11 C17,11.55 16.56,12 16,12 Z"/>
  <path fill="#292D32" d="M8,12 C7.44,12 7,11.55 7,11 C7,10.45 7.45,10 8,10 C8.55,10 9,10.45 9,11 C9,11.55 8.56,12 8,12 Z"/>
  <path fill="#292D32" d="M17.998,7.75 C17.139,7.75 15.108,6.73 14.489,4.86 C14.239,4.12 14.299,3.27 14.649,2.6 C14.959,2 15.479,1.56 16.119,1.36 C16.768,1.16 17.459,1.25 17.998,1.58 C18.538,1.25 19.229,1.16 19.889,1.36 C20.529,1.56 21.049,2 21.358,2.6 C21.709,3.27 21.768,4.12 21.518,4.86 C20.889,6.76 18.768,7.75 17.998,7.75 Z M15.909,4.38 C16.328,5.64 17.759,6.22 18.018,6.25 C18.308,6.22 19.709,5.57 20.099,4.39 C20.218,4.03 20.189,3.6 20.029,3.29 C19.898,3.04 19.709,2.88 19.448,2.8 C19.169,2.7 18.788,2.75 18.619,3 C18.479,3.2 18.259,3.32 18.018,3.33 C17.779,3.33 17.549,3.22 17.398,3.03 C17.189,2.76 16.819,2.72 16.549,2.8 C16.288,2.88 16.099,3.04 15.969,3.29 C15.819,3.6 15.789,4.02 15.909,4.38 Z"/>
</svg>