<svg xmlns="http://www.w3.org/2000/svg" width="24" height="24" viewBox="0 0 24 24">
  <defs/>
  <path fill="#292D32" d="M12,16.25 C9.38,16.25 7.25,14.12 7.25,11.5 L7.25,6 C7.25,3.38 9.38,1.25 12,1.25 C14.62,1.25 16.75,3.38 16.75,6 L16.75,11.5 C16.75,14.12 14.62,16.25 12,16.25 Z M12,2.75 C10.21,2.75 8.75,4.21 8.75,6 L8.75,11.5 C8.75,13.29 10.21,14.75 12,14.75 C13.79,14.75 15.25,13.29 15.25,11.5 L15.25,6 C15.25,4.21 13.79,2.75 12,2.75 Z"/>
  <path fill="#292D32" d="M12.002,19.75 C7.372,19.75 3.602,15.98 3.602,11.35 L3.602,9.65 C3.602,9.24 3.942,8.9 4.352,8.9 C4.762,8.9 5.102,9.24 5.102,9.65 L5.102,11.35 C5.102,15.15 8.202,18.25 12.002,18.25 C15.802,18.25 18.902,15.15 18.902,11.35 L18.902,9.65 C18.902,9.24 19.242,8.9 19.652,8.9 C20.062,8.9 20.402,9.24 20.402,9.65 L20.402,11.35 C20.402,15.98 16.632,19.75 12.002,19.75 Z"/>
  <path fill="#292D32" d="M13.392,7.18 C13.312,7.18 13.222,7.17 13.132,7.14 C12.402,6.87 11.602,6.87 10.872,7.14 C10.482,7.28 10.052,7.08 9.912,6.69 C9.772,6.3 9.972,5.87 10.362,5.73 C11.422,5.35 12.592,5.35 13.652,5.73 C14.042,5.87 14.242,6.3 14.102,6.69 C13.982,6.99 13.692,7.18 13.392,7.18 Z"/>
  <path fill="#292D32" d="M12.802,9.3 C12.732,9.3 12.672,9.29 12.602,9.27 C12.202,9.16 11.792,9.16 11.392,9.27 C10.992,9.38 10.582,9.14 10.472,8.74 C10.362,8.35 10.602,7.94 11.002,7.83 C11.652,7.65 12.352,7.65 13.002,7.83 C13.402,7.94 13.642,8.35 13.532,8.75 C13.442,9.08 13.132,9.3 12.802,9.3 Z"/>
  <path fill="#292D32" d="M12,22.75 C11.59,22.75 11.25,22.41 11.25,22 L11.25,19 C11.25,18.59 11.59,18.25 12,18.25 C12.41,18.25 12.75,18.59 12.75,19 L12.75,22 C12.75,22.41 12.41,22.75 12,22.75 Z"/>
</svg>