<svg xmlns="http://www.w3.org/2000/svg" width="24" height="24" viewBox="0 0 24 24">
  <defs/>
  <path fill="#292D32" d="M7.39,17.59 C7.18,17.59 6.96,17.5 6.81,17.32 C5.8,16.11 5.25,14.58 5.25,13 L5.25,8 C5.25,4.28 8.28,1.25 12,1.25 C15.1,1.25 17.79,3.35 18.55,6.35 C18.65,6.75 18.41,7.16 18.01,7.26 C17.62,7.36 17.2,7.12 17.1,6.72 C16.5,4.38 14.41,2.75 12,2.75 C9.11,2.75 6.75,5.1 6.75,8 L6.75,13 C6.75,14.23 7.18,15.42 7.96,16.36 C8.23,16.68 8.18,17.15 7.86,17.42 C7.73,17.53 7.56,17.59 7.39,17.59 Z"/>
  <path fill="#292D32" d="M12.002,19.75 C11.192,19.75 10.402,19.61 9.662,19.33 C9.272,19.19 9.072,18.75 9.222,18.37 C9.362,17.98 9.802,17.78 10.182,17.93 C10.762,18.15 11.382,18.26 12.002,18.26 C14.892,18.26 17.252,15.91 17.252,13.01 L17.252,9.98 C17.252,9.57 17.592,9.23 18.002,9.23 C18.412,9.23 18.752,9.57 18.752,9.98 L18.752,13 C18.752,16.72 15.722,19.75 12.002,19.75 Z"/>
  <path fill="#292D32" d="M11.998,22.75 C9.517,22.75 7.157,21.82 5.347,20.13 C5.047,19.85 5.027,19.37 5.307,19.07 C5.587,18.77 6.067,18.75 6.367,19.03 C7.897,20.46 9.897,21.24 11.988,21.24 C16.538,21.24 20.238,17.54 20.238,12.99 L20.238,10.99 C20.238,10.58 20.578,10.24 20.988,10.24 C21.398,10.24 21.738,10.58 21.738,10.99 L21.738,12.99 C21.747,18.38 17.378,22.75 11.998,22.75 Z"/>
  <path fill="#292D32" d="M2.498,22.74 C2.308,22.74 2.118,22.67 1.968,22.52 C1.677,22.23 1.677,21.75 1.968,21.46 L20.968,2.46 C21.258,2.17 21.738,2.17 22.027,2.46 C22.317,2.75 22.317,3.23 22.027,3.52 L3.027,22.52 C2.877,22.67 2.688,22.74 2.498,22.74 Z"/>
  <path fill="#292D32" d="M11.547,6.25 C11.137,6.25 10.797,5.91 10.797,5.5 L10.797,2.26 C10.797,1.85 11.137,1.51 11.547,1.51 C11.957,1.51 12.297,1.85 12.297,2.26 L12.297,5.5 C12.297,5.92 11.957,6.25 11.547,6.25 Z"/>
  <path fill="#292D32" d="M8.5,8.25 C8.09,8.25 7.75,7.91 7.75,7.5 L7.75,3.5 C7.75,3.09 8.09,2.75 8.5,2.75 C8.91,2.75 9.25,3.09 9.25,3.5 L9.25,7.5 C9.25,7.91 8.91,8.25 8.5,8.25 Z"/>
</svg>