<svg xmlns="http://www.w3.org/2000/svg" width="24" height="24" viewBox="0 0 24 24">
  <defs/>
  <path fill="#292D32" d="M8,11.75 C7.59,11.75 7.25,11.41 7.25,11 L7.25,6 C7.25,3.38 9.38,1.25 12,1.25 C14.62,1.25 16.75,3.38 16.75,6 L16.75,6.3 C16.75,6.71 16.41,7.05 16,7.05 C15.59,7.05 15.25,6.71 15.25,6.3 L15.25,6 C15.25,4.21 13.79,2.75 12,2.75 C10.21,2.75 8.75,4.21 8.75,6 L8.75,11 C8.75,11.41 8.41,11.75 8,11.75 Z"/>
  <path fill="#292D32" d="M12.003,16.25 C10.663,16.25 9.383,15.68 8.483,14.69 C8.203,14.38 8.233,13.91 8.533,13.63 C8.843,13.35 9.313,13.38 9.593,13.68 C10.203,14.36 11.083,14.75 12.003,14.75 C13.793,14.75 15.253,13.29 15.253,11.5 L15.253,11 C15.253,10.59 15.593,10.25 16.003,10.25 C16.413,10.25 16.753,10.59 16.753,11 L16.753,11.5 C16.753,14.12 14.623,16.25 12.003,16.25 Z"/>
  <path fill="#292D32" d="M11.999,19.75 C9.869,19.75 7.829,18.95 6.269,17.5 C5.969,17.22 5.949,16.74 6.229,16.44 C6.519,16.13 6.999,16.12 7.299,16.4 C8.579,17.59 10.249,18.25 11.999,18.25 C15.799,18.25 18.899,15.15 18.899,11.35 L18.899,9.65 C18.899,9.24 19.239,8.9 19.649,8.9 C20.059,8.9 20.399,9.24 20.399,9.65 L20.399,11.35 C20.399,15.98 16.629,19.75 11.999,19.75 Z"/>
  <path fill="#292D32" d="M4.952,15.08 C4.662,15.08 4.382,14.91 4.262,14.62 C3.822,13.58 3.602,12.49 3.602,11.35 L3.602,9.65 C3.602,9.24 3.942,8.9 4.352,8.9 C4.762,8.9 5.102,9.24 5.102,9.65 L5.102,11.35 C5.102,12.28 5.282,13.18 5.642,14.03 C5.802,14.41 5.622,14.85 5.242,15.01 C5.152,15.06 5.052,15.08 4.952,15.08 Z"/>
  <path fill="#292D32" d="M3.919,19.74 C3.729,19.74 3.539,19.67 3.389,19.52 C3.099,19.23 3.099,18.75 3.389,18.46 L19.539,2.31 C19.829,2.02 20.309,2.02 20.599,2.31 C20.889,2.6 20.889,3.08 20.599,3.37 L4.459,19.52 C4.309,19.67 4.119,19.74 3.919,19.74 Z"/>
  <path fill="#292D32" d="M11,6.75 C10.59,6.75 10.25,6.41 10.25,6 L10.25,3 C10.25,2.59 10.59,2.25 11,2.25 C11.41,2.25 11.75,2.59 11.75,3 L11.75,6 C11.75,6.41 11.41,6.75 11,6.75 Z"/>
  <path fill="#292D32" d="M12,22.75 C11.59,22.75 11.25,22.41 11.25,22 L11.25,19 C11.25,18.59 11.59,18.25 12,18.25 C12.41,18.25 12.75,18.59 12.75,19 L12.75,22 C12.75,22.41 12.41,22.75 12,22.75 Z"/>
</svg>