<svg xmlns="http://www.w3.org/2000/svg" width="24" height="24" viewBox="0 0 24 24">
  <defs/>
  <path fill="#292D32" d="M11,22.75 L9,22.75 C3.57,22.75 1.25,20.43 1.25,15 L1.25,9 C1.25,3.57 3.57,1.25 9,1.25 L15,1.25 C20.43,1.25 22.75,3.57 22.75,9 L22.75,10 C22.75,10.41 22.41,10.75 22,10.75 C21.59,10.75 21.25,10.41 21.25,10 L21.25,9 C21.25,4.39 19.61,2.75 15,2.75 L9,2.75 C4.39,2.75 2.75,4.39 2.75,9 L2.75,15 C2.75,19.61 4.39,21.25 9,21.25 L11,21.25 C11.41,21.25 11.75,21.59 11.75,22 C11.75,22.41 11.41,22.75 11,22.75 Z"/>
  <path fill="#292D32" d="M15.268,22.75 C14.058,22.75 13.078,21.77 13.078,20.56 C13.078,19.35 14.058,18.37 15.268,18.37 C16.478,18.37 17.458,19.35 17.458,20.56 C17.458,21.77 16.478,22.75 15.268,22.75 Z M15.268,19.86 C14.888,19.86 14.578,20.17 14.578,20.55 C14.578,20.93 14.888,21.24 15.268,21.24 C15.648,21.24 15.958,20.93 15.958,20.55 C15.958,20.17 15.648,19.86 15.268,19.86 Z"/>
  <path fill="#292D32" d="M16.711,21.31 C16.301,21.31 15.961,20.97 15.961,20.56 L15.961,14.74 C15.961,13.83 16.521,13.09 17.401,12.86 L20.291,12.07 C21.191,11.82 21.751,12.06 22.071,12.3 C22.381,12.54 22.751,13.02 22.751,13.95 L22.751,19.59 C22.751,20 22.411,20.34 22.001,20.34 C21.591,20.34 21.251,20 21.251,19.59 L21.251,13.95 C21.251,13.63 21.181,13.51 21.151,13.49 C21.121,13.47 20.981,13.43 20.671,13.51 L17.781,14.3 C17.481,14.38 17.451,14.59 17.451,14.74 L17.451,20.56 C17.461,20.97 17.121,21.31 16.711,21.31 Z"/>
  <path fill="#292D32" d="M20.557,21.79 C19.347,21.79 18.367,20.81 18.367,19.6 C18.367,18.39 19.347,17.41 20.557,17.41 C21.767,17.41 22.747,18.39 22.747,19.6 C22.747,20.81 21.767,21.79 20.557,21.79 Z M20.557,18.9 C20.177,18.9 19.867,19.21 19.867,19.59 C19.867,19.97 20.177,20.28 20.557,20.28 C20.937,20.28 21.247,19.97 21.247,19.59 C21.247,19.21 20.937,18.9 20.557,18.9 Z"/>
  <path fill="#292D32" d="M16.708,17.18 C16.378,17.18 16.078,16.96 15.988,16.63 C15.878,16.23 16.118,15.82 16.518,15.71 L21.808,14.27 C22.208,14.16 22.618,14.4 22.728,14.8 C22.838,15.2 22.598,15.61 22.198,15.72 L16.908,17.16 C16.838,17.17 16.768,17.18 16.708,17.18 Z"/>
</svg>