<svg xmlns="http://www.w3.org/2000/svg" width="24" height="24" viewBox="0 0 24 24">
  <defs/>
  <path fill="#292D32" d="M11.922,22.75 C6.002,22.75 1.172,17.93 1.172,12 C1.172,6.07 6.002,1.25 11.922,1.25 C17.842,1.25 22.672,6.07 22.672,12 C22.672,17.93 17.852,22.75 11.922,22.75 Z M11.922,2.75 C6.822,2.75 2.672,6.9 2.672,12 C2.672,17.1 6.822,21.25 11.922,21.25 C17.022,21.25 21.172,17.1 21.172,12 C21.172,6.9 17.022,2.75 11.922,2.75 Z"/>
  <path fill="#292D32" d="M15.922,12.75 L7.922,12.75 C7.512,12.75 7.172,12.41 7.172,12 C7.172,11.59 7.512,11.25 7.922,11.25 L15.922,11.25 C16.332,11.25 16.672,11.59 16.672,12 C16.672,12.41 16.342,12.75 15.922,12.75 Z"/>
</svg>