<svg xmlns="http://www.w3.org/2000/svg" width="24" height="24" viewBox="0 0 24 24">
  <defs/>
  <path fill="#292D32" d="M14.893,18.22 L6.103,18.22 C5.583,18.22 5.093,18.17 4.653,18.07 C4.423,18.04 4.143,17.96 3.853,17.85 C2.523,17.35 0.953,16.12 0.953,13.06 L0.953,7.91 C0.953,4.64 2.833,2.76 6.103,2.76 L14.893,2.76 C17.653,2.76 19.433,4.08 19.913,6.48 C20.003,6.92 20.043,7.39 20.043,7.91 L20.043,13.06 C20.043,16.35 18.173,18.22 14.893,18.22 Z M6.113,4.28 C3.653,4.28 2.463,5.47 2.463,7.93 L2.463,13.08 C2.463,14.87 3.093,15.97 4.383,16.46 C4.583,16.53 4.773,16.58 4.953,16.61 C5.333,16.69 5.703,16.73 6.113,16.73 L14.903,16.73 C17.363,16.73 18.553,15.54 18.553,13.08 L18.553,7.93 C18.553,7.51 18.523,7.14 18.453,6.8 C18.113,5.1 16.953,4.28 14.903,4.28 L6.113,4.28 Z"/>
  <path fill="#292D32" d="M17.887,21.22 L9.097,21.22 C8.247,21.22 7.487,21.1 6.837,20.85 C5.367,20.3 4.407,19.14 4.077,17.48 C4.027,17.23 4.107,16.97 4.287,16.8 C4.467,16.62 4.727,16.55 4.977,16.61 C5.307,16.68 5.677,16.72 6.097,16.72 L14.887,16.72 C17.347,16.72 18.537,15.53 18.537,13.07 L18.537,7.92 C18.537,7.5 18.507,7.13 18.437,6.79 C18.387,6.54 18.467,6.29 18.637,6.11 C18.817,5.93 19.067,5.85 19.317,5.91 C21.717,6.4 23.037,8.18 23.037,10.92 L23.037,16.07 C23.037,19.35 21.167,21.22 17.887,21.22 Z M5.917,18.22 C6.237,18.8 6.717,19.21 7.377,19.45 C7.857,19.63 8.437,19.72 9.107,19.72 L17.897,19.72 C20.357,19.72 21.547,18.53 21.547,16.07 L21.547,10.92 C21.547,9.34 21.057,8.29 20.047,7.74 C20.047,7.8 20.047,7.86 20.047,7.92 L20.047,13.07 C20.047,16.34 18.167,18.22 14.897,18.22 L6.107,18.22 C6.037,18.22 5.977,18.22 5.917,18.22 Z"/>
  <path fill="#292D32" d="M10.499,13.89 C8.629,13.89 7.109,12.37 7.109,10.5 C7.109,8.63 8.629,7.11 10.499,7.11 C12.369,7.11 13.889,8.63 13.889,10.5 C13.889,12.37 12.369,13.89 10.499,13.89 Z M10.499,8.61 C9.459,8.61 8.609,9.46 8.609,10.5 C8.609,11.54 9.459,12.39 10.499,12.39 C11.539,12.39 12.389,11.54 12.389,10.5 C12.389,9.46 11.539,8.61 10.499,8.61 Z"/>
  <path fill="#292D32" d="M4.781,13.45 C4.371,13.45 4.031,13.11 4.031,12.7 L4.031,8.3 C4.031,7.89 4.371,7.55 4.781,7.55 C5.191,7.55 5.531,7.89 5.531,8.3 L5.531,12.7 C5.531,13.11 5.201,13.45 4.781,13.45 Z"/>
  <path fill="#292D32" d="M16.211,13.45 C15.801,13.45 15.461,13.11 15.461,12.7 L15.461,8.3 C15.461,7.89 15.801,7.55 16.211,7.55 C16.621,7.55 16.961,7.89 16.961,8.3 L16.961,12.7 C16.961,13.11 16.631,13.45 16.211,13.45 Z"/>
</svg>