<svg xmlns="http://www.w3.org/2000/svg" width="24" height="24" viewBox="0 0 24 24">
  <defs/>
  <path fill="#4C4C4C" d="M14,6 C14,7.105 13.105,8 12,8 C10.895,8 10,7.105 10,6 C10,4.895 10.895,4 12,4 C13.105,4 14,4.895 14,6 Z"/>
  <path fill="#4C4C4C" d="M14,12 C14,13.105 13.105,14 12,14 C10.895,14 10,13.105 10,12 C10,10.895 10.895,10 12,10 C13.105,10 14,10.895 14,12 Z"/>
  <path fill="#4C4C4C" d="M14,18 C14,19.105 13.105,20 12,20 C10.895,20 10,19.105 10,18 C10,16.895 10.895,16 12,16 C13.105,16 14,16.895 14,18 Z"/>
</svg>