<svg xmlns="http://www.w3.org/2000/svg" width="24" height="24" viewBox="0 0 24 24">
  <defs/>
  <path fill="#292D32" d="M12.004,10.07 C10.404,10.07 9.094,8.76 9.094,7.16 C9.094,5.56 10.404,4.25 12.004,4.25 C13.604,4.25 14.914,5.56 14.914,7.16 C14.914,8.76 13.604,10.07 12.004,10.07 Z M12.004,5.75 C11.224,5.75 10.594,6.38 10.594,7.16 C10.594,7.94 11.224,8.57 12.004,8.57 C12.784,8.57 13.414,7.94 13.414,7.16 C13.414,6.38 12.784,5.75 12.004,5.75 Z"/>
  <path fill="#292D32" d="M6.793,19.75 C5.193,19.75 3.883,18.44 3.883,16.84 C3.883,15.24 5.193,13.93 6.793,13.93 C8.393,13.93 9.703,15.24 9.703,16.84 C9.703,18.44 8.393,19.75 6.793,19.75 Z M6.793,15.43 C6.013,15.43 5.383,16.06 5.383,16.84 C5.383,17.62 6.013,18.25 6.793,18.25 C7.573,18.25 8.203,17.62 8.203,16.84 C8.203,16.06 7.563,15.43 6.793,15.43 Z"/>
  <path fill="#292D32" d="M17.207,19.75 C15.607,19.75 14.297,18.44 14.297,16.84 C14.297,15.24 15.607,13.93 17.207,13.93 C18.807,13.93 20.117,15.24 20.117,16.84 C20.117,18.44 18.817,19.75 17.207,19.75 Z M17.207,15.43 C16.427,15.43 15.797,16.06 15.797,16.84 C15.797,17.62 16.427,18.25 17.207,18.25 C17.987,18.25 18.617,17.62 18.617,16.84 C18.617,16.06 17.987,15.43 17.207,15.43 Z"/>
</svg>