<svg xmlns="http://www.w3.org/2000/svg" width="24" height="24" viewBox="0 0 24 24">
  <defs/>
  <path fill="#292D32" d="M11.307,18 C11.297,18 11.297,18 11.287,18 C10.247,17.99 9.367,17.34 9.057,16.35 L7.107,10.07 C6.847,9.22 7.067,8.31 7.697,7.69 C8.317,7.07 9.217,6.85 10.057,7.11 L16.347,9.06 C17.347,9.37 17.997,10.25 18.007,11.29 C18.017,12.33 17.387,13.21 16.397,13.54 L14.677,14.12 C14.417,14.21 14.227,14.4 14.137,14.65 L13.547,16.38 C13.217,17.37 12.337,18 11.307,18 Z M9.337,8.5 C9.037,8.5 8.837,8.66 8.747,8.75 C8.517,8.98 8.437,9.31 8.537,9.62 L10.487,15.9 C10.657,16.45 11.147,16.5 11.297,16.5 C11.417,16.49 11.927,16.46 12.107,15.91 L12.697,14.18 C12.927,13.49 13.487,12.93 14.177,12.7 L15.897,12.12 C15.897,12.12 15.897,12.12 15.907,12.12 C16.457,11.94 16.497,11.45 16.497,11.31 C16.497,11.16 16.447,10.67 15.897,10.5 L9.607,8.55 C9.507,8.51 9.417,8.5 9.337,8.5 Z"/>
  <path fill="#292D32" d="M12,22.75 C6.07,22.75 1.25,17.93 1.25,12 C1.25,6.07 6.07,1.25 12,1.25 C17.93,1.25 22.75,6.07 22.75,12 C22.75,17.93 17.93,22.75 12,22.75 Z M12,2.75 C6.9,2.75 2.75,6.9 2.75,12 C2.75,17.1 6.9,21.25 12,21.25 C17.1,21.25 21.25,17.1 21.25,12 C21.25,6.9 17.1,2.75 12,2.75 Z"/>
</svg>