<svg xmlns="http://www.w3.org/2000/svg" width="24" height="24" viewBox="0 0 24 24">
  <defs/>
  <path fill="#292D32" d="M12,22.75 L9,22.75 C3.57,22.75 1.25,20.43 1.25,15 L1.25,9 C1.25,3.57 3.57,1.25 9,1.25 L15,1.25 C20.43,1.25 22.75,3.57 22.75,9 L22.75,12 C22.75,12.41 22.41,12.75 22,12.75 C21.59,12.75 21.25,12.41 21.25,12 L21.25,9 C21.25,4.39 19.61,2.75 15,2.75 L9,2.75 C4.39,2.75 2.75,4.39 2.75,9 L2.75,15 C2.75,19.61 4.39,21.25 9,21.25 L12,21.25 C12.41,21.25 12.75,21.59 12.75,22 C12.75,22.41 12.41,22.75 12,22.75 Z"/>
  <path fill="#292D32" d="M16.373,22.77 C16.363,22.77 16.363,22.77 16.353,22.77 C15.343,22.76 14.503,22.14 14.203,21.17 L12.353,15.22 C12.103,14.4 12.313,13.52 12.923,12.93 C13.523,12.34 14.393,12.12 15.193,12.37 L21.153,14.22 C22.113,14.52 22.743,15.36 22.753,16.37 C22.763,17.37 22.153,18.22 21.193,18.54 L19.563,19.09 C19.333,19.17 19.153,19.34 19.083,19.57 L18.523,21.21 C18.213,22.16 17.373,22.77 16.373,22.77 Z M14.513,13.77 C14.243,13.77 14.063,13.92 13.983,13.99 C13.773,14.2 13.703,14.49 13.793,14.78 L15.643,20.73 C15.803,21.24 16.223,21.26 16.383,21.27 C16.523,21.27 16.953,21.23 17.113,20.74 L17.673,19.1 C17.893,18.43 18.433,17.9 19.103,17.67 L20.733,17.12 C21.233,16.96 21.263,16.52 21.263,16.39 C21.263,16.26 21.223,15.82 20.723,15.66 L14.763,13.81 C14.663,13.78 14.583,13.77 14.513,13.77 Z"/>
</svg>