<svg xmlns="http://www.w3.org/2000/svg" width="24" height="24" viewBox="0 0 24 24">
  <defs/>
  <path fill="#292D32" d="M2.578,9.42 C2.498,9.42 2.408,9.41 2.328,9.38 C1.938,9.24 1.738,8.81 1.868,8.42 C2.538,6.54 3.698,4.89 5.248,3.64 C5.568,3.38 6.038,3.43 6.298,3.75 C6.558,4.07 6.508,4.54 6.188,4.81 C4.858,5.88 3.858,7.3 3.288,8.92 C3.178,9.23 2.888,9.42 2.578,9.42 Z"/>
  <path fill="#292D32" d="M2.58,16.08 C2.27,16.08 1.98,15.89 1.87,15.58 C1.46,14.41 1.25,13.21 1.25,12 C1.25,11.59 1.59,11.25 2,11.25 C2.41,11.25 2.75,11.59 2.75,12 C2.75,13.04 2.93,14.08 3.29,15.08 C3.43,15.47 3.22,15.9 2.83,16.04 C2.75,16.07 2.66,16.08 2.58,16.08 Z"/>
  <path fill="#292D32" d="M11.999,22.75 C10.939,22.75 9.889,22.59 8.869,22.28 C8.469,22.16 8.249,21.74 8.369,21.34 C8.489,20.94 8.909,20.72 9.309,20.84 C10.179,21.11 11.089,21.24 11.999,21.24 C17.099,21.24 21.249,17.09 21.249,11.99 C21.249,11.47 21.199,10.93 21.099,10.36 C21.029,9.95 21.299,9.56 21.709,9.49 C22.119,9.42 22.509,9.69 22.579,10.1 C22.699,10.76 22.759,11.38 22.759,12 C22.749,17.93 17.929,22.75 11.999,22.75 Z"/>
  <path fill="#292D32" d="M5.718,20.5 C5.548,20.5 5.388,20.45 5.248,20.33 C4.678,19.87 4.218,19.43 3.828,18.98 C3.558,18.67 3.598,18.19 3.908,17.92 C4.218,17.65 4.698,17.69 4.968,18 C5.298,18.38 5.698,18.76 6.188,19.16 C6.508,19.42 6.558,19.89 6.298,20.21 C6.158,20.4 5.938,20.5 5.718,20.5 Z"/>
  <path fill="#292D32" d="M20.242,7.09 C20.002,7.09 19.772,6.98 19.622,6.76 C17.892,4.24 15.042,2.74 12.002,2.74 C11.092,2.74 10.182,2.87 9.312,3.14 C8.922,3.26 8.502,3.04 8.372,2.64 C8.242,2.24 8.472,1.82 8.872,1.7 C9.892,1.39 10.942,1.23 12.002,1.23 C15.542,1.23 18.852,2.98 20.862,5.9 C21.092,6.24 21.012,6.71 20.672,6.94 C20.542,7.05 20.392,7.09 20.242,7.09 Z"/>
  <path fill="#292D32" d="M8.59,17.86 C7.3,17.86 6.25,16.81 6.25,15.52 C6.25,14.23 7.3,13.18 8.59,13.18 C9.88,13.18 10.93,14.23 10.93,15.52 C10.93,16.81 9.88,17.86 8.59,17.86 Z M8.59,14.68 C8.13,14.68 7.75,15.06 7.75,15.52 C7.75,15.98 8.13,16.36 8.59,16.36 C9.05,16.36 9.43,15.98 9.43,15.52 C9.43,15.06 9.05,14.68 8.59,14.68 Z"/>
  <path fill="#292D32" d="M10.18,16.27 C9.77,16.27 9.43,15.93 9.43,15.52 L9.43,9.12 C9.43,8.16 10.03,7.37 10.96,7.12 L14.14,6.25 C15.1,5.99 15.7,6.24 16.03,6.49 C16.51,6.86 16.75,7.45 16.75,8.25 L16.75,14.46 C16.75,14.87 16.41,15.21 16,15.21 C15.59,15.21 15.25,14.87 15.25,14.46 L15.25,8.25 C15.25,7.91 15.18,7.73 15.11,7.69 C15.04,7.64 14.83,7.62 14.52,7.7 L11.34,8.57 C11.06,8.65 10.92,8.83 10.92,9.12 L10.92,15.52 C10.93,15.93 10.59,16.27 10.18,16.27 Z"/>
  <path fill="#292D32" d="M14.41,16.8 C13.12,16.8 12.07,15.75 12.07,14.46 C12.07,13.17 13.12,12.12 14.41,12.12 C15.7,12.12 16.75,13.17 16.75,14.46 C16.75,15.75 15.7,16.8 14.41,16.8 Z M14.41,13.62 C13.95,13.62 13.57,14 13.57,14.46 C13.57,14.92 13.95,15.3 14.41,15.3 C14.87,15.3 15.25,14.92 15.25,14.46 C15.25,14 14.87,13.62 14.41,13.62 Z"/>
  <path fill="#292D32" d="M10.176,11.5 C9.846,11.5 9.546,11.28 9.456,10.95 C9.346,10.55 9.586,10.14 9.986,10.03 L15.806,8.44 C16.206,8.33 16.616,8.57 16.726,8.97 C16.836,9.37 16.596,9.78 16.196,9.89 L10.376,11.48 C10.306,11.5 10.236,11.5 10.176,11.5 Z"/>
</svg>