<svg xmlns="http://www.w3.org/2000/svg" width="24" height="24" viewBox="0 0 24 24">
  <defs/>
  <path fill="#292D32" d="M15,22.75 L9,22.75 C3.57,22.75 1.25,20.43 1.25,15 L1.25,9 C1.25,3.57 3.57,1.25 9,1.25 L15,1.25 C20.43,1.25 22.75,3.57 22.75,9 L22.75,15 C22.75,20.43 20.43,22.75 15,22.75 Z M9,2.75 C4.39,2.75 2.75,4.39 2.75,9 L2.75,15 C2.75,19.61 4.39,21.25 9,21.25 L15,21.25 C19.61,21.25 21.25,19.61 21.25,15 L21.25,9 C21.25,4.39 19.61,2.75 15,2.75 L9,2.75 Z"/>
  <path fill="#292D32" d="M8.422,17.86 C7.142,17.86 6.102,16.82 6.102,15.54 C6.102,14.26 7.142,13.22 8.422,13.22 C9.702,13.22 10.742,14.26 10.742,15.54 C10.742,16.82 9.702,17.86 8.422,17.86 Z M8.422,14.72 C7.972,14.72 7.602,15.09 7.602,15.54 C7.602,15.99 7.972,16.36 8.422,16.36 C8.872,16.36 9.242,15.99 9.242,15.54 C9.242,15.09 8.872,14.72 8.422,14.72 Z"/>
  <path fill="#292D32" d="M9.992,16.29 C9.582,16.29 9.242,15.95 9.242,15.54 L9.242,9.21 C9.242,8.25 9.842,7.47 10.762,7.22 L13.902,6.36 C14.852,6.1 15.452,6.35 15.782,6.6 C16.262,6.97 16.502,7.55 16.502,8.34 L16.502,14.48 C16.502,14.89 16.162,15.23 15.752,15.23 C15.342,15.23 15.002,14.89 15.002,14.48 L15.002,8.34 C15.002,8.01 14.932,7.83 14.872,7.79 C14.822,7.75 14.642,7.71 14.292,7.8 L11.152,8.66 C10.872,8.74 10.742,8.91 10.742,9.2 L10.742,15.53 C10.742,15.95 10.402,16.29 9.992,16.29 Z"/>
  <path fill="#292D32" d="M14.179,16.81 C12.899,16.81 11.859,15.77 11.859,14.49 C11.859,13.21 12.899,12.17 14.179,12.17 C15.459,12.17 16.499,13.21 16.499,14.49 C16.499,15.77 15.459,16.81 14.179,16.81 Z M14.179,13.67 C13.729,13.67 13.359,14.04 13.359,14.49 C13.359,14.94 13.729,15.31 14.179,15.31 C14.629,15.31 14.999,14.94 14.999,14.49 C14.999,14.04 14.629,13.67 14.179,13.67 Z"/>
  <path fill="#292D32" d="M9.989,11.79 C9.659,11.79 9.359,11.57 9.269,11.24 C9.159,10.84 9.399,10.43 9.799,10.32 L15.559,8.75 C15.969,8.64 16.369,8.88 16.479,9.28 C16.589,9.68 16.349,10.09 15.949,10.2 L10.189,11.77 C10.119,11.78 10.049,11.79 9.989,11.79 Z"/>
</svg>