<svg xmlns="http://www.w3.org/2000/svg" width="24" height="24" viewBox="0 0 24 24">
  <defs/>
  <path fill="#292D32" d="M14.35,21.75 L8.65,21.75 C3.46,21.75 1.25,19.54 1.25,14.35 L1.25,8.65 C1.25,3.46 3.46,1.25 8.65,1.25 L14.35,1.25 C19.54,1.25 21.75,3.46 21.75,8.65 L21.75,14.35 C21.75,14.71 21.74,15.05 21.72,15.38 C21.7,15.68 21.5,15.94 21.21,16.04 C20.92,16.14 20.61,16.05 20.4,15.83 C19.8,15.15 18.92,14.75 17.99,14.75 C16.2,14.75 14.74,16.21 14.74,18 C14.74,18.59 14.9,19.17 15.21,19.67 C15.37,19.95 15.58,20.2 15.82,20.41 C16.05,20.61 16.14,20.93 16.04,21.21 C15.94,21.5 15.68,21.7 15.38,21.72 C15.06,21.74 14.72,21.75 14.35,21.75 Z M8.65,2.75 C4.29,2.75 2.75,4.29 2.75,8.65 L2.75,14.35 C2.75,18.71 4.29,20.25 8.65,20.25 L13.82,20.25 C13.45,19.57 13.25,18.8 13.25,18 C13.25,15.38 15.38,13.25 18,13.25 C18.8,13.25 19.57,13.45 20.25,13.81 L20.25,8.65 C20.25,4.29 18.71,2.75 14.35,2.75 L8.65,2.75 Z"/>
  <path fill="#292D32" d="M6.723,15.17 C5.513,15.17 4.523,14.18 4.523,12.97 C4.523,11.76 5.513,10.77 6.723,10.77 C7.933,10.77 8.923,11.76 8.923,12.97 C8.923,14.18 7.933,15.17 6.723,15.17 Z M6.723,12.27 C6.343,12.27 6.023,12.58 6.023,12.97 C6.023,13.35 6.333,13.67 6.723,13.67 C7.113,13.67 7.423,13.36 7.423,12.97 C7.423,12.58 7.113,12.27 6.723,12.27 Z"/>
  <path fill="#292D32" d="M8.172,13.72 C7.762,13.72 7.422,13.38 7.422,12.97 L7.422,7.14 C7.422,6.23 7.992,5.49 8.862,5.25 L11.762,4.46 C12.662,4.21 13.232,4.45 13.542,4.69 C13.852,4.93 14.232,5.41 14.232,6.34 L14.232,12 C14.232,12.41 13.892,12.75 13.482,12.75 C13.072,12.75 12.732,12.41 12.732,12 L12.732,6.34 C12.732,6.02 12.662,5.9 12.632,5.88 C12.602,5.86 12.462,5.82 12.152,5.9 L9.262,6.69 C8.962,6.77 8.922,6.98 8.922,7.13 L8.922,12.96 C8.922,13.38 8.582,13.72 8.172,13.72 Z"/>
  <path fill="#292D32" d="M12.028,14.2 C10.818,14.2 9.828,13.21 9.828,12 C9.828,10.79 10.818,9.8 12.028,9.8 C13.238,9.8 14.228,10.79 14.228,12 C14.228,13.22 13.238,14.2 12.028,14.2 Z M12.028,11.31 C11.648,11.31 11.328,11.62 11.328,12.01 C11.328,12.39 11.638,12.71 12.028,12.71 C12.418,12.71 12.728,12.4 12.728,12.01 C12.728,11.62 12.408,11.31 12.028,11.31 Z"/>
  <path fill="#292D32" d="M8.169,9.58 C7.839,9.58 7.539,9.36 7.449,9.03 C7.339,8.63 7.579,8.22 7.979,8.11 L13.289,6.66 C13.689,6.56 14.099,6.79 14.209,7.19 C14.319,7.59 14.079,8 13.679,8.11 L8.369,9.56 C8.299,9.57 8.229,9.58 8.169,9.58 Z"/>
  <path fill="#292D32" d="M18,22.75 C16.34,22.75 14.78,21.87 13.94,20.44 C13.49,19.72 13.25,18.87 13.25,18 C13.25,15.38 15.38,13.25 18,13.25 C20.62,13.25 22.75,15.38 22.75,18 C22.75,18.87 22.51,19.72 22.06,20.45 C21.22,21.87 19.66,22.75 18,22.75 Z M18,14.75 C16.21,14.75 14.75,16.21 14.75,18 C14.75,18.59 14.91,19.17 15.22,19.67 C15.81,20.67 16.85,21.25 18,21.25 C19.15,21.25 20.19,20.66 20.78,19.68 C21.09,19.17 21.25,18.6 21.25,18 C21.25,16.21 19.79,14.75 18,14.75 Z"/>
  <path fill="#292D32" d="M19.49,18.73 L16.5,18.73 C16.09,18.73 15.75,18.39 15.75,17.98 C15.75,17.57 16.09,17.23 16.5,17.23 L19.49,17.23 C19.9,17.23 20.24,17.57 20.24,17.98 C20.24,18.39 19.91,18.73 19.49,18.73 Z"/>
  <path fill="#292D32" d="M18,20.26 C17.59,20.26 17.25,19.92 17.25,19.51 L17.25,16.52 C17.25,16.11 17.59,15.77 18,15.77 C18.41,15.77 18.75,16.11 18.75,16.52 L18.75,19.51 C18.75,19.93 18.41,20.26 18,20.26 Z"/>
</svg>