<svg xmlns="http://www.w3.org/2000/svg" width="24" height="24" viewBox="0 0 24 24">
  <defs/>
  <path fill="#292D32" d="M22,3.75 L2,3.75 C1.59,3.75 1.25,3.41 1.25,3 C1.25,2.59 1.59,2.25 2,2.25 L22,2.25 C22.41,2.25 22.75,2.59 22.75,3 C22.75,3.41 22.41,3.75 22,3.75 Z"/>
  <path fill="#292D32" d="M11,9.75 L2,9.75 C1.59,9.75 1.25,9.41 1.25,9 C1.25,8.59 1.59,8.25 2,8.25 L11,8.25 C11.41,8.25 11.75,8.59 11.75,9 C11.75,9.41 11.41,9.75 11,9.75 Z"/>
  <path fill="#292D32" d="M8,15.75 L2,15.75 C1.59,15.75 1.25,15.41 1.25,15 C1.25,14.59 1.59,14.25 2,14.25 L8,14.25 C8.41,14.25 8.75,14.59 8.75,15 C8.75,15.41 8.41,15.75 8,15.75 Z"/>
  <path fill="#292D32" d="M6,21.75 L2,21.75 C1.59,21.75 1.25,21.41 1.25,21 C1.25,20.59 1.59,20.25 2,20.25 L6,20.25 C6.41,20.25 6.75,20.59 6.75,21 C6.75,21.41 6.41,21.75 6,21.75 Z"/>
  <path fill="#292D32" d="M11.836,22.75 C10.226,22.75 8.906,21.44 8.906,19.82 C8.906,18.21 10.216,16.89 11.836,16.89 C13.456,16.89 14.766,18.2 14.766,19.82 C14.766,21.44 13.456,22.75 11.836,22.75 Z M11.836,18.4 C11.046,18.4 10.406,19.04 10.406,19.83 C10.406,20.62 11.046,21.26 11.836,21.26 C12.626,21.26 13.266,20.62 13.266,19.83 C13.266,19.04 12.626,18.4 11.836,18.4 Z"/>
  <path fill="#292D32" d="M14.023,20.57 C13.613,20.57 13.273,20.23 13.273,19.82 L13.273,11.05 C13.273,9.84 13.993,8.89 15.163,8.58 L19.513,7.39 C20.463,7.13 21.283,7.23 21.863,7.68 C22.443,8.13 22.743,8.86 22.743,9.87 L22.743,18.38 C22.743,18.79 22.403,19.13 21.993,19.13 C21.583,19.13 21.243,18.79 21.243,18.38 L21.243,9.87 C21.243,9.37 21.143,9.02 20.953,8.88 C20.763,8.73 20.373,8.72 19.903,8.85 L15.553,10.04 C15.263,10.12 14.773,10.36 14.773,11.07 L14.773,19.84 C14.773,20.24 14.433,20.57 14.023,20.57 Z"/>
  <path fill="#292D32" d="M19.821,21.3 C18.211,21.3 16.891,19.99 16.891,18.37 C16.891,16.76 18.201,15.44 19.821,15.44 C21.441,15.44 22.751,16.75 22.751,18.37 C22.751,19.99 21.441,21.3 19.821,21.3 Z M19.821,16.95 C19.031,16.95 18.391,17.59 18.391,18.38 C18.391,19.17 19.031,19.81 19.821,19.81 C20.611,19.81 21.251,19.17 21.251,18.38 C21.251,17.59 20.611,16.95 19.821,16.95 Z"/>
  <path fill="#292D32" d="M14.02,14.35 C13.69,14.35 13.39,14.13 13.3,13.8 C13.19,13.4 13.43,12.99 13.83,12.88 L21.81,10.7 C22.21,10.59 22.62,10.83 22.73,11.23 C22.84,11.63 22.6,12.04 22.2,12.15 L14.22,14.33 C14.15,14.34 14.08,14.35 14.02,14.35 Z"/>
</svg>