<svg xmlns="http://www.w3.org/2000/svg" width="24" height="24" viewBox="0 0 24 24">
  <defs/>
  <path fill="#292D32" d="M7.969,22.75 C5.349,22.75 3.219,20.62 3.219,18 C3.219,15.38 5.349,13.25 7.969,13.25 C10.589,13.25 12.719,15.38 12.719,18 C12.719,20.62 10.589,22.75 7.969,22.75 Z M7.969,14.75 C6.179,14.75 4.719,16.21 4.719,18 C4.719,19.79 6.179,21.25 7.969,21.25 C9.759,21.25 11.219,19.79 11.219,18 C11.219,16.21 9.769,14.75 7.969,14.75 Z"/>
  <path fill="#292D32" d="M11.969,18.75 C11.559,18.75 11.219,18.41 11.219,18 L11.219,4 C11.219,3.59 11.559,3.25 11.969,3.25 C12.379,3.25 12.719,3.59 12.719,4 L12.719,18 C12.719,18.41 12.389,18.75 11.969,18.75 Z"/>
  <path fill="#292D32" d="M19.127,10.23 C18.797,10.23 18.447,10.17 18.107,10.06 L13.687,8.59 C12.307,8.13 11.227,6.63 11.227,5.18 L11.227,4 C11.227,3.03 11.627,2.19 12.307,1.69 C12.997,1.19 13.917,1.09 14.837,1.39 L19.257,2.86 C20.637,3.32 21.717,4.82 21.717,6.27 L21.717,7.44 C21.717,8.41 21.317,9.25 20.637,9.75 C20.207,10.08 19.677,10.23 19.127,10.23 Z M13.817,2.72 C13.577,2.72 13.357,2.78 13.187,2.91 C12.887,3.12 12.727,3.51 12.727,4 L12.727,5.17 C12.727,5.97 13.397,6.9 14.157,7.16 L18.577,8.63 C19.037,8.79 19.467,8.75 19.757,8.54 C20.057,8.33 20.217,7.94 20.217,7.45 L20.217,6.28 C20.217,5.48 19.547,4.55 18.787,4.29 L14.367,2.82 C14.177,2.75 13.987,2.72 13.817,2.72 Z"/>
</svg>