<svg xmlns="http://www.w3.org/2000/svg" width="24" height="24" viewBox="0 0 24 24">
  <defs/>
  <path fill="#292D32" d="M6.276,22.75 C4.146,22.75 2.406,21.01 2.406,18.88 C2.406,16.75 4.146,15.01 6.276,15.01 C8.406,15.01 10.146,16.75 10.146,18.88 C10.146,21.01 8.406,22.75 6.276,22.75 Z M6.276,16.51 C4.966,16.51 3.906,17.57 3.906,18.88 C3.906,20.19 4.966,21.25 6.276,21.25 C7.586,21.25 8.646,20.19 8.646,18.88 C8.646,17.57 7.586,16.51 6.276,16.51 Z"/>
  <path fill="#292D32" d="M9.398,19.63 C8.988,19.63 8.648,19.29 8.648,18.88 L8.648,6.3 C8.648,4.72 9.598,3.48 11.118,3.07 L17.358,1.37 C18.628,1.02 19.698,1.15 20.448,1.73 C21.208,2.31 21.588,3.28 21.588,4.61 L21.588,16.81 C21.588,17.22 21.248,17.56 20.838,17.56 C20.428,17.56 20.088,17.22 20.088,16.81 L20.088,4.6 C20.088,4.02 19.988,3.26 19.538,2.92 C19.048,2.54 18.208,2.69 17.748,2.82 L11.508,4.52 C10.638,4.76 10.148,5.41 10.148,6.31 L10.148,18.89 C10.148,19.29 9.808,19.63 9.398,19.63 Z"/>
  <path fill="#292D32" d="M17.722,20.67 C15.592,20.67 13.852,18.93 13.852,16.8 C13.852,14.67 15.592,12.93 17.722,12.93 C19.852,12.93 21.592,14.67 21.592,16.8 C21.592,18.93 19.852,20.67 17.722,20.67 Z M17.722,14.43 C16.412,14.43 15.352,15.49 15.352,16.8 C15.352,18.11 16.412,19.17 17.722,19.17 C19.032,19.17 20.092,18.11 20.092,16.8 C20.092,15.49 19.032,14.43 17.722,14.43 Z"/>
  <path fill="#292D32" d="M9.404,10.27 C9.074,10.27 8.774,10.05 8.684,9.72 C8.574,9.32 8.804,8.9 9.204,8.79 L20.644,5.67 C21.044,5.56 21.454,5.8 21.564,6.2 C21.674,6.6 21.434,7.01 21.034,7.12 L9.604,10.24 C9.534,10.26 9.464,10.27 9.404,10.27 Z"/>
</svg>