<svg xmlns="http://www.w3.org/2000/svg" width="24" height="24" viewBox="0 0 24 24">
  <defs/>
  <path fill="#292D32" d="M12.35,21.75 L8.65,21.75 C3.46,21.75 1.25,19.54 1.25,14.35 L1.25,8.65 C1.25,3.46 3.46,1.25 8.65,1.25 L14.35,1.25 C19.54,1.25 21.75,3.46 21.75,8.65 L21.75,12.35 C21.75,12.76 21.41,13.1 21,13.1 C20.59,13.1 20.25,12.76 20.25,12.35 L20.25,8.65 C20.25,4.29 18.71,2.75 14.35,2.75 L8.65,2.75 C4.29,2.75 2.75,4.29 2.75,8.65 L2.75,14.35 C2.75,18.71 4.29,20.25 8.65,20.25 L12.35,20.25 C12.76,20.25 13.1,20.59 13.1,21 C13.1,21.41 12.76,21.75 12.35,21.75 Z"/>
  <path fill="#292D32" d="M6.723,15.17 C5.513,15.17 4.523,14.18 4.523,12.97 C4.523,11.76 5.513,10.77 6.723,10.77 C7.933,10.77 8.923,11.76 8.923,12.97 C8.923,14.18 7.933,15.17 6.723,15.17 Z M6.723,12.27 C6.343,12.27 6.023,12.58 6.023,12.97 C6.023,13.35 6.333,13.67 6.723,13.67 C7.113,13.67 7.423,13.36 7.423,12.97 C7.423,12.58 7.113,12.27 6.723,12.27 Z"/>
  <path fill="#292D32" d="M8.172,13.72 C7.762,13.72 7.422,13.38 7.422,12.97 L7.422,7.14 C7.422,6.23 7.992,5.49 8.862,5.25 L11.762,4.46 C12.662,4.21 13.232,4.45 13.542,4.69 C13.852,4.93 14.232,5.41 14.232,6.34 L14.232,12 C14.232,12.41 13.892,12.75 13.482,12.75 C13.072,12.75 12.732,12.41 12.732,12 L12.732,6.34 C12.732,6.02 12.662,5.9 12.632,5.88 C12.602,5.86 12.462,5.82 12.152,5.9 L9.262,6.69 C8.962,6.77 8.922,6.98 8.922,7.13 L8.922,12.96 C8.922,13.38 8.582,13.72 8.172,13.72 Z"/>
  <path fill="#292D32" d="M12.028,14.2 C10.818,14.2 9.828,13.21 9.828,12 C9.828,10.79 10.818,9.8 12.028,9.8 C13.238,9.8 14.228,10.79 14.228,12 C14.228,13.22 13.238,14.2 12.028,14.2 Z M12.028,11.31 C11.648,11.31 11.328,11.62 11.328,12.01 C11.328,12.39 11.638,12.71 12.028,12.71 C12.418,12.71 12.728,12.4 12.728,12.01 C12.728,11.62 12.408,11.31 12.028,11.31 Z"/>
  <path fill="#292D32" d="M8.169,9.58 C7.839,9.58 7.539,9.36 7.449,9.03 C7.339,8.63 7.579,8.22 7.979,8.11 L13.289,6.66 C13.689,6.56 14.099,6.79 14.209,7.19 C14.319,7.59 14.079,8 13.679,8.11 L8.369,9.56 C8.299,9.57 8.229,9.58 8.169,9.58 Z"/>
  <path fill="#292D32" d="M17.942,22.03 C15.762,22.03 13.992,20.26 13.992,18.08 C13.992,15.9 15.762,14.13 17.942,14.13 C20.122,14.13 21.892,15.9 21.892,18.08 C21.892,20.26 20.122,22.03 17.942,22.03 Z M17.942,15.63 C16.592,15.63 15.492,16.73 15.492,18.08 C15.492,19.43 16.592,20.53 17.942,20.53 C19.292,20.53 20.392,19.43 20.392,18.08 C20.392,16.73 19.292,15.63 17.942,15.63 Z"/>
  <path fill="#292D32" d="M21.74,22.63 C21.55,22.63 21.36,22.56 21.21,22.41 L20.21,21.41 C19.92,21.12 19.92,20.64 20.21,20.35 C20.5,20.06 20.98,20.06 21.27,20.35 L22.27,21.35 C22.56,21.64 22.56,22.12 22.27,22.41 C22.12,22.55 21.93,22.63 21.74,22.63 Z"/>
</svg>