<svg xmlns="http://www.w3.org/2000/svg" width="24" height="24" viewBox="0 0 24 24">
  <defs/>
  <path fill="#292D32" d="M15,22.75 L9,22.75 C3.57,22.75 1.25,20.43 1.25,15 L1.25,9 C1.25,3.57 3.57,1.25 9,1.25 L15,1.25 C20.43,1.25 22.75,3.57 22.75,9 L22.75,15 C22.75,20.43 20.43,22.75 15,22.75 Z M9,2.75 C4.39,2.75 2.75,4.39 2.75,9 L2.75,15 C2.75,19.61 4.39,21.25 9,21.25 L15,21.25 C19.61,21.25 21.25,19.61 21.25,15 L21.25,9 C21.25,4.39 19.61,2.75 15,2.75 L9,2.75 Z"/>
  <path fill="#292D32" d="M7,22.25 C6.59,22.25 6.25,21.91 6.25,21.5 L6.25,2.5 C6.25,2.09 6.59,1.75 7,1.75 C7.41,1.75 7.75,2.09 7.75,2.5 L7.75,21.5 C7.75,21.91 7.41,22.25 7,22.25 Z"/>
  <path fill="#292D32" d="M11.467,17.55 C10.227,17.55 9.227,16.54 9.227,15.31 C9.227,14.08 10.237,13.07 11.467,13.07 C12.697,13.07 13.707,14.08 13.707,15.31 C13.707,16.54 12.697,17.55 11.467,17.55 Z M11.467,14.56 C11.057,14.56 10.727,14.89 10.727,15.3 C10.727,15.71 11.057,16.04 11.467,16.04 C11.877,16.04 12.207,15.71 12.207,15.3 C12.207,14.89 11.867,14.56 11.467,14.56 Z"/>
  <path fill="#292D32" d="M12.961,16.06 C12.551,16.06 12.211,15.72 12.211,15.31 L12.211,9.3 C12.211,8.38 12.791,7.62 13.681,7.38 L16.661,6.57 C17.581,6.32 18.161,6.56 18.481,6.81 C18.941,7.16 19.181,7.73 19.181,8.5 L19.181,14.33 C19.181,14.74 18.841,15.08 18.431,15.08 C18.021,15.08 17.681,14.74 17.681,14.33 L17.681,8.5 C17.681,8.17 17.611,8.03 17.571,8.01 C17.521,7.97 17.351,7.95 17.061,8.03 L14.081,8.84 C13.841,8.91 13.721,9.06 13.721,9.32 L13.721,15.33 C13.711,15.72 13.371,16.06 12.961,16.06 Z"/>
  <path fill="#292D32" d="M16.927,16.55 C15.688,16.55 14.688,15.54 14.688,14.31 C14.688,13.07 15.697,12.07 16.927,12.07 C18.157,12.07 19.168,13.08 19.168,14.31 C19.177,15.55 18.168,16.55 16.927,16.55 Z M16.927,13.57 C16.517,13.57 16.188,13.9 16.188,14.31 C16.188,14.72 16.517,15.05 16.927,15.05 C17.337,15.05 17.668,14.72 17.668,14.31 C17.668,13.9 17.337,13.57 16.927,13.57 Z"/>
  <path fill="#292D32" d="M12.958,11.79 C12.628,11.79 12.328,11.57 12.238,11.24 C12.128,10.84 12.368,10.43 12.768,10.32 L18.238,8.83 C18.638,8.72 19.048,8.96 19.158,9.36 C19.268,9.76 19.028,10.17 18.628,10.28 L13.158,11.77 C13.088,11.78 13.018,11.79 12.958,11.79 Z"/>
</svg>