<svg xmlns="http://www.w3.org/2000/svg" width="24" height="24" viewBox="0 0 24 24">
  <defs/>
  <path fill="#292D32" d="M14.35,21.75 L8.65,21.75 C3.46,21.75 1.25,19.54 1.25,14.35 L1.25,8.65 C1.25,3.46 3.46,1.25 8.65,1.25 L14.35,1.25 C19.54,1.25 21.75,3.46 21.75,8.65 L21.75,14.35 C21.75,14.71 21.74,15.05 21.72,15.38 C21.7,15.68 21.5,15.94 21.21,16.04 C20.92,16.14 20.61,16.05 20.4,15.83 C19.8,15.15 18.92,14.75 17.99,14.75 C16.2,14.75 14.74,16.21 14.74,18 C14.74,18.59 14.9,19.17 15.21,19.67 C15.37,19.95 15.58,20.2 15.82,20.41 C16.05,20.61 16.14,20.93 16.04,21.21 C15.94,21.5 15.68,21.7 15.38,21.72 C15.06,21.74 14.72,21.75 14.35,21.75 Z M8.65,2.75 C4.29,2.75 2.75,4.29 2.75,8.65 L2.75,14.35 C2.75,18.71 4.29,20.25 8.65,20.25 L13.82,20.25 C13.45,19.57 13.25,18.8 13.25,18 C13.25,15.38 15.38,13.25 18,13.25 C18.8,13.25 19.57,13.45 20.25,13.81 L20.25,8.65 C20.25,4.29 18.71,2.75 14.35,2.75 L8.65,2.75 Z"/>
  <path fill="#292D32" d="M6.723,15.17 C5.513,15.17 4.523,14.18 4.523,12.97 C4.523,11.76 5.513,10.77 6.723,10.77 C7.933,10.77 8.923,11.76 8.923,12.97 C8.923,14.18 7.933,15.17 6.723,15.17 Z M6.723,12.27 C6.343,12.27 6.023,12.58 6.023,12.97 C6.023,13.35 6.333,13.67 6.723,13.67 C7.113,13.67 7.423,13.36 7.423,12.97 C7.423,12.58 7.113,12.27 6.723,12.27 Z"/>
  <path fill="#292D32" d="M8.172,13.72 C7.762,13.72 7.422,13.38 7.422,12.97 L7.422,7.14 C7.422,6.23 7.992,5.49 8.862,5.25 L11.762,4.46 C12.662,4.21 13.232,4.45 13.542,4.69 C13.852,4.93 14.232,5.41 14.232,6.34 L14.232,12 C14.232,12.41 13.892,12.75 13.482,12.75 C13.072,12.75 12.732,12.41 12.732,12 L12.732,6.34 C12.732,6.02 12.662,5.9 12.632,5.88 C12.602,5.86 12.452,5.82 12.152,5.9 L9.262,6.69 C8.962,6.77 8.922,6.98 8.922,7.13 L8.922,12.96 C8.922,13.38 8.582,13.72 8.172,13.72 Z"/>
  <path fill="#292D32" d="M12.028,14.2 C10.818,14.2 9.828,13.21 9.828,12 C9.828,10.79 10.818,9.8 12.028,9.8 C13.238,9.8 14.228,10.79 14.228,12 C14.228,13.22 13.238,14.2 12.028,14.2 Z M12.028,11.31 C11.648,11.31 11.328,11.62 11.328,12.01 C11.328,12.39 11.638,12.71 12.028,12.71 C12.418,12.71 12.728,12.4 12.728,12.01 C12.728,11.62 12.408,11.31 12.028,11.31 Z"/>
  <path fill="#292D32" d="M8.169,9.58 C7.839,9.58 7.539,9.36 7.449,9.03 C7.339,8.63 7.579,8.22 7.979,8.11 L13.289,6.66 C13.689,6.56 14.099,6.79 14.209,7.19 C14.319,7.59 14.079,8 13.679,8.11 L8.369,9.56 C8.299,9.57 8.229,9.58 8.169,9.58 Z"/>
  <path fill="#292D32" d="M18,22.75 C16.82,22.75 15.7,22.31 14.83,21.52 C14.48,21.22 14.17,20.85 13.93,20.44 C13.49,19.72 13.25,18.87 13.25,18 C13.25,15.38 15.38,13.25 18,13.25 C19.36,13.25 20.65,13.83 21.53,14.83 C22.31,15.7 22.75,16.82 22.75,18 C22.75,18.87 22.51,19.72 22.06,20.45 C21.22,21.87 19.66,22.75 18,22.75 Z M18,14.75 C16.21,14.75 14.75,16.21 14.75,18 C14.75,18.59 14.91,19.17 15.22,19.67 C15.38,19.95 15.59,20.2 15.83,20.41 C16.43,20.96 17.2,21.26 18,21.26 C19.15,21.26 20.19,20.67 20.78,19.69 C21.09,19.18 21.25,18.61 21.25,18.01 C21.25,17.21 20.95,16.44 20.41,15.84 C19.81,15.14 18.93,14.75 18,14.75 Z"/>
  <path fill="#292D32" d="M19.068,19.79 C18.878,19.79 18.688,19.72 18.538,19.57 L16.428,17.46 C16.138,17.17 16.138,16.69 16.428,16.4 C16.718,16.11 17.198,16.11 17.488,16.4 L19.598,18.51 C19.888,18.8 19.888,19.28 19.598,19.57 C19.448,19.72 19.258,19.79 19.068,19.79 Z"/>
  <path fill="#292D32" d="M16.927,19.82 C16.737,19.82 16.547,19.75 16.397,19.6 C16.107,19.31 16.107,18.83 16.397,18.54 L18.507,16.43 C18.797,16.14 19.277,16.14 19.567,16.43 C19.857,16.72 19.857,17.2 19.567,17.49 L17.457,19.6 C17.307,19.75 17.117,19.82 16.927,19.82 Z"/>
</svg>