<svg xmlns="http://www.w3.org/2000/svg" width="24" height="24" viewBox="0 0 24 24">
  <defs/>
  <path fill="#292D32" d="M6.308,20.09 C5.738,20.09 5.178,19.94 4.658,19.64 C3.618,19.04 3.008,17.98 3.008,16.78 L3.008,7.21 C3.008,6.02 3.628,4.95 4.658,4.35 C5.698,3.75 6.928,3.75 7.958,4.35 L16.248,9.13 C17.278,9.73 17.898,10.8 17.898,11.99 C17.898,13.18 17.278,14.25 16.248,14.85 L7.958,19.63 C7.438,19.94 6.878,20.09 6.308,20.09 Z M6.308,5.41 C5.998,5.41 5.688,5.49 5.408,5.65 C4.848,5.98 4.508,6.56 4.508,7.21 L4.508,16.78 C4.508,17.43 4.848,18.01 5.408,18.34 C5.968,18.66 6.648,18.67 7.208,18.34 L15.498,13.56 C16.058,13.23 16.398,12.65 16.398,12 C16.398,11.35 16.058,10.77 15.498,10.44 L7.208,5.66 C6.928,5.5 6.618,5.41 6.308,5.41 Z"/>
  <path fill="#292D32" d="M20.242,18.93 C19.832,18.93 19.492,18.59 19.492,18.18 L19.492,5.82 C19.492,5.41 19.832,5.07 20.242,5.07 C20.652,5.07 20.992,5.41 20.992,5.82 L20.992,18.18 C20.992,18.59 20.662,18.93 20.242,18.93 Z"/>
</svg>