<svg xmlns="http://www.w3.org/2000/svg" width="24" height="24" viewBox="0 0 24 24">
  <defs/>
  <path fill="#292D32" d="M11,22.75 L9,22.75 C3.57,22.75 1.25,20.43 1.25,15 L1.25,9 C1.25,3.57 3.57,1.25 9,1.25 L15,1.25 C20.43,1.25 22.75,3.57 22.75,9 L22.75,10 C22.75,10.41 22.41,10.75 22,10.75 C21.59,10.75 21.25,10.41 21.25,10 L21.25,9 C21.25,4.39 19.61,2.75 15,2.75 L9,2.75 C4.39,2.75 2.75,4.39 2.75,9 L2.75,15 C2.75,19.61 4.39,21.25 9,21.25 L11,21.25 C11.41,21.25 11.75,21.59 11.75,22 C11.75,22.41 11.41,22.75 11,22.75 Z"/>
  <path fill="#292D32" d="M15.508,22.75 C13.998,22.75 12.758,21.52 12.758,20 C12.758,18.48 13.988,17.25 15.508,17.25 C17.028,17.25 18.258,18.48 18.258,20 C18.258,21.52 17.018,22.75 15.508,22.75 Z M15.508,18.76 C14.818,18.76 14.258,19.32 14.258,20.01 C14.258,20.7 14.818,21.26 15.508,21.26 C16.198,21.26 16.758,20.7 16.758,20.01 C16.758,19.32 16.198,18.76 15.508,18.76 Z"/>
  <path fill="#292D32" d="M17.508,20.75 C17.098,20.75 16.758,20.41 16.758,20 L16.758,13.01 C16.758,12.6 17.098,12.26 17.508,12.26 C17.918,12.26 18.258,12.6 18.258,13.01 L18.258,20 C18.258,20.42 17.918,20.75 17.508,20.75 Z"/>
  <path fill="#292D32" d="M21.078,16.5 C20.868,16.5 20.658,16.47 20.448,16.39 L18.238,15.66 C17.388,15.38 16.758,14.49 16.758,13.6 L16.758,13.01 C16.758,12.4 17.008,11.87 17.458,11.55 C17.908,11.23 18.488,11.16 19.058,11.35 L21.268,12.09 C22.118,12.37 22.748,13.26 22.748,14.15 L22.748,14.74 C22.748,15.35 22.498,15.88 22.048,16.2 C21.768,16.4 21.428,16.5 21.078,16.5 Z M18.428,12.75 C18.388,12.75 18.348,12.76 18.328,12.77 C18.288,12.8 18.258,12.87 18.258,13.01 L18.258,13.6 C18.258,13.84 18.488,14.16 18.718,14.24 L20.928,14.97 C21.058,15.01 21.148,15 21.178,14.98 C21.218,14.95 21.258,14.88 21.258,14.74 L21.258,14.15 C21.258,13.91 21.028,13.59 20.798,13.51 L18.588,12.78 C18.518,12.76 18.468,12.75 18.428,12.75 Z"/>
</svg>