<svg xmlns="http://www.w3.org/2000/svg" width="24" height="24" viewBox="0 0 24 24">
  <defs/>
  <path fill="#292D32" d="M12,14.75 L7,14.75 C6.59,14.75 6.25,14.41 6.25,14 C6.25,13.59 6.59,13.25 7,13.25 L12,13.25 C12.41,13.25 12.75,13.59 12.75,14 C12.75,14.41 12.41,14.75 12,14.75 Z"/>
  <path fill="#292D32" d="M6.997,6.71 C6.808,6.71 6.617,6.64 6.468,6.49 L2.717,2.74 C2.428,2.45 2.428,1.97 2.717,1.68 C3.007,1.39 3.487,1.39 3.777,1.68 L7.527,5.43 C7.817,5.72 7.817,6.2 7.527,6.49 C7.378,6.63 7.188,6.71 6.997,6.71 Z"/>
  <path fill="#292D32" d="M3.208,6.75 C3.018,6.75 2.828,6.68 2.678,6.53 C2.388,6.24 2.388,5.76 2.678,5.47 L6.428,1.72 C6.718,1.43 7.198,1.43 7.488,1.72 C7.778,2.01 7.778,2.49 7.488,2.78 L3.738,6.53 C3.598,6.68 3.398,6.75 3.208,6.75 Z"/>
  <path fill="#292D32" d="M15,10.75 L7,10.75 C6.59,10.75 6.25,10.41 6.25,10 C6.25,9.59 6.59,9.25 7,9.25 L15,9.25 C15.41,9.25 15.75,9.59 15.75,10 C15.75,10.41 15.41,10.75 15,10.75 Z"/>
  <path fill="#292D32" d="M21,16.75 C20.59,16.75 20.25,16.41 20.25,16 L20.25,7.99 C20.25,3.76 18.81,2.9 15.96,2.75 L10,2.75 C9.59,2.75 9.25,2.41 9.25,2 C9.25,1.59 9.59,1.25 10,1.25 L16,1.25 C20.1,1.47 21.75,3.42 21.75,7.99 L21.75,16 C21.75,16.41 21.41,16.75 21,16.75 Z"/>
  <path fill="#292D32" d="M15,22.75 L9,22.75 C3.38,22.75 2.25,20.16 2.25,15.98 L2.25,9.01 C2.25,8.6 2.59,8.26 3,8.26 C3.41,8.26 3.75,8.6 3.75,9.01 L3.75,15.98 C3.75,19.7 4.48,21.25 9,21.25 L15,21.25 C15.41,21.25 15.75,21.59 15.75,22 C15.75,22.41 15.41,22.75 15,22.75 Z"/>
  <path fill="#292D32" d="M15,22.75 C14.9,22.75 14.81,22.73 14.71,22.69 C14.43,22.57 14.25,22.3 14.25,22 L14.25,19 C14.25,16.58 15.58,15.25 18,15.25 L21,15.25 C21.3,15.25 21.58,15.43 21.69,15.71 C21.8,15.99 21.74,16.31 21.53,16.53 L15.53,22.53 C15.39,22.67 15.19,22.75 15,22.75 Z M18,16.75 C16.42,16.75 15.75,17.42 15.75,19 L15.75,20.19 L19.19,16.75 L18,16.75 Z"/>
</svg>