<svg xmlns="http://www.w3.org/2000/svg" width="24" height="24" viewBox="0 0 24 24">
  <defs/>
  <path fill="#292D32" d="M15.812,20.18 C15.552,20.18 15.282,20.17 14.992,20.14 C14.472,20.1 13.882,20 13.272,19.85 L11.592,19.45 C6.982,18.36 5.472,15.92 6.552,11.32 L7.532,7.13 C7.752,6.18 8.012,5.41 8.332,4.77 C10.052,1.22 13.342,1.54 15.682,2.09 L17.352,2.48 C19.692,3.03 21.172,3.9 22.002,5.23 C22.822,6.56 22.952,8.27 22.402,10.61 L21.422,14.79 C20.562,18.45 18.772,20.18 15.812,20.18 Z M13.122,3.25 C11.452,3.25 10.392,3.94 9.682,5.42 C9.422,5.96 9.192,6.63 8.992,7.47 L8.012,11.66 C7.122,15.44 8.152,17.09 11.932,17.99 L13.612,18.39 C14.152,18.52 14.662,18.6 15.122,18.64 C17.832,18.91 19.192,17.72 19.952,14.45 L20.932,10.27 C21.382,8.34 21.322,6.99 20.722,6.02 C20.122,5.05 18.942,4.39 17.002,3.94 L15.332,3.55 C14.502,3.35 13.762,3.25 13.122,3.25 Z"/>
  <path fill="#292D32" d="M8.329,22.25 C5.759,22.25 4.119,20.71 3.069,17.46 L1.789,13.51 C0.369,9.11 1.639,6.63 6.019,5.21 L7.599,4.7 C8.119,4.54 8.509,4.43 8.859,4.37 C9.139,4.31 9.429,4.42 9.599,4.65 C9.769,4.88 9.799,5.18 9.679,5.44 C9.419,5.97 9.189,6.64 8.999,7.48 L8.019,11.67 C7.129,15.45 8.159,17.1 11.939,18 L13.619,18.4 C14.159,18.53 14.669,18.61 15.129,18.65 C15.449,18.68 15.709,18.9 15.799,19.21 C15.879,19.52 15.759,19.84 15.499,20.02 C14.839,20.47 14.009,20.85 12.959,21.19 L11.379,21.71 C10.229,22.07 9.229,22.25 8.329,22.25 Z M7.779,6.22 L6.489,6.64 C2.919,7.79 2.069,9.47 3.219,13.05 L4.499,17 C5.659,20.57 7.339,21.43 10.909,20.28 L12.489,19.76 C12.549,19.74 12.599,19.72 12.659,19.7 L11.599,19.45 C6.989,18.36 5.479,15.92 6.559,11.32 L7.539,7.13 C7.609,6.81 7.689,6.5 7.779,6.22 Z"/>
</svg>