<svg xmlns="http://www.w3.org/2000/svg" width="24" height="24" viewBox="0 0 24 24">
  <defs/>
  <path fill="#292D32" d="M9.562,18.75 C9.152,18.75 8.812,18.41 8.812,18 L8.812,13 C8.812,12.59 9.152,12.25 9.562,12.25 C9.973,12.25 10.312,12.59 10.312,13 L10.312,18 C10.312,18.41 9.973,18.75 9.562,18.75 Z"/>
  <path fill="#292D32" d="M12,16.25 L7,16.25 C6.59,16.25 6.25,15.91 6.25,15.5 C6.25,15.09 6.59,14.75 7,14.75 L12,14.75 C12.41,14.75 12.75,15.09 12.75,15.5 C12.75,15.91 12.41,16.25 12,16.25 Z"/>
  <path fill="#292D32" d="M8,5.75 C7.59,5.75 7.25,5.41 7.25,5 L7.25,2 C7.25,1.59 7.59,1.25 8,1.25 C8.41,1.25 8.75,1.59 8.75,2 L8.75,5 C8.75,5.41 8.41,5.75 8,5.75 Z"/>
  <path fill="#292D32" d="M16,5.75 C15.59,5.75 15.25,5.41 15.25,5 L15.25,2 C15.25,1.59 15.59,1.25 16,1.25 C16.41,1.25 16.75,1.59 16.75,2 L16.75,5 C16.75,5.41 16.41,5.75 16,5.75 Z"/>
  <path fill="#292D32" d="M8.852,22.81 C6.382,22.81 4.752,22.27 3.732,21.11 C2.552,19.78 2.362,17.79 2.322,16.02 L2.192,9.85 C2.092,5.12 3.662,3.15 7.762,2.84 L15.802,2.68 C15.822,2.68 15.832,2.68 15.842,2.68 C19.952,2.82 21.592,4.72 21.692,9.46 L21.812,15.63 C21.852,17.4 21.732,19.4 20.612,20.77 C19.592,22.02 17.872,22.63 15.202,22.69 L9.202,22.81 C9.082,22.81 8.962,22.81 8.852,22.81 Z M15.802,4.17 L7.832,4.33 C5.032,4.55 3.602,5.45 3.692,9.82 L3.822,15.99 C3.862,18.11 4.172,19.35 4.852,20.12 C5.612,20.98 6.982,21.36 9.182,21.31 L15.182,21.19 C17.372,21.15 18.732,20.71 19.462,19.82 C20.112,19.03 20.372,17.78 20.322,15.66 L20.202,9.49 C20.102,5.13 18.642,4.27 15.802,4.17 Z"/>
</svg>