<svg xmlns="http://www.w3.org/2000/svg" width="24" height="24" viewBox="0 0 24 24">
  <defs/>
  <path fill="#292D32" d="M12,10.52 C11.59,10.52 11.25,10.18 11.25,9.77 L11.25,6.44 C11.25,6.03 11.59,5.69 12,5.69 C12.41,5.69 12.75,6.03 12.75,6.44 L12.75,9.77 C12.75,10.19 12.41,10.52 12,10.52 Z"/>
  <path fill="#292D32" d="M12.021,20.35 C9.441,20.35 6.871,19.94 4.421,19.12 C3.511,18.82 2.821,18.17 2.521,17.35 C2.221,16.53 2.321,15.59 2.811,14.77 L4.081,12.65 C4.361,12.18 4.611,11.3 4.611,10.75 L4.611,8.65 C4.611,4.56 7.931,1.24 12.021,1.24 C16.111,1.24 19.431,4.56 19.431,8.65 L19.431,10.75 C19.431,11.29 19.681,12.18 19.961,12.65 L21.231,14.77 C21.701,15.55 21.781,16.48 21.471,17.33 C21.161,18.18 20.481,18.83 19.621,19.12 C17.171,19.95 14.601,20.35 12.021,20.35 Z M12.021,2.75 C8.761,2.75 6.111,5.4 6.111,8.66 L6.111,10.76 C6.111,11.57 5.791,12.74 5.371,13.43 L4.101,15.56 C3.841,15.99 3.781,16.45 3.931,16.85 C4.081,17.25 4.421,17.55 4.901,17.71 C9.501,19.24 14.561,19.24 19.161,17.71 C19.591,17.57 19.921,17.25 20.071,16.83 C20.231,16.41 20.181,15.95 19.951,15.56 L18.681,13.44 C18.261,12.75 17.941,11.58 17.941,10.77 L17.941,8.67 C17.931,5.4 15.281,2.75 12.021,2.75 Z"/>
  <path fill="#292D32" d="M12.002,22.9 C10.932,22.9 9.882,22.46 9.122,21.7 C8.362,20.94 7.922,19.89 7.922,18.82 L9.422,18.82 C9.422,19.5 9.702,20.16 10.182,20.64 C10.662,21.12 11.322,21.4 12.002,21.4 C13.422,21.4 14.582,20.24 14.582,18.82 L16.082,18.82 C16.082,21.07 14.252,22.9 12.002,22.9 Z"/>
</svg>