<svg xmlns="http://www.w3.org/2000/svg" width="24" height="24" viewBox="0 0 24 24">
  <defs/>
  <path fill="#292D32" d="M19,8.75 C16.93,8.75 15.25,7.07 15.25,5 C15.25,2.93 16.93,1.25 19,1.25 C21.07,1.25 22.75,2.93 22.75,5 C22.75,7.07 21.07,8.75 19,8.75 Z M19,2.75 C17.76,2.75 16.75,3.76 16.75,5 C16.75,6.24 17.76,7.25 19,7.25 C20.24,7.25 21.25,6.24 21.25,5 C21.25,3.76 20.24,2.75 19,2.75 Z"/>
  <path fill="#292D32" d="M15,22.75 L9,22.75 C3.57,22.75 1.25,20.43 1.25,15 L1.25,9 C1.25,3.57 3.57,1.25 9,1.25 L14,1.25 C14.41,1.25 14.75,1.59 14.75,2 C14.75,2.41 14.41,2.75 14,2.75 L9,2.75 C4.39,2.75 2.75,4.39 2.75,9 L2.75,15 C2.75,19.61 4.39,21.25 9,21.25 L15,21.25 C19.61,21.25 21.25,19.61 21.25,15 L21.25,10 C21.25,9.59 21.59,9.25 22,9.25 C22.41,9.25 22.75,9.59 22.75,10 L22.75,15 C22.75,20.43 20.43,22.75 15,22.75 Z"/>
  <path fill="#292D32" d="M9.812,18.33 C8.892,18.33 6.752,17.21 6.092,15.15 C5.642,13.74 6.162,11.89 7.792,11.36 C8.492,11.13 9.222,11.24 9.802,11.61 C10.372,11.24 11.122,11.13 11.822,11.36 C13.452,11.89 13.982,13.74 13.522,15.15 C12.872,17.25 10.632,18.33 9.812,18.33 Z M7.522,14.7 C7.982,16.15 9.542,16.81 9.822,16.84 C10.142,16.81 11.672,16.07 12.092,14.71 C12.322,13.98 12.092,13.04 11.362,12.8 C11.052,12.7 10.632,12.76 10.432,13.05 C10.292,13.26 10.072,13.38 9.822,13.39 C9.582,13.39 9.342,13.28 9.202,13.08 C8.962,12.75 8.542,12.7 8.252,12.8 C7.532,13.03 7.292,13.97 7.522,14.7 Z"/>
</svg>