<svg xmlns="http://www.w3.org/2000/svg" width="24" height="24" viewBox="0 0 24 24">
  <defs/>
  <path fill="#292D32" d="M10.969,22.75 C7.249,22.75 4.219,19.72 4.219,16 L4.219,10 C4.219,5.73 7.699,2.25 11.969,2.25 C16.239,2.25 19.719,5.73 19.719,10 L19.719,15.5 C19.719,17.84 17.809,19.75 15.469,19.75 C13.129,19.75 11.219,17.84 11.219,15.5 L11.219,12 C11.219,11.59 11.559,11.25 11.969,11.25 C12.379,11.25 12.719,11.59 12.719,12 L12.719,15.5 C12.719,17.02 13.949,18.25 15.469,18.25 C16.989,18.25 18.219,17.02 18.219,15.5 L18.219,10 C18.219,6.55 15.419,3.75 11.969,3.75 C8.519,3.75 5.719,6.55 5.719,10 L5.719,16 C5.719,18.89 8.069,21.25 10.969,21.25 C11.379,21.25 11.719,21.59 11.719,22 C11.719,22.41 11.389,22.75 10.969,22.75 Z"/>
</svg>