<svg xmlns="http://www.w3.org/2000/svg" width="24" height="24" viewBox="0 0 24 24">
  <defs/>
  <path fill="#292D32" d="M11.02,20.25 L7.5,20.25 C6.75,20.25 6.2,20.22 5.73,20.15 C2.4,19.78 1.75,17.8 1.75,14.5 L1.75,9.5 C1.75,6.2 2.41,4.21 5.76,3.84 C6.2,3.78 6.75,3.75 7.5,3.75 L10.96,3.75 C11.37,3.75 11.71,4.09 11.71,4.5 C11.71,4.91 11.37,5.25 10.96,5.25 L7.5,5.25 C6.82,5.25 6.34,5.28 5.95,5.33 C3.92,5.55 3.25,6.19 3.25,9.5 L3.25,14.5 C3.25,17.81 3.92,18.44 5.92,18.67 C6.34,18.73 6.82,18.75 7.5,18.75 L11.02,18.75 C11.43,18.75 11.77,19.09 11.77,19.5 C11.77,19.91 11.43,20.25 11.02,20.25 Z"/>
  <path fill="#292D32" d="M16.503,20.25 L15.023,20.25 C14.613,20.25 14.273,19.91 14.273,19.5 C14.273,19.09 14.613,18.75 15.023,18.75 L16.503,18.75 C17.183,18.75 17.663,18.72 18.053,18.67 C20.083,18.45 20.753,17.81 20.753,14.5 L20.753,9.5 C20.753,6.19 20.083,5.56 18.083,5.33 C17.663,5.27 17.183,5.25 16.503,5.25 L15.023,5.25 C14.613,5.25 14.273,4.91 14.273,4.5 C14.273,4.09 14.613,3.75 15.023,3.75 L16.503,3.75 C17.253,3.75 17.803,3.78 18.273,3.85 C21.603,4.22 22.253,6.2 22.253,9.5 L22.253,14.5 C22.253,17.8 21.593,19.79 18.243,20.16 C17.803,20.22 17.253,20.25 16.503,20.25 Z"/>
  <path fill="#292D32" d="M15,22.75 C14.59,22.75 14.25,22.41 14.25,22 L14.25,2 C14.25,1.59 14.59,1.25 15,1.25 C15.41,1.25 15.75,1.59 15.75,2 L15.75,22 C15.75,22.41 15.41,22.75 15,22.75 Z"/>
  <path fill="#292D32" d="M6.703,13 C6.573,13 6.443,12.97 6.323,12.92 C6.203,12.87 6.093,12.8 5.993,12.71 C5.903,12.61 5.823,12.5 5.773,12.38 C5.723,12.26 5.703,12.13 5.703,12 C5.703,11.74 5.813,11.48 5.993,11.29 C6.363,10.92 7.033,10.92 7.413,11.29 C7.593,11.48 7.703,11.74 7.703,12 C7.703,12.13 7.673,12.26 7.623,12.38 C7.573,12.5 7.503,12.61 7.413,12.71 C7.313,12.8 7.203,12.87 7.083,12.92 C6.963,12.97 6.833,13 6.703,13 Z"/>
  <path fill="#292D32" d="M10.703,13 C10.573,13 10.443,12.97 10.323,12.92 C10.203,12.87 10.093,12.8 9.993,12.71 C9.903,12.61 9.833,12.5 9.773,12.38 C9.733,12.26 9.703,12.13 9.703,12 C9.703,11.74 9.813,11.48 9.993,11.29 C10.363,10.92 11.043,10.92 11.413,11.29 C11.593,11.48 11.703,11.74 11.703,12 C11.703,12.13 11.673,12.26 11.623,12.38 C11.573,12.5 11.503,12.61 11.413,12.71 C11.313,12.8 11.203,12.87 11.083,12.92 C10.963,12.97 10.833,13 10.703,13 Z"/>
</svg>