<svg xmlns="http://www.w3.org/2000/svg" width="24" height="24" viewBox="0 0 24 24">
  <defs/>
  <path fill="#292D32" d="M8.64,21.75 L5.01,21.75 C3.15,21.75 2.25,20.89 2.25,19.11 L2.25,4.89 C2.25,3.11 3.15,2.25 5.01,2.25 L8.64,2.25 C10.5,2.25 11.4,3.11 11.4,4.89 L11.4,19.11 C11.4,20.89 10.5,21.75 8.64,21.75 Z M5.01,3.75 C3.93,3.75 3.75,4.02 3.75,4.89 L3.75,19.11 C3.75,19.98 3.92,20.25 5.01,20.25 L8.64,20.25 C9.72,20.25 9.9,19.98 9.9,19.11 L9.9,4.89 C9.9,4.02 9.73,3.75 8.64,3.75 L5.01,3.75 Z"/>
  <path fill="#292D32" d="M18.992,21.75 L15.362,21.75 C13.502,21.75 12.602,20.89 12.602,19.11 L12.602,4.89 C12.602,3.11 13.502,2.25 15.362,2.25 L18.992,2.25 C20.852,2.25 21.752,3.11 21.752,4.89 L21.752,19.11 C21.752,20.89 20.852,21.75 18.992,21.75 Z M15.362,3.75 C14.282,3.75 14.102,4.02 14.102,4.89 L14.102,19.11 C14.102,19.98 14.272,20.25 15.362,20.25 L18.992,20.25 C20.072,20.25 20.252,19.98 20.252,19.11 L20.252,4.89 C20.252,4.02 20.082,3.75 18.992,3.75 L15.362,3.75 Z"/>
</svg>