<svg xmlns="http://www.w3.org/2000/svg" width="24" height="24" viewBox="0 0 24 24">
  <defs/>
  <path fill="#292D32" d="M11.969,22.75 C6.049,22.75 1.219,17.93 1.219,12 C1.219,6.07 6.049,1.25 11.969,1.25 C17.889,1.25 22.719,6.07 22.719,12 C22.719,17.93 17.899,22.75 11.969,22.75 Z M11.969,2.75 C6.869,2.75 2.719,6.9 2.719,12 C2.719,17.1 6.869,21.25 11.969,21.25 C17.069,21.25 21.219,17.1 21.219,12 C21.219,6.9 17.069,2.75 11.969,2.75 Z"/>
  <path fill="#292D32" d="M10.01,15.95 L8.71,15.95 C7.79,15.95 7.25,15.42 7.25,14.53 L7.25,9.47 C7.25,8.58 7.8,8.05 8.71,8.05 L10,8.05 C10.92,8.05 11.46,8.58 11.46,9.47 L11.46,14.53 C11.47,15.42 10.92,15.95 10.01,15.95 Z M8.75,14.45 L9.97,14.45 L9.97,9.55 L8.76,9.55 L8.75,14.45 Z"/>
  <path fill="#292D32" d="M15.289,15.95 L13.999,15.95 C13.079,15.95 12.539,15.42 12.539,14.53 L12.539,9.47 C12.539,8.58 13.089,8.05 13.999,8.05 L15.289,8.05 C16.209,8.05 16.749,8.58 16.749,9.47 L16.749,14.53 C16.749,15.42 16.199,15.95 15.289,15.95 Z M14.029,14.45 L15.249,14.45 L15.249,9.55 L14.039,9.55 L14.029,14.45 Z"/>
</svg>