<svg xmlns="http://www.w3.org/2000/svg" width="24" height="24" viewBox="0 0 24 24">
  <defs/>
  <path fill="#4C4C4C" d="M17.905,7.904 Q17.844,7.912 17.783,7.91 Q14.58,7.793 14.58,4.58 Q14.58,2.915 15.413,2.083 Q16.245,1.25 17.91,1.25 Q21.24,1.25 21.24,4.58 Q21.217,7.794 18.027,7.91 Q17.966,7.912 17.905,7.904 Z M18.03,6.408 Q19.728,6.318 19.74,4.58 Q19.74,2.75 17.91,2.75 Q16.995,2.75 16.538,3.207 Q16.08,3.665 16.08,4.58 Q16.08,6.318 17.78,6.408 Q17.905,6.396 18.03,6.408 Z"/>
  <path fill="#4C4C4C" d="M17.094,13.701 Q19.091,14.036 20.493,13.097 Q21.217,12.614 21.217,12.01 Q21.217,11.407 20.494,10.924 Q19.069,9.979 17.069,10.329 Q16.763,10.383 16.509,10.204 Q16.255,10.026 16.201,9.72 Q16.148,9.414 16.326,9.159 Q16.504,8.905 16.81,8.851 Q19.4,8.398 21.326,9.676 Q22.717,10.604 22.717,12.01 Q22.717,13.417 21.327,14.343 Q19.431,15.614 16.846,15.18 Q16.539,15.128 16.359,14.875 Q16.179,14.622 16.23,14.316 Q16.282,14.01 16.535,13.829 Q16.788,13.649 17.094,13.701 Z"/>
  <path fill="#4C4C4C" d="M6.065,7.904 Q6.004,7.912 5.943,7.91 Q2.753,7.794 2.73,4.58 Q2.73,1.25 6.06,1.25 Q9.39,1.25 9.39,4.58 Q9.39,7.793 6.187,7.91 Q6.126,7.912 6.065,7.904 Z M5.94,6.408 Q6.065,6.396 6.19,6.408 Q7.89,6.318 7.89,4.58 Q7.89,2.75 6.06,2.75 Q4.23,2.75 4.23,4.58 Q4.242,6.318 5.94,6.408 Z"/>
  <path fill="#4C4C4C" d="M7.124,15.18 Q4.539,15.614 2.643,14.343 Q1.252,13.417 1.252,12.01 Q1.252,10.604 2.644,9.676 Q4.57,8.398 7.159,8.851 Q7.465,8.905 7.644,9.159 Q7.822,9.414 7.769,9.72 Q7.715,10.026 7.461,10.204 Q7.207,10.383 6.901,10.329 Q4.901,9.979 3.476,10.924 Q2.752,11.407 2.752,12.01 Q2.752,12.614 3.477,13.097 Q4.879,14.036 6.876,13.701 Q7.182,13.649 7.435,13.829 Q7.688,14.01 7.74,14.316 Q7.791,14.622 7.611,14.875 Q7.43,15.128 7.124,15.18 Z"/>
  <path fill="#4C4C4C" d="M11.905,15.374 Q11.844,15.381 11.783,15.379 Q8.58,15.263 8.58,12.05 Q8.58,8.72 11.91,8.72 Q15.24,8.72 15.24,12.05 Q15.217,15.287 12.022,15.379 Q11.963,15.381 11.905,15.374 Z M12.033,13.878 Q13.728,13.801 13.74,12.05 Q13.74,10.22 11.91,10.22 Q10.08,10.22 10.08,12.05 Q10.08,13.788 11.78,13.878 Q11.907,13.866 12.033,13.878 Z"/>
  <path fill="#4C4C4C" d="M8.676,17.154 Q12.011,14.945 15.326,17.155 Q16.718,18.083 16.718,19.489 Q16.718,20.896 15.327,21.823 Q12,24.048 8.674,21.823 Q7.283,20.896 7.283,19.489 Q7.283,18.083 8.674,17.155 Z M9.506,18.403 Q9.505,18.404 9.504,18.405 Q8.783,18.887 8.783,19.489 Q8.783,20.093 9.506,20.575 Q12,22.243 14.493,20.576 Q15.218,20.093 15.218,19.489 Q15.218,18.886 14.494,18.403 Q12.009,16.747 9.506,18.403 Z"/>
</svg>