<svg xmlns="http://www.w3.org/2000/svg" width="24" height="24" viewBox="0 0 24 24">
  <defs/>
  <path fill="#292D32" d="M18,7.91 C17.97,7.91 17.95,7.91 17.92,7.91 L17.87,7.91 C15.98,7.85 14.57,6.39 14.57,4.59 C14.57,2.75 16.07,1.26 17.9,1.26 C19.73,1.26 21.23,2.76 21.23,4.59 C21.22,6.4 19.81,7.86 18.01,7.92 C18.01,7.91 18.01,7.91 18,7.91 Z M17.9,2.75 C16.89,2.75 16.07,3.57 16.07,4.58 C16.07,5.57 16.84,6.37 17.83,6.41 C17.84,6.4 17.92,6.4 18.01,6.41 C18.98,6.36 19.73,5.56 19.74,4.58 C19.74,3.57 18.92,2.75 17.9,2.75 Z"/>
  <path fill="#292D32" d="M18.009,15.28 C17.619,15.28 17.229,15.25 16.838,15.18 C16.428,15.11 16.159,14.72 16.229,14.31 C16.299,13.9 16.689,13.63 17.099,13.7 C18.328,13.91 19.628,13.68 20.498,13.1 C20.968,12.79 21.218,12.4 21.218,12.01 C21.218,11.62 20.959,11.24 20.498,10.93 C19.628,10.35 18.308,10.12 17.069,10.34 C16.659,10.42 16.268,10.14 16.198,9.73 C16.128,9.32 16.398,8.93 16.808,8.86 C18.439,8.57 20.128,8.88 21.328,9.68 C22.209,10.27 22.718,11.11 22.718,12.01 C22.718,12.9 22.218,13.75 21.328,14.35 C20.419,14.95 19.238,15.28 18.009,15.28 Z"/>
  <path fill="#292D32" d="M5.967,7.91 C5.957,7.91 5.947,7.91 5.947,7.91 C4.147,7.85 2.737,6.39 2.727,4.59 C2.727,2.75 4.227,1.25 6.057,1.25 C7.887,1.25 9.387,2.75 9.387,4.58 C9.387,6.39 7.977,7.85 6.177,7.91 L5.967,7.16 L6.037,7.91 C6.017,7.91 5.987,7.91 5.967,7.91 Z M6.067,6.41 C6.127,6.41 6.177,6.41 6.237,6.42 C7.127,6.38 7.907,5.58 7.907,4.59 C7.907,3.58 7.087,2.76 6.077,2.76 C5.067,2.76 4.247,3.58 4.247,4.59 C4.247,5.57 5.007,6.36 5.977,6.42 C5.987,6.41 6.027,6.41 6.067,6.41 Z"/>
  <path fill="#292D32" d="M5.96,15.28 C4.73,15.28 3.55,14.95 2.64,14.35 C1.76,13.76 1.25,12.91 1.25,12.01 C1.25,11.12 1.76,10.27 2.64,9.68 C3.84,8.88 5.53,8.57 7.16,8.86 C7.57,8.93 7.84,9.32 7.77,9.73 C7.7,10.14 7.31,10.42 6.9,10.34 C5.66,10.12 4.35,10.35 3.47,10.93 C3,11.24 2.75,11.62 2.75,12.01 C2.75,12.4 3.01,12.79 3.47,13.1 C4.34,13.68 5.64,13.91 6.87,13.7 C7.28,13.63 7.67,13.91 7.74,14.31 C7.81,14.72 7.54,15.11 7.13,15.18 C6.74,15.25 6.35,15.28 5.96,15.28 Z"/>
  <path fill="#292D32" d="M12,15.38 C11.97,15.38 11.95,15.38 11.92,15.38 L11.87,15.38 C9.98,15.32 8.57,13.86 8.57,12.06 C8.57,10.22 10.07,8.73 11.9,8.73 C13.73,8.73 15.23,10.23 15.23,12.06 C15.22,13.87 13.81,15.33 12.01,15.39 C12.01,15.38 12.01,15.38 12,15.38 Z M11.9,10.22 C10.89,10.22 10.07,11.04 10.07,12.05 C10.07,13.04 10.84,13.84 11.83,13.88 C11.84,13.87 11.92,13.87 12.01,13.88 C12.98,13.83 13.73,13.03 13.74,12.05 C13.74,11.05 12.92,10.22 11.9,10.22 Z"/>
  <path fill="#292D32" d="M12.001,22.76 C10.801,22.76 9.601,22.45 8.671,21.82 C7.791,21.23 7.281,20.39 7.281,19.49 C7.281,18.6 7.781,17.74 8.671,17.15 C10.541,15.91 13.471,15.91 15.331,17.15 C16.211,17.74 16.721,18.58 16.721,19.48 C16.721,20.37 16.221,21.23 15.331,21.82 C14.401,22.44 13.201,22.76 12.001,22.76 Z M9.501,18.41 C9.031,18.72 8.781,19.11 8.781,19.5 C8.781,19.89 9.041,20.27 9.501,20.58 C10.851,21.49 13.141,21.49 14.491,20.58 C14.961,20.27 15.211,19.88 15.211,19.49 C15.211,19.1 14.951,18.72 14.491,18.41 C13.151,17.5 10.861,17.51 9.501,18.41 Z"/>
</svg>