<svg xmlns="http://www.w3.org/2000/svg" width="24" height="24" viewBox="0 0 24 24">
  <defs/>
  <path fill="#4C4C4C" d="M17,20.5 L19,20.5 Q20.5,20.5 20.5,19 L20.5,17 Q20.5,16.793 20.646,16.646 Q20.793,16.5 21,16.5 Q21.207,16.5 21.354,16.646 Q21.5,16.793 21.5,17 L21.5,19 Q21.5,21.5 19,21.5 L17,21.5 Q16.793,21.5 16.646,21.354 Q16.5,21.207 16.5,21 Q16.5,20.793 16.646,20.646 Q16.793,20.5 17,20.5 Z M20.5,7 L20.5,5 Q20.5,3.5 19,3.5 L17,3.5 Q16.793,3.5 16.646,3.354 Q16.5,3.207 16.5,3 Q16.5,2.793 16.646,2.646 Q16.793,2.5 17,2.5 L19,2.5 Q21.5,2.5 21.5,5 L21.5,7 Q21.5,7.207 21.354,7.354 Q21.207,7.5 21,7.5 Q20.793,7.5 20.646,7.354 Q20.5,7.207 20.5,7 Z M3.5,17 L3.5,19 Q3.5,20.5 5,20.5 L7,20.5 Q7.207,20.5 7.354,20.646 Q7.5,20.793 7.5,21 Q7.5,21.207 7.354,21.354 Q7.207,21.5 7,21.5 L5,21.5 Q2.5,21.5 2.5,19 L2.5,17 Q2.5,16.793 2.646,16.646 Q2.793,16.5 3,16.5 Q3.207,16.5 3.354,16.646 Q3.5,16.793 3.5,17 Z M7,3.5 L5,3.5 Q3.5,3.5 3.5,5 L3.5,7 Q3.5,7.207 3.354,7.354 Q3.207,7.5 3,7.5 Q2.793,7.5 2.646,7.354 Q2.5,7.207 2.5,7 L2.5,5 Q2.5,2.5 5,2.5 L7,2.5 Q7.207,2.5 7.354,2.646 Q7.5,2.793 7.5,3 Q7.5,3.207 7.354,3.354 Q7.207,3.5 7,3.5 Z"/>
  <path fill="#4C4C4C" d="M12,12.5 Q8.5,12.5 8.5,9 Q8.5,5.5 12,5.5 Q15.5,5.5 15.5,9 Q15.5,12.5 12,12.5 Z M12,11.5 Q14.5,11.5 14.5,9 Q14.5,6.5 12,6.5 Q9.5,6.5 9.5,9 Q9.5,11.5 12,11.5 Z"/>
  <path fill="#4C4C4C" d="M16.5,16 Q16.5,12.5 12,12.5 Q7.5,12.5 7.5,16 Q7.5,16.207 7.354,16.354 Q7.207,16.5 7,16.5 Q6.793,16.5 6.646,16.354 Q6.5,16.207 6.5,16 Q6.5,14.103 8.152,12.781 Q9.754,11.5 12,11.5 Q14.246,11.5 15.848,12.781 Q17.5,14.103 17.5,16 Q17.5,16.207 17.354,16.354 Q17.207,16.5 17,16.5 Q16.793,16.5 16.646,16.354 Q16.5,16.207 16.5,16 Z"/>
</svg>