<svg xmlns="http://www.w3.org/2000/svg" width="24" height="24" viewBox="0 0 24 24">
  <defs/>
  <path fill="#292D32" d="M14.041,22.75 L9.251,22.75 C7.631,22.75 6.161,22.12 5.101,20.96 C4.041,19.81 3.531,18.29 3.671,16.68 C4.011,12.58 7.631,9.25 11.751,9.25 C15.541,9.25 19.121,12.29 19.751,16.02 C20.051,17.8 19.611,19.48 18.531,20.76 C17.431,22.04 15.841,22.75 14.041,22.75 Z M11.741,10.75 C8.391,10.75 5.441,13.47 5.161,16.81 C5.061,18 5.431,19.11 6.201,19.95 C6.971,20.79 8.051,21.25 9.241,21.25 L14.031,21.25 C15.381,21.25 16.571,20.73 17.361,19.8 C18.151,18.87 18.471,17.61 18.251,16.27 C17.751,13.23 14.831,10.75 11.741,10.75 Z"/>
  <path fill="#292D32" d="M10.469,8.25 C8.679,8.25 7.219,6.79 7.219,5 C7.219,3.21 8.679,1.75 10.469,1.75 C12.259,1.75 13.719,3.21 13.719,5 C13.719,6.79 12.269,8.25 10.469,8.25 Z M10.469,3.25 C9.509,3.25 8.719,4.04 8.719,5 C8.719,5.96 9.509,6.75 10.469,6.75 C11.429,6.75 12.219,5.96 12.219,5 C12.219,4.04 11.439,3.25 10.469,3.25 Z"/>
  <path fill="#292D32" d="M17.297,9.45 C15.777,9.45 14.547,8.22 14.547,6.7 C14.547,5.18 15.777,3.95 17.297,3.95 C18.817,3.95 20.047,5.18 20.047,6.7 C20.047,8.22 18.817,9.45 17.297,9.45 Z M17.297,5.45 C16.607,5.45 16.047,6.01 16.047,6.7 C16.047,7.39 16.607,7.95 17.297,7.95 C17.987,7.95 18.547,7.39 18.547,6.7 C18.547,6.01 17.987,5.45 17.297,5.45 Z"/>
  <path fill="#292D32" d="M21,13.45 C19.76,13.45 18.75,12.44 18.75,11.2 C18.75,9.96 19.76,8.95 21,8.95 C22.24,8.95 23.25,9.96 23.25,11.2 C23.25,12.44 22.24,13.45 21,13.45 Z M21,10.45 C20.59,10.45 20.25,10.79 20.25,11.2 C20.25,11.61 20.59,11.95 21,11.95 C21.41,11.95 21.75,11.61 21.75,11.2 C21.75,10.79 21.41,10.45 21,10.45 Z"/>
  <path fill="#292D32" d="M3.969,11.45 C2.449,11.45 1.219,10.22 1.219,8.7 C1.219,7.18 2.449,5.95 3.969,5.95 C5.489,5.95 6.719,7.18 6.719,8.7 C6.719,10.22 5.489,11.45 3.969,11.45 Z M3.969,7.45 C3.279,7.45 2.719,8.01 2.719,8.7 C2.719,9.39 3.279,9.95 3.969,9.95 C4.659,9.95 5.219,9.39 5.219,8.7 C5.219,8.01 4.659,7.45 3.969,7.45 Z"/>
</svg>