<svg xmlns="http://www.w3.org/2000/svg" width="24" height="24" viewBox="0 0 24 24">
  <defs/>
  <path fill="#292D32" d="M15,22.75 L9,22.75 C3.57,22.75 1.25,20.43 1.25,15 L1.25,9 C1.25,3.57 3.57,1.25 9,1.25 L15,1.25 C20.43,1.25 22.75,3.57 22.75,9 L22.75,15 C22.75,20.43 20.43,22.75 15,22.75 Z M9,2.75 C4.39,2.75 2.75,4.39 2.75,9 L2.75,15 C2.75,19.61 4.39,21.25 9,21.25 L15,21.25 C19.61,21.25 21.25,19.61 21.25,15 L21.25,9 C21.25,4.39 19.61,2.75 15,2.75 L9,2.75 Z"/>
  <path fill="#292D32" d="M13.952,22.75 C13.612,22.75 13.312,22.52 13.222,22.18 L8.272,2.18 C8.172,1.78 8.422,1.37 8.822,1.27 C9.222,1.17 9.632,1.41 9.732,1.82 L14.682,21.82 C14.782,22.22 14.532,22.63 14.132,22.73 C14.072,22.74 14.012,22.75 13.952,22.75 Z"/>
  <path fill="#292D32" d="M2.002,15.75 C1.672,15.75 1.382,15.54 1.282,15.21 C1.162,14.81 1.392,14.4 1.792,14.28 L11.322,11.5 C11.722,11.38 12.132,11.61 12.252,12.01 C12.372,12.41 12.142,12.82 11.742,12.94 L2.212,15.72 C2.142,15.74 2.072,15.75 2.002,15.75 Z"/>
</svg>