<svg xmlns="http://www.w3.org/2000/svg" width="24" height="24" viewBox="0 0 24 24">
  <defs/>
  <path fill="#292D32" d="M11.969,22.75 C6.049,22.75 1.219,17.93 1.219,12 C1.219,6.07 6.049,1.25 11.969,1.25 C17.889,1.25 22.719,6.07 22.719,12 C22.719,17.93 17.899,22.75 11.969,22.75 Z M11.969,2.75 C6.869,2.75 2.719,6.9 2.719,12 C2.719,17.1 6.869,21.25 11.969,21.25 C17.069,21.25 21.219,17.1 21.219,12 C21.219,6.9 17.069,2.75 11.969,2.75 Z"/>
  <path fill="#292D32" d="M10.562,16.99 C10.122,16.99 9.702,16.88 9.332,16.67 C8.472,16.17 7.992,15.19 7.992,13.91 L7.992,10.56 C7.992,9.28 8.462,8.3 9.322,7.8 C10.182,7.3 11.272,7.38 12.382,8.02 L15.282,9.69 C16.392,10.33 17.002,11.23 17.002,12.23 C17.002,13.22 16.392,14.13 15.282,14.77 L12.382,16.44 C11.762,16.81 11.132,16.99 10.562,16.99 Z M10.562,8.97 C10.382,8.97 10.212,9.01 10.082,9.09 C9.702,9.31 9.492,9.84 9.492,10.56 L9.492,13.91 C9.492,14.62 9.702,15.16 10.082,15.37 C10.452,15.59 11.022,15.5 11.642,15.15 L14.542,13.48 C15.162,13.12 15.512,12.67 15.512,12.24 C15.512,11.81 15.152,11.36 14.542,11 L11.642,9.33 C11.242,9.09 10.872,8.97 10.562,8.97 Z"/>
</svg>