<svg xmlns="http://www.w3.org/2000/svg" width="24" height="24" viewBox="0 0 24 24">
  <defs/>
  <path fill="#292D32" d="M12,22.75 C6.07,22.75 1.25,17.93 1.25,12 C1.25,6.07 6.07,1.25 12,1.25 C17.93,1.25 22.75,6.07 22.75,12 C22.75,13.4 22.49,14.74 21.97,16 C21.88,16.21 21.71,16.37 21.49,16.43 C21.27,16.5 21.04,16.46 20.85,16.33 C19.67,15.52 18.07,15.58 16.96,16.46 C16.19,17.07 15.74,18 15.74,18.99 C15.74,19.58 15.9,20.16 16.21,20.66 C16.24,20.71 16.26,20.74 16.29,20.77 C16.45,20.95 16.51,21.2 16.46,21.44 C16.41,21.68 16.24,21.87 16.01,21.96 C14.74,22.49 13.39,22.75 12,22.75 Z M12,2.75 C6.9,2.75 2.75,6.9 2.75,12 C2.75,17.1 6.9,21.25 12,21.25 C12.9,21.25 13.78,21.12 14.63,20.86 C14.38,20.28 14.25,19.65 14.25,19 C14.25,17.54 14.9,16.19 16.03,15.29 C17.38,14.21 19.3,13.96 20.86,14.63 C21.11,13.79 21.24,12.9 21.24,11.99 C21.25,6.9 17.1,2.75 12,2.75 Z"/>
  <path fill="#292D32" d="M10.883,16.07 C10.493,16.07 10.123,15.98 9.803,15.79 C9.063,15.36 8.633,14.49 8.633,13.39 L8.633,10.61 C8.633,9.51 9.063,8.64 9.803,8.21 C10.553,7.78 11.523,7.85 12.473,8.4 L14.873,9.79 C15.823,10.34 16.363,11.15 16.363,12 C16.363,12.85 15.823,13.67 14.873,14.21 L12.473,15.6 C11.933,15.91 11.393,16.07 10.883,16.07 Z M10.893,9.43 C10.763,9.43 10.653,9.46 10.553,9.51 C10.283,9.67 10.133,10.07 10.133,10.61 L10.133,13.39 C10.133,13.93 10.283,14.34 10.553,14.49 C10.823,14.64 11.243,14.58 11.723,14.3 L14.123,12.91 C14.593,12.64 14.863,12.3 14.863,11.99 C14.863,11.68 14.593,11.35 14.123,11.07 L11.723,9.68 C11.413,9.52 11.133,9.43 10.893,9.43 Z"/>
  <path fill="#292D32" d="M19,23.75 C17.43,23.75 15.98,22.98 15.11,21.69 C15.07,21.66 14.99,21.54 14.93,21.43 C14.49,20.72 14.25,19.87 14.25,19 C14.25,17.54 14.9,16.19 16.03,15.29 C17.64,14.01 20.01,13.92 21.7,15.1 C22.98,15.99 23.74,17.44 23.74,19 C23.74,19.87 23.5,20.72 23.05,21.45 C22.8,21.87 22.48,22.25 22.1,22.57 C21.28,23.33 20.17,23.75 19,23.75 Z M19,15.75 C18.26,15.75 17.56,16 16.97,16.47 C16.2,17.08 15.75,18.01 15.75,19 C15.75,19.59 15.91,20.17 16.22,20.67 C16.25,20.72 16.27,20.75 16.3,20.78 C16.95,21.73 17.94,22.25 19.01,22.25 C19.8,22.25 20.56,21.96 21.14,21.44 C21.4,21.22 21.62,20.96 21.78,20.68 C22.1,20.17 22.26,19.59 22.26,19 C22.26,17.94 21.74,16.94 20.86,16.34 C20.3,15.95 19.66,15.75 19,15.75 Z"/>
  <path fill="#292D32" d="M20.069,20.79 C19.878,20.79 19.689,20.72 19.538,20.57 L17.428,18.46 C17.138,18.17 17.138,17.69 17.428,17.4 C17.718,17.11 18.198,17.11 18.488,17.4 L20.599,19.51 C20.889,19.8 20.889,20.28 20.599,20.57 C20.448,20.72 20.259,20.79 20.069,20.79 Z"/>
  <path fill="#292D32" d="M17.927,20.82 C17.737,20.82 17.547,20.75 17.397,20.6 C17.107,20.31 17.107,19.83 17.397,19.54 L19.507,17.43 C19.797,17.14 20.277,17.14 20.567,17.43 C20.857,17.72 20.857,18.2 20.567,18.49 L18.457,20.6 C18.307,20.75 18.117,20.82 17.927,20.82 Z"/>
</svg>