<svg xmlns="http://www.w3.org/2000/svg" width="24" height="24" viewBox="0 0 24 24">
  <defs/>
  <path fill="#292D32" d="M17.692,20.09 C17.122,20.09 16.562,19.94 16.042,19.64 L7.752,14.86 C6.722,14.26 6.102,13.19 6.102,12 C6.102,10.81 6.722,9.74 7.752,9.14 L16.042,4.36 C17.072,3.76 18.302,3.76 19.342,4.36 C20.382,4.96 20.991,6.02 20.991,7.22 L20.991,16.79 C20.991,17.98 20.372,19.05 19.342,19.65 C18.822,19.94 18.262,20.09 17.692,20.09 Z M17.692,5.41 C17.382,5.41 17.072,5.49 16.792,5.65 L8.502,10.43 C7.942,10.76 7.602,11.34 7.602,11.99 C7.602,12.64 7.942,13.22 8.502,13.55 L16.792,18.33 C17.352,18.66 18.032,18.66 18.592,18.33 C19.152,18 19.491,17.42 19.491,16.77 L19.491,7.2 C19.491,6.55 19.152,5.97 18.592,5.64 C18.312,5.5 18.002,5.41 17.692,5.41 Z"/>
  <path fill="#292D32" d="M3.758,18.93 C3.348,18.93 3.008,18.59 3.008,18.18 L3.008,5.82 C3.008,5.41 3.348,5.07 3.758,5.07 C4.168,5.07 4.508,5.41 4.508,5.82 L4.508,18.18 C4.508,18.59 4.168,18.93 3.758,18.93 Z"/>
</svg>