<svg xmlns="http://www.w3.org/2000/svg" width="24" height="24" viewBox="0 0 24 24">
  <defs/>
  <path fill="#292D32" d="M9.162,11.62 C9.133,11.62 9.113,11.62 9.082,11.62 C9.033,11.61 8.963,11.61 8.902,11.62 C6.003,11.53 3.812,9.25 3.812,6.44 C3.812,3.58 6.143,1.25 9.002,1.25 C11.863,1.25 14.193,3.58 14.193,6.44 C14.182,9.25 11.982,11.53 9.193,11.62 C9.182,11.62 9.172,11.62 9.162,11.62 Z M9.002,2.75 C6.973,2.75 5.312,4.41 5.312,6.44 C5.312,8.44 6.872,10.05 8.863,10.12 C8.922,10.11 9.053,10.11 9.182,10.12 C11.143,10.03 12.682,8.42 12.693,6.44 C12.693,4.41 11.033,2.75 9.002,2.75 Z"/>
  <path fill="#292D32" d="M16.542,11.75 C16.512,11.75 16.482,11.75 16.452,11.74 C16.042,11.78 15.622,11.49 15.582,11.08 C15.542,10.67 15.792,10.3 16.202,10.25 C16.322,10.24 16.452,10.24 16.562,10.24 C18.022,10.16 19.162,8.96 19.162,7.49 C19.162,5.97 17.932,4.74 16.412,4.74 C16.002,4.75 15.662,4.41 15.662,4 C15.662,3.59 16.002,3.25 16.412,3.25 C18.752,3.25 20.662,5.16 20.662,7.5 C20.662,9.8 18.862,11.66 16.572,11.75 C16.562,11.75 16.552,11.75 16.542,11.75 Z"/>
  <path fill="#292D32" d="M9.172,22.55 C7.212,22.55 5.242,22.05 3.752,21.05 C2.362,20.13 1.602,18.87 1.602,17.5 C1.602,16.13 2.362,14.86 3.752,13.93 C6.752,11.94 11.612,11.94 14.592,13.93 C15.972,14.85 16.742,16.11 16.742,17.48 C16.742,18.85 15.982,20.12 14.592,21.05 C13.092,22.05 11.132,22.55 9.172,22.55 Z M4.582,15.19 C3.622,15.83 3.102,16.65 3.102,17.51 C3.102,18.36 3.632,19.18 4.582,19.81 C7.072,21.48 11.272,21.48 13.762,19.81 C14.722,19.17 15.242,18.35 15.242,17.49 C15.242,16.64 14.712,15.82 13.762,15.19 C11.272,13.53 7.072,13.53 4.582,15.19 Z"/>
  <path fill="#292D32" d="M18.338,20.75 C17.988,20.75 17.678,20.51 17.608,20.15 C17.528,19.74 17.788,19.35 18.188,19.26 C18.818,19.13 19.398,18.88 19.848,18.53 C20.418,18.1 20.728,17.56 20.728,16.99 C20.728,16.42 20.418,15.88 19.858,15.46 C19.418,15.12 18.868,14.88 18.218,14.73 C17.818,14.64 17.558,14.24 17.648,13.83 C17.738,13.43 18.138,13.17 18.548,13.26 C19.408,13.45 20.158,13.79 20.768,14.26 C21.698,14.96 22.228,15.95 22.228,16.99 C22.228,18.03 21.688,19.02 20.758,19.73 C20.138,20.21 19.358,20.56 18.498,20.73 C18.438,20.75 18.388,20.75 18.338,20.75 Z"/>
</svg>