<svg xmlns="http://www.w3.org/2000/svg" width="24" height="24" viewBox="0 0 24 24">
  <defs/>
  <path fill="#292D32" d="M15.963,21.32 C15.773,21.32 15.583,21.25 15.433,21.1 L13.913,19.58 C13.623,19.29 13.623,18.81 13.913,18.52 C14.203,18.23 14.683,18.23 14.973,18.52 L15.963,19.51 L18.473,17 C18.763,16.71 19.243,16.71 19.533,17 C19.823,17.29 19.823,17.77 19.533,18.06 L16.493,21.1 C16.343,21.25 16.153,21.32 15.963,21.32 Z"/>
  <path fill="#292D32" d="M12.163,11.62 C12.133,11.62 12.113,11.62 12.083,11.62 C12.033,11.61 11.963,11.61 11.903,11.62 C9.003,11.53 6.813,9.25 6.813,6.44 C6.803,5.06 7.343,3.76 8.323,2.78 C9.303,1.8 10.603,1.25 11.993,1.25 C14.853,1.25 17.183,3.58 17.183,6.44 C17.183,9.25 14.993,11.52 12.193,11.62 C12.183,11.62 12.173,11.62 12.163,11.62 Z M11.993,2.75 C11.003,2.75 10.083,3.14 9.383,3.83 C8.693,4.53 8.313,5.45 8.313,6.43 C8.313,8.43 9.873,10.05 11.863,10.11 C11.923,10.1 12.053,10.1 12.183,10.11 C14.153,10.02 15.683,8.41 15.683,6.43 C15.683,4.41 14.023,2.75 11.993,2.75 Z"/>
  <path fill="#292D32" d="M11.994,22.56 C9.954,22.56 8.024,22.03 6.564,21.05 C5.174,20.12 4.414,18.85 4.414,17.48 C4.414,16.11 5.184,14.85 6.564,13.93 C9.554,11.93 14.414,11.93 17.404,13.93 C17.744,14.16 17.844,14.63 17.614,14.97 C17.384,15.32 16.914,15.41 16.574,15.18 C14.084,13.52 9.884,13.52 7.394,15.18 C6.434,15.82 5.914,16.63 5.914,17.48 C5.914,18.33 6.434,19.16 7.394,19.8 C8.604,20.61 10.234,21.05 11.984,21.05 C12.394,21.05 12.734,21.39 12.734,21.8 C12.734,22.21 12.404,22.56 11.994,22.56 Z"/>
</svg>