<svg xmlns="http://www.w3.org/2000/svg" width="24" height="24" viewBox="0 0 24 24">
  <defs/>
  <path fill="#292D32" d="M19.5,19.75 L15.5,19.75 C15.09,19.75 14.75,19.41 14.75,19 C14.75,18.59 15.09,18.25 15.5,18.25 L19.5,18.25 C19.91,18.25 20.25,18.59 20.25,19 C20.25,19.41 19.91,19.75 19.5,19.75 Z"/>
  <path fill="#292D32" d="M12.147,11.62 C12.117,11.62 12.097,11.62 12.067,11.62 C12.007,11.61 11.947,11.62 11.887,11.62 C8.987,11.53 6.797,9.25 6.797,6.44 C6.797,3.58 9.127,1.25 11.987,1.25 C14.847,1.25 17.177,3.58 17.177,6.44 C17.167,9.25 14.967,11.53 12.177,11.62 C12.167,11.62 12.157,11.62 12.147,11.62 Z M11.987,2.75 C9.957,2.75 8.297,4.41 8.297,6.44 C8.297,8.44 9.857,10.05 11.847,10.12 C11.907,10.11 12.037,10.11 12.167,10.12 C14.127,10.03 15.667,8.42 15.677,6.44 C15.677,4.41 14.017,2.75 11.987,2.75 Z"/>
  <path fill="#292D32" d="M11.994,22.56 C9.954,22.56 8.024,22.03 6.564,21.05 C5.174,20.12 4.414,18.85 4.414,17.48 C4.414,16.11 5.184,14.85 6.564,13.93 C9.554,11.93 14.414,11.93 17.404,13.93 C17.744,14.16 17.844,14.63 17.614,14.97 C17.384,15.32 16.914,15.41 16.574,15.18 C14.084,13.52 9.884,13.52 7.394,15.18 C6.434,15.82 5.914,16.63 5.914,17.48 C5.914,18.33 6.434,19.16 7.394,19.8 C8.604,20.61 10.234,21.05 11.984,21.05 C12.394,21.05 12.734,21.39 12.734,21.8 C12.734,22.21 12.404,22.56 11.994,22.56 Z"/>
</svg>