<svg xmlns="http://www.w3.org/2000/svg" width="24" height="24" viewBox="0 0 24 24">
  <defs/>
  <path fill="#292D32" d="M15.591,21.66 C15.401,21.66 15.211,21.59 15.061,21.44 C14.771,21.15 14.771,20.67 15.061,20.38 L17.881,17.56 C18.171,17.27 18.651,17.27 18.941,17.56 C19.231,17.85 19.231,18.33 18.941,18.62 L16.121,21.44 C15.971,21.59 15.781,21.66 15.591,21.66 Z"/>
  <path fill="#292D32" d="M18.411,21.66 C18.221,21.66 18.031,21.59 17.881,21.44 L15.061,18.62 C14.771,18.33 14.771,17.85 15.061,17.56 C15.351,17.27 15.831,17.27 16.121,17.56 L18.941,20.38 C19.231,20.67 19.231,21.15 18.941,21.44 C18.791,21.59 18.601,21.66 18.411,21.66 Z"/>
  <path fill="#292D32" d="M12.162,11.62 C12.133,11.62 12.113,11.62 12.082,11.62 C12.033,11.61 11.963,11.61 11.902,11.62 C9.002,11.53 6.812,9.25 6.812,6.44 C6.812,3.58 9.143,1.25 12.002,1.25 C14.863,1.25 17.192,3.58 17.192,6.44 C17.183,9.25 14.982,11.53 12.193,11.62 C12.182,11.62 12.172,11.62 12.162,11.62 Z M12.002,2.75 C9.973,2.75 8.312,4.41 8.312,6.44 C8.312,8.44 9.873,10.05 11.863,10.12 C11.922,10.11 12.053,10.11 12.182,10.12 C14.143,10.03 15.682,8.42 15.693,6.44 C15.693,4.41 14.033,2.75 12.002,2.75 Z"/>
  <path fill="#292D32" d="M12.002,22.56 C9.962,22.56 8.032,22.03 6.572,21.05 C5.182,20.12 4.422,18.85 4.422,17.48 C4.422,16.11 5.192,14.85 6.572,13.93 C9.562,11.93 14.422,11.93 17.412,13.93 C17.752,14.16 17.852,14.63 17.622,14.97 C17.392,15.32 16.922,15.41 16.582,15.18 C14.092,13.52 9.892,13.52 7.402,15.18 C6.442,15.82 5.922,16.63 5.922,17.48 C5.922,18.33 6.452,19.16 7.402,19.8 C8.612,20.61 10.242,21.05 11.992,21.05 C12.402,21.05 12.742,21.39 12.742,21.8 C12.742,22.21 12.412,22.56 12.002,22.56 Z"/>
</svg>