<svg xmlns="http://www.w3.org/2000/svg" width="24" height="24" viewBox="0 0 24 24">
  <defs/>
  <path fill="#4C4C4C" d="M12.014,13.523 Q12.002,13.521 11.973,13.525 Q11.914,13.532 11.855,13.53 Q7.97,13.398 7.97,9.51 Q7.97,7.841 9.147,6.662 Q10.326,5.48 12,5.48 Q14.015,5.48 15.023,6.488 Q16.03,7.495 16.03,9.51 Q16.008,13.398 12.146,13.53 Q12.08,13.532 12.014,13.523 Z M12.147,12.029 Q14.517,11.922 14.53,9.51 Q14.53,8.245 13.898,7.613 Q13.265,6.98 12,6.98 Q10.948,6.98 10.209,7.721 Q9.47,8.461 9.47,9.51 Q9.47,11.923 11.856,12.029 Q12.005,12.016 12.147,12.029 Z"/>
  <path fill="#4C4C4C" d="M19.246,19.933 Q16.17,22.75 12,22.75 Q7.829,22.75 4.753,19.933 Q4.474,19.677 4.514,19.3 Q4.71,17.456 6.611,16.177 Q8.858,14.685 12.007,14.685 Q15.158,14.685 17.387,16.176 Q19.289,17.456 19.486,19.3 Q19.526,19.677 19.246,19.933 Z M17.924,19.098 Q17.661,18.169 16.553,17.423 Q14.702,16.185 12.007,16.185 Q9.311,16.185 7.448,17.422 Q6.339,18.169 6.075,19.098 Q8.62,21.25 12,21.25 Q15.38,21.25 17.924,19.098 Z"/>
  <path fill="#4C4C4C" d="M12,22.75 Q7.547,22.75 4.399,19.601 Q1.25,16.453 1.25,12 Q1.25,7.547 4.399,4.399 Q7.547,1.25 12,1.25 Q16.453,1.25 19.601,4.399 Q22.75,7.547 22.75,12 Q22.75,16.453 19.601,19.601 Q16.453,22.75 12,22.75 Z M12,21.25 Q15.831,21.25 18.541,18.541 Q21.25,15.831 21.25,12 Q21.25,8.169 18.541,5.459 Q15.831,2.75 12,2.75 Q8.169,2.75 5.459,5.459 Q2.75,8.169 2.75,12 Q2.75,15.831 5.459,18.541 Q8.169,21.25 12,21.25 Z"/>
</svg>