<svg xmlns="http://www.w3.org/2000/svg" width="24" height="24" viewBox="0 0 24 24">
  <defs/>
  <path fill="#292D32" d="M21.997,12.4 L16.197,12.4 C14.297,12.4 12.867,10.97 12.867,9.07 L12.867,5.85 C12.867,3.95 14.297,2.52 16.197,2.52 L19.417,2.52 C21.247,2.52 22.747,4.01 22.747,5.85 L22.747,11.65 C22.747,12.07 22.407,12.4 21.997,12.4 Z M16.197,4.03 C15.137,4.03 14.367,4.8 14.367,5.86 L14.367,9.08 C14.367,10.14 15.137,10.91 16.197,10.91 L21.247,10.91 L21.247,5.86 C21.247,4.85 20.427,4.03 19.417,4.03 L16.197,4.03 Z"/>
  <path fill="#292D32" d="M17.473,21.47 C17.212,21.47 16.962,21.34 16.823,21.1 C16.613,20.74 16.733,20.28 17.082,20.07 C20.312,18.15 21.253,17.35 21.253,11.65 C21.253,11.24 21.593,10.9 22.003,10.9 C22.413,10.9 22.753,11.24 22.753,11.65 C22.753,17.9 21.483,19.21 17.852,21.36 C17.733,21.44 17.602,21.47 17.473,21.47 Z"/>
  <path fill="#292D32" d="M10.372,12.4 L4.572,12.4 C2.672,12.4 1.242,10.97 1.242,9.07 L1.242,5.85 C1.242,3.95 2.672,2.52 4.572,2.52 L7.802,2.52 C9.632,2.52 11.132,4.01 11.132,5.85 L11.132,11.65 C11.122,12.07 10.792,12.4 10.372,12.4 Z M4.582,4.03 C3.522,4.03 2.752,4.8 2.752,5.86 L2.752,9.08 C2.752,10.14 3.522,10.91 4.582,10.91 L9.632,10.91 L9.632,5.86 C9.632,4.85 8.812,4.03 7.802,4.03 L4.582,4.03 Z"/>
  <path fill="#292D32" d="M5.84,21.47 C5.58,21.47 5.33,21.34 5.19,21.1 C4.98,20.74 5.1,20.28 5.45,20.07 C8.68,18.15 9.62,17.35 9.62,11.65 C9.62,11.24 9.96,10.9 10.37,10.9 C10.78,10.9 11.12,11.24 11.12,11.65 C11.12,17.9 9.85,19.21 6.22,21.36 C6.1,21.44 5.97,21.47 5.84,21.47 Z"/>
</svg>