<svg xmlns="http://www.w3.org/2000/svg" width="24" height="24" viewBox="0 0 24 24">
  <defs/>
  <path fill="#292D32" d="M7.8,21.47 L4.58,21.47 C2.75,21.47 1.25,19.98 1.25,18.14 L1.25,12.34 C1.25,11.93 1.59,11.59 2,11.59 L7.8,11.59 C9.7,11.59 11.13,13.02 11.13,14.92 L11.13,18.14 C11.12,20.04 9.69,21.47 7.8,21.47 Z M2.75,13.1 L2.75,18.15 C2.75,19.16 3.57,19.98 4.58,19.98 L7.8,19.98 C8.86,19.98 9.63,19.21 9.63,18.15 L9.63,14.93 C9.63,13.87 8.86,13.1 7.8,13.1 L2.75,13.1 Z"/>
  <path fill="#292D32" d="M2,13.1 C1.59,13.1 1.25,12.76 1.25,12.35 C1.25,6.1 2.52,4.79 6.15,2.64 C6.51,2.43 6.97,2.55 7.18,2.9 C7.39,3.26 7.27,3.72 6.92,3.93 C3.68,5.85 2.75,6.65 2.75,12.35 C2.75,12.76 2.41,13.1 2,13.1 Z"/>
  <path fill="#292D32" d="M19.417,21.47 L16.197,21.47 C14.367,21.47 12.867,19.98 12.867,18.14 L12.867,12.34 C12.867,11.93 13.207,11.59 13.617,11.59 L19.417,11.59 C21.317,11.59 22.747,13.02 22.747,14.92 L22.747,18.14 C22.747,20.04 21.317,21.47 19.417,21.47 Z M14.377,13.1 L14.377,18.15 C14.377,19.16 15.197,19.98 16.207,19.98 L19.427,19.98 C20.487,19.98 21.257,19.21 21.257,18.15 L21.257,14.93 C21.257,13.87 20.487,13.1 19.427,13.1 L14.377,13.1 Z"/>
  <path fill="#292D32" d="M13.633,13.1 C13.223,13.1 12.883,12.76 12.883,12.35 C12.883,6.1 14.153,4.79 17.783,2.64 C18.143,2.43 18.603,2.55 18.813,2.9 C19.023,3.26 18.903,3.72 18.553,3.93 C15.313,5.85 14.383,6.65 14.383,12.35 C14.383,12.76 14.043,13.1 13.633,13.1 Z"/>
</svg>