<svg xmlns="http://www.w3.org/2000/svg" width="24" height="24" viewBox="0 0 24 24">
  <defs/>
  <path fill="#292D32" d="M10.543,21.94 C10.313,21.94 10.094,21.84 9.943,21.64 L8.933,20.29 C8.723,20.01 8.443,19.85 8.143,19.83 C7.843,19.81 7.543,19.95 7.303,20.2 C5.853,21.75 4.753,21.62 4.223,21.42 C3.683,21.21 2.773,20.52 2.773,18.3 L2.773,7.04 C2.773,2.6 4.053,1.25 8.243,1.25 L15.793,1.25 C19.983,1.25 21.264,2.6 21.264,7.04 L21.264,11.3 C21.264,11.71 20.924,12.05 20.514,12.05 C20.104,12.05 19.764,11.71 19.764,11.3 L19.764,7.04 C19.764,3.43 19.134,2.75 15.793,2.75 L8.243,2.75 C4.903,2.75 4.273,3.43 4.273,7.04 L4.273,18.3 C4.273,19.35 4.533,19.93 4.773,20.02 C4.953,20.09 5.443,19.99 6.203,19.18 C6.753,18.6 7.473,18.29 8.223,18.33 C8.963,18.37 9.663,18.76 10.133,19.39 L11.153,20.74 C11.403,21.07 11.333,21.54 11.003,21.79 C10.853,21.9 10.694,21.94 10.543,21.94 Z"/>
  <path fill="#292D32" d="M18.2,22.15 C16.02,22.15 14.25,20.38 14.25,18.2 C14.25,16.02 16.02,14.25 18.2,14.25 C20.38,14.25 22.15,16.02 22.15,18.2 C22.15,20.38 20.38,22.15 18.2,22.15 Z M18.2,15.75 C16.85,15.75 15.75,16.85 15.75,18.2 C15.75,19.55 16.85,20.65 18.2,20.65 C19.55,20.65 20.65,19.55 20.65,18.2 C20.65,16.85 19.55,15.75 18.2,15.75 Z"/>
  <path fill="#292D32" d="M21.997,22.75 C21.808,22.75 21.617,22.68 21.468,22.53 L20.468,21.53 C20.177,21.24 20.177,20.76 20.468,20.47 C20.758,20.18 21.238,20.18 21.527,20.47 L22.527,21.47 C22.817,21.76 22.817,22.24 22.527,22.53 C22.378,22.68 22.188,22.75 21.997,22.75 Z"/>
  <path fill="#292D32" d="M16,7.75 L8,7.75 C7.59,7.75 7.25,7.41 7.25,7 C7.25,6.59 7.59,6.25 8,6.25 L16,6.25 C16.41,6.25 16.75,6.59 16.75,7 C16.75,7.41 16.41,7.75 16,7.75 Z"/>
  <path fill="#292D32" d="M15,11.75 L9,11.75 C8.59,11.75 8.25,11.41 8.25,11 C8.25,10.59 8.59,10.25 9,10.25 L15,10.25 C15.41,10.25 15.75,10.59 15.75,11 C15.75,11.41 15.41,11.75 15,11.75 Z"/>
</svg>