<svg xmlns="http://www.w3.org/2000/svg" width="24" height="24" viewBox="0 0 24 24">
  <defs/>
  <path fill="#292D32" d="M19.42,11.75 L16,11.75 C15.59,11.75 15.25,11.41 15.25,11 L15.25,4.01 C15.25,3.27 15.54,2.58 16.06,2.06 C16.58,1.54 17.27,1.25 18.01,1.25 L18.02,1.25 C19.27,1.26 20.45,1.75 21.35,2.64 C22.25,3.55 22.74,4.75 22.74,6 L22.74,8.42 C22.75,10.41 21.41,11.75 19.42,11.75 Z M16.75,10.25 L19.42,10.25 C20.58,10.25 21.25,9.58 21.25,8.42 L21.25,6 C21.25,5.14 20.91,4.32 20.3,3.7 C19.69,3.1 18.88,2.76 18.02,2.75 C18.02,2.75 18.02,2.75 18.01,2.75 C17.68,2.75 17.36,2.88 17.12,3.12 C16.88,3.36 16.75,3.67 16.75,4.01 L16.75,10.25 Z"/>
  <path fill="#292D32" d="M8.998,23.33 C8.528,23.33 8.088,23.15 7.758,22.81 L6.098,21.14 C6.008,21.05 5.868,21.04 5.768,21.12 L4.058,22.4 C3.528,22.8 2.828,22.87 2.228,22.57 C1.628,22.27 1.258,21.67 1.258,21 L1.258,6 C1.258,2.98 2.988,1.25 6.008,1.25 L18.008,1.25 C18.418,1.25 18.758,1.59 18.758,2 C18.758,2.41 18.418,2.75 18.008,2.75 C17.318,2.75 16.758,3.31 16.758,4 L16.758,21 C16.758,21.67 16.388,22.27 15.788,22.57 C15.198,22.87 14.488,22.8 13.958,22.4 L12.248,21.12 C12.148,21.04 12.008,21.06 11.928,21.14 L10.248,22.82 C9.908,23.15 9.468,23.33 8.998,23.33 Z M5.908,19.57 C6.368,19.57 6.818,19.74 7.158,20.09 L8.818,21.76 C8.878,21.82 8.958,21.83 8.998,21.83 C9.038,21.83 9.118,21.82 9.178,21.76 L10.858,20.08 C11.478,19.46 12.458,19.4 13.148,19.93 L14.848,21.2 C14.958,21.28 15.058,21.25 15.108,21.22 C15.158,21.19 15.248,21.13 15.248,21 L15.248,4 C15.248,3.55 15.358,3.12 15.548,2.75 L5.998,2.75 C3.778,2.75 2.748,3.78 2.748,6 L2.748,21 C2.748,21.14 2.838,21.2 2.888,21.23 C2.948,21.26 3.048,21.28 3.148,21.2 L4.858,19.92 C5.168,19.69 5.538,19.57 5.908,19.57 Z"/>
  <path fill="#292D32" d="M12,9.75 L6,9.75 C5.59,9.75 5.25,9.41 5.25,9 C5.25,8.59 5.59,8.25 6,8.25 L12,8.25 C12.41,8.25 12.75,8.59 12.75,9 C12.75,9.41 12.41,9.75 12,9.75 Z"/>
  <path fill="#292D32" d="M11.25,13.75 L6.75,13.75 C6.34,13.75 6,13.41 6,13 C6,12.59 6.34,12.25 6.75,12.25 L11.25,12.25 C11.66,12.25 12,12.59 12,13 C12,13.41 11.66,13.75 11.25,13.75 Z"/>
</svg>