<svg xmlns="http://www.w3.org/2000/svg" width="24" height="24" viewBox="0 0 24 24">
  <defs/>
  <path fill="#292D32" d="M15,22.75 L9,22.75 C3.57,22.75 1.25,20.43 1.25,15 L1.25,9 C1.25,3.57 3.57,1.25 9,1.25 L15,1.25 C20.43,1.25 22.75,3.57 22.75,9 L22.75,15 C22.75,20.43 20.43,22.75 15,22.75 Z M9,2.75 C4.39,2.75 2.75,4.39 2.75,9 L2.75,15 C2.75,19.61 4.39,21.25 9,21.25 L15,21.25 C19.61,21.25 21.25,19.61 21.25,15 L21.25,9 C21.25,4.39 19.61,2.75 15,2.75 L9,2.75 Z"/>
  <path fill="#292D32" d="M14.834,14.09 L10.594,14.09 C10.184,14.09 9.844,13.75 9.844,13.34 C9.844,12.93 10.184,12.59 10.594,12.59 L14.084,12.59 L14.084,9.1 C14.084,8.69 14.424,8.35 14.834,8.35 C15.244,8.35 15.584,8.69 15.584,9.1 L15.584,13.34 C15.584,13.76 15.244,14.09 14.834,14.09 Z"/>
  <path fill="#292D32" d="M14.829,14.09 C14.639,14.09 14.449,14.02 14.299,13.87 L8.639,8.21 C8.349,7.92 8.349,7.44 8.639,7.15 C8.929,6.86 9.409,6.86 9.699,7.15 L15.359,12.81 C15.649,13.1 15.649,13.58 15.359,13.87 C15.209,14.02 15.019,14.09 14.829,14.09 Z"/>
  <path fill="#292D32" d="M11.998,18.23 C9.888,18.23 7.768,17.89 5.758,17.22 C5.368,17.09 5.158,16.66 5.288,16.27 C5.418,15.88 5.848,15.66 6.238,15.8 C9.958,17.04 14.049,17.04 17.768,15.8 C18.159,15.67 18.588,15.88 18.718,16.27 C18.849,16.66 18.639,17.09 18.248,17.22 C16.229,17.9 14.108,18.23 11.998,18.23 Z"/>
</svg>