<svg xmlns="http://www.w3.org/2000/svg" width="24" height="24" viewBox="0 0 24 24">
  <defs/>
  <path fill="#292D32" d="M11.42,19.25 L8.69,19.25 C6,19.25 4.75,18 4.75,15.31 L4.75,12.58 C4.75,9.9 6,8.65 8.69,8.65 L11.42,8.65 C14.1,8.65 15.36,9.9 15.36,12.59 L15.36,15.32 C15.35,18 14.1,19.25 11.42,19.25 Z M8.69,10.15 C6.82,10.15 6.25,10.72 6.25,12.59 L6.25,15.32 C6.25,17.19 6.82,17.76 8.69,17.76 L11.42,17.76 C13.29,17.76 13.86,17.19 13.86,15.32 L13.86,12.59 C13.86,10.72 13.29,10.15 11.42,10.15 L8.69,10.15 Z"/>
  <path fill="#292D32" d="M15.308,15.35 L14.598,15.35 C14.188,15.35 13.848,15.01 13.848,14.6 L13.848,12.58 C13.848,10.71 13.278,10.14 11.408,10.14 L9.398,10.14 C8.988,10.14 8.648,9.8 8.648,9.39 L8.648,8.69 C8.648,6.01 9.898,4.75 12.588,4.75 L15.318,4.75 C17.998,4.75 19.258,6 19.258,8.69 L19.258,11.42 C19.248,14.1 17.998,15.35 15.308,15.35 Z M10.148,8.65 L11.418,8.65 C14.098,8.65 15.358,9.9 15.358,12.59 L15.358,13.86 C17.198,13.85 17.758,13.28 17.758,11.42 L17.758,8.69 C17.758,6.82 17.188,6.25 15.318,6.25 L12.588,6.25 C10.728,6.25 10.158,6.81 10.148,8.65 Z"/>
  <path fill="#292D32" d="M14.996,22.75 C14.726,22.75 14.476,22.6 14.346,22.37 C14.216,22.13 14.216,21.85 14.356,21.61 L15.406,19.86 C15.616,19.5 16.076,19.39 16.436,19.6 C16.796,19.81 16.906,20.27 16.696,20.63 L16.426,21.08 C19.186,20.43 21.256,17.95 21.256,14.99 C21.256,14.58 21.596,14.24 22.006,14.24 C22.416,14.24 22.756,14.58 22.756,14.99 C22.746,19.27 19.266,22.75 14.996,22.75 Z"/>
  <path fill="#292D32" d="M2,9.75 C1.59,9.75 1.25,9.41 1.25,9 C1.25,4.73 4.73,1.25 9,1.25 C9.27,1.25 9.52,1.4 9.65,1.63 C9.78,1.87 9.78,2.15 9.64,2.39 L8.59,4.14 C8.38,4.49 7.92,4.61 7.56,4.39 C7.21,4.18 7.09,3.72 7.31,3.36 L7.58,2.91 C4.81,3.56 2.75,6.04 2.75,9 C2.75,9.41 2.41,9.75 2,9.75 Z"/>
</svg>