<svg xmlns="http://www.w3.org/2000/svg" width="24" height="24" viewBox="0 0 24 24">
  <defs/>
  <path fill="#292D32" d="M11.969,22.75 C6.049,22.75 1.219,17.93 1.219,12 C1.219,6.07 6.049,1.25 11.969,1.25 C17.889,1.25 22.719,6.07 22.719,12 C22.719,17.93 17.899,22.75 11.969,22.75 Z M11.969,2.75 C6.869,2.75 2.719,6.9 2.719,12 C2.719,17.1 6.869,21.25 11.969,21.25 C17.069,21.25 21.219,17.1 21.219,12 C21.219,6.9 17.069,2.75 11.969,2.75 Z"/>
  <path fill="#292D32" d="M12.003,16.98 C9.253,16.98 7.023,14.75 7.023,12 C7.023,9.25 9.253,7.02 12.003,7.02 C14.753,7.02 16.983,9.25 16.983,12 C16.983,14.75 14.753,16.98 12.003,16.98 Z M12.003,8.52 C10.083,8.52 8.523,10.08 8.523,12 C8.523,13.92 10.083,15.48 12.003,15.48 C13.923,15.48 15.483,13.92 15.483,12 C15.483,10.08 13.923,8.52 12.003,8.52 Z"/>
</svg>