<svg xmlns="http://www.w3.org/2000/svg" width="24" height="24" viewBox="0 0 24 24">
  <defs/>
  <path fill="#292D32" d="M16.867,19.06 L8.867,19.06 C5.697,19.06 3.117,16.48 3.117,13.31 C3.117,10.14 5.697,7.56 8.867,7.56 L19.867,7.56 C20.277,7.56 20.617,7.9 20.617,8.31 C20.617,8.72 20.277,9.06 19.867,9.06 L8.867,9.06 C6.527,9.06 4.617,10.97 4.617,13.31 C4.617,15.65 6.527,17.56 8.867,17.56 L16.867,17.56 C17.277,17.56 17.617,17.9 17.617,18.31 C17.617,18.72 17.287,19.06 16.867,19.06 Z"/>
  <path fill="#292D32" d="M17.568,11.56 C17.378,11.56 17.188,11.49 17.038,11.34 C16.748,11.05 16.748,10.57 17.038,10.28 L19.068,8.25 L17.038,6.22 C16.748,5.93 16.748,5.45 17.038,5.16 C17.328,4.87 17.808,4.87 18.098,5.16 L20.658,7.72 C20.948,8.01 20.948,8.49 20.658,8.78 L18.098,11.34 C17.948,11.49 17.758,11.56 17.568,11.56 Z"/>
</svg>