<svg xmlns="http://www.w3.org/2000/svg" width="24" height="24" viewBox="0 0 24 24">
  <defs/>
  <path fill="#292D32" d="M12,22.75 C6.07,22.75 1.25,17.93 1.25,12 C1.25,6.07 6.07,1.25 12,1.25 C17.93,1.25 22.75,6.07 22.75,12 C22.75,17.93 17.93,22.75 12,22.75 Z M12,2.75 C6.9,2.75 2.75,6.9 2.75,12 C2.75,17.1 6.9,21.25 12,21.25 C17.1,21.25 21.25,17.1 21.25,12 C21.25,6.9 17.1,2.75 12,2.75 Z"/>
  <path fill="#292D32" d="M12.001,17.47 C10.601,17.47 9.201,16.94 8.131,15.87 C7.851,15.59 7.601,15.28 7.371,14.91 C7.151,14.56 7.261,14.1 7.611,13.88 C7.961,13.66 8.421,13.77 8.641,14.12 C8.811,14.4 8.991,14.62 9.191,14.82 C10.741,16.37 13.261,16.37 14.811,14.82 C15.411,14.22 15.791,13.44 15.921,12.57 C15.981,12.16 16.361,11.86 16.771,11.93 C17.181,11.99 17.461,12.37 17.411,12.78 C17.241,13.97 16.711,15.04 15.881,15.88 C14.801,16.94 13.401,17.47 12.001,17.47 Z"/>
  <path fill="#292D32" d="M7.336,12.08 C7.296,12.08 7.266,12.08 7.226,12.07 C6.816,12.01 6.526,11.63 6.586,11.22 C6.756,10.03 7.286,8.96 8.116,8.12 C10.246,5.99 13.716,5.99 15.856,8.12 C16.136,8.4 16.386,8.71 16.616,9.09 C16.836,9.44 16.726,9.9 16.376,10.12 C16.026,10.34 15.566,10.23 15.346,9.88 C15.176,9.61 14.996,9.38 14.796,9.18 C13.246,7.63 10.726,7.63 9.176,9.18 C8.576,9.78 8.196,10.56 8.066,11.43 C8.026,11.81 7.706,12.08 7.336,12.08 Z"/>
  <path fill="#292D32" d="M7.82,17.93 C7.41,17.93 7.07,17.59 7.07,17.18 L7.07,14.51 C7.07,14.1 7.41,13.76 7.82,13.76 L10.49,13.76 C10.9,13.76 11.24,14.1 11.24,14.51 C11.24,14.92 10.9,15.26 10.49,15.26 L8.57,15.26 L8.57,17.18 C8.57,17.59 8.24,17.93 7.82,17.93 Z"/>
  <path fill="#292D32" d="M16.178,10.24 L13.508,10.24 C13.098,10.24 12.758,9.9 12.758,9.49 C12.758,9.08 13.098,8.74 13.508,8.74 L15.428,8.74 L15.428,6.82 C15.428,6.41 15.768,6.07 16.178,6.07 C16.588,6.07 16.928,6.41 16.928,6.82 L16.928,9.49 C16.928,9.91 16.588,10.24 16.178,10.24 Z"/>
</svg>