<svg xmlns="http://www.w3.org/2000/svg" width="24" height="24" viewBox="0 0 24 24">
  <defs/>
  <path fill="#292D32" d="M20.418,12.22 C20.008,12.22 19.668,11.88 19.668,11.47 L19.668,8.15 C19.668,6.91 18.658,5.9 17.418,5.9 L3.578,5.9 C3.168,5.9 2.828,5.56 2.828,5.15 C2.828,4.74 3.168,4.4 3.578,4.4 L17.418,4.4 C19.488,4.4 21.168,6.08 21.168,8.15 L21.168,11.47 C21.168,11.89 20.828,12.22 20.418,12.22 Z"/>
  <path fill="#292D32" d="M6.738,9.07 C6.548,9.07 6.358,9 6.208,8.85 L3.048,5.69 C2.908,5.55 2.828,5.36 2.828,5.16 C2.828,4.96 2.908,4.77 3.048,4.63 L6.208,1.47 C6.498,1.18 6.978,1.18 7.268,1.47 C7.558,1.76 7.558,2.24 7.268,2.53 L4.638,5.16 L7.268,7.79 C7.558,8.08 7.558,8.56 7.268,8.85 C7.118,8.99 6.928,9.07 6.738,9.07 Z"/>
  <path fill="#292D32" d="M20.418,19.59 L6.578,19.59 C4.508,19.59 2.828,17.91 2.828,15.84 L2.828,12.52 C2.828,12.11 3.168,11.77 3.578,11.77 C3.988,11.77 4.328,12.11 4.328,12.52 L4.328,15.84 C4.328,17.08 5.338,18.09 6.578,18.09 L20.418,18.09 C20.828,18.09 21.168,18.43 21.168,18.84 C21.168,19.25 20.828,19.59 20.418,19.59 Z"/>
  <path fill="#292D32" d="M17.263,22.75 C17.073,22.75 16.883,22.68 16.733,22.53 C16.443,22.24 16.443,21.76 16.733,21.47 L19.363,18.84 L16.733,16.21 C16.443,15.92 16.443,15.44 16.733,15.15 C17.023,14.86 17.503,14.86 17.793,15.15 L20.953,18.31 C21.093,18.45 21.173,18.64 21.173,18.84 C21.173,19.04 21.093,19.23 20.953,19.37 L17.793,22.53 C17.653,22.68 17.463,22.75 17.263,22.75 Z"/>
</svg>