<svg xmlns="http://www.w3.org/2000/svg" width="24" height="24" viewBox="0 0 24 24">
  <defs/>
  <path fill="#292D32" d="M3.91,17.18 C3.72,17.18 3.53,17.11 3.38,16.96 C2.01,15.58 1.25,13.76 1.25,11.83 C1.25,7.82 4.5,4.56 8.5,4.56 L14.57,4.58 L13.48,3.54 C13.18,3.25 13.17,2.78 13.46,2.48 C13.75,2.18 14.22,2.17 14.52,2.46 L16.96,4.8 C17.18,5.01 17.25,5.34 17.14,5.62 C17.03,5.9 16.75,6.09 16.44,6.09 L8.49,6.07 C5.32,6.07 2.74,8.66 2.74,11.84 C2.74,13.37 3.34,14.82 4.43,15.91 C4.72,16.2 4.72,16.68 4.43,16.97 C4.29,17.11 4.1,17.18 3.91,17.18 Z"/>
  <path fill="#292D32" d="M10.004,21.75 C9.814,21.75 9.634,21.68 9.484,21.54 L7.044,19.2 C6.824,18.99 6.754,18.66 6.864,18.38 C6.974,18.1 7.254,17.91 7.564,17.91 L15.514,17.93 C18.684,17.93 21.264,15.34 21.264,12.16 C21.264,10.63 20.664,9.18 19.574,8.09 C19.284,7.8 19.284,7.32 19.574,7.03 C19.864,6.74 20.344,6.74 20.634,7.03 C22.004,8.41 22.764,10.23 22.764,12.16 C22.764,16.17 19.514,19.43 15.514,19.43 L9.444,19.41 L10.534,20.45 C10.834,20.74 10.844,21.21 10.554,21.51 C10.394,21.67 10.204,21.75 10.004,21.75 Z"/>
  <path fill="#292D32" d="M12.248,15.42 C11.838,15.42 11.498,15.08 11.498,14.67 L11.498,11.28 L11.309,11.49 C11.028,11.8 10.559,11.82 10.248,11.55 C9.939,11.28 9.919,10.8 10.188,10.49 L11.688,8.82 C11.899,8.59 12.229,8.51 12.518,8.62 C12.809,8.73 12.998,9.01 12.998,9.32 L12.998,14.67 C12.998,15.09 12.659,15.42 12.248,15.42 Z"/>
</svg>