<svg xmlns="http://www.w3.org/2000/svg" width="24" height="24" viewBox="0 0 24 24">
  <defs/>
  <path fill="#292D32" d="M18.969,22.75 L4.969,22.75 C1.219,22.75 1.219,20.67 1.219,19 L1.219,18 C1.219,17.04 2.009,16.25 2.969,16.25 L20.969,16.25 C21.929,16.25 22.719,17.04 22.719,18 L22.719,19 C22.719,20.67 22.719,22.75 18.969,22.75 Z M2.969,17.75 C2.829,17.75 2.719,17.86 2.719,18 L2.719,19 C2.719,20.64 2.719,21.25 4.969,21.25 L18.969,21.25 C21.219,21.25 21.219,20.64 21.219,19 L21.219,18 C21.219,17.86 21.109,17.75 20.969,17.75 L2.969,17.75 Z"/>
  <path fill="#292D32" d="M20.723,17.75 L3.273,17.75 C2.863,17.75 2.523,17.41 2.523,17 L2.523,13 C2.523,8.9 5.433,5.3 9.433,4.45 C10.023,4.32 10.643,4.25 11.273,4.25 L12.723,4.25 C13.363,4.25 13.983,4.32 14.573,4.45 C18.573,5.31 21.473,8.91 21.473,13 L21.473,17 C21.473,17.41 21.143,17.75 20.723,17.75 Z M4.023,16.25 L19.973,16.25 L19.973,13 C19.973,9.61 17.573,6.63 14.253,5.91 C13.763,5.8 13.253,5.75 12.723,5.75 L11.273,5.75 C10.753,5.75 10.243,5.8 9.753,5.91 C6.433,6.62 4.023,9.6 4.023,13 L4.023,16.25 Z"/>
  <path fill="#292D32" d="M9.59,5.93 C9.26,5.93 8.96,5.71 8.87,5.38 C8.79,5.09 8.75,4.8 8.75,4.5 C8.75,2.71 10.21,1.25 12,1.25 C13.79,1.25 15.25,2.71 15.25,4.5 C15.25,4.8 15.21,5.09 15.13,5.38 C15.03,5.76 14.65,6 14.25,5.91 C13.76,5.8 13.25,5.75 12.72,5.75 L11.27,5.75 C10.75,5.75 10.24,5.8 9.75,5.91 C9.7,5.92 9.65,5.93 9.59,5.93 Z M11.27,4.25 L12.72,4.25 C13.06,4.25 13.41,4.27 13.74,4.31 C13.65,3.43 12.9,2.75 12,2.75 C11.1,2.75 10.36,3.43 10.26,4.31 C10.6,4.27 10.93,4.25 11.27,4.25 Z"/>
  <path fill="#292D32" d="M15,11.75 L9,11.75 C8.59,11.75 8.25,11.41 8.25,11 C8.25,10.59 8.59,10.25 9,10.25 L15,10.25 C15.41,10.25 15.75,10.59 15.75,11 C15.75,11.41 15.41,11.75 15,11.75 Z"/>
</svg>