<svg xmlns="http://www.w3.org/2000/svg" width="24" height="24" viewBox="0 0 24 24">
  <defs/>
  <path fill="#7332D6" d="M11.087,6.614 Q15.953,1.749 21.221,2.154 Q21.498,2.176 21.694,2.372 Q21.89,2.568 21.912,2.844 Q22.317,8.113 17.452,12.978 Q13.1,17.33 9.422,18.801 Q8.962,18.985 8.613,18.635 L7.552,17.574 L6.491,18.635 Q6.272,18.855 5.961,18.855 Q5.65,18.855 5.431,18.635 Q5.211,18.415 5.211,18.105 Q5.211,17.794 5.431,17.574 L6.491,16.514 L5.431,15.453 Q5.081,15.103 5.265,14.644 Q6.736,10.966 11.087,6.614 Z M11.441,13.685 L8.613,16.514 L9.316,17.217 Q12.53,15.778 16.391,11.918 Q20.451,7.858 20.442,3.624 Q16.208,3.615 12.148,7.675 L12.148,7.675 Q8.287,11.536 6.849,14.75 L7.552,15.453 L10.38,12.625 Q10.6,12.405 10.911,12.405 Q11.221,12.405 11.441,12.625 Q11.661,12.844 11.661,13.155 Q11.661,13.466 11.441,13.685 Z"/>
  <path fill="#7332D6" d="M14.978,9.088 C15.564,9.674 16.514,9.674 17.1,9.088 C17.686,8.502 17.686,7.553 17.1,6.967 C16.514,6.381 15.564,6.381 14.978,6.967 C14.393,7.553 14.393,8.502 14.978,9.088 Z"/>
  <path fill="#7332D6" d="M15.195,14.854 L15.392,17.011 Q15.588,19.176 13.807,20.423 L11.697,21.9 Q11.442,22.078 11.136,22.024 Q10.83,21.97 10.652,21.716 Q10.527,21.537 10.517,21.318 L10.341,17.253 Q10.327,16.942 10.537,16.713 Q10.747,16.484 11.057,16.471 Q11.368,16.457 11.597,16.667 Q11.826,16.877 11.839,17.187 L11.956,19.887 L12.947,19.194 Q14.016,18.446 13.898,17.147 L13.702,14.99 Q13.673,14.681 13.872,14.442 Q14.071,14.203 14.381,14.175 Q14.69,14.147 14.929,14.346 Q15.167,14.545 15.195,14.854 Z M9.077,10.366 L6.92,10.169 Q6.318,10.115 5.769,10.369 Q5.22,10.624 4.873,11.12 L4.18,12.111 L6.88,12.228 Q7.19,12.242 7.4,12.471 Q7.61,12.7 7.596,13.01 Q7.583,13.32 7.354,13.53 Q7.125,13.74 6.815,13.727 L2.749,13.55 Q2.53,13.54 2.351,13.415 Q2.097,13.237 2.043,12.931 Q1.989,12.625 2.167,12.371 L3.644,10.26 Q4.222,9.434 5.137,9.009 Q6.052,8.584 7.056,8.676 L9.213,8.872 Q9.522,8.9 9.721,9.138 Q9.92,9.377 9.892,9.687 Q9.864,9.996 9.625,10.195 Q9.387,10.394 9.077,10.366 Z"/>
</svg>