<svg xmlns="http://www.w3.org/2000/svg" width="24" height="24" viewBox="0 0 24 24">
  <defs/>
  <path fill="#292D32" d="M11.998,22.75 C6.798,22.75 2.578,18.52 2.578,13.33 C2.578,8.14 6.798,3.9 11.998,3.9 C13.068,3.9 14.108,4.05 15.108,4.36 C15.508,4.48 15.728,4.9 15.608,5.3 C15.488,5.7 15.068,5.92 14.668,5.8 C13.818,5.54 12.918,5.4 11.998,5.4 C7.628,5.4 4.078,8.95 4.078,13.32 C4.078,17.69 7.628,21.24 11.998,21.24 C16.368,21.24 19.918,17.69 19.918,13.32 C19.918,11.74 19.458,10.22 18.588,8.92 C18.358,8.58 18.448,8.11 18.798,7.88 C19.138,7.65 19.608,7.74 19.838,8.09 C20.878,9.64 21.428,11.45 21.428,13.33 C21.418,18.52 17.198,22.75 11.998,22.75 Z"/>
  <path fill="#292D32" d="M16.128,6.07 C15.918,6.07 15.709,5.98 15.559,5.81 L12.668,2.49 C12.399,2.18 12.428,1.7 12.739,1.43 C13.049,1.16 13.528,1.19 13.799,1.5 L16.689,4.82 C16.959,5.13 16.928,5.61 16.619,5.88 C16.488,6.01 16.308,6.07 16.128,6.07 Z"/>
  <path fill="#292D32" d="M12.76,8.53 C12.53,8.53 12.3,8.42 12.15,8.22 C11.91,7.89 11.98,7.42 12.31,7.17 L15.68,4.71 C16.01,4.46 16.48,4.54 16.73,4.87 C16.98,5.2 16.9,5.67 16.57,5.92 L13.2,8.39 C13.07,8.49 12.92,8.53 12.76,8.53 Z"/>
</svg>