<svg xmlns="http://www.w3.org/2000/svg" width="24" height="24" viewBox="0 0 24 24">
  <defs/>
  <path fill="#292D32" d="M11.998,22.75 C6.798,22.75 2.578,18.52 2.578,13.33 C2.578,11.46 3.128,9.65 4.168,8.09 C4.398,7.75 4.868,7.65 5.208,7.88 C5.548,8.11 5.648,8.58 5.418,8.92 C4.548,10.22 4.088,11.75 4.088,13.32 C4.088,17.69 7.638,21.24 12.008,21.24 C16.378,21.24 19.928,17.69 19.928,13.32 C19.928,8.95 16.368,5.4 11.998,5.4 C11.078,5.4 10.178,5.53 9.328,5.79 C8.928,5.91 8.508,5.69 8.388,5.29 C8.268,4.89 8.488,4.47 8.888,4.35 C9.888,4.05 10.928,3.89 11.998,3.89 C17.198,3.89 21.418,8.12 21.418,13.31 C21.418,18.5 17.198,22.75 11.998,22.75 Z"/>
  <path fill="#292D32" d="M7.87,6.07 C7.7,6.07 7.52,6.01 7.38,5.89 C7.06,5.61 7.03,5.14 7.3,4.83 L10.19,1.51 C10.46,1.2 10.94,1.16 11.25,1.44 C11.56,1.71 11.59,2.19 11.32,2.5 L8.43,5.81 C8.28,5.98 8.07,6.07 7.87,6.07 Z"/>
  <path fill="#292D32" d="M11.24,8.53 C11.09,8.53 10.93,8.48 10.8,8.39 L7.42,5.92 C7.09,5.68 7.02,5.21 7.26,4.88 C7.5,4.54 7.97,4.47 8.31,4.71 L11.68,7.17 C12.01,7.41 12.09,7.88 11.84,8.22 C11.7,8.43 11.47,8.53 11.24,8.53 Z"/>
</svg>