<svg xmlns="http://www.w3.org/2000/svg" width="24" height="24" viewBox="0 0 24 24">
  <defs/>
  <path fill="#292D32" d="M5.468,10.75 C4.758,10.75 4.038,10.49 3.488,9.96 C1.648,8.21 0.908,6.3 1.338,4.43 C1.848,2.23 3.778,1.25 5.468,1.25 C7.158,1.25 9.098,2.24 9.598,4.43 C10.028,6.3 9.278,8.21 7.448,9.96 C6.898,10.49 6.188,10.75 5.468,10.75 Z M2.798,4.77 C2.418,6.44 3.528,7.92 4.528,8.87 C5.058,9.38 5.888,9.37 6.418,8.87 C7.418,7.92 8.528,6.44 8.138,4.76 C7.798,3.28 6.488,2.75 5.478,2.75 C4.458,2.75 3.148,3.28 2.798,4.77 Z"/>
  <path fill="#292D32" d="M5.508,6.2 C4.958,6.2 4.508,5.75 4.508,5.2 C4.508,4.65 4.948,4.2 5.508,4.2 L5.518,4.2 C6.068,4.2 6.518,4.65 6.518,5.2 C6.518,5.75 6.068,6.2 5.508,6.2 Z"/>
  <path fill="#292D32" d="M18.491,22.75 C17.781,22.75 17.061,22.49 16.501,21.96 C14.651,20.21 13.901,18.3 14.341,16.42 C14.851,14.23 16.791,13.24 18.491,13.24 C20.191,13.24 22.131,14.23 22.641,16.42 C23.071,18.29 22.321,20.21 20.471,21.95 C19.921,22.49 19.211,22.75 18.491,22.75 Z M18.491,14.75 C17.471,14.75 16.151,15.28 15.801,16.77 C15.411,18.44 16.531,19.93 17.531,20.88 C18.061,21.39 18.901,21.39 19.441,20.88 C20.441,19.93 21.561,18.45 21.171,16.78 C20.841,15.28 19.521,14.75 18.491,14.75 Z"/>
  <path fill="#292D32" d="M18.531,18.2 C17.981,18.2 17.531,17.75 17.531,17.2 C17.531,16.65 17.971,16.2 18.531,16.2 L18.541,16.2 C19.091,16.2 19.541,16.65 19.541,17.2 C19.541,17.75 19.081,18.2 18.531,18.2 Z"/>
  <path fill="#292D32" d="M12.001,19.75 L9.321,19.75 C8.161,19.75 7.151,19.05 6.751,17.97 C6.341,16.89 6.641,15.7 7.511,14.93 L15.501,7.94 C15.981,7.52 15.991,6.95 15.851,6.56 C15.701,6.17 15.321,5.75 14.681,5.75 L12.001,5.75 C11.591,5.75 11.251,5.41 11.251,5 C11.251,4.59 11.591,4.25 12.001,4.25 L14.681,4.25 C15.841,4.25 16.851,4.95 17.251,6.03 C17.661,7.11 17.361,8.3 16.491,9.07 L8.501,16.06 C8.021,16.48 8.011,17.05 8.151,17.44 C8.301,17.83 8.681,18.25 9.321,18.25 L12.001,18.25 C12.411,18.25 12.751,18.59 12.751,19 C12.751,19.41 12.411,19.75 12.001,19.75 Z"/>
  <path fill="#292D32" d="M12.001,19.75 L9.321,19.75 C8.161,19.75 7.151,19.05 6.751,17.97 C6.341,16.89 6.641,15.7 7.511,14.93 L15.501,7.94 C15.981,7.52 15.991,6.95 15.851,6.56 C15.701,6.17 15.321,5.75 14.681,5.75 L12.001,5.75 C11.591,5.75 11.251,5.41 11.251,5 C11.251,4.59 11.591,4.25 12.001,4.25 L14.681,4.25 C15.841,4.25 16.851,4.95 17.251,6.03 C17.661,7.11 17.361,8.3 16.491,9.07 L8.501,16.06 C8.021,16.48 8.011,17.05 8.151,17.44 C8.301,17.83 8.681,18.25 9.321,18.25 L12.001,18.25 C12.411,18.25 12.751,18.59 12.751,19 C12.751,19.41 12.411,19.75 12.001,19.75 Z"/>
</svg>