<svg xmlns="http://www.w3.org/2000/svg" width="24" height="24" viewBox="0 0 24 24">
  <defs/>
  <path fill="#292D32" d="M5.508,6.5 C4.958,6.5 4.508,6.05 4.508,5.5 C4.508,4.95 4.948,4.5 5.508,4.5 L5.518,4.5 C6.068,4.5 6.518,4.95 6.518,5.5 C6.518,6.05 6.068,6.5 5.508,6.5 Z"/>
  <path fill="#292D32" d="M18.508,19.5 C17.958,19.5 17.508,19.05 17.508,18.5 C17.508,17.95 17.948,17.5 18.508,17.5 L18.518,17.5 C19.068,17.5 19.518,17.95 19.518,18.5 C19.518,19.05 19.068,19.5 18.508,19.5 Z"/>
  <path fill="#292D32" d="M5.469,9.75 C3.129,9.75 1.219,7.84 1.219,5.5 C1.219,3.16 3.129,1.25 5.469,1.25 C7.809,1.25 9.719,3.16 9.719,5.5 C9.719,7.84 7.819,9.75 5.469,9.75 Z M5.469,2.75 C3.949,2.75 2.719,3.98 2.719,5.5 C2.719,7.02 3.949,8.25 5.469,8.25 C6.989,8.25 8.219,7.02 8.219,5.5 C8.219,3.98 6.989,2.75 5.469,2.75 Z"/>
  <path fill="#292D32" d="M19.969,22.75 L16.969,22.75 C15.449,22.75 14.219,21.52 14.219,20 L14.219,17 C14.219,15.48 15.449,14.25 16.969,14.25 L19.969,14.25 C21.489,14.25 22.719,15.48 22.719,17 L22.719,20 C22.719,21.52 21.489,22.75 19.969,22.75 Z M16.969,15.75 C16.279,15.75 15.719,16.31 15.719,17 L15.719,20 C15.719,20.69 16.279,21.25 16.969,21.25 L19.969,21.25 C20.659,21.25 21.219,20.69 21.219,20 L21.219,17 C21.219,16.31 20.659,15.75 19.969,15.75 L16.969,15.75 Z"/>
  <path fill="#292D32" d="M12.001,19.75 L9.321,19.75 C8.161,19.75 7.151,19.05 6.751,17.97 C6.341,16.89 6.641,15.7 7.511,14.93 L15.501,7.94 C15.981,7.52 15.991,6.95 15.851,6.56 C15.701,6.17 15.321,5.75 14.681,5.75 L12.001,5.75 C11.591,5.75 11.251,5.41 11.251,5 C11.251,4.59 11.591,4.25 12.001,4.25 L14.681,4.25 C15.841,4.25 16.851,4.95 17.251,6.03 C17.661,7.11 17.361,8.3 16.491,9.07 L8.501,16.06 C8.021,16.48 8.011,17.05 8.151,17.44 C8.301,17.83 8.681,18.25 9.321,18.25 L12.001,18.25 C12.411,18.25 12.751,18.59 12.751,19 C12.751,19.41 12.411,19.75 12.001,19.75 Z"/>
</svg>