<svg xmlns="http://www.w3.org/2000/svg" width="24" height="24" viewBox="0 0 24 24">
  <defs/>
  <path fill="#4C4C4C" d="M1.339,4.431 Q2.074,1.255 5.474,1.255 Q8.876,1.255 9.601,4.433 Q10.26,7.276 7.448,9.962 Q5.478,11.836 3.487,9.967 Q0.683,7.264 1.339,4.431 Z M2.801,4.769 Q2.336,6.774 4.513,8.873 Q5.471,9.772 6.412,8.878 Q8.605,6.782 8.139,4.767 Q7.68,2.755 5.474,2.755 Q3.266,2.755 2.801,4.769 Z"/>
  <path fill="#4C4C4C" d="M14.339,16.431 Q15.074,13.255 18.49,13.255 Q21.906,13.255 22.641,16.431 Q23.302,19.288 20.476,21.964 Q18.503,23.841 16.507,21.967 Q13.678,19.288 14.339,16.431 Z M15.801,16.769 Q15.333,18.789 17.533,20.873 Q18.496,21.777 19.444,20.875 Q21.647,18.789 21.179,16.769 Q20.714,14.755 18.49,14.755 Q16.266,14.755 15.801,16.769 Z"/>
  <path fill="#4C4C4C" d="M12,4.25 L14.68,4.25 Q16.586,4.25 17.257,6.034 Q17.927,7.816 16.494,9.074 L8.504,16.064 Q7.852,16.631 8.156,17.441 Q8.459,18.25 9.32,18.25 L12,18.25 Q12.31,18.25 12.53,18.47 Q12.75,18.689 12.75,19 Q12.75,19.311 12.53,19.53 Q12.31,19.75 12,19.75 L9.32,19.75 Q7.419,19.75 6.751,17.967 Q6.083,16.183 7.516,14.936 L15.505,7.946 Q16.158,7.373 15.853,6.561 Q15.548,5.75 14.68,5.75 L12,5.75 Q11.689,5.75 11.469,5.53 Q11.25,5.311 11.25,5 Q11.25,4.689 11.469,4.47 Q11.689,4.25 12,4.25 Z"/>
  <path fill="#4C4C4C" d="M5.486,4.75 L5.497,4.75 Q5.808,4.75 6.028,4.97 Q6.247,5.189 6.247,5.5 Q6.247,5.811 6.028,6.03 Q5.808,6.25 5.497,6.25 L5.486,6.25 Q5.175,6.25 4.955,6.03 Q4.736,5.811 4.736,5.5 Q4.736,5.189 4.955,4.97 Q5.175,4.75 5.486,4.75 Z"/>
  <path fill="#4C4C4C" d="M18.486,16.75 L18.497,16.75 Q18.808,16.75 19.028,16.97 Q19.247,17.189 19.247,17.5 Q19.247,17.811 19.028,18.03 Q18.808,18.25 18.497,18.25 L18.486,18.25 Q18.175,18.25 17.955,18.03 Q17.736,17.811 17.736,17.5 Q17.736,17.189 17.955,16.97 Q18.175,16.75 18.486,16.75 Z"/>
</svg>