<svg xmlns="http://www.w3.org/2000/svg" width="24" height="24" viewBox="0 0 24 24">
  <defs/>
  <path fill="#292D32" d="M18.469,22.75 L14.469,22.75 C12.049,22.75 10.719,21.42 10.719,19 L10.719,5 C10.719,2.58 12.049,1.25 14.469,1.25 L18.469,1.25 C20.889,1.25 22.219,2.58 22.219,5 L22.219,19 C22.219,21.42 20.879,22.75 18.469,22.75 Z M14.469,2.75 C12.889,2.75 12.219,3.42 12.219,5 L12.219,19 C12.219,20.58 12.889,21.25 14.469,21.25 L18.469,21.25 C20.049,21.25 20.719,20.58 20.719,19 L20.719,5 C20.719,3.42 20.049,2.75 18.469,2.75 L14.469,2.75 Z"/>
  <path fill="#292D32" d="M16.469,6.75 L11.469,6.75 C11.059,6.75 10.719,6.41 10.719,6 C10.719,5.59 11.059,5.25 11.469,5.25 L16.469,5.25 C16.879,5.25 17.219,5.59 17.219,6 C17.219,6.41 16.879,6.75 16.469,6.75 Z"/>
  <path fill="#292D32" d="M15.469,18.75 L11.469,18.75 C11.059,18.75 10.719,18.41 10.719,18 C10.719,17.59 11.059,17.25 11.469,17.25 L15.469,17.25 C15.879,17.25 16.219,17.59 16.219,18 C16.219,18.41 15.879,18.75 15.469,18.75 Z"/>
  <path fill="#292D32" d="M16.469,14.75 C16.459,14.75 16.459,14.75 16.469,14.75 L11.459,14.7 C11.049,14.7 10.709,14.36 10.719,13.94 C10.719,13.53 11.059,13.2 11.469,13.2 C11.469,13.2 11.469,13.2 11.479,13.2 L16.479,13.25 C16.889,13.25 17.229,13.59 17.219,14.01 C17.209,14.42 16.879,14.75 16.469,14.75 Z"/>
  <path fill="#292D32" d="M14.469,10.75 L11.469,10.75 C11.059,10.75 10.719,10.41 10.719,10 C10.719,9.59 11.059,9.25 11.469,9.25 L14.469,9.25 C14.879,9.25 15.219,9.59 15.219,10 C15.219,10.41 14.879,10.75 14.469,10.75 Z"/>
  <path fill="#292D32" d="M5.491,22.72 C4.581,22.72 3.721,22.16 3.131,21.18 L2.311,19.82 C2.011,19.32 1.781,18.5 1.781,17.92 L1.781,4.95 C1.781,2.91 3.441,1.25 5.481,1.25 C7.521,1.25 9.181,2.91 9.181,4.95 L9.181,17.91 C9.181,18.49 8.951,19.31 8.651,19.81 L7.831,21.17 C7.261,22.16 6.401,22.72 5.491,22.72 Z M5.491,2.75 C4.281,2.75 3.291,3.74 3.291,4.95 L3.291,17.91 C3.291,18.22 3.441,18.77 3.601,19.04 L4.421,20.4 C4.731,20.92 5.121,21.21 5.491,21.21 C5.861,21.21 6.251,20.91 6.561,20.4 L7.381,19.04 C7.541,18.77 7.691,18.22 7.691,17.91 L7.691,4.95 C7.691,3.74 6.701,2.75 5.491,2.75 Z"/>
  <path fill="#292D32" d="M8.441,7.75 L2.531,7.75 C2.121,7.75 1.781,7.41 1.781,7 C1.781,6.59 2.121,6.25 2.531,6.25 L8.441,6.25 C8.851,6.25 9.191,6.59 9.191,7 C9.191,7.41 8.851,7.75 8.441,7.75 Z"/>
</svg>