<svg xmlns="http://www.w3.org/2000/svg" width="24" height="24" viewBox="0 0 24 24">
  <defs/>
  <path fill="#292D32" d="M3.302,22.75 C2.942,22.75 2.592,22.66 2.292,22.48 C1.622,22.09 1.242,21.31 1.242,20.34 L1.242,8.98 C1.242,6.85 2.972,5.12 5.102,5.12 L12.882,5.12 C15.012,5.12 16.742,6.85 16.742,8.98 L16.742,20.34 C16.742,21.31 16.362,22.08 15.692,22.48 C15.022,22.87 14.162,22.83 13.312,22.36 L9.382,20.17 C9.192,20.06 8.792,20.06 8.602,20.17 L4.672,22.36 C4.212,22.62 3.742,22.75 3.302,22.75 Z M5.112,6.63 C3.812,6.63 2.752,7.69 2.752,8.99 L2.752,20.35 C2.752,20.76 2.872,21.08 3.062,21.19 C3.252,21.3 3.592,21.25 3.952,21.05 L7.882,18.86 C8.522,18.51 9.482,18.51 10.122,18.86 L14.052,21.05 C14.412,21.25 14.742,21.3 14.942,21.19 C15.132,21.08 15.252,20.76 15.252,20.35 L15.252,8.99 C15.252,7.69 14.192,6.63 12.892,6.63 L5.112,6.63 Z"/>
  <path fill="#292D32" d="M14.69,22.75 C14.25,22.75 13.79,22.62 13.32,22.37 L9.39,20.18 C9.2,20.08 8.79,20.08 8.6,20.18 L4.68,22.37 C3.83,22.84 2.96,22.88 2.3,22.49 C1.63,22.1 1.25,21.32 1.25,20.36 L1.25,9 C1.25,6.87 2.98,5.14 5.11,5.14 L12.89,5.14 C15.02,5.14 16.75,6.87 16.75,9 L16.75,20.36 C16.75,21.32 16.37,22.1 15.7,22.49 C15.4,22.66 15.06,22.75 14.69,22.75 Z M9,18.6 C9.4,18.6 9.79,18.69 10.12,18.87 L14.05,21.06 C14.41,21.26 14.75,21.31 14.94,21.19 C15.13,21.08 15.25,20.76 15.25,20.35 L15.25,8.99 C15.25,7.69 14.19,6.63 12.89,6.63 L5.11,6.63 C3.81,6.63 2.75,7.69 2.75,8.99 L2.75,20.35 C2.75,20.76 2.87,21.08 3.06,21.19 C3.25,21.3 3.59,21.25 3.95,21.05 L7.88,18.86 C8.2,18.69 8.6,18.6 9,18.6 Z"/>
  <path fill="#292D32" d="M20.69,18.87 C20.25,18.87 19.79,18.74 19.32,18.49 L15.63,16.43 C15.39,16.3 15.25,16.05 15.25,15.78 L15.25,9 C15.25,7.7 14.19,6.64 12.89,6.64 L8,6.64 C7.59,6.64 7.25,6.3 7.25,5.89 L7.25,5.12 C7.25,2.99 8.98,1.26 11.11,1.26 L18.89,1.26 C21.02,1.26 22.75,2.99 22.75,5.12 L22.75,16.48 C22.75,17.44 22.37,18.22 21.7,18.61 C21.4,18.78 21.06,18.87 20.69,18.87 Z M16.75,15.33 L20.05,17.18 C20.41,17.38 20.74,17.43 20.94,17.31 C21.14,17.19 21.25,16.88 21.25,16.47 L21.25,5.11 C21.25,3.81 20.19,2.75 18.89,2.75 L11.11,2.75 C9.81,2.75 8.75,3.81 8.75,5.11 L8.75,5.13 L12.89,5.13 C15.02,5.13 16.75,6.86 16.75,8.99 L16.75,15.33 Z"/>
</svg>