<svg xmlns="http://www.w3.org/2000/svg" width="16" height="16" viewBox="0 0 16 16">
  <defs/>
  <path fill="#4C4C4C" d="M11.333,13.5 L12.667,13.5 Q13.5,13.5 13.5,12.667 L13.5,11.333 Q13.5,11.126 13.646,10.98 Q13.793,10.833 14,10.833 Q14.207,10.833 14.354,10.98 Q14.5,11.126 14.5,11.333 L14.5,12.667 Q14.5,14.5 12.667,14.5 L11.333,14.5 Q11.126,14.5 10.98,14.354 Q10.833,14.207 10.833,14 Q10.833,13.793 10.98,13.646 Q11.126,13.5 11.333,13.5 Z M13.5,4.667 L13.5,3.333 Q13.5,2.5 12.667,2.5 L11.333,2.5 Q11.126,2.5 10.98,2.354 Q10.833,2.207 10.833,2 Q10.833,1.793 10.98,1.646 Q11.126,1.5 11.333,1.5 L12.667,1.5 Q14.5,1.5 14.5,3.333 L14.5,4.667 Q14.5,4.874 14.354,5.02 Q14.207,5.167 14,5.167 Q13.793,5.167 13.646,5.02 Q13.5,4.874 13.5,4.667 Z M2.5,11.333 L2.5,12.667 Q2.5,13.5 3.333,13.5 L4.667,13.5 Q4.874,13.5 5.02,13.646 Q5.167,13.793 5.167,14 Q5.167,14.207 5.02,14.354 Q4.874,14.5 4.667,14.5 L3.333,14.5 Q1.5,14.5 1.5,12.667 L1.5,11.333 Q1.5,11.126 1.646,10.98 Q1.793,10.833 2,10.833 Q2.207,10.833 2.354,10.98 Q2.5,11.126 2.5,11.333 Z M4.667,2.5 L3.333,2.5 Q2.5,2.5 2.5,3.333 L2.5,4.667 Q2.5,4.874 2.354,5.02 Q2.207,5.167 2,5.167 Q1.793,5.167 1.646,5.02 Q1.5,4.874 1.5,4.667 L1.5,3.333 Q1.5,1.5 3.333,1.5 L4.667,1.5 Q4.874,1.5 5.02,1.646 Q5.167,1.793 5.167,2 Q5.167,2.207 5.02,2.354 Q4.874,2.5 4.667,2.5 Z"/>
  <path fill="#4C4C4C" d="M8,8.5 Q6.75,8.5 6.125,7.875 Q5.5,7.25 5.5,6 Q5.5,4.964 6.232,4.232 Q6.964,3.5 8,3.5 Q10.5,3.5 10.5,6 Q10.5,8.5 8,8.5 Z M8,7.5 Q9.5,7.5 9.5,6 Q9.5,4.5 8,4.5 Q7.379,4.5 6.939,4.939 Q6.5,5.379 6.5,6 Q6.5,6.75 6.875,7.125 Q7.25,7.5 8,7.5 Z"/>
  <path fill="#4C4C4C" d="M10.831,10.667 Q10.831,8.5 7.997,8.5 Q6.792,8.5 5.953,9.171 Q5.164,9.802 5.164,10.667 Q5.164,10.874 5.018,11.02 Q4.871,11.167 4.664,11.167 Q4.457,11.167 4.311,11.02 Q4.164,10.874 4.164,10.667 Q4.164,9.322 5.328,8.391 Q6.441,7.5 7.997,7.5 Q11.831,7.5 11.831,10.667 Q11.831,10.874 11.684,11.02 Q11.538,11.167 11.331,11.167 Q11.124,11.167 10.977,11.02 Q10.831,10.874 10.831,10.667 Z"/>
</svg>