<svg xmlns="http://www.w3.org/2000/svg" width="24" height="24" viewBox="0 0 24 24">
  <defs/>
  <path fill="#292D32" d="M15,22.75 L9,22.75 C3.57,22.75 1.25,20.43 1.25,15 L1.25,9 C1.25,3.57 3.57,1.25 9,1.25 L15,1.25 C20.43,1.25 22.75,3.57 22.75,9 L22.75,15 C22.75,20.43 20.43,22.75 15,22.75 Z M9,2.75 C4.39,2.75 2.75,4.39 2.75,9 L2.75,15 C2.75,19.61 4.39,21.25 9,21.25 L15,21.25 C19.61,21.25 21.25,19.61 21.25,15 L21.25,9 C21.25,4.39 19.61,2.75 15,2.75 L9,2.75 Z"/>
  <path fill="#292D32" d="M8.42,11.65 C6.95,11.65 5.75,10.45 5.75,8.98 C5.75,7.51 6.95,6.3 8.42,6.3 C9.89,6.3 11.09,7.5 11.09,8.98 C11.09,10.46 9.9,11.65 8.42,11.65 Z M8.42,7.8 C7.77,7.8 7.25,8.33 7.25,8.98 C7.25,9.63 7.78,10.15 8.42,10.15 C9.06,10.15 9.59,9.62 9.59,8.98 C9.59,8.34 9.07,7.8 8.42,7.8 Z"/>
  <path fill="#292D32" d="M8.42,17.7 C6.95,17.7 5.75,16.5 5.75,15.02 C5.75,13.54 6.95,12.35 8.42,12.35 C9.89,12.35 11.09,13.55 11.09,15.02 C11.09,16.49 9.9,17.7 8.42,17.7 Z M8.42,13.85 C7.77,13.85 7.25,14.38 7.25,15.02 C7.25,15.66 7.78,16.2 8.42,16.2 C9.06,16.2 9.59,15.67 9.59,15.02 C9.59,14.37 9.07,13.85 8.42,13.85 Z"/>
  <path fill="#292D32" d="M10.156,14.94 C9.926,14.94 9.707,14.84 9.557,14.64 C9.307,14.31 9.377,13.84 9.707,13.59 L17.047,8.1 C17.377,7.85 17.846,7.92 18.096,8.25 C18.346,8.58 18.276,9.05 17.947,9.3 L10.607,14.79 C10.466,14.89 10.316,14.94 10.156,14.94 Z"/>
  <path fill="#292D32" d="M17.497,16.03 C17.337,16.03 17.186,15.98 17.047,15.88 L9.707,10.39 C9.377,10.14 9.307,9.67 9.557,9.34 C9.807,9.01 10.277,8.94 10.607,9.19 L17.947,14.68 C18.276,14.93 18.346,15.4 18.096,15.73 C17.947,15.93 17.727,16.03 17.497,16.03 Z"/>
</svg>