<svg xmlns="http://www.w3.org/2000/svg" width="24" height="24" viewBox="0 0 24 24">
  <defs/>
  <path fill="#4C4C4C" d="M12.532,19.033 C8.727,19.033 5.615,15.922 5.615,12.116 C5.615,8.311 8.735,5.199 12.532,5.199 C16.338,5.199 19.449,8.311 19.449,12.116 C19.449,13.593 18.983,14.955 18.192,16.08 L22.016,19.921 C22.262,20.167 22.376,20.492 22.376,20.826 C22.376,21.547 21.84,22.118 21.11,22.118 C20.759,22.118 20.434,21.995 20.179,21.749 L16.329,17.891 C15.239,18.611 13.93,19.033 12.532,19.033 Z M12.532,17.188 C15.318,17.188 17.604,14.902 17.604,12.116 C17.604,9.33 15.318,7.045 12.532,7.045 C9.746,7.045 7.461,9.33 7.461,12.116 C7.461,14.902 9.746,17.188 12.532,17.188 Z"/>
</svg>