<svg xmlns="http://www.w3.org/2000/svg" width="17" height="17" viewBox="0 0 17 17">
  <defs/>
  <path fill="#4C4C4C" d="M6.917,13.834 C8.314,13.834 9.624,13.412 10.714,12.691 L14.563,16.55 C14.818,16.796 15.144,16.919 15.495,16.919 C16.225,16.919 16.761,16.348 16.761,15.627 C16.761,15.293 16.646,14.968 16.4,14.722 L12.577,10.881 C13.368,9.756 13.834,8.394 13.834,6.917 C13.834,3.111 10.723,0 6.917,0 C3.12,0 0,3.111 0,6.917 C0,10.723 3.111,13.834 6.917,13.834 Z M6.917,11.988 C4.131,11.988 1.846,9.703 1.846,6.917 C1.846,4.131 4.131,1.846 6.917,1.846 C9.703,1.846 11.988,4.131 11.988,6.917 C11.988,9.703 9.703,11.988 6.917,11.988 Z"/>
</svg>