<svg xmlns="http://www.w3.org/2000/svg" width="24" height="24" viewBox="0 0 24 24">
  <defs/>
  <path fill="#292D32" d="M12.004,22.75 C11.764,22.75 11.524,22.72 11.294,22.65 C6.104,21.22 2.344,16.37 2.344,11.11 L2.344,6.72 C2.344,5.6 3.154,4.39 4.194,3.96 L9.764,1.68 C11.214,1.09 12.804,1.09 14.244,1.68 L19.814,3.96 C20.854,4.39 21.664,5.6 21.664,6.72 L21.664,11.11 C21.664,16.36 17.894,21.21 12.714,22.65 C12.484,22.72 12.244,22.75 12.004,22.75 Z M12.004,2.75 C11.434,2.75 10.874,2.86 10.334,3.08 L4.764,5.36 C4.284,5.56 3.844,6.21 3.844,6.73 L3.844,11.12 C3.844,15.71 7.144,19.95 11.694,21.21 C11.894,21.27 12.114,21.27 12.314,21.21 C16.864,19.95 20.164,15.71 20.164,11.12 L20.164,6.73 C20.164,6.21 19.724,5.56 19.244,5.36 L13.674,3.08 C13.134,2.86 12.574,2.75 12.004,2.75 Z"/>
  <path fill="#292D32" d="M12,13.25 C10.48,13.25 9.25,12.02 9.25,10.5 C9.25,8.98 10.48,7.75 12,7.75 C13.52,7.75 14.75,8.98 14.75,10.5 C14.75,12.02 13.52,13.25 12,13.25 Z M12,9.25 C11.31,9.25 10.75,9.81 10.75,10.5 C10.75,11.19 11.31,11.75 12,11.75 C12.69,11.75 13.25,11.19 13.25,10.5 C13.25,9.81 12.69,9.25 12,9.25 Z"/>
  <path fill="#292D32" d="M12,16.25 C11.59,16.25 11.25,15.91 11.25,15.5 L11.25,12.5 C11.25,12.09 11.59,11.75 12,11.75 C12.41,11.75 12.75,12.09 12.75,12.5 L12.75,15.5 C12.75,15.91 12.41,16.25 12,16.25 Z"/>
</svg>