<svg xmlns="http://www.w3.org/2000/svg" width="24" height="24" viewBox="0 0 24 24">
  <defs/>
  <path fill="#292D32" d="M11.998,22.76 C10.908,22.76 9.828,22.44 8.978,21.81 L4.678,18.6 C3.538,17.75 2.648,15.98 2.648,14.56 L2.648,7.13 C2.648,5.59 3.778,3.95 5.228,3.41 L10.218,1.54 C11.208,1.17 12.768,1.17 13.758,1.54 L18.759,3.41 C20.209,3.95 21.338,5.59 21.338,7.13 L21.338,14.56 C21.338,15.98 20.448,17.75 19.308,18.6 L15.008,21.81 C14.168,22.44 13.088,22.76 11.998,22.76 Z M10.748,2.94 L5.758,4.81 C4.898,5.13 4.148,6.21 4.148,7.13 L4.148,14.56 C4.148,15.51 4.818,16.84 5.568,17.4 L9.868,20.61 C11.018,21.47 12.968,21.47 14.118,20.61 L18.419,17.4 C19.178,16.83 19.838,15.5 19.838,14.56 L19.838,7.13 C19.838,6.22 19.088,5.14 18.229,4.81 L13.238,2.94 C12.578,2.69 11.418,2.69 10.748,2.94 Z"/>
  <path fill="#292D32" d="M12.002,11.67 C11.982,11.67 11.962,11.67 11.932,11.67 C10.482,11.63 9.422,10.52 9.422,9.17 C9.422,7.79 10.552,6.66 11.932,6.66 C13.312,6.66 14.442,7.79 14.442,9.17 C14.432,10.53 13.372,11.63 12.022,11.68 C12.012,11.67 12.012,11.67 12.002,11.67 Z M11.932,8.16 C11.372,8.16 10.922,8.61 10.922,9.17 C10.922,9.72 11.352,10.16 11.892,10.18 C11.892,10.18 11.942,10.18 12.002,10.18 C12.532,10.15 12.942,9.71 12.942,9.17 C12.952,8.61 12.492,8.16 11.932,8.16 Z"/>
  <path fill="#292D32" d="M11.997,17.35 C11.137,17.35 10.267,17.12 9.597,16.67 C8.927,16.23 8.547,15.58 8.547,14.89 C8.547,14.2 8.927,13.55 9.597,13.1 C10.947,12.2 13.057,12.21 14.397,13.1 C15.067,13.54 15.447,14.19 15.447,14.88 C15.447,15.57 15.067,16.22 14.397,16.67 C13.727,17.12 12.857,17.35 11.997,17.35 Z M10.427,14.34 C10.177,14.5 10.037,14.7 10.047,14.88 C10.047,15.06 10.187,15.26 10.427,15.42 C11.267,15.98 12.727,15.98 13.567,15.42 C13.817,15.26 13.957,15.06 13.957,14.88 C13.957,14.7 13.817,14.5 13.577,14.34 C12.737,13.79 11.267,13.79 10.427,14.34 Z"/>
</svg>