<svg xmlns="http://www.w3.org/2000/svg" width="24" height="24" viewBox="0 0 24 24">
  <defs/>
  <path fill="#292D32" d="M14.223,21.63 C13.043,21.63 11.373,20.8 10.053,16.83 L9.333,14.67 L7.173,13.95 C3.213,12.63 2.383,10.96 2.383,9.78 C2.383,8.61 3.213,6.93 7.173,5.6 L15.663,2.77 C17.783,2.06 19.553,2.27 20.643,3.35 C21.733,4.43 21.943,6.21 21.233,8.33 L18.403,16.82 C17.073,20.8 15.403,21.63 14.223,21.63 Z M7.643,7.03 C4.863,7.96 3.873,9.06 3.873,9.78 C3.873,10.5 4.863,11.6 7.643,12.52 L10.163,13.36 C10.383,13.43 10.563,13.61 10.633,13.83 L11.473,16.35 C12.393,19.13 13.503,20.12 14.223,20.12 C14.943,20.12 16.043,19.13 16.973,16.35 L19.803,7.86 C20.313,6.32 20.223,5.06 19.573,4.41 C18.923,3.76 17.663,3.68 16.133,4.19 L7.643,7.03 Z"/>
  <path fill="#292D32" d="M10.107,14.4 C9.917,14.4 9.727,14.33 9.577,14.18 C9.287,13.89 9.287,13.41 9.577,13.12 L13.157,9.53 C13.447,9.24 13.927,9.24 14.217,9.53 C14.507,9.82 14.507,10.3 14.217,10.59 L10.637,14.18 C10.497,14.33 10.297,14.4 10.107,14.4 Z"/>
</svg>