<svg xmlns="http://www.w3.org/2000/svg" width="24" height="24" viewBox="0 0 24 24">
  <defs/>
  <path fill="#292D32" d="M15,22.75 L9,22.75 C3.57,22.75 1.25,20.43 1.25,15 L1.25,9 C1.25,3.57 3.57,1.25 9,1.25 L15,1.25 C20.43,1.25 22.75,3.57 22.75,9 L22.75,15 C22.75,20.43 20.43,22.75 15,22.75 Z M9,2.75 C4.39,2.75 2.75,4.39 2.75,9 L2.75,15 C2.75,19.61 4.39,21.25 9,21.25 L15,21.25 C19.61,21.25 21.25,19.61 21.25,15 L21.25,9 C21.25,4.39 19.61,2.75 15,2.75 L9,2.75 Z"/>
  <path fill="#292D32" d="M14.998,10.26 C14.807,10.26 14.617,10.19 14.467,10.04 L11.998,7.57 L9.527,10.04 C9.238,10.33 8.758,10.33 8.467,10.04 C8.178,9.75 8.178,9.27 8.467,8.98 L11.467,5.98 C11.758,5.69 12.238,5.69 12.527,5.98 L15.527,8.98 C15.818,9.27 15.818,9.75 15.527,10.04 C15.377,10.19 15.188,10.26 14.998,10.26 Z"/>
  <path fill="#292D32" d="M12,15.26 C11.59,15.26 11.25,14.92 11.25,14.51 L11.25,6.51 C11.25,6.1 11.59,5.76 12,5.76 C12.41,5.76 12.75,6.1 12.75,6.51 L12.75,14.51 C12.75,14.93 12.41,15.26 12,15.26 Z"/>
  <path fill="#292D32" d="M11.998,18.23 C9.888,18.23 7.768,17.89 5.758,17.22 C5.368,17.09 5.158,16.66 5.288,16.27 C5.418,15.88 5.848,15.66 6.238,15.8 C9.958,17.04 14.049,17.04 17.768,15.8 C18.159,15.67 18.588,15.88 18.718,16.27 C18.849,16.66 18.639,17.09 18.248,17.22 C16.229,17.9 14.108,18.23 11.998,18.23 Z"/>
</svg>