<svg xmlns="http://www.w3.org/2000/svg" width="24" height="24" viewBox="0 0 24 24">
  <defs/>
  <path fill="#292D32" d="M5.414,21.75 C4.294,21.75 3.584,21.37 3.134,20.92 C2.254,20.04 1.634,18.17 3.614,14.2 L4.484,12.47 C4.594,12.24 4.594,11.76 4.484,11.53 L3.614,9.8 C1.624,5.83 2.254,3.95 3.134,3.08 C4.004,2.2 5.884,1.57 9.844,3.56 L18.404,7.84 C20.534,8.9 21.704,10.38 21.704,12 C21.704,13.62 20.534,15.1 18.414,16.16 L9.854,20.44 C7.914,21.41 6.474,21.75 5.414,21.75 Z M5.414,3.75 C4.874,3.75 4.454,3.88 4.194,4.14 C3.464,4.86 3.754,6.73 4.954,9.12 L5.824,10.86 C6.144,11.51 6.144,12.49 5.824,13.14 L4.954,14.87 C3.754,17.27 3.464,19.13 4.194,19.85 C4.914,20.58 6.784,20.29 9.184,19.09 L17.744,14.81 C19.314,14.03 20.204,13 20.204,11.99 C20.204,10.98 19.304,9.95 17.734,9.17 L9.174,4.9 C7.654,4.14 6.344,3.75 5.414,3.75 Z"/>
  <path fill="#292D32" d="M10.838,12.75 L5.438,12.75 C5.027,12.75 4.688,12.41 4.688,12 C4.688,11.59 5.027,11.25 5.438,11.25 L10.838,11.25 C11.248,11.25 11.588,11.59 11.588,12 C11.588,12.41 11.248,12.75 10.838,12.75 Z"/>
</svg>