<svg xmlns="http://www.w3.org/2000/svg" width="24" height="24" viewBox="0 0 24 24">
  <defs/>
  <path fill="#292D32" d="M15,22.75 L9,22.75 C3.57,22.75 1.25,20.43 1.25,15 L1.25,9 C1.25,3.57 3.57,1.25 9,1.25 L15,1.25 C20.43,1.25 22.75,3.57 22.75,9 L22.75,15 C22.75,20.43 20.43,22.75 15,22.75 Z M9,2.75 C4.39,2.75 2.75,4.39 2.75,9 L2.75,15 C2.75,19.61 4.39,21.25 9,21.25 L15,21.25 C19.61,21.25 21.25,19.61 21.25,15 L21.25,9 C21.25,4.39 19.61,2.75 15,2.75 L9,2.75 Z"/>
  <path fill="#292D32" d="M14.826,12.68 C14.416,12.68 14.076,12.34 14.076,11.93 L14.076,8.44 L10.586,8.44 C10.176,8.44 9.836,8.1 9.836,7.69 C9.836,7.28 10.176,6.94 10.586,6.94 L14.826,6.94 C15.236,6.94 15.576,7.28 15.576,7.69 L15.576,11.93 C15.576,12.34 15.236,12.68 14.826,12.68 Z"/>
  <path fill="#292D32" d="M9.169,14.09 C8.979,14.09 8.789,14.02 8.639,13.87 C8.349,13.58 8.349,13.1 8.639,12.81 L14.299,7.15 C14.589,6.86 15.069,6.86 15.359,7.15 C15.649,7.44 15.649,7.92 15.359,8.21 L9.699,13.87 C9.559,14.02 9.359,14.09 9.169,14.09 Z"/>
  <path fill="#292D32" d="M11.998,18.23 C9.888,18.23 7.768,17.89 5.758,17.22 C5.368,17.09 5.158,16.66 5.288,16.27 C5.418,15.88 5.848,15.66 6.238,15.8 C9.958,17.04 14.049,17.04 17.768,15.8 C18.159,15.67 18.588,15.88 18.718,16.27 C18.849,16.66 18.639,17.09 18.248,17.22 C16.229,17.9 14.108,18.23 11.998,18.23 Z"/>
</svg>