<svg xmlns="http://www.w3.org/2000/svg" width="24" height="24" viewBox="0 0 24 24">
  <defs/>
  <path fill="#292D32" d="M15,22.75 L9,22.75 C3.57,22.75 1.25,20.43 1.25,15 L1.25,9 C1.25,3.57 3.57,1.25 9,1.25 L15,1.25 C20.43,1.25 22.75,3.57 22.75,9 L22.75,15 C22.75,20.43 20.43,22.75 15,22.75 Z M9,2.75 C4.39,2.75 2.75,4.39 2.75,9 L2.75,15 C2.75,19.61 4.39,21.25 9,21.25 L15,21.25 C19.61,21.25 21.25,19.61 21.25,15 L21.25,9 C21.25,4.39 19.61,2.75 15,2.75 L9,2.75 Z"/>
  <path fill="#292D32" d="M15.578,19.25 C15.168,19.25 14.828,18.91 14.828,18.5 L14.828,14.6 C14.828,14.19 15.168,13.85 15.578,13.85 C15.988,13.85 16.328,14.19 16.328,14.6 L16.328,18.5 C16.328,18.91 15.988,19.25 15.578,19.25 Z"/>
  <path fill="#292D32" d="M15.578,8.2 C15.168,8.2 14.828,7.86 14.828,7.45 L14.828,5.5 C14.828,5.09 15.168,4.75 15.578,4.75 C15.988,4.75 16.328,5.09 16.328,5.5 L16.328,7.45 C16.328,7.86 15.988,8.2 15.578,8.2 Z"/>
  <path fill="#292D32" d="M15.577,13.4 C13.727,13.4 12.227,11.9 12.227,10.05 C12.227,8.2 13.727,6.7 15.577,6.7 C17.427,6.7 18.927,8.2 18.927,10.05 C18.927,11.9 17.417,13.4 15.577,13.4 Z M15.577,8.2 C14.557,8.2 13.727,9.03 13.727,10.05 C13.727,11.07 14.557,11.9 15.577,11.9 C16.597,11.9 17.427,11.07 17.427,10.05 C17.427,9.03 16.587,8.2 15.577,8.2 Z"/>
  <path fill="#292D32" d="M8.422,19.25 C8.012,19.25 7.672,18.91 7.672,18.5 L7.672,16.55 C7.672,16.14 8.012,15.8 8.422,15.8 C8.832,15.8 9.172,16.14 9.172,16.55 L9.172,18.5 C9.172,18.91 8.842,19.25 8.422,19.25 Z"/>
  <path fill="#292D32" d="M8.422,10.15 C8.012,10.15 7.672,9.81 7.672,9.4 L7.672,5.5 C7.672,5.09 8.012,4.75 8.422,4.75 C8.832,4.75 9.172,5.09 9.172,5.5 L9.172,9.4 C9.172,9.81 8.842,10.15 8.422,10.15 Z"/>
  <path fill="#292D32" d="M8.42,17.3 C6.57,17.3 5.07,15.8 5.07,13.95 C5.07,12.1 6.57,10.6 8.42,10.6 C10.27,10.6 11.77,12.1 11.77,13.95 C11.77,15.8 10.27,17.3 8.42,17.3 Z M8.42,12.1 C7.4,12.1 6.57,12.93 6.57,13.95 C6.57,14.97 7.4,15.8 8.42,15.8 C9.44,15.8 10.27,14.97 10.27,13.95 C10.27,12.93 9.45,12.1 8.42,12.1 Z"/>
</svg>