<svg xmlns="http://www.w3.org/2000/svg" width="24" height="24" viewBox="0 0 24 24">
  <defs/>
  <path fill="#292D32" d="M11.719,22.75 L7.219,22.75 C3.069,22.75 1.219,20.9 1.219,16.75 L1.219,12.25 C1.219,8.1 3.069,6.25 7.219,6.25 L11.719,6.25 C15.869,6.25 17.719,8.1 17.719,12.25 L17.719,16.75 C17.719,20.9 15.869,22.75 11.719,22.75 Z M7.219,7.75 C3.899,7.75 2.719,8.93 2.719,12.25 L2.719,16.75 C2.719,20.07 3.899,21.25 7.219,21.25 L11.719,21.25 C15.039,21.25 16.219,20.07 16.219,16.75 L16.219,12.25 C16.219,8.93 15.039,7.75 11.719,7.75 L7.219,7.75 Z"/>
  <path fill="#292D32" d="M16.971,13.72 C16.781,13.72 16.601,13.65 16.461,13.52 C16.301,13.38 16.221,13.18 16.221,12.97 L16.221,12.25 C16.221,8.93 15.041,7.75 11.721,7.75 L11.001,7.75 C10.791,7.75 10.591,7.66 10.451,7.51 C10.311,7.35 10.241,7.15 10.261,6.94 C10.551,3.7 13.221,1.26 16.481,1.26 C19.601,1.26 22.261,3.59 22.661,6.68 C22.701,6.92 22.731,7.21 22.731,7.51 C22.731,10.77 20.291,13.44 17.051,13.73 C17.021,13.72 17.001,13.72 16.971,13.72 Z M11.891,6.25 C15.861,6.3 17.671,8.1 17.721,12.08 C19.761,11.54 21.221,9.69 21.221,7.5 C21.221,7.29 21.201,7.09 21.171,6.9 C20.861,4.52 18.841,2.75 16.471,2.75 C14.281,2.75 12.441,4.21 11.891,6.25 Z"/>
</svg>