<svg xmlns="http://www.w3.org/2000/svg" width="24" height="24" viewBox="0 0 24 24">
  <defs/>
  <path fill="#292D32" d="M20.622,13.07 C20.242,13.07 19.922,12.78 19.872,12.4 C19.632,10.14 18.412,8.09 16.532,6.79 C16.192,6.55 16.112,6.09 16.342,5.75 C16.582,5.41 17.052,5.33 17.382,5.56 C19.622,7.11 21.062,9.55 21.352,12.24 C21.392,12.65 21.102,13.02 20.682,13.07 C20.672,13.07 20.642,13.07 20.622,13.07 Z"/>
  <path fill="#292D32" d="M3.488,13.12 C3.458,13.12 3.438,13.12 3.408,13.12 C2.998,13.07 2.698,12.7 2.738,12.29 C3.008,9.6 4.438,7.17 6.648,5.6 C6.988,5.36 7.458,5.44 7.698,5.78 C7.938,6.12 7.858,6.59 7.518,6.83 C5.658,8.14 4.458,10.19 4.228,12.45 C4.198,12.83 3.868,13.12 3.488,13.12 Z"/>
  <path fill="#292D32" d="M12.06,22.61 C10.58,22.61 9.17,22.27 7.85,21.61 C7.48,21.42 7.33,20.97 7.52,20.6 C7.71,20.23 8.16,20.08 8.53,20.27 C10.69,21.36 13.29,21.38 15.47,20.33 C15.84,20.15 16.29,20.31 16.47,20.68 C16.65,21.05 16.49,21.5 16.12,21.68 C14.84,22.3 13.48,22.61 12.06,22.61 Z"/>
  <path fill="#292D32" d="M12.061,8.44 C10.111,8.44 8.531,6.86 8.531,4.91 C8.531,2.96 10.111,1.38 12.061,1.38 C14.011,1.38 15.591,2.96 15.591,4.91 C15.591,6.86 14.001,8.44 12.061,8.44 Z M12.061,2.89 C10.941,2.89 10.031,3.8 10.031,4.92 C10.031,6.04 10.941,6.95 12.061,6.95 C13.181,6.95 14.091,6.04 14.091,4.92 C14.091,3.8 13.171,2.89 12.061,2.89 Z"/>
  <path fill="#292D32" d="M4.827,20.67 C2.877,20.67 1.297,19.09 1.297,17.14 C1.297,15.2 2.877,13.61 4.827,13.61 C6.777,13.61 8.357,15.19 8.357,17.14 C8.357,19.08 6.777,20.67 4.827,20.67 Z M4.827,15.11 C3.707,15.11 2.797,16.02 2.797,17.14 C2.797,18.26 3.707,19.17 4.827,19.17 C5.947,19.17 6.857,18.26 6.857,17.14 C6.857,16.02 5.947,15.11 4.827,15.11 Z"/>
  <path fill="#292D32" d="M19.171,20.67 C17.221,20.67 15.641,19.09 15.641,17.14 C15.641,15.2 17.221,13.61 19.171,13.61 C21.121,13.61 22.701,15.19 22.701,17.14 C22.691,19.08 21.111,20.67 19.171,20.67 Z M19.171,15.11 C18.051,15.11 17.141,16.02 17.141,17.14 C17.141,18.26 18.051,19.17 19.171,19.17 C20.291,19.17 21.201,18.26 21.201,17.14 C21.191,16.02 20.291,15.11 19.171,15.11 Z"/>
</svg>