<svg xmlns="http://www.w3.org/2000/svg" width="24" height="24" viewBox="0 0 24 24">
  <defs/>
  <path fill="#292D32" d="M11.998,22.76 C10.908,22.76 9.828,22.44 8.978,21.81 L4.678,18.6 C3.538,17.75 2.648,15.97 2.648,14.56 L2.648,7.12 C2.648,5.58 3.778,3.94 5.228,3.4 L10.218,1.53 C11.208,1.16 12.768,1.16 13.758,1.53 L18.748,3.4 C20.198,3.94 21.328,5.58 21.328,7.12 L21.328,14.55 C21.328,15.97 20.438,17.74 19.298,18.59 L14.998,21.8 C14.168,22.44 13.088,22.76 11.998,22.76 Z M10.748,2.94 L5.758,4.81 C4.908,5.13 4.158,6.21 4.158,7.13 L4.158,14.56 C4.158,15.51 4.828,16.84 5.578,17.4 L9.878,20.61 C11.028,21.47 12.968,21.47 14.128,20.61 L18.428,17.4 C19.188,16.83 19.848,15.51 19.848,14.56 L19.848,7.12 C19.848,6.21 19.098,5.13 18.248,4.8 L13.258,2.93 C12.578,2.69 11.418,2.69 10.748,2.94 Z"/>
  <path fill="#292D32" d="M14.154,14.19 C13.964,14.19 13.774,14.12 13.624,13.97 L9.374,9.72 C9.084,9.43 9.084,8.95 9.374,8.66 C9.664,8.37 10.144,8.37 10.434,8.66 L14.684,12.91 C14.974,13.2 14.974,13.68 14.684,13.97 C14.534,14.11 14.344,14.19 14.154,14.19 Z"/>
  <path fill="#292D32" d="M9.849,14.23 C9.659,14.23 9.469,14.16 9.319,14.01 C9.029,13.72 9.029,13.24 9.319,12.95 L13.569,8.7 C13.859,8.41 14.339,8.41 14.629,8.7 C14.919,8.99 14.919,9.47 14.629,9.76 L10.379,14.01 C10.239,14.16 10.039,14.23 9.849,14.23 Z"/>
</svg>