<svg xmlns="http://www.w3.org/2000/svg" width="24" height="24" viewBox="0 0 24 24">
  <defs/>
  <path fill="#292D32" d="M11.998,22.75 C10.868,22.75 9.788,22.42 8.978,21.81 L4.678,18.6 C3.538,17.75 2.648,15.98 2.648,14.56 L2.648,7.12 C2.648,5.58 3.778,3.94 5.228,3.4 L10.218,1.53 C11.208,1.16 12.768,1.16 13.758,1.53 L18.758,3.4 C20.208,3.94 21.338,5.58 21.338,7.12 L21.338,10.55 C21.338,10.96 20.998,11.3 20.588,11.3 C20.178,11.3 19.838,10.96 19.838,10.55 L19.838,7.12 C19.838,6.21 19.088,5.13 18.228,4.8 L13.238,2.93 C12.578,2.68 11.408,2.68 10.748,2.93 L5.758,4.81 C4.898,5.13 4.148,6.21 4.148,7.13 L4.148,14.56 C4.148,15.51 4.818,16.84 5.568,17.4 L9.868,20.61 C10.418,21.02 11.188,21.25 11.988,21.25 C12.398,21.25 12.738,21.59 12.738,22 C12.738,22.41 12.408,22.75 11.998,22.75 Z"/>
  <path fill="#292D32" d="M16,20.75 C13.38,20.75 11.25,18.62 11.25,16 C11.25,13.38 13.38,11.25 16,11.25 C18.62,11.25 20.75,13.38 20.75,16 C20.75,18.62 18.62,20.75 16,20.75 Z M16,12.76 C14.21,12.76 12.75,14.22 12.75,16.01 C12.75,17.8 14.21,19.26 16,19.26 C17.79,19.26 19.25,17.8 19.25,16.01 C19.25,14.22 17.79,12.76 16,12.76 Z"/>
  <path fill="#292D32" d="M21,22 C20.93,22 20.87,21.99 20.8,21.98 C20.74,21.97 20.68,21.95 20.62,21.92 C20.56,21.9 20.5,21.87 20.44,21.83 C20.39,21.79 20.34,21.75 20.29,21.71 C20.11,21.52 20,21.26 20,21 C20,20.87 20.03,20.74 20.08,20.62 C20.13,20.5 20.2,20.39 20.29,20.29 C20.66,19.92 21.34,19.92 21.71,20.29 C21.8,20.39 21.87,20.5 21.92,20.62 C21.97,20.74 22,20.87 22,21 C22,21.26 21.89,21.52 21.71,21.71 C21.52,21.89 21.26,22 21,22 Z"/>
</svg>