<svg xmlns="http://www.w3.org/2000/svg" width="24" height="24" viewBox="0 0 24 24">
  <defs/>
  <path fill="#292D32" d="M11.996,22.76 C10.906,22.76 9.826,22.44 8.976,21.81 L7.386,20.62 C7.056,20.37 6.986,19.9 7.236,19.57 C7.486,19.24 7.956,19.17 8.286,19.42 L9.876,20.61 C11.026,21.47 12.976,21.47 14.126,20.61 L18.426,17.4 C19.186,16.83 19.846,15.5 19.846,14.56 L19.846,7.12 C19.846,6.71 20.186,6.37 20.596,6.37 C21.006,6.37 21.346,6.71 21.346,7.12 L21.346,14.55 C21.346,15.97 20.456,17.74 19.316,18.59 L15.016,21.8 C14.166,22.44 13.086,22.76 11.996,22.76 Z"/>
  <path fill="#292D32" d="M5.328,18.9 C5.168,18.9 5.018,18.85 4.878,18.75 L4.678,18.6 C3.538,17.75 2.648,15.97 2.648,14.56 L2.648,7.12 C2.648,5.58 3.778,3.94 5.228,3.4 L10.218,1.53 C11.208,1.16 12.768,1.16 13.758,1.53 L18.758,3.4 C18.968,3.48 19.168,3.58 19.368,3.7 C19.718,3.92 19.828,4.38 19.608,4.73 C19.388,5.08 18.928,5.19 18.578,4.97 C18.468,4.9 18.358,4.84 18.238,4.8 L13.238,2.93 C12.578,2.68 11.408,2.68 10.748,2.93 L5.758,4.81 C4.898,5.13 4.148,6.21 4.148,7.13 L4.148,14.56 C4.148,15.51 4.818,16.84 5.568,17.4 L5.768,17.55 C6.098,17.8 6.168,18.27 5.918,18.6 C5.788,18.79 5.558,18.9 5.328,18.9 Z"/>
  <path fill="#292D32" d="M1.998,22.75 C1.808,22.75 1.617,22.68 1.468,22.53 C1.177,22.24 1.177,21.76 1.468,21.47 L21.468,1.47 C21.758,1.18 22.238,1.18 22.527,1.47 C22.817,1.76 22.817,2.24 22.527,2.53 L2.527,22.53 C2.377,22.68 2.188,22.75 1.998,22.75 Z"/>
</svg>