<svg xmlns="http://www.w3.org/2000/svg" width="24" height="24" viewBox="0 0 24 24">
  <defs/>
  <path fill="#292D32" d="M5.562,18.74 C5.562,18.74 5.552,18.74 5.542,18.74 L2.992,18.73 C2.582,18.73 2.242,18.39 2.242,17.98 C2.242,17.57 2.582,17.23 2.992,17.23 L5.542,17.24 L5.552,17.24 C6.202,17.24 6.812,16.92 7.172,16.37 L13.562,6.79 C14.202,5.83 15.272,5.25 16.432,5.25 C16.432,5.25 16.442,5.25 16.452,5.25 L21.002,5.27 C21.412,5.27 21.752,5.61 21.752,6.02 C21.752,6.43 21.412,6.77 21.002,6.77 L16.452,6.75 L16.442,6.75 C15.792,6.75 15.182,7.07 14.822,7.62 L8.432,17.2 C7.792,18.17 6.722,18.74 5.562,18.74 Z"/>
  <path fill="#292D32" d="M18.997,20.73 C18.808,20.73 18.617,20.66 18.468,20.51 C18.177,20.22 18.177,19.74 18.468,19.45 L20.468,17.45 C20.758,17.16 21.238,17.16 21.527,17.45 C21.817,17.74 21.817,18.22 21.527,18.51 L19.527,20.51 C19.378,20.66 19.188,20.73 18.997,20.73 Z"/>
  <path fill="#292D32" d="M8.89,9.38 C8.66,9.38 8.43,9.27 8.28,9.07 L7.2,7.57 C6.83,7.06 6.22,6.76 5.61,6.76 L3,6.77 C2.54,6.76 2.25,6.44 2.25,6.02 C2.25,5.61 2.58,5.27 3,5.27 L5.61,5.26 C5.62,5.26 5.62,5.26 5.63,5.26 C6.74,5.26 7.78,5.8 8.43,6.69 L9.51,8.19 C9.75,8.53 9.68,8.99 9.34,9.24 C9.2,9.33 9.05,9.38 8.89,9.38 Z"/>
  <path fill="#292D32" d="M16.323,18.75 C15.263,18.75 14.243,18.25 13.593,17.41 L12.373,15.84 C12.123,15.51 12.183,15.04 12.503,14.79 C12.833,14.54 13.303,14.6 13.553,14.92 L14.773,16.49 C15.143,16.97 15.733,17.21 16.323,17.25 L20.993,17.23 C21.403,17.23 21.743,17.56 21.743,17.98 C21.743,18.39 21.413,18.73 20.993,18.73 L16.323,18.75 C16.333,18.75 16.323,18.75 16.323,18.75 Z"/>
  <path fill="#292D32" d="M20.997,6.77 C20.808,6.77 20.617,6.7 20.468,6.55 L18.468,4.55 C18.177,4.26 18.177,3.78 18.468,3.49 C18.758,3.2 19.238,3.2 19.527,3.49 L21.527,5.49 C21.817,5.78 21.817,6.26 21.527,6.55 C21.378,6.7 21.188,6.77 20.997,6.77 Z"/>
</svg>