<svg xmlns="http://www.w3.org/2000/svg" width="24" height="24" viewBox="0 0 24 24">
  <defs/>
  <path fill="#292D32" d="M17.223,9.75 L8.963,9.75 C8.403,9.75 7.843,9.56 7.403,9.2 L5.213,7.45 C4.613,6.97 4.273,6.26 4.273,5.5 C4.273,4.74 4.613,4.02 5.213,3.55 L7.403,1.8 C7.843,1.45 8.403,1.25 8.963,1.25 L17.223,1.25 C18.603,1.25 19.723,2.37 19.723,3.75 L19.723,7.25 C19.723,8.63 18.603,9.75 17.223,9.75 Z M8.963,2.75 C8.733,2.75 8.513,2.83 8.343,2.97 L6.153,4.72 C5.913,4.91 5.773,5.2 5.773,5.5 C5.773,5.8 5.913,6.09 6.153,6.28 L8.343,8.03 C8.523,8.17 8.743,8.25 8.963,8.25 L17.223,8.25 C17.773,8.25 18.223,7.8 18.223,7.25 L18.223,3.75 C18.223,3.2 17.773,2.75 17.223,2.75 L8.963,2.75 Z"/>
  <path fill="#292D32" d="M15.057,19.75 L6.797,19.75 C5.417,19.75 4.297,18.63 4.297,17.25 L4.297,13.75 C4.297,12.37 5.417,11.25 6.797,11.25 L15.057,11.25 C15.627,11.25 16.177,11.44 16.617,11.8 L18.807,13.55 C19.407,14.03 19.747,14.74 19.747,15.5 C19.747,16.26 19.407,16.98 18.807,17.45 L16.617,19.2 C16.177,19.56 15.627,19.75 15.057,19.75 Z M6.797,12.75 C6.247,12.75 5.797,13.2 5.797,13.75 L5.797,17.25 C5.797,17.8 6.247,18.25 6.797,18.25 L15.057,18.25 C15.287,18.25 15.507,18.17 15.677,18.03 L17.867,16.28 C18.107,16.09 18.247,15.8 18.247,15.5 C18.247,15.2 18.107,14.91 17.867,14.72 L15.677,12.97 C15.497,12.83 15.277,12.75 15.057,12.75 L6.797,12.75 Z"/>
  <path fill="#292D32" d="M12,12.75 C11.59,12.75 11.25,12.41 11.25,12 L11.25,9 C11.25,8.59 11.59,8.25 12,8.25 C12.41,8.25 12.75,8.59 12.75,9 L12.75,12 C12.75,12.41 12.41,12.75 12,12.75 Z"/>
  <path fill="#292D32" d="M12,22.75 C11.59,22.75 11.25,22.41 11.25,22 L11.25,19 C11.25,18.59 11.59,18.25 12,18.25 C12.41,18.25 12.75,18.59 12.75,19 L12.75,22 C12.75,22.41 12.41,22.75 12,22.75 Z"/>
  <path fill="#292D32" d="M15,22.75 L9,22.75 C8.59,22.75 8.25,22.41 8.25,22 C8.25,21.59 8.59,21.25 9,21.25 L15,21.25 C15.41,21.25 15.75,21.59 15.75,22 C15.75,22.41 15.41,22.75 15,22.75 Z"/>
</svg>