<svg xmlns="http://www.w3.org/2000/svg" width="24" height="24" viewBox="0 0 24 24">
  <defs/>
  <path fill="#292D32" d="M11.719,22.75 L7.219,22.75 C3.069,22.75 1.219,20.9 1.219,16.75 L1.219,12.25 C1.219,8.1 3.069,6.25 7.219,6.25 L11.719,6.25 C15.869,6.25 17.719,8.1 17.719,12.25 L17.719,16.75 C17.719,20.9 15.869,22.75 11.719,22.75 Z M7.219,7.75 C3.899,7.75 2.719,8.93 2.719,12.25 L2.719,16.75 C2.719,20.07 3.899,21.25 7.219,21.25 L11.719,21.25 C15.039,21.25 16.219,20.07 16.219,16.75 L16.219,12.25 C16.219,8.93 15.039,7.75 11.719,7.75 L7.219,7.75 Z"/>
  <path fill="#292D32" d="M18.119,13.75 L16.969,13.75 C16.559,13.75 16.219,13.41 16.219,13 L16.219,12.25 C16.219,8.93 15.039,7.75 11.719,7.75 L10.969,7.75 C10.559,7.75 10.219,7.41 10.219,7 L10.219,5.85 C10.219,2.67 11.639,1.25 14.819,1.25 L18.119,1.25 C21.299,1.25 22.719,2.67 22.719,5.85 L22.719,9.15 C22.719,12.33 21.299,13.75 18.119,13.75 Z M17.719,12.25 L18.119,12.25 C20.469,12.25 21.219,11.5 21.219,9.15 L21.219,5.85 C21.219,3.5 20.469,2.75 18.119,2.75 L14.819,2.75 C12.469,2.75 11.719,3.5 11.719,5.85 L11.719,6.25 C15.869,6.25 17.719,8.1 17.719,12.25 Z"/>
</svg>