<svg xmlns="http://www.w3.org/2000/svg" width="24" height="24" viewBox="0 0 24 24">
  <defs/>
  <path fill="#292D32" d="M12,22.75 C6.07,22.75 1.25,17.93 1.25,12 C1.25,6.07 6.07,1.25 12,1.25 C17.93,1.25 22.75,6.07 22.75,12 C22.75,17.93 17.93,22.75 12,22.75 Z M12,2.75 C6.9,2.75 2.75,6.9 2.75,12 C2.75,17.1 6.9,21.25 12,21.25 C17.1,21.25 21.25,17.1 21.25,12 C21.25,6.9 17.1,2.75 12,2.75 Z"/>
  <path fill="#292D32" d="M4.904,19.75 C4.714,19.75 4.524,19.68 4.374,19.53 C4.084,19.24 4.084,18.76 4.374,18.47 L18.374,4.47 C18.664,4.18 19.144,4.18 19.434,4.47 C19.724,4.76 19.724,5.24 19.434,5.53 L5.434,19.53 C5.284,19.68 5.094,19.75 4.904,19.75 Z"/>
</svg>