<svg xmlns="http://www.w3.org/2000/svg" width="24" height="24" viewBox="0 0 24 24">
  <defs/>
  <path fill="#292D32" d="M17,18.75 L7,18.75 C6.25,18.75 5.7,18.72 5.23,18.65 C1.91,18.29 1.25,16.3 1.25,13 L1.25,11 C1.25,7.7 1.91,5.71 5.26,5.34 C5.7,5.28 6.25,5.25 7,5.25 L17,5.25 C17.75,5.25 18.3,5.28 18.77,5.35 C22.1,5.72 22.75,7.7 22.75,11 L22.75,13 C22.75,16.3 22.09,18.29 18.74,18.66 C18.3,18.72 17.75,18.75 17,18.75 Z M7,6.75 C6.32,6.75 5.84,6.78 5.45,6.83 C3.42,7.06 2.75,7.69 2.75,11 L2.75,13 C2.75,16.31 3.42,16.94 5.42,17.17 C5.84,17.23 6.32,17.25 7,17.25 L17,17.25 C17.68,17.25 18.16,17.22 18.55,17.17 C20.58,16.95 21.25,16.31 21.25,13 L21.25,11 C21.25,7.69 20.58,7.06 18.58,6.83 C18.16,6.77 17.68,6.75 17,6.75 L7,6.75 Z"/>
  <path fill="#292D32" d="M15.328,22.75 L8.668,22.75 C5.568,22.75 4.578,21.76 4.578,18.67 L4.578,18.33 C4.578,18.16 4.578,18.01 4.588,17.86 C4.598,17.65 4.698,17.46 4.868,17.33 C5.028,17.2 5.238,17.14 5.448,17.17 C5.848,17.23 6.328,17.25 6.998,17.25 L16.998,17.25 C17.678,17.25 18.158,17.22 18.548,17.17 C18.758,17.14 18.968,17.2 19.128,17.33 C19.288,17.46 19.388,17.65 19.408,17.86 C19.418,18.02 19.418,18.16 19.418,18.33 L19.418,18.67 C19.418,21.76 18.428,22.75 15.328,22.75 Z M6.078,18.73 C6.088,20.92 6.438,21.25 8.668,21.25 L15.328,21.25 C17.558,21.25 17.908,20.92 17.918,18.73 C17.648,18.74 17.348,18.75 16.998,18.75 L6.998,18.75 C6.648,18.75 6.348,18.74 6.078,18.73 Z"/>
  <path fill="#292D32" d="M18.658,6.84 C18.618,6.84 18.588,6.84 18.548,6.83 C18.148,6.77 17.668,6.75 16.998,6.75 L6.998,6.75 C6.318,6.75 5.838,6.78 5.448,6.83 C5.238,6.86 5.028,6.8 4.868,6.67 C4.708,6.54 4.608,6.35 4.588,6.14 C4.578,5.98 4.578,5.84 4.578,5.67 L4.578,5.33 C4.578,2.24 5.568,1.25 8.668,1.25 L15.328,1.25 C18.428,1.25 19.418,2.24 19.418,5.33 L19.418,5.67 C19.418,5.84 19.418,5.99 19.408,6.14 C19.398,6.35 19.298,6.54 19.128,6.67 C18.998,6.78 18.828,6.84 18.658,6.84 Z M6.998,5.25 L16.998,5.25 C17.348,5.25 17.648,5.26 17.918,5.27 C17.908,3.08 17.558,2.75 15.328,2.75 L8.668,2.75 C6.438,2.75 6.088,3.08 6.078,5.27 C6.348,5.26 6.648,5.25 6.998,5.25 Z"/>
</svg>