<svg xmlns="http://www.w3.org/2000/svg" width="24" height="24" viewBox="0 0 24 24">
  <defs/>
  <path fill="#292D32" d="M18.612,6.68 C18.202,6.68 17.862,6.34 17.862,5.93 L17.862,4.42 C17.862,3.82 17.372,3.32 16.762,3.32 L3.832,3.32 C3.232,3.32 2.732,3.81 2.732,4.42 L2.732,5.93 C2.732,6.34 2.392,6.68 1.982,6.68 C1.572,6.68 1.242,6.34 1.242,5.93 L1.242,4.42 C1.242,2.99 2.412,1.82 3.842,1.82 L16.762,1.82 C18.192,1.82 19.362,2.98 19.362,4.42 L19.362,5.93 C19.362,6.34 19.022,6.68 18.612,6.68 Z"/>
  <path fill="#292D32" d="M10.297,18.85 C9.887,18.85 9.547,18.51 9.547,18.1 L9.547,3.32 C9.547,2.91 9.887,2.57 10.297,2.57 C10.707,2.57 11.047,2.91 11.047,3.32 L11.047,18.1 C11.047,18.52 10.707,18.85 10.297,18.85 Z"/>
  <path fill="#292D32" d="M12.478,18.85 L6.898,18.85 C6.488,18.85 6.148,18.51 6.148,18.1 C6.148,17.69 6.488,17.35 6.898,17.35 L12.478,17.35 C12.888,17.35 13.228,17.69 13.228,18.1 C13.228,18.51 12.888,18.85 12.478,18.85 Z"/>
  <path fill="#292D32" d="M22.01,13.2 C21.6,13.2 21.26,12.86 21.26,12.45 L21.26,11.65 C21.26,11.34 21,11.08 20.69,11.08 L13.68,11.08 C13.27,11.08 12.93,10.74 12.93,10.33 C12.93,9.92 13.27,9.58 13.68,9.58 L20.69,9.58 C21.83,9.58 22.76,10.51 22.76,11.65 L22.76,12.45 C22.76,12.87 22.43,13.2 22.01,13.2 Z"/>
  <path fill="#292D32" d="M16.078,22.18 C15.668,22.18 15.328,21.84 15.328,21.43 L15.328,10.87 C15.328,10.46 15.668,10.12 16.078,10.12 C16.488,10.12 16.828,10.46 16.828,10.87 L16.828,21.43 C16.828,21.84 16.488,22.18 16.078,22.18 Z"/>
  <path fill="#292D32" d="M18.218,22.18 L13.938,22.18 C13.527,22.18 13.188,21.84 13.188,21.43 C13.188,21.02 13.527,20.68 13.938,20.68 L18.218,20.68 C18.628,20.68 18.968,21.02 18.968,21.43 C18.968,21.84 18.628,22.18 18.218,22.18 Z"/>
</svg>