<svg xmlns="http://www.w3.org/2000/svg" width="24" height="24" viewBox="0 0 24 24">
  <defs/>
  <path fill="#292D32" d="M10,14.75 L6.2,14.75 C2.78,14.75 1.25,13.22 1.25,9.8 L1.25,6.2 C1.25,2.78 2.78,1.25 6.2,1.25 L9.8,1.25 C13.22,1.25 14.75,2.78 14.75,6.2 L14.75,10 C14.75,10.41 14.42,10.74 14.01,10.75 C11.61,10.79 10.79,11.62 10.75,14.01 C10.74,14.42 10.41,14.75 10,14.75 Z M6.2,2.75 C3.62,2.75 2.75,3.62 2.75,6.2 L2.75,9.8 C2.75,12.38 3.62,13.25 6.2,13.25 L9.29,13.25 C9.53,10.81 10.81,9.54 13.25,9.29 L13.25,6.2 C13.25,3.62 12.38,2.75 9.8,2.75 L6.2,2.75 Z"/>
  <path fill="#292D32" d="M5.201,6.63 C4.971,6.63 4.731,6.52 4.591,6.31 C4.351,5.97 4.431,5.5 4.771,5.26 C5.551,4.71 6.601,4.7 7.391,5.24 C7.731,5.47 7.821,5.94 7.591,6.28 C7.361,6.62 6.891,6.71 6.551,6.48 C6.281,6.3 5.921,6.3 5.651,6.49 C5.501,6.59 5.351,6.63 5.201,6.63 Z"/>
  <path fill="#292D32" d="M9.201,6.63 C8.971,6.63 8.731,6.52 8.591,6.31 C8.351,5.97 8.431,5.5 8.771,5.26 C9.551,4.71 10.601,4.7 11.392,5.24 C11.732,5.47 11.822,5.94 11.591,6.28 C11.361,6.62 10.892,6.71 10.552,6.48 C10.281,6.3 9.921,6.3 9.651,6.49 C9.501,6.59 9.351,6.63 9.201,6.63 Z"/>
  <path fill="#292D32" d="M8.157,12.17 L5.837,12.17 C5.127,12.17 4.547,11.59 4.547,10.88 C4.547,8.98 6.097,7.43 7.997,7.43 C8.777,7.43 9.547,7.7 10.157,8.19 C10.477,8.45 10.537,8.92 10.277,9.24 C10.017,9.56 9.547,9.61 9.227,9.36 C8.877,9.08 8.457,8.93 8.007,8.93 C7.007,8.93 6.177,9.69 6.067,10.67 L8.167,10.67 C8.577,10.67 8.917,11.01 8.917,11.42 C8.917,11.83 8.567,12.17 8.157,12.17 Z"/>
  <path fill="#292D32" d="M17.8,22.75 L14.2,22.75 C10.78,22.75 9.25,21.22 9.25,17.8 L9.25,14 C9.31,10.81 10.81,9.31 13.99,9.25 L17.8,9.25 C21.22,9.25 22.75,10.78 22.75,14.2 L22.75,17.8 C22.75,21.22 21.22,22.75 17.8,22.75 Z M14,10.75 C11.62,10.79 10.79,11.62 10.75,14.01 L10.75,17.8 C10.75,20.38 11.62,21.25 14.2,21.25 L17.8,21.25 C20.38,21.25 21.25,20.38 21.25,17.8 L21.25,14.2 C21.25,11.62 20.38,10.75 17.8,10.75 L14,10.75 Z"/>
  <path fill="#292D32" d="M14.091,14.63 C13.621,14.63 13.162,14.49 12.771,14.21 C12.431,13.97 12.351,13.5 12.591,13.16 C12.832,12.82 13.302,12.74 13.642,12.98 C13.912,13.17 14.271,13.17 14.541,12.99 C14.882,12.76 15.351,12.84 15.582,13.19 C15.812,13.53 15.732,14 15.382,14.23 C14.992,14.5 14.541,14.63 14.091,14.63 Z"/>
  <path fill="#292D32" d="M18.091,14.63 C17.622,14.63 17.162,14.49 16.771,14.21 C16.431,13.97 16.352,13.5 16.591,13.16 C16.831,12.82 17.302,12.74 17.642,12.98 C17.912,13.17 18.271,13.17 18.541,12.99 C18.881,12.76 19.352,12.84 19.581,13.19 C19.811,13.53 19.732,14 19.381,14.23 C18.991,14.5 18.541,14.63 18.091,14.63 Z"/>
  <path fill="#292D32" d="M15.997,20.17 C14.097,20.17 12.547,18.62 12.547,16.72 C12.547,16.01 13.127,15.43 13.837,15.43 L18.157,15.43 C18.867,15.43 19.447,16.01 19.447,16.72 C19.447,18.62 17.897,20.17 15.997,20.17 Z M14.057,16.93 C14.157,17.91 14.987,18.67 15.997,18.67 C17.007,18.67 17.827,17.91 17.937,16.93 L14.057,16.93 Z"/>
</svg>