<svg xmlns="http://www.w3.org/2000/svg" width="24" height="24" viewBox="0 0 24 24">
  <defs/>
  <path fill="#292D32" d="M17,21.25 L7,21.25 C3.35,21.25 1.25,19.15 1.25,15.5 L1.25,8.5 C1.25,4.85 3.35,2.75 7,2.75 L17,2.75 C20.65,2.75 22.75,4.85 22.75,8.5 L22.75,15.5 C22.75,19.15 20.65,21.25 17,21.25 Z M7,4.25 C4.14,4.25 2.75,5.64 2.75,8.5 L2.75,15.5 C2.75,18.36 4.14,19.75 7,19.75 L17,19.75 C19.86,19.75 21.25,18.36 21.25,15.5 L21.25,8.5 C21.25,5.64 19.86,4.25 17,4.25 L7,4.25 Z"/>
  <path fill="#292D32" d="M12.003,12.87 C11.163,12.87 10.313,12.61 9.663,12.08 L6.533,9.58 C6.213,9.32 6.153,8.85 6.413,8.53 C6.673,8.21 7.143,8.15 7.463,8.41 L10.593,10.91 C11.353,11.52 12.643,11.52 13.403,10.91 L16.533,8.41 C16.853,8.15 17.333,8.2 17.583,8.53 C17.843,8.85 17.793,9.33 17.463,9.58 L14.333,12.08 C13.693,12.61 12.843,12.87 12.003,12.87 Z"/>
</svg>