<svg xmlns="http://www.w3.org/2000/svg" width="24" height="24" viewBox="0 0 24 24">
  <defs/>
  <path fill="#292D32" d="M17,21.25 L7,21.25 C3.35,21.25 1.25,19.15 1.25,15.5 L1.25,8.5 C1.25,4.85 3.35,2.75 7,2.75 L14,2.75 C14.41,2.75 14.75,3.09 14.75,3.5 C14.75,3.91 14.41,4.25 14,4.25 L7,4.25 C4.14,4.25 2.75,5.64 2.75,8.5 L2.75,15.5 C2.75,18.36 4.14,19.75 7,19.75 L17,19.75 C19.86,19.75 21.25,18.36 21.25,15.5 L21.25,10.5 C21.25,10.09 21.59,9.75 22,9.75 C22.41,9.75 22.75,10.09 22.75,10.5 L22.75,15.5 C22.75,19.15 20.65,21.25 17,21.25 Z"/>
  <path fill="#292D32" d="M12.003,12.87 C11.163,12.87 10.313,12.61 9.663,12.08 L6.533,9.58 C6.213,9.32 6.153,8.85 6.413,8.53 C6.673,8.21 7.143,8.15 7.463,8.41 L10.593,10.91 C11.353,11.52 12.643,11.52 13.403,10.91 L14.583,9.97 C14.903,9.71 15.383,9.76 15.633,10.09 C15.893,10.41 15.843,10.89 15.513,11.14 L14.333,12.08 C13.693,12.61 12.843,12.87 12.003,12.87 Z"/>
  <path fill="#292D32" d="M19.5,8.75 C17.71,8.75 16.25,7.29 16.25,5.5 C16.25,3.71 17.71,2.25 19.5,2.25 C21.29,2.25 22.75,3.71 22.75,5.5 C22.75,7.29 21.29,8.75 19.5,8.75 Z M19.5,3.75 C18.54,3.75 17.75,4.54 17.75,5.5 C17.75,6.46 18.54,7.25 19.5,7.25 C20.46,7.25 21.25,6.46 21.25,5.5 C21.25,4.54 20.46,3.75 19.5,3.75 Z"/>
</svg>