<svg xmlns="http://www.w3.org/2000/svg" width="24" height="24" viewBox="0 0 24 24">
  <defs/>
  <path fill="#292D32" d="M12,21.25 L7,21.25 C3.35,21.25 1.25,19.15 1.25,15.5 L1.25,8.5 C1.25,4.85 3.35,2.75 7,2.75 L17,2.75 C20.65,2.75 22.75,4.85 22.75,8.5 L22.75,11.5 C22.75,11.91 22.41,12.25 22,12.25 C21.59,12.25 21.25,11.91 21.25,11.5 L21.25,8.5 C21.25,5.64 19.86,4.25 17,4.25 L7,4.25 C4.14,4.25 2.75,5.64 2.75,8.5 L2.75,15.5 C2.75,18.36 4.14,19.75 7,19.75 L12,19.75 C12.41,19.75 12.75,20.09 12.75,20.5 C12.75,20.91 12.41,21.25 12,21.25 Z"/>
  <path fill="#292D32" d="M12.003,12.87 C11.163,12.87 10.313,12.61 9.663,12.08 L6.533,9.58 C6.213,9.32 6.153,8.85 6.413,8.53 C6.673,8.21 7.143,8.16 7.463,8.41 L10.593,10.91 C11.353,11.52 12.643,11.52 13.403,10.91 L16.533,8.41 C16.853,8.15 17.323,8.2 17.583,8.53 C17.843,8.85 17.793,9.33 17.463,9.58 L14.333,12.08 C13.693,12.61 12.843,12.87 12.003,12.87 Z"/>
  <path fill="#292D32" d="M18.2,22.15 C16.02,22.15 14.25,20.38 14.25,18.2 C14.25,16.02 16.02,14.25 18.2,14.25 C20.38,14.25 22.15,16.02 22.15,18.2 C22.15,20.38 20.38,22.15 18.2,22.15 Z M18.2,15.75 C16.85,15.75 15.75,16.85 15.75,18.2 C15.75,19.55 16.85,20.65 18.2,20.65 C19.55,20.65 20.65,19.55 20.65,18.2 C20.65,16.85 19.55,15.75 18.2,15.75 Z"/>
  <path fill="#292D32" d="M21.997,22.75 C21.808,22.75 21.617,22.68 21.468,22.53 L20.468,21.53 C20.177,21.24 20.177,20.76 20.468,20.47 C20.758,20.18 21.238,20.18 21.527,20.47 L22.527,21.47 C22.817,21.76 22.817,22.24 22.527,22.53 C22.378,22.68 22.188,22.75 21.997,22.75 Z"/>
</svg>