<svg xmlns="http://www.w3.org/2000/svg" width="24" height="24" viewBox="0 0 24 24">
  <defs/>
  <path fill="#4C4C4C" d="M7,5 C7,4.448 6.552,4 6,4 C5.448,4 5,4.448 5,5 L5,17.086 L3.707,15.793 C3.317,15.402 2.683,15.402 2.293,15.793 C1.902,16.183 1.902,16.817 2.293,17.207 L4.586,19.5 C5.367,20.281 6.633,20.281 7.414,19.5 L9.707,17.207 C10.098,16.817 10.098,16.183 9.707,15.793 C9.317,15.402 8.683,15.402 8.293,15.793 L7,17.086 L7,5 Z"/>
  <path fill="#4C4C4C" d="M12,17 C12,16.448 12.448,16 13,16 L21,16 C21.552,16 22,16.448 22,17 C22,17.552 21.552,18 21,18 L13,18 C12.448,18 12,17.552 12,17 Z"/>
  <path fill="#4C4C4C" d="M12,12 C12,11.448 12.448,11 13,11 L18,11 C18.552,11 19,11.448 19,12 C19,12.552 18.552,13 18,13 L13,13 C12.448,13 12,12.552 12,12 Z"/>
  <path fill="#4C4C4C" d="M12,7 C12,6.448 12.448,6 13,6 L15,6 C15.552,6 16,6.448 16,7 C16,7.552 15.552,8 15,8 L13,8 C12.448,8 12,7.552 12,7 Z"/>
</svg>