<svg xmlns="http://www.w3.org/2000/svg" width="24" height="24" viewBox="0 0 24 24">
  <defs>
    <linearGradient id="paint0_linear_21443_89036" x1="2.11756" y1="0.291515" x2="28.6413" y2="11.4032" gradientUnits="userSpaceOnUse">
      <stop offset="0.0001" stop-color="#7332D6"/>
      <stop offset="0.50005" stop-color="#32155A"/>
      <stop offset="1" stop-color="#5D28AC"/>
    </linearGradient>
  </defs>
  <path clip-rule="evenodd" fill="url(#paint0_linear_21443_89036)" d="M15.025,0 L16.322,0 C16.619,0 16.861,0.242 16.861,0.539 L16.861,5.152 L18.451,6.742 C18.461,6.738 18.473,6.736 18.482,6.734 C21.758,5.959 21.254,3.633 20.805,1.559 L20.805,1.559 C20.744,1.283 20.685,1.012 20.627,0.699 C20.574,0.42 20.76,0.15 21.039,0.098 C21.318,0.045 21.588,0.23 21.641,0.51 C21.685,0.746 21.75,1.043 21.815,1.342 L21.815,1.343 C22.338,3.765 22.921,6.463 19.291,7.586 L20.805,9.1 C21.111,9.406 21.264,9.809 21.264,10.211 C21.264,10.613 21.111,11.018 20.805,11.322 L16.723,15.404 C16.688,15.439 16.646,15.469 16.604,15.49 C17.016,17.164 16.725,18.881 15.338,20.266 L15.166,20.438 C14.986,20.617 14.693,20.617 14.512,20.438 L12.408,18.336 C9.729,19.986 5.951,16.371 7.793,13.721 L5.285,11.211 C5.105,11.031 5.105,10.738 5.285,10.557 L5.457,10.385 C6.703,9.139 8.252,8.799 9.801,9.07 L9.809,9.055 C9.832,9.008 9.861,8.967 9.896,8.932 L14.156,4.672 C14.258,4.57 14.369,4.486 14.486,4.42 L14.486,0.539 C14.486,0.242 14.729,0 15.025,0 Z M6.271,10.889 L14.836,19.453 C16.195,17.951 16.06,15.982 15.133,14.231 C14.744,13.496 14.217,12.799 13.604,12.186 C12.988,11.572 12.287,11.047 11.547,10.654 C9.762,9.709 7.756,9.551 6.271,10.889 Z M16.861,6.463 L16.861,8.713 C16.861,9.01 16.619,9.252 16.322,9.252 L15.025,9.252 C14.729,9.252 14.486,9.01 14.486,8.713 L14.486,5.65 L10.998,9.137 C11.971,9.65 12.93,10.254 13.838,11.045 C14.805,11.887 15.709,12.938 16.502,14.316 L20.15,10.668 C20.275,10.543 20.338,10.377 20.338,10.211 C20.338,10.045 20.275,9.879 20.15,9.754 Z M5.826,18.869 C6.045,18.688 6.369,18.717 6.551,18.935 C6.732,19.154 6.703,19.479 6.484,19.66 L3.707,21.977 C3.488,22.158 3.164,22.129 2.982,21.91 C2.801,21.691 2.83,21.367 3.049,21.185 Z M11.318,20.873 C11.383,20.596 11.658,20.422 11.936,20.484 C12.213,20.549 12.387,20.824 12.324,21.102 L11.766,23.525 C11.701,23.803 11.426,23.977 11.148,23.914 C10.871,23.85 10.697,23.574 10.76,23.297 Z M8.027,21.041 C8.152,20.785 8.461,20.678 8.719,20.803 C8.977,20.928 9.082,21.236 8.957,21.494 L7.875,23.711 C7.791,23.882 7.625,23.987 7.448,24 L7.372,24 C7.308,23.995 7.245,23.979 7.184,23.949 C6.928,23.824 6.82,23.516 6.945,23.258 Z M4.449,15.928 C4.721,15.842 5.01,15.992 5.096,16.264 C5.182,16.535 5.031,16.824 4.76,16.91 L2.506,17.627 C2.234,17.713 1.945,17.562 1.859,17.291 C1.773,17.02 1.924,16.73 2.195,16.645 Z M3.93,13.357 C4.215,13.357 4.445,13.588 4.445,13.873 C4.445,14.158 4.215,14.389 3.93,14.389 L2.312,14.394 C2.027,14.393 1.797,14.162 1.797,13.879 C1.797,13.594 2.027,13.363 2.312,13.363 Z"/>
</svg>