<svg xmlns="http://www.w3.org/2000/svg" width="24" height="24" viewBox="0 0 24 24">
  <defs/>
  <path fill="#292D32" d="M9.986,22.55 C9.936,22.55 9.886,22.55 9.836,22.53 C6.006,21.75 2.896,18.93 1.736,15.19 C1.616,14.79 1.836,14.37 2.226,14.25 C2.626,14.13 3.046,14.35 3.166,14.74 C4.166,17.96 6.836,20.38 10.136,21.05 C10.546,21.13 10.806,21.53 10.716,21.94 C10.646,22.3 10.326,22.55 9.986,22.55 Z"/>
  <path fill="#292D32" d="M21.948,11.73 C21.568,11.73 21.238,11.44 21.198,11.06 C20.718,6.32 16.758,2.75 11.998,2.75 C7.228,2.75 3.278,6.32 2.798,11.05 C2.758,11.46 2.398,11.77 1.978,11.72 C1.568,11.68 1.268,11.31 1.308,10.9 C1.868,5.4 6.468,1.25 11.998,1.25 C17.538,1.25 22.138,5.4 22.688,10.9 C22.728,11.31 22.428,11.68 22.018,11.72 C21.998,11.73 21.968,11.73 21.948,11.73 Z"/>
  <path fill="#292D32" d="M14.01,22.55 C13.66,22.55 13.35,22.31 13.28,21.95 C13.2,21.54 13.46,21.15 13.86,21.07 C17.14,20.4 19.81,18 20.82,14.8 C20.94,14.4 21.37,14.18 21.76,14.31 C22.16,14.43 22.37,14.86 22.25,15.25 C21.07,18.97 17.97,21.76 14.16,22.54 C14.11,22.54 14.06,22.55 14.01,22.55 Z"/>
</svg>