<svg xmlns="http://www.w3.org/2000/svg" width="24" height="24" viewBox="0 0 24 24">
  <defs/>
  <path fill="#292D32" d="M11.971,22.75 C11.361,22.75 10.731,22.7 10.091,22.59 C5.691,21.84 2.101,18.24 1.371,13.82 C0.791,10.31 1.881,6.88 4.371,4.39 C6.861,1.9 10.291,0.82 13.791,1.39 C18.201,2.12 21.811,5.7 22.561,10.1 C22.721,11.07 22.761,12.02 22.681,12.92 L22.681,12.93 C22.661,13.16 22.621,13.38 22.561,13.6 C22.491,13.85 22.301,14.04 22.061,14.12 C21.821,14.2 21.551,14.14 21.351,13.98 C20.411,13.19 19.211,12.75 17.971,12.75 C15.071,12.75 12.721,15.11 12.721,18 C12.721,19.24 13.161,20.44 13.951,21.38 C14.121,21.58 14.171,21.84 14.091,22.09 C14.011,22.34 13.821,22.52 13.571,22.59 C13.351,22.65 13.131,22.69 12.901,22.71 C12.601,22.74 12.291,22.75 11.971,22.75 Z M11.971,2.75 C9.521,2.75 7.201,3.7 5.441,5.46 C3.301,7.6 2.361,10.56 2.861,13.58 C3.491,17.37 6.561,20.47 10.351,21.11 C10.951,21.21 11.521,21.27 12.071,21.25 C11.531,20.26 11.241,19.14 11.241,18 C11.241,14.28 14.271,11.25 17.991,11.25 C19.131,11.25 20.251,11.54 21.241,12.08 C21.251,11.53 21.201,10.96 21.101,10.36 C20.461,6.58 17.361,3.5 13.571,2.88 C13.021,2.79 12.491,2.75 11.971,2.75 Z"/>
  <path fill="#292D32" d="M13.379,22.61 C13.159,22.61 12.949,22.52 12.809,22.34 C11.789,21.13 11.219,19.59 11.219,18 C11.219,14.28 14.249,11.25 17.969,11.25 C19.559,11.25 21.099,11.81 22.309,12.84 C22.539,13.03 22.629,13.34 22.549,13.62 C22.369,14.24 22.049,14.78 21.589,15.24 L15.209,21.62 C14.749,22.08 14.199,22.4 13.589,22.58 C13.519,22.6 13.449,22.61 13.379,22.61 Z M17.969,12.75 C15.069,12.75 12.719,15.11 12.719,18 C12.719,19.06 13.039,20.09 13.629,20.95 C13.819,20.85 13.989,20.72 14.149,20.56 L20.529,14.18 C20.689,14.02 20.819,13.85 20.919,13.66 C20.059,13.07 19.029,12.75 17.969,12.75 Z"/>
</svg>