<svg xmlns="http://www.w3.org/2000/svg" width="24" height="24" viewBox="0 0 24 24">
  <defs/>
  <path fill="#292D32" d="M11.969,22.75 C6.049,22.75 1.219,17.93 1.219,12 C1.219,6.07 6.049,1.25 11.969,1.25 C17.889,1.25 22.719,6.07 22.719,12 C22.719,17.93 17.899,22.75 11.969,22.75 Z M11.969,2.75 C6.869,2.75 2.719,6.9 2.719,12 C2.719,17.1 6.869,21.25 11.969,21.25 C17.069,21.25 21.219,17.1 21.219,12 C21.219,6.9 17.069,2.75 11.969,2.75 Z"/>
  <path fill="#292D32" d="M13.273,16.98 L10.733,16.98 C8.203,16.98 7.023,15.8 7.023,13.27 L7.023,10.73 C7.023,8.2 8.203,7.02 10.733,7.02 L13.273,7.02 C15.803,7.02 16.983,8.2 16.983,10.73 L16.983,13.27 C16.983,15.8 15.803,16.98 13.273,16.98 Z M10.733,8.52 C9.043,8.52 8.523,9.04 8.523,10.73 L8.523,13.27 C8.523,14.96 9.043,15.48 10.733,15.48 L13.273,15.48 C14.963,15.48 15.483,14.96 15.483,13.27 L15.483,10.73 C15.483,9.04 14.963,8.52 13.273,8.52 L10.733,8.52 Z"/>
</svg>