<svg xmlns="http://www.w3.org/2000/svg" width="24" height="24" viewBox="0 0 24 24">
  <defs/>
  <path fill="#292D32" d="M11.998,19.37 C10.207,19.37 8.418,18.69 7.048,17.32 C4.317,14.59 4.317,10.15 7.048,7.42 C9.777,4.69 14.217,4.69 16.948,7.42 C19.677,10.15 19.677,14.59 16.948,17.32 C15.578,18.69 13.787,19.37 11.998,19.37 Z M11.998,6.87 C10.588,6.87 9.178,7.41 8.107,8.48 C5.968,10.63 5.968,14.11 8.107,16.26 C10.258,18.41 13.748,18.4 15.887,16.26 C18.027,14.11 18.027,10.63 15.887,8.48 C14.818,7.41 13.408,6.87 11.998,6.87 Z"/>
  <path fill="#292D32" d="M8.253,22.39 C8.163,22.39 8.063,22.37 7.973,22.34 C5.723,21.44 3.903,19.85 2.683,17.75 C1.503,15.7 1.033,13.38 1.343,11.02 C1.393,10.61 1.773,10.32 2.183,10.37 C2.593,10.42 2.883,10.8 2.833,11.21 C2.573,13.23 2.973,15.23 3.983,16.99 C5.023,18.79 6.593,20.16 8.523,20.93 C8.903,21.09 9.093,21.52 8.943,21.91 C8.833,22.21 8.543,22.39 8.253,22.39 Z"/>
  <path fill="#292D32" d="M5.854,5.23 C5.634,5.23 5.414,5.13 5.264,4.94 C5.004,4.61 5.064,4.14 5.394,3.89 C7.304,2.4 9.584,1.61 12.004,1.61 C14.364,1.61 16.613,2.37 18.503,3.81 C18.834,4.06 18.893,4.53 18.643,4.86 C18.393,5.19 17.924,5.25 17.593,5 C15.973,3.76 14.043,3.11 12.004,3.11 C9.924,3.11 7.954,3.79 6.314,5.07 C6.174,5.18 6.014,5.23 5.854,5.23 Z"/>
  <path fill="#292D32" d="M15.753,22.39 C15.453,22.39 15.173,22.21 15.053,21.92 C14.903,21.54 15.083,21.1 15.473,20.94 C17.403,20.16 18.973,18.8 20.013,17 C21.033,15.24 21.433,13.24 21.163,11.22 C21.113,10.81 21.403,10.43 21.813,10.38 C22.213,10.33 22.603,10.62 22.653,11.03 C22.953,13.38 22.493,15.71 21.313,17.76 C20.103,19.86 18.273,21.44 16.023,22.35 C15.943,22.37 15.853,22.39 15.753,22.39 Z"/>
</svg>