<svg xmlns="http://www.w3.org/2000/svg" width="24" height="24" viewBox="0 0 24 24">
  <defs/>
  <path fill="#292D32" d="M12,22.75 C11.3,22.75 10.59,22.48 10.06,21.95 L8.35,20.26 C7.92,19.84 7.36,19.61 6.76,19.61 L6,19.61 C3.93,19.61 2.25,17.94 2.25,15.89 L2.25,4.98 C2.25,2.93 3.93,1.26 6,1.26 L18,1.26 C20.07,1.26 21.75,2.93 21.75,4.98 L21.75,15.89 C21.75,17.94 20.07,19.61 18,19.61 L17.24,19.61 C16.64,19.61 16.07,19.84 15.65,20.26 L13.94,21.95 C13.41,22.48 12.7,22.75 12,22.75 Z M6,2.75 C4.76,2.75 3.75,3.75 3.75,4.97 L3.75,15.88 C3.75,17.11 4.76,18.1 6,18.1 L6.76,18.1 C7.76,18.1 8.7,18.49 9.41,19.19 L11.12,20.88 C11.61,21.36 12.4,21.36 12.89,20.88 L14.6,19.19 C15.31,18.49 16.25,18.1 17.25,18.1 L18,18.1 C19.24,18.1 20.25,17.1 20.25,15.88 L20.25,4.97 C20.25,3.74 19.24,2.75 18,2.75 L6,2.75 Z"/>
  <path fill="#292D32" d="M10.382,14.51 L7.702,14.51 C7.262,14.51 6.852,14.3 6.592,13.94 C6.342,13.6 6.282,13.18 6.402,12.78 C6.752,11.71 7.612,11.13 8.372,10.61 C9.172,10.07 9.622,9.73 9.622,9.15 C9.622,8.63 9.202,8.21 8.682,8.21 C8.162,8.21 7.742,8.63 7.742,9.15 C7.742,9.56 7.402,9.9 6.992,9.9 C6.582,9.9 6.242,9.56 6.242,9.15 C6.242,7.81 7.332,6.71 8.682,6.71 C10.032,6.71 11.122,7.8 11.122,9.15 C11.122,10.56 10.062,11.28 9.212,11.86 C8.682,12.22 8.182,12.56 7.932,13.01 L10.372,13.01 C10.782,13.01 11.122,13.35 11.122,13.76 C11.122,14.17 10.792,14.51 10.382,14.51 Z"/>
  <path fill="#292D32" d="M16.043,14.51 C15.633,14.51 15.293,14.17 15.293,13.76 L15.293,13.07 L13.333,13.07 C13.333,13.07 13.333,13.07 13.323,13.07 C12.833,13.07 12.383,12.81 12.133,12.39 C11.883,11.96 11.883,11.43 12.133,11.01 C12.813,9.84 13.603,8.51 14.323,7.35 C14.643,6.84 15.253,6.61 15.823,6.77 C16.393,6.94 16.793,7.46 16.783,8.06 L16.783,11.58 L17.003,11.58 C17.413,11.58 17.753,11.92 17.753,12.33 C17.753,12.74 17.413,13.08 17.003,13.08 L16.793,13.08 L16.793,13.77 C16.793,14.18 16.463,14.51 16.043,14.51 Z M15.293,8.64 C14.703,9.6 14.093,10.63 13.543,11.57 L15.293,11.57 L15.293,8.64 Z"/>
</svg>