<svg xmlns="http://www.w3.org/2000/svg" width="24" height="24" viewBox="0 0 24 24">
  <defs/>
  <path fill="#292D32" d="M17.002,21 L10.282,21 C8.662,21 7.112,20.31 6.032,19.12 L2.502,15.24 C0.822,13.4 0.822,10.62 2.502,8.77 L6.032,4.89 C7.112,3.69 8.662,3 10.282,3 L17.002,3 C20.172,3 22.752,5.58 22.752,8.75 L22.752,15.25 C22.752,18.42 20.172,21 17.002,21 Z M10.282,4.5 C9.092,4.5 7.942,5.01 7.142,5.89 L3.602,9.78 C2.452,11.05 2.452,12.96 3.602,14.23 L7.132,18.11 C7.932,18.99 9.082,19.5 10.272,19.5 L17.002,19.5 C19.342,19.5 21.252,17.59 21.252,15.25 L21.252,8.75 C21.252,6.41 19.342,4.5 17.002,4.5 L10.282,4.5 Z"/>
  <path fill="#292D32" d="M16,15.22 C15.81,15.22 15.62,15.15 15.47,15 L10.53,10.05 C10.24,9.76 10.24,9.28 10.53,8.99 C10.82,8.7 11.3,8.7 11.59,8.99 L16.53,13.94 C16.82,14.23 16.82,14.71 16.53,15 C16.38,15.15 16.19,15.22 16,15.22 Z"/>
  <path fill="#292D32" d="M11.06,15.22 C10.87,15.22 10.68,15.15 10.53,15 C10.24,14.71 10.24,14.23 10.53,13.94 L15.47,9 C15.76,8.71 16.24,8.71 16.53,9 C16.82,9.29 16.82,9.77 16.53,10.06 L11.59,15 C11.44,15.15 11.25,15.22 11.06,15.22 Z"/>
</svg>