<svg xmlns="http://www.w3.org/2000/svg" width="24" height="24" viewBox="0 0 24 24">
  <defs/>
  <path fill="#292D32" d="M21,20.25 L11,20.25 C10.59,20.25 10.25,19.91 10.25,19.5 C10.25,19.09 10.59,18.75 11,18.75 L21,18.75 C21.41,18.75 21.75,19.09 21.75,19.5 C21.75,19.91 21.41,20.25 21,20.25 Z"/>
  <path fill="#292D32" d="M21,13.25 L11,13.25 C10.59,13.25 10.25,12.91 10.25,12.5 C10.25,12.09 10.59,11.75 11,11.75 L21,11.75 C21.41,11.75 21.75,12.09 21.75,12.5 C21.75,12.91 21.41,13.25 21,13.25 Z"/>
  <path fill="#292D32" d="M21,6.25 L11,6.25 C10.59,6.25 10.25,5.91 10.25,5.5 C10.25,5.09 10.59,4.75 11,4.75 L21,4.75 C21.41,4.75 21.75,5.09 21.75,5.5 C21.75,5.91 21.41,6.25 21,6.25 Z"/>
  <path fill="#292D32" d="M3.998,7.25 C3.808,7.25 3.618,7.18 3.467,7.03 L2.467,6.03 C2.178,5.74 2.178,5.26 2.467,4.97 C2.757,4.68 3.237,4.68 3.527,4.97 L3.998,5.44 L6.468,2.97 C6.758,2.68 7.237,2.68 7.527,2.97 C7.817,3.26 7.817,3.74 7.527,4.03 L4.527,7.03 C4.378,7.18 4.188,7.25 3.998,7.25 Z"/>
  <path fill="#292D32" d="M3.998,14.25 C3.808,14.25 3.618,14.18 3.467,14.03 L2.467,13.03 C2.178,12.74 2.178,12.26 2.467,11.97 C2.757,11.68 3.237,11.68 3.527,11.97 L3.998,12.44 L6.468,9.97 C6.758,9.68 7.237,9.68 7.527,9.97 C7.817,10.26 7.817,10.74 7.527,11.03 L4.527,14.03 C4.378,14.18 4.188,14.25 3.998,14.25 Z"/>
  <path fill="#292D32" d="M3.998,21.25 C3.808,21.25 3.618,21.18 3.467,21.03 L2.467,20.03 C2.178,19.74 2.178,19.26 2.467,18.97 C2.757,18.68 3.237,18.68 3.527,18.97 L3.998,19.44 L6.468,16.97 C6.758,16.68 7.237,16.68 7.527,16.97 C7.817,17.26 7.817,17.74 7.527,18.03 L4.527,21.03 C4.378,21.18 4.188,21.25 3.998,21.25 Z"/>
</svg>