<svg xmlns="http://www.w3.org/2000/svg" width="24" height="24" viewBox="0 0 24 24">
  <defs/>
  <path fill="#292D32" d="M17.617,9.62 L12.367,9.62 C11.957,9.62 11.617,9.28 11.617,8.87 C11.617,8.46 11.957,8.12 12.367,8.12 L17.617,8.12 C18.027,8.12 18.367,8.46 18.367,8.87 C18.367,9.28 18.037,9.62 17.617,9.62 Z"/>
  <path fill="#292D32" d="M7.122,10.38 C6.933,10.38 6.742,10.31 6.593,10.16 L5.843,9.41 C5.553,9.12 5.553,8.64 5.843,8.35 C6.133,8.06 6.612,8.06 6.902,8.35 L7.122,8.57 L8.842,6.85 C9.133,6.56 9.613,6.56 9.902,6.85 C10.193,7.14 10.193,7.62 9.902,7.91 L7.652,10.16 C7.513,10.3 7.322,10.38 7.122,10.38 Z"/>
  <path fill="#292D32" d="M17.617,16.62 L12.367,16.62 C11.957,16.62 11.617,16.28 11.617,15.87 C11.617,15.46 11.957,15.12 12.367,15.12 L17.617,15.12 C18.027,15.12 18.367,15.46 18.367,15.87 C18.367,16.28 18.037,16.62 17.617,16.62 Z"/>
  <path fill="#292D32" d="M7.122,17.38 C6.933,17.38 6.742,17.31 6.593,17.16 L5.843,16.41 C5.553,16.12 5.553,15.64 5.843,15.35 C6.133,15.06 6.612,15.06 6.902,15.35 L7.122,15.57 L8.842,13.85 C9.133,13.56 9.613,13.56 9.902,13.85 C10.193,14.14 10.193,14.62 9.902,14.91 L7.652,17.16 C7.513,17.3 7.322,17.38 7.122,17.38 Z"/>
  <path fill="#292D32" d="M15,22.75 L9,22.75 C3.57,22.75 1.25,20.43 1.25,15 L1.25,9 C1.25,3.57 3.57,1.25 9,1.25 L15,1.25 C20.43,1.25 22.75,3.57 22.75,9 L22.75,15 C22.75,20.43 20.43,22.75 15,22.75 Z M9,2.75 C4.39,2.75 2.75,4.39 2.75,9 L2.75,15 C2.75,19.61 4.39,21.25 9,21.25 L15,21.25 C19.61,21.25 21.25,19.61 21.25,15 L21.25,9 C21.25,4.39 19.61,2.75 15,2.75 L9,2.75 Z"/>
</svg>