<svg xmlns="http://www.w3.org/2000/svg" width="24" height="24" viewBox="0 0 24 24">
  <defs/>
  <path fill="#292D32" d="M12.01,17 C11.16,17 10.3,16.78 9.63,16.35 L3.61,12.42 C2.49,11.69 1.82,10.46 1.82,9.12 C1.82,7.78 2.49,6.55 3.61,5.82 L9.64,1.9 C10.98,1.03 13.07,1.03 14.4,1.91 L20.39,5.84 C21.5,6.57 22.17,7.8 22.17,9.13 C22.17,10.46 21.5,11.69 20.39,12.42 L14.4,16.35 C13.73,16.79 12.87,17 12.01,17 Z M12.01,2.75 C11.44,2.75 10.87,2.88 10.46,3.16 L4.44,7.08 C3.74,7.54 3.33,8.28 3.33,9.12 C3.33,9.96 3.73,10.7 4.44,11.16 L10.46,15.09 C11.29,15.63 12.75,15.63 13.58,15.09 L19.57,11.16 C20.27,10.7 20.67,9.96 20.67,9.12 C20.67,8.28 20.27,7.54 19.57,7.08 L13.58,3.15 C13.16,2.89 12.59,2.75 12.01,2.75 Z"/>
  <path fill="#292D32" d="M11.997,22.75 C11.557,22.75 11.107,22.69 10.747,22.57 L7.557,21.51 C6.047,21.01 4.857,19.36 4.867,17.77 L4.877,13.08 C4.877,12.67 5.217,12.33 5.627,12.33 C6.037,12.33 6.377,12.67 6.377,13.08 L6.367,17.77 C6.367,18.71 7.147,19.79 8.037,20.09 L11.227,21.15 C11.627,21.28 12.367,21.28 12.767,21.15 L15.957,20.09 C16.847,19.79 17.627,18.71 17.627,17.78 L17.627,13.14 C17.627,12.73 17.967,12.39 18.377,12.39 C18.787,12.39 19.127,12.73 19.127,13.14 L19.127,17.78 C19.127,19.37 17.947,21.01 16.437,21.52 L13.247,22.58 C12.887,22.69 12.437,22.75 11.997,22.75 Z"/>
  <path fill="#292D32" d="M21.398,15.75 C20.988,15.75 20.648,15.41 20.648,15 L20.648,9 C20.648,8.59 20.988,8.25 21.398,8.25 C21.808,8.25 22.148,8.59 22.148,9 L22.148,15 C22.148,15.41 21.808,15.75 21.398,15.75 Z"/>
</svg>