<svg xmlns="http://www.w3.org/2000/svg" width="24" height="24" viewBox="0 0 24 24">
  <defs/>
  <path fill="#292D32" d="M21,5.25 L3,5.25 C2.59,5.25 2.25,4.91 2.25,4.5 C2.25,4.09 2.59,3.75 3,3.75 L21,3.75 C21.41,3.75 21.75,4.09 21.75,4.5 C21.75,4.91 21.41,5.25 21,5.25 Z"/>
  <path fill="#292D32" d="M16.738,10.25 L7.258,10.25 C6.848,10.25 6.508,9.91 6.508,9.5 C6.508,9.09 6.848,8.75 7.258,8.75 L16.728,8.75 C17.138,8.75 17.478,9.09 17.478,9.5 C17.478,9.91 17.148,10.25 16.738,10.25 Z"/>
  <path fill="#292D32" d="M21,15.25 L3,15.25 C2.59,15.25 2.25,14.91 2.25,14.5 C2.25,14.09 2.59,13.75 3,13.75 L21,13.75 C21.41,13.75 21.75,14.09 21.75,14.5 C21.75,14.91 21.41,15.25 21,15.25 Z"/>
  <path fill="#292D32" d="M16.738,20.25 L7.258,20.25 C6.848,20.25 6.508,19.91 6.508,19.5 C6.508,19.09 6.848,18.75 7.258,18.75 L16.728,18.75 C17.138,18.75 17.478,19.09 17.478,19.5 C17.478,19.91 17.148,20.25 16.738,20.25 Z"/>
</svg>