<svg xmlns="http://www.w3.org/2000/svg" width="24" height="24" viewBox="0 0 24 24">
  <defs/>
  <path fill="#292D32" d="M12.003,12.75 L4.883,12.75 C4.473,12.75 4.133,12.41 4.133,12 L4.133,4.5 C4.133,2.98 5.363,1.75 6.883,1.75 L12.003,1.75 C15.033,1.75 17.503,4.22 17.503,7.25 C17.503,10.28 15.033,12.75 12.003,12.75 Z M5.623,11.25 L12.003,11.25 C14.213,11.25 16.003,9.46 16.003,7.25 C16.003,5.04 14.213,3.25 12.003,3.25 L6.883,3.25 C6.193,3.25 5.633,3.81 5.633,4.5 L5.633,11.25 L5.623,11.25 Z"/>
  <path fill="#292D32" d="M14.383,22.25 L6.883,22.25 C5.363,22.25 4.133,21.02 4.133,19.5 L4.133,12 C4.133,11.59 4.473,11.25 4.883,11.25 L14.383,11.25 C17.413,11.25 19.883,13.72 19.883,16.75 C19.883,19.78 17.413,22.25 14.383,22.25 Z M5.623,12.75 L5.623,19.5 C5.623,20.19 6.183,20.75 6.873,20.75 L14.373,20.75 C16.583,20.75 18.373,18.96 18.373,16.75 C18.373,14.54 16.583,12.75 14.373,12.75 L5.623,12.75 Z"/>
</svg>