<svg xmlns="http://www.w3.org/2000/svg" width="24" height="24" viewBox="0 0 24 24">
  <defs/>
  <path fill="#292D32" d="M18.883,3.75 L9.623,3.75 C9.213,3.75 8.883,3.41 8.883,3 C8.883,2.59 9.223,2.25 9.633,2.25 L18.883,2.25 C19.293,2.25 19.633,2.59 19.633,3 C19.633,3.41 19.293,3.75 18.883,3.75 Z"/>
  <path fill="#292D32" d="M14.377,21.75 L5.117,21.75 C4.707,21.75 4.367,21.41 4.367,21 C4.367,20.59 4.707,20.25 5.117,20.25 L14.367,20.25 C14.777,20.25 15.117,20.59 15.117,21 C15.117,21.41 14.787,21.75 14.377,21.75 Z"/>
  <path fill="#292D32" d="M9.752,21.75 C9.692,21.75 9.632,21.74 9.572,21.73 C9.172,21.63 8.922,21.22 9.022,20.82 L13.522,2.82 C13.622,2.42 14.022,2.17 14.432,2.27 C14.832,2.37 15.082,2.78 14.982,3.18 L10.482,21.18 C10.392,21.52 10.092,21.75 9.752,21.75 Z"/>
</svg>