<svg xmlns="http://www.w3.org/2000/svg" width="24" height="24" viewBox="0 0 24 24">
  <defs/>
  <path fill="#292D32" d="M21.332,7.92 C20.922,7.92 20.582,7.58 20.582,7.17 L20.582,5.35 C20.582,4.62 19.992,4.03 19.262,4.03 L4.742,4.03 C4.012,4.03 3.422,4.62 3.422,5.35 L3.422,7.18 C3.422,7.59 3.082,7.93 2.672,7.93 C2.262,7.93 1.922,7.59 1.922,7.17 L1.922,5.35 C1.922,3.79 3.192,2.53 4.742,2.53 L19.262,2.53 C20.822,2.53 22.082,3.8 22.082,5.35 L22.082,7.18 C22.082,7.59 21.752,7.92 21.332,7.92 Z"/>
  <path fill="#292D32" d="M12,21.47 C11.59,21.47 11.25,21.13 11.25,20.72 L11.25,4.11 C11.25,3.7 11.59,3.36 12,3.36 C12.41,3.36 12.75,3.7 12.75,4.11 L12.75,20.72 C12.75,21.14 12.41,21.47 12,21.47 Z"/>
  <path fill="#292D32" d="M15.943,21.47 L8.062,21.47 C7.652,21.47 7.312,21.13 7.312,20.72 C7.312,20.31 7.652,19.97 8.062,19.97 L15.943,19.97 C16.352,19.97 16.692,20.31 16.692,20.72 C16.692,21.13 16.352,21.47 15.943,21.47 Z"/>
</svg>