<svg xmlns="http://www.w3.org/2000/svg" width="24" height="24" viewBox="0 0 24 24">
  <defs/>
  <path fill="#292D32" d="M16.687,22.75 L7.307,22.75 C3.137,22.75 1.867,21.48 1.867,17.31 L1.867,16.85 C1.867,16.44 2.207,16.1 2.617,16.1 C3.497,16.1 4.217,15.38 4.217,14.5 C4.217,13.62 3.497,12.9 2.617,12.9 C2.207,12.9 1.867,12.56 1.867,12.15 L1.867,11.69 C1.867,7.52 3.137,6.25 7.307,6.25 L16.687,6.25 C20.857,6.25 22.127,7.52 22.127,11.69 L22.127,12.63 C22.127,13.04 21.787,13.38 21.377,13.38 C20.497,13.38 19.777,14.1 19.777,14.98 C19.777,15.86 20.497,16.57 21.377,16.57 C21.787,16.57 22.127,16.91 22.127,17.32 C22.117,21.48 20.847,22.75 16.687,22.75 Z M3.377,17.51 C3.397,20.69 4.027,21.25 7.317,21.25 L16.697,21.25 C19.817,21.25 20.537,20.74 20.627,17.97 C19.287,17.63 18.287,16.42 18.287,14.97 C18.287,13.52 19.287,12.3 20.637,11.96 L20.637,11.68 C20.637,8.33 20.047,7.74 16.697,7.74 L7.307,7.74 C4.027,7.74 3.397,8.31 3.367,11.48 C4.717,11.82 5.717,13.04 5.717,14.49 C5.717,15.94 4.717,17.17 3.377,17.51 Z"/>
  <path fill="#292D32" d="M10,10.25 C9.59,10.25 9.25,9.91 9.25,9.5 L9.25,7 C9.25,6.59 9.59,6.25 10,6.25 C10.41,6.25 10.75,6.59 10.75,7 L10.75,9.5 C10.75,9.91 10.41,10.25 10,10.25 Z"/>
  <path fill="#292D32" d="M10,16.92 C9.59,16.92 9.25,16.58 9.25,16.17 L9.25,12.84 C9.25,12.43 9.59,12.09 10,12.09 C10.41,12.09 10.75,12.43 10.75,12.84 L10.75,16.17 C10.75,16.58 10.41,16.92 10,16.92 Z"/>
  <path fill="#292D32" d="M10,22.75 C9.59,22.75 9.25,22.41 9.25,22 L9.25,19.5 C9.25,19.09 9.59,18.75 10,18.75 C10.41,18.75 10.75,19.09 10.75,19.5 L10.75,22 C10.75,22.41 10.41,22.75 10,22.75 Z"/>
  <path fill="#292D32" d="M16.326,7.75 L7.236,7.75 C6.936,7.75 6.656,7.57 6.546,7.29 C6.436,7.01 6.496,6.68 6.706,6.47 L9.636,3.54 C12.336,0.84 13.986,0.84 16.676,3.54 L17.276,4.14 C17.416,4.28 17.496,4.47 17.496,4.67 C17.496,4.87 17.416,5.06 17.276,5.2 C16.876,5.6 16.766,6.19 16.996,6.7 C17.106,6.93 17.086,7.2 16.946,7.42 C16.816,7.62 16.576,7.75 16.326,7.75 Z M9.046,6.25 L15.376,6.25 C15.356,5.72 15.486,5.19 15.756,4.73 L15.626,4.6 C13.536,2.51 12.796,2.51 10.706,4.6 L9.046,6.25 Z"/>
</svg>