<svg xmlns="http://www.w3.org/2000/svg" width="24" height="24" viewBox="0 0 24 24">
  <defs/>
  <path fill="#292D32" d="M17.376,20.75 L10.906,20.75 C10.496,20.75 10.156,20.41 10.156,20 C10.156,19.59 10.496,19.25 10.906,19.25 L17.376,19.25 C20.436,19.25 21.156,18.75 21.236,16.03 C19.916,15.69 18.936,14.49 18.936,13.07 C18.936,11.64 19.916,10.43 21.246,10.09 L21.246,9.83 C21.246,6.54 20.666,5.96 17.376,5.96 L11.746,5.96 L11.746,12 C11.746,12.41 11.406,12.75 10.996,12.75 C10.586,12.75 10.246,12.41 10.246,12 L10.246,5.21 C10.246,4.8 10.586,4.46 10.996,4.46 L17.376,4.46 C21.496,4.46 22.746,5.71 22.746,9.83 L22.746,10.75 C22.746,11.16 22.406,11.5 21.996,11.5 C21.136,11.5 20.436,12.2 20.436,13.07 C20.436,13.93 21.136,14.63 21.996,14.63 C22.406,14.63 22.746,14.97 22.746,15.38 C22.746,19.5 21.496,20.75 17.376,20.75 Z"/>
  <path fill="#292D32" d="M10.998,20.75 L8.228,20.75 C6.208,20.75 5.168,19.23 4.218,16.95 L4.028,16.49 C3.958,16.31 3.958,16.1 4.038,15.92 C4.118,15.74 4.268,15.59 4.448,15.52 C4.848,15.36 5.158,15.05 5.328,14.66 C5.498,14.26 5.498,13.82 5.328,13.42 C4.998,12.58 4.048,12.19 3.208,12.52 C3.018,12.6 2.818,12.59 2.628,12.51 C2.448,12.43 2.298,12.28 2.228,12.1 L2.058,11.67 C0.458,7.78 1.158,6.11 5.048,4.5 L7.688,3.42 C8.068,3.26 8.508,3.45 8.668,3.83 L11.698,11.17 C11.739,11.26 11.758,11.36 11.758,11.46 L11.758,14 C11.758,14.41 11.418,14.75 11.008,14.75 C10.598,14.75 10.258,14.41 10.258,14 L10.258,11.6 L7.558,5.09 L5.618,5.89 C2.538,7.16 2.168,7.94 3.378,10.94 C4.768,10.74 6.168,11.49 6.718,12.84 C7.038,13.61 7.038,14.46 6.708,15.23 C6.488,15.76 6.128,16.21 5.668,16.54 C6.628,18.8 7.328,19.25 8.218,19.25 L10.239,19.25 L10.239,17 C10.239,16.59 10.579,16.25 10.989,16.25 C11.399,16.25 11.739,16.59 11.739,17 L11.739,20 C11.748,20.41 11.409,20.75 10.998,20.75 Z"/>
  <path fill="#292D32" d="M8.17,20.75 L8,20.75 C7.59,20.75 7.25,20.41 7.25,20 C7.25,19.59 7.59,19.25 8,19.25 L8.17,19.25 C8.58,19.25 8.92,19.59 8.92,20 C8.92,20.41 8.58,20.75 8.17,20.75 Z"/>
</svg>