<svg xmlns="http://www.w3.org/2000/svg" width="24" height="24" viewBox="0 0 24 24">
  <defs/>
  <path fill="#292D32" d="M16.999,20.75 L6.999,20.75 C2.749,20.75 1.359,19.48 1.259,15.52 C1.259,15.32 1.329,15.12 1.469,14.98 C1.609,14.84 1.799,14.75 2.009,14.75 C3.519,14.75 4.749,13.51 4.749,12 C4.749,10.49 3.519,9.25 2.009,9.25 C1.809,9.25 1.619,9.17 1.469,9.02 C1.319,8.87 1.249,8.68 1.259,8.48 C1.359,4.52 2.749,3.25 6.999,3.25 L16.999,3.25 C21.409,3.25 22.749,4.59 22.749,9 L22.749,15 C22.749,19.41 21.409,20.75 16.999,20.75 Z M2.789,16.18 C2.959,18.72 3.819,19.25 6.999,19.25 L16.999,19.25 C20.579,19.25 21.249,18.57 21.249,15 L21.249,9 C21.249,5.43 20.579,4.75 16.999,4.75 L6.999,4.75 C3.819,4.75 2.959,5.29 2.789,7.82 C4.759,8.2 6.249,9.93 6.249,12 C6.249,14.07 4.759,15.8 2.789,16.18 Z"/>
  <path fill="#292D32" d="M9,8.25 C8.59,8.25 8.25,7.91 8.25,7.5 L8.25,4 C8.25,3.59 8.59,3.25 9,3.25 C9.41,3.25 9.75,3.59 9.75,4 L9.75,7.5 C9.75,7.91 9.41,8.25 9,8.25 Z"/>
  <path fill="#292D32" d="M9,20.75 C8.59,20.75 8.25,20.41 8.25,20 L8.25,16.5 C8.25,16.09 8.59,15.75 9,15.75 C9.41,15.75 9.75,16.09 9.75,16.5 L9.75,20 C9.75,20.41 9.41,20.75 9,20.75 Z"/>
  <path fill="#292D32" d="M13.036,15.65 C12.796,15.65 12.556,15.57 12.356,15.43 C11.996,15.17 11.816,14.73 11.896,14.29 L12.106,13.1 L11.236,12.25 C10.916,11.94 10.806,11.48 10.936,11.06 C11.076,10.64 11.436,10.33 11.876,10.27 L13.076,10.09 L13.616,9 C13.816,8.6 14.216,8.35 14.656,8.35 C15.106,8.35 15.506,8.6 15.696,9 L16.236,10.09 L17.436,10.27 C17.876,10.33 18.236,10.64 18.376,11.06 C18.516,11.48 18.396,11.94 18.076,12.25 L17.206,13.1 L17.416,14.29 C17.496,14.73 17.316,15.17 16.956,15.43 C16.596,15.69 16.126,15.72 15.736,15.52 L14.666,14.96 L13.586,15.52 C13.416,15.61 13.226,15.65 13.036,15.65 Z M12.766,11.65 L13.276,12.15 C13.556,12.42 13.676,12.8 13.616,13.18 L13.496,13.88 L14.126,13.55 C14.466,13.37 14.866,13.37 15.206,13.55 L15.836,13.88 L15.716,13.18 C15.656,12.79 15.776,12.41 16.056,12.15 L16.566,11.65 L15.866,11.55 C15.486,11.49 15.156,11.25 14.986,10.91 L14.676,10.27 L14.366,10.91 C14.196,11.25 13.866,11.49 13.486,11.55 L12.766,11.65 Z"/>
</svg>