<svg xmlns="http://www.w3.org/2000/svg" width="24" height="24" viewBox="0 0 24 24">
  <defs/>
  <path fill="#292D32" d="M15,22.75 L9,22.75 C3.57,22.75 1.25,20.43 1.25,15 L1.25,9 C1.25,3.57 3.57,1.25 9,1.25 L15,1.25 C20.43,1.25 22.75,3.57 22.75,9 L22.75,15 C22.75,20.43 20.43,22.75 15,22.75 Z M9,2.75 C4.39,2.75 2.75,4.39 2.75,9 L2.75,15 C2.75,19.61 4.39,21.25 9,21.25 L15,21.25 C19.61,21.25 21.25,19.61 21.25,15 L21.25,9 C21.25,4.39 19.61,2.75 15,2.75 L9,2.75 Z"/>
  <path fill="#292D32" d="M10.578,15.58 C10.377,15.58 10.188,15.5 10.047,15.36 L7.218,12.53 C6.928,12.24 6.928,11.76 7.218,11.47 C7.508,11.18 7.987,11.18 8.277,11.47 L10.578,13.77 L15.717,8.63 C16.008,8.34 16.488,8.34 16.777,8.63 C17.067,8.92 17.067,9.4 16.777,9.69 L11.107,15.36 C10.967,15.5 10.777,15.58 10.578,15.58 Z"/>
</svg>