<svg xmlns="http://www.w3.org/2000/svg" width="24" height="24" viewBox="0 0 24 24">
  <defs/>
  <path fill="#292D32" d="M12,22.75 C6.07,22.75 1.25,17.93 1.25,12 C1.25,6.07 6.07,1.25 12,1.25 C17.93,1.25 22.75,6.07 22.75,12 C22.75,17.93 17.93,22.75 12,22.75 Z M12,2.75 C6.9,2.75 2.75,6.9 2.75,12 C2.75,17.1 6.9,21.25 12,21.25 C17.1,21.25 21.25,17.1 21.25,12 C21.25,6.9 17.1,2.75 12,2.75 Z"/>
  <path fill="#292D32" d="M10.578,15.58 C10.377,15.58 10.188,15.5 10.047,15.36 L7.218,12.53 C6.928,12.24 6.928,11.76 7.218,11.47 C7.508,11.18 7.987,11.18 8.277,11.47 L10.578,13.77 L15.717,8.63 C16.008,8.34 16.488,8.34 16.777,8.63 C17.067,8.92 17.067,9.4 16.777,9.69 L11.107,15.36 C10.967,15.5 10.777,15.58 10.578,15.58 Z"/>
</svg>