<svg xmlns="http://www.w3.org/2000/svg" width="24" height="24" viewBox="0 0 24 24">
  <defs/>
  <path fill="#292D32" d="M12,13.75 C11.59,13.75 11.25,13.41 11.25,13 L11.25,8 C11.25,7.59 11.59,7.25 12,7.25 C12.41,7.25 12.75,7.59 12.75,8 L12.75,13 C12.75,13.41 12.41,13.75 12,13.75 Z"/>
  <path fill="#292D32" d="M12,22.75 C6.76,22.75 2.5,18.49 2.5,13.25 C2.5,8.01 6.76,3.75 12,3.75 C17.24,3.75 21.5,8.01 21.5,13.25 C21.5,13.66 21.16,14 20.75,14 C20.34,14 20,13.66 20,13.25 C20,8.84 16.41,5.25 12,5.25 C7.59,5.25 4,8.84 4,13.25 C4,17.66 7.59,21.25 12,21.25 C12.41,21.25 12.75,21.59 12.75,22 C12.75,22.41 12.41,22.75 12,22.75 Z"/>
  <path fill="#292D32" d="M15,2.75 L9,2.75 C8.59,2.75 8.25,2.41 8.25,2 C8.25,1.59 8.59,1.25 9,1.25 L15,1.25 C15.41,1.25 15.75,1.59 15.75,2 C15.75,2.41 15.41,2.75 15,2.75 Z"/>
  <path fill="#292D32" d="M16.148,22.02 C15.798,22.02 15.478,21.94 15.188,21.77 C14.528,21.39 14.148,20.62 14.148,19.66 L14.148,17.35 C14.148,16.39 14.528,15.62 15.188,15.24 C15.848,14.86 16.698,14.92 17.528,15.39 L19.528,16.55 C20.358,17.03 20.838,17.74 20.838,18.5 C20.838,19.26 20.358,19.97 19.528,20.45 L17.528,21.61 C17.068,21.88 16.598,22.02 16.148,22.02 Z M16.158,16.48 C16.078,16.48 15.998,16.5 15.938,16.53 C15.758,16.63 15.648,16.94 15.648,17.34 L15.648,19.65 C15.648,20.05 15.758,20.36 15.938,20.46 C16.118,20.56 16.438,20.51 16.778,20.31 L18.778,19.15 C19.128,18.95 19.338,18.7 19.338,18.5 C19.338,18.3 19.128,18.05 18.778,17.85 L16.778,16.69 C16.548,16.55 16.328,16.48 16.158,16.48 Z"/>
</svg>