<svg xmlns="http://www.w3.org/2000/svg" width="24" height="24" viewBox="0 0 24 24">
  <defs/>
  <path fill="#292D32" d="M15.241,22.75 L8.761,22.75 C6.871,22.75 5.491,21.96 4.961,20.6 C4.411,19.18 4.921,17.42 6.241,16.23 L10.881,12 L6.241,7.77 C4.921,6.58 4.411,4.82 4.961,3.4 C5.491,2.03 6.871,1.25 8.761,1.25 L15.241,1.25 C17.131,1.25 18.511,2.04 19.041,3.4 C19.591,4.82 19.081,6.58 17.761,7.77 L13.121,12 L17.771,16.23 C19.081,17.42 19.601,19.18 19.051,20.6 C18.511,21.96 17.131,22.75 15.241,22.75 Z M12.001,13.01 L7.251,17.33 C6.411,18.1 6.041,19.22 6.361,20.05 C6.661,20.82 7.511,21.25 8.761,21.25 L15.241,21.25 C16.491,21.25 17.341,20.83 17.641,20.05 C17.961,19.22 17.601,18.1 16.751,17.33 L12.001,13.01 Z M8.761,2.75 C7.511,2.75 6.661,3.17 6.361,3.95 C6.041,4.78 6.401,5.9 7.251,6.67 L12.001,10.99 L16.751,6.67 C17.591,5.9 17.961,4.78 17.641,3.95 C17.341,3.18 16.491,2.75 15.241,2.75 L8.761,2.75 Z"/>
</svg>