<svg xmlns="http://www.w3.org/2000/svg" width="24" height="24" viewBox="0 0 24 24">
  <defs/>
  <path fill="#292D32" d="M14.793,19.42 C14.683,19.42 14.563,19.39 14.463,19.34 C14.093,19.15 13.943,18.7 14.123,18.33 L16.263,14.06 C16.393,13.81 16.653,13.65 16.933,13.65 C17.213,13.65 17.473,13.81 17.603,14.07 L19.743,18.34 C19.933,18.71 19.783,19.16 19.403,19.35 C19.033,19.54 18.583,19.39 18.393,19.01 L16.933,16.08 L15.473,19.01 C15.333,19.27 15.063,19.42 14.793,19.42 Z"/>
  <path fill="#292D32" d="M18.676,18.66 L15.156,18.66 C14.746,18.66 14.406,18.32 14.406,17.91 C14.406,17.5 14.746,17.16 15.156,17.16 L18.676,17.16 C19.086,17.16 19.426,17.5 19.426,17.91 C19.426,18.32 19.096,18.66 18.676,18.66 Z"/>
  <path fill="#292D32" d="M16.924,22.75 C13.714,22.75 11.094,20.14 11.094,16.92 C11.094,13.7 13.704,11.09 16.924,11.09 C20.134,11.09 22.754,13.7 22.754,16.92 C22.754,20.14 20.144,22.75 16.924,22.75 Z M16.924,12.6 C14.534,12.6 12.594,14.54 12.594,16.93 C12.594,19.32 14.534,21.26 16.924,21.26 C19.304,21.26 21.254,19.32 21.254,16.93 C21.254,14.54 19.314,12.6 16.924,12.6 Z"/>
  <path fill="#292D32" d="M4.86,12.7 C3.75,12.7 2.87,12.39 2.25,11.79 C1.59,11.15 1.25,10.18 1.25,8.93 L1.25,5.01 C1.25,2.58 2.59,1.24 5.02,1.24 L8.94,1.24 C10.19,1.24 11.15,1.57 11.8,2.24 C12.43,2.89 12.74,3.83 12.71,5.03 L12.71,8.93 C12.74,10.15 12.43,11.11 11.78,11.76 C11.13,12.41 10.17,12.71 8.93,12.69 L5.03,12.69 C4.96,12.7 4.91,12.7 4.86,12.7 Z M5.02,2.75 C3.41,2.75 2.75,3.41 2.75,5.02 L2.75,8.94 C2.75,9.77 2.93,10.37 3.29,10.72 C3.64,11.06 4.2,11.21 4.99,11.2 L8.93,11.2 C9.77,11.22 10.35,11.05 10.7,10.7 C11.05,10.35 11.21,9.76 11.19,8.95 L11.19,5.01 C11.21,4.21 11.05,3.64 10.71,3.29 C10.36,2.93 9.76,2.75 8.93,2.75 L5.02,2.75 Z"/>
  <path fill="#292D32" d="M8.998,6.6 L4.938,6.6 C4.527,6.6 4.188,6.26 4.188,5.85 C4.188,5.44 4.527,5.1 4.938,5.1 L8.998,5.1 C9.408,5.1 9.748,5.44 9.748,5.85 C9.748,6.26 9.418,6.6 8.998,6.6 Z"/>
  <path fill="#292D32" d="M6.977,6.6 C6.567,6.6 6.227,6.26 6.227,5.85 L6.227,5.17 C6.227,4.76 6.567,4.42 6.977,4.42 C7.387,4.42 7.727,4.76 7.727,5.17 L7.727,5.85 C7.727,6.26 7.387,6.6 6.977,6.6 Z"/>
  <path fill="#292D32" d="M4.938,9.76 C4.527,9.76 4.188,9.42 4.188,9.01 C4.188,8.6 4.527,8.26 4.938,8.26 C6.207,8.26 7.237,7.18 7.237,5.84 C7.237,5.43 7.577,5.09 7.987,5.09 C8.398,5.09 8.738,5.43 8.738,5.84 C8.738,8 7.037,9.76 4.938,9.76 Z"/>
  <path fill="#292D32" d="M9.007,9.76 C8.077,9.76 7.187,9.29 6.557,8.46 C6.307,8.13 6.377,7.66 6.707,7.41 C7.037,7.16 7.507,7.23 7.757,7.56 C8.097,8.02 8.547,8.27 9.007,8.27 C9.417,8.27 9.757,8.61 9.757,9.02 C9.757,9.43 9.417,9.76 9.007,9.76 Z"/>
  <path fill="#292D32" d="M9,22.75 C4.73,22.75 1.25,19.27 1.25,15 C1.25,14.59 1.59,14.25 2,14.25 C2.41,14.25 2.75,14.59 2.75,15 C2.75,17.96 4.81,20.44 7.58,21.09 L7.31,20.64 C7.1,20.28 7.21,19.82 7.57,19.61 C7.92,19.4 8.39,19.51 8.6,19.87 L9.65,21.62 C9.79,21.85 9.79,22.14 9.66,22.37 C9.52,22.6 9.27,22.75 9,22.75 Z"/>
  <path fill="#292D32" d="M21.998,9.75 C21.588,9.75 21.248,9.41 21.248,9 C21.248,6.04 19.189,3.56 16.419,2.91 L16.689,3.36 C16.898,3.72 16.788,4.18 16.428,4.39 C16.078,4.6 15.608,4.49 15.399,4.13 L14.348,2.38 C14.209,2.15 14.209,1.86 14.338,1.63 C14.469,1.39 14.719,1.25 14.989,1.25 C19.259,1.25 22.738,4.73 22.738,9 C22.748,9.41 22.409,9.75 21.998,9.75 Z"/>
</svg>