<svg xmlns="http://www.w3.org/2000/svg" width="24" height="24" viewBox="0 0 24 24">
  <defs/>
  <path fill="#292D32" d="M12.003,22.75 C11.223,22.75 10.463,22.35 9.943,21.65 L8.933,20.3 C8.723,20.02 8.443,19.86 8.143,19.84 C7.843,19.83 7.543,19.96 7.303,20.21 L6.753,19.7 L7.303,20.21 C5.863,21.75 4.753,21.63 4.223,21.42 C3.683,21.21 2.773,20.52 2.773,18.3 L2.773,7.04 C2.773,2.6 4.053,1.25 8.243,1.25 L15.803,1.25 C19.993,1.25 21.273,2.6 21.273,7.04 L21.273,18.3 C21.273,20.51 20.363,21.2 19.823,21.42 C19.293,21.63 18.193,21.75 16.743,20.21 C16.503,19.95 16.203,19.82 15.893,19.84 C15.593,19.86 15.303,20.02 15.093,20.3 L14.083,21.65 C13.543,22.35 12.783,22.75 12.003,22.75 Z M8.083,18.33 C8.123,18.33 8.173,18.33 8.213,18.33 C8.953,18.37 9.653,18.76 10.123,19.39 L11.133,20.74 C11.623,21.39 12.373,21.39 12.863,20.74 L13.873,19.39 C14.353,18.76 15.043,18.37 15.793,18.33 C16.543,18.29 17.273,18.6 17.813,19.18 C18.573,19.99 19.063,20.09 19.243,20.02 C19.483,19.92 19.743,19.34 19.743,18.3 L19.743,7.04 C19.743,3.43 19.113,2.75 15.773,2.75 L8.213,2.75 C4.873,2.75 4.243,3.43 4.243,7.04 L4.243,18.3 C4.243,19.35 4.503,19.93 4.743,20.02 C4.913,20.09 5.413,19.99 6.173,19.18 C6.723,18.63 7.393,18.33 8.083,18.33 Z"/>
  <path fill="#292D32" d="M14.75,10.75 L9.25,10.75 C8.84,10.75 8.5,10.41 8.5,10 C8.5,9.59 8.84,9.25 9.25,9.25 L14.75,9.25 C15.16,9.25 15.5,9.59 15.5,10 C15.5,10.41 15.16,10.75 14.75,10.75 Z"/>
</svg>