<svg xmlns="http://www.w3.org/2000/svg" width="24" height="24" viewBox="0 0 24 24">
  <defs/>
  <path fill="#4C4C4C" d="M10,10 C10.552,10 11,10.448 11,11 L11,16 C11,16.552 10.552,17 10,17 C9.448,17 9,16.552 9,16 L9,11 C9,10.448 9.448,10 10,10 Z"/>
  <path fill="#4C4C4C" d="M14,10 C14.552,10 15,10.448 15,11 L15,16 C15,16.552 14.552,17 14,17 C13.448,17 13,16.552 13,16 L13,11 C13,10.448 13.448,10 14,10 Z"/>
  <path fill="#4C4C4C" d="M10,2 L14,2 C15.657,2 17,3.343 17,5 L21,5 C21.552,5 22,5.448 22,6 C22,6.552 21.552,7 21,7 L20,7 L20,19 C20,20.657 18.657,22 17,22 L7,22 C5.343,22 4,20.657 4,19 L4,7 L3,7 C2.448,7 2,6.552 2,6 C2,5.448 2.448,5 3,5 L7,5 C7,3.343 8.343,2 10,2 Z M6,7 L6,19 C6,19.552 6.448,20 7,20 L17,20 C17.552,20 18,19.552 18,19 L18,7 L6,7 Z M15,5 C15,4.448 14.552,4 14,4 L10,4 C9.448,4 9,4.448 9,5 Z"/>
</svg>