<svg xmlns="http://www.w3.org/2000/svg" width="24" height="24" viewBox="0 0 24 24">
  <defs/>
  <path fill="#292D32" d="M16.166,10.81 L7.826,10.81 C6.966,10.81 6.306,10.47 6.006,9.89 C5.706,9.3 5.826,8.57 6.326,7.88 L10.496,2.04 C11.236,0.98 12.766,0.98 13.516,2.05 L17.686,7.88 C18.186,8.57 18.306,9.3 18.006,9.89 C17.686,10.47 17.026,10.81 16.166,10.81 Z M11.996,2.7 C11.906,2.7 11.806,2.78 11.716,2.9 L7.546,8.75 C7.346,9.02 7.336,9.18 7.346,9.21 C7.356,9.23 7.496,9.31 7.836,9.31 L16.176,9.31 C16.506,9.31 16.646,9.22 16.666,9.2 C16.666,9.18 16.656,9.02 16.466,8.75 L12.296,2.91 C12.186,2.77 12.086,2.7 11.996,2.7 Z"/>
  <path fill="#292D32" d="M17.588,18.75 L6.418,18.75 C4.988,18.75 4.418,18.06 4.208,17.65 C3.998,17.24 3.778,16.38 4.618,15.22 L8.608,9.62 C8.748,9.42 8.978,9.31 9.218,9.31 L14.788,9.31 C15.028,9.31 15.258,9.43 15.398,9.62 L19.388,15.23 C20.228,16.38 19.998,17.24 19.788,17.65 C19.578,18.06 19.018,18.75 17.588,18.75 Z M9.598,10.81 L5.828,16.1 C5.508,16.54 5.478,16.84 5.538,16.97 C5.608,17.1 5.868,17.25 6.408,17.25 L17.578,17.25 C18.118,17.25 18.388,17.1 18.448,16.97 C18.518,16.84 18.478,16.54 18.158,16.1 L14.388,10.8 L9.598,10.8 L9.598,10.81 Z"/>
  <path fill="#292D32" d="M12,22.75 C11.59,22.75 11.25,22.41 11.25,22 L11.25,18 C11.25,17.59 11.59,17.25 12,17.25 C12.41,17.25 12.75,17.59 12.75,18 L12.75,22 C12.75,22.41 12.41,22.75 12,22.75 Z"/>
</svg>