<svg xmlns="http://www.w3.org/2000/svg" width="24" height="24" viewBox="0 0 24 24">
  <defs/>
  <path fill="#4C4C4C" d="M6.126,18 L4,18 C3.448,18 3,17.552 3,17 C3,16.448 3.448,16 4,16 L6.126,16 C6.57,14.275 8.136,13 10,13 C11.864,13 13.43,14.275 13.874,16 L20,16 C20.552,16 21,16.448 21,17 C21,17.552 20.552,18 20,18 L13.874,18 C13.43,19.725 11.864,21 10,21 C8.136,21 6.57,19.725 6.126,18 Z M8,17 C8,18.105 8.895,19 10,19 C11.105,19 12,18.105 12,17 C12,15.895 11.105,15 10,15 C8.895,15 8,15.895 8,17 Z"/>
  <path fill="#4C4C4C" d="M10.126,8 L4,8 C3.448,8 3,7.552 3,7 C3,6.448 3.448,6 4,6 L10.126,6 C10.57,4.275 12.136,3 14,3 C15.864,3 17.43,4.275 17.874,6 L20,6 C20.552,6 21,6.448 21,7 C21,7.552 20.552,8 20,8 L17.874,8 C17.43,9.725 15.864,11 14,11 C12.136,11 10.57,9.725 10.126,8 Z M12,7 C12,8.105 12.895,9 14,9 C15.105,9 16,8.105 16,7 C16,5.895 15.105,5 14,5 C12.895,5 12,5.895 12,7 Z"/>
</svg>