<svg xmlns="http://www.w3.org/2000/svg" width="24" height="24" viewBox="0 0 24 24">
  <defs/>
  <path fill="#292D32" d="M15.133,19.06 L7.133,19.06 C6.723,19.06 6.383,18.72 6.383,18.31 C6.383,17.9 6.723,17.56 7.133,17.56 L15.133,17.56 C17.473,17.56 19.383,15.65 19.383,13.31 C19.383,10.97 17.473,9.06 15.133,9.06 L4.133,9.06 C3.723,9.06 3.383,8.72 3.383,8.31 C3.383,7.9 3.723,7.56 4.133,7.56 L15.133,7.56 C18.303,7.56 20.883,10.14 20.883,13.31 C20.883,16.48 18.303,19.06 15.133,19.06 Z"/>
  <path fill="#292D32" d="M6.433,11.56 C6.242,11.56 6.053,11.49 5.902,11.34 L3.342,8.78 C3.053,8.49 3.053,8.01 3.342,7.72 L5.902,5.16 C6.192,4.87 6.673,4.87 6.963,5.16 C7.253,5.45 7.253,5.93 6.963,6.22 L4.933,8.25 L6.963,10.28 C7.253,10.57 7.253,11.05 6.963,11.34 C6.822,11.49 6.622,11.56 6.433,11.56 Z"/>
</svg>