<svg xmlns="http://www.w3.org/2000/svg" width="24" height="24" viewBox="0 0 24 24">
  <defs/>
  <path fill="#292D32" d="M17.452,17.3 C15.772,17.3 14.222,16.51 13.212,15.12 C12.972,14.79 13.042,14.32 13.372,14.07 C13.702,13.82 14.172,13.9 14.422,14.23 C15.152,15.22 16.252,15.79 17.452,15.79 C19.542,15.79 21.252,14.09 21.252,11.99 C21.252,9.89 19.552,8.19 17.452,8.19 C16.032,8.19 14.692,8.95 13.962,10.16 L11.312,14.57 C10.312,16.24 8.482,17.27 6.542,17.27 C3.622,17.27 1.242,14.89 1.242,11.97 C1.242,9.05 3.622,6.67 6.542,6.67 C8.222,6.67 9.772,7.46 10.782,8.85 C11.022,9.18 10.952,9.65 10.622,9.9 C10.282,10.14 9.822,10.07 9.572,9.74 C8.842,8.75 7.742,8.18 6.542,8.18 C4.452,8.18 2.742,9.88 2.742,11.98 C2.742,14.08 4.442,15.78 6.542,15.78 C7.962,15.78 9.302,15.02 10.032,13.81 L12.682,9.4 C13.682,7.73 15.512,6.7 17.452,6.7 C20.372,6.7 22.752,9.08 22.752,12 C22.752,14.92 20.372,17.3 17.452,17.3 Z"/>
</svg>