<svg xmlns="http://www.w3.org/2000/svg" width="24" height="24" viewBox="0 0 24 24">
  <defs/>
  <path fill="#4C4C4C" d="M13.002,15.086 C13.002,15.638 12.554,16.086 12.002,16.086 C11.45,16.086 11.002,15.638 11.002,15.086 L11.002,7 L8.209,9.793 C7.819,10.183 7.185,10.183 6.795,9.793 C6.404,9.402 6.404,8.769 6.795,8.378 L10.588,4.585 C11.369,3.804 12.635,3.804 13.416,4.585 L17.207,8.376 C17.598,8.767 17.598,9.4 17.207,9.791 C16.817,10.181 16.184,10.181 15.793,9.791 L13.002,7 Z"/>
  <path fill="#4C4C4C" d="M4,14 C4.552,14 5,14.448 5,15 L5,17 C5,17.552 5.448,18 6,18 L18,18 C18.552,18 19,17.552 19,17 L19,15 C19,14.448 19.448,14 20,14 C20.552,14 21,14.448 21,15 L21,17 C21,18.657 19.657,20 18,20 L6,20 C4.343,20 3,18.657 3,17 L3,15 C3,14.448 3.448,14 4,14 Z"/>
</svg>