<svg xmlns="http://www.w3.org/2000/svg" width="24" height="24" viewBox="0 0 24 24">
  <defs/>
  <path fill="#292D32" d="M12,12.75 C8.83,12.75 6.25,10.17 6.25,7 C6.25,3.83 8.83,1.25 12,1.25 C15.17,1.25 17.75,3.83 17.75,7 C17.75,10.17 15.17,12.75 12,12.75 Z M12,2.75 C9.66,2.75 7.75,4.66 7.75,7 C7.75,9.34 9.66,11.25 12,11.25 C14.34,11.25 16.25,9.34 16.25,7 C16.25,4.66 14.34,2.75 12,2.75 Z"/>
  <path fill="#292D32" d="M20.594,22.75 C20.184,22.75 19.844,22.41 19.844,22 C19.844,18.55 16.324,15.75 12.004,15.75 C7.684,15.75 4.164,18.55 4.164,22 C4.164,22.41 3.824,22.75 3.414,22.75 C3.004,22.75 2.664,22.41 2.664,22 C2.664,17.73 6.854,14.25 12.004,14.25 C17.154,14.25 21.344,17.73 21.344,22 C21.344,22.41 21.004,22.75 20.594,22.75 Z"/>
</svg>