<svg xmlns="http://www.w3.org/2000/svg" width="24" height="24" viewBox="0 0 24 24">
  <defs/>
  <path fill="#292D32" d="M12,12.75 C8.83,12.75 6.25,10.17 6.25,7 C6.25,3.83 8.83,1.25 12,1.25 C15.17,1.25 17.75,3.83 17.75,7 C17.75,10.17 15.17,12.75 12,12.75 Z M12,2.75 C9.66,2.75 7.75,4.66 7.75,7 C7.75,9.34 9.66,11.25 12,11.25 C14.34,11.25 16.25,9.34 16.25,7 C16.25,4.66 14.34,2.75 12,2.75 Z"/>
  <path fill="#292D32" d="M3.414,22.75 C3.004,22.75 2.664,22.41 2.664,22 C2.664,17.73 6.854,14.25 12.004,14.25 C13.014,14.25 14.004,14.38 14.964,14.65 C15.364,14.76 15.594,15.17 15.484,15.57 C15.374,15.97 14.964,16.2 14.564,16.09 C13.744,15.86 12.884,15.75 12.004,15.75 C7.684,15.75 4.164,18.55 4.164,22 C4.164,22.41 3.824,22.75 3.414,22.75 Z"/>
  <path fill="#292D32" d="M18,22.75 C16.34,22.75 14.78,21.87 13.94,20.44 C13.49,19.72 13.25,18.87 13.25,18 C13.25,16.54 13.9,15.19 15.03,14.29 C15.87,13.62 16.93,13.25 18,13.25 C20.62,13.25 22.75,15.38 22.75,18 C22.75,18.87 22.51,19.72 22.06,20.45 C21.81,20.87 21.49,21.25 21.11,21.57 C20.28,22.33 19.17,22.75 18,22.75 Z M18,14.75 C17.26,14.75 16.56,15 15.97,15.47 C15.2,16.08 14.75,17.01 14.75,18 C14.75,18.59 14.91,19.17 15.22,19.67 C15.8,20.65 16.87,21.25 18,21.25 C18.79,21.25 19.55,20.96 20.13,20.44 C20.39,20.22 20.61,19.96 20.77,19.68 C21.09,19.17 21.25,18.59 21.25,18 C21.25,16.21 19.79,14.75 18,14.75 Z"/>
  <path fill="#292D32" d="M17.433,19.74 C17.243,19.74 17.053,19.67 16.903,19.52 L15.913,18.53 C15.623,18.24 15.623,17.76 15.913,17.47 C16.203,17.18 16.683,17.18 16.973,17.47 L17.453,17.95 L19.053,16.47 C19.353,16.19 19.833,16.21 20.113,16.51 C20.393,16.81 20.373,17.29 20.073,17.57 L17.943,19.54 C17.793,19.67 17.613,19.74 17.433,19.74 Z"/>
</svg>