<svg xmlns="http://www.w3.org/2000/svg" width="24" height="24" viewBox="0 0 24 24">
  <defs/>
  <path fill="#292D32" d="M12,12.75 C8.83,12.75 6.25,10.17 6.25,7 C6.25,3.83 8.83,1.25 12,1.25 C15.17,1.25 17.75,3.83 17.75,7 C17.75,10.17 15.17,12.75 12,12.75 Z M12,2.75 C9.66,2.75 7.75,4.66 7.75,7 C7.75,9.34 9.66,11.25 12,11.25 C14.34,11.25 16.25,9.34 16.25,7 C16.25,4.66 14.34,2.75 12,2.75 Z"/>
  <path fill="#292D32" d="M3.414,22.75 C3.004,22.75 2.664,22.41 2.664,22 C2.664,17.73 6.854,14.25 12.004,14.25 C12.414,14.25 12.754,14.59 12.754,15 C12.754,15.41 12.414,15.75 12.004,15.75 C7.684,15.75 4.164,18.55 4.164,22 C4.164,22.41 3.824,22.75 3.414,22.75 Z"/>
  <path fill="#292D32" d="M18.2,22.15 C16.02,22.15 14.25,20.38 14.25,18.2 C14.25,16.02 16.02,14.25 18.2,14.25 C20.38,14.25 22.15,16.02 22.15,18.2 C22.15,20.38 20.38,22.15 18.2,22.15 Z M18.2,15.75 C16.85,15.75 15.75,16.85 15.75,18.2 C15.75,19.55 16.85,20.65 18.2,20.65 C19.55,20.65 20.65,19.55 20.65,18.2 C20.65,16.85 19.55,15.75 18.2,15.75 Z"/>
  <path fill="#292D32" d="M21.997,22.75 C21.808,22.75 21.617,22.68 21.468,22.53 L20.468,21.53 C20.177,21.24 20.177,20.76 20.468,20.47 C20.758,20.18 21.238,20.18 21.528,20.47 L22.528,21.47 C22.818,21.76 22.818,22.24 22.528,22.53 C22.378,22.68 22.188,22.75 21.997,22.75 Z"/>
</svg>