<svg xmlns="http://www.w3.org/2000/svg" width="24" height="24" viewBox="0 0 24 24">
  <defs/>
  <path fill="#292D32" d="M12.004,22.75 C11.334,22.75 10.654,22.58 10.054,22.23 L4.114,18.8 C2.914,18.1 2.164,16.81 2.164,15.42 L2.164,8.58 C2.164,7.19 2.914,5.9 4.114,5.2 L10.054,1.77 C11.254,1.07 12.744,1.07 13.954,1.77 L19.894,5.2 C21.094,5.9 21.844,7.19 21.844,8.58 L21.844,15.42 C21.844,16.81 21.094,18.1 19.894,18.8 L13.954,22.23 C13.354,22.58 12.674,22.75 12.004,22.75 Z M12.004,2.75 C11.594,2.75 11.174,2.86 10.804,3.07 L4.864,6.5 C4.124,6.93 3.664,7.72 3.664,8.58 L3.664,15.42 C3.664,16.27 4.124,17.07 4.864,17.5 L10.804,20.93 C11.544,21.36 12.464,21.36 13.204,20.93 L19.144,17.5 C19.884,17.07 20.344,16.28 20.344,15.42 L20.344,8.58 C20.344,7.73 19.884,6.93 19.144,6.5 L13.204,3.07 C12.834,2.86 12.414,2.75 12.004,2.75 Z"/>
  <path fill="#292D32" d="M12.002,11.75 C10.302,11.75 8.922,10.37 8.922,8.67 C8.922,6.97 10.302,5.59 12.002,5.59 C13.702,5.59 15.082,6.97 15.082,8.67 C15.082,10.37 13.702,11.75 12.002,11.75 Z M12.002,7.09 C11.132,7.09 10.422,7.8 10.422,8.67 C10.422,9.54 11.132,10.25 12.002,10.25 C12.872,10.25 13.582,9.54 13.582,8.67 C13.582,7.8 12.872,7.09 12.002,7.09 Z"/>
  <path fill="#292D32" d="M16,17.41 C15.59,17.41 15.25,17.07 15.25,16.66 C15.25,15.28 13.79,14.15 12,14.15 C10.21,14.15 8.75,15.28 8.75,16.66 C8.75,17.07 8.41,17.41 8,17.41 C7.59,17.41 7.25,17.07 7.25,16.66 C7.25,14.45 9.38,12.65 12,12.65 C14.62,12.65 16.75,14.45 16.75,16.66 C16.75,17.07 16.41,17.41 16,17.41 Z"/>
</svg>