<svg xmlns="http://www.w3.org/2000/svg" width="24" height="24" viewBox="0 0 24 24">
  <defs/>
  <path fill="#292D32" d="M10.793,15.17 C10.592,15.17 10.402,15.09 10.262,14.95 L7.843,12.53 C7.553,12.24 7.553,11.76 7.843,11.47 C8.133,11.18 8.613,11.18 8.902,11.47 L10.793,13.36 L15.092,9.06 C15.383,8.77 15.863,8.77 16.152,9.06 C16.442,9.35 16.442,9.83 16.152,10.12 L11.322,14.95 C11.182,15.09 10.992,15.17 10.793,15.17 Z"/>
  <path fill="#292D32" d="M12.003,22.75 C11.373,22.75 10.743,22.54 10.253,22.12 L8.673,20.76 C8.513,20.62 8.113,20.48 7.903,20.48 L6.183,20.48 C4.703,20.48 3.503,19.28 3.503,17.8 L3.503,16.09 C3.503,15.88 3.363,15.49 3.223,15.33 L1.873,13.74 C1.053,12.77 1.053,11.24 1.873,10.27 L3.223,8.68 C3.363,8.52 3.503,8.13 3.503,7.92 L3.503,6.2 C3.503,4.72 4.703,3.52 6.183,3.52 L7.913,3.52 C8.123,3.52 8.523,3.37 8.683,3.24 L10.263,1.88 C11.243,1.04 12.773,1.04 13.753,1.88 L15.333,3.24 C15.493,3.38 15.893,3.52 16.103,3.52 L17.803,3.52 C19.283,3.52 20.483,4.72 20.483,6.2 L20.483,7.9 C20.483,8.11 20.633,8.51 20.773,8.67 L22.133,10.25 C22.973,11.23 22.973,12.76 22.133,13.74 L20.773,15.32 C20.633,15.48 20.483,15.88 20.483,16.09 L20.483,17.79 C20.483,19.27 19.283,20.47 17.803,20.47 L16.103,20.47 C15.893,20.47 15.493,20.62 15.333,20.75 L13.753,22.11 C13.263,22.54 12.633,22.75 12.003,22.75 Z M6.183,5.02 C5.533,5.02 5.003,5.55 5.003,6.2 L5.003,7.91 C5.003,8.48 4.733,9.21 4.363,9.64 L3.013,11.23 C2.663,11.64 2.663,12.35 3.013,12.76 L4.363,14.35 C4.733,14.79 5.003,15.51 5.003,16.08 L5.003,17.79 C5.003,18.44 5.533,18.97 6.183,18.97 L7.913,18.97 C8.493,18.97 9.223,19.24 9.663,19.62 L11.243,20.98 C11.653,21.33 12.373,21.33 12.783,20.98 L14.363,19.62 C14.803,19.25 15.533,18.97 16.113,18.97 L17.813,18.97 C18.463,18.97 18.993,18.44 18.993,17.79 L18.993,16.09 C18.993,15.51 19.263,14.78 19.643,14.34 L21.003,12.76 C21.353,12.35 21.353,11.63 21.003,11.22 L19.643,9.64 C19.263,9.2 18.993,8.47 18.993,7.89 L18.993,6.2 C18.993,5.55 18.463,5.02 17.813,5.02 L16.113,5.02 C15.533,5.02 14.803,4.75 14.363,4.37 L12.783,3.01 C12.373,2.66 11.653,2.66 11.243,3.01 L9.663,4.38 C9.223,4.75 8.483,5.02 7.913,5.02 L6.183,5.02 Z"/>
</svg>