<svg xmlns="http://www.w3.org/2000/svg" width="24" height="24" viewBox="0 0 24 24">
  <defs/>
  <path fill="#292D32" d="M15,22.75 L9,22.75 C3.57,22.75 1.25,20.43 1.25,15 L1.25,9 C1.25,3.57 3.57,1.25 9,1.25 L15,1.25 C20.43,1.25 22.75,3.57 22.75,9 L22.75,15 C22.75,20.43 20.43,22.75 15,22.75 Z M9,2.75 C4.39,2.75 2.75,4.39 2.75,9 L2.75,15 C2.75,19.61 4.39,21.25 9,21.25 L15,21.25 C19.61,21.25 21.25,19.61 21.25,15 L21.25,9 C21.25,4.39 19.61,2.75 15,2.75 L9,2.75 Z"/>
  <path fill="#292D32" d="M10.764,16.37 C10.344,16.37 9.954,16.27 9.604,16.07 C8.804,15.61 8.344,14.67 8.344,13.48 L8.344,10.52 C8.344,9.34 8.804,8.39 9.604,7.93 C10.404,7.47 11.444,7.54 12.474,8.14 L15.044,9.62 C16.064,10.21 16.654,11.08 16.654,12 C16.654,12.92 16.064,13.79 15.044,14.38 L12.474,15.86 C11.894,16.2 11.304,16.37 10.764,16.37 Z M10.774,9.13 C10.614,9.13 10.474,9.16 10.364,9.23 C10.044,9.42 9.854,9.89 9.854,10.52 L9.854,13.48 C9.854,14.11 10.034,14.58 10.364,14.77 C10.684,14.96 11.184,14.88 11.734,14.56 L14.304,13.08 C14.854,12.76 15.164,12.37 15.164,12 C15.164,11.63 14.854,11.23 14.304,10.92 L11.734,9.44 C11.374,9.23 11.044,9.13 10.774,9.13 Z"/>
</svg>