<svg xmlns="http://www.w3.org/2000/svg" width="24" height="24" viewBox="0 0 24 24">
  <defs/>
  <path fill="#292D32" d="M15,22.75 L9,22.75 C3.57,22.75 1.25,20.43 1.25,15 L1.25,9 C1.25,3.57 3.57,1.25 9,1.25 L15,1.25 C20.43,1.25 22.75,3.57 22.75,9 L22.75,15 C22.75,20.43 20.43,22.75 15,22.75 Z M9,2.75 C4.39,2.75 2.75,4.39 2.75,9 L2.75,15 C2.75,19.61 4.39,21.25 9,21.25 L15,21.25 C19.61,21.25 21.25,19.61 21.25,15 L21.25,9 C21.25,4.39 19.61,2.75 15,2.75 L9,2.75 Z"/>
  <path fill="#292D32" d="M6.891,22.23 C6.481,22.23 6.141,21.89 6.141,21.48 L6.141,2.52 C6.141,2.11 6.481,1.77 6.891,1.77 C7.301,1.77 7.641,2.1 7.641,2.52 L7.641,21.48 C7.641,21.9 7.301,22.23 6.891,22.23 Z"/>
  <path fill="#292D32" d="M16.891,22.23 C16.481,22.23 16.141,21.89 16.141,21.48 L16.141,2.52 C16.141,2.11 16.481,1.77 16.891,1.77 C17.301,1.77 17.641,2.11 17.641,2.52 L17.641,21.48 C17.641,21.9 17.301,22.23 16.891,22.23 Z"/>
  <path fill="#292D32" d="M6.889,7.72 L2.539,7.72 C2.129,7.72 1.789,7.38 1.789,6.97 C1.789,6.56 2.129,6.22 2.539,6.22 L6.889,6.22 C7.299,6.22 7.639,6.56 7.639,6.97 C7.639,7.38 7.299,7.72 6.889,7.72 Z"/>
  <path fill="#292D32" d="M6.891,12.75 L2.031,12.75 C1.621,12.75 1.281,12.41 1.281,12 C1.281,11.59 1.621,11.25 2.031,11.25 L6.891,11.25 C7.301,11.25 7.641,11.59 7.641,12 C7.641,12.41 7.301,12.75 6.891,12.75 Z"/>
  <path fill="#292D32" d="M6.887,17.72 L2.477,17.72 C2.067,17.72 1.727,17.38 1.727,16.97 C1.727,16.56 2.067,16.22 2.477,16.22 L6.887,16.22 C7.297,16.22 7.637,16.56 7.637,16.97 C7.637,17.38 7.297,17.72 6.887,17.72 Z"/>
  <path fill="#292D32" d="M21.889,7.72 L17.539,7.72 C17.129,7.72 16.789,7.38 16.789,6.97 C16.789,6.56 17.129,6.22 17.539,6.22 L21.889,6.22 C22.299,6.22 22.639,6.56 22.639,6.97 C22.639,7.38 22.299,7.72 21.889,7.72 Z"/>
  <path fill="#292D32" d="M21.891,12.75 L17.031,12.75 C16.621,12.75 16.281,12.41 16.281,12 C16.281,11.59 16.621,11.25 17.031,11.25 L21.891,11.25 C22.301,11.25 22.641,11.59 22.641,12 C22.641,12.41 22.301,12.75 21.891,12.75 Z"/>
  <path fill="#292D32" d="M16.969,12.75 L5.969,12.75 C5.559,12.75 5.219,12.41 5.219,12 C5.219,11.59 5.559,11.25 5.969,11.25 L16.969,11.25 C17.379,11.25 17.719,11.59 17.719,12 C17.719,12.41 17.389,12.75 16.969,12.75 Z"/>
  <path fill="#292D32" d="M21.887,17.72 L17.477,17.72 C17.067,17.72 16.727,17.38 16.727,16.97 C16.727,16.56 17.067,16.22 17.477,16.22 L21.887,16.22 C22.297,16.22 22.637,16.56 22.637,16.97 C22.637,17.38 22.297,17.72 21.887,17.72 Z"/>
</svg>