<svg xmlns="http://www.w3.org/2000/svg" width="24" height="24" viewBox="0 0 24 24">
  <defs/>
  <path fill="#292D32" d="M15,22.75 L9,22.75 C3.57,22.75 1.25,20.43 1.25,15 L1.25,9 C1.25,3.57 3.57,1.25 9,1.25 L15,1.25 C20.43,1.25 22.75,3.57 22.75,9 L22.75,15 C22.75,15.24 22.75,15.49 22.73,15.72 C22.7,16.02 22.49,16.28 22.2,16.37 C21.91,16.46 21.59,16.36 21.4,16.12 C20.69,15.25 19.64,14.75 18.5,14.75 C17.65,14.75 16.82,15.04 16.16,15.57 C15.26,16.28 14.75,17.34 14.75,18.5 C14.75,19.63 15.25,20.69 16.12,21.4 C16.36,21.59 16.45,21.91 16.37,22.2 C16.28,22.49 16.03,22.7 15.72,22.73 C15.49,22.75 15.24,22.75 15,22.75 Z M9,2.75 C4.39,2.75 2.75,4.39 2.75,9 L2.75,15 C2.75,19.61 4.39,21.25 9,21.25 L14.02,21.25 C13.52,20.44 13.25,19.49 13.25,18.5 C13.25,16.88 13.97,15.39 15.23,14.4 C16.91,13.04 19.46,12.92 21.25,14.02 L21.25,9 C21.25,4.39 19.61,2.75 15,2.75 L9,2.75 Z"/>
  <path fill="#292D32" d="M21.483,7.86 L2.523,7.86 C2.113,7.86 1.773,7.52 1.773,7.11 C1.773,6.7 2.113,6.36 2.523,6.36 L21.483,6.36 C21.893,6.36 22.233,6.7 22.233,7.11 C22.233,7.52 21.904,7.86 21.483,7.86 Z"/>
  <path fill="#292D32" d="M8.523,7.72 C8.113,7.72 7.773,7.38 7.773,6.97 L7.773,2.11 C7.773,1.7 8.113,1.36 8.523,1.36 C8.933,1.36 9.273,1.7 9.273,2.11 L9.273,6.97 C9.273,7.38 8.933,7.72 8.523,7.72 Z"/>
  <path fill="#292D32" d="M15.477,7.27 C15.067,7.27 14.727,6.93 14.727,6.52 L14.727,2.11 C14.727,1.7 15.067,1.36 15.477,1.36 C15.887,1.36 16.227,1.7 16.227,2.11 L16.227,6.52 C16.227,6.94 15.897,7.27 15.477,7.27 Z"/>
  <path fill="#292D32" d="M18.5,23.75 C17.28,23.75 16.1,23.33 15.17,22.56 C13.95,21.57 13.25,20.09 13.25,18.5 C13.25,16.88 13.97,15.39 15.23,14.4 C16.15,13.66 17.31,13.25 18.5,13.25 C20.09,13.25 21.57,13.95 22.56,15.18 C23.32,16.1 23.75,17.28 23.75,18.5 C23.75,19.99 23.1,21.43 21.97,22.44 C20.99,23.29 19.76,23.75 18.5,23.75 Z M18.5,14.75 C17.65,14.75 16.82,15.04 16.16,15.57 C15.26,16.28 14.75,17.34 14.75,18.5 C14.75,19.63 15.25,20.69 16.12,21.4 C17.48,22.53 19.59,22.52 20.98,21.31 C21.78,20.59 22.25,19.56 22.25,18.5 C22.25,17.63 21.95,16.79 21.4,16.13 C20.69,15.25 19.63,14.75 18.5,14.75 Z"/>
  <path fill="#292D32" d="M17.379,20.38 C17.129,20.38 16.879,20.25 16.739,20.02 C16.529,19.66 16.639,19.2 16.999,18.99 L18.039,18.37 L18.039,17.11 C18.039,16.7 18.379,16.36 18.789,16.36 C19.199,16.36 19.539,16.7 19.539,17.11 L19.539,18.8 C19.539,19.06 19.399,19.31 19.179,19.44 L17.769,20.28 C17.639,20.34 17.509,20.38 17.379,20.38 Z"/>
</svg>