<svg xmlns="http://www.w3.org/2000/svg" width="24" height="24" viewBox="0 0 24 24">
  <defs/>
  <path fill="#292D32" d="M11.996,22.75 C11.326,22.75 10.646,22.58 10.046,22.23 L4.106,18.8 C2.906,18.1 2.156,16.81 2.156,15.42 L2.156,8.58 C2.156,7.19 2.906,5.9 4.106,5.2 L10.046,1.77 C11.246,1.07 12.736,1.07 13.946,1.77 L19.886,5.2 C21.086,5.9 21.836,7.19 21.836,8.58 L21.836,15.42 C21.836,16.81 21.086,18.1 19.886,18.8 L13.946,22.23 C13.346,22.58 12.666,22.75 11.996,22.75 Z M11.996,2.75 C11.586,2.75 11.166,2.86 10.796,3.07 L4.856,6.5 C4.116,6.93 3.656,7.72 3.656,8.58 L3.656,15.42 C3.656,16.27 4.116,17.07 4.856,17.5 L10.796,20.93 C11.536,21.36 12.456,21.36 13.196,20.93 L19.136,17.5 C19.876,17.07 20.336,16.28 20.336,15.42 L20.336,8.58 C20.336,7.73 19.876,6.93 19.136,6.5 L13.196,3.07 C12.826,2.86 12.406,2.75 11.996,2.75 Z"/>
  <path fill="#292D32" d="M11.092,15.67 C10.732,15.67 10.392,15.58 10.082,15.41 C9.392,15.01 8.992,14.2 8.992,13.19 L8.992,10.79 C8.992,9.78 9.392,8.97 10.082,8.57 C10.772,8.17 11.672,8.23 12.542,8.74 L14.622,9.94 C15.492,10.44 16.002,11.19 16.002,11.99 C16.002,12.79 15.502,13.53 14.622,14.04 L12.542,15.24 C12.062,15.53 11.562,15.67 11.092,15.67 Z M11.102,9.82 C11.002,9.82 10.912,9.84 10.842,9.88 C10.632,10 10.502,10.34 10.502,10.8 L10.502,13.2 C10.502,13.65 10.632,13.99 10.842,14.12 C11.052,14.24 11.412,14.18 11.802,13.95 L13.882,12.75 C14.272,12.52 14.502,12.24 14.502,12 C14.502,11.76 14.272,11.48 13.882,11.25 L11.802,10.05 C11.542,9.9 11.292,9.82 11.102,9.82 Z"/>
</svg>