<svg xmlns="http://www.w3.org/2000/svg" width="24" height="24" viewBox="0 0 24 24">
  <defs/>
  <path fill="#292D32" d="M15,22.75 L9,22.75 C3.57,22.75 1.25,20.43 1.25,15 L1.25,9 C1.25,3.57 3.57,1.25 9,1.25 L15,1.25 C20.43,1.25 22.75,3.57 22.75,9 L22.75,15 C22.75,20.43 20.43,22.75 15,22.75 Z M9,2.75 C4.39,2.75 2.75,4.39 2.75,9 L2.75,15 C2.75,19.61 4.39,21.25 9,21.25 L15,21.25 C19.61,21.25 21.25,19.61 21.25,15 L21.25,9 C21.25,4.39 19.61,2.75 15,2.75 L9,2.75 Z"/>
  <path fill="#292D32" d="M21.483,17.86 L2.523,17.86 C2.113,17.86 1.773,17.52 1.773,17.11 C1.773,16.7 2.113,16.36 2.523,16.36 L21.483,16.36 C21.893,16.36 22.233,16.7 22.233,17.11 C22.233,17.52 21.903,17.86 21.483,17.86 Z"/>
  <path fill="#292D32" d="M21.483,7.86 L2.523,7.86 C2.113,7.86 1.773,7.52 1.773,7.11 C1.773,6.7 2.103,6.36 2.523,6.36 L21.483,6.36 C21.893,6.36 22.233,6.7 22.233,7.11 C22.233,7.52 21.903,7.86 21.483,7.86 Z"/>
  <path fill="#292D32" d="M6.969,22.21 C6.559,22.21 6.219,21.87 6.219,21.46 L6.219,17.11 C6.219,16.7 6.559,16.36 6.969,16.36 C7.379,16.36 7.719,16.7 7.719,17.11 L7.719,21.46 C7.719,21.88 7.379,22.21 6.969,22.21 Z"/>
  <path fill="#292D32" d="M12,22.72 C11.59,22.72 11.25,22.38 11.25,21.97 L11.25,17.11 C11.25,16.7 11.59,16.36 12,16.36 C12.41,16.36 12.75,16.7 12.75,17.11 L12.75,21.97 C12.75,22.38 12.41,22.72 12,22.72 Z"/>
  <path fill="#292D32" d="M16.969,22.27 C16.559,22.27 16.219,21.93 16.219,21.52 L16.219,17.11 C16.219,16.7 16.559,16.36 16.969,16.36 C17.379,16.36 17.719,16.7 17.719,17.11 L17.719,21.52 C17.719,21.94 17.379,22.27 16.969,22.27 Z"/>
  <path fill="#292D32" d="M6.969,7.21 C6.559,7.21 6.219,6.87 6.219,6.46 L6.219,2.11 C6.219,1.7 6.559,1.36 6.969,1.36 C7.379,1.36 7.719,1.7 7.719,2.11 L7.719,6.46 C7.719,6.88 7.379,7.21 6.969,7.21 Z"/>
  <path fill="#292D32" d="M12,7.72 C11.59,7.72 11.25,7.38 11.25,6.97 L11.25,2.11 C11.25,1.7 11.59,1.36 12,1.36 C12.41,1.36 12.75,1.7 12.75,2.11 L12.75,6.97 C12.75,7.38 12.41,7.72 12,7.72 Z"/>
  <path fill="#292D32" d="M12,18.78 C11.59,18.78 11.25,18.44 11.25,18.03 L11.25,7.03 C11.25,6.62 11.59,6.28 12,6.28 C12.41,6.28 12.75,6.62 12.75,7.03 L12.75,18.03 C12.75,18.44 12.41,18.78 12,18.78 Z"/>
  <path fill="#292D32" d="M16.969,7.27 C16.559,7.27 16.219,6.93 16.219,6.52 L16.219,2.11 C16.219,1.7 16.559,1.36 16.969,1.36 C17.379,1.36 17.719,1.7 17.719,2.11 L17.719,6.52 C17.719,6.94 17.379,7.27 16.969,7.27 Z"/>
</svg>