<svg xmlns="http://www.w3.org/2000/svg" width="24" height="24" viewBox="0 0 24 24">
  <defs/>
  <path fill="#292D32" d="M15,22.75 L9,22.75 C3.57,22.75 1.25,20.43 1.25,15 L1.25,9 C1.25,3.57 3.57,1.25 9,1.25 L15,1.25 C20.43,1.25 22.75,3.57 22.75,9 L22.75,15 C22.75,20.43 20.43,22.75 15,22.75 Z M9,2.75 C4.39,2.75 2.75,4.39 2.75,9 L2.75,15 C2.75,19.61 4.39,21.25 9,21.25 L15,21.25 C19.61,21.25 21.25,19.61 21.25,15 L21.25,9 C21.25,4.39 19.61,2.75 15,2.75 L9,2.75 Z"/>
  <path fill="#292D32" d="M21.483,7.86 L2.523,7.86 C2.113,7.86 1.773,7.52 1.773,7.11 C1.773,6.7 2.103,6.36 2.523,6.36 L21.483,6.36 C21.893,6.36 22.233,6.7 22.233,7.11 C22.233,7.52 21.903,7.86 21.483,7.86 Z"/>
  <path fill="#292D32" d="M8.523,7.72 C8.113,7.72 7.773,7.38 7.773,6.97 L7.773,2.11 C7.773,1.7 8.113,1.36 8.523,1.36 C8.933,1.36 9.273,1.7 9.273,2.11 L9.273,6.97 C9.273,7.38 8.933,7.72 8.523,7.72 Z"/>
  <path fill="#292D32" d="M15.477,7.27 C15.067,7.27 14.727,6.93 14.727,6.52 L14.727,2.11 C14.727,1.7 15.067,1.36 15.477,1.36 C15.887,1.36 16.227,1.7 16.227,2.11 L16.227,6.52 C16.227,6.94 15.897,7.27 15.477,7.27 Z"/>
  <path fill="#292D32" d="M11.09,18.12 C10.73,18.12 10.39,18.03 10.08,17.86 C9.4,17.46 9,16.66 9,15.65 L9,13.25 C9,12.24 9.4,11.43 10.09,11.03 C10.78,10.63 11.68,10.69 12.55,11.2 L14.63,12.4 C15.5,12.9 16.01,13.65 16.01,14.45 C16.01,15.25 15.5,16 14.62,16.5 L12.54,17.7 C12.06,17.98 11.56,18.12 11.09,18.12 Z M11.1,12.27 C11,12.27 10.91,12.29 10.84,12.33 C10.63,12.45 10.5,12.79 10.5,13.25 L10.5,15.65 C10.5,16.1 10.63,16.44 10.84,16.57 C11.05,16.69 11.41,16.63 11.8,16.4 L13.88,15.2 C14.27,14.97 14.51,14.69 14.51,14.45 C14.51,14.21 14.28,13.93 13.88,13.7 L11.8,12.5 C11.54,12.35 11.29,12.27 11.1,12.27 Z"/>
</svg>