<svg xmlns="http://www.w3.org/2000/svg" width="24" height="24" viewBox="0 0 24 24">
  <defs/>
  <path fill="#292D32" d="M15,22.75 L9,22.75 C3.57,22.75 1.25,20.43 1.25,15 L1.25,9 C1.25,3.57 3.57,1.25 9,1.25 L15,1.25 C20.43,1.25 22.75,3.57 22.75,9 L22.75,15 C22.75,15.25 22.75,15.5 22.73,15.74 C22.7,16.06 22.48,16.32 22.17,16.4 C21.86,16.48 21.54,16.36 21.36,16.09 C21.33,16.06 21.27,15.99 21.23,15.94 C20.51,15.17 19.53,14.75 18.5,14.75 C17.48,14.75 16.52,15.15 15.81,15.88 C15.13,16.58 14.75,17.51 14.75,18.5 C14.75,19.17 14.94,19.84 15.29,20.43 C15.47,20.73 15.69,21.01 15.94,21.23 C15.98,21.26 16.01,21.29 16.03,21.31 L16.11,21.38 C16.34,21.57 16.45,21.9 16.36,22.19 C16.27,22.48 16.03,22.7 15.73,22.73 C15.51,22.75 15.25,22.75 15,22.75 Z M9,2.75 C4.39,2.75 2.75,4.39 2.75,9 L2.75,15 C2.75,19.61 4.39,21.25 9,21.25 L14.03,21.25 C14.02,21.23 14.01,21.22 14,21.2 C13.51,20.38 13.24,19.44 13.24,18.5 C13.24,17.12 13.77,15.82 14.72,14.84 C15.7,13.83 17.08,13.25 18.49,13.25 C19.47,13.25 20.43,13.52 21.24,14.03 L21.24,9 C21.24,4.39 19.6,2.75 14.99,2.75 L9,2.75 Z"/>
  <path fill="#292D32" d="M21.483,7.86 L2.523,7.86 C2.113,7.86 1.773,7.52 1.773,7.11 C1.773,6.7 2.113,6.36 2.523,6.36 L21.483,6.36 C21.893,6.36 22.233,6.7 22.233,7.11 C22.233,7.52 21.903,7.86 21.483,7.86 Z"/>
  <path fill="#292D32" d="M8.523,7.72 C8.113,7.72 7.773,7.38 7.773,6.97 L7.773,2.11 C7.773,1.7 8.113,1.36 8.523,1.36 C8.933,1.36 9.273,1.7 9.273,2.11 L9.273,6.97 C9.273,7.38 8.933,7.72 8.523,7.72 Z"/>
  <path fill="#292D32" d="M15.477,7.27 C15.067,7.27 14.727,6.93 14.727,6.52 L14.727,2.11 C14.727,1.7 15.067,1.36 15.477,1.36 C15.887,1.36 16.227,1.7 16.227,2.11 L16.227,6.52 C16.227,6.94 15.897,7.27 15.477,7.27 Z"/>
  <path fill="#292D32" d="M18.498,23.75 C17.318,23.75 16.168,23.35 15.268,22.61 C15.238,22.59 15.208,22.57 15.188,22.55 C15.118,22.49 15.068,22.45 15.028,22.41 C15.008,22.4 14.998,22.39 14.988,22.37 C14.618,22.04 14.278,21.64 14.018,21.2 C13.528,20.38 13.258,19.44 13.258,18.5 C13.258,17.12 13.788,15.82 14.738,14.84 C15.718,13.83 17.098,13.25 18.508,13.25 C19.988,13.25 21.398,13.87 22.378,14.96 C22.388,14.97 22.408,14.99 22.418,15.01 C22.488,15.08 22.558,15.17 22.608,15.25 C23.328,16.12 23.758,17.29 23.758,18.5 C23.758,18.94 23.708,19.35 23.608,19.74 C23.488,20.24 23.288,20.73 23.008,21.2 C22.048,22.78 20.328,23.75 18.498,23.75 Z M16.088,21.35 C16.118,21.37 16.138,21.38 16.158,21.4 C16.818,21.95 17.618,22.24 18.498,22.24 C19.808,22.24 21.028,21.54 21.708,20.42 C21.908,20.09 22.048,19.73 22.138,19.36 C22.208,19.08 22.248,18.8 22.248,18.49 C22.248,17.63 21.948,16.8 21.398,16.14 L21.308,16.02 C21.278,15.99 21.248,15.96 21.228,15.92 C20.508,15.16 19.528,14.74 18.498,14.74 C17.478,14.74 16.518,15.14 15.808,15.87 C15.128,16.57 14.748,17.5 14.748,18.49 C14.748,19.16 14.938,19.83 15.288,20.42 C15.468,20.72 15.688,21 15.938,21.22 C15.978,21.25 16.008,21.28 16.028,21.3 L16.088,21.35 Z"/>
  <path fill="#292D32" d="M20.18,19.23 L16.82,19.23 C16.41,19.23 16.07,18.89 16.07,18.48 C16.07,18.07 16.41,17.73 16.82,17.73 L20.18,17.73 C20.59,17.73 20.93,18.07 20.93,18.48 C20.93,18.89 20.6,19.23 20.18,19.23 Z"/>
  <path fill="#292D32" d="M18.5,20.95 C18.09,20.95 17.75,20.61 17.75,20.2 L17.75,16.84 C17.75,16.43 18.09,16.09 18.5,16.09 C18.91,16.09 19.25,16.43 19.25,16.84 L19.25,20.2 C19.25,20.62 18.91,20.95 18.5,20.95 Z"/>
</svg>