<svg xmlns="http://www.w3.org/2000/svg" width="24" height="24" viewBox="0 0 24 24">
  <defs/>
  <path fill="#292D32" d="M15,22.75 L9,22.75 C3.57,22.75 1.25,20.43 1.25,15 L1.25,9 C1.25,3.57 3.57,1.25 9,1.25 L15,1.25 C20.43,1.25 22.75,3.57 22.75,9 L22.75,15 C22.75,15.25 22.75,15.5 22.73,15.74 C22.7,16.06 22.48,16.32 22.17,16.4 C21.86,16.48 21.54,16.36 21.36,16.09 C21.35,16.08 21.29,16.01 21.28,15.99 C20.59,15.2 19.58,14.75 18.51,14.75 C17.49,14.75 16.53,15.15 15.82,15.88 C15.14,16.58 14.76,17.51 14.76,18.5 C14.76,19.17 14.95,19.84 15.3,20.43 C15.49,20.75 15.73,21.03 16,21.27 L16.12,21.38 C16.35,21.57 16.46,21.9 16.37,22.19 C16.28,22.48 16.04,22.7 15.74,22.73 C15.51,22.75 15.25,22.75 15,22.75 Z M9,2.75 C4.39,2.75 2.75,4.39 2.75,9 L2.75,15 C2.75,19.61 4.39,21.25 9,21.25 L14.03,21.25 C14.02,21.24 14.01,21.22 14,21.21 C13.5,20.38 13.24,19.45 13.24,18.5 C13.24,17.12 13.77,15.82 14.72,14.84 C15.7,13.83 17.08,13.25 18.49,13.25 C19.48,13.25 20.43,13.52 21.24,14.03 L21.24,9 C21.24,4.39 19.6,2.75 14.99,2.75 L9,2.75 Z"/>
  <path fill="#292D32" d="M21.483,7.86 L2.523,7.86 C2.113,7.86 1.773,7.52 1.773,7.11 C1.773,6.7 2.113,6.36 2.523,6.36 L21.483,6.36 C21.893,6.36 22.233,6.7 22.233,7.11 C22.233,7.52 21.903,7.86 21.483,7.86 Z"/>
  <path fill="#292D32" d="M8.523,7.72 C8.113,7.72 7.773,7.38 7.773,6.97 L7.773,2.11 C7.773,1.7 8.113,1.36 8.523,1.36 C8.933,1.36 9.273,1.7 9.273,2.11 L9.273,6.97 C9.273,7.38 8.933,7.72 8.523,7.72 Z"/>
  <path fill="#292D32" d="M15.477,7.27 C15.067,7.27 14.727,6.93 14.727,6.52 L14.727,2.11 C14.727,1.7 15.067,1.36 15.477,1.36 C15.887,1.36 16.227,1.7 16.227,2.11 L16.227,6.52 C16.227,6.94 15.897,7.27 15.477,7.27 Z"/>
  <path fill="#292D32" d="M18.498,23.75 C17.318,23.75 16.168,23.35 15.268,22.61 C15.238,22.59 15.208,22.57 15.188,22.55 C15.098,22.47 15.038,22.43 14.988,22.37 C14.638,22.07 14.298,21.67 14.018,21.21 C13.518,20.38 13.258,19.45 13.258,18.5 C13.258,17.12 13.788,15.82 14.738,14.84 C15.718,13.83 17.098,13.25 18.508,13.25 C20.018,13.25 21.438,13.89 22.418,15.01 C22.468,15.05 22.548,15.15 22.618,15.25 C23.338,16.12 23.768,17.29 23.768,18.5 C23.768,18.94 23.718,19.35 23.618,19.74 C23.498,20.24 23.298,20.73 23.018,21.2 C22.048,22.78 20.328,23.75 18.498,23.75 Z M16.088,21.35 C16.108,21.37 16.138,21.38 16.158,21.4 C16.818,21.95 17.618,22.24 18.498,22.24 C19.808,22.24 21.028,21.54 21.708,20.42 C21.908,20.09 22.048,19.73 22.138,19.36 C22.208,19.08 22.248,18.8 22.248,18.49 C22.248,17.63 21.948,16.8 21.398,16.14 C21.388,16.13 21.278,16 21.268,15.98 C20.578,15.19 19.568,14.74 18.498,14.74 C17.478,14.74 16.518,15.14 15.808,15.87 C15.128,16.57 14.748,17.5 14.748,18.49 C14.748,19.16 14.938,19.83 15.288,20.42 C15.478,20.74 15.718,21.02 15.988,21.26 L16.088,21.35 Z"/>
  <path fill="#292D32" d="M19.698,20.43 C19.508,20.43 19.318,20.36 19.168,20.21 L16.788,17.83 C16.498,17.54 16.498,17.06 16.788,16.77 C17.078,16.48 17.558,16.48 17.848,16.77 L20.228,19.15 C20.518,19.44 20.518,19.92 20.228,20.21 C20.088,20.35 19.888,20.43 19.698,20.43 Z"/>
  <path fill="#292D32" d="M17.302,20.45 C17.112,20.45 16.922,20.38 16.772,20.23 C16.482,19.94 16.482,19.46 16.772,19.17 L19.152,16.79 C19.442,16.5 19.922,16.5 20.212,16.79 C20.502,17.08 20.502,17.56 20.212,17.85 L17.832,20.23 C17.682,20.38 17.492,20.45 17.302,20.45 Z"/>
</svg>