<svg xmlns="http://www.w3.org/2000/svg" width="24" height="24" viewBox="0 0 24 24">
  <defs/>
  <path fill="#292D32" d="M7,17.75 L5,17.75 C2.58,17.75 1.25,16.42 1.25,14 L1.25,10 C1.25,7.58 2.58,6.25 5,6.25 L6.43,6.25 C6.66,6.25 6.89,6.18 7.09,6.06 L10.01,4.23 C11.47,3.32 12.89,3.15 14.01,3.77 C15.13,4.39 15.74,5.68 15.74,7.41 L15.74,8.37 C15.74,8.78 15.4,9.12 14.99,9.12 C14.58,9.12 14.24,8.78 14.24,8.37 L14.24,7.41 C14.24,6.27 13.89,5.42 13.28,5.09 C12.67,4.75 11.77,4.9 10.8,5.51 L7.88,7.33 C7.45,7.61 6.94,7.75 6.43,7.75 L5,7.75 C3.42,7.75 2.75,8.42 2.75,10 L2.75,14 C2.75,15.58 3.42,16.25 5,16.25 L7,16.25 C7.41,16.25 7.75,16.59 7.75,17 C7.75,17.41 7.41,17.75 7,17.75 Z"/>
  <path fill="#292D32" d="M12.548,20.59 C11.758,20.59 10.888,20.31 10.018,19.76 C9.668,19.54 9.558,19.08 9.778,18.73 C9.998,18.38 10.458,18.27 10.808,18.49 C11.778,19.09 12.678,19.25 13.288,18.91 C13.898,18.57 14.248,17.72 14.248,16.59 L14.248,12.95 C14.248,12.54 14.588,12.2 14.998,12.2 C15.408,12.2 15.748,12.54 15.748,12.95 L15.748,16.59 C15.748,18.31 15.128,19.61 14.018,20.23 C13.568,20.47 13.068,20.59 12.548,20.59 Z"/>
  <path fill="#292D32" d="M18,16.75 C17.84,16.75 17.69,16.7 17.55,16.6 C17.22,16.35 17.15,15.88 17.4,15.55 C18.66,13.87 18.93,11.64 18.12,9.71 C17.96,9.33 18.14,8.89 18.52,8.73 C18.9,8.57 19.34,8.75 19.5,9.13 C20.52,11.55 20.17,14.36 18.6,16.46 C18.45,16.65 18.23,16.75 18,16.75 Z"/>
  <path fill="#292D32" d="M19.828,19.25 C19.668,19.25 19.518,19.2 19.378,19.1 C19.048,18.85 18.978,18.38 19.228,18.05 C21.368,15.2 21.838,11.38 20.458,8.09 C20.298,7.71 20.478,7.27 20.858,7.11 C21.248,6.95 21.678,7.13 21.838,7.51 C23.428,11.29 22.888,15.67 20.428,18.95 C20.288,19.15 20.058,19.25 19.828,19.25 Z"/>
  <path fill="#292D32" d="M1.998,22.75 C1.808,22.75 1.617,22.68 1.468,22.53 C1.177,22.24 1.177,21.76 1.468,21.47 L21.468,1.47 C21.758,1.18 22.238,1.18 22.527,1.47 C22.817,1.76 22.817,2.24 22.527,2.53 L2.527,22.53 C2.377,22.68 2.188,22.75 1.998,22.75 Z"/>
</svg>