<svg xmlns="http://www.w3.org/2000/svg" width="24" height="24" viewBox="0 0 24 24">
  <defs/>
  <path fill="#292D32" d="M13.878,20.59 C13.088,20.59 12.218,20.31 11.348,19.76 L8.428,17.93 C8.228,17.81 7.998,17.74 7.768,17.74 L6.328,17.74 C3.908,17.74 2.578,16.41 2.578,13.99 L2.578,9.99 C2.578,7.57 3.908,6.24 6.328,6.24 L7.758,6.24 C7.988,6.24 8.218,6.17 8.418,6.05 L11.338,4.22 C12.798,3.31 14.218,3.14 15.338,3.76 C16.458,4.38 17.068,5.67 17.068,7.4 L17.068,16.57 C17.068,18.29 16.448,19.59 15.338,20.21 C14.898,20.47 14.408,20.59 13.878,20.59 Z M6.328,7.75 C4.748,7.75 4.078,8.42 4.078,10 L4.078,14 C4.078,15.58 4.748,16.25 6.328,16.25 L7.758,16.25 C8.278,16.25 8.778,16.39 9.218,16.67 L12.138,18.5 C13.108,19.1 14.008,19.26 14.618,18.92 C15.228,18.58 15.578,17.73 15.578,16.6 L15.578,7.41 C15.578,6.27 15.228,5.42 14.618,5.09 C14.008,4.75 13.108,4.9 12.138,5.51 L9.218,7.33 C8.778,7.61 8.278,7.75 7.758,7.75 L6.328,7.75 Z"/>
  <path fill="#292D32" d="M19.328,16.75 C19.168,16.75 19.018,16.7 18.878,16.6 C18.548,16.35 18.478,15.88 18.728,15.55 C20.298,13.46 20.298,10.54 18.728,8.45 C18.478,8.12 18.548,7.65 18.878,7.4 C19.208,7.15 19.678,7.22 19.928,7.55 C21.898,10.17 21.898,13.83 19.928,16.45 C19.788,16.65 19.558,16.75 19.328,16.75 Z"/>
</svg>