<svg xmlns="http://www.w3.org/2000/svg" width="24" height="24" viewBox="0 0 24 24">
  <defs/>
  <path fill="#4C4C4C" d="M15.81,14.393 C16.044,14.216 16.253,14.004 16.427,13.764 C16.8,13.251 17,12.634 17,12 C17,11.446 16.847,10.904 16.558,10.433 C16.517,10.366 16.474,10.301 16.427,10.237 C16.252,9.996 16.044,9.785 15.81,9.607 C15.753,9.564 15.698,9.518 15.646,9.468 C15.599,9.422 15.554,9.373 15.512,9.323 C15.248,9.002 15.108,8.591 15.236,8.196 C15.407,7.671 15.978,7.375 16.459,7.647 C16.653,7.756 16.839,7.878 17.016,8.012 C17.406,8.307 17.754,8.66 18.045,9.061 C18.666,9.916 19,10.944 19,12 C19,13.056 18.666,14.085 18.045,14.939 C17.754,15.34 17.407,15.693 17.016,15.988 C16.839,16.122 16.653,16.244 16.459,16.354 C15.978,16.625 15.407,16.33 15.236,15.804 C15.108,15.409 15.248,14.999 15.512,14.678 C15.554,14.627 15.599,14.579 15.646,14.533 C15.698,14.483 15.753,14.436 15.81,14.393 Z"/>
  <path fill="#4C4C4C" d="M17.888,17.259 C18.659,16.836 19.332,16.246 19.854,15.526 C20.599,14.501 21,13.267 21,12 C21,10.733 20.599,9.498 19.854,8.473 C19.306,7.719 18.594,7.107 17.775,6.68 C17.774,6.679 17.773,6.679 17.771,6.678 C17.736,6.659 17.701,6.639 17.668,6.617 C17.632,6.594 17.597,6.569 17.564,6.542 C17.206,6.254 17.019,5.787 17.163,5.342 C17.334,4.817 17.902,4.524 18.402,4.759 C18.502,4.806 18.602,4.855 18.7,4.907 C19.791,5.476 20.742,6.292 21.472,7.297 C22.465,8.664 23,10.31 23,12 C23,13.689 22.465,15.335 21.472,16.702 C20.742,17.707 19.791,18.523 18.7,19.093 C18.602,19.144 18.502,19.193 18.402,19.24 C17.902,19.475 17.334,19.182 17.163,18.657 C17.019,18.213 17.206,17.746 17.564,17.458 C17.597,17.431 17.632,17.405 17.668,17.382 C17.701,17.36 17.736,17.34 17.771,17.321 C17.773,17.321 17.774,17.32 17.775,17.319 C17.813,17.3 17.85,17.279 17.888,17.259 Z"/>
  <path fill="#4C4C4C" d="M6,17 L4,17 C2.343,17 1,15.656 1,14 L1,10 C1,8.343 2.343,7 4,7 L6,7 L10.683,2.902 C11.976,1.771 14,2.689 14,4.407 L14,19.592 C14,21.31 11.976,22.229 10.683,21.097 Z M6,15 C6.484,15 6.952,15.175 7.317,15.495 L12,19.592 L12,4.407 L7.317,8.505 C6.952,8.824 6.484,9 6,9 L4,9 C3.448,9 3,9.447 3,10 L3,14 C3,14.552 3.448,15 4,15 Z"/>
</svg>