<svg xmlns="http://www.w3.org/2000/svg" width="24" height="24" viewBox="0 0 24 24">
  <defs/>
  <path fill="#292D32" d="M12.55,20.59 C11.76,20.59 10.89,20.31 10.02,19.76 L7.1,17.93 C6.9,17.81 6.67,17.74 6.44,17.74 L5,17.74 C2.58,17.74 1.25,16.41 1.25,13.99 L1.25,9.99 C1.25,7.57 2.58,6.24 5,6.24 L6.43,6.24 C6.66,6.24 6.89,6.17 7.09,6.05 L10.01,4.22 C11.47,3.31 12.89,3.14 14.01,3.76 C15.13,4.38 15.74,5.67 15.74,7.4 L15.74,16.57 C15.74,18.29 15.12,19.59 14.01,20.21 C13.57,20.47 13.07,20.59 12.55,20.59 Z M5,7.75 C3.42,7.75 2.75,8.42 2.75,10 L2.75,14 C2.75,15.58 3.42,16.25 5,16.25 L6.43,16.25 C6.95,16.25 7.45,16.39 7.89,16.67 L10.81,18.5 C11.78,19.1 12.68,19.26 13.29,18.92 C13.9,18.58 14.25,17.73 14.25,16.6 L14.25,7.41 C14.25,6.27 13.9,5.42 13.29,5.09 C12.68,4.75 11.77,4.9 10.81,5.51 L7.88,7.33 C7.45,7.61 6.94,7.75 6.43,7.75 L5,7.75 Z"/>
  <path fill="#292D32" d="M21.997,14.71 C21.807,14.71 21.617,14.64 21.467,14.49 L17.507,10.53 C17.217,10.24 17.217,9.76 17.507,9.47 C17.797,9.18 18.277,9.18 18.567,9.47 L22.527,13.43 C22.817,13.72 22.817,14.2 22.527,14.49 C22.377,14.63 22.187,14.71 21.997,14.71 Z"/>
  <path fill="#292D32" d="M17.997,14.75 C17.808,14.75 17.617,14.68 17.468,14.53 C17.177,14.24 17.177,13.76 17.468,13.47 L21.427,9.51 C21.718,9.22 22.198,9.22 22.488,9.51 C22.777,9.8 22.777,10.28 22.488,10.57 L18.527,14.53 C18.378,14.68 18.188,14.75 17.997,14.75 Z"/>
</svg>