<svg xmlns="http://www.w3.org/2000/svg" width="24" height="24" viewBox="0 0 24 24">
  <defs/>
  <path fill="#292D32" d="M6.192,7.81 C5.952,7.81 5.732,7.7 5.582,7.5 C5.412,7.27 5.392,6.97 5.522,6.72 C5.692,6.38 5.932,6.05 6.242,5.75 L9.492,2.49 C11.152,0.84 13.852,0.84 15.512,2.49 L17.262,4.27 C18.002,5 18.452,5.98 18.502,7.02 C18.512,7.25 18.422,7.47 18.252,7.62 C18.082,7.77 17.852,7.84 17.632,7.8 C17.432,7.77 17.222,7.76 17.002,7.76 L7.002,7.76 C6.762,7.76 6.532,7.78 6.302,7.81 C6.272,7.81 6.232,7.81 6.192,7.81 Z M7.862,6.25 L16.822,6.25 C16.692,5.91 16.482,5.6 16.202,5.32 L14.442,3.54 C13.372,2.48 11.622,2.48 10.542,3.54 L7.862,6.25 Z"/>
  <path fill="#292D32" d="M5,23.75 C3.34,23.75 1.78,22.87 0.94,21.44 C0.49,20.72 0.25,19.87 0.25,19 C0.25,16.38 2.38,14.25 5,14.25 C7.62,14.25 9.75,16.38 9.75,19 C9.75,19.87 9.51,20.72 9.06,21.45 C8.22,22.87 6.66,23.75 5,23.75 Z M5,15.75 C3.21,15.75 1.75,17.21 1.75,19 C1.75,19.59 1.91,20.17 2.22,20.67 C2.81,21.67 3.85,22.25 5,22.25 C6.15,22.25 7.19,21.66 7.78,20.68 C8.09,20.17 8.25,19.6 8.25,19 C8.25,17.21 6.79,15.75 5,15.75 Z"/>
  <path fill="#292D32" d="M6.488,19.73 L3.508,19.73 C3.098,19.73 2.758,19.39 2.758,18.98 C2.758,18.57 3.098,18.23 3.508,18.23 L6.498,18.23 C6.908,18.23 7.248,18.57 7.248,18.98 C7.248,19.39 6.908,19.73 6.488,19.73 Z"/>
  <path fill="#292D32" d="M5,21.26 C4.59,21.26 4.25,20.92 4.25,20.51 L4.25,17.52 C4.25,17.11 4.59,16.77 5,16.77 C5.41,16.77 5.75,17.11 5.75,17.52 L5.75,20.51 C5.75,20.93 5.41,21.26 5,21.26 Z"/>
  <path fill="#292D32" d="M16.997,22.75 L7.627,22.75 C7.307,22.75 7.027,22.55 6.917,22.26 C6.807,21.96 6.897,21.63 7.137,21.43 C7.377,21.23 7.597,20.97 7.757,20.69 C8.077,20.18 8.237,19.6 8.237,19.01 C8.237,17.22 6.777,15.76 4.987,15.76 C4.057,15.76 3.167,16.16 2.547,16.87 C2.337,17.1 2.007,17.19 1.717,17.08 C1.427,16.97 1.227,16.69 1.227,16.38 L1.227,12 C1.227,8.92 3.127,6.69 6.077,6.32 C6.347,6.28 6.657,6.25 6.977,6.25 L16.977,6.25 C17.217,6.25 17.527,6.26 17.847,6.31 C20.797,6.65 22.727,8.89 22.727,12 L22.727,17 C22.747,20.44 20.437,22.75 16.997,22.75 Z M9.177,21.25 L16.997,21.25 C19.577,21.25 21.247,19.58 21.247,17 L21.247,12 C21.247,9.66 19.877,8.05 17.657,7.79 C17.417,7.75 17.207,7.75 16.997,7.75 L6.997,7.75 C6.757,7.75 6.527,7.77 6.297,7.8 C4.097,8.08 2.747,9.68 2.747,12 L2.747,14.82 C3.427,14.45 4.207,14.25 4.997,14.25 C7.617,14.25 9.747,16.38 9.747,19 C9.747,19.79 9.547,20.57 9.177,21.25 Z"/>
  <path fill="#292D32" d="M22,17.25 L19,17.25 C17.48,17.25 16.25,16.02 16.25,14.5 C16.25,12.98 17.48,11.75 19,11.75 L22,11.75 C22.41,11.75 22.75,12.09 22.75,12.5 C22.75,12.91 22.41,13.25 22,13.25 L19,13.25 C18.31,13.25 17.75,13.81 17.75,14.5 C17.75,15.19 18.31,15.75 19,15.75 L22,15.75 C22.41,15.75 22.75,16.09 22.75,16.5 C22.75,16.91 22.41,17.25 22,17.25 Z"/>
</svg>