<svg xmlns="http://www.w3.org/2000/svg" width="24" height="24" viewBox="0 0 24 24">
  <defs/>
  <path fill="#292D32" d="M17,22.75 L12,22.75 C11.59,22.75 11.25,22.41 11.25,22 C11.25,21.59 11.59,21.25 12,21.25 L17,21.25 C19.58,21.25 21.25,19.58 21.25,17 L21.25,12 C21.25,9.71 19.83,8 17.71,7.75 L17,7.75 L7,7.75 C6.72,7.75 6.62,7.75 6.44,7.81 C6.39,7.83 6.34,7.84 6.29,7.84 C4.08,8.1 2.75,9.65 2.75,12 L2.75,13 C2.75,13.41 2.41,13.75 2,13.75 C1.59,13.75 1.25,13.41 1.25,13 L1.25,12 C1.25,8.94 3.13,6.73 6.04,6.36 C6.42,6.25 6.7,6.25 7,6.25 L17.8,6.25 C20.8,6.6 22.75,8.91 22.75,12 L22.75,17 C22.75,20.44 20.44,22.75 17,22.75 Z"/>
  <path fill="#292D32" d="M6.202,7.85 C6.002,7.85 5.812,7.77 5.672,7.63 C5.472,7.43 5.402,7.13 5.492,6.86 C5.652,6.39 5.942,6.1 6.272,5.77 L9.462,2.48 C11.112,0.83 13.892,0.83 15.532,2.47 L17.332,4.27 C17.992,4.93 18.412,5.84 18.542,6.91 C18.572,7.12 18.502,7.34 18.362,7.5 C18.222,7.66 18.012,7.75 17.802,7.75 L7.002,7.75 C6.722,7.75 6.622,7.75 6.442,7.81 C6.362,7.84 6.282,7.85 6.202,7.85 Z M7.892,6.25 L16.852,6.25 C16.732,5.93 16.542,5.61 16.272,5.33 L14.472,3.53 C13.402,2.46 11.602,2.46 10.532,3.53 L7.892,6.25 Z"/>
  <path fill="#292D32" d="M22,17.25 L19,17.25 C17.48,17.25 16.25,16.02 16.25,14.5 C16.25,12.98 17.48,11.75 19,11.75 L22,11.75 C22.41,11.75 22.75,12.09 22.75,12.5 C22.75,12.91 22.41,13.25 22,13.25 L19,13.25 C18.31,13.25 17.75,13.81 17.75,14.5 C17.75,15.19 18.31,15.75 19,15.75 L22,15.75 C22.41,15.75 22.75,16.09 22.75,16.5 C22.75,16.91 22.41,17.25 22,17.25 Z"/>
  <path fill="#292D32" d="M5.802,22.15 C3.622,22.15 1.852,20.38 1.852,18.2 C1.852,16.02 3.622,14.25 5.802,14.25 C7.982,14.25 9.752,16.02 9.752,18.2 C9.752,20.38 7.982,22.15 5.802,22.15 Z M5.802,15.75 C4.452,15.75 3.352,16.85 3.352,18.2 C3.352,19.55 4.452,20.65 5.802,20.65 C7.152,20.65 8.252,19.55 8.252,18.2 C8.252,16.85 7.152,15.75 5.802,15.75 Z"/>
  <path fill="#292D32" d="M1.998,22.75 C1.808,22.75 1.617,22.68 1.468,22.53 C1.177,22.24 1.177,21.76 1.468,21.47 L2.467,20.47 C2.757,20.18 3.237,20.18 3.527,20.47 C3.817,20.76 3.817,21.24 3.527,21.53 L2.527,22.53 C2.377,22.68 2.188,22.75 1.998,22.75 Z"/>
</svg>