<svg xmlns="http://www.w3.org/2000/svg" width="24" height="24" viewBox="0 0 24 24">
  <defs/>
  <path fill="#292D32" d="M12,13.75 C11.59,13.75 11.25,13.41 11.25,13 L11.25,7.75 C11.25,7.34 11.59,7 12,7 C12.41,7 12.75,7.34 12.75,7.75 L12.75,13 C12.75,13.41 12.41,13.75 12,13.75 Z"/>
  <path fill="#292D32" d="M12,17.25 C11.73,17.25 11.48,17.15 11.29,16.96 C11.2,16.86 11.13,16.75 11.07,16.63 C11.02,16.51 11,16.38 11,16.25 C11,15.99 11.11,15.73 11.29,15.54 C11.66,15.17 12.34,15.17 12.71,15.54 C12.89,15.73 13,15.99 13,16.25 C13,16.38 12.97,16.51 12.92,16.63 C12.87,16.75 12.8,16.86 12.71,16.96 C12.52,17.15 12.27,17.25 12,17.25 Z"/>
  <path fill="#292D32" d="M11.996,22.75 C11.326,22.75 10.646,22.58 10.046,22.23 L4.106,18.8 C2.906,18.1 2.156,16.81 2.156,15.42 L2.156,8.58 C2.156,7.19 2.906,5.9 4.106,5.2 L10.046,1.77 C11.246,1.07 12.736,1.07 13.946,1.77 L19.886,5.2 C21.086,5.9 21.836,7.19 21.836,8.58 L21.836,15.42 C21.836,16.81 21.086,18.1 19.886,18.8 L13.946,22.23 C13.346,22.58 12.666,22.75 11.996,22.75 Z M11.996,2.75 C11.586,2.75 11.166,2.86 10.796,3.07 L4.856,6.5 C4.116,6.93 3.656,7.72 3.656,8.58 L3.656,15.42 C3.656,16.27 4.116,17.07 4.856,17.5 L10.796,20.93 C11.536,21.36 12.456,21.36 13.186,20.93 L19.126,17.5 C19.866,17.07 20.326,16.28 20.326,15.42 L20.326,8.58 C20.326,7.73 19.866,6.93 19.126,6.5 L13.186,3.07 C12.826,2.86 12.406,2.75 11.996,2.75 Z"/>
</svg>