<svg xmlns="http://www.w3.org/2000/svg" width="24" height="24" viewBox="0 0 24 24">
  <defs/>
  <path fill="#292D32" d="M18.003,10.71 C17.843,10.71 17.683,10.66 17.543,10.55 C14.172,7.95 9.822,7.95 6.462,10.55 C6.132,10.8 5.662,10.74 5.412,10.42 C5.162,10.09 5.222,9.62 5.542,9.37 C9.462,6.34 14.533,6.34 18.462,9.37 C18.793,9.62 18.852,10.09 18.593,10.42 C18.453,10.61 18.223,10.71 18.003,10.71 Z"/>
  <path fill="#292D32" d="M16.398,13.8 C16.238,13.8 16.078,13.75 15.938,13.64 C13.538,11.79 10.448,11.79 8.048,13.64 C7.718,13.89 7.248,13.83 6.998,13.51 C6.748,13.18 6.808,12.71 7.128,12.46 C10.078,10.18 13.898,10.18 16.848,12.46 C17.178,12.71 17.238,13.18 16.978,13.51 C16.848,13.7 16.628,13.8 16.398,13.8 Z"/>
  <path fill="#292D32" d="M14.201,16.89 C14.041,16.89 13.882,16.84 13.742,16.73 C12.681,15.91 11.312,15.91 10.252,16.73 C9.922,16.98 9.452,16.92 9.202,16.6 C8.952,16.27 9.012,15.8 9.332,15.55 C10.921,14.32 13.062,14.32 14.652,15.55 C14.982,15.8 15.041,16.27 14.781,16.6 C14.652,16.79 14.431,16.89 14.201,16.89 Z"/>
  <path fill="#292D32" d="M15,22.75 L9,22.75 C3.57,22.75 1.25,20.43 1.25,15 L1.25,9 C1.25,3.57 3.57,1.25 9,1.25 L15,1.25 C20.43,1.25 22.75,3.57 22.75,9 L22.75,15 C22.75,20.43 20.43,22.75 15,22.75 Z M9,2.75 C4.39,2.75 2.75,4.39 2.75,9 L2.75,15 C2.75,19.61 4.39,21.25 9,21.25 L15,21.25 C19.61,21.25 21.25,19.61 21.25,15 L21.25,9 C21.25,4.39 19.61,2.75 15,2.75 L9,2.75 Z"/>
</svg>