<svg xmlns="http://www.w3.org/2000/svg" width="24" height="24" viewBox="0 0 24 24">
  <defs/>
  <path fill="#292D32" d="M19.091,12.59 C18.931,12.59 18.771,12.54 18.631,12.43 C14.601,9.32 9.391,9.32 5.361,12.43 C5.031,12.68 4.561,12.62 4.311,12.3 C4.061,11.97 4.121,11.5 4.441,11.25 C9.031,7.7 14.961,7.7 19.541,11.25 C19.871,11.5 19.931,11.97 19.671,12.3 C19.541,12.49 19.321,12.59 19.091,12.59 Z"/>
  <path fill="#292D32" d="M22.003,9.11 C21.843,9.11 21.683,9.06 21.543,8.95 C15.742,4.47 8.252,4.47 2.462,8.95 C2.132,9.2 1.662,9.14 1.412,8.82 C1.162,8.49 1.222,8.02 1.542,7.77 C7.892,2.86 16.102,2.86 22.462,7.77 C22.793,8.02 22.852,8.49 22.593,8.82 C22.453,9.01 22.223,9.11 22.003,9.11 Z"/>
  <path fill="#292D32" d="M17.212,16.24 C17.052,16.24 16.892,16.19 16.752,16.08 C13.871,13.85 10.142,13.85 7.252,16.08 C6.922,16.33 6.452,16.27 6.202,15.95 C5.952,15.62 6.012,15.15 6.332,14.9 C9.772,12.24 14.222,12.24 17.662,14.9 C17.991,15.15 18.052,15.62 17.791,15.95 C17.651,16.14 17.431,16.24 17.212,16.24 Z"/>
  <path fill="#292D32" d="M14.603,19.9 C14.443,19.9 14.283,19.85 14.143,19.74 C12.843,18.73 11.153,18.73 9.853,19.74 C9.523,19.99 9.053,19.93 8.803,19.61 C8.553,19.28 8.613,18.81 8.933,18.56 C10.793,17.12 13.193,17.12 15.053,18.56 C15.383,18.81 15.443,19.28 15.183,19.61 C15.053,19.79 14.833,19.9 14.603,19.9 Z"/>
</svg>