<svg width="24" height="24" viewBox="0 0 24 24" fill="none" xmlns="http://www.w3.org/2000/svg">
<path d="M21.5628 10.7401L20.2028 9.16006C19.9428 8.86006 19.7328 8.30006 19.7328 7.90006V6.20006C19.7328 5.14006 18.8628 4.27006 17.8028 4.27006H16.1028C15.7128 4.27006 15.1428 4.06006 14.8428 3.80006L13.2628 2.44006C12.5728 1.85006 11.4428 1.85006 10.7428 2.44006L9.17281 3.81006C8.87281 4.06006 8.30281 4.27006 7.91281 4.27006H6.18281C5.12281 4.27006 4.25281 5.14006 4.25281 6.20006V7.91006C4.25281 8.30006 4.04281 8.86006 3.79281 9.16006L2.44281 10.7501C1.86281 11.4401 1.86281 12.5601 2.44281 13.2501L3.79281 14.8401C4.04281 15.1401 4.25281 15.7001 4.25281 16.0901V17.8001C4.25281 18.8601 5.12281 19.7301 6.18281 19.7301H7.91281C8.30281 19.7301 8.87281 19.9401 9.17281 20.2001L10.7528 21.5601C11.4428 22.1501 12.5728 22.1501 13.2728 21.5601L14.8528 20.2001C15.1528 19.9401 15.7128 19.7301 16.1128 19.7301H17.8128C18.8728 19.7301 19.7428 18.8601 19.7428 17.8001V16.1001C19.7428 15.7101 19.9528 15.1401 20.2128 14.8401L21.5728 13.2601C22.1528 12.5701 22.1528 11.4301 21.5628 10.7401ZM16.1628 10.1101L11.3328 14.9401C11.1928 15.0801 11.0028 15.1601 10.8028 15.1601C10.6028 15.1601 10.4128 15.0801 10.2728 14.9401L7.85281 12.5201C7.56281 12.2301 7.56281 11.7501 7.85281 11.4601C8.14281 11.1701 8.62281 11.1701 8.91281 11.4601L10.8028 13.3501L15.1028 9.05006C15.3928 8.76006 15.8728 8.76006 16.1628 9.05006C16.4528 9.34006 16.4528 9.82006 16.1628 10.1101Z" fill="#039855"/>
</svg>
