<svg width="24" height="24" viewBox="0 0 24 24" fill="none" xmlns="http://www.w3.org/2000/svg">
<g clip-path="url(#clip0_21394_98415)">
<g clip-path="url(#clip1_21394_98415)">
<path d="M23.7478 12.27C23.7478 11.48 23.6778 10.73 23.5578 10H12.2578V14.51H18.7278C18.4378 15.99 17.5878 17.24 16.3278 18.09V21.09H20.1878C22.4478 19 23.7478 15.92 23.7478 12.27Z" fill="#4285F4"/>
<path d="M12.2569 24C15.4969 24 18.2069 22.92 20.1869 21.09L16.3269 18.09C15.2469 18.81 13.8769 19.25 12.2569 19.25C9.12688 19.25 6.47688 17.14 5.52688 14.29H1.54688V17.38C3.51688 21.3 7.56688 24 12.2569 24Z" fill="#34A853"/>
<path d="M5.52781 14.2901C5.27781 13.5701 5.14781 12.8001 5.14781 12.0001C5.14781 11.2001 5.28781 10.4301 5.52781 9.71012V6.62012H1.54781C0.727812 8.24012 0.257812 10.0601 0.257812 12.0001C0.257812 13.9401 0.727812 15.7601 1.54781 17.3801L5.52781 14.2901Z" fill="#FBBC05"/>
<path d="M12.2569 4.75C14.0269 4.75 15.6069 5.36 16.8569 6.55L20.2769 3.13C18.2069 1.19 15.4969 0 12.2569 0C7.56688 0 3.51688 2.7 1.54688 6.62L5.52688 9.71C6.47688 6.86 9.12688 4.75 12.2569 4.75Z" fill="#EA4335"/>
</g>
</g>
<defs>
<clipPath id="clip0_21394_98415">
<rect width="24" height="24" fill="white"/>
</clipPath>
<clipPath id="clip1_21394_98415">
<rect width="24" height="24" fill="white"/>
</clipPath>
</defs>
</svg>
